<svg xmlns="http://www.w3.org/2000/svg" xmlns:xlink="http://www.w3.org/1999/xlink" viewBox="0 0 227.27 205.35"><defs><style>.cls-1,.cls-16{fill:#0065ff;}.cls-2{fill:#4c9aff;}.cls-3{fill:#2684ff;}.cls-4{fill:#00b8d9;}.cls-5{fill:#79e2f2;}.cls-6{opacity:0.5;}.cls-7{fill:#00c7e5;}.cls-8{fill:#c1c7d0;}.cls-9{fill:#dfe1e5;}.cls-10{fill:#b2d4ff;}.cls-11{fill:url(#linear-gradient);}.cls-12{fill:#deebff;}.cls-13{fill:url(#linear-gradient-2);}.cls-14{fill:url(#linear-gradient-3);}.cls-15{fill:#b3f5ff;}.cls-16{fill-rule:evenodd;}</style><linearGradient id="linear-gradient" x1="120.23" y1="106.69" x2="173.7" y2="53.21" gradientUnits="userSpaceOnUse"><stop offset="0" stop-color="#dfe1e5"/><stop offset="1" stop-color="#ebecf0"/></linearGradient><linearGradient id="linear-gradient-2" x1="135.13" y1="200.29" x2="200.88" y2="134.54" gradientUnits="userSpaceOnUse"><stop offset="0" stop-color="#4c9aff"/><stop offset="0.23" stop-color="#75b1ff"/><stop offset="0.59" stop-color="#add0ff"/><stop offset="0.86" stop-color="#d1e4ff"/><stop offset="1" stop-color="#deebff"/></linearGradient><linearGradient id="linear-gradient-3" x1="134.34" y1="201.07" x2="208.33" y2="127.09" gradientUnits="userSpaceOnUse"><stop offset="0.28" stop-color="#4c9aff"/><stop offset="0.45" stop-color="#75b1ff"/><stop offset="0.71" stop-color="#add0ff"/><stop offset="0.9" stop-color="#d1e4ff"/><stop offset="1" stop-color="#deebff"/></linearGradient></defs><g id="Layer_2" data-name="Layer 2"><g id="Layer_1-2" data-name="Layer 1"><rect class="cls-1" width="96.13" height="96.13" rx="12.16"/><rect class="cls-2" x="10.89" width="96.13" height="96.13" rx="12.16"/><path class="cls-3" d="M94.88,11.81a.34.34,0,0,1,.34.33V84a.34.34,0,0,1-.33.35H23.05a.34.34,0,0,1-.34-.33V12.16a.34.34,0,0,1,.32-.35H94.88M94.88,0H23.05A12.17,12.17,0,0,0,10.89,12.16h0V84A12.17,12.17,0,0,0,23.05,96.13H94.88A12.15,12.15,0,0,0,107,84h0V12.16A12.15,12.15,0,0,0,94.88,0Z"/><rect class="cls-4" x="0.46" y="109.22" width="96.13" height="96.13" rx="12.16"/><rect class="cls-5" x="11.36" y="109.22" width="96.13" height="96.13" rx="12.16"/><g class="cls-6"><path class="cls-7" d="M95.34,121a.34.34,0,0,1,.34.33h0v71.82a.33.33,0,0,1-.32.34H23.51a.33.33,0,0,1-.34-.32V121.37a.34.34,0,0,1,.33-.34H95.34m0-11.81H23.51a12.15,12.15,0,0,0-12.15,12.15h0v71.82a12.17,12.17,0,0,0,12.15,12.16H95.34a12.18,12.18,0,0,0,12.16-12.16h0V121.37A12.17,12.17,0,0,0,95.34,109.22Z"/></g><path class="cls-8" d="M130.78,84h0V12.16A12.15,12.15,0,0,1,142.94,0H132a12.15,12.15,0,0,0-12.15,12.16V84A12.15,12.15,0,0,0,132,96.13h10.9A12.15,12.15,0,0,1,130.78,84Z"/><path class="cls-9" d="M217.21,95.88l-.49.08Z"/><path class="cls-9" d="M216,96.07c-.2,0-.4,0-.61,0C215.6,96.09,215.8,96.09,216,96.07Z"/><path class="cls-9" d="M218.37,95.58l-.1,0Z"/><path class="cls-9" d="M130.78,84h0a12.15,12.15,0,0,0,12.16,12.16A12.15,12.15,0,0,1,130.78,84Z"/><path class="cls-9" d="M130.78,12.16A12.15,12.15,0,0,1,142.94,0,12.15,12.15,0,0,0,130.78,12.16Z"/><rect class="cls-10" x="202.26" y="25.01" width="12.51" height="12.51"/><path class="cls-9" d="M226.91,84a12.15,12.15,0,0,1-8.54,11.61A12.18,12.18,0,0,0,226.92,84V75h0Z"/><path class="cls-9" d="M216.72,96l-.72.11Z"/><path class="cls-9" d="M218.27,95.61c-.35.1-.7.2-1.06.27C217.57,95.81,217.92,95.71,218.27,95.61Z"/><path class="cls-9" d="M214.76,96.13c.21,0,.42,0,.63,0-.21,0-.42,0-.64,0Z"/><path class="cls-9" d="M216,75h-.92V84a.34.34,0,0,1-.32.35H142.94a.34.34,0,0,1-.35-.33V12.16a.34.34,0,0,1,.33-.35h21.82V0h-21.8a12.15,12.15,0,0,0-12.16,12.16V84a12.15,12.15,0,0,0,12.16,12.16h71.81c.22,0,.43,0,.64,0s.41,0,.61,0l.72-.11.49-.08c.36-.07.71-.17,1.06-.27l.1,0A12.15,12.15,0,0,0,226.91,84V75Z"/><rect class="cls-10" x="177.24" y="25.01" width="12.51" height="12.51"/><path class="cls-11" d="M214.76,62.53h-25V50h12.51V37.52h-25V50h-12.5V37.52h12.5V11.81H142.92a.34.34,0,0,0-.33.35V84a.34.34,0,0,0,.35.33h71.84a.34.34,0,0,0,.32-.35V62.53Z"/><rect class="cls-12" x="189.75" y="12.51" width="12.51" height="12.51"/><polygon class="cls-12" points="226.92 37.52 226.91 37.52 216.02 37.52 215.1 37.52 214.76 37.52 214.76 50.03 202.26 50.03 202.26 62.53 214.76 62.53 215.1 62.53 216.02 62.53 226.91 62.53 226.92 62.53 227.27 62.53 227.27 37.52 226.92 37.52"/><rect class="cls-10" x="164.74" y="37.52" width="12.51" height="12.51"/><path class="cls-3" d="M130.78,192.48h0V120.66a12.16,12.16,0,0,1,12.16-12.16H132a12.16,12.16,0,0,0-12.15,12.16v71.82A12.15,12.15,0,0,0,132,204.63h10.9A12.15,12.15,0,0,1,130.78,192.48Z"/><path class="cls-12" d="M217.21,204.39l-.49.07Z"/><path class="cls-12" d="M216,204.57c-.2,0-.4,0-.61,0C215.6,204.59,215.8,204.59,216,204.57Z"/><path class="cls-12" d="M218.37,204.09l-.1,0Z"/><path class="cls-12" d="M130.78,192.48h0a12.15,12.15,0,0,0,12.16,12.15A12.15,12.15,0,0,1,130.78,192.48Z"/><path class="cls-12" d="M130.78,120.66a12.17,12.17,0,0,1,12.16-12.16A12.16,12.16,0,0,0,130.78,120.66Z"/><path class="cls-13" d="M214.76,145.8V133.29h-12.5V145.8H189.75v12.5H177.24V145.8h12.51V133.29h12.51V120.78H189.75v-.46H142.92a.34.34,0,0,0-.33.34V192.5a.34.34,0,0,0,.35.32h71.84a.33.33,0,0,0,.32-.34V145.8Z"/><path class="cls-14" d="M215.1,145.8v46.68a.33.33,0,0,1-.32.34H142.94a.34.34,0,0,1-.35-.32V120.66a.34.34,0,0,1,.33-.34h46.83V108.5H142.94a12.17,12.17,0,0,0-12.16,12.16v71.82a12.15,12.15,0,0,0,12.16,12.15h71.82l.63,0c.21,0,.41,0,.61,0s.48-.07.72-.11l.49-.07c.36-.08.71-.17,1.06-.28l.1,0a12.19,12.19,0,0,0,8.55-11.61V145.8Z"/><polygon class="cls-9" points="214.76 133.29 214.76 145.8 215.1 145.8 226.92 145.8 227.27 145.8 227.27 133.29 214.76 133.29"/><polygon class="cls-9" points="189.75 120.78 189.75 133.29 190.09 133.29 201.9 133.29 202.26 133.29 202.26 120.78 189.75 120.78"/><rect class="cls-2" x="202.26" y="108.28" width="12.51" height="12.51"/><path id="_Clipping_Path_" data-name=" Clipping Path " class="cls-15" d="M74.35,161.25V156A1.42,1.42,0,0,0,73,154.52H63.05v-9.9a1.43,1.43,0,0,0-1.42-1.42H56.3a1.42,1.42,0,0,0-1.43,1.4h0v9.91H45a1.42,1.42,0,0,0-1.43,1.4h0v5.31A1.42,1.42,0,0,0,45,162.62h9.9v9.9A1.45,1.45,0,0,0,56.29,174H61.6A1.44,1.44,0,0,0,63,172.5v-9.88H72.9a1.4,1.4,0,0,0,1.45-1.35h0Z"/><rect class="cls-2" x="189.75" y="133.29" width="12.51" height="12.51"/><path class="cls-16" d="M51,34.79,39.5,46.28a2.64,2.64,0,0,0-.55.81,2.7,2.7,0,0,0-.19,1,2.5,2.5,0,0,0,.74,1.79h0L51,61.34a2.67,2.67,0,0,0,3.72,0,2.6,2.6,0,0,0,.78-1.85,2.65,2.65,0,0,0-.74-1.87h0l-9.53-9.52,9.53-9.51a2.64,2.64,0,0,0,0-3.75h0a2.75,2.75,0,0,0-.86-.57,2.55,2.55,0,0,0-1-.21,2.62,2.62,0,0,0-1.88.78Zm12.14,0a2.64,2.64,0,0,0,0,3.76h0l9.53,9.52-9.53,9.51a2.62,2.62,0,0,0-.78,1.88,2.73,2.73,0,0,0,.2,1,2.78,2.78,0,0,0,.58.86,2.58,2.58,0,0,0,.86.57,2.55,2.55,0,0,0,1,.21,2.73,2.73,0,0,0,1.88-.78L78.42,49.86a2.56,2.56,0,0,0,.74-1.79,2.52,2.52,0,0,0-.74-1.78h0L66.91,34.79A2.66,2.66,0,0,0,65,34a2.54,2.54,0,0,0-1,.2,2.64,2.64,0,0,0-.86.57Z"/></g></g></svg>