<svg width="97" height="80" viewBox="0 0 97 80" fill="none" xmlns="http://www.w3.org/2000/svg">
<path d="M26.725 47.7826H28.8171" stroke="#00C7E5" stroke-width="3.37" stroke-miterlimit="10"/>
<path d="M77.4484 0H31.9108C28.6464 0 26 2.64637 26 5.91082V65.8992C26 69.1636 28.6464 71.81 31.9108 71.81H77.4484C80.7129 71.81 83.3592 69.1636 83.3592 65.8992V5.91082C83.3592 2.64637 80.7129 0 77.4484 0Z" fill="url(#paint0_linear)"/>
<path d="M54.5936 35.4916C61.5488 35.4916 67.1872 29.8533 67.1872 22.898C67.1872 15.9428 61.5488 10.3044 54.5936 10.3044C47.6383 10.3044 42 15.9428 42 22.898C42 29.8533 47.6383 35.4916 54.5936 35.4916Z" stroke="#57D9A3" stroke-width="4" stroke-miterlimit="10"/>
<path d="M52.9098 28.4642L48.431 24.0164C48.3808 23.968 48.3409 23.91 48.3137 23.846C48.2865 23.7819 48.2725 23.7131 48.2725 23.6436C48.2725 23.5741 48.2865 23.5053 48.3137 23.4413C48.3409 23.3773 48.3808 23.3193 48.431 23.2708L49.9763 21.7362C50.0251 21.6864 50.0835 21.6468 50.148 21.6198C50.2125 21.5928 50.2817 21.5788 50.3517 21.5788C50.4217 21.5788 50.491 21.5928 50.5555 21.6198C50.62 21.6468 50.6783 21.6864 50.7271 21.7362L53.2504 24.2765L58.873 18.693C58.9218 18.6432 58.9802 18.6036 59.0446 18.5766C59.1091 18.5496 59.1784 18.5356 59.2484 18.5356C59.3184 18.5356 59.3877 18.5496 59.4521 18.5766C59.5166 18.6036 59.575 18.6432 59.6238 18.693L61.1692 20.2276C61.2689 20.3282 61.3248 20.4637 61.3248 20.6048C61.3248 20.7459 61.2689 20.8814 61.1692 20.9819L53.6258 28.4642C53.5287 28.5544 53.4007 28.6046 53.2678 28.6046C53.1349 28.6046 53.0069 28.5544 52.9098 28.4642Z" fill="#36B37E"/>
<path d="M10.2611 61.5222C15.9282 61.5222 20.5222 56.9282 20.5222 51.2611C20.5222 45.594 15.9282 41 10.2611 41C4.59406 41 0 45.594 0 51.2611C0 56.9282 4.59406 61.5222 10.2611 61.5222Z" fill="#00C7E5"/>
<path d="M14.3996 58.6303C13.9481 58.4262 13.5585 58.1063 13.2705 57.7031C12.9825 57.2998 12.8062 56.8276 12.7596 56.3343H15.1158C15.2608 56.3343 15.3998 56.2767 15.5023 56.1742C15.6049 56.0716 15.6625 55.9326 15.6625 55.7876V49.4462C15.6721 48.3569 15.3562 47.2896 14.7551 46.3812C14.1541 45.4727 13.2953 44.7646 12.2891 44.3475C11.2828 43.9304 10.1749 43.8235 9.10742 44.0403C8.03995 44.2572 7.06162 44.7881 6.2979 45.5648C5.28109 46.6021 4.70681 47.9937 4.69614 49.4462V55.7657C4.69614 55.9107 4.75373 56.0498 4.85625 56.1523C4.95877 56.2548 5.09783 56.3124 5.24282 56.3124H7.57712C7.5327 56.8064 7.35729 57.2796 7.069 57.6832C6.78071 58.0868 6.38998 58.4062 5.93709 58.6084C5.33041 58.8725 4.75168 59.1967 4.20959 59.5761C5.93949 60.8203 8.01497 61.4929 10.1458 61.4997C12.2767 61.5066 14.3564 60.8474 16.0943 59.6143C15.5629 59.2317 14.9953 58.9022 14.3996 58.6303Z" fill="#79E2F2"/>
<path d="M28.6076 61.5222C34.2746 61.5222 38.8687 56.9282 38.8687 51.2611C38.8687 45.594 34.2746 41 28.6076 41C22.9405 41 18.3464 45.594 18.3464 51.2611C18.3464 56.9282 22.9405 61.5222 28.6076 61.5222Z" fill="#79E2F2"/>
<path d="M24.2125 58.3023C23.5301 58.5849 22.8765 58.9328 22.2609 59.341C24.0029 60.7207 26.1472 61.4949 28.3688 61.5462C30.5904 61.5975 32.7682 60.9231 34.572 59.6253C33.9795 59.1304 33.3427 58.6912 32.6696 58.3132C32.1483 58.1027 31.7015 57.7417 31.3861 57.2764C31.0706 56.811 30.9008 56.2623 30.8984 55.7001C30.8956 55.2948 30.9819 54.8938 31.1509 54.5255C31.32 54.1571 31.5678 53.8303 31.8769 53.5681C32.7222 52.8613 33.3298 51.9118 33.6174 50.8482C33.905 49.7846 33.8588 48.6583 33.4849 47.6219C33.111 46.5854 32.4276 45.689 31.5272 45.0539C30.6268 44.4189 29.5529 44.076 28.4511 44.0716C27.3493 44.0673 26.2728 44.4017 25.3674 45.0296C24.462 45.6575 23.7716 46.5486 23.3895 47.582C23.0074 48.6155 22.9523 49.7414 23.2315 50.8073C23.5107 51.8731 24.1108 52.8274 24.9505 53.5407C25.2668 53.8048 25.5213 54.135 25.6961 54.5081C25.8708 54.8812 25.9616 55.2881 25.9619 55.7001C25.9612 56.2584 25.7945 56.8039 25.483 57.2673C25.1715 57.7306 24.7292 58.0909 24.2125 58.3023Z" fill="#00C7E5"/>
<path d="M42 47H67" stroke="#C7CCD4" stroke-width="1.3" stroke-miterlimit="10"/>
<path d="M42 52.3737H67" stroke="#C7CCD4" stroke-width="1.3" stroke-miterlimit="10"/>
<path d="M42 57.7408H57.3128" stroke="#C7CCD4" stroke-width="1.3" stroke-miterlimit="10"/>
<path d="M85.9352 79.3069C91.8189 79.3069 96.5886 74.5372 96.5886 68.6535C96.5886 62.7697 91.8189 58 85.9352 58C80.0514 58 75.2817 62.7697 75.2817 68.6535C75.2817 74.5372 80.0514 79.3069 85.9352 79.3069Z" fill="#FFE380"/>
<path d="M90.232 76.3046C89.7614 76.0951 89.3554 75.7636 89.0561 75.3445C88.7567 74.9254 88.5748 74.4338 88.5293 73.9208H90.9699C91.0467 73.9246 91.1236 73.9128 91.1958 73.886C91.268 73.8592 91.3339 73.818 91.3897 73.7649C91.4454 73.7118 91.4898 73.6479 91.5201 73.5771C91.5503 73.5064 91.5659 73.4302 91.5658 73.3532V66.7863C91.5747 65.6559 91.2458 64.5486 90.6214 63.6063C89.9969 62.664 89.1053 61.9296 88.0608 61.4973C87.0163 61.065 85.8665 60.9544 84.7587 61.1798C83.651 61.4051 82.6358 61.9561 81.8432 62.7622C80.7868 63.8368 80.1886 65.2794 80.1745 66.7863V73.3475C80.1745 73.498 80.2343 73.6424 80.3408 73.7488C80.4472 73.8553 80.5916 73.9151 80.7421 73.9151H83.1657C83.119 74.4278 82.9366 74.9188 82.6374 75.3378C82.3381 75.7567 81.9328 76.0884 81.4629 76.2989C80.8329 76.5765 80.2305 76.9128 79.6637 77.3035C81.4597 78.5953 83.6146 79.2936 85.8269 79.3007C88.0392 79.3078 90.1985 78.6235 92.0028 77.3433C91.4484 76.9392 90.8552 76.5913 90.232 76.3046Z" fill="#FFC400"/>
<path d="M67.6534 79.3069C73.5372 79.3069 78.3069 74.5372 78.3069 68.6534C78.3069 62.7697 73.5372 58 67.6534 58C61.7697 58 57 62.7697 57 68.6534C57 74.5372 61.7697 79.3069 67.6534 79.3069Z" fill="#FFC400"/>
<path d="M63.0899 75.9412C62.3805 76.229 61.7033 76.5904 61.0693 77.0196C62.879 78.4504 65.1055 79.2526 67.4118 79.3048C69.7181 79.3571 71.9787 78.6564 73.8512 77.3091C73.2332 76.7964 72.5702 76.3405 71.8703 75.9469C71.3291 75.7283 70.8652 75.3535 70.5377 74.8704C70.2103 74.3872 70.034 73.8175 70.0314 73.2338C70.0286 72.813 70.1181 72.3967 70.2936 72.0143C70.4692 71.6318 70.7265 71.2925 71.0474 71.0203C71.9275 70.2867 72.5607 69.3001 72.8611 68.1943C73.1615 67.0885 73.1145 65.9172 72.7265 64.839C72.3385 63.7609 71.6283 62.8282 70.6922 62.1674C69.7561 61.5066 68.6393 61.1498 67.4935 61.1453C66.3477 61.1408 65.2282 61.4888 64.2869 62.1421C63.3456 62.7955 62.6281 63.7225 62.2315 64.7976C61.835 65.8726 61.7788 67.0436 62.0704 68.1517C62.3621 69.2598 62.9875 70.2514 63.8618 70.9919C64.1924 71.2704 64.4578 71.618 64.6392 72.0103C64.8207 72.4026 64.9137 72.83 64.9118 73.2622C64.9054 73.8385 64.7291 74.4 64.405 74.8766C64.081 75.3531 63.6235 75.7234 63.0899 75.9412Z" fill="#FFE380"/>
<defs>
<linearGradient id="paint0_linear" x1="24.1205" y1="66.4623" x2="85.2388" y2="5.34398" gradientUnits="userSpaceOnUse">
<stop stop-color="#DFE1E5"/>
<stop offset="1" stop-color="#F4F5F7"/>
</linearGradient>
</defs>
</svg>
