<svg width="32" height="32" viewBox="0 0 32 32" fill="none" xmlns="http://www.w3.org/2000/svg">
  <path fill-rule="evenodd" clip-rule="evenodd" d="M10.584 11.308C10.2415 11.252 9.89504 11.2239 9.548 11.224C5.808 11.2253 2.66667 14.16 2.66667 17.9987C2.66667 21.8773 5.84667 25.3333 9.46667 25.3333H18.6413V22.676H9.46667C7.25733 22.676 5.31333 20.4587 5.31333 17.9987C5.31333 15.628 7.272 13.8827 9.452 13.8827H9.468C9.98667 13.8827 10.3827 13.9507 10.7613 14.0827L10.988 14.1667C11.7947 14.4973 12.1547 13.8387 12.1547 13.8387L12.3547 13.4827C13.328 11.6867 15.2893 10.688 17.3093 10.6573C18.6493 10.6707 19.9387 11.171 20.937 12.065C21.9352 12.959 22.5742 14.1856 22.7347 15.516L22.796 15.9693C22.796 15.9693 22.8907 16.6693 23.6827 16.6693C23.7 16.6693 23.6987 16.676 23.7133 16.676H24.052C25.5667 16.676 26.6867 17.9547 26.6867 19.5533C26.6867 21.1627 25.3707 22.676 23.9267 22.676H18.6413V25.3333H23.9267C26.8067 25.3333 29.3333 22.6067 29.3333 19.5533C29.3333 16.888 27.584 14.6693 25.1493 14.1213C24.2067 10.512 21.0787 8.052 17.3013 8C14.668 8.028 12.1 9.20133 10.584 11.308Z" fill="#42526E"/>
</svg>
