<svg xmlns="http://www.w3.org/2000/svg" xmlns:xlink="http://www.w3.org/1999/xlink" viewBox="0 0 214.66 170.1"><defs><style>.cls-1,.cls-3,.cls-7{fill:none;stroke-miterlimit:10;}.cls-1{stroke:#4c9aff;stroke-width:2px;}.cls-2{fill:url(#linear-gradient);}.cls-3,.cls-7{stroke:#b2d4ff;}.cls-3{stroke-width:2.57px;}.cls-4{fill:#f4f5f7;}.cls-5{fill:url(#linear-gradient-2);}.cls-6{fill:url(#linear-gradient-3);}.cls-7{stroke-width:3.61px;}.cls-8{fill:#4c9aff;}.cls-9{fill:#0065ff;fill-rule:evenodd;}</style><linearGradient id="linear-gradient" x1="-5.26" y1="66.5" x2="73.7" y2="-12.46" gradientUnits="userSpaceOnUse"><stop offset="0" stop-color="#4c9aff"/><stop offset="0.04" stop-color="#62a6ff"/><stop offset="0.12" stop-color="#8bf"/><stop offset="0.2" stop-color="#a7ccff"/><stop offset="0.28" stop-color="#bfdaff"/><stop offset="0.37" stop-color="#d0e4ff"/><stop offset="0.46" stop-color="#dbe9ff"/><stop offset="0.58" stop-color="#deebff"/><stop offset="0.78" stop-color="#e1ecfe"/><stop offset="0.91" stop-color="#e9f0fb"/><stop offset="0.99" stop-color="#f4f5f7"/></linearGradient><linearGradient id="linear-gradient-2" x1="24.92" y1="200.26" x2="103.88" y2="121.3" xlink:href="#linear-gradient"/><linearGradient id="linear-gradient-3" x1="53.45" y1="159.32" x2="164.43" y2="48.34" xlink:href="#linear-gradient"/></defs><g id="Layer_2" data-name="Layer 2"><g id="Layer_1-2" data-name="Layer 1"><path class="cls-1" d="M79.15,18.12l24.6.05a16.4,16.4,0,0,1,16.4,16.4h0A16.41,16.41,0,0,1,103.75,51H32.91a16.4,16.4,0,0,0-16.4,16.4v.38a16.41,16.41,0,0,0,16.4,16.41h38"/><path class="cls-1" d="M98,153.68h89.47a26.2,26.2,0,0,0,26.19-26.19h0a26.19,26.19,0,0,0-26.19-26.19H165.32"/><rect class="cls-2" width="86.14" height="36.34" rx="1.64"/><line class="cls-3" x1="28.37" y1="9.75" x2="79.15" y2="9.75"/><line class="cls-3" x1="28.37" y1="18.12" x2="79.15" y2="18.12"/><line class="cls-3" x1="28.37" y1="27.61" x2="55.39" y2="27.61"/><rect class="cls-4" x="7.13" y="7.19" width="15.48" height="15.48" rx="2.43"/><rect class="cls-5" x="30.18" y="133.76" width="86.14" height="36.34" rx="1.64"/><line class="cls-3" x1="58.55" y1="143.52" x2="109.33" y2="143.52"/><line class="cls-3" x1="58.55" y1="151.89" x2="109.33" y2="151.89"/><line class="cls-3" x1="58.55" y1="161.37" x2="85.57" y2="161.37"/><rect class="cls-4" x="37.31" y="140.95" width="15.48" height="15.48" rx="2.43"/><rect class="cls-6" x="60.84" y="65.85" width="121.07" height="51.08" rx="2.31"/><line class="cls-7" x1="100.72" y1="79.56" x2="172.09" y2="79.56"/><line class="cls-7" x1="100.72" y1="91.33" x2="172.09" y2="91.33"/><line class="cls-7" x1="100.72" y1="104.66" x2="138.69" y2="104.66"/><rect class="cls-8" x="70.86" y="75.95" width="21.76" height="21.76" rx="3.41"/><path class="cls-9" d="M81.36,79a.91.91,0,0,1,.79,0l3.51,1.77a.88.88,0,0,1,.49.79V85.4l3,1.53a.87.87,0,0,1,.49.78v4.42a.89.89,0,0,1-.49.79l-3.53,1.76a.91.91,0,0,1-.79,0l-3.13-1.57L78.6,94.68a.91.91,0,0,1-.79,0l-3.52-1.76a.89.89,0,0,1-.49-.79V87.71a.89.89,0,0,1,.49-.79l3-1.51V81.54a.88.88,0,0,1,.49-.79Zm-3.14,8-2.66,1.32v3.32l2.65,1.32,2.65-1.32V88.26Zm4.4,1.32v3.32l2.65,1.32,2.65-1.32V88.26l-2.64-1.32Zm1.77-2.86V82.08l-2.64-1.32-2.66,1.32V85.4l2.65,1.33Z"/></g></g></svg>