<svg xmlns="http://www.w3.org/2000/svg" viewBox="0 0 233.55 190.44"><defs><style>.cls-1{fill:#2684ff;}.cls-2{fill:#dfe1e5;}.cls-3{fill:#4c9aff;}.cls-4{fill:#091e42;}.cls-4,.cls-8{opacity:0.1;}.cls-5{fill:#0065ff;}.cls-6{fill:#ffc400;}.cls-7{fill:#eae6ff;}.cls-8{fill:#ff8b00;}.cls-9{fill:#0052cc;opacity:0.2;}</style></defs><g id="Layer_2" data-name="Layer 2"><g id="Layer_1-2" data-name="Layer 1"><rect class="cls-1" x="0.12" y="3.77" width="47.22" height="186.53" rx="4.38"/><rect class="cls-2" x="47.35" y="3.68" width="47.22" height="186.53" rx="4.38"/><rect class="cls-3" x="47.35" y="162.34" width="47.22" height="6.83"/><rect class="cls-3" x="47.35" y="23.88" width="47.22" height="6.83"/><path class="cls-4" d="M47.35,8.15V185.92a4.38,4.38,0,0,0,4.35,4.38V3.77A4.37,4.37,0,0,0,47.35,8.15Z"/><path class="cls-4" d="M94.57,185.92V8.15a4.38,4.38,0,0,0-4.38-4.38V190.3A4.38,4.38,0,0,0,94.57,185.92Z"/><rect class="cls-3" x="94.57" y="3.68" width="47.22" height="186.53" rx="4.38"/><rect class="cls-5" x="94.45" y="169.16" width="47.22" height="6.83"/><rect class="cls-5" x="94.57" y="31.2" width="47.22" height="6.83"/><rect class="cls-5" x="94.57" y="16.57" width="47.22" height="6.83"/><path class="cls-4" d="M94.57,8.15V185.92a4.39,4.39,0,0,0,4.35,4.38V3.77A4.38,4.38,0,0,0,94.57,8.15Z"/><path class="cls-4" d="M141.79,185.92V8.15a4.38,4.38,0,0,0-4.38-4.38V190.3A4.38,4.38,0,0,0,141.79,185.92Z"/><rect class="cls-6" x="164.06" y="1.95" width="47.22" height="186.53" rx="4.38" transform="translate(-18.21 51.61) rotate(-14.94)"/><rect class="cls-7" x="181.91" y="158.7" width="47.22" height="6.83" transform="translate(-34.85 58.47) rotate(-14.94)"/><rect class="cls-7" x="146.21" y="24.92" width="47.22" height="6.83" transform="matrix(0.97, -0.26, 0.26, 0.97, -1.56, 44.74)"/><path class="cls-8" d="M141.94,15.43l45.84,171.76a4.38,4.38,0,0,0,5.33,3.11L145,10.07A4.39,4.39,0,0,0,141.94,15.43Z"/><path class="cls-8" d="M233.4,175,187.57,3.25a4.38,4.38,0,0,0-5.36-3.1L230.3,180.38A4.38,4.38,0,0,0,233.4,175Z"/><rect class="cls-6" x="0.12" y="169.66" width="47.22" height="6.83"/><rect class="cls-6" x="0.12" y="155.02" width="47.22" height="6.83"/><rect class="cls-6" y="16.57" width="47.22" height="6.83"/><path class="cls-9" d="M.12,8.06V185.83a4.39,4.39,0,0,0,4.36,4.38V3.68A4.38,4.38,0,0,0,.12,8.06Z"/><path class="cls-9" d="M47.35,185.83V8.06A4.39,4.39,0,0,0,43,3.68V190.21A4.39,4.39,0,0,0,47.35,185.83Z"/><path class="cls-5" d="M176.66,92a1.59,1.59,0,0,1,0-.58,1.79,1.79,0,0,1,1.91-1.68l16.86,1.08a1.8,1.8,0,1,1-.23,3.59l-16.86-1.08A1.81,1.81,0,0,1,176.66,92Z"/><path class="cls-5" d="M182.28,101.37a1.8,1.8,0,0,1,2.55-2.07l5,2.5,3.07-4.65a1.8,1.8,0,1,1,3,2l-3.95,6a1.8,1.8,0,0,1-2.31.61l-6.41-3.22A1.78,1.78,0,0,1,182.28,101.37Z"/><path class="cls-5" d="M178.31,86.49a1.75,1.75,0,0,1,.24-1.45l3.95-6a1.8,1.8,0,0,1,2.31-.62l6.41,3.22a1.8,1.8,0,1,1-1.62,3.22l-5-2.5L181.55,87a1.79,1.79,0,0,1-2.49.51A1.77,1.77,0,0,1,178.31,86.49Z"/></g></g></svg>