<svg xmlns="http://www.w3.org/2000/svg" xmlns:xlink="http://www.w3.org/1999/xlink" viewBox="0 0 226.99 228.97"><defs><style>.cls-1{fill:#ebecf0;}.cls-2{fill:#b2d4ff;}.cls-3{clip-path:url(#clip-path);}.cls-4{fill:#5e6c84;}.cls-5{fill:#8993a4;}.cls-6{fill:#97a0af;}.cls-7{fill:url(#linear-gradient);}.cls-8{fill:none;}.cls-9{fill:#f5f5f7;}.cls-10{fill:#c1c7d0;}.cls-11{fill:#dfe1e5;}.cls-12{clip-path:url(#clip-path-2);}.cls-13{fill:#deebff;}</style><clipPath id="clip-path"><circle class="cls-1" cx="167.28" cy="59.71" r="59.71"/></clipPath><linearGradient id="linear-gradient" x1="165.62" y1="28.13" x2="165.13" y2="62.27" gradientTransform="translate(2.71 3.78) rotate(0.28)" gradientUnits="userSpaceOnUse"><stop offset="0.09" stop-color="#5e6c84"/><stop offset="1" stop-color="#97a0af"/></linearGradient><clipPath id="clip-path-2"><circle class="cls-1" cx="60.47" cy="169.26" r="59.71"/></clipPath></defs><g id="Layer_2" data-name="Layer 2"><g id="Layer_1-2" data-name="Layer 1"><g id="Layer_2-2" data-name="Layer 2"><g id="Layer_1-2-2" data-name="Layer 1-2"><circle class="cls-2" cx="167.28" cy="168.48" r="59.71"/><path id="_Clipping_Path_" data-name=" Clipping Path " class="cls-2" d="M198.87,174.72v-10.9a2.91,2.91,0,0,0-2.8-2.93H175.66V140.55a2.9,2.9,0,0,0-2.9-2.9H161.82a2.9,2.9,0,0,0-2.94,2.87h0v20.35H138.61a2.91,2.91,0,0,0-2.94,2.87v0h0v10.9a2.91,2.91,0,0,0,2.89,2.86H158.9v20.33a2.94,2.94,0,0,0,2.89,3h10.9a3,3,0,0,0,2.85-3v-20.3h20.35a2.87,2.87,0,0,0,3-2.76h0Z"/></g></g><circle class="cls-1" cx="167.28" cy="59.71" r="59.71"/><g class="cls-3"><path class="cls-4" d="M207.55,103.78,191.1,94.5a2.56,2.56,0,0,0-1.2-.4l-22.34-1.27-22.35,1.06a2.43,2.43,0,0,0-1.2.38l-17.1,9.43a59.71,59.71,0,0,0,80.64.08Z"/><path class="cls-5" d="M182.66,84.12a29.44,29.44,0,0,0,.65,8.12c.31,1.17,1.83,1.62,3.09,2.35a.7.7,0,0,1,.19,1,30.18,30.18,0,0,1-11,8.23,1.23,1.23,0,0,0-.58.57l-6.08,12.93a1.19,1.19,0,0,1-2.14,0l-6.1-12.93a1.21,1.21,0,0,0-.59-.57,30.35,30.35,0,0,1-11-8.23.67.67,0,0,1,.18-1c1.26-.74,2.79-1.19,3.1-2.37a29.44,29.44,0,0,0,.65-8.12Z"/><path class="cls-4" d="M197.67,45.45c1-7.52-2.6-14.24-2.37-21.7,0-1.63-.14-3.15-1.65-3.86-1.75-.65-2.16,0-4.24-.15-3.5-.25-3.5-2.3-7-2.32s-3.51,1.8-7,1.78-3.49-1.83-7-1.85-3.51,1.8-7,1.79-3.49-1.84-7-1.86-3.53,3.34-7,3.65c-2.64.24-2.22-.56-4.85-.53-2.51.57-3,3.08-2.94,4.71.1,3.82,0,6.62-.1,8.78-.43,6.6-1.64,7.2-1.27,12.91Z"/><ellipse class="cls-5" cx="142.33" cy="58.47" rx="6.19" ry="7.71" transform="translate(-9.88 35.91) rotate(-13.9)"/><ellipse class="cls-5" cx="193.48" cy="58.72" rx="7.71" ry="6.19" transform="translate(88.3 231.4) rotate(-75.54)"/><path class="cls-6" d="M167.85,25.24c12.92.14,20.78,3.33,22,4.73,8.16,9.47,7.23,20.68,7,23.05-.48,5.81-2.85,10.42-7.39,19.73a128.09,128.09,0,0,1-6.95,12.46,7.39,7.39,0,0,1-2.93,2.64,28.81,28.81,0,0,1-12.07,3.09,28.94,28.94,0,0,1-12.05-3.21,7.38,7.38,0,0,1-2.9-2.67,129,129,0,0,1-6.83-12.52c-4.44-9.36-6.77-14-7.19-19.81-.17-2.36-1-13.59,7.26-23C147,28.36,154.92,25.25,167.85,25.24Z"/><path class="cls-7" d="M191.77,27.65c-3.87-4.11-10-4.13-22.92-4.27-12.93,0-21.39.66-24.36,4-8.26,9.38-6,23-5.87,25.32a28,28,0,0,0,1.89,8.08,11.69,11.69,0,0,0,1.5-2.59c1.87-4.6-.95-12.93,1.64-17.09A9.18,9.18,0,0,1,146.93,38c5.21-3.12,10.13.81,18.65,1.8,12.41,1.43,18.35-5,23.55-.64a12.65,12.65,0,0,1,3.63,6.52c1.08,5.09-2,13.12-.09,17.11a11.24,11.24,0,0,0,.9,1.51c2-4.33,3.05-7.58,3.35-11.32C197.12,50.65,200.33,36.74,191.77,27.65Z"/></g><path class="cls-2" d="M119.08,60.32V59.09A58.48,58.48,0,0,0,89.84,8.45l-1.07-.61a58.48,58.48,0,0,0-58.49,0l-1.07.61A58.49,58.49,0,0,0,0,59.09v1.23A58.5,58.5,0,0,0,29.24,111l1.07.61a58.48,58.48,0,0,0,58.49,0l1.07-.61A58.49,58.49,0,0,0,119.08,60.32Z"/><path class="cls-8" d="M80.35,35.63l.17,0A23.86,23.86,0,0,0,75,29.73v0A23.36,23.36,0,0,1,80.35,35.63Z"/><path class="cls-9" d="M91.74,109.82l1.5-1,0,0c1.07-.73,2.14-1.5,3.18-2.3l-.2-.15L79.7,95.42a2,2,0,0,0-1-.32L76.2,95a13.16,13.16,0,0,0,1.42.91c-.4.54-7.39,9.85-18.92,9-9.33-.73-14.59-7.59-15.38-8.66A12.3,12.3,0,0,0,44.71,95l-2.49.13a1.9,1.9,0,0,0-1,.32L24.69,106.36a8.77,8.77,0,0,0-1.13.88l1.33,1,.12.08,1.24.85.47.3,1,.62c.5.31,1,.62,1.53.92l1.07.61q2.54,1.47,5.2,2.68c1.18.52,2.36,1,3.56,1.47s2.41.85,3.63,1.22a58.63,58.63,0,0,0,33.71,0c1.22-.37,2.43-.78,3.63-1.22s2.39-.94,3.57-1.47c1.77-.81,3.51-1.7,5.19-2.68l1.07-.61c.58-.34,1.15-.68,1.71-1Z"/><path class="cls-5" d="M85.51,53.71l.13,0-.09,0a32.57,32.57,0,0,0-5-18l-.17,0C83.7,40.82,85.28,47.3,85.51,53.71Z"/><path class="cls-10" d="M43.32,96.18c.79,1.07,6,7.93,15.38,8.66,11.53.89,18.52-8.41,18.92-9A13.16,13.16,0,0,1,76.2,95a11.32,11.32,0,0,1-3.65-4.49,10.74,10.74,0,0,1-.83-5.54,14.36,14.36,0,0,1,.5-2.43,20.35,20.35,0,0,1-24.44.54,13,13,0,0,1,.44,2.25A11.36,11.36,0,0,1,48,89.11,12.24,12.24,0,0,1,44.71,95,12.38,12.38,0,0,1,43.32,96.18Z"/><path class="cls-10" d="M33.69,53.6A6.42,6.42,0,0,0,35.4,66.16a31.9,31.9,0,0,1-1.71-8.86C33.65,56.08,33.65,54.84,33.69,53.6Z"/><path class="cls-10" d="M85.51,57.3a31.74,31.74,0,0,1-1.69,8.84,6.42,6.42,0,0,0,1.93-12.35l-.11,0-.13,0C85.56,54.91,85.56,56.12,85.51,57.3Z"/><path class="cls-11" d="M83.82,66.15a31.87,31.87,0,0,0,1.69-8.85q.08-1.78,0-3.6c-.23-6.42-1.81-12.89-5.16-18.07A23.11,23.11,0,0,0,75,29.74l-.1.47a18,18,0,0,1-2.25,5.61,16.45,16.45,0,0,1-4,4.41A17.09,17.09,0,0,1,66.2,41.8a14.22,14.22,0,0,1-2.72,1.1.69.69,0,0,1-.87-.46.69.69,0,0,1,.39-.85h0a13.21,13.21,0,0,0,2.21-1.3,15,15,0,0,0,1.95-1.69A13.67,13.67,0,0,0,70,34.44a14,14,0,0,0,.71-2.1c-7.43,8.74-23,12.45-35.88,12.81a43,43,0,0,0-1.17,8.44c-.05,1.25-.05,2.48,0,3.71a31.9,31.9,0,0,0,1.71,8.86A33.54,33.54,0,0,0,47.76,83.05a20.35,20.35,0,0,0,24.44-.54A33.75,33.75,0,0,0,83.82,66.15Z"/><path class="cls-4" d="M93.33,66.17c0-7.88-.1-17.88-.49-25.35v-.14a14.3,14.3,0,0,0-.09-1.6c-.84-5.67-2.89-12.49-5.6-16.53a33.3,33.3,0,0,0-46.21-9.14h0c-7.18,4.82-12.15,15.5-13.81,24.84-1.29,4.85-1.29,17.33-1.53,27.91-.14,5.74-.54,10.54-.15,12.09.81,3.22,13,5.75,22.8,7a12.46,12.46,0,0,0-.45-2.25A33.5,33.5,0,0,1,35.4,66.16,6.43,6.43,0,0,1,33.69,53.6a42.89,42.89,0,0,1,1.17-8.44c12.85-.37,28.43-4.07,35.88-12.81A14.29,14.29,0,0,1,70,34.44a13.84,13.84,0,0,1-2.8,4.17,14.89,14.89,0,0,1-2,1.68,12.61,12.61,0,0,1-2.21,1.31h0a.69.69,0,0,0-.37.91.71.71,0,0,0,.85.4,14.93,14.93,0,0,0,2.72-1.11,16.71,16.71,0,0,0,6.45-6,17.62,17.62,0,0,0,2.25-5.61l.1-.48v0a23.82,23.82,0,0,1,5.51,5.95,32.42,32.42,0,0,1,5,18l.09,0,.11,0c.44.1.43.12,0,0a6.43,6.43,0,0,1-1.93,12.36,33.89,33.89,0,0,1-11.6,16.36,14.36,14.36,0,0,0-.5,2.43c9.49-1.42,20.53-3.9,21.42-6.84C93.68,76.36,93.37,71.82,93.33,66.17Z"/><circle class="cls-1" cx="60.47" cy="169.26" r="59.71"/><g class="cls-12"><path class="cls-10" d="M38.16,134.29c-2.45.79-5.34,2.19-6.33,4.83-1.25,3.32,2.17,5.92.6,9.2-1,2-2.65,1.87-4,4.72a10.45,10.45,0,0,0-1,4.28c-.1,3.91,2,5.38,2.81,8.33,1.63,5.91-4.47,9.1-3.59,14.44.42,2.54,2.42,5.79,9.34,8.94a11.11,11.11,0,0,0,0,6.54,12.29,12.29,0,0,0,4.47,5.82c5.13,3.44,9.07-.66,20.17-.08,7.28.39,9.23,2.34,14.57.8,2.06-.59,5.92-1.77,7.78-5.42a10.1,10.1,0,0,0,.78-6.49A10.68,10.68,0,0,0,91,187.58c3-2.79,3.85-7.59,2.89-11.47s-3.59-6.32-2.91-10.46c.45-2.74,1.71-4.81,1.34-8.75A11.08,11.08,0,0,0,91,152.31c-1.31-2.28-2.48-2.07-3.2-3.6-1.52-3.17,2.81-6.26,1.59-9.59-1.16-3.17-4.8-3.05-6.33-4.83C77.46,133.52,77.69,130,72,130s-5.69,4.27-11.38,4.27-5.88-4.72-11.55-4.27S43.8,133.52,38.16,134.29Z"/><path class="cls-5" d="M80.38,206.21l-18.22-1-18.21,1a2,2,0,0,0-1,.32L26.44,217.46c-.21.14-.42.3-.62.46a59.71,59.71,0,0,0,70.89-1.24L81.36,206.53A2,2,0,0,0,80.38,206.21Z"/><path class="cls-11" d="M79.28,207c-.48.66-7.41,9.69-18.88,8.94-9.57-.62-15-7.57-15.83-8.64A13.36,13.36,0,0,0,49,199.84c1.28-6.43-3-11.25-3.45-11.81L77,186.86a16.32,16.32,0,0,0-2.25,12.67A15.44,15.44,0,0,0,79.28,207Z"/><circle class="cls-11" cx="36.84" cy="168.56" r="6.42"/><circle class="cls-11" cx="84.39" cy="168.56" r="6.42"/><path class="cls-10" d="M38.52,155.65c0,2.95-.1,5.79-.23,8.49s-.17,2.28-.31,4.85c-.38,7.21,0,9.08-1.55,10.82-1,1.11-2.53,1.94-3.13,1.52s.28-2.13.65-4.68a31.65,31.65,0,0,0-1.37-13.17,11,11,0,0,1-.89-4.39c0-1.14.16-3.58,1.9-4.51C35,153.83,37,154.28,38.52,155.65Z"/><path class="cls-1" d="M86.68,166.14c-.55,13.78-14.88,29.64-26,29.64-11.25,0-25.45-15.84-26-29.64-.61-15.27,10.86-32.44,26-32.44S87.3,150.87,86.68,166.14Z"/><path class="cls-10" d="M30.83,139.21c2.45-7.83,9.16-13,14.69-14.24a13.15,13.15,0,0,1,5.62-.21,13.64,13.64,0,0,1,7.18,4c-4.81,8.32-9.6,13.07-13.16,15.89a26.44,26.44,0,0,0-8.53,10A22.15,22.15,0,0,0,35,159.71C34.43,159,27.44,150.05,30.83,139.21Z"/><path class="cls-10" d="M65.32,122a26.07,26.07,0,0,1,26.07,26.07,29.42,29.42,0,0,1-.87,6.7,22.93,22.93,0,0,1-3.9,7.72,97.13,97.13,0,0,1-42.05-30.2,26.94,26.94,0,0,1,13.1-9.15A26.13,26.13,0,0,1,65.32,122Z"/></g><g id="Layer_2-3" data-name="Layer 2"><g id="Layer_1-2-3" data-name="Layer 1-2"><path class="cls-2" d="M227,169.26a59.71,59.71,0,1,1-102.56-41.58C135.28,116.5,227,136.28,227,169.26Z"/><path id="_Clipping_Path_2" data-name=" Clipping Path " class="cls-13" d="M198.87,174.72v-10.9a2.91,2.91,0,0,0-2.8-2.93H175.66V140.55a2.9,2.9,0,0,0-2.9-2.9H161.82a2.9,2.9,0,0,0-2.94,2.87h0v20.35H138.61a2.91,2.91,0,0,0-2.94,2.87v0h0v10.9a2.91,2.91,0,0,0,2.89,2.86H158.9v20.33a2.94,2.94,0,0,0,2.89,3h10.9a3,3,0,0,0,2.85-3v-20.3h20.35a2.87,2.87,0,0,0,3-2.76h0Z"/></g></g></g></g></svg>