<svg width="81" height="81" viewBox="0 0 81 81" fill="none" xmlns="http://www.w3.org/2000/svg">
<g clip-path="url(#clip0)">
<path d="M34.8921 48.8636L6.86804 20.8432L20.9684 6.75391L48.9888 34.7743C41.179 33.8399 37.0699 37.8092 37.0699 37.8092C37.0699 37.8092 33.5605 42.0986 34.8921 48.8636Z" fill="url(#paint0_linear)"/>
<path d="M71.0792 39.2188H42.8455C40.6289 39.2188 38.832 41.0156 38.832 43.2322V71.466C38.832 73.6825 40.6289 75.4794 42.8455 75.4794H71.0792C73.2958 75.4794 75.0927 73.6825 75.0927 71.466V43.2322C75.0927 41.0156 73.2958 39.2188 71.0792 39.2188Z" fill="#EBECF0"/>
<path d="M3.58307 28.4219L24.3381 28.4219C26.317 28.4219 27.9211 26.8177 27.9211 24.8389L27.9211 4.0838C27.9211 2.10495 26.317 0.50078 24.3381 0.50078L3.58307 0.50078C1.60422 0.50078 5.14984e-05 2.10495 5.14984e-05 4.0838L5.14984e-05 24.8389C5.14984e-05 26.8177 1.60422 28.4219 3.58307 28.4219Z" fill="#EBECF0"/>
<path d="M79.4298 71.9184V42.8753C79.4298 38.6413 75.9975 35.209 71.7635 35.209H42.7204C38.4864 35.209 35.054 38.6413 35.054 42.8753V71.9184C35.054 76.1524 38.4864 79.5848 42.7204 79.5848H71.7635C75.9975 79.5848 79.4298 76.1524 79.4298 71.9184Z" stroke="#B2D4FF" stroke-width="5" stroke-miterlimit="10"/>
<path d="M27.7373 34.5985L26.213 33.0742L24.6887 34.5985L26.213 36.1228L27.7373 34.5985Z" fill="white"/>
<path d="M33.2276 39.4403L31.7032 37.916L30.1789 39.4403L31.7032 40.9646L33.2276 39.4403Z" fill="white"/>
<path d="M36.9218 30.8895L35.3975 29.3652L33.8732 30.8895L35.3975 32.4139L36.9218 30.8895Z" fill="white"/>
<path d="M27.7383 31.4481L26.214 29.9238L24.6897 31.4481L26.214 32.9725L27.7383 31.4481Z" fill="white"/>
<path d="M36.9215 34.077L35.3972 32.5527L33.8729 34.077L35.3972 35.6014L36.9215 34.077Z" fill="#4C9AFF"/>
<path d="M40.1076 34.0809L38.5833 32.5566L37.0589 34.0809L38.5833 35.6053L40.1076 34.0809Z" fill="#4C9AFF"/>
<path d="M33.2262 23.3075L31.7019 21.7832L30.1776 23.3075L31.7019 24.8318L33.2262 23.3075Z" fill="#4C9AFF"/>
<rect width="24" height="24" transform="translate(2 2.5)" fill="white" fill-opacity="0.01"/>
<path fill-rule="evenodd" clip-rule="evenodd" d="M16.155 6.55445C15.9042 6.46813 15.6294 6.48496 15.3911 6.60123C15.1527 6.7175 14.9703 6.92369 14.884 7.17445L10.054 21.2205C9.97387 21.4696 9.99467 21.7403 10.1119 21.9743C10.2291 22.2083 10.4334 22.387 10.6809 22.4721C10.9284 22.5572 11.1995 22.5418 11.4358 22.4294C11.6721 22.3169 11.8549 22.1162 11.945 21.8705L16.775 7.82545C16.8613 7.57469 16.8444 7.29991 16.7282 7.06155C16.6119 6.8232 16.4057 6.64079 16.155 6.55445ZM10.017 14.7645L7.43696 12.2635L10.236 9.54945C10.4264 9.36486 10.5357 9.11218 10.5398 8.84701C10.5439 8.58183 10.4425 8.32588 10.258 8.13545C10.0734 7.94503 9.82069 7.83573 9.55551 7.8316C9.29034 7.82748 9.03438 7.92886 8.84396 8.11345L5.30396 11.5454C5.20779 11.6387 5.13133 11.7503 5.07912 11.8736C5.02691 11.9969 5 12.1295 5 12.2635C5 12.3974 5.02691 12.53 5.07912 12.6533C5.13133 12.7766 5.20779 12.8882 5.30396 12.9815L8.62396 16.2005C8.71825 16.2919 8.82963 16.3639 8.95174 16.4123C9.07386 16.4608 9.20431 16.4846 9.33566 16.4827C9.46701 16.4807 9.59668 16.4528 9.71726 16.4007C9.83785 16.3486 9.94699 16.2732 10.0385 16.179C10.1299 16.0847 10.2019 15.9733 10.2503 15.8512C10.2988 15.7291 10.3227 15.5986 10.3207 15.4672C10.3187 15.3359 10.2908 15.2062 10.2387 15.0856C10.1866 14.9651 10.1112 14.8559 10.017 14.7645ZM22.236 16.3325L18.916 13.1125C18.8216 13.021 18.7102 12.949 18.588 12.9006C18.4658 12.8522 18.3353 12.8284 18.2039 12.8304C17.9385 12.8345 17.6857 12.9439 17.501 13.1345C17.3162 13.325 17.2148 13.5811 17.2189 13.8465C17.223 14.1119 17.3324 14.3647 17.523 14.5495L20.103 17.0495L17.304 19.7645C17.1135 19.949 17.0042 20.2017 17.0001 20.4669C16.996 20.7321 17.0974 20.988 17.282 21.1785C17.4665 21.3689 17.7192 21.4782 17.9844 21.4823C18.2496 21.4864 18.5055 21.385 18.696 21.2005L22.236 17.7685C22.3321 17.6752 22.4086 17.5636 22.4608 17.4403C22.513 17.317 22.5399 17.1844 22.5399 17.0505C22.5399 16.9165 22.513 16.7839 22.4608 16.6606C22.4086 16.5373 22.3321 16.4257 22.236 16.3325Z" fill="#2684FF"/>
<path d="M57 57.4997V62.9954H51.5855V57.4997H57V52.0039H47.1167C46.8627 52.0107 46.6213 52.1164 46.444 52.2985C46.2668 52.4806 46.1676 52.7248 46.1677 52.9789V67.5259C46.1676 67.78 46.2668 68.0242 46.444 68.2063C46.6213 68.3884 46.8627 68.4941 47.1167 68.5009H61.4655C61.5921 68.5001 61.7172 68.4741 61.8337 68.4245C61.9501 68.3749 62.0556 68.3026 62.1439 68.2119C62.2322 68.1212 62.3016 68.0138 62.348 67.896C62.3945 67.7783 62.4171 67.6525 62.4145 67.5259V57.4997H57Z" fill="url(#paint1_linear)"/>
<path d="M57 46.5078V52.0035H62.4145V57.4993H67.8323V47.473C67.8323 47.2189 67.7332 46.9748 67.5559 46.7926C67.3787 46.6105 67.1373 46.5048 66.8833 46.498L57 46.5078Z" fill="#2684FF"/>
</g>
<defs>
<linearGradient id="paint0_linear" x1="13.909" y1="13.8022" x2="41.9294" y2="41.8227" gradientUnits="userSpaceOnUse">
<stop offset="0.07" stop-color="#DEEBFF"/>
<stop offset="0.17" stop-color="#D8E8FF"/>
<stop offset="0.69" stop-color="#BCD9FF"/>
<stop offset="1" stop-color="#B2D4FF"/>
</linearGradient>
<linearGradient id="paint1_linear" x1="61.5467" y1="52.9919" x2="52.2485" y2="62.2902" gradientUnits="userSpaceOnUse">
<stop offset="0.2" stop-color="#0052CC"/>
<stop offset="1" stop-color="#2684FF"/>
</linearGradient>
<clipPath id="clip0">
<rect width="80.3495" height="80" fill="white" transform="translate(0 0.5)"/>
</clipPath>
</defs>
</svg>
