<svg xmlns="http://www.w3.org/2000/svg" viewBox="0 0 233.31 212.99"><defs><style>.cls-1{fill:#0065ff;}.cls-2{fill:#b2d4ff;}.cls-3{fill:#deebff;}.cls-4{fill:#fff;}.cls-5{fill:#4c9aff;stroke:#ffc400;stroke-miterlimit:10;stroke-width:2px;}.cls-6{fill:#feefd3;}.cls-7{fill:#0049b0;}.cls-8{fill:#fdc150;}.cls-9{fill:#ffd740;}.cls-10{fill:#fcb123;}.cls-11{fill:#0052cc;}</style></defs><g id="Layer_2" data-name="Layer 2"><g id="Layer_1-2" data-name="Layer 1"><path class="cls-1" d="M180.82,213h0a25.68,25.68,0,0,0,25.68-25.68h0A25.68,25.68,0,0,1,180.82,213Z"/><path class="cls-2" d="M25.68,110.28V0A25.68,25.68,0,0,0,0,25.68V136A25.68,25.68,0,0,1,25.68,110.28Z"/><path class="cls-2" d="M180.82,161.64V213a25.68,25.68,0,1,0,0-51.35Z"/><path class="cls-3" d="M206.5,149.77V60.83a25.67,25.67,0,0,0-25.2-25.66H25.68v75.12h0c-.54,0-1.08,0-1.61.06l-.47,0c-.41,0-.82.07-1.23.13l-.4,0c-.52.07-1,.16-1.55.27l-.29.06c-.42.1-.84.2-1.25.32l-.44.12c-.42.12-.84.26-1.25.4l-.24.08q-.74.27-1.44.57l-.35.16-1.09.52-.37.19c-.45.24-.9.49-1.34.76h0c-.44.27-.86.55-1.28.84l-.33.24c-.34.24-.67.48-1,.74l-.26.2c-.4.33-.78.66-1.16,1l-.18.17c-.32.29-.63.6-.93.91l-.28.29c-.31.33-.61.67-.91,1a.69.69,0,0,1-.11.13c-.33.4-.64.81-1,1.22l-.2.28c-.24.34-.47.69-.7,1l-.2.31c-.27.44-.54.89-.79,1.35h0c-.35.65-.67,1.32-1,2h0a26.38,26.38,0,0,0-1.26,3.63v0c-.11.39-.2.79-.29,1.19,0,0,0,.06,0,.08q-.12.57-.21,1.14l0,.16c-.06.36-.1.72-.14,1.08l0,.23c0,.35-.06.7-.08,1.05l0,.28c0,.45,0,.9,0,1.34H0a25.16,25.16,0,0,0,.3,3.91,25.65,25.65,0,0,0,25.38,21.77H180.82a25.67,25.67,0,0,1,25.68,25.67Z"/><path class="cls-2" d="M191.6,164c.62.29,1.23.6,1.83.94v-27.2H206.5v-1.83H193.43v-24.3H206.5v-1.83H193.43V85.49H206.5V83.66H193.43V59.36h13q-.06-.91-.18-1.83H193.43V38.47c-.59-.34-1.21-.65-1.83-.93v20H167.3V35.16h-1.83V57.53h-24.3V35.16h-1.83V57.53H115.05V35.16h-1.84V57.53H88.92V35.16H87.08V57.53H62.79V35.16H61V57.53H36.66V35.16H34.83V57.53H25.68v1.83h9.15v24.3H25.68v1.83h9.15v24.3H25.68v.49h0c-.54,0-1.08,0-1.61.06l-.47,0c-.41,0-.82.07-1.23.13l-.4,0c-.52.07-1,.16-1.55.27l-.29.06c-.42.1-.84.2-1.25.32l-.44.12-.91.29H34.83v24.3H10.53V115.24l-.78.59-.26.2c-.27.22-.53.46-.79.69v19.2H0v0c0,.61,0,1.2.07,1.79H8.7v17.46c.59.52,1.2,1,1.83,1.48V137.75h24.3v23.89h1.83V137.75H61v23.89h1.84V137.75H87.08v23.89h1.84V137.75h24.29v23.89h1.84V137.75h24.29v23.89h1.83V137.75h24.3v23.89h1.83V137.75h24.3ZM88.92,111.62h24.29v24.3H88.92Zm-1.84,24.3H62.79v-24.3H87.08Zm28-24.3h24.29v24.3H115.05Zm26.12,0h24.3v24.3h-24.3Zm-104.51-28V59.36H61v24.3Zm26.13,0V59.36H87.08v24.3Zm26.13,0V59.36h24.29v24.3Zm26.13,0V59.36h24.29v24.3Zm26.12,0V59.36h24.3v24.3Zm26.13,0V59.36h24.3v24.3ZM36.66,109.79V85.49H61v24.3Zm26.13,0V85.49H87.08v24.3Zm26.13,0V85.49h24.29v24.3Zm26.13,0V85.49h24.29v24.3Zm26.12,0V85.49h24.3v24.3Zm26.13,0V85.49h24.3v24.3ZM36.66,111.62H61v24.3H36.66Zm130.64,24.3v-24.3h24.3v24.3Z"/><path class="cls-4" d="M146.59,91.77l-5.77-3.23a.91.91,0,0,0-.89,0l-5.68,3.38A.88.88,0,0,1,133,90.74L136.26,85a.89.89,0,0,0,0-.88l-3.38-5.68a.89.89,0,0,1,1.19-1.23l5.77,3.23a.87.87,0,0,0,.88,0L146.39,77a.89.89,0,0,1,1.23,1.19L144.39,84a.89.89,0,0,0,0,.89l3.38,5.68A.88.88,0,0,1,146.59,91.77Z"/><path class="cls-4" d="M94.3,118l-5.77-3.22a.87.87,0,0,0-.88,0L82,118.2a.89.89,0,0,1-1.22-1.2L84,111.24a.88.88,0,0,0,0-.89l-3.38-5.68a.89.89,0,0,1,1.2-1.22l5.76,3.23a.89.89,0,0,0,.89,0l5.68-3.38a.89.89,0,0,1,1.22,1.2l-3.23,5.76a.89.89,0,0,0,0,.89l3.37,5.68A.88.88,0,0,1,94.3,118Z"/><path class="cls-4" d="M42.09,144.09l-5.77-3.23a.89.89,0,0,0-.88,0l-5.69,3.38a.88.88,0,0,1-1.22-1.19l3.23-5.77a.89.89,0,0,0,0-.88l-3.38-5.68a.89.89,0,0,1,1.19-1.23l5.77,3.23a.87.87,0,0,0,.88,0l5.68-3.38a.89.89,0,0,1,1.23,1.19l-3.23,5.77a.89.89,0,0,0,0,.89l3.38,5.68A.88.88,0,0,1,42.09,144.09Z"/><path class="cls-4" d="M68.2,65.82l-5.76-3.23a.91.91,0,0,0-.89,0L55.87,66a.88.88,0,0,1-1.22-1.19L57.88,59a.87.87,0,0,0,0-.88l-3.37-5.68a.89.89,0,0,1,1.19-1.23l5.77,3.23a.87.87,0,0,0,.88,0L68,51.07a.88.88,0,0,1,1.22,1.19L66,58a.87.87,0,0,0,0,.88l3.38,5.68A.89.89,0,0,1,68.2,65.82Z"/><path class="cls-4" d="M172.89,144.09l-5.77-3.23a.89.89,0,0,0-.88,0l-5.68,3.38a.89.89,0,0,1-1.23-1.19l3.23-5.77a.89.89,0,0,0,0-.88l-3.38-5.68a.89.89,0,0,1,1.19-1.23l5.77,3.23a.87.87,0,0,0,.88,0l5.68-3.38a.89.89,0,0,1,1.23,1.19l-3.23,5.77a.89.89,0,0,0,0,.89l3.38,5.68A.88.88,0,0,1,172.89,144.09Z"/><line class="cls-5" x1="166.62" y1="130.38" x2="147.91" y2="100.92"/><polygon class="cls-6" points="146.59 102.63 177.81 86.95 160.63 70.64 146.59 102.63"/><polygon class="cls-7" points="152.18 89.91 146.59 102.63 159.01 96.39 152.18 89.91"/><polygon class="cls-8" points="160.63 70.64 177.81 86.95 229.57 34.82 212.39 18.51 160.63 70.64"/><polygon class="cls-9" points="169.21 78.81 177.8 86.97 229.56 34.84 220.97 26.68 169.21 78.81"/><polygon class="cls-10" points="160.63 70.65 169.2 78.79 220.97 26.66 212.39 18.52 160.63 70.65"/><path class="cls-11" d="M211.83,15.2h23.69a0,0,0,0,1,0,0v5.43a11.84,11.84,0,0,1-11.84,11.84h0a11.84,11.84,0,0,1-11.84-11.84V15.2a0,0,0,0,1,0,0Z" transform="translate(369.45 195.14) rotate(-136.48)"/><line class="cls-5" x1="61.94" y1="65.08" x2="35.82" y2="130.38"/><line class="cls-5" x1="43.16" y1="136.8" x2="161.89" y2="136.8"/></g></g></svg>