<svg xmlns="http://www.w3.org/2000/svg" xmlns:xlink="http://www.w3.org/1999/xlink" viewBox="0 0 198.89 198.89"><defs><style>.cls-1{opacity:0.7;fill:url(#linear-gradient);}.cls-2{fill:url(#linear-gradient-2);}.cls-3{fill:none;stroke:#4c9aff;stroke-miterlimit:10;stroke-width:2.43px;}.cls-4{fill:url(#linear-gradient-3);}.cls-5{fill:url(#linear-gradient-4);}.cls-6{fill:url(#linear-gradient-5);}.cls-7{fill:url(#linear-gradient-6);}.cls-8{fill:url(#linear-gradient-7);}.cls-9{fill:#deebff;}.cls-10{fill:#ebecf0;}.cls-11{fill:url(#linear-gradient-8);}.cls-12{fill:#abf5d1;}.cls-13,.cls-14{fill:#2684ff;}.cls-13{opacity:0.6;}.cls-14{fill-rule:evenodd;}</style><linearGradient id="linear-gradient" x1="103.18" y1="120.69" x2="124.95" y2="98.92" gradientUnits="userSpaceOnUse"><stop offset="0.01" stop-color="#2684ff"/><stop offset="0.15" stop-color="#2b87ff"/><stop offset="0.31" stop-color="#398fff"/><stop offset="0.49" stop-color="#509cff"/><stop offset="0.67" stop-color="#71afff"/><stop offset="0.86" stop-color="#9ac6ff"/><stop offset="0.95" stop-color="#b2d4ff"/></linearGradient><linearGradient id="linear-gradient-2" x1="142.05" y1="166.82" x2="163.82" y2="145.06" gradientUnits="userSpaceOnUse"><stop offset="0.01" stop-color="#57d9a3"/><stop offset="0.2" stop-color="#5cdba6"/><stop offset="0.41" stop-color="#6adfad"/><stop offset="0.65" stop-color="#81e7ba"/><stop offset="0.89" stop-color="#a1f2cc"/><stop offset="0.95" stop-color="#abf5d1"/></linearGradient><linearGradient id="linear-gradient-3" x1="149.66" y1="115.54" x2="182.69" y2="82.52" xlink:href="#linear-gradient"/><linearGradient id="linear-gradient-4" x1="82.93" y1="182.69" x2="115.96" y2="149.66" xlink:href="#linear-gradient"/><linearGradient id="linear-gradient-5" x1="16.2" y1="115.54" x2="49.22" y2="82.52" xlink:href="#linear-gradient-2"/><linearGradient id="linear-gradient-6" x1="82.93" y1="49.22" x2="115.96" y2="16.2" xlink:href="#linear-gradient"/><linearGradient id="linear-gradient-7" x1="152.26" y1="50.63" x2="172.78" y2="30.11" xlink:href="#linear-gradient-2"/><linearGradient id="linear-gradient-8" x1="27.88" y1="177.41" x2="48.41" y2="156.88" xlink:href="#linear-gradient-2"/></defs><g id="Layer_2" data-name="Layer 2"><g id="Layer_1-2" data-name="Layer 1"><circle class="cls-1" cx="114.07" cy="109.81" r="15.39"/><circle class="cls-2" cx="152.93" cy="155.94" r="15.39"/><line class="cls-3" x1="121.72" y1="143.9" x2="143.9" y2="121.72"/><line class="cls-3" x1="55.65" y1="122.38" x2="77.53" y2="144.26"/><line class="cls-3" x1="77.17" y1="54.98" x2="54.98" y2="77.17"/><line class="cls-3" x1="143.93" y1="77.2" x2="121.11" y2="54.38"/><circle class="cls-3" cx="166.18" cy="99.44" r="31.5"/><circle class="cls-3" cx="32.71" cy="99.44" r="31.5"/><circle class="cls-3" cx="99.44" cy="166.18" r="31.5"/><circle class="cls-3" cx="99.44" cy="32.71" r="31.5"/><circle class="cls-4" cx="166.18" cy="99.03" r="23.35"/><circle class="cls-5" cx="99.44" cy="166.18" r="23.35"/><circle class="cls-6" cx="32.71" cy="99.03" r="23.35"/><circle class="cls-7" cx="99.44" cy="32.71" r="23.35"/><circle class="cls-8" cx="162.52" cy="40.37" r="14.52"/><circle class="cls-9" cx="189.53" cy="62.47" r="6.14"/><circle class="cls-9" cx="7.35" cy="136.69" r="6.14"/><circle class="cls-10" cx="186.29" cy="29.82" r="6.14"/><circle class="cls-10" cx="29.76" cy="151.22" r="6.14"/><circle class="cls-10" cx="120.2" cy="124.8" r="6.14"/><circle class="cls-9" cx="56.06" cy="49.92" r="6.14"/><circle class="cls-11" cx="38.14" cy="167.14" r="14.52"/><circle class="cls-9" cx="170.9" cy="153.09" r="6.14"/><path id="_Clipping_Path_" data-name=" Clipping Path " class="cls-12" d="M43.08,101.25V97.67a1,1,0,0,0-.92-1H35.47V90a1,1,0,0,0-1-1H30.92A1,1,0,0,0,30,90h0V96.7H23.31a1,1,0,0,0-1,1h0v3.58a1,1,0,0,0,.95.94H30v6.67a1,1,0,0,0,.95,1h3.58a1,1,0,0,0,.94-1v-6.66h6.68a.94.94,0,0,0,1-.91h0Z"/><polygon class="cls-13" points="99.44 157.03 88.89 175.32 110 175.32 99.44 157.03"/><polygon class="cls-13" points="99.96 21.12 88.75 29.26 93.03 42.44 106.89 42.44 111.17 29.26 99.96 21.12"/><path class="cls-3" d="M99.44,197.67a31.5,31.5,0,1,1,31.5-31.49"/><path class="cls-14" d="M172.21,90.32A1.68,1.68,0,1,0,173.88,92,1.68,1.68,0,0,0,172.21,90.32Zm-4.1.43a4.28,4.28,0,1,1,0,2.5,1.5,1.5,0,0,1-.37,0H165.5l-3.69,6.14,3.69,6.15h2.24a1.5,1.5,0,0,1,.37,0,4.29,4.29,0,1,1,0,2.5,1.15,1.15,0,0,1-.37.06h-3a1.3,1.3,0,0,1-1.12-.64l-4.09-6.81h-5.22a1.31,1.31,0,0,1,0-2.61h5.22l4.09-6.82a1.31,1.31,0,0,1,1.12-.63h3A1.15,1.15,0,0,1,168.11,90.75Zm4.1,14.47a1.68,1.68,0,1,0,1.67,1.67A1.68,1.68,0,0,0,172.21,105.22Z"/></g></g></svg>