<svg width="16" height="16" viewBox="0 0 16 16" fill="none" xmlns="http://www.w3.org/2000/svg">
<path fill-rule="evenodd" clip-rule="evenodd" d="M8 16C12.4183 16 16 12.4183 16 8C16 3.58172 12.4183 0 8 0C3.58172 0 0 3.58172 0 8C0 12.4183 3.58172 16 8 16ZM7.44438 4.66664C7.44438 5.58711 6.6982 6.33329 5.77774 6.33329C4.85728 6.33329 4.1111 5.58711 4.1111 4.66664C4.1111 3.74618 4.85728 3 5.77774 3C6.6982 3 7.44438 3.74618 7.44438 4.66664ZM11.8888 6.33329C11.8888 7.25375 11.1426 7.99993 10.2221 7.99993C9.30166 7.99993 8.55548 7.25375 8.55548 6.33329C8.55548 5.41283 9.30166 4.66664 10.2221 4.66664C11.1426 4.66664 11.8888 5.41283 11.8888 6.33329ZM7.44438 9.66657C7.44438 9.05269 7.93715 8.55548 8.55548 8.55548H11.8888C12.5026 8.55548 12.9999 9.04714 12.9999 9.66657V11.7388C12.9999 13.4204 7.44438 13.4204 7.44438 11.7388V9.66657ZM8.47135 7.57447C8.52711 7.70938 8.5557 7.85396 8.55548 7.99993H8.55381C8.33482 8.00022 8.11804 8.04365 7.91584 8.12774C7.71364 8.21183 7.52999 8.33493 7.37538 8.49001C7.22076 8.64509 7.09821 8.82911 7.01473 9.03156C6.93125 9.23401 6.88847 9.45092 6.88883 9.66991V11.2293C5.25219 11.526 3 11.1943 3 10.1271V8.0016C3 7.38716 3.49277 6.88883 4.1111 6.88883H7.44438C7.59036 6.88862 7.73494 6.91721 7.86984 6.97297C8.00474 7.02873 8.12732 7.11056 8.23054 7.21378C8.33375 7.317 8.41559 7.43957 8.47135 7.57447Z" fill="#B3BAC5"/>
</svg>
