<svg width="153" height="116" xmlns="http://www.w3.org/2000/svg">
  <defs>
    <linearGradient x1="-36.904%" y1="62.849%" x2="122.957%" y2="32.935%" id="a">
      <stop stop-color="#FFF" offset="0%"/>
      <stop stop-color="#FFF" stop-opacity=".1" offset="69.08%"/>
    </linearGradient>
  </defs>
  <g fill-rule="nonzero" fill="none">
    <path d="M102.342 74.696L94.557 70 88 80.783l7.784 4.696a12.253 12.253 0 014.63 5.005 12.253 12.253 0 004.629 5.006l31.58 19.05a10.164 10.164 0 007.664 1.169 10.126 10.126 0 006.248-4.571 10.054 10.054 0 001.173-7.633 10.092 10.092 0 00-4.59-6.223l-31.58-19.051a12.321 12.321 0 00-6.598-1.768 12.321 12.321 0 01-6.598-1.767z" fill="#CFD4DB"/>
    <path d="M103.05 74.361l-2.385-1.442a6.376 6.376 0 00-8.743 2.143 6.348 6.348 0 002.147 8.728l2.385 1.442a12.342 12.342 0 014.656 5.045 12.342 12.342 0 004.657 5.046l31.766 19.206a10.205 10.205 0 007.708 1.177 10.187 10.187 0 006.285-4.608 10.155 10.155 0 001.18-7.694 10.172 10.172 0 00-4.617-6.274l-31.765-19.205a12.373 12.373 0 00-6.637-1.782 12.373 12.373 0 01-6.637-1.782z" fill="#8777D9"/>
    <path d="M109 76.133a11.904 11.904 0 01-6.218-1.775l-2.332-1.44a6.122 6.122 0 00-4.71-.735 6.235 6.235 0 00-3.839 2.875c-1.78 2.998-.84 6.9 2.1 8.715l2.332 1.44A12.217 12.217 0 01100.75 90 53.764 53.764 0 00109 76.133z" fill="#8777D9" style="mix-blend-mode:multiply"/>
    <path d="M65.639 103.483c-20.818 5.063-42.665-2.792-55.355-19.901A52.068 52.068 0 017.667 25.32C14.92 13.387 26.692 4.824 40.359 1.539a53.094 53.094 0 0140.097 6.078c18.335 10.998 28.175 31.85 24.932 52.835-3.243 20.985-18.932 37.968-39.75 43.031z" fill="#0065FF"/>
    <path d="M18.791 32.28C7.348 51.173 13.387 75.765 32.281 87.21c18.892 11.443 43.484 5.404 54.928-13.49 11.443-18.892 5.404-43.484-13.49-54.928-18.892-11.443-43.484-5.404-54.928 13.49z" fill="#CCE0FF"/>
    <path d="M62.535 91.845C80.483 87.436 93.075 71.318 93 52.849a38.444 38.444 0 01-3.975 1.78c-12.269 4.653-23.197 1.647-28.517.101-15.963-4.637-19.369-13.569-30.504-19.193A37.763 37.763 0 0018.993 32c-.068.109-.14.213-.207.323a39.946 39.946 0 001.975 44.367c9.577 13.029 26.064 19.01 41.774 15.155z" fill="url(#a)"/>
  </g>
</svg>