<svg width="109" height="80" viewBox="0 0 109 80" fill="none" xmlns="http://www.w3.org/2000/svg">
<g clip-path="url(#clip0)">
<rect width="109" height="80" fill="white" fill-opacity="0.01"/>
<path d="M15.2869 64.7118L14.6838 65.4266L29.8075 78.3216L30.4105 77.6067L15.2869 64.7118Z" fill="#B2D4FF"/>
<path d="M9.15006 39.9111L9.02515 40.84L29.6725 43.6466L29.7974 42.7178L9.15006 39.9111Z" fill="#B2D4FF"/>
<path d="M27.8751 23.1808L27.1812 23.8068L38.0745 36.0131L38.7684 35.3871L27.8751 23.1808Z" fill="#B2D4FF"/>
<path d="M70.4352 28.1977L70.1011 29.0728L89.9422 36.7301L90.2764 35.855L70.4352 28.1977Z" fill="#B2D4FF"/>
<path d="M64.9804 48.6922L64.6311 49.5613L92.9994 61.0846L93.3487 60.2155L64.9804 48.6922Z" fill="#B2D4FF"/>
<path d="M90.5243 35.8606L89.6013 35.9824L92.7763 60.2911L93.6993 60.1693L90.5243 35.8606Z" fill="#B2D4FF"/>
<path d="M27.1971 23.1555L8.75854 40.0236L9.37782 40.7079L27.8163 23.8397L27.1971 23.1555Z" fill="#B2D4FF"/>
<path d="M9.55548 40.2635L8.64893 40.4823L14.5556 65.218L15.4622 64.9992L9.55548 40.2635Z" fill="#B2D4FF"/>
<path d="M92.909 60.356L80.2817 72.7881L80.9255 73.4491L93.5528 61.0169L92.909 60.356Z" fill="#B2D4FF"/>
<path d="M106.894 52.858L92.8821 60.1291L93.3041 60.9512L107.316 53.6801L106.894 52.858Z" fill="#B2D4FF"/>
<path d="M52.4437 49.9813L14.9285 64.5353L15.2597 65.3984L52.7749 50.8444L52.4437 49.9813Z" fill="#B2D4FF"/>
<path d="M89.9354 35.8231L52.4604 49.9099L52.7827 50.7764L90.2576 36.6897L89.9354 35.8231Z" fill="#B2D4FF"/>
<path d="M52.6555 79.5924C68.7071 79.5924 81.7195 66.5099 81.7195 50.3718C81.7195 34.2337 68.7071 21.1512 52.6555 21.1512C36.6039 21.1512 23.5916 34.2337 23.5916 50.3718C23.5916 66.5099 36.6039 79.5924 52.6555 79.5924Z" fill="url(#paint0_linear)"/>
<g opacity="0.5">
<path opacity="0.5" d="M52.1287 32.277H40.2923C40.1707 32.6031 40.0086 32.9291 39.8464 33.2959H52.1287V32.277Z" fill="#B2D4FF"/>
<path opacity="0.5" d="M29.8341 32.277C29.5909 32.6031 29.3072 32.9291 29.064 33.2959H38.8736C38.9976 32.9459 39.1466 32.6054 39.3195 32.277H29.8341Z" fill="#B2D4FF"/>
<path opacity="0.5" d="M76.2068 33.2959C75.9729 32.9394 75.7156 32.599 75.4366 32.277H66.5999C66.7215 32.6031 66.8836 32.9291 67.0052 33.2959H76.2068Z" fill="#B2D4FF"/>
<path opacity="0.5" d="M53.1421 33.2959H66.0324C65.8702 32.9291 65.7486 32.6031 65.5865 32.277H53.1421V33.2959Z" fill="#B2D4FF"/>
<path opacity="0.5" d="M52.1288 67.4477H39.2385C39.4007 67.7737 39.5223 68.1405 39.6844 68.4666H52.1288V67.4477Z" fill="#B2D4FF"/>
<path opacity="0.5" d="M29.064 67.4477L29.8341 68.4666H38.6709L38.2655 67.4477H29.064Z" fill="#B2D4FF"/>
<path opacity="0.5" d="M75.4367 68.4666C75.7205 68.1405 75.9637 67.7737 76.2069 67.4477H66.3973C66.2657 67.7946 66.1169 68.1347 65.9514 68.4666H75.4367Z" fill="#B2D4FF"/>
<path opacity="0.5" d="M53.1421 68.4666H64.9785C65.144 68.1347 65.2928 67.7946 65.4243 67.4477H53.1421V68.4666Z" fill="#B2D4FF"/>
<path opacity="0.5" d="M39.8466 33.2959C40.0087 32.9291 40.1709 32.6031 40.2925 32.2771C43.211 26.2047 47.4267 22.1701 52.1289 21.681V21.1512H53.1422V21.6403H53.3854C57.6822 21.7218 61.6547 24.8191 64.6138 30.2394C64.9381 30.8914 65.3029 31.5843 65.5866 32.2771C65.8704 32.9699 65.8704 32.9291 66.0325 33.2959C67.9782 38.0641 68.9916 43.8104 68.9511 49.842H69.8429C69.8834 43.8512 68.9105 38.1049 67.0054 33.2959C66.8838 32.9291 66.7216 32.6031 66.6 32.2771C66.4784 31.951 65.8298 30.6062 65.4245 29.7911C63.1545 25.6342 60.317 22.8222 57.1553 21.518C55.9082 21.3113 54.6488 21.1887 53.3854 21.1512C52.1288 21.1512 50.8722 21.192 49.6562 21.3143C45.5216 22.7814 41.8734 26.7345 39.3196 32.2771C39.1468 32.6054 38.9977 32.9459 38.8737 33.2959C36.847 37.9826 35.5904 43.6882 35.4282 49.842H36.3605C36.4609 44.1534 37.6442 38.5368 39.8466 33.2959Z" fill="#B2D4FF"/>
<path opacity="0.5" d="M66.3974 67.4477C68.5776 62.1872 69.7467 56.559 69.8429 50.8608H68.9106C68.8144 56.5631 67.631 62.1938 65.4245 67.4477C65.2929 67.7946 65.1441 68.1347 64.9786 68.4665C62.0601 74.5389 57.8444 78.5328 53.1422 79.0218V79.4701H52.1289V79.1033H51.8856C47.5889 78.9811 43.6164 75.9245 40.6573 70.4635L39.6844 68.4665C39.5223 68.1405 39.4007 67.7737 39.2386 67.4477C37.2929 62.6387 36.2795 56.8924 36.3605 50.8608H35.4282C35.3877 56.8924 36.3605 62.598 38.2657 67.4477L38.6711 68.4665C39.0359 69.3224 39.4412 70.1375 39.8466 70.9118C42.1166 75.0687 44.9541 77.9215 48.1158 79.2256C49.3724 79.3886 50.5885 79.5109 51.8856 79.5516C53.1446 79.5991 54.4052 79.5446 55.6554 79.3886C59.7495 77.9622 63.3977 73.9683 65.9515 68.4665C66.117 68.1347 66.2658 67.7946 66.3974 67.4477Z" fill="#B2D4FF"/>
<path opacity="0.5" d="M53.1421 32.2771V21.6403V21.1512H52.1287V21.681V32.2771V33.2959V49.842H53.1421V33.2959V32.2771Z" fill="#B2D4FF"/>
<path opacity="0.5" d="M53.1421 67.4477V50.8608H52.1287V67.4477V68.4665V79.1033V79.4701H53.1421V79.0218V68.4665V67.4477Z" fill="#B2D4FF"/>
<path opacity="0.5" d="M52.1288 50.8609H53.1422H68.9105H69.8428H81.6792V49.842H69.8428H68.951H53.1422H52.1288H36.3605H35.4281H23.7134V50.8609H35.4281H36.3605H52.1288Z" fill="#B2D4FF"/>
</g>
<g opacity="0.4">
<path opacity="0.4" d="M31.5367 62.9241C31.439 62.9355 31.34 62.9229 31.2483 62.8874C31.1565 62.8519 31.0746 62.7946 31.0097 62.7203C30.9321 62.6514 30.8699 62.5668 30.8273 62.4719C30.7847 62.3771 30.7627 62.2742 30.7627 62.1701C30.7627 62.066 30.7847 61.9632 30.8273 61.8683C30.8699 61.7734 30.9321 61.6888 31.0097 61.6199L52.0882 40.4279C52.231 40.2932 52.4194 40.2183 52.6152 40.2183C52.8109 40.2183 52.9993 40.2932 53.1421 40.4279C53.2198 40.4967 53.2819 40.5814 53.3245 40.6762C53.3671 40.7711 53.3891 40.874 53.3891 40.9781C53.3891 41.0821 53.3671 41.185 53.3245 41.2799C53.2819 41.3747 53.2198 41.4594 53.1421 41.5282L32.0636 62.7203C31.9987 62.7946 31.9169 62.8519 31.8251 62.8874C31.7333 62.9229 31.6344 62.9355 31.5367 62.9241Z" fill="url(#paint1_linear)"/>
</g>
<path d="M81.2737 22.3739C71.91 18.543 62.5058 26.2048 53.1421 22.3739V1.10032C62.5058 4.93119 71.91 -2.73055 81.2737 1.10032V22.3739Z" fill="url(#paint2_linear)"/>
<path d="M52.6151 41.6913C52.4284 41.6916 52.2487 41.6199 52.113 41.491C51.9773 41.3621 51.8959 41.1859 51.8855 40.9984V1.10033C51.8855 0.905776 51.9624 0.71919 52.0992 0.581618C52.236 0.444047 52.4216 0.36676 52.6151 0.36676C52.8087 0.36676 52.9942 0.444047 53.1311 0.581618C53.2679 0.71919 53.3448 0.905776 53.3448 1.10033V40.9984C53.3344 41.1859 53.253 41.3621 53.1172 41.491C52.9815 41.6199 52.8018 41.6916 52.6151 41.6913Z" fill="#0052CC"/>
<path d="M67.4511 6.07229L69.1131 9.49562L72.8424 9.98467C72.907 9.99625 72.9672 10.0251 73.0169 10.0683C73.0665 10.1114 73.1037 10.1672 73.1244 10.2298C73.1452 10.2923 73.1487 10.3594 73.1348 10.4238C73.1208 10.4883 73.0898 10.5477 73.045 10.596L70.3697 13.3265L70.9777 17.1166C70.9965 17.1804 70.9955 17.2485 70.9747 17.3117C70.9539 17.3749 70.9143 17.4301 70.8614 17.4701C70.8084 17.51 70.7446 17.5327 70.6784 17.5351C70.6123 17.5374 70.547 17.5194 70.4913 17.4834L67.1269 15.7717L63.8029 17.6057C63.7444 17.6354 63.6789 17.6486 63.6135 17.644C63.548 17.6395 63.485 17.6173 63.4311 17.5797C63.3771 17.5422 63.3342 17.4907 63.3069 17.4307C63.2797 17.3707 63.269 17.3045 63.276 17.2389L63.9246 13.4488L61.2087 10.7997C61.1639 10.7515 61.1329 10.692 61.119 10.6276C61.105 10.5632 61.1086 10.4961 61.1293 10.4335C61.1501 10.371 61.1872 10.3152 61.2368 10.272C61.2865 10.2289 61.3468 10.2 61.4114 10.1884L65.1406 9.57713L66.8026 6.07229C66.8333 6.01242 66.8798 5.9622 66.937 5.92714C66.9942 5.89208 67.0599 5.87354 67.1269 5.87354C67.1939 5.87354 67.2596 5.89208 67.3168 5.92714C67.374 5.9622 67.4205 6.01242 67.4511 6.07229Z" fill="#FFF0B2"/>
<path d="M27.5236 27.7941C29.8966 27.7941 31.8203 25.86 31.8203 23.4742C31.8203 21.0884 29.8966 19.1543 27.5236 19.1543C25.1505 19.1543 23.2268 21.0884 23.2268 23.4742C23.2268 25.86 25.1505 27.7941 27.5236 27.7941Z" fill="#4C9AFF"/>
<path d="M80.5846 77.4324C82.9577 77.4324 84.8814 75.4983 84.8814 73.1125C84.8814 70.7267 82.9577 68.7926 80.5846 68.7926C78.2116 68.7926 76.2878 70.7267 76.2878 73.1125C76.2878 75.4983 78.2116 77.4324 80.5846 77.4324Z" fill="url(#paint3_linear)"/>
<path d="M14.9577 69.4039C17.3307 69.4039 19.2544 67.4698 19.2544 65.084C19.2544 62.6982 17.3307 60.7641 14.9577 60.7641C12.5846 60.7641 10.6609 62.6982 10.6609 65.084C10.6609 67.4698 12.5846 69.4039 14.9577 69.4039Z" fill="url(#paint4_linear)"/>
<path d="M93.2316 62.6388C94.3286 62.6388 95.2178 61.7447 95.2178 60.6418C95.2178 59.539 94.3286 58.6449 93.2316 58.6449C92.1346 58.6449 91.2454 59.539 91.2454 60.6418C91.2454 61.7447 92.1346 62.6388 93.2316 62.6388Z" fill="#FFC400"/>
<path d="M90.1105 38.3086C91.2075 38.3086 92.0967 37.4146 92.0967 36.3117C92.0967 35.2088 91.2075 34.3148 90.1105 34.3148C89.0135 34.3148 88.1243 35.2088 88.1243 36.3117C88.1243 37.4146 89.0135 38.3086 90.1105 38.3086Z" fill="#505F79"/>
<path d="M107.014 55.3438C108.111 55.3438 109 54.4497 109 53.3469C109 52.244 108.111 51.3499 107.014 51.3499C105.917 51.3499 105.028 52.244 105.028 53.3469C105.028 54.4497 105.917 55.3438 107.014 55.3438Z" fill="#4C9AFF"/>
<path d="M2.28885 29.577L1.52051 30.1079L8.69996 40.6104L9.46831 40.0795L2.28885 29.577Z" fill="#B2D4FF"/>
<path d="M1.98624 31.7473C3.08321 31.7473 3.97248 30.8532 3.97248 29.7504C3.97248 28.6475 3.08321 27.7534 1.98624 27.7534C0.88927 27.7534 0 28.6475 0 29.7504C0 30.8532 0.88927 31.7473 1.98624 31.7473Z" fill="#B2D4FF"/>
<path d="M9.07999 42.3433C10.177 42.3433 11.0662 41.4493 11.0662 40.3464C11.0662 39.2435 10.177 38.3494 9.07999 38.3494C7.98302 38.3494 7.09375 39.2435 7.09375 40.3464C7.09375 41.4493 7.98302 42.3433 9.07999 42.3433Z" fill="#FFC400"/>
<path d="M30.0773 79.9999C31.1743 79.9999 32.0635 79.1059 32.0635 78.003C32.0635 76.9001 31.1743 76.006 30.0773 76.006C28.9803 76.006 28.0911 76.9001 28.0911 78.003C28.0911 79.1059 28.9803 79.9999 30.0773 79.9999Z" fill="#505F79"/>
</g>
<defs>
<linearGradient id="paint0_linear" x1="32.0959" y1="71.0137" x2="73.4035" y2="29.9316" gradientUnits="userSpaceOnUse">
<stop stop-color="#0065FF"/>
<stop offset="0.67" stop-color="#4C9AFF"/>
<stop offset="0.99" stop-color="#B2D4FF"/>
</linearGradient>
<linearGradient id="paint1_linear" x1="30.7746" y1="51.5782" x2="53.3813" y2="51.5782" gradientUnits="userSpaceOnUse">
<stop stop-color="#0052CC" stop-opacity="0"/>
<stop offset="1" stop-color="#0052CC"/>
</linearGradient>
<linearGradient id="paint2_linear" x1="54.873" y1="24.1467" x2="79.6714" y2="-0.518817" gradientUnits="userSpaceOnUse">
<stop offset="0.24" stop-color="#FF991F"/>
<stop offset="1" stop-color="#FFC400"/>
</linearGradient>
<linearGradient id="paint3_linear" x1="77.5444" y1="76.1528" x2="83.6534" y2="70.0766" gradientUnits="userSpaceOnUse">
<stop offset="0.05" stop-color="#4C9AFF"/>
<stop offset="0.99" stop-color="#B2D4FF"/>
</linearGradient>
<linearGradient id="paint4_linear" x1="263.568" y1="1505.78" x2="393.078" y2="1376.87" gradientUnits="userSpaceOnUse">
<stop offset="0.05" stop-color="#4C9AFF"/>
<stop offset="0.99" stop-color="#B2D4FF"/>
</linearGradient>
<clipPath id="clip0">
<rect width="109" height="80" fill="white"/>
</clipPath>
</defs>
</svg>
