<svg width="694" height="450" viewBox="0 0 694 450" fill="none" xmlns="http://www.w3.org/2000/svg">
  <g clip-path="url(#clip0)">
    <path d="M0 0H693.6V449.7H0V0Z" fill="white" fill-opacity="0.01" />
    <path opacity="0.6"
      d="M5.5 410.699H117.2C123.1 410.699 128.7 412.999 132.9 417.199L145.8 430.099C150 434.299 155.6 436.599 161.5 436.599H319C324.9 436.599 330.5 438.899 334.7 443.099C338.9 447.299 344.5 449.599 350.4 449.599H485.8C491.7 449.599 497.3 447.299 501.5 443.099L504.5 440.099C508.7 435.899 514.3 433.599 520.2 433.599H585.1C591 433.599 596.6 431.299 600.8 427.099L612.1 415.799C616.3 411.599 621.9 409.299 627.8 409.299H688.8C691.5 409.299 693.6 407.199 693.6 404.499C693.6 401.799 691.5 399.699 688.8 399.699H5.5C2.5 399.699 0 402.199 0 405.199C0 408.299 2.5 410.699 5.5 410.699Z"
      fill="url(#paint0_linear)" />
    <path opacity="0.6"
      d="M693.5 403.299C693 401.199 691.1 399.699 688.9 399.699H6C6.2 402.499 8.6 404.699 11.5 404.699H123.2C129.1 404.699 134.7 406.999 138.9 411.199L151.8 424.099C156 428.299 161.6 430.599 167.5 430.599H325C330.9 430.599 336.5 432.899 340.7 437.099C344.9 441.299 350.5 443.599 356.4 443.599H491.8C497.7 443.599 503.3 441.299 507.5 437.099L510.5 434.099C514.7 429.899 520.3 427.599 526.2 427.599H591.1C597 427.599 602.6 425.299 606.8 421.099L612.1 415.799L618.1 409.799C622.3 405.599 627.9 403.299 633.8 403.299H693.5Z"
      fill="url(#paint1_linear)" />
    <path opacity="0.6"
      d="M693.5 403.299C693 401.199 691.1 399.699 688.9 399.699H6C6.2 402.499 8.6 404.699 11.5 404.699H123.2C129.1 404.699 134.7 406.999 138.9 411.199L151.8 424.099C156 428.299 161.6 430.599 167.5 430.599H325C330.9 430.599 336.5 432.899 340.7 437.099C344.9 441.299 350.5 443.599 356.4 443.599H491.8C497.7 443.599 503.3 441.299 507.5 437.099L510.5 434.099C514.7 429.899 520.3 427.599 526.2 427.599H591.1C597 427.599 602.6 425.299 606.8 421.099L612.1 415.799L618.1 409.799C622.3 405.599 627.9 403.299 633.8 403.299H693.5Z"
      fill="url(#paint2_linear)" />
    <path opacity="0.6" d="M385 416H194L271.5 125H462.5L385 416Z" fill="url(#paint3_linear)" />
    <path opacity="0.6" d="M362 416H171L248.5 125H439.5L362 416Z" fill="url(#paint4_linear)" />
    <path opacity="0.6" d="M407 416H216L293.5 125H484.5L407 416Z" fill="url(#paint5_linear)" />
    <path opacity="0.2"
      d="M341.3 143.999C341.2 143.999 341 143.999 340.9 143.899C340.1 143.699 339.6 142.899 339.8 142.099L346.7 116.099C346.9 115.299 347.7 114.799 348.5 114.999C349.3 115.199 349.8 115.999 349.6 116.799L342.7 142.799C342.6 143.599 342 143.999 341.3 143.999Z"
      fill="#008DA6" />
    <path opacity="0.2"
      d="M310.7 179.999C310.6 179.999 310.4 179.999 310.3 179.899C309.5 179.699 309 178.899 309.2 178.099L324.4 121.099C324.6 120.299 325.4 119.799 326.2 119.999C327 120.199 327.5 120.999 327.3 121.799L312.1 178.799C312 179.599 311.4 179.999 310.7 179.999Z"
      fill="#008DA6" />
    <path opacity="0.2"
      d="M422.2 151.999C422.1 151.999 421.9 151.999 421.8 151.899C421 151.699 420.5 150.899 420.7 150.099L427.6 124.099C427.8 123.299 428.6 122.799 429.4 122.999C430.2 123.199 430.7 123.999 430.5 124.799L423.6 150.799C423.4 151.599 422.8 151.999 422.2 151.999Z"
      fill="#008DA6" />
    <path opacity="0.2"
      d="M269.2 268.999C269.1 268.999 268.9 268.999 268.8 268.899C268 268.699 267.5 267.899 267.7 267.099L274.6 241.099C274.8 240.299 275.6 239.799 276.4 239.999C277.2 240.199 277.7 240.999 277.5 241.799L270.6 267.799C270.5 268.599 269.9 268.999 269.2 268.999Z"
      fill="#008DA6" />
    <path opacity="0.2"
      d="M275.2 191.499C275.1 191.499 274.9 191.499 274.8 191.399C274 191.199 273.5 190.399 273.7 189.599L288.9 132.599C289.1 131.799 289.9 131.299 290.7 131.499C291.5 131.699 292 132.499 291.8 133.299L276.6 190.299C276.4 191.099 275.8 191.499 275.2 191.499Z"
      fill="#008DA6" />
    <path opacity="0.2"
      d="M280.3 230.999C280.2 230.999 280 230.999 279.9 230.899C279.1 230.699 278.6 229.899 278.8 229.099L294 172.099C294.2 171.299 295 170.799 295.8 170.999C296.6 171.199 297.1 171.999 296.9 172.799L281.7 229.799C281.6 230.599 281 230.999 280.3 230.999Z"
      fill="#008DA6" />
    <path opacity="0.2"
      d="M310.6 259.999C310.5 259.999 310.3 259.999 310.2 259.899C309.4 259.699 308.9 258.899 309.1 258.099L324.3 201.099C324.5 200.299 325.3 199.799 326.1 199.999C326.9 200.199 327.4 200.999 327.2 201.799L312 258.799C311.9 259.599 311.3 259.999 310.6 259.999Z"
      fill="#008DA6" />
    <path opacity="0.2"
      d="M344.6 300.099C344.5 300.099 344.3 300.099 344.2 299.999C343.4 299.799 342.9 298.999 343.1 298.199L358.3 241.199C358.5 240.399 359.3 239.899 360.1 240.099C360.9 240.299 361.4 241.099 361.2 241.899L346 298.899C345.9 299.599 345.3 300.099 344.6 300.099Z"
      fill="#008DA6" />
    <path opacity="0.2"
      d="M330.5 184.698C330.4 184.698 330.2 184.698 330.1 184.598C329.3 184.398 328.8 183.598 329 182.798L335.9 156.798C336.1 155.998 336.9 155.498 337.7 155.698C338.5 155.898 339 156.698 338.8 157.498L331.9 183.498C331.7 184.298 331.1 184.698 330.5 184.698Z"
      fill="#008DA6" />
    <path opacity="0.2"
      d="M295.7 315.999C295.6 315.999 295.4 315.999 295.3 315.899C294.5 315.699 294 314.899 294.2 314.099L301.1 288.099C301.3 287.299 302.1 286.799 302.9 286.999C303.7 287.199 304.2 287.999 304 288.799L297.1 314.799C297 315.599 296.4 315.999 295.7 315.999Z"
      fill="#008DA6" />
    <path
      d="M549.4 125H312.7C320.6 125 327 118.6 327 110.7C327 102.8 333.4 96.4004 341.3 96.4004C342.7 96.4004 344.1 96.6004 345.4 97.0004C345.4 96.8004 345.4 96.6004 345.4 96.4004C345.4 80.6004 358.2 67.8004 374 67.8004C375.7 67.8004 377.4 68.0004 379.1 68.2004C381.9 42.7004 403.5 22.9004 429.8 22.9004C456.7 22.9004 478.8 43.8004 480.7 70.3004C484.3 68.7004 488.2 67.8004 492.4 67.8004C508.2 67.8004 521 80.6004 521 96.4004C521 112.2 533.6 125 549.4 125Z"
      fill="#344563" />
    <path d="M407.3 410.7L289.4 292.9H203.6L85.7 410.7H407.3Z" fill="#C1C7D0" />
    <path d="M250.5 304.801L248.2 307.101L351.9 410.701H356.4L250.5 304.801Z" fill="#A5ADBA" />
    <path d="M235.5 319.801L233.2 322.101L321.9 410.701H326.5L235.5 319.801Z" fill="#A5ADBA" />
    <path d="M220.5 334.701L218.3 337.001L292 410.701H296.6L220.5 334.701Z" fill="#A5ADBA" />
    <path d="M205.6 349.701L203.3 352.001L262 410.701H266.6L205.6 349.701Z" fill="#A5ADBA" />
    <path d="M190.6 364.701L188.3 367.001L232.1 410.701H236.7L190.6 364.701Z" fill="#A5ADBA" />
    <path d="M175.6 379.701L173.3 381.901L202.1 410.701H206.7L175.6 379.701Z" fill="#A5ADBA" />
    <path d="M160.6 394.6L158.4 396.9L172.2 410.7H176.8L160.6 394.6Z" fill="#A5ADBA" />
    <path d="M146.8 410.7L145.7 409.6L144.5 410.7H146.8Z" fill="#A5ADBA" />
    <path
      d="M382.3 100.801L365.1 166.601L358.6 157.101L393.9 157.401L404.2 157.501L400.3 166.201L371.7 230.001L387.5 162.001L393.9 170.801L358.6 171.101L347.2 171.201L352 161.601L382.3 100.801Z"
      fill="white" />
    <path d="M221.7 410.701L416.2 216.301L610.7 410.701H221.7Z" fill="url(#paint6_linear)" />
    <path d="M416.4 268.358L414.137 270.621L554.143 410.627L556.405 408.364L416.4 268.358Z" fill="#C1C7D0" />
    <path d="M401.4 283.301L399.1 285.601L524.3 410.701H528.8L401.4 283.301Z" fill="#C1C7D0" />
    <path d="M386.5 298.301L384.2 300.601L494.3 410.701H498.9L386.5 298.301Z" fill="#C1C7D0" />
    <path d="M371.5 313.301L369.2 315.601L464.4 410.701H468.9L371.5 313.301Z" fill="#C1C7D0" />
    <path d="M356.5 328.301L354.2 330.501L434.4 410.701H439L356.5 328.301Z" fill="#C1C7D0" />
    <path d="M341.5 343.201L339.3 345.501L404.5 410.701H409.1L341.5 343.201Z" fill="#C1C7D0" />
    <path d="M326.6 358.201L324.3 360.501L374.5 410.701H379.1L326.6 358.201Z" fill="#C1C7D0" />
    <path d="M311.6 373.201L309.3 375.501L344.6 410.701H349.2L311.6 373.201Z" fill="#C1C7D0" />
    <path d="M246.5 335.5L289.4 292.6H203.6L246.5 335.5Z" fill="url(#paint7_linear)" />
    <path
      d="M448.7 90C448.7 109.3 464.4 125 483.7 125H193.7C203.4 125 211.2 117.2 211.2 107.5C211.2 97.8 219 90 228.7 90C230.4 90 232.1 90.2 233.7 90.7C233.7 90.5 233.7 90.2 233.7 90C233.7 70.7 249.4 55 268.7 55C270.8 55 272.9 55.2 274.9 55.5C278.4 24.3 304.9 0 337.1 0C370.1 0 397.2 25.6 399.4 58.1C403.8 56.1 408.6 55 413.7 55C433.1 55 448.7 70.7 448.7 90Z"
      fill="url(#paint8_linear)" />
    <path opacity="0.6"
      d="M337.7 77.5C334.7 77.5 332.2 75.1 332 72.1L330.2 43C329.9 38.7 333.4 35 337.7 35C342 35 345.4 38.6 345.2 43L343.4 72.2C343.3 75.2 340.8 77.5 337.7 77.5Z"
      fill="#B3BAC5" />
    <path opacity="0.6"
      d="M338.2 97.0008C341.845 97.0008 344.8 94.0459 344.8 90.4008C344.8 86.7557 341.845 83.8008 338.2 83.8008C334.555 83.8008 331.6 86.7557 331.6 90.4008C331.6 94.0459 334.555 97.0008 338.2 97.0008Z"
      fill="#B3BAC5" />
    <path opacity="0.15" d="M246.7 335L209.7 370L171 325.5L203.7 293L246.7 335Z" fill="url(#paint9_linear)" />
    <path d="M321 403.1H287.5C284.3 403.1 281.8 405.7 281.8 408.8V410.7H326.8V408.8C326.7 405.7 324.2 403.1 321 403.1Z"
      fill="#FF991F" />
    <path
      d="M307.3 353.9H301.1C299.6 353.9 298.3 355 298 356.6L289.7 404.7H318.8L310.5 356.6C310.1 355 308.8 353.9 307.3 353.9Z"
      fill="#FF991F" />
    <path d="M295.7 370H312.7L311.6 363.4H296.8L295.7 370Z" fill="#FFC400" />
    <path d="M317.4 396.801L316.3 390.301H292.2L291 396.801H317.4Z" fill="#FFC400" />
    <path d="M650 403.1H616.5C613.3 403.1 610.8 405.7 610.8 408.8V410.7H655.8V408.8C655.7 405.7 653.2 403.1 650 403.1Z"
      fill="#FF991F" />
    <path
      d="M636.3 353.9H630.1C628.6 353.9 627.3 355 627 356.6L618.7 404.7H647.8L639.5 356.6C639.1 355 637.8 353.9 636.3 353.9Z"
      fill="#FF991F" />
    <path d="M624.7 370H641.8L640.6 363.4H625.9L624.7 370Z" fill="#FFC400" />
    <path d="M646.4 396.801L645.3 390.301H621.2L620 396.801H646.4Z" fill="#FFC400" />
  </g>
  <defs>
    <linearGradient id="paint0_linear" x1="0" y1="424.698" x2="693.621" y2="424.698" gradientUnits="userSpaceOnUse">
      <stop stop-color="#79E2F2" stop-opacity="0" />
      <stop offset="1" stop-color="#79E2F2" />
    </linearGradient>
    <linearGradient id="paint1_linear" x1="6.0248" y1="421.698" x2="699.646" y2="421.698"
      gradientUnits="userSpaceOnUse">
      <stop stop-color="#79E2F2" stop-opacity="0" />
      <stop offset="1" stop-color="#79E2F2" />
    </linearGradient>
    <linearGradient id="paint2_linear" x1="6.0248" y1="421.698" x2="699.646" y2="421.698"
      gradientUnits="userSpaceOnUse">
      <stop stop-color="#79E2F2" stop-opacity="0" />
      <stop offset="1" stop-color="#79E2F2" />
    </linearGradient>
    <linearGradient id="paint3_linear" x1="289.476" y1="416" x2="289.476" y2="125" gradientUnits="userSpaceOnUse">
      <stop offset="0.2586" stop-color="#79E2F2" stop-opacity="0" />
      <stop offset="1" stop-color="#79E2F2" />
    </linearGradient>
    <linearGradient id="paint4_linear" x1="266.476" y1="416" x2="266.476" y2="125" gradientUnits="userSpaceOnUse">
      <stop offset="0.3119" stop-color="#79E2F2" stop-opacity="0" />
      <stop offset="0.9445" stop-color="#79E2F2" stop-opacity="0.9194" />
      <stop offset="1" stop-color="#79E2F2" />
    </linearGradient>
    <linearGradient id="paint5_linear" x1="311.476" y1="416" x2="311.476" y2="125" gradientUnits="userSpaceOnUse">
      <stop offset="0.5028" stop-color="#79E2F2" stop-opacity="0" />
      <stop offset="0.9599" stop-color="#79E2F2" stop-opacity="0.9194" />
      <stop offset="1" stop-color="#79E2F2" />
    </linearGradient>
    <linearGradient id="paint6_linear" x1="416.234" y1="410.749" x2="416.234" y2="216.253"
      gradientUnits="userSpaceOnUse">
      <stop offset="0.126" stop-color="#DFE1E5" />
      <stop offset="0.7465" stop-color="#FAFBFC" />
    </linearGradient>
    <linearGradient id="paint7_linear" x1="225.055" y1="314.032" x2="267.963" y2="271.124"
      gradientUnits="userSpaceOnUse">
      <stop stop-color="#DFE1E5" />
      <stop offset="0.3584" stop-color="#E7E9EC" />
      <stop offset="0.8323" stop-color="#FAFBFC" />
    </linearGradient>
    <linearGradient id="paint8_linear" x1="263.855" y1="195.125" x2="416.105" y2="42.875"
      gradientUnits="userSpaceOnUse">
      <stop offset="0.5431" stop-color="#5E6C84" />
      <stop offset="0.7013" stop-color="#606E86" />
      <stop offset="0.7881" stop-color="#68768C" />
      <stop offset="0.8576" stop-color="#768296" />
      <stop offset="0.9178" stop-color="#8A94A5" />
      <stop offset="0.9716" stop-color="#A2ABB8" />
      <stop offset="1" stop-color="#B3BAC5" />
    </linearGradient>
    <linearGradient id="paint9_linear" x1="189.641" y1="353.143" x2="225.077" y2="310.912"
      gradientUnits="userSpaceOnUse">
      <stop offset="0.2586" stop-color="#091E42" stop-opacity="0" />
      <stop offset="1" stop-color="#091E42" />
    </linearGradient>
    <clipPath id="clip0">
      <path d="M0 0H693.6V449.7H0V0Z" fill="white" />
    </clipPath>
  </defs>
</svg>
