<svg width="162" height="142" viewBox="0 0 162 142" fill="none" xmlns="http://www.w3.org/2000/svg">
<rect width="162" height="142" fill="white" fill-opacity="0.01"/>
<path d="M0 0V122.263H61.1985L81 142L100.801 122.263H162V0H0Z" fill="url(#paint0_linear)"/>
<path opacity="0.1" d="M162 24.3732C116.018 20.3331 89.7047 24.9692 73.9565 30.1353C70.8335 31.1288 66.8466 32.5859 60.3347 34.3079C36.6128 40.5336 14.7514 40.931 0 40.2025V13.0476H162V24.3732Z" fill="url(#paint1_linear)"/>
<path d="M162 0H0V13.0277H162V0Z" fill="#EBECF0"/>
<path d="M149.508 109.547H144.923V108.222H148.179V104.977H149.508V109.547Z" fill="#C1C7D0"/>
<path d="M139.408 109.547H131.168V108.222H139.408V109.547ZM125.719 109.547H117.48V108.222H125.719V109.547ZM111.965 109.547H103.725V108.222H111.965V109.547ZM98.2765 109.547H90.0369V108.222H98.2765V109.547ZM84.5217 109.547H76.2822V108.222H84.5217V109.547ZM70.767 109.547H62.5275V108.222H70.767V109.547ZM57.0788 109.547H48.8392V108.222H57.0788V109.547ZM43.324 109.547H35.0845V108.222H43.324V109.547ZM29.6358 109.547H21.3962V108.222H29.6358V109.547Z" fill="#C1C7D0"/>
<path d="M15.881 109.547H11.2961V104.977H12.6251V108.222H15.881V109.547Z" fill="#C1C7D0"/>
<path d="M12.6251 99.4794H11.2961V91.2005H12.6251V99.4794ZM12.6251 85.7033H11.2961V77.4244H12.6251V85.7033ZM12.6251 71.9272H11.2961V63.7145H12.6251V71.9272ZM12.6251 58.2173H11.2961V49.9384H12.6251V58.2173ZM12.6251 44.4412H11.2961V36.1622H12.6251V44.4412Z" fill="#C1C7D0"/>
<path d="M12.6251 30.6651H11.2961V26.0951H15.881V27.4197H12.6251V30.6651Z" fill="#C1C7D0"/>
<path d="M139.408 27.4197H131.168V26.0951H139.408V27.4197ZM125.719 27.4197H117.48V26.0951H125.719V27.4197ZM111.965 27.4197H103.725V26.0951H111.965V27.4197ZM98.2765 27.4197H90.0369V26.0951H98.2765V27.4197ZM84.5217 27.4197H76.2822V26.0951H84.5217V27.4197ZM70.767 27.4197H62.5275V26.0951H70.767V27.4197ZM57.0788 27.4197H48.8392V26.0951H57.0788V27.4197ZM43.324 27.4197H35.0845V26.0951H43.324V27.4197ZM29.6358 27.4197H21.3962V26.0951H29.6358V27.4197Z" fill="#C1C7D0"/>
<path d="M149.508 30.6651H148.179V27.4197H144.923V26.0951H149.508V30.6651Z" fill="#C1C7D0"/>
<path d="M149.508 99.4794H148.179V91.2005H149.508V99.4794ZM149.508 85.7033H148.179V77.4244H149.508V85.7033ZM149.508 71.9272H148.179V63.7145H149.508V71.9272ZM149.508 58.2173H148.179V49.9384H149.508V58.2173ZM149.508 44.4412H148.179V36.1622H149.508V44.4412Z" fill="#C1C7D0"/>
<path opacity="0.1" d="M92.9607 66.4963H81.7974V55.3694C81.7974 55.0181 81.6574 54.6812 81.4082 54.4328C81.1589 54.1844 80.8209 54.0448 80.4685 54.0448H73.1592C72.8067 54.0448 72.4687 54.1844 72.2195 54.4328C71.9702 54.6812 71.8302 55.0181 71.8302 55.3694V66.4963H60.667C60.4899 66.4867 60.3129 66.5145 60.1473 66.5776C59.9817 66.6408 59.8313 66.7381 59.706 66.863C59.5806 66.988 59.483 67.1379 59.4196 67.3029C59.3562 67.468 59.3284 67.6445 59.338 67.8209V75.1064C59.3284 75.2828 59.3562 75.4593 59.4196 75.6244C59.483 75.7894 59.5806 75.9393 59.706 76.0643C59.8313 76.1892 59.9817 76.2865 60.1473 76.3497C60.3129 76.4128 60.4899 76.4406 60.667 76.431H71.8302V87.5579C71.8206 87.7343 71.8484 87.9108 71.9118 88.0759C71.9752 88.2409 72.0728 88.3908 72.1982 88.5158C72.3235 88.6407 72.4739 88.738 72.6395 88.8011C72.8051 88.8643 72.9821 88.8921 73.1592 88.8825H80.4685C80.6455 88.8921 80.8226 88.8643 80.9882 88.8011C81.1537 88.738 81.3041 88.6407 81.4295 88.5158C81.5549 88.3908 81.6524 88.2409 81.7158 88.0759C81.7792 87.9108 81.807 87.7343 81.7974 87.5579V76.431H92.9607C93.3131 76.431 93.6511 76.2914 93.9004 76.043C94.1496 75.7946 94.2896 75.4577 94.2896 75.1064V67.8209C94.2896 67.4696 94.1496 67.1327 93.9004 66.8843C93.6511 66.6359 93.3131 66.4963 92.9607 66.4963Z" fill="url(#paint2_linear)"/>
<path d="M96.5489 62.8536H85.3857V51.7267C85.3857 51.3754 85.2456 51.0385 84.9964 50.7901C84.7472 50.5417 84.4092 50.4021 84.0567 50.4021H76.7474C76.395 50.4021 76.0569 50.5417 75.8077 50.7901C75.5585 51.0385 75.4185 51.3754 75.4185 51.7267V62.8536H64.2552C63.9028 62.8536 63.5647 62.9932 63.3155 63.2416C63.0663 63.49 62.9263 63.8269 62.9263 64.1782V71.4637C62.9263 71.815 63.0663 72.1519 63.3155 72.4003C63.5647 72.6487 63.9028 72.7883 64.2552 72.7883H75.4185V83.9152C75.4185 84.2665 75.5585 84.6034 75.8077 84.8518C76.0569 85.1002 76.395 85.2398 76.7474 85.2398H84.0567C84.4092 85.2398 84.7472 85.1002 84.9964 84.8518C85.2456 84.6034 85.3857 84.2665 85.3857 83.9152V72.7883H96.5489C96.9014 72.7883 97.2394 72.6487 97.4886 72.4003C97.7379 72.1519 97.8779 71.815 97.8779 71.4637V64.1782C97.8779 63.8269 97.7379 63.49 97.4886 63.2416C97.2394 62.9932 96.9014 62.8536 96.5489 62.8536Z" fill="white"/>
<path d="M10.4323 9.86851C12.3039 9.86851 13.8211 8.35622 13.8211 6.49071C13.8211 4.62521 12.3039 3.11292 10.4323 3.11292C8.56069 3.11292 7.04346 4.62521 7.04346 6.49071C7.04346 8.35622 8.56069 9.86851 10.4323 9.86851Z" fill="#344563"/>
<path d="M21.5292 9.86851C23.4008 9.86851 24.9181 8.35622 24.9181 6.49071C24.9181 4.62521 23.4008 3.11292 21.5292 3.11292C19.6576 3.11292 18.1404 4.62521 18.1404 6.49071C18.1404 8.35622 19.6576 9.86851 21.5292 9.86851Z" fill="#A5ADBA"/>
<path d="M32.5595 9.86851C34.4311 9.86851 35.9483 8.35622 35.9483 6.49071C35.9483 4.62521 34.4311 3.11292 32.5595 3.11292C30.6879 3.11292 29.1707 4.62521 29.1707 6.49071C29.1707 8.35622 30.6879 9.86851 32.5595 9.86851Z" fill="#0065FF"/>
<defs>
<linearGradient id="paint0_linear" x1="9.83429" y1="132.079" x2="151.708" y2="-10.2654" gradientUnits="userSpaceOnUse">
<stop stop-color="#C1C7D0"/>
<stop offset="1" stop-color="#FAFBFC"/>
</linearGradient>
<linearGradient id="paint1_linear" x1="29.6889" y1="69.8277" x2="124.035" y2="-24.8202" gradientUnits="userSpaceOnUse">
<stop stop-color="#091E42" stop-opacity="0.1"/>
<stop offset="1" stop-color="#091E42"/>
</linearGradient>
<linearGradient id="paint2_linear" x1="3178.93" y1="3813.93" x2="5019.58" y2="3813.93" gradientUnits="userSpaceOnUse">
<stop stop-color="#091E42" stop-opacity="0.1"/>
<stop offset="1" stop-color="#091E42"/>
</linearGradient>
</defs>
</svg>
