<svg width="242" height="172" viewBox="0 0 242 172" fill="none" xmlns="http://www.w3.org/2000/svg">
<g filter="url(#filter0_dd)">
<path d="M12.9473 6.34012C12.9473 5.3674 13.7358 4.57886 14.7085 4.57886H226.061C227.033 4.57886 227.822 5.3674 227.822 6.34013V149.883C227.822 150.856 227.033 151.645 226.061 151.645H14.7085C13.7358 151.645 12.9473 150.856 12.9473 149.883V6.34012Z" fill="white"/>
<path d="M13.1674 6.34012C13.1674 5.48899 13.8574 4.79902 14.7085 4.79902H226.061C226.912 4.79902 227.602 5.48899 227.602 6.34013V149.883C227.602 150.735 226.912 151.425 226.061 151.425H14.7085C13.8574 151.425 13.1674 150.735 13.1674 149.883V6.34012Z" stroke="#C1C7D0" stroke-width="0.440317"/>
</g>
<path d="M31.7363 25.158H81.8416V151.316H33.4976C32.5249 151.316 31.7363 150.527 31.7363 149.555V25.158Z" fill="#F4F5F7"/>
<rect x="44.002" y="32.8892" width="33.8727" height="6.60475" rx="1.76127" fill="#DFE1E6"/>
<rect x="35.752" y="32.8892" width="6.51399" height="6.60475" rx="1.76127" fill="#DFE1E6"/>
<rect x="35.752" y="48.7407" width="42.1238" height="4.84349" rx="2.42174" fill="#DFE1E6"/>
<rect x="35.752" y="57.5468" width="29.9643" height="4.40317" rx="2.20158" fill="#DFE1E6"/>
<rect x="35.752" y="65.9127" width="29.9643" height="4.40317" rx="2.20158" fill="#DFE1E6"/>
<rect x="89.6562" y="31.438" width="17.8871" height="5.2838" rx="2.6419" fill="#EBECF0"/>
<rect x="109.727" y="31.438" width="17.8871" height="5.2838" rx="2.6419" fill="#EBECF0"/>
<rect x="129.795" y="31.438" width="17.8871" height="5.2838" rx="2.6419" fill="#EBECF0"/>
<rect x="90.7891" y="112.842" width="126.158" height="6.26316" rx="1.76127" fill="#F4F5F7"/>
<rect x="90.7891" y="112.842" width="126.158" height="6.26316" rx="1.76127" fill="#F4F5F7"/>
<rect x="90.6895" y="123.277" width="104.388" height="6.42114" rx="1.76127" fill="#F4F5F7"/>
<rect x="90.6895" y="123.277" width="104.388" height="6.42114" rx="1.76127" fill="#F4F5F7"/>
<rect x="90.6895" y="134.013" width="82.9146" height="6.42114" rx="1.76127" fill="#F4F5F7"/>
<rect x="90.6895" y="134.013" width="82.9146" height="6.42114" rx="1.76127" fill="#F4F5F7"/>
<line x1="13.9492" y1="25.6516" x2="226.849" y2="25.6516" stroke="#EBECF0" stroke-width="0.439866"/>
<circle cx="22.0542" cy="15.0904" r="1.76127" fill="#DFE1E6"/>
<circle cx="22.0542" cy="15.0904" r="1.76127" fill="#DFE1E6"/>
<circle cx="27.7769" cy="15.0904" r="1.76127" fill="#DFE1E6"/>
<circle cx="27.7769" cy="15.0904" r="1.76127" fill="#DFE1E6"/>
<circle cx="33.5015" cy="15.0904" r="1.76127" fill="#DFE1E6"/>
<circle cx="33.5015" cy="15.0904" r="1.76127" fill="#DFE1E6"/>
<rect x="52.875" y="9.36621" width="153.23" height="11.4482" rx="3.96285" fill="#F4F5F7"/>
<path d="M59.9184 16.7368H60.3621V15.0908C60.3621 14.6212 60.6356 14.3065 61.1335 14.3065C61.5541 14.3065 61.776 14.5516 61.776 15.0443V16.7368H62.2197V14.936C62.2197 14.2833 61.8482 13.9066 61.26 13.9066C60.8343 13.9066 60.5427 14.0872 60.4034 14.3942H60.3621V12.8514H59.9184V16.7368ZM63.2684 13.2358V13.9556H62.8195V14.3271H63.2684V16.0144C63.2684 16.5459 63.498 16.7575 64.0708 16.7575C64.1585 16.7575 64.2437 16.7471 64.3314 16.7317V16.3576C64.2488 16.3653 64.205 16.3679 64.125 16.3679C63.836 16.3679 63.7122 16.2286 63.7122 15.9009V14.3271H64.3314V13.9556H63.7122V13.2358H63.2684ZM65.2408 13.2358V13.9556H64.7918V14.3271H65.2408V16.0144C65.2408 16.5459 65.4704 16.7575 66.0431 16.7575C66.1309 16.7575 66.216 16.7471 66.3037 16.7317V16.3576C66.2212 16.3653 66.1773 16.3679 66.0973 16.3679C65.8084 16.3679 65.6845 16.2286 65.6845 15.9009V14.3271H66.3037V13.9556H65.6845V13.2358H65.2408ZM68.3818 13.9066C68.0026 13.9066 67.6698 14.1001 67.4917 14.42H67.4505V13.9556H67.0274V17.6656H67.4711V16.3189H67.5124C67.6646 16.613 67.9845 16.7858 68.3818 16.7858C69.0888 16.7858 69.5506 16.2157 69.5506 15.3462C69.5506 14.4716 69.0913 13.9066 68.3818 13.9066ZM68.2761 16.3859C67.7755 16.3859 67.4582 15.9835 67.4582 15.3462C67.4582 14.7064 67.7755 14.3065 68.2786 14.3065C68.7869 14.3065 69.0913 14.6961 69.0913 15.3462C69.0913 15.9964 68.7869 16.3859 68.2761 16.3859ZM70.2355 14.7167C70.2355 15.1192 70.4729 15.3436 70.994 15.47L71.4713 15.5861C71.768 15.6584 71.9125 15.7874 71.9125 15.9783C71.9125 16.2337 71.6442 16.4117 71.2701 16.4117C70.914 16.4117 70.6922 16.2621 70.6173 16.0273H70.1607C70.2097 16.4891 70.6354 16.7858 71.2546 16.7858C71.8867 16.7858 72.3692 16.4427 72.3692 15.9448C72.3692 15.5449 72.1163 15.3178 71.5926 15.1914L71.1643 15.0882C70.8366 15.0082 70.6818 14.8895 70.6818 14.6986C70.6818 14.451 70.9398 14.2833 71.2701 14.2833C71.6055 14.2833 71.8222 14.4303 71.8815 14.6522H72.3201C72.2608 14.1955 71.8557 13.9066 71.2727 13.9066C70.6818 13.9066 70.2355 14.2549 70.2355 14.7167ZM73.4849 14.7657C73.6707 14.7657 73.8203 14.6135 73.8203 14.4303C73.8203 14.2446 73.6707 14.0949 73.4849 14.0949C73.3018 14.0949 73.1495 14.2446 73.1495 14.4303C73.1495 14.6135 73.3018 14.7657 73.4849 14.7657ZM73.4849 16.7626C73.6707 16.7626 73.8203 16.6104 73.8203 16.4272C73.8203 16.2415 73.6707 16.0918 73.4849 16.0918C73.3018 16.0918 73.1495 16.2415 73.1495 16.4272C73.1495 16.6104 73.3018 16.7626 73.4849 16.7626ZM74.7194 17.5289L76.061 12.8514H75.6843L74.3427 17.5289H74.7194ZM76.5318 17.5289L77.8734 12.8514H77.4967L76.1551 17.5289H76.5318ZM78.3648 16.7368H78.8086V15.0134C78.8086 14.6212 79.0898 14.3065 79.4536 14.3065C79.8045 14.3065 80.0341 14.518 80.0341 14.8483V16.7368H80.4778V14.9489C80.4778 14.5954 80.7358 14.3065 81.1228 14.3065C81.515 14.3065 81.7085 14.5077 81.7085 14.9179V16.7368H82.1522V14.8147C82.1522 14.2317 81.8349 13.9066 81.2673 13.9066C80.8829 13.9066 80.5656 14.1001 80.4159 14.3942H80.3746C80.2456 14.1052 79.9825 13.9066 79.6058 13.9066C79.2343 13.9066 78.9556 14.0846 78.8292 14.3942H78.7879V13.9556H78.3648V16.7368ZM83.1494 17.743C83.6421 17.743 83.864 17.5521 84.1014 16.9071L85.1875 13.9556H84.7154L83.9543 16.244H83.913L83.1494 13.9556H82.6695L83.6989 16.7394L83.6473 16.9045C83.5312 17.2399 83.3919 17.3612 83.1365 17.3612C83.0745 17.3612 83.0049 17.3586 82.9507 17.3483V17.7275C83.0126 17.7378 83.09 17.743 83.1494 17.743ZM86.5046 16.7858C86.8761 16.7858 87.1805 16.6233 87.3611 16.3266H87.4024V16.7368H87.8255V14.8328C87.8255 14.2549 87.4463 13.9066 86.7677 13.9066C86.1743 13.9066 85.7357 14.2007 85.6764 14.647H86.1253C86.1872 14.4277 86.4194 14.3013 86.7522 14.3013C87.1676 14.3013 87.3818 14.4897 87.3818 14.8328V15.0856L86.5794 15.1346C85.9318 15.1733 85.5655 15.4597 85.5655 15.9577C85.5655 16.4659 85.9653 16.7858 86.5046 16.7858ZM86.5871 16.3963C86.2646 16.3963 86.0247 16.2311 86.0247 15.9473C86.0247 15.6687 86.2104 15.5216 86.6336 15.4933L87.3818 15.4442V15.6997C87.3818 16.097 87.0438 16.3963 86.5871 16.3963ZM89.7282 16.7858C90.1126 16.7858 90.4429 16.6027 90.6183 16.2931H90.6596V16.7368H91.0827V12.8514H90.6389V14.3942H90.6002C90.4429 14.0898 90.1152 13.9066 89.7282 13.9066C89.0213 13.9066 88.5595 14.4742 88.5595 15.3462C88.5595 16.2208 89.0161 16.7858 89.7282 16.7858ZM89.8314 14.3065C90.3345 14.3065 90.6493 14.709 90.6493 15.3462C90.6493 15.9886 90.3371 16.3859 89.8314 16.3859C89.3231 16.3859 89.0187 15.9964 89.0187 15.3462C89.0187 14.6986 89.3257 14.3065 89.8314 14.3065ZM91.9972 16.7368H92.441V15.0134C92.441 14.6212 92.7222 14.3065 93.086 14.3065C93.4369 14.3065 93.6665 14.518 93.6665 14.8483V16.7368H94.1103V14.9489C94.1103 14.5954 94.3682 14.3065 94.7552 14.3065C95.1474 14.3065 95.3409 14.5077 95.3409 14.9179V16.7368H95.7847V14.8147C95.7847 14.2317 95.4673 13.9066 94.8997 13.9066C94.5153 13.9066 94.198 14.1001 94.0483 14.3942H94.0071C93.8781 14.1052 93.6149 13.9066 93.2382 13.9066C92.8667 13.9066 92.5881 14.0846 92.4616 14.3942H92.4204V13.9556H91.9972V16.7368ZM96.8798 13.419C97.0501 13.419 97.1894 13.2796 97.1894 13.1094C97.1894 12.9391 97.0501 12.7998 96.8798 12.7998C96.7095 12.7998 96.5702 12.9391 96.5702 13.1094C96.5702 13.2796 96.7095 13.419 96.8798 13.419ZM96.6579 16.7368H97.1017V13.9556H96.6579V16.7368ZM98.0008 16.7368H98.4445V15.0908C98.4445 14.6032 98.7309 14.3065 99.1747 14.3065C99.6184 14.3065 99.83 14.5438 99.83 15.0443V16.7368H100.274V14.936C100.274 14.2755 99.9254 13.9066 99.3011 13.9066C98.8754 13.9066 98.6045 14.0872 98.4652 14.3942H98.4239V13.9556H98.0008V16.7368ZM101.506 16.7626C101.691 16.7626 101.841 16.6104 101.841 16.4272C101.841 16.2415 101.691 16.0918 101.506 16.0918C101.322 16.0918 101.17 16.2415 101.17 16.4272C101.17 16.6104 101.322 16.7626 101.506 16.7626ZM103.535 16.7858C103.906 16.7858 104.211 16.6233 104.391 16.3266H104.433V16.7368H104.856V14.8328C104.856 14.2549 104.476 13.9066 103.798 13.9066C103.204 13.9066 102.766 14.2007 102.707 14.647H103.155C103.217 14.4277 103.45 14.3013 103.782 14.3013C104.198 14.3013 104.412 14.4897 104.412 14.8328V15.0856L103.61 15.1346C102.962 15.1733 102.596 15.4597 102.596 15.9577C102.596 16.4659 102.996 16.7858 103.535 16.7858ZM103.617 16.3963C103.295 16.3963 103.055 16.2311 103.055 15.9473C103.055 15.6687 103.241 15.5216 103.664 15.4933L104.412 15.4442V15.6997C104.412 16.097 104.074 16.3963 103.617 16.3963ZM105.915 13.2358V13.9556H105.466V14.3271H105.915V16.0144C105.915 16.5459 106.144 16.7575 106.717 16.7575C106.805 16.7575 106.89 16.7471 106.978 16.7317V16.3576C106.895 16.3653 106.851 16.3679 106.771 16.3679C106.482 16.3679 106.358 16.2286 106.358 15.9009V14.3271H106.978V13.9556H106.358V13.2358H105.915ZM107.727 16.7368H108.171V12.8514H107.727V16.7368ZM109.859 16.7858C110.231 16.7858 110.535 16.6233 110.716 16.3266H110.757V16.7368H111.18V14.8328C111.18 14.2549 110.801 13.9066 110.123 13.9066C109.529 13.9066 109.091 14.2007 109.031 14.647H109.48C109.542 14.4277 109.774 14.3013 110.107 14.3013C110.522 14.3013 110.737 14.4897 110.737 14.8328V15.0856L109.934 15.1346C109.287 15.1733 108.92 15.4597 108.92 15.9577C108.92 16.4659 109.32 16.7858 109.859 16.7858ZM109.942 16.3963C109.619 16.3963 109.38 16.2311 109.38 15.9473C109.38 15.6687 109.565 15.5216 109.988 15.4933L110.737 15.4442V15.6997C110.737 16.097 110.399 16.3963 109.942 16.3963ZM111.989 14.7167C111.989 15.1192 112.226 15.3436 112.748 15.47L113.225 15.5861C113.522 15.6584 113.666 15.7874 113.666 15.9783C113.666 16.2337 113.398 16.4117 113.024 16.4117C112.668 16.4117 112.446 16.2621 112.371 16.0273H111.914C111.963 16.4891 112.389 16.7858 113.008 16.7858C113.64 16.7858 114.123 16.4427 114.123 15.9448C114.123 15.5449 113.87 15.3178 113.346 15.1914L112.918 15.0882C112.59 15.0082 112.435 14.8895 112.435 14.6986C112.435 14.451 112.693 14.2833 113.024 14.2833C113.359 14.2833 113.576 14.4303 113.635 14.6522H114.074C114.014 14.1955 113.609 13.9066 113.026 13.9066C112.435 13.9066 111.989 14.2549 111.989 14.7167ZM114.756 14.7167C114.756 15.1192 114.993 15.3436 115.515 15.47L115.992 15.5861C116.289 15.6584 116.433 15.7874 116.433 15.9783C116.433 16.2337 116.165 16.4117 115.791 16.4117C115.435 16.4117 115.213 16.2621 115.138 16.0273H114.681C114.73 16.4891 115.156 16.7858 115.775 16.7858C116.407 16.7858 116.89 16.4427 116.89 15.9448C116.89 15.5449 116.637 15.3178 116.113 15.1914L115.685 15.0882C115.357 15.0082 115.202 14.8895 115.202 14.6986C115.202 14.451 115.46 14.2833 115.791 14.2833C116.126 14.2833 116.343 14.4303 116.402 14.6522H116.841C116.781 14.1955 116.376 13.9066 115.793 13.9066C115.202 13.9066 114.756 14.2549 114.756 14.7167ZM117.871 13.419C118.042 13.419 118.181 13.2796 118.181 13.1094C118.181 12.9391 118.042 12.7998 117.871 12.7998C117.701 12.7998 117.562 12.9391 117.562 13.1094C117.562 13.2796 117.701 13.419 117.871 13.419ZM117.649 16.7368H118.093V13.9556H117.649V16.7368ZM119.766 16.7858C120.138 16.7858 120.442 16.6233 120.623 16.3266H120.664V16.7368H121.087V14.8328C121.087 14.2549 120.708 13.9066 120.029 13.9066C119.436 13.9066 118.997 14.2007 118.938 14.647H119.387C119.449 14.4277 119.681 14.3013 120.014 14.3013C120.429 14.3013 120.644 14.4897 120.644 14.8328V15.0856L119.841 15.1346C119.194 15.1733 118.827 15.4597 118.827 15.9577C118.827 16.4659 119.227 16.7858 119.766 16.7858ZM119.849 16.3963C119.526 16.3963 119.286 16.2311 119.286 15.9473C119.286 15.6687 119.472 15.5216 119.895 15.4933L120.644 15.4442V15.6997C120.644 16.097 120.306 16.3963 119.849 16.3963ZM121.961 16.7368H122.404V15.0908C122.404 14.6032 122.691 14.3065 123.134 14.3065C123.578 14.3065 123.79 14.5438 123.79 15.0443V16.7368H124.234V14.936C124.234 14.2755 123.885 13.9066 123.261 13.9066C122.835 13.9066 122.564 14.0872 122.425 14.3942H122.384V13.9556H121.961V16.7368ZM125.465 16.7626C125.651 16.7626 125.801 16.6104 125.801 16.4272C125.801 16.2415 125.651 16.0918 125.465 16.0918C125.282 16.0918 125.13 16.2415 125.13 16.4272C125.13 16.6104 125.282 16.7626 125.465 16.7626ZM126.721 16.7368H127.164V15.0908C127.164 14.6032 127.451 14.3065 127.894 14.3065C128.338 14.3065 128.55 14.5438 128.55 15.0443V16.7368H128.993V14.936C128.993 14.2755 128.645 13.9066 128.021 13.9066C127.595 13.9066 127.324 14.0872 127.185 14.3942H127.144V13.9556H126.721V16.7368ZM131.701 16.017C131.585 16.2621 131.342 16.3937 130.984 16.3937C130.512 16.3937 130.205 16.0454 130.181 15.4958V15.4752H132.181V15.3049C132.181 14.4406 131.724 13.9066 130.974 13.9066C130.21 13.9066 129.72 14.4742 129.72 15.3488C129.72 16.2286 130.202 16.7858 130.974 16.7858C131.582 16.7858 132.016 16.4917 132.145 16.017H131.701ZM130.968 14.2987C131.41 14.2987 131.704 14.6238 131.714 15.1166H130.181C130.215 14.6238 130.525 14.2987 130.968 14.2987ZM133.116 13.2358V13.9556H132.667V14.3271H133.116V16.0144C133.116 16.5459 133.346 16.7575 133.919 16.7575C134.006 16.7575 134.091 16.7471 134.179 16.7317V16.3576C134.097 16.3653 134.053 16.3679 133.973 16.3679C133.684 16.3679 133.56 16.2286 133.56 15.9009V14.3271H134.179V13.9556H133.56V13.2358H133.116Z" fill="#97A0AF"/>
<path d="M12.9473 25.158H32.6315V151.316H15.6315C14.149 151.316 12.9473 150.114 12.9473 148.632V25.158Z" fill="#253858"/>
<path d="M21.3081 33.9219C21.2716 33.8741 21.2234 33.8366 21.1681 33.8129C21.1129 33.7892 21.0524 33.7802 20.9927 33.7867C20.9329 33.7933 20.8758 33.8151 20.827 33.8502C20.7781 33.8853 20.7392 33.9324 20.7139 33.9869L17.7004 40.014C17.6728 40.0689 17.6598 40.1299 17.6624 40.1912C17.6651 40.2525 17.6834 40.3121 17.7156 40.3644C17.7478 40.4167 17.7928 40.4599 17.8463 40.4898C17.8999 40.5198 17.9602 40.5356 18.0216 40.5358H22.2179C22.2858 40.5371 22.3526 40.5184 22.4101 40.4821C22.4675 40.4458 22.513 40.3934 22.541 40.3315C23.4452 38.4747 22.8975 35.6209 21.3081 33.9219Z" fill="url(#paint0_linear)"/>
<path d="M23.5206 28.4482C22.7694 29.6039 22.3316 30.9351 22.2502 32.3111C22.1688 33.6871 22.4466 35.0606 23.0564 36.2968L25.0896 40.3316C25.1192 40.3915 25.165 40.442 25.2217 40.4775C25.2785 40.5129 25.3439 40.5318 25.4108 40.5321H29.6071C29.6659 40.5273 29.7228 40.5085 29.7729 40.4773C29.823 40.4461 29.8649 40.4034 29.8952 40.3527C29.9255 40.3021 29.9434 40.245 29.9472 40.1861C29.951 40.1272 29.9407 40.0682 29.9172 40.0141L24.1334 28.4482C24.1057 28.3905 24.0622 28.3417 24.008 28.3076C23.9538 28.2735 23.891 28.2554 23.827 28.2554C23.7629 28.2554 23.7002 28.2735 23.646 28.3076C23.5918 28.3417 23.5483 28.3905 23.5206 28.4482Z" fill="white"/>
<g filter="url(#filter1_dd)">
<rect x="90.7891" y="43.9474" width="116.316" height="61.7368" rx="0.894737" fill="white"/>
</g>
<path d="M97.0527 52.8948H202.184" stroke="#F4F5F7" stroke-width="0.894737"/>
<path d="M96.6055 61.8422H201.737" stroke="#F4F5F7" stroke-width="0.894737"/>
<path d="M96.6055 70.7894H201.737" stroke="#F4F5F7" stroke-width="0.894737"/>
<path d="M96.6055 79.7368H201.737" stroke="#F4F5F7" stroke-width="0.894737"/>
<path d="M96.6055 88.6842H201.737" stroke="#F4F5F7" stroke-width="0.894737"/>
<path d="M96.6055 97.6316H201.737" stroke="#F4F5F7" stroke-width="0.894737"/>
<path d="M97.0527 98.079L110.474 80.1842L119.421 89.1316L129.711 71.2369L137.316 79.2895L147.605 52.8948L156.105 62.2895L163.263 52.8948L170.421 71.2369L178.921 62.2895L185.632 79.2895L200.842 53.7895" stroke="#36B37E" stroke-width="1.78947" stroke-linecap="round" stroke-linejoin="round"/>
<defs>
<filter id="filter0_dd" x="0.947266" y="0.578857" width="238.875" height="171.066" filterUnits="userSpaceOnUse" color-interpolation-filters="sRGB">
<feFlood flood-opacity="0" result="BackgroundImageFix"/>
<feColorMatrix in="SourceAlpha" type="matrix" values="0 0 0 0 0 0 0 0 0 0 0 0 0 0 0 0 0 0 127 0"/>
<feOffset/>
<feGaussianBlur stdDeviation="0.5"/>
<feColorMatrix type="matrix" values="0 0 0 0 0.0352941 0 0 0 0 0.117647 0 0 0 0 0.258824 0 0 0 0.31 0"/>
<feBlend mode="normal" in2="BackgroundImageFix" result="effect1_dropShadow"/>
<feColorMatrix in="SourceAlpha" type="matrix" values="0 0 0 0 0 0 0 0 0 0 0 0 0 0 0 0 0 0 127 0"/>
<feOffset dy="8"/>
<feGaussianBlur stdDeviation="6"/>
<feColorMatrix type="matrix" values="0 0 0 0 0.0352941 0 0 0 0 0.117647 0 0 0 0 0.258824 0 0 0 0.15 0"/>
<feBlend mode="normal" in2="effect1_dropShadow" result="effect2_dropShadow"/>
<feBlend mode="normal" in="SourceGraphic" in2="effect2_dropShadow" result="shape"/>
</filter>
<filter id="filter1_dd" x="89.7891" y="42.9474" width="118.316" height="64.7368" filterUnits="userSpaceOnUse" color-interpolation-filters="sRGB">
<feFlood flood-opacity="0" result="BackgroundImageFix"/>
<feColorMatrix in="SourceAlpha" type="matrix" values="0 0 0 0 0 0 0 0 0 0 0 0 0 0 0 0 0 0 127 0"/>
<feOffset/>
<feGaussianBlur stdDeviation="0.5"/>
<feColorMatrix type="matrix" values="0 0 0 0 0.0352941 0 0 0 0 0.117647 0 0 0 0 0.258824 0 0 0 0.31 0"/>
<feBlend mode="normal" in2="BackgroundImageFix" result="effect1_dropShadow"/>
<feColorMatrix in="SourceAlpha" type="matrix" values="0 0 0 0 0 0 0 0 0 0 0 0 0 0 0 0 0 0 127 0"/>
<feOffset dy="1"/>
<feGaussianBlur stdDeviation="0.5"/>
<feColorMatrix type="matrix" values="0 0 0 0 0.0352941 0 0 0 0 0.117647 0 0 0 0 0.258824 0 0 0 0.25 0"/>
<feBlend mode="normal" in2="effect1_dropShadow" result="effect2_dropShadow"/>
<feBlend mode="normal" in="SourceGraphic" in2="effect2_dropShadow" result="shape"/>
</filter>
<linearGradient id="paint0_linear" x1="22.9695" y1="34.8523" x2="19.7871" y2="40.3679" gradientUnits="userSpaceOnUse">
<stop stop-color="white" stop-opacity="0.4"/>
<stop offset="0.92" stop-color="white"/>
</linearGradient>
</defs>
</svg>
