<svg width="169" height="170" viewBox="0 0 169 170" fill="none" xmlns="http://www.w3.org/2000/svg">
<g filter="url(#filter0_dd)">
<circle cx="44" cy="43" r="30" fill="white"/>
</g>
<path d="M44.0493 52.7626C42.6497 52.728 41.4951 52.1052 40.7578 50.805C40.0021 49.461 40.035 48.0851 40.8407 46.7743C42.759 43.6546 44.7023 40.5522 46.6338 37.4419C47.0288 36.8057 47.4145 36.1603 47.8279 35.5361C48.3767 34.6823 49.2343 34.0784 50.2179 33.8529C51.2016 33.6275 52.2336 33.7982 53.0943 34.3289C54.9126 35.4591 55.5208 37.8098 54.3886 39.6624C52.074 43.4651 49.7265 47.2493 47.3461 51.0148C46.6127 52.1795 45.5002 52.7413 44.0493 52.7626Z" fill="#FFCB00"/>
<path d="M32.0273 52.7623C30.6145 52.7278 29.4665 52.077 28.7436 50.7821C27.9985 49.4381 28.0458 48.0596 28.8542 46.7488C30.9178 43.4091 32.9906 40.0743 35.0726 36.7444C35.3359 36.3141 35.5992 35.8732 35.8809 35.4561C36.4523 34.6209 37.3234 34.0428 38.3099 33.8441C39.2965 33.6455 40.3209 33.8419 41.1663 34.3918C42.0118 34.9417 42.6119 35.802 42.8396 36.7904C43.0673 37.7788 42.9047 38.8178 42.3863 39.6874C40.0796 43.4445 37.7413 47.1884 35.4017 50.9282C34.642 52.1408 33.5242 52.7411 32.0273 52.7623Z" fill="#FF3D57"/>
<path d="M56.1473 45.1466C58.2762 45.1572 59.9997 46.8638 59.9957 48.9568C59.9957 51.0817 58.2262 52.795 56.0775 52.7684C53.9288 52.7418 52.2357 51.0539 52.2383 48.9515C52.2409 46.8186 53.9709 45.1333 56.1473 45.1466Z" fill="#00D647"/>
<g filter="url(#filter1_dd)">
<circle cx="35" cy="89" r="30" fill="white"/>
</g>
<path d="M35 73C26.1598 73 19 80.2687 19 89.2433C19 96.877 24.1595 103.213 31.1205 104.999C31.0402 104.795 31.0007 104.511 31.0007 104.227V101.465H29.0003C27.9205 101.465 26.9197 100.979 26.4798 100.084C25.9597 99.1096 25.8793 97.6069 24.5598 96.6724C24.1595 96.3475 24.4795 96.0226 24.9193 96.0627C25.7595 96.306 26.439 96.8756 27.079 97.7271C27.719 98.5801 27.9995 98.7833 29.1991 98.7833C29.7588 98.7833 30.6385 98.7432 31.4391 98.6202C31.879 97.4825 32.6388 96.4678 33.5593 95.9812C28.1997 95.3314 25.6397 92.6509 25.6397 88.9959C25.6397 87.4116 26.3191 85.9089 27.4398 84.6095C27.0803 83.3501 26.5997 80.7512 27.6005 79.7365C30.0012 79.7365 31.4405 81.3207 31.8 81.7258C32.9997 81.3193 34.3205 81.076 35.6795 81.076C37.0793 81.076 38.3593 81.3193 39.559 81.7258C39.9185 81.3193 41.3591 79.7365 43.7585 79.7365C44.7185 80.7111 44.2786 83.3501 43.8783 84.6095C44.999 85.8688 45.639 87.4116 45.639 88.9959C45.639 92.6509 43.1185 95.3314 37.7997 95.8996C39.2798 96.671 40.3202 98.8635 40.3202 100.488V104.187C40.3202 104.309 40.2807 104.43 40.2807 104.552C46.52 102.36 51 96.3503 51 89.2433C51 80.2687 43.8402 73 35 73Z" fill="black"/>
<g filter="url(#filter2_dd)">
<circle cx="134" cy="62" r="30" fill="white"/>
</g>
<path d="M134.375 57.0006C136.83 57.0006 138.82 55.0417 138.82 52.6253C138.82 50.2089 136.83 48.25 134.375 48.25C131.92 48.25 129.93 50.2089 129.93 52.6253C129.93 55.0417 131.92 57.0006 134.375 57.0006Z" fill="#7B83EB"/>
<path opacity="0.1" d="M134.057 53.5625H130.031L130.051 53.6497L130.053 53.6572L130.074 53.7378C130.367 54.8297 131.076 55.7682 132.055 56.3573C133.034 56.9463 134.206 57.1404 135.327 56.8991V54.8122C135.326 54.4811 135.192 54.1638 134.954 53.9296C134.716 53.6955 134.394 53.5635 134.057 53.5625Z" fill="black"/>
<path opacity="0.2" d="M133.104 54.5H130.357C130.718 55.2481 131.287 55.8802 131.998 56.3228C132.709 56.7654 133.533 57.0004 134.374 57.0003V55.7497C134.373 55.4186 134.239 55.1013 134.001 54.8671C133.763 54.633 133.441 54.501 133.104 54.5Z" fill="black"/>
<path d="M144.375 57.3125C146.216 57.3125 147.708 55.8434 147.708 54.0312C147.708 52.2191 146.216 50.75 144.375 50.75C142.534 50.75 141.041 52.2191 141.041 54.0312C141.041 55.8434 142.534 57.3125 144.375 57.3125Z" fill="#5059C9"/>
<path d="M147.233 58.25H139.745C139.584 58.25 139.428 58.3132 139.314 58.4257C139.2 58.5383 139.136 58.6909 139.136 58.85V66.4531C139.115 67.5535 139.479 68.6275 140.167 69.4951C140.855 70.3628 141.825 70.9716 142.914 71.2194C143.608 71.3627 144.326 71.3519 145.015 71.1877C145.704 71.0236 146.347 70.7103 146.897 70.2706C147.448 69.8309 147.892 69.2759 148.197 68.646C148.502 68.0161 148.661 67.3272 148.661 66.6294V59.6562C148.661 59.2833 148.511 58.9256 148.243 58.6619C147.975 58.3982 147.612 58.25 147.233 58.25Z" fill="#5059C9"/>
<path d="M141.994 59.6562V68.5625C141.994 70.213 141.442 71.8177 140.421 73.1274C139.401 74.4372 137.97 75.3789 136.35 75.8063C134.731 76.2337 133.013 76.1229 131.464 75.4912C129.915 74.8595 128.621 73.7421 127.783 72.3125C127.599 72.0127 127.44 71.6992 127.306 71.375C127.182 71.0693 127.077 70.7562 126.992 70.4375C126.835 69.8244 126.755 69.1947 126.754 68.5625V59.6562C126.754 59.4715 126.79 59.2885 126.862 59.1178C126.934 58.9471 127.039 58.792 127.172 58.6613C127.305 58.5307 127.462 58.4271 127.636 58.3565C127.809 58.286 127.995 58.2498 128.183 58.25H140.565C140.752 58.2498 140.938 58.286 141.112 58.3565C141.285 58.4271 141.443 58.5307 141.576 58.6613C141.708 58.792 141.814 58.9471 141.885 59.1178C141.957 59.2885 141.994 59.4715 141.994 59.6562Z" fill="#7B83EB"/>
<path opacity="0.2" d="M133.104 54.5H130.357C130.718 55.2481 131.287 55.8802 131.998 56.3228C132.709 56.7654 133.533 57.0004 134.374 57.0003V55.7497C134.373 55.4186 134.239 55.1013 134.001 54.8671C133.763 54.633 133.441 54.501 133.104 54.5Z" fill="black"/>
<path opacity="0.1" d="M135.326 58.25V70.1281C135.326 70.4107 135.228 70.6848 135.048 70.9049C134.867 71.1249 134.616 71.2776 134.336 71.3375C134.246 71.3637 134.153 71.3764 134.059 71.375H127.306C127.182 71.0693 127.077 70.7562 126.992 70.4375C126.835 69.8244 126.755 69.1947 126.754 68.5625V59.6563C126.754 59.4715 126.79 59.2885 126.862 59.1178C126.934 58.9471 127.039 58.792 127.172 58.6613C127.305 58.5307 127.462 58.4271 127.636 58.3565C127.809 58.286 127.995 58.2498 128.183 58.25H135.326Z" fill="black"/>
<path opacity="0.2" d="M134.374 58.25V71.0656C134.375 71.1576 134.362 71.2493 134.336 71.3375C134.275 71.6137 134.12 71.861 133.896 72.0384C133.673 72.2158 133.394 72.3125 133.107 72.3125H127.783C127.599 72.0126 127.44 71.6992 127.306 71.375C127.182 71.0693 127.077 70.7562 126.992 70.4375C126.835 69.8244 126.755 69.1947 126.754 68.5625V59.6562C126.754 59.4715 126.79 59.2885 126.862 59.1178C126.934 58.9471 127.039 58.792 127.172 58.6613C127.305 58.5307 127.462 58.4271 127.636 58.3565C127.809 58.286 127.995 58.2498 128.183 58.25H134.374Z" fill="black"/>
<path opacity="0.2" d="M134.374 58.25V69.1906C134.372 69.5209 134.238 69.8372 134.001 70.0707C133.764 70.3042 133.442 70.436 133.107 70.4375H126.992C126.835 69.8245 126.755 69.1947 126.754 68.5625V59.6563C126.754 59.4715 126.79 59.2885 126.862 59.1178C126.934 58.9471 127.039 58.792 127.172 58.6613C127.305 58.5307 127.462 58.4271 127.636 58.3565C127.809 58.286 127.995 58.2498 128.183 58.25H134.374Z" fill="black"/>
<path opacity="0.2" d="M128.183 58.25C127.995 58.2498 127.809 58.286 127.636 58.3565C127.462 58.4271 127.305 58.5307 127.172 58.6613C127.039 58.792 126.934 58.9471 126.862 59.1178C126.79 59.2885 126.754 59.4715 126.754 59.6563V68.5625C126.755 69.1947 126.835 69.8245 126.992 70.4375H132.154C132.49 70.436 132.811 70.3042 133.049 70.0707C133.286 69.8372 133.42 69.5209 133.421 69.1906V58.25H128.183Z" fill="black"/>
<path d="M119.451 54.5H132.152C132.488 54.5 132.811 54.6317 133.049 54.866C133.287 55.1004 133.421 55.4182 133.421 55.7497V68.2503C133.421 68.5817 133.287 68.8996 133.049 69.134C132.811 69.3683 132.488 69.5 132.152 69.5H119.451C119.115 69.5 118.792 69.3683 118.554 69.134C118.315 68.8996 118.182 68.5817 118.182 68.2503V55.7497C118.182 55.4182 118.315 55.1004 118.554 54.866C118.792 54.6317 119.115 54.5 119.451 54.5Z" fill="#4B53BC"/>
<path d="M129.593 59.1643H126.746V66.683H124.877V59.1643H122.012V57.3174H129.593V59.1643Z" fill="white"/>
<g filter="url(#filter3_dd)">
<circle cx="62" cy="124" r="30" fill="white"/>
</g>
<g clip-path="url(#clip0)">
<path fill-rule="evenodd" clip-rule="evenodd" d="M52.7532 128.229C52.7532 130.091 51.2508 131.593 49.3893 131.593C47.5278 131.593 46.0254 130.086 46.0254 128.229C46.0254 126.373 47.5278 124.865 49.3893 124.865H52.7532V128.229ZM54.4326 128.229C54.4326 126.368 55.935 124.865 57.7965 124.865C59.658 124.865 61.1604 126.368 61.1604 128.229V136.636C61.1604 138.498 59.658 140 57.7965 140C55.935 140 54.4326 138.498 54.4326 136.636V128.229Z" fill="#E01E5A"/>
<path fill-rule="evenodd" clip-rule="evenodd" d="M57.7964 114.728C55.9349 114.728 54.4325 113.225 54.4325 111.364C54.4325 109.502 55.9349 108 57.7964 108C59.6579 108 61.1603 109.502 61.1603 111.364V114.728H57.7964ZM57.7964 116.433C59.6579 116.433 61.1603 117.935 61.1603 119.796C61.1603 121.658 59.6579 123.16 57.7964 123.16H49.3639C47.5024 123.16 46 121.653 46 119.796C46 117.94 47.5024 116.433 49.3639 116.433H57.7964Z" fill="#36C5F0"/>
<path fill-rule="evenodd" clip-rule="evenodd" d="M71.2724 119.796C71.2724 117.935 72.7748 116.433 74.6363 116.433C76.4978 116.433 78.0002 117.935 78.0002 119.796C78.0002 121.658 76.4978 123.16 74.6363 123.16H71.2724V119.796ZM69.593 119.796C69.593 121.658 68.0906 123.16 66.2291 123.16C64.3676 123.16 62.8652 121.658 62.8652 119.796V111.364C62.8652 109.502 64.3676 108 66.2291 108C68.0906 108 69.593 109.502 69.593 111.364V119.796Z" fill="#2EB67D"/>
<path fill-rule="evenodd" clip-rule="evenodd" d="M66.2291 133.272C68.0906 133.272 69.593 134.775 69.593 136.636C69.593 138.498 68.0906 140 66.2291 140C64.3676 140 62.8652 138.498 62.8652 136.636V133.272H66.2291ZM66.2291 131.593C64.3676 131.593 62.8652 130.091 62.8652 128.229C62.8652 126.368 64.3676 124.865 66.2291 124.865H74.6616C76.5231 124.865 78.0255 126.368 78.0255 128.229C78.0255 130.091 76.5231 131.593 74.6616 131.593H66.2291Z" fill="#ECB22E"/>
</g>
<g filter="url(#filter4_dd)">
<circle cx="103" cy="132" r="30" fill="white"/>
</g>
<g clip-path="url(#clip1)">
<path d="M116.374 120.003C117.816 120.003 118.996 121.226 118.996 122.72V123.508L115.354 126.204L102.954 135.057L90.5548 126.114V143.999H89.6215C88.1797 143.999 87 142.777 87 141.282V122.721C87 121.226 88.1797 120.004 89.6215 120.004L102.954 130.249L116.374 120.004L116.374 120.003Z" fill="#E75A4D"/>
<path d="M89.6211 120.002L102.954 130.248L116.374 120.002H89.6211Z" fill="url(#paint0_linear)"/>
<path d="M90.5547 126.113V143.998H115.354V126.203L102.954 135.056L90.5547 126.113Z" fill="#E7E4D7"/>
<path d="M90.5547 143.998L102.954 135.056L102.898 135.015L90.5547 143.801V143.998Z" fill="#B8B7AE"/>
<path d="M115.353 126.203L115.36 143.998L102.953 135.056L115.353 126.203Z" fill="#B7B6AD"/>
<path d="M118.997 123.507L119.001 141.283C118.939 143.259 118.113 143.964 115.363 143.997L115.355 126.202L118.998 123.506L118.997 123.507Z" fill="#B2392F"/>
<path d="M89.6211 120.002L102.954 130.248L116.374 120.002H89.6211Z" fill="url(#paint1_linear)"/>
<path d="M89.6211 120.002L102.954 130.248L116.374 120.002H89.6211Z" fill="url(#paint2_linear)"/>
<path d="M89.6211 120.002L102.954 130.248L116.374 120.002H89.6211Z" fill="url(#paint3_linear)"/>
<path d="M89.6211 120.002L102.954 130.248L116.374 120.002H89.6211Z" fill="url(#paint4_linear)"/>
<path d="M89.6211 120.002L102.954 130.248L116.374 120.002H89.6211Z" fill="url(#paint5_linear)"/>
<path d="M89.6211 120.002L102.954 130.248L116.374 120.002H89.6211Z" fill="url(#paint6_linear)"/>
<path d="M89.6211 120.002L102.954 130.248L116.374 120.002H89.6211Z" fill="url(#paint7_linear)"/>
<path d="M89.6211 120.002L102.954 130.248L116.374 120.002H89.6211Z" fill="#F7F5ED"/>
</g>
<g filter="url(#filter5_dd)">
<circle cx="133" cy="98" r="30" fill="white"/>
</g>
<path d="M143.739 84.875H127.771C127.425 84.875 127.093 85.0137 126.849 85.2605C126.604 85.5074 126.467 85.8422 126.467 86.1913V87.6875L135.467 90.5L145.044 87.6875V86.1913C145.044 85.8422 144.906 85.5074 144.662 85.2605C144.417 85.0137 144.085 84.875 143.739 84.875Z" fill="#0364B8"/>
<path d="M146.576 99.3167C146.712 98.8851 146.821 98.4451 146.901 97.9995C146.901 97.89 146.873 97.7825 146.818 97.6877C146.764 97.5929 146.686 97.5142 146.592 97.4595L146.58 97.452L146.576 97.4501L136.51 91.662C136.466 91.6335 136.421 91.6076 136.375 91.5842C136.182 91.4877 135.97 91.4375 135.755 91.4375C135.54 91.4375 135.328 91.4877 135.136 91.5842C135.09 91.6072 135.045 91.6329 135.001 91.6611L124.934 97.4511L124.931 97.4529L124.92 97.4595C124.825 97.5141 124.747 97.5928 124.693 97.6876C124.638 97.7823 124.61 97.8899 124.609 97.9995C124.69 98.4451 124.798 98.8851 124.934 99.3167L135.609 107.196L146.576 99.3167Z" fill="#0A2767"/>
<path d="M139.469 87.6875H132.967L131.09 90.5L132.967 93.3125L139.469 98.9375H145.042V93.3125L139.469 87.6875Z" fill="#28A8EA"/>
<path d="M126.467 87.6875H132.969V93.3125H126.467V87.6875Z" fill="#0078D4"/>
<path d="M139.471 87.6875H145.044V93.3125H139.471V87.6875Z" fill="#50D9FF"/>
<path d="M139.471 98.9375L132.969 93.3125H126.467V98.9375L132.969 104.562L143.03 106.22L139.471 98.9375Z" fill="#0364B8"/>
<path d="M132.969 93.3125H139.471V98.9375H132.969V93.3125Z" fill="#0078D4"/>
<path d="M126.467 98.9375H132.969V104.562H126.467V98.9375Z" fill="#064A8C"/>
<path d="M139.471 98.9375H145.044V104.562H139.471V98.9375Z" fill="#0078D4"/>
<path opacity="0.5" d="M135.93 106.642L124.977 98.5791L125.436 97.7635C125.436 97.7635 135.417 103.501 135.569 103.587C135.631 103.612 135.698 103.624 135.765 103.622C135.832 103.621 135.898 103.605 135.959 103.576L146.114 97.7354L146.575 98.55L135.93 106.642Z" fill="#0A2767"/>
<path d="M146.591 98.5409L146.578 98.5484L146.575 98.5503L136.508 104.338C136.309 104.469 136.079 104.545 135.841 104.56C135.604 104.575 135.367 104.528 135.152 104.424L138.658 109.168L146.324 110.853V110.857C146.503 110.727 146.648 110.556 146.748 110.358C146.848 110.16 146.9 109.941 146.9 109.719V98C146.9 98.1096 146.872 98.2173 146.817 98.3123C146.763 98.4073 146.685 98.4861 146.591 98.5409Z" fill="#1490DF"/>
<path opacity="0.05" d="M146.9 109.719V109.027L137.628 103.694L136.508 104.338C136.309 104.469 136.079 104.545 135.841 104.56C135.604 104.575 135.367 104.528 135.152 104.424L138.658 109.168L146.324 110.853V110.857C146.503 110.727 146.648 110.556 146.748 110.358C146.848 110.16 146.9 109.941 146.9 109.719Z" fill="black"/>
<path opacity="0.1" d="M146.854 110.078L136.69 104.234L136.508 104.338C136.309 104.468 136.079 104.544 135.842 104.559C135.604 104.574 135.367 104.528 135.152 104.424L138.658 109.168L146.324 110.853V110.857C146.584 110.667 146.771 110.392 146.854 110.079V110.078Z" fill="black"/>
<path d="M124.934 98.5531V98.5437H124.925L124.897 98.525C124.809 98.47 124.735 98.3927 124.685 98.3008C124.634 98.2088 124.608 98.1051 124.609 98V109.719C124.609 109.903 124.645 110.086 124.715 110.257C124.785 110.428 124.888 110.583 125.017 110.714C125.146 110.844 125.3 110.948 125.469 111.018C125.638 111.089 125.82 111.125 126.003 111.125H145.508C145.624 111.124 145.74 111.108 145.852 111.078C145.91 111.068 145.966 111.049 146.019 111.022C146.039 111.02 146.058 111.013 146.075 111.003C146.151 110.972 146.223 110.931 146.288 110.881C146.307 110.872 146.316 110.872 146.326 110.853L124.934 98.5531Z" fill="#28A8EA"/>
<path opacity="0.1" d="M133.898 106.125V90.8122C133.897 90.4811 133.766 90.1638 133.534 89.9296C133.302 89.6955 132.988 89.5635 132.66 89.5625H126.495V96.5525L124.934 97.4506L124.93 97.4525L124.919 97.4591C124.825 97.5139 124.746 97.5927 124.692 97.6877C124.638 97.7826 124.609 97.8904 124.609 98V98.0047V98V107.375H132.66C132.988 107.374 133.302 107.242 133.534 107.008C133.766 106.774 133.897 106.456 133.898 106.125Z" fill="black"/>
<path opacity="0.2" d="M132.969 107.063V91.7497C132.968 91.4186 132.837 91.1013 132.605 90.8671C132.373 90.633 132.059 90.501 131.731 90.5H126.495V96.5525L124.934 97.4506L124.93 97.4525L124.919 97.4591C124.825 97.5139 124.746 97.5927 124.692 97.6877C124.638 97.7826 124.609 97.8904 124.609 98V98.0047V98V108.312H131.731C132.059 108.312 132.373 108.18 132.605 107.945C132.837 107.711 132.968 107.394 132.969 107.063Z" fill="black"/>
<path opacity="0.2" d="M132.969 105.188V91.7497C132.968 91.4186 132.837 91.1013 132.605 90.8671C132.373 90.633 132.059 90.501 131.731 90.5H126.495V96.5525L124.934 97.4506L124.93 97.4525L124.919 97.4591C124.825 97.5139 124.746 97.5927 124.692 97.6877C124.638 97.7826 124.609 97.8904 124.609 98V98.0047V98V106.438H131.731C132.059 106.437 132.373 106.305 132.605 106.07C132.837 105.836 132.968 105.519 132.969 105.188Z" fill="black"/>
<path opacity="0.2" d="M132.04 105.188V91.7497C132.039 91.4186 131.908 91.1013 131.676 90.8671C131.444 90.633 131.13 90.501 130.802 90.5H126.495V96.5525L124.934 97.4506L124.93 97.4525L124.919 97.4591C124.825 97.5139 124.746 97.5927 124.692 97.6877C124.638 97.7826 124.609 97.8904 124.609 98V98.0047V98V106.438H130.802C131.13 106.437 131.444 106.305 131.676 106.07C131.908 105.836 132.039 105.519 132.04 105.188Z" fill="black"/>
<path d="M118.416 90.5H130.801C131.129 90.5 131.444 90.6317 131.676 90.866C131.909 91.1004 132.039 91.4182 132.039 91.7497V104.25C132.039 104.582 131.909 104.9 131.676 105.134C131.444 105.368 131.129 105.5 130.801 105.5H118.416C118.087 105.5 117.773 105.368 117.54 105.134C117.308 104.9 117.178 104.582 117.178 104.25V91.7497C117.178 91.4182 117.308 91.1004 117.54 90.866C117.773 90.6317 118.087 90.5 118.416 90.5Z" fill="#0078D4"/>
<path d="M120.768 95.6262C121.097 94.9185 121.628 94.3263 122.293 93.9256C123.03 93.4999 123.869 93.2877 124.718 93.3125C125.503 93.2953 126.279 93.4964 126.959 93.8937C127.599 94.2787 128.115 94.8431 128.443 95.5184C128.801 96.2628 128.979 97.0819 128.963 97.909C128.981 98.773 128.797 99.629 128.428 100.408C128.092 101.108 127.561 101.692 126.9 102.09C126.193 102.5 125.388 102.707 124.573 102.687C123.77 102.707 122.977 102.503 122.28 102.1C121.635 101.714 121.113 101.149 120.778 100.472C120.417 99.7388 120.237 98.929 120.251 98.1106C120.235 97.2537 120.412 96.4043 120.768 95.6262ZM122.394 99.6181C122.569 100.065 122.866 100.454 123.251 100.737C123.643 101.014 124.113 101.157 124.591 101.145C125.101 101.165 125.603 101.018 126.023 100.724C126.403 100.441 126.693 100.05 126.856 99.6022C127.039 99.1027 127.129 98.5736 127.122 98.0412C127.127 97.5038 127.042 96.9694 126.871 96.4606C126.719 96.0029 126.44 95.5992 126.066 95.2981C125.658 94.9902 125.157 94.8336 124.648 94.8547C124.159 94.8422 123.679 94.9863 123.276 95.2662C122.884 95.5506 122.58 95.9418 122.399 96.394C122 97.4309 121.998 98.5805 122.393 99.619L122.394 99.6181Z" fill="white"/>
<g filter="url(#filter6_dd)">
<circle cx="96" cy="32" r="30" fill="white"/>
</g>
<g clip-path="url(#clip2)">
<path d="M84.834 46.9968L90.6669 36.999H114L108.167 46.9968H84.834Z" fill="#3777E3"/>
<path d="M102.333 36.9995H113.999L102.333 17.0039H90.666L102.333 36.9995Z" fill="#FFCF63"/>
<path d="M79 36.9995L84.8337 46.9973L96.5 27.0017L90.6666 17.0039L79 36.9995Z" fill="#11A861"/>
</g>
<g filter="url(#filter7_dd)">
<circle cx="85" cy="78" r="30" fill="white"/>
</g>
<path fill-rule="evenodd" clip-rule="evenodd" d="M99.6025 76.2791C99.7884 76.6 99.8492 76.9652 99.8693 77.3756L99.8957 77.9227V81.7484L99.9227 82.2961C99.9766 83.1905 100.636 83.8518 101.537 83.9081L102.081 83.9351V77.9227L102.108 77.3756C102.131 76.9698 102.191 76.5978 102.38 76.2745C102.572 75.943 102.848 75.668 103.181 75.477C103.513 75.2861 103.89 75.1859 104.273 75.1866C104.656 75.1873 105.032 75.2888 105.364 75.481C105.695 75.6732 105.97 75.9492 106.162 76.2814C106.347 76.6023 106.405 76.9743 106.428 77.3756L106.455 77.921V81.7484L106.482 82.2961C106.538 83.1951 107.192 83.8564 108.096 83.9081L108.641 83.9351V77.3756C108.641 76.2157 108.18 75.1033 107.36 74.283C106.541 73.4627 105.429 73.0016 104.27 73.0011C103.649 73.0005 103.035 73.1323 102.47 73.3878C101.904 73.6434 101.4 74.0167 100.99 74.4828C100.58 74.0169 100.075 73.6436 99.51 73.388C98.9445 73.1325 98.331 73.0004 97.7105 73.0006C96.8026 73.0006 95.9602 73.2761 95.2624 73.752C94.8366 73.2767 93.8841 73.0006 93.3372 73.0006V83.9351L93.8841 83.9081C94.7988 83.8478 95.4598 83.2043 95.4954 82.2961L95.5247 81.7484V77.9227L95.5517 77.3756C95.5746 76.9629 95.632 76.6 95.8185 76.2768C96.011 75.9455 96.2871 75.6706 96.6191 75.4794C96.9511 75.2882 97.3274 75.1874 97.7105 75.1872C98.0938 75.1873 98.4705 75.2883 98.8025 75.4799C99.1346 75.6715 99.4105 75.9472 99.6025 76.2791ZM62.1858 83.9086L62.7327 83.9351H70.9301L70.9031 83.3897C70.8291 82.4907 70.1927 81.8339 69.2912 81.7754L68.7443 81.7484H63.8264L70.3832 75.1867L70.3563 74.6419C70.3138 73.7337 69.6504 73.0775 68.7443 73.0276L68.1974 73.0029L60 73.0006L60.027 73.5477C60.0987 74.4381 60.7443 75.1086 61.6383 75.1603L62.1858 75.1872H67.1037L60.5469 81.749L60.5738 82.2961C60.6278 83.1974 61.278 83.8501 62.1858 83.9081V83.9086ZM91.1916 74.6011C91.6991 75.1088 92.1018 75.7115 92.3765 76.3749C92.6512 77.0382 92.7926 77.7492 92.7926 78.4672C92.7926 79.1853 92.6512 79.8963 92.3765 80.5596C92.1018 81.223 91.6991 81.8257 91.1916 82.3334C90.1661 83.3584 88.7758 83.9342 87.3261 83.9342C85.8765 83.9342 84.4861 83.3584 83.4607 82.3334C81.3265 80.1984 81.3265 76.7361 83.4607 74.6011C83.9678 74.0936 84.5698 73.691 85.2325 73.4163C85.8951 73.1416 86.6054 73.0001 87.3227 73C88.0411 72.9995 88.7526 73.1407 89.4165 73.4155C90.0804 73.6904 90.6835 74.0934 91.1916 74.6017V74.6011ZM89.645 76.1494C90.2597 76.7648 90.605 77.5992 90.605 78.4692C90.605 79.3393 90.2597 80.1737 89.645 80.7891C89.0299 81.4041 88.1958 81.7495 87.3261 81.7495C86.4564 81.7495 85.6224 81.4041 85.0072 80.7891C84.3925 80.1737 84.0472 79.3393 84.0472 78.4692C84.0472 77.5992 84.3925 76.7648 85.0072 76.1494C85.6224 75.5344 86.4564 75.189 87.3261 75.189C88.1958 75.189 89.0299 75.5344 89.645 76.1494ZM75.8526 73C76.5699 73.0002 77.2802 73.1417 77.9428 73.4166C78.6055 73.6914 79.2075 74.0941 79.7146 74.6017C81.8493 76.7361 81.8493 80.1989 79.7146 82.3334C78.6891 83.3584 77.2988 83.9342 75.8491 83.9342C74.3995 83.9342 73.0092 83.3584 71.9837 82.3334C69.8495 80.1984 69.8495 76.7361 71.9837 74.6011C72.4908 74.0936 73.0929 73.691 73.7555 73.4163C74.4181 73.1416 75.1284 73.0001 75.8457 73H75.8526ZM78.1681 76.1482C78.7829 76.7637 79.1284 77.5982 79.1284 78.4684C79.1284 79.3385 78.7829 80.1731 78.1681 80.7885C77.5529 81.4035 76.7188 81.7489 75.8491 81.7489C74.9795 81.7489 74.1454 81.4035 73.5302 80.7885C72.9155 80.1731 72.5702 79.3387 72.5702 78.4687C72.5702 77.5987 72.9155 76.7642 73.5302 76.1488C74.1454 75.5339 74.9795 75.1884 75.8491 75.1884C76.7188 75.1884 77.5529 75.5339 78.1681 76.1488V76.1482Z" fill="#2D8CFF"/>
<defs>
<filter id="filter0_dd" x="9" y="11" width="70" height="70" filterUnits="userSpaceOnUse" color-interpolation-filters="sRGB">
<feFlood flood-opacity="0" result="BackgroundImageFix"/>
<feColorMatrix in="SourceAlpha" type="matrix" values="0 0 0 0 0 0 0 0 0 0 0 0 0 0 0 0 0 0 127 0"/>
<feOffset/>
<feGaussianBlur stdDeviation="0.5"/>
<feColorMatrix type="matrix" values="0 0 0 0 0.0352941 0 0 0 0 0.117647 0 0 0 0 0.258824 0 0 0 0.31 0"/>
<feBlend mode="normal" in2="BackgroundImageFix" result="effect1_dropShadow"/>
<feColorMatrix in="SourceAlpha" type="matrix" values="0 0 0 0 0 0 0 0 0 0 0 0 0 0 0 0 0 0 127 0"/>
<feOffset dy="3"/>
<feGaussianBlur stdDeviation="2.5"/>
<feColorMatrix type="matrix" values="0 0 0 0 0.0352941 0 0 0 0 0.117647 0 0 0 0 0.258824 0 0 0 0.2 0"/>
<feBlend mode="normal" in2="effect1_dropShadow" result="effect2_dropShadow"/>
<feBlend mode="normal" in="SourceGraphic" in2="effect2_dropShadow" result="shape"/>
</filter>
<filter id="filter1_dd" x="0" y="57" width="70" height="70" filterUnits="userSpaceOnUse" color-interpolation-filters="sRGB">
<feFlood flood-opacity="0" result="BackgroundImageFix"/>
<feColorMatrix in="SourceAlpha" type="matrix" values="0 0 0 0 0 0 0 0 0 0 0 0 0 0 0 0 0 0 127 0"/>
<feOffset/>
<feGaussianBlur stdDeviation="0.5"/>
<feColorMatrix type="matrix" values="0 0 0 0 0.0352941 0 0 0 0 0.117647 0 0 0 0 0.258824 0 0 0 0.31 0"/>
<feBlend mode="normal" in2="BackgroundImageFix" result="effect1_dropShadow"/>
<feColorMatrix in="SourceAlpha" type="matrix" values="0 0 0 0 0 0 0 0 0 0 0 0 0 0 0 0 0 0 127 0"/>
<feOffset dy="3"/>
<feGaussianBlur stdDeviation="2.5"/>
<feColorMatrix type="matrix" values="0 0 0 0 0.0352941 0 0 0 0 0.117647 0 0 0 0 0.258824 0 0 0 0.2 0"/>
<feBlend mode="normal" in2="effect1_dropShadow" result="effect2_dropShadow"/>
<feBlend mode="normal" in="SourceGraphic" in2="effect2_dropShadow" result="shape"/>
</filter>
<filter id="filter2_dd" x="99" y="30" width="70" height="70" filterUnits="userSpaceOnUse" color-interpolation-filters="sRGB">
<feFlood flood-opacity="0" result="BackgroundImageFix"/>
<feColorMatrix in="SourceAlpha" type="matrix" values="0 0 0 0 0 0 0 0 0 0 0 0 0 0 0 0 0 0 127 0"/>
<feOffset/>
<feGaussianBlur stdDeviation="0.5"/>
<feColorMatrix type="matrix" values="0 0 0 0 0.0352941 0 0 0 0 0.117647 0 0 0 0 0.258824 0 0 0 0.31 0"/>
<feBlend mode="normal" in2="BackgroundImageFix" result="effect1_dropShadow"/>
<feColorMatrix in="SourceAlpha" type="matrix" values="0 0 0 0 0 0 0 0 0 0 0 0 0 0 0 0 0 0 127 0"/>
<feOffset dy="3"/>
<feGaussianBlur stdDeviation="2.5"/>
<feColorMatrix type="matrix" values="0 0 0 0 0.0352941 0 0 0 0 0.117647 0 0 0 0 0.258824 0 0 0 0.2 0"/>
<feBlend mode="normal" in2="effect1_dropShadow" result="effect2_dropShadow"/>
<feBlend mode="normal" in="SourceGraphic" in2="effect2_dropShadow" result="shape"/>
</filter>
<filter id="filter3_dd" x="27" y="92" width="70" height="70" filterUnits="userSpaceOnUse" color-interpolation-filters="sRGB">
<feFlood flood-opacity="0" result="BackgroundImageFix"/>
<feColorMatrix in="SourceAlpha" type="matrix" values="0 0 0 0 0 0 0 0 0 0 0 0 0 0 0 0 0 0 127 0"/>
<feOffset/>
<feGaussianBlur stdDeviation="0.5"/>
<feColorMatrix type="matrix" values="0 0 0 0 0.0352941 0 0 0 0 0.117647 0 0 0 0 0.258824 0 0 0 0.31 0"/>
<feBlend mode="normal" in2="BackgroundImageFix" result="effect1_dropShadow"/>
<feColorMatrix in="SourceAlpha" type="matrix" values="0 0 0 0 0 0 0 0 0 0 0 0 0 0 0 0 0 0 127 0"/>
<feOffset dy="3"/>
<feGaussianBlur stdDeviation="2.5"/>
<feColorMatrix type="matrix" values="0 0 0 0 0.0352941 0 0 0 0 0.117647 0 0 0 0 0.258824 0 0 0 0.2 0"/>
<feBlend mode="normal" in2="effect1_dropShadow" result="effect2_dropShadow"/>
<feBlend mode="normal" in="SourceGraphic" in2="effect2_dropShadow" result="shape"/>
</filter>
<filter id="filter4_dd" x="68" y="100" width="70" height="70" filterUnits="userSpaceOnUse" color-interpolation-filters="sRGB">
<feFlood flood-opacity="0" result="BackgroundImageFix"/>
<feColorMatrix in="SourceAlpha" type="matrix" values="0 0 0 0 0 0 0 0 0 0 0 0 0 0 0 0 0 0 127 0"/>
<feOffset/>
<feGaussianBlur stdDeviation="0.5"/>
<feColorMatrix type="matrix" values="0 0 0 0 0.0352941 0 0 0 0 0.117647 0 0 0 0 0.258824 0 0 0 0.31 0"/>
<feBlend mode="normal" in2="BackgroundImageFix" result="effect1_dropShadow"/>
<feColorMatrix in="SourceAlpha" type="matrix" values="0 0 0 0 0 0 0 0 0 0 0 0 0 0 0 0 0 0 127 0"/>
<feOffset dy="3"/>
<feGaussianBlur stdDeviation="2.5"/>
<feColorMatrix type="matrix" values="0 0 0 0 0.0352941 0 0 0 0 0.117647 0 0 0 0 0.258824 0 0 0 0.2 0"/>
<feBlend mode="normal" in2="effect1_dropShadow" result="effect2_dropShadow"/>
<feBlend mode="normal" in="SourceGraphic" in2="effect2_dropShadow" result="shape"/>
</filter>
<filter id="filter5_dd" x="98" y="66" width="70" height="70" filterUnits="userSpaceOnUse" color-interpolation-filters="sRGB">
<feFlood flood-opacity="0" result="BackgroundImageFix"/>
<feColorMatrix in="SourceAlpha" type="matrix" values="0 0 0 0 0 0 0 0 0 0 0 0 0 0 0 0 0 0 127 0"/>
<feOffset/>
<feGaussianBlur stdDeviation="0.5"/>
<feColorMatrix type="matrix" values="0 0 0 0 0.0352941 0 0 0 0 0.117647 0 0 0 0 0.258824 0 0 0 0.31 0"/>
<feBlend mode="normal" in2="BackgroundImageFix" result="effect1_dropShadow"/>
<feColorMatrix in="SourceAlpha" type="matrix" values="0 0 0 0 0 0 0 0 0 0 0 0 0 0 0 0 0 0 127 0"/>
<feOffset dy="3"/>
<feGaussianBlur stdDeviation="2.5"/>
<feColorMatrix type="matrix" values="0 0 0 0 0.0352941 0 0 0 0 0.117647 0 0 0 0 0.258824 0 0 0 0.2 0"/>
<feBlend mode="normal" in2="effect1_dropShadow" result="effect2_dropShadow"/>
<feBlend mode="normal" in="SourceGraphic" in2="effect2_dropShadow" result="shape"/>
</filter>
<filter id="filter6_dd" x="61" y="0" width="70" height="70" filterUnits="userSpaceOnUse" color-interpolation-filters="sRGB">
<feFlood flood-opacity="0" result="BackgroundImageFix"/>
<feColorMatrix in="SourceAlpha" type="matrix" values="0 0 0 0 0 0 0 0 0 0 0 0 0 0 0 0 0 0 127 0"/>
<feOffset/>
<feGaussianBlur stdDeviation="0.5"/>
<feColorMatrix type="matrix" values="0 0 0 0 0.0352941 0 0 0 0 0.117647 0 0 0 0 0.258824 0 0 0 0.31 0"/>
<feBlend mode="normal" in2="BackgroundImageFix" result="effect1_dropShadow"/>
<feColorMatrix in="SourceAlpha" type="matrix" values="0 0 0 0 0 0 0 0 0 0 0 0 0 0 0 0 0 0 127 0"/>
<feOffset dy="3"/>
<feGaussianBlur stdDeviation="2.5"/>
<feColorMatrix type="matrix" values="0 0 0 0 0.0352941 0 0 0 0 0.117647 0 0 0 0 0.258824 0 0 0 0.2 0"/>
<feBlend mode="normal" in2="effect1_dropShadow" result="effect2_dropShadow"/>
<feBlend mode="normal" in="SourceGraphic" in2="effect2_dropShadow" result="shape"/>
</filter>
<filter id="filter7_dd" x="50" y="46" width="70" height="70" filterUnits="userSpaceOnUse" color-interpolation-filters="sRGB">
<feFlood flood-opacity="0" result="BackgroundImageFix"/>
<feColorMatrix in="SourceAlpha" type="matrix" values="0 0 0 0 0 0 0 0 0 0 0 0 0 0 0 0 0 0 127 0"/>
<feOffset/>
<feGaussianBlur stdDeviation="0.5"/>
<feColorMatrix type="matrix" values="0 0 0 0 0.0352941 0 0 0 0 0.117647 0 0 0 0 0.258824 0 0 0 0.31 0"/>
<feBlend mode="normal" in2="BackgroundImageFix" result="effect1_dropShadow"/>
<feColorMatrix in="SourceAlpha" type="matrix" values="0 0 0 0 0 0 0 0 0 0 0 0 0 0 0 0 0 0 127 0"/>
<feOffset dy="3"/>
<feGaussianBlur stdDeviation="2.5"/>
<feColorMatrix type="matrix" values="0 0 0 0 0.0352941 0 0 0 0 0.117647 0 0 0 0 0.258824 0 0 0 0.2 0"/>
<feBlend mode="normal" in2="effect1_dropShadow" result="effect2_dropShadow"/>
<feBlend mode="normal" in="SourceGraphic" in2="effect2_dropShadow" result="shape"/>
</filter>
<linearGradient id="paint0_linear" x1="94.4345" y1="125.126" x2="111.528" y2="125.126" gradientUnits="userSpaceOnUse">
<stop stop-color="#F8F6EF"/>
<stop offset="1" stop-color="#E7E4D6"/>
</linearGradient>
<linearGradient id="paint1_linear" x1="94.4345" y1="125.126" x2="111.528" y2="125.126" gradientUnits="userSpaceOnUse">
<stop stop-color="#F8F6EF"/>
<stop offset="1" stop-color="#E7E4D6"/>
</linearGradient>
<linearGradient id="paint2_linear" x1="94.4345" y1="125.126" x2="111.528" y2="125.126" gradientUnits="userSpaceOnUse">
<stop stop-color="#F8F6EF"/>
<stop offset="1" stop-color="#E7E4D6"/>
</linearGradient>
<linearGradient id="paint3_linear" x1="94.4345" y1="125.126" x2="111.528" y2="125.126" gradientUnits="userSpaceOnUse">
<stop stop-color="#F8F6EF"/>
<stop offset="1" stop-color="#E7E4D6"/>
</linearGradient>
<linearGradient id="paint4_linear" x1="94.4345" y1="125.126" x2="111.528" y2="125.126" gradientUnits="userSpaceOnUse">
<stop stop-color="#F8F6EF"/>
<stop offset="1" stop-color="#E7E4D6"/>
</linearGradient>
<linearGradient id="paint5_linear" x1="94.4345" y1="125.126" x2="111.528" y2="125.126" gradientUnits="userSpaceOnUse">
<stop stop-color="#F8F6EF"/>
<stop offset="1" stop-color="#E7E4D6"/>
</linearGradient>
<linearGradient id="paint6_linear" x1="94.4345" y1="125.126" x2="111.528" y2="125.126" gradientUnits="userSpaceOnUse">
<stop stop-color="#F8F6EF"/>
<stop offset="1" stop-color="#E7E4D6"/>
</linearGradient>
<linearGradient id="paint7_linear" x1="94.4345" y1="125.126" x2="111.528" y2="125.126" gradientUnits="userSpaceOnUse">
<stop stop-color="#F8F6EF"/>
<stop offset="1" stop-color="#E7E4D6"/>
</linearGradient>
<clipPath id="clip0">
<rect width="32" height="32" fill="white" transform="translate(46 108)"/>
</clipPath>
<clipPath id="clip1">
<rect width="32" height="24" fill="white" transform="translate(87 120)"/>
</clipPath>
<clipPath id="clip2">
<rect width="35" height="30" fill="white" transform="translate(79 17)"/>
</clipPath>
</defs>
</svg>
