<svg width="195" height="161" viewBox="0 0 195 161" fill="none" xmlns="http://www.w3.org/2000/svg">
<g clip-path="url(#clip0)">
<rect width="195" height="161" fill="white" fill-opacity="0.01"/>
<path d="M16.3646 123.718C16.1701 123.565 15.8073 123.235 15.6352 122.696C15.3509 121.809 15.6876 120.66 16.604 120.122C17.311 119.706 18.2162 119.74 18.9343 120.2C19.3159 119.979 19.7947 120.122 19.9817 120.47C20.1463 120.773 20.0565 121.181 19.7573 121.413C19.7498 121.484 19.7386 121.555 19.7236 121.626C19.544 122.528 18.8895 123.145 18.4032 123.497C17.7299 123.568 17.0491 123.643 16.3646 123.718Z" fill="#253858"/>
<path d="M83.4693 47.8538L85.3209 47.6667L88.0851 46.4541L88.1711 46.6599L85.3358 47.8725L83.3496 48.0596L83.4693 47.8538Z" fill="#97A0AF"/>
<path d="M86.7726 45.8853C86.9296 45.8853 87.0568 45.7579 87.0568 45.6008C87.0568 45.4438 86.9296 45.3164 86.7726 45.3164C86.6156 45.3164 86.4883 45.4438 86.4883 45.6008C86.4883 45.7579 86.6156 45.8853 86.7726 45.8853Z" fill="#97A0AF"/>
<path d="M83.3496 48.06L83.4506 47.8879C83.7162 47.4313 84.1613 47.1057 84.6775 46.9972C84.9468 46.941 85.2161 46.8849 85.4854 46.8288C85.5565 46.7839 85.7361 46.6491 85.8445 46.3984C85.9493 46.1476 85.9193 45.9231 85.9006 45.8408C85.8146 45.6162 85.7286 45.3879 85.6425 45.1634L87.135 44.4336L88.1711 46.6678L85.3358 47.8766L83.3496 48.06Z" fill="#344563"/>
<path d="M84.8195 46.9668C84.7708 46.978 84.7222 46.9855 84.6736 46.9967C84.1574 47.109 83.7123 47.4309 83.4467 47.8874L83.3457 48.0596L84.8157 47.9211V46.9668H84.8195Z" fill="#97A0AF"/>
<path d="M79.8332 26.8375C79.7547 27.9378 79.7247 29.1466 79.7809 30.449C79.8145 31.2087 79.8706 31.9347 79.9454 32.6196C80.1811 34.9437 80.8469 37.2078 81.9017 39.2924C83.1623 41.2534 84.4266 43.2145 85.6871 45.1755C86.5848 45.0071 87.4863 44.8349 88.384 44.6665C87.6546 42.7317 86.8093 40.6958 85.8255 38.5926C85.2121 37.279 84.5874 36.0252 83.959 34.8314C84.2171 32.1256 84.4752 29.4198 84.7333 26.7178C83.1024 26.7552 81.4678 26.7964 79.8332 26.8375Z" fill="url(#paint0_linear)"/>
<path d="M51.6523 38.6218C51.6523 38.6218 52.2695 37.6338 52.2246 37.3307C52.1835 37.0275 52.0264 36.8666 52.1274 36.788C52.2246 36.7094 52.4753 37.0911 52.5538 37.0949C52.6361 37.0949 52.6735 37.0013 52.7708 37.1061C52.8643 37.2072 52.9952 37.3119 53.0513 37.4691C53.1074 37.6263 53.1635 38.386 53.0588 38.6405C52.954 38.8987 52.7633 39.4414 52.5127 39.5911C52.2583 39.7371 51.7159 38.8613 51.7159 38.8613L51.6523 38.6218Z" fill="#A27F68"/>
<path d="M52.6242 39.37C52.5082 39.5235 52.1791 39.4374 51.9995 39.3364C51.9359 39.2989 51.6666 39.1418 51.5918 38.8199C51.5207 38.5317 51.6853 38.4382 51.6778 38.0228C51.6704 37.6186 51.5095 37.3865 51.5806 37.3342C51.6442 37.2892 51.82 37.4202 51.9322 37.5699C52.1454 37.8506 52.0182 38.0377 52.2015 38.3708C52.3511 38.6403 52.4858 38.6178 52.598 38.9135C52.6317 39.0183 52.7177 39.2465 52.6242 39.37Z" fill="#A27F68"/>
<path d="M64.5613 45.0254C64.3593 45.0852 64.1311 44.7971 64.0376 44.5912C64.0039 44.5164 63.873 44.2058 64.0114 43.8764C64.1349 43.577 64.3368 43.6032 64.5987 43.2365C64.853 42.8772 64.8605 42.5703 64.9578 42.5703C65.0401 42.5703 65.1111 42.7986 65.1111 43.0044C65.1149 43.3899 64.883 43.4648 64.8306 43.8802C64.7857 44.2095 64.9204 44.2806 64.8269 44.6062C64.7932 44.7222 64.7221 44.9767 64.5613 45.0254Z" fill="#A27F68"/>
<path d="M53.8042 39.5123C53.7406 39.183 53.5199 38.921 53.2356 38.8462C53.0149 38.7863 52.8279 38.8537 52.7493 38.8874C52.0199 40.5453 51.2905 42.2032 50.5611 43.8573C49.7794 44.6919 48.949 45.7136 48.1597 46.9448C47.8044 47.4987 47.4977 48.0376 47.2246 48.5541C47.277 48.5953 47.9952 49.1566 48.0513 49.1903C48.3131 49.355 48.5749 49.5196 48.8779 49.8265C50.3517 48.1985 51.3579 46.6716 52.0274 45.519C52.4763 44.1343 52.9064 42.7046 53.3216 41.2376C53.4937 40.6575 53.6508 40.0812 53.8042 39.5123Z" fill="#36B37E"/>
<path opacity="0.25" d="M116.682 161.004C150.101 161.004 177.192 155.56 177.192 148.845C177.192 142.129 150.101 136.686 116.682 136.686C83.2632 136.686 56.1719 142.129 56.1719 148.845C56.1719 155.56 83.2632 161.004 116.682 161.004Z" fill="url(#paint1_linear)"/>
<path d="M81.229 150.533C81.1767 150.529 81.128 150.521 81.0757 150.518C72.9476 149.724 66.7196 142.932 66.6411 134.758C66.555 125.93 65.5975 115.765 62.9492 104.774C60.9742 96.5628 58.4082 89.3549 55.7637 83.2285C62.8819 83.4793 70.0038 83.7263 77.122 83.977L81.229 150.533Z" fill="url(#paint2_linear)"/>
<path d="M81.2291 150.532C81.9922 150.458 82.8899 150.312 83.8774 150.042C84.921 149.754 85.8112 149.395 86.5294 149.05C86.5294 126.154 86.5294 103.258 86.5294 80.3616L76.4824 77.9814C78.0684 102.165 79.6506 126.349 81.2291 150.532Z" fill="#A5ADBA"/>
<path d="M105.441 92.1618C105.441 102.034 97.4442 110.036 87.5768 110.036C87.098 110.036 86.6304 110.017 86.1629 109.98V110.036H78.7305C80.2192 110.013 81.6593 109.815 83.032 109.456C84.1093 109.171 85.1492 108.786 86.1367 108.318C92.1776 105.451 96.3482 99.2912 96.3482 92.1581C96.3482 84.8828 92.0055 78.6217 85.7701 75.8336C85.7626 75.3433 85.7626 74.8568 85.7626 74.374C86.3574 74.3104 86.9596 74.2842 87.5693 74.2842C97.4442 74.2879 105.441 82.2893 105.441 92.1618Z" fill="url(#paint3_linear)"/>
<path d="M96.3565 92.1622C96.3565 99.2953 92.182 105.452 86.1449 108.322C85.1574 108.786 84.1175 109.175 83.0402 109.46C81.6675 109.819 80.2236 110.017 78.7387 110.04H78.6414C78.589 109.209 78.5329 108.374 78.4806 107.547C77.9681 99.5385 77.4632 91.526 76.9806 83.9737C76.8497 81.9678 76.7263 79.9917 76.5991 78.0606C76.5205 76.8294 76.442 75.6131 76.3672 74.4155C77.0667 74.3294 77.7736 74.292 78.4955 74.292C80.0628 74.292 81.5852 74.4903 83.0328 74.8758C83.9791 75.1191 84.8993 75.4447 85.782 75.8414C92.0137 78.6295 96.3565 84.8869 96.3565 92.1622Z" fill="#FFAB00"/>
<path d="M85.0812 88.4716H64.5982C53.2832 88.4716 44.1152 79.2951 44.1152 67.978C44.1152 56.6571 53.2869 47.4844 64.5982 47.4844H85.0812V88.4716Z" fill="#0065FF"/>
<path opacity="0.5" d="M64.5941 47.4805C62.9446 47.4805 61.3436 47.6788 59.81 48.0493H66.2512L66.0978 53.7116H53.3801L53.4587 50.7776C53.0622 51.0358 52.6769 51.3015 52.2991 51.5822L51.4238 83.6737C51.7829 83.9768 52.157 84.265 52.5348 84.5456L52.6021 82.042H65.3198L65.1664 87.7043H59.032C60.8013 88.202 62.664 88.4752 64.5904 88.4752H66.2811L67.3995 47.4842H64.5941V47.4805ZM65.3572 80.9042H52.6395L52.7929 75.2419H65.5106L65.3572 80.9042ZM65.5442 74.108H52.8265L52.9799 68.4456H65.6976L65.5442 74.108ZM65.7275 67.3079H53.0098L53.1632 61.6456H65.8809L65.7275 67.3079ZM65.9145 60.5117H53.1968L53.3502 54.8493H66.0679L65.9145 60.5117Z" fill="#0747A6"/>
<path d="M141.837 15.1387C118.799 31.5119 100.968 40.1232 88.0745 45.0558C83.3278 46.8709 74.4778 50.0145 70.7971 58.1693C67.5541 65.3511 68.9343 75.0552 73.9728 81.4436C81.1321 90.5265 91.7813 87.9592 106.945 93.004C115.975 96.0092 128.663 102.398 141.841 117.783V15.1387H141.837Z" fill="url(#paint4_linear)"/>
<path d="M100.613 72.9928C98.731 70.4629 96.3147 67.7048 93.2362 65.0327C86.2639 58.9736 78.8353 55.9123 73.1722 54.3105C72.252 55.4557 71.444 56.7357 70.7932 58.169C67.5502 65.3508 68.9304 75.0549 73.9689 81.4433C81.1282 90.5262 91.7774 87.9589 106.941 93.0037C115.971 96.0089 128.659 102.397 141.837 117.782V87.3152C137.621 87.6033 113.435 88.509 100.613 72.9928Z" fill="url(#paint5_linear)"/>
<path d="M159.765 130.791C179.225 130.791 195 101.512 195 65.3955C195 29.2786 179.225 0 159.765 0C140.305 0 124.529 29.2786 124.529 65.3955C124.529 101.512 140.305 130.791 159.765 130.791Z" fill="url(#paint6_linear)"/>
<path d="M161.649 125.529C177.756 125.529 190.814 98.5881 190.814 65.3545C190.814 32.1209 177.756 5.17969 161.649 5.17969C145.542 5.17969 132.484 32.1209 132.484 65.3545C132.484 98.5881 145.542 125.529 161.649 125.529Z" fill="url(#paint7_linear)"/>
<path opacity="0.42" d="M132.48 65.3545C132.48 32.1216 145.539 5.17969 161.645 5.17969C161.645 5.17969 130.943 78.6813 161.645 125.526C145.539 125.526 132.48 98.5874 132.48 65.3545Z" fill="url(#paint8_linear)"/>
<path d="M130.502 64.2575C130.502 59.4297 130.85 54.7367 131.504 50.2383L152.848 50.7884L151.729 82.2736L132.256 82.7077C131.123 76.8882 130.502 70.6907 130.502 64.2575Z" fill="#0049B0"/>
<path d="M162.195 66.9746C162.571 58.2829 158.466 51.0461 153.028 50.8108C147.589 50.5755 142.876 57.4308 142.5 66.1226C142.125 74.8143 146.229 82.0511 151.668 82.2864C157.106 82.5216 161.82 75.6663 162.195 66.9746Z" fill="#0052CC"/>
<path d="M159.132 66.7838C159.384 60.4662 156.872 55.2366 153.522 55.103C150.172 54.9695 147.252 59.9827 147 66.3003C146.749 72.6178 149.261 77.8475 152.611 77.981C155.961 78.1145 158.881 73.1013 159.132 66.7838Z" fill="#0049B0"/>
<path d="M65.0179 48.0488H51.4885C51.1743 48.0488 50.9199 47.7944 50.9199 47.48C50.9199 47.1656 51.1743 46.9111 51.4885 46.9111H65.0179C65.3321 46.9111 65.5864 47.1656 65.5864 47.48C65.5864 47.7944 65.3321 48.0488 65.0179 48.0488Z" fill="#344563"/>
<path d="M63.0511 58.2471H49.5217C49.2075 58.2471 48.9531 57.9926 48.9531 57.6782C48.9531 57.3639 49.2075 57.1094 49.5217 57.1094H63.0511C63.3653 57.1094 63.6196 57.3639 63.6196 57.6782C63.6196 57.9926 63.3616 58.2471 63.0511 58.2471Z" fill="#344563"/>
<path d="M61.0784 68.4453H47.549C47.2348 68.4453 46.9805 68.1908 46.9805 67.8765C46.9805 67.5621 47.2348 67.3076 47.549 67.3076H61.0784C61.3926 67.3076 61.647 67.5621 61.647 67.8765C61.647 68.1908 61.3926 68.4453 61.0784 68.4453Z" fill="#344563"/>
<path d="M59.1077 78.6397H45.5783C45.2641 78.6397 45.0098 78.3852 45.0098 78.0708C45.0098 77.7564 45.2641 77.502 45.5783 77.502H59.1077C59.4219 77.502 59.6763 77.7564 59.6763 78.0708C59.6763 78.3852 59.4219 78.6397 59.1077 78.6397Z" fill="#344563"/>
<path d="M57.1409 88.8379H43.6115C43.2973 88.8379 43.043 88.5834 43.043 88.269C43.043 87.9547 43.2973 87.7002 43.6115 87.7002H57.1409C57.4551 87.7002 57.7095 87.9547 57.7095 88.269C57.7095 88.5834 57.4551 88.8379 57.1409 88.8379Z" fill="#344563"/>
<path d="M55.1701 99.0361H41.6369C41.3227 99.0361 41.0684 98.7817 41.0684 98.4673C41.0684 98.1529 41.3227 97.8984 41.6369 97.8984H55.1701C55.4843 97.8984 55.7386 98.1529 55.7386 98.4673C55.7386 98.7817 55.4843 99.0361 55.1701 99.0361Z" fill="#344563"/>
<path d="M53.1974 109.23H39.6643C39.3501 109.23 39.0957 108.976 39.0957 108.662C39.0957 108.347 39.3501 108.093 39.6643 108.093H53.1974C53.5116 108.093 53.766 108.347 53.766 108.662C53.766 108.976 53.5116 109.23 53.1974 109.23Z" fill="#344563"/>
<path d="M51.2306 119.429H37.6975C37.3833 119.429 37.1289 119.174 37.1289 118.86C37.1289 118.546 37.3833 118.291 37.6975 118.291H51.2306C51.5448 118.291 51.7992 118.546 51.7992 118.86C51.7992 119.174 51.5448 119.429 51.2306 119.429Z" fill="#344563"/>
<path d="M49.2599 129.627H35.7268C35.4126 129.627 35.1582 129.372 35.1582 129.058C35.1582 128.744 35.4126 128.489 35.7268 128.489H49.2599C49.5741 128.489 49.8285 128.744 49.8285 129.058C49.8285 129.372 49.5741 129.627 49.2599 129.627Z" fill="#344563"/>
<path d="M47.2874 139.821H33.758C33.4438 139.821 33.1895 139.567 33.1895 139.252C33.1895 138.938 33.4438 138.684 33.758 138.684H47.2912C47.6054 138.684 47.8597 138.938 47.8597 139.252C47.8597 139.567 47.6016 139.821 47.2874 139.821Z" fill="#344563"/>
<path d="M45.3205 150.02H31.7873C31.4731 150.02 31.2188 149.765 31.2188 149.451C31.2188 149.136 31.4731 148.882 31.7873 148.882H45.3205C45.6347 148.882 45.889 149.136 45.889 149.451C45.889 149.765 45.6347 150.02 45.3205 150.02Z" fill="#344563"/>
<path d="M43.9253 157.729C43.8879 157.729 43.8542 157.725 43.8168 157.718C43.5101 157.658 43.3081 157.359 43.3679 157.052L66.5254 38.3825C66.5853 38.0756 66.8845 37.8735 67.1912 37.9334C67.4979 37.9932 67.6999 38.2926 67.6401 38.5995L44.4826 157.269C44.4302 157.542 44.1946 157.729 43.9253 157.729Z" fill="#344563"/>
<path d="M30.0737 157.729C30.0363 157.729 30.0026 157.725 29.9652 157.718C29.6585 157.658 29.4565 157.359 29.5164 157.052L52.6738 38.3825C52.7337 38.0756 53.0329 37.8735 53.3396 37.9334C53.6464 37.9932 53.8483 38.2926 53.7885 38.5995L30.6273 157.272C30.5749 157.542 30.3393 157.729 30.0737 157.729Z" fill="#344563"/>
<path d="M72.3487 19.5546C72.6555 20.2394 71.3613 21.2125 71.1742 21.3509C71.0284 21.4595 70.587 21.7851 70.3401 21.6428C70.299 21.6204 70.2952 21.6017 70.1568 21.4108C69.8763 21.0366 69.8501 21.0553 69.8127 20.9505C69.7379 20.7409 69.8651 20.6923 69.8389 20.3405C69.8164 20.0448 69.7192 19.9999 69.7416 19.8352C69.7865 19.4947 70.2578 19.2926 70.3812 19.2402C71.0396 18.9595 72.1094 19.0269 72.3487 19.5546Z" fill="#8C715D"/>
<path d="M74.5527 19.9173C74.9118 19.6104 75.2709 19.3073 75.63 19.0004C76.5838 18.3155 77.5377 17.6306 78.4952 16.9458C79.4266 16.1449 80.5862 15.9952 81.3006 16.4967C81.6747 16.7587 81.8542 17.1516 81.9402 17.4398C82.146 18.3118 81.6036 19.1538 80.7807 19.2474L75.8731 21.0924C75.3083 21.1523 74.6911 20.5086 74.5527 19.9173Z" fill="#8C715D"/>
<path d="M71.1939 19.2102C72.7463 19.0979 74.2986 18.9819 75.8509 18.8696C76.498 18.66 76.7299 18.8247 76.801 18.8883C77.2274 19.2738 76.8907 20.6323 76.0977 21.0028C75.9444 21.0739 75.7948 21.1001 75.6676 21.1076C74.1527 20.8569 72.634 20.6061 71.1191 20.3554L71.1939 19.2102Z" fill="#8C715D"/>
<path d="M81.2971 16.4967C80.5864 15.9952 79.4231 16.1449 78.4917 16.9458C78.0167 17.2863 77.5454 17.6269 77.0703 17.9675C77.6314 18.5962 78.0503 19.3597 78.2972 20.1755L80.7734 19.2474C81.5963 19.1538 82.1387 18.3118 81.933 17.4398C81.8507 17.1554 81.6711 16.7624 81.2971 16.4967Z" fill="url(#paint9_linear)"/>
<path d="M71.5105 20.4078C71.7424 20.4003 71.9033 20.2693 71.9107 20.1383C71.9107 20.1196 71.9145 20.0448 71.8322 19.9624C71.8509 19.9475 71.9968 19.8315 72.0042 19.6331C72.008 19.4722 71.9182 19.3225 71.7723 19.2401C71.821 19.1952 72.0155 19.0081 71.9668 18.8622C71.9032 18.6825 71.4656 18.6226 71.2786 18.7723C70.9008 19.0717 71.4469 20.2768 71.5105 20.4078Z" fill="#8C715D"/>
<path d="M67.7659 16.6543H53.0283C47.5858 16.6543 43.1758 21.0666 43.1758 26.5119V30.9692C43.1758 36.4144 47.5858 40.8268 53.0283 40.8268H61.0853C62.5104 40.8268 63.8234 41.6089 64.5041 42.8626L65.7385 45.1381L67.13 42.5745C67.6761 41.5678 68.6374 40.853 69.7595 40.6247C74.2444 39.7003 77.6183 35.7333 77.6183 30.9692V26.5119C77.6221 21.0666 73.2083 16.6543 67.7659 16.6543Z" fill="url(#paint10_linear)"/>
<path d="M69.2323 24.0156H51.9961V25.1795H69.2323V24.0156Z" fill="white"/>
<path d="M69.2323 26.8672H51.9961V28.0311H69.2323V26.8672Z" fill="white"/>
<path d="M69.2323 29.7188H51.9961V30.8826H69.2323V29.7188Z" fill="white"/>
<path d="M64.3398 32.5713H51.9961V33.7352H64.3398V32.5713Z" fill="white"/>
<path d="M64.1952 43.7413C64.1952 43.7413 65.3697 43.2772 65.5268 42.9853C65.6839 42.6934 65.654 42.4539 65.7924 42.4464C65.9308 42.4389 65.8971 42.9366 65.9682 42.989C66.0393 43.0414 66.1328 42.9853 66.1515 43.135C66.1665 43.2847 66.2114 43.4606 66.1627 43.6327C66.1104 43.8086 65.6727 44.5047 65.4146 44.6619C65.1565 44.8191 64.6403 45.1709 64.3261 45.1372C64.0119 45.1035 64.1017 43.9845 64.1017 43.9845L64.1952 43.7413Z" fill="#A27F68"/>
<path d="M51.8062 46.3766C51.8698 46.6049 51.6491 46.7658 51.6341 47.2823C51.6267 47.634 51.7202 47.9297 51.8062 48.128C50.4409 48.652 49.2851 48.6969 48.9859 48.2253C48.8587 48.027 48.8737 47.7126 48.8886 47.3159C48.9036 46.8706 48.9185 46.5113 49.1018 46.2531C49.6554 45.4747 51.6304 45.774 51.8062 46.3766Z" fill="#72594B"/>
<path d="M47.7992 55.6622C47.8516 55.5199 47.9189 55.3628 48.0087 55.1906C48.1172 54.9885 48.2331 54.8126 48.3416 54.6592C48.4576 54.6816 48.6446 54.7153 48.8802 54.7415C49.086 54.764 49.2431 54.7677 49.3291 54.7715C49.8154 54.8014 50.758 54.8388 53.3651 54.8575C53.4773 54.9773 53.6344 55.1569 53.799 55.389C54.39 56.2273 54.5434 57.0057 54.6032 57.3425C55.6318 62.9562 55.6805 65.0819 55.6805 65.0819C55.7029 65.909 55.7254 66.7398 55.7478 67.5706C55.8002 69.5504 55.8413 71.5226 55.8787 73.4837C55.8525 73.566 55.8002 73.6933 55.688 73.8018C55.4186 74.0525 55.0034 73.9927 54.6892 73.9477C54.4985 73.9215 54.1918 73.8504 53.8439 73.6596C53.3352 72.7464 53.0546 71.9268 52.8938 71.3318C52.5833 70.1828 52.5572 69.2585 52.5572 68.9067C52.5497 67.9598 52.6843 67.1664 52.8227 66.5938C52.617 65.9501 52.3626 65.2615 52.041 64.5355C51.4574 63.2219 50.7991 62.1216 50.1782 61.2272C50.0286 63.3529 49.9051 65.5347 49.8079 67.7652C49.7219 69.8011 49.6583 71.7996 49.6246 73.7569C49.0448 73.9889 48.4688 74.2209 47.889 74.4492C47.4514 72.8624 47.0998 70.8041 47.2531 68.4276C47.2943 67.7802 47.3691 67.1739 47.4663 66.6013C47.4177 65.8341 47.3504 65.037 47.2643 64.2174C47.1933 63.555 47.1147 62.915 47.0287 62.29C47.0287 62.29 46.7519 59.0715 47.2718 57.1629C47.3915 56.755 47.6833 55.9803 47.7992 55.6622Z" fill="url(#paint11_linear)"/>
<path d="M48.3787 73.5581C48.0047 73.5618 47.6643 73.5394 47.3613 73.5019C47.4586 74.314 47.5745 74.969 47.6643 75.4143C47.9374 76.8065 47.9374 77.4315 47.9748 78.0191C47.9935 78.2998 48.0047 78.528 48.0084 78.6852C48.3413 78.6815 48.6742 78.674 49.0072 78.6703C49.0745 78.558 49.1456 78.4495 49.2129 78.3372C49.3027 78.4682 49.3887 78.5991 49.4785 78.7301C49.9759 78.7376 50.4884 78.7376 51.0158 78.7264C51.5432 78.7152 52.0519 78.6965 52.5457 78.6665C52.5719 78.528 52.5943 78.3896 52.6205 78.2511C52.1567 78.1239 51.6928 77.9966 51.229 77.8731C51.042 77.7197 50.7614 77.4652 50.4996 77.0909C49.9535 76.3163 49.8338 75.5303 49.7291 74.9054C49.6393 74.3702 49.6206 73.8799 49.643 73.457C49.2727 73.5132 48.85 73.5543 48.3787 73.5581Z" fill="#172B4D"/>
<path d="M47.2134 49.2619C47.0563 48.6519 47.3555 48.0157 47.9316 47.7537C48.0513 47.7013 48.1785 47.6451 48.3094 47.5928C49.5363 47.1062 51.0063 46.7769 55.8278 47.2335C57.1669 47.3607 58.2254 47.4655 58.779 47.5217C59.8376 46.8967 60.9448 46.1931 62.0782 45.3922C62.7253 44.9356 63.3387 44.479 63.9185 44.0225C64.1878 44.3743 64.4571 44.726 64.7264 45.0778C64.1018 45.7852 63.335 46.5598 62.4073 47.3345C61.2777 48.2814 60.1855 48.9962 59.2316 49.5388C58.4686 49.7372 57.6532 49.9206 56.7928 50.089C55.8465 50.2723 54.945 50.4108 54.0922 50.5156C54.1932 50.7214 54.3091 51.0321 54.2979 51.41C54.283 51.9714 53.9987 52.3644 53.8827 52.5515C53.5984 53.0268 53.4152 53.8651 53.9351 55.4519C52.4501 55.7401 51.3467 55.7363 50.6883 55.6802C49.2482 55.5529 48.934 55.4444 47.7296 55.1974C47.7969 54.6473 47.8455 53.9961 47.8306 53.27C47.8119 52.2933 47.6847 51.5635 47.565 50.8861C47.4865 50.4258 47.3742 49.8794 47.2134 49.2619Z" fill="url(#paint12_linear)"/>
<path d="M51.3487 42.3799C51.7227 42.7504 52.1267 43.4839 52.2988 43.8656C52.3249 43.933 52.3287 43.9667 52.4671 44.0415C52.6055 44.1164 52.7888 44.1463 52.7551 44.2474C52.7177 44.3484 52.5157 44.4869 52.4933 44.573L52.6915 45.9988L52.1192 46.2234L50.1816 46.9794C50.2041 46.9008 50.9148 44.9697 50.9073 44.8574C50.8998 44.7451 50.8774 44.5168 51.0083 44.4569C51.1355 44.3971 51.3412 43.2706 51.401 43.1171C51.4609 42.9637 51.4459 42.9225 51.4123 42.7167C51.3749 42.5071 51.3487 42.3799 51.3487 42.3799Z" fill="#72594B"/>
<path d="M48.1183 46.047C48.3352 46.2716 48.829 46.7768 49.5509 46.7543C50.3476 46.7282 51.0995 46.0657 51.1294 45.4894C51.1406 45.2312 51.006 45.0515 51.0658 44.595C51.0957 44.3742 51.1743 44.0635 51.294 44.056C51.4174 44.0448 51.5035 44.3629 51.5857 44.348C51.6718 44.3292 51.6606 43.9849 51.6643 43.7866C51.6643 42.9146 51.8476 42.866 51.7728 42.5216C51.6344 41.8592 50.9087 41.5037 50.8189 41.4625C49.9175 41.0359 48.9973 41.5299 48.8477 41.6085C47.7442 42.1961 47.243 43.5658 47.4375 44.681C47.4637 44.8644 47.5871 45.5006 48.1183 46.047Z" fill="#253858"/>
<path d="M46.3859 44.1013C46.5505 44.2697 46.9171 44.6515 47.4632 44.6328C48.0617 44.6141 48.6265 44.1163 48.6489 43.6822C48.6564 43.4876 48.5554 43.3528 48.6003 43.0123C48.6228 42.8476 48.6826 42.6156 48.7724 42.6081C48.8659 42.6006 48.9295 42.8401 48.9893 42.8252C49.0529 42.8139 49.0454 42.552 49.0454 42.4023C49.0454 41.7473 49.1838 41.7099 49.1277 41.4517C49.023 40.9539 48.4769 40.6882 48.4096 40.6546C47.7325 40.3364 47.0405 40.7032 46.9283 40.7631C46.1017 41.2047 45.7201 42.2339 45.8697 43.0722C45.8959 43.2106 45.9857 43.6897 46.3859 44.1013Z" fill="#253858"/>
<path d="M54.8202 73.5581C54.4461 73.5618 54.1057 73.5394 53.8027 73.5019C53.9 74.314 54.0159 74.969 54.1057 75.4143C54.3788 76.8065 54.3788 77.4315 54.4162 78.0191C54.4349 78.2998 54.4461 78.528 54.4498 78.6852C54.7828 78.6815 55.1157 78.674 55.4486 78.6703C55.5159 78.558 55.587 78.4495 55.6543 78.3372C55.7441 78.4682 55.8301 78.5991 55.9199 78.7301C56.4174 78.7376 56.9298 78.7376 57.4572 78.7264C57.9846 78.7152 58.4933 78.6965 58.9871 78.6665C59.0133 78.528 59.0357 78.3896 59.0619 78.2511C58.5981 78.1239 58.1342 77.9966 57.6704 77.8731C57.4834 77.7197 57.2029 77.4652 56.941 77.0909C56.3949 76.3163 56.2752 75.5303 56.1705 74.9054C56.0807 74.3702 56.062 73.8799 56.0844 73.457C55.7141 73.5132 55.2915 73.5543 54.8202 73.5581Z" fill="#172B4D"/>
<path d="M91.7062 111.649L91.5603 111.061L91.1713 110.388L90.8496 108.894L91.0591 108.793L91.3695 109.561L91.0815 107.951L91.3396 107.858L91.7062 109.355L91.594 107.76L91.8521 107.73L92.0653 109.302L92.2299 107.73L92.4954 107.757C92.5366 108.142 92.5291 108.453 92.5141 108.674C92.4954 108.924 92.458 109.179 92.6076 109.415C92.6563 109.489 92.7124 109.542 92.7498 109.576L92.8882 109.194L93.2735 108.782L93.4193 108.951L93.0789 109.856L92.9555 110.646L93.0677 111.248L91.7062 111.649Z" fill="#F1DAD5"/>
<path d="M103.774 118.827C103.03 118.827 102.281 118.827 101.537 118.827C101.661 118.543 101.806 118.112 101.855 117.57C101.904 117.046 101.844 116.604 101.776 116.305C102.233 116.282 102.685 116.26 103.142 116.237C103.157 116.316 103.183 116.436 103.224 116.574C103.284 116.787 103.314 116.896 103.374 116.952C103.531 117.098 103.826 117.012 103.912 116.982C103.867 117.6 103.823 118.213 103.774 118.827Z" fill="url(#paint13_linear)"/>
<path d="M104.888 129.59C105.528 129.081 106.343 128.325 107.114 127.266C107.821 126.289 108.27 125.361 108.554 124.639C108.225 122.775 107.473 121.544 107.005 120.897C106.358 120.002 105.79 119.598 105.543 119.437C104.638 118.842 103.216 118.34 102.868 118.771C102.509 119.212 103.284 120.519 103.946 121.267C104.215 121.57 104.395 121.701 104.634 121.914C105.199 122.423 105.924 123.251 106.553 124.62C105.951 125.702 105.348 126.787 104.746 127.869C104.791 128.438 104.84 129.014 104.888 129.59Z" fill="url(#paint14_linear)"/>
<path d="M104.511 126.925C104.474 126.764 104.422 126.585 104.351 126.39C104.264 126.162 104.171 125.967 104.081 125.799C103.969 125.833 103.789 125.885 103.565 125.93C103.37 125.967 103.221 125.982 103.142 125.993C102.686 126.061 101.818 126.162 99.4766 126.341C99.3644 126.48 99.2073 126.693 99.0352 126.959C98.4255 127.925 98.2011 128.811 98.1076 129.193C96.5179 135.731 96.1999 138.287 96.1999 138.287C96.1999 138.287 95.0778 144.556 94.4531 150.061C94.4756 150.076 94.8384 150.619 95.3471 150.821C95.5304 150.892 95.5192 151.027 95.8596 151.06C96.5366 149.092 97.1426 146.76 97.4792 144.107C97.5952 143.186 97.67 142.307 97.7111 141.465C98.261 140.585 99.0278 139.249 99.7684 137.539C100.775 135.2 101.036 133.763 101.291 133.8C101.684 133.86 101.399 137.127 101.358 141.906C101.336 144.709 101.496 147.026 101.511 148.557C101.661 148.646 101.99 148.893 102.525 148.706C103.06 148.519 103.236 148.276 103.236 148.276C103.427 146.981 103.565 145.484 103.565 143.819C103.565 142.471 103.475 141.236 103.344 140.14C103.969 138.231 104.332 136.588 104.549 135.368C104.549 135.368 105.271 131.33 104.874 128.673C104.814 128.243 104.586 127.258 104.511 126.925Z" fill="url(#paint15_linear)"/>
<path d="M96.6807 144.152C96.1757 144.152 95.7081 144.032 95.2967 143.826C95.0049 145.757 94.6907 147.965 94.4551 150.065C94.4775 150.08 94.8403 150.622 95.3491 150.825C95.5323 150.896 95.5211 151.03 95.8615 151.064C96.5385 149.096 97.1445 146.764 97.4811 144.111C97.4849 144.084 97.4886 144.058 97.4886 144.032C97.223 144.107 96.9537 144.152 96.6807 144.152Z" fill="url(#paint16_linear)"/>
<path d="M102.292 143.901C101.967 143.901 101.66 143.853 101.372 143.763C101.357 144.59 101.376 145.492 101.451 146.458C101.51 147.225 101.6 147.943 101.709 148.609C101.768 148.658 101.866 148.729 102 148.763C102.056 148.778 102.217 148.815 102.528 148.707C103.063 148.52 103.238 148.276 103.238 148.276C103.429 146.981 103.568 145.485 103.568 143.819C103.568 143.748 103.568 143.681 103.568 143.613C103.167 143.797 102.734 143.901 102.292 143.901Z" fill="url(#paint17_linear)"/>
<path d="M101.294 133.8C101.548 133.838 101.518 135.226 101.455 137.494C101.631 137.464 101.9 137.423 102.233 137.363C102.764 137.273 102.944 137.236 103.276 137.183C103.493 137.15 103.811 137.105 104.2 137.064C104.346 136.439 104.458 135.866 104.548 135.368C104.548 135.368 105.27 131.33 104.874 128.673C104.81 128.239 104.582 127.255 104.503 126.925C104.466 126.764 104.414 126.585 104.343 126.39C104.256 126.162 104.163 125.967 104.073 125.799C103.961 125.833 103.781 125.885 103.557 125.93C103.362 125.967 103.213 125.982 103.134 125.993C102.678 126.061 101.81 126.162 99.4686 126.341C99.3564 126.48 99.1993 126.693 99.0273 126.959C98.4176 127.925 98.1931 128.811 98.0996 129.193C97.2206 132.816 96.7306 135.211 96.4688 136.633C96.7381 136.79 97.0411 136.948 97.374 137.09C98.2268 137.464 99.0235 137.647 99.6744 137.741C99.7043 137.674 99.7342 137.606 99.7641 137.535C100.778 135.204 101.04 133.763 101.294 133.8Z" fill="#5E6C84"/>
<path d="M90.7305 152.475L91.9948 152.074C93.3114 151.659 94.2653 150.521 94.4448 149.152C94.4785 148.908 94.6617 147.875 94.7403 147.441C94.9722 147.393 95.3276 147.348 95.7502 147.419C96.3749 147.52 96.8125 147.812 97.0257 147.976C96.7751 148.534 96.5245 149.208 96.33 149.986C96.2103 150.465 96.0532 151.236 95.9859 152.19C95.9672 152.482 95.9634 152.722 95.9634 152.879L94.7179 152.872C94.6468 152.793 94.5795 152.718 94.5084 152.64C94.3999 152.714 94.2877 152.785 94.1792 152.86H91.0073L90.7305 152.475Z" fill="#8993A4"/>
<path d="M103.426 147.075C103.28 146.981 102.88 146.749 102.323 146.768C101.84 146.783 101.493 146.981 101.343 147.075C101.395 147.295 101.455 147.61 101.489 147.988C101.552 148.669 101.582 149.058 101.343 149.271C101.279 149.331 101.081 149.473 100.632 149.395C100.584 149.414 100.535 149.432 100.486 149.455C101.089 150.188 101.541 150.746 101.814 151.12C101.863 151.188 101.997 151.375 102.241 151.468C102.312 151.494 102.615 151.61 102.862 151.438C103.045 151.307 103.086 151.098 103.097 151.042C103.206 149.72 103.314 148.399 103.426 147.075Z" fill="#8993A4"/>
<path d="M101.226 114.392C101.192 114.582 101.121 114.871 100.941 115.181C100.751 115.514 100.523 115.728 100.369 115.855C100.466 115.96 100.567 116.064 100.665 116.173C100.743 116.618 100.822 117.064 100.904 117.505C101.114 117.591 101.439 117.704 101.847 117.749C102.273 117.793 102.827 117.853 103.062 117.539C103.189 117.371 103.208 117.142 103.178 116.869C103.152 116.615 103.118 116.416 103.085 116.315C102.995 116.038 102.86 115.866 102.595 115.526C102.284 115.129 102.108 114.904 101.791 114.687C101.566 114.534 101.364 114.444 101.226 114.392Z" fill="url(#paint18_linear)"/>
<path d="M93.5057 118.823C94.2874 119.328 95.2712 119.878 96.4495 120.365C97.6202 120.848 98.6975 121.151 99.6027 121.349C99.5653 121.959 99.4942 122.614 99.3783 123.31C99.1576 124.631 98.8247 125.788 98.4731 126.753C99.0828 127.049 100.055 127.427 101.301 127.547C102.737 127.689 103.901 127.427 104.589 127.217C104.555 125.997 104.667 124.276 105.318 122.363C105.617 121.488 105.973 120.735 106.328 120.107C106.104 119.897 105.789 119.628 105.386 119.358C105.386 119.358 105.292 119.295 105.146 119.208C105.146 119.208 104.884 119.051 104.607 118.913C103.459 118.34 101.361 118.146 101.361 118.146C98.4955 117.88 98.5928 117.929 98.0392 117.839C96.7262 117.629 95.6864 117.266 95.0168 116.993C94.351 114.961 93.6815 112.929 93.0157 110.896C92.4883 111.035 91.9571 111.173 91.4297 111.312C91.684 112.618 92.0095 114.01 92.4284 115.481C92.7688 116.671 93.1316 117.786 93.5057 118.823Z" fill="url(#paint19_linear)"/>
<path d="M105.596 115.563C106.452 117.116 107.047 117.034 107.2 117.969C107.339 118.804 107.051 119.983 106.123 120.48C105.079 121.042 103.931 120.35 103.867 120.312C103.228 119.912 102.958 119.305 102.865 119.081C102.341 117.846 103.108 117.284 102.562 116.368C102.345 116.001 102.124 115.926 101.316 114.874C101.204 114.725 101.028 114.493 101.006 114.163C100.98 113.744 101.215 113.422 101.294 113.325C101.765 112.741 102.599 112.775 102.85 112.782C103.598 112.812 104.129 113.183 104.29 113.306C105.019 113.856 104.952 114.395 105.596 115.563Z" fill="#172B4D"/>
<path d="M70.8629 20.2618C70.5824 20.2805 70.3168 20.0822 70.2532 20.0373C70.1709 19.9774 69.9951 19.8464 70.0176 19.7191C70.0288 19.648 70.0961 19.6144 70.1822 19.5507C70.4253 19.3786 70.4814 19.2439 70.5861 19.1578C70.6797 19.0792 70.9415 18.937 71.6746 19.1877C71.6335 19.7977 71.2482 20.2356 70.8629 20.2618Z" fill="#B19177"/>
<path d="M82.0775 13.9639C82.8742 13.9751 83.6747 13.9863 84.4714 13.9975C84.4415 14.136 84.4116 14.3194 84.4153 14.529C84.4153 14.7273 84.4452 14.9032 84.4751 15.0417C84.4864 15.0978 84.535 15.1353 84.5874 15.1465L85.2644 15.2625C85.2008 15.4459 85.0699 15.734 84.8118 16.0035C84.5275 16.2992 84.232 16.4264 83.9851 16.5312C83.6186 16.6846 83.1099 16.8979 82.4927 16.8119C81.5501 16.6809 80.9965 15.9324 80.873 15.7565C80.974 15.7266 81.1274 15.6704 81.3032 15.5806C81.5987 15.4234 81.9915 15.2138 82.0887 14.8433C82.1224 14.7049 82.1149 14.5327 82.0924 14.1809C82.0924 14.0911 82.085 14.0163 82.0775 13.9639Z" fill="#A27F68"/>
<path d="M81.9085 14.951C82.9932 15.2204 84.0069 14.6778 84.3622 14.4682C84.3772 14.3597 84.4034 14.195 84.4445 13.9966C84.669 12.9263 85.0056 12.597 85.1029 12.0917C85.2562 11.3171 84.841 10.2168 83.8947 9.734C83.0905 9.32233 82.0207 9.42338 81.3175 10.0109C80.82 10.4264 80.6629 10.9578 80.6068 11.1861V12.1741C80.5582 12.2676 80.4721 12.4136 80.3412 12.5708C80.1654 12.7803 80.0457 12.8552 80.0644 12.93C80.0794 12.9937 80.1916 13.0648 80.6741 13.076C80.704 13.3118 80.734 13.4989 80.7639 13.686C80.835 14.1389 80.82 14.2025 80.8537 14.296C81.0108 14.7302 81.6466 14.8873 81.9085 14.951Z" fill="#A27F68"/>
<path d="M80.7758 10.8198C80.9479 11.0593 81.4716 11.0481 81.8419 10.9545C82.4217 10.8048 82.5638 10.4643 82.9229 10.5429C83.0762 10.5765 83.2446 10.6776 83.3231 10.8235C83.4091 10.9732 83.4017 11.1716 83.3904 11.5159C83.3867 11.6469 83.3755 11.733 83.4316 11.8303C83.5027 11.9612 83.5887 11.9425 83.6523 12.0548C83.7645 12.2532 83.5775 12.4515 83.6897 12.59C83.7196 12.6274 83.7832 12.676 83.9328 12.6798C84.0076 12.4478 84.0787 12.2157 84.1535 11.98C84.3518 11.9987 84.4266 12.0623 84.4565 12.1147C84.5425 12.2644 84.3555 12.4478 84.1535 13.0204C84.1049 13.1588 84.0787 13.2299 84.075 13.2936C84.0525 13.6641 84.3742 14.1019 84.6211 14.0982C85.0325 14.0944 85.5001 12.8819 85.4589 11.7891C85.4402 11.3624 85.3954 10.1686 84.4266 9.50245C83.7308 9.02342 82.9304 9.07582 82.6723 9.09453C82.4067 9.11324 81.8494 9.15441 81.3145 9.52865C81.1387 9.65215 80.6412 10.0002 80.5177 10.6065C80.4841 10.7637 80.4878 10.8984 80.4953 10.9919C80.5364 10.7973 80.5925 10.5691 80.6524 10.5728C80.7048 10.5765 80.6973 10.7113 80.7758 10.8198Z" fill="url(#paint20_linear)"/>
<path d="M76.9713 47.9152L81.5459 47.4512V47.6795L76.8516 48.1248L76.9713 47.9152Z" fill="#7A869A"/>
<path d="M76.8516 48.1247L76.9526 47.9488C77.2219 47.4847 77.6745 47.1516 78.2019 47.0394L79.0622 46.856C79.3614 46.7924 79.5859 46.5491 79.627 46.246L79.7542 45.2767L81.4449 45.1719L81.5496 47.6756L76.8516 48.1247Z" fill="#344563"/>
<path d="M78.3476 47.0098L78.198 47.0397C77.6706 47.152 77.218 47.4813 76.9487 47.9491L76.8477 48.125L78.3439 47.9828V47.0098H78.3476Z" fill="#7A869A"/>
<path d="M80.6453 46.8485C80.8064 46.8485 80.937 46.7178 80.937 46.5566C80.937 46.3953 80.8064 46.2646 80.6453 46.2646C80.4841 46.2646 80.3535 46.3953 80.3535 46.5566C80.3535 46.7178 80.4841 46.8485 80.6453 46.8485Z" fill="#7A869A"/>
<path d="M86.3075 30.4942C85.3649 31.4261 83.951 33.1102 81.7254 36.1004C81.8414 39.3264 81.9573 42.5486 82.0733 45.7746L79.0136 45.8757C78.8714 44.2477 78.7218 42.6123 78.5647 40.9618C78.3664 38.8623 78.1532 36.7815 77.9363 34.7194C77.9064 34.4388 77.955 34.1543 78.0822 33.9036C78.6956 32.6985 79.4587 31.3737 80.4162 29.9927C81.2915 28.7315 82.1743 27.6425 83.0047 26.7144L87.6691 26.7031C87.7289 27.1934 87.7551 27.9718 87.4447 28.8101C87.108 29.7195 86.5357 30.2697 86.3075 30.4942Z" fill="url(#paint21_linear)"/>
<path d="M87.8182 27.2456C85.0091 27.2157 82.1963 27.1858 79.3871 27.1521C79.3797 25.6027 79.3684 24.3303 79.361 23.4508C79.346 21.8266 79.3385 21.1043 79.3273 19.7308C79.3161 18.3124 79.3086 17.156 79.3086 16.4C79.7612 16.2167 80.2325 16.0108 80.7188 15.7788C81.0554 15.6179 81.3771 15.4532 81.6876 15.2923C81.7511 15.4495 81.9756 15.9584 82.4843 16.153C83.1538 16.4075 84.0777 16.0183 84.564 15.1201C85.1026 15.1313 85.9442 15.2212 86.8494 15.659C87.1337 15.7975 87.3806 15.9173 87.6013 16.1044C88.6299 16.9839 88.4504 18.8177 88.211 20.9583C88.1175 21.7966 87.9492 22.9456 87.6125 24.2966C87.6761 25.2809 87.7472 26.2614 87.8182 27.2456Z" fill="url(#paint22_linear)"/>
<path d="M72.6692 21.8484L72.4336 20.3589L79.0618 19.2325C79.937 19.1015 80.745 19.6104 80.8684 20.3702C80.8759 20.4488 80.9358 21.0213 80.5019 21.4742C80.1128 21.8821 79.6079 21.8896 79.5218 21.8896C77.2364 21.8746 74.9547 21.8597 72.6692 21.8484Z" fill="#B19177"/>
<path d="M78.1949 21.3439C78.079 21.0894 78.1613 20.7713 78.3857 20.3708C78.9954 19.2818 79.8146 19.0797 81.812 17.8297C81.812 17.8297 83.9852 16.4675 85.2907 16.0296C85.4216 15.9847 85.6311 15.9286 85.8929 15.9061C86.166 15.8836 86.4989 15.9061 86.8542 16.0333C87.0599 16.1082 87.52 16.2803 87.7482 16.6658C88.1559 17.3582 87.621 18.421 87.0487 18.9974C86.7644 19.2855 86.5288 19.3978 85.7208 19.7758C82.7995 21.1306 82.3731 21.2803 81.928 21.415C81.5053 21.5422 80.8993 21.7069 80.1475 21.8454C79.16 21.9876 78.3932 21.793 78.1949 21.3439Z" fill="#B19177"/>
<path d="M73.1073 20.412C73.3467 21.0482 73.2158 21.6246 72.9053 21.7893C72.6285 21.9352 72.2545 21.7369 72.131 21.6695C71.6747 21.4262 71.4989 20.9959 71.4503 20.8574C71.2333 20.7152 70.6722 20.3185 70.747 20.0453C70.7545 20.0153 70.7695 20.0266 70.8667 19.7945C70.9416 19.6074 70.9528 19.5326 71.0388 19.4802C71.1361 19.4165 71.2146 19.4577 71.3343 19.3754C71.4278 19.3118 71.4241 19.2519 71.4802 19.2107C71.6672 19.0685 72.1797 19.4016 72.5013 19.6823C72.6547 19.8245 72.8866 20.0602 73.1073 20.412Z" fill="#B19177"/>
<path d="M87.7467 16.6619C87.5223 16.2764 87.0622 16.1043 86.8528 16.0294C86.5011 15.9022 86.1682 15.8797 85.8914 15.9022C85.6259 15.9246 85.4201 15.9808 85.2892 16.0257C84.5 16.2914 83.4003 16.8902 82.6484 17.3243C83.52 18.1477 84.0287 19.2854 84.1858 20.4755C84.601 20.2846 85.1022 20.0563 85.7156 19.7719C86.5236 19.3976 86.7592 19.2816 87.0435 18.9935C87.6158 18.4171 88.1507 17.3543 87.7467 16.6619Z" fill="#FFC400"/>
<path opacity="0.25" d="M13.5219 159.93C20.9899 159.93 27.0439 158.606 27.0439 156.973C27.0439 155.34 20.9899 154.017 13.5219 154.017C6.05397 154.017 0 155.34 0 156.973C0 158.606 6.05397 159.93 13.5219 159.93Z" fill="url(#paint23_linear)"/>
<path d="M8.47962 157.048L4.75781 156.251L5.26652 153.882C5.64805 154.069 6.03332 154.26 6.41486 154.447C6.456 155.076 6.66921 155.401 6.85998 155.581C7.33502 156.037 7.98961 155.903 8.32251 156.412C8.46465 156.64 8.48336 156.887 8.47962 157.048Z" fill="#172B4D"/>
<path d="M8.52585 156.793L4.65625 155.964L4.6014 156.22L8.47099 157.05L8.52585 156.793Z" fill="#8993A4"/>
<path d="M5.70013 155.502C5.8592 155.502 5.98815 155.373 5.98815 155.214C5.98815 155.055 5.8592 154.926 5.70013 154.926C5.54106 154.926 5.41211 155.055 5.41211 155.214C5.41211 155.373 5.54106 155.502 5.70013 155.502Z" fill="#8993A4"/>
<path d="M24.5682 156.741H20.334V154.05C20.7941 154.069 21.2541 154.091 21.7142 154.11C21.8564 154.997 22.193 155.36 22.4623 155.524C23.0571 155.895 23.7528 155.595 24.2466 156.086C24.456 156.299 24.5346 156.561 24.5682 156.741Z" fill="#172B4D"/>
<path d="M24.6508 156.452H20.252V156.74H24.6508V156.452Z" fill="#8993A4"/>
<path d="M21.2125 155.783C21.3881 155.783 21.5304 155.64 21.5304 155.465C21.5304 155.289 21.3881 155.146 21.2125 155.146C21.0369 155.146 20.8945 155.289 20.8945 155.465C20.8945 155.64 21.0369 155.783 21.2125 155.783Z" fill="#8993A4"/>
<path d="M17.8825 126.035C17.6693 126.109 17.2392 126.225 16.7043 126.147C16.0908 126.057 15.6719 125.761 15.4961 125.615C15.6794 125.391 15.9113 125.058 16.0983 124.616C16.3153 124.1 16.3863 123.636 16.4088 123.321C17.0783 123.434 17.7441 123.55 18.4137 123.662C18.2341 124.455 18.0583 125.245 17.8825 126.035Z" fill="#D4B696"/>
<path d="M19.7604 121.413C19.7529 121.607 19.7566 121.877 19.7941 122.198C19.8165 122.374 19.8389 122.502 19.8464 122.535C19.8876 122.752 19.9661 123.063 20.1157 123.422C19.9699 123.445 19.824 123.467 19.6781 123.49C19.5397 123.946 19.4013 124.403 19.2666 124.859C18.4849 125.02 17.8602 124.953 17.4787 124.882C16.9775 124.784 16.4687 124.687 16.2481 124.298C16.177 124.174 16.1732 124.085 16.1097 123.868C16.0535 123.669 16.0311 123.628 16.0236 123.602C15.9862 123.493 15.9301 123.34 15.8516 123.153C15.9563 123.213 16.1508 123.31 16.4089 123.325C16.5959 123.336 16.8129 123.351 16.955 123.216C17.1757 123.011 17.0186 122.644 17.2168 122.546C17.3029 122.502 17.4188 122.528 17.4862 122.58C17.7031 122.745 17.6021 123.287 17.6021 123.287L17.6096 123.291C17.6133 123.291 17.7106 123.295 17.9949 123.295C18.036 122.962 18.1482 122.745 18.2417 122.61C18.455 122.296 18.6457 122.299 18.8028 121.989C18.9562 121.682 18.8552 121.506 19.0048 121.379C19.1058 121.289 19.3078 121.237 19.7604 121.413Z" fill="#D4B696"/>
<path d="M25.7752 117.543C25.749 117.842 25.8687 118.082 25.8986 118.138C26.0557 118.441 26.5383 119.392 26.8562 119.298C27.0058 119.253 27.0545 118.984 27.0582 118.849C27.0619 118.583 26.729 118.452 26.6767 118.157C26.6654 118.093 26.658 118.059 26.643 117.992C26.6019 117.824 26.5831 117.741 26.5457 117.734C26.4672 117.715 26.4111 117.914 26.2989 117.917C26.1006 117.925 25.9622 117.307 25.85 117.33C25.7939 117.337 25.7789 117.491 25.7752 117.543Z" fill="#D4B696"/>
<path d="M11.6819 132.396C11.3228 133.078 10.975 133.8 10.6421 134.563C9.24312 137.778 8.5399 140.832 8.19577 143.444C7.7544 144.462 7.32424 145.551 6.91652 146.704C5.94025 149.484 5.30811 152.097 4.90039 154.439C5.56994 154.593 6.23949 154.746 6.90904 154.9C8.18829 151.423 9.47129 147.946 10.7505 144.47C10.9525 144.043 11.248 143.407 11.6034 142.636C14.1955 137.026 14.4462 136.023 14.1469 135.009C13.9711 134.406 13.4661 133.358 11.6819 132.396Z" fill="#FFAB00"/>
<path d="M21.9727 93.127H37.0732C42.6503 93.127 47.1688 97.6478 47.1688 103.228V107.794C47.1688 113.374 42.6503 117.894 37.0732 117.894H28.8216C27.3591 117.894 26.0162 118.695 25.3168 119.979L24.0525 122.311L22.6273 119.683C22.0663 118.654 21.0825 117.921 19.9342 117.685C15.3371 116.738 11.8809 112.67 11.8809 107.794V103.228C11.8771 97.6478 16.3994 93.127 21.9727 93.127Z" fill="url(#paint24_linear)"/>
<path d="M38.1512 108.179C36.8234 108.179 35.7461 107.097 35.7461 105.773C35.7461 104.444 36.8271 103.366 38.1512 103.366C39.4754 103.366 40.5564 104.448 40.5564 105.773C40.5564 107.101 39.4791 108.179 38.1512 108.179ZM38.1512 104.291C37.3321 104.291 36.67 104.957 36.67 105.773C36.67 106.588 37.3358 107.255 38.1512 107.255C38.9667 107.255 39.6325 106.588 39.6325 105.773C39.6325 104.957 38.9667 104.291 38.1512 104.291Z" fill="#FAFBFC"/>
<path d="M29.5243 108.179C28.1964 108.179 27.1191 107.097 27.1191 105.773C27.1191 104.444 28.2001 103.366 29.5243 103.366C30.8484 103.366 31.9294 104.448 31.9294 105.773C31.9294 107.101 30.8522 108.179 29.5243 108.179ZM29.5243 104.291C28.7051 104.291 28.043 104.957 28.043 105.773C28.043 106.588 28.7089 107.255 29.5243 107.255C30.3397 107.255 31.0055 106.588 31.0055 105.773C31.0055 104.957 30.3397 104.291 29.5243 104.291Z" fill="#FAFBFC"/>
<path d="M20.8993 108.179C19.5714 108.179 18.4941 107.097 18.4941 105.773C18.4941 104.444 19.5751 103.366 20.8993 103.366C22.2234 103.366 23.3044 104.448 23.3044 105.773C23.3044 107.101 22.2272 108.179 20.8993 108.179ZM20.8993 104.291C20.0801 104.291 19.418 104.957 19.418 105.773C19.418 106.588 20.0839 107.255 20.8993 107.255C21.7147 107.255 22.3805 106.588 22.3805 105.773C22.3805 104.957 21.7185 104.291 20.8993 104.291Z" fill="#FAFBFC"/>
<path d="M27.9455 119.384C27.6874 119.664 26.9805 119.575 26.6102 119.189C26.2885 118.849 26.3147 118.381 26.3222 118.283C26.3446 117.939 26.4867 117.909 26.5765 117.539C26.7635 116.786 26.3596 116.165 26.5316 116.068C26.5728 116.045 26.6551 116.049 26.8234 116.191C26.8496 116.161 26.8907 116.12 26.9431 116.12C27.0553 116.12 27.1376 116.315 27.175 116.405C27.5565 117.325 27.7473 117.789 27.8146 118.089C27.9904 118.856 28.0765 119.245 27.9455 119.384Z" fill="#D4B696"/>
<path d="M27.7242 117.011C27.8214 117.251 27.8065 117.408 27.8252 117.752C27.8738 118.662 28.0496 119.227 27.9823 119.246C27.9411 119.257 27.8626 119.073 27.8214 118.976C27.481 118.175 26.9237 116.476 27.1706 116.371C27.294 116.319 27.5858 116.675 27.7242 117.011Z" fill="#D4B696"/>
<path d="M16.7695 133.556C17.9851 136.479 19.1933 139.855 20.2294 143.657C21.3104 147.62 21.9987 151.284 22.4363 154.522C21.6658 154.525 20.8915 154.533 20.121 154.536C19.7881 153.066 19.4065 151.543 18.9726 149.971C18.3779 147.823 17.7383 145.798 17.0799 143.897C13.8294 140.764 11.6562 138.107 11.0241 136.801C10.7809 136.296 10.3508 135.409 10.6388 134.556C10.6837 134.417 10.8071 134.166 11.0465 133.665C11.2934 133.152 11.5028 132.733 11.645 132.456C12.2435 132.684 12.9205 132.901 13.6723 133.089C14.8244 133.377 15.8755 133.504 16.7695 133.556Z" fill="url(#paint25_linear)"/>
<path d="M13.3124 107.524C13.361 107.842 13.2526 108.104 13.2264 108.168C13.0842 108.505 12.6391 109.553 12.295 109.478C12.1304 109.44 12.0593 109.156 12.0444 109.014C12.0182 108.733 12.3661 108.565 12.3997 108.247C12.4072 108.176 12.4147 108.142 12.4259 108.067C12.4558 107.887 12.4708 107.794 12.5119 107.783C12.5942 107.756 12.669 107.962 12.7925 107.958C13.0057 107.951 13.1067 107.285 13.2264 107.296C13.2787 107.304 13.3049 107.468 13.3124 107.524Z" fill="#D4B696"/>
<path d="M11.3197 109.616C11.5965 109.878 12.296 109.74 12.6364 109.325C12.9356 108.965 12.872 108.497 12.8608 108.404C12.8159 108.063 12.67 108.041 12.5541 107.678C12.3147 106.941 12.6738 106.293 12.4942 106.207C12.4493 106.188 12.3708 106.2 12.21 106.349C12.1838 106.319 12.1351 106.282 12.0828 106.286C11.9706 106.293 11.9032 106.491 11.8733 106.585C11.5591 107.532 11.402 108.007 11.3534 108.31C11.2374 109.096 11.1813 109.489 11.3197 109.616Z" fill="#D4B696"/>
<path d="M11.3755 107.236C11.297 107.483 11.3194 107.636 11.3269 107.98C11.3456 108.894 11.2072 109.466 11.2783 109.481C11.3194 109.489 11.383 109.302 11.4204 109.201C11.7009 108.377 12.1386 106.641 11.8842 106.558C11.7533 106.513 11.4877 106.888 11.3755 107.236Z" fill="#D4B696"/>
<path d="M19.6072 126.15C18.717 126.064 16.7644 125.746 14.9727 124.275C13.5401 123.096 12.8855 121.734 12.5639 121.049C11.8606 119.541 11.6811 118.179 11.6362 117.337C11.9429 115.727 12.2122 114.04 12.4367 112.266C12.5414 111.424 12.6349 110.597 12.7097 109.788C12.1337 109.478 11.5577 109.163 10.9854 108.853C10.6263 110.185 10.2859 111.596 9.97916 113.089C9.63503 114.758 9.36572 116.356 9.15625 117.868C9.30961 119.365 9.73229 121.588 10.9816 123.965C11.6512 125.237 12.403 126.259 13.08 127.041C12.8481 127.842 12.5676 128.691 12.2272 129.578C11.7858 130.735 11.3108 131.783 10.8357 132.714C11.2958 133.148 12.1599 133.852 13.4354 134.275C15.0849 134.825 16.5026 134.612 17.1497 134.47C17.4377 133.762 17.7145 132.999 17.9801 132.179C18.3392 131.064 18.6122 130.005 18.8217 129.024C19.4576 129.095 20.4114 129.14 21.5448 128.949C22.5061 128.789 24.1145 128.519 25.4611 127.318C26.5683 126.334 26.9611 125.196 27.4324 123.834C27.7914 122.804 28.2179 121.15 28.1692 119.017C28.0383 118.957 27.7989 118.871 27.4885 118.879C27.0471 118.89 26.7329 119.096 26.6132 119.182C26.4561 120.065 26.1942 121.124 25.7491 122.28C25.2591 123.557 24.6793 124.604 24.1594 125.413C23.7143 125.649 23.1009 125.914 22.3415 126.083C21.1969 126.337 20.2244 126.255 19.6072 126.15Z" fill="url(#paint26_linear)"/>
</g>
<defs>
<linearGradient id="paint0_linear" x1="84.0713" y1="45.1737" x2="84.0713" y2="26.7125" gradientUnits="userSpaceOnUse">
<stop stop-color="#FFC400"/>
<stop offset="1" stop-color="#FF991F"/>
</linearGradient>
<linearGradient id="paint1_linear" x1="74.4309" y1="148.843" x2="134.634" y2="148.843" gradientUnits="userSpaceOnUse">
<stop stop-color="#091E42"/>
<stop offset="1" stop-color="#091E42" stop-opacity="0.2"/>
</linearGradient>
<linearGradient id="paint2_linear" x1="68.4993" y1="150.531" x2="68.4993" y2="83.2287" gradientUnits="userSpaceOnUse">
<stop offset="0.2151" stop-color="white"/>
<stop offset="1" stop-color="#C1C7D0"/>
</linearGradient>
<linearGradient id="paint3_linear" x1="92.0879" y1="110.038" x2="92.0879" y2="74.2879" gradientUnits="userSpaceOnUse">
<stop stop-color="#FFC400"/>
<stop offset="1" stop-color="#FF991F"/>
</linearGradient>
<linearGradient id="paint4_linear" x1="105.442" y1="117.783" x2="105.442" y2="15.1395" gradientUnits="userSpaceOnUse">
<stop stop-color="#C1C7D0"/>
<stop offset="0.7849" stop-color="white"/>
</linearGradient>
<linearGradient id="paint5_linear" x1="35.4253" y1="24.9794" x2="156.506" y2="124.571" gradientUnits="userSpaceOnUse">
<stop offset="0.2151" stop-color="#C1C7D0" stop-opacity="0"/>
<stop offset="1" stop-color="#C1C7D0"/>
</linearGradient>
<linearGradient id="paint6_linear" x1="124.529" y1="65.3962" x2="195" y2="65.3962" gradientUnits="userSpaceOnUse">
<stop stop-color="#0052CC"/>
<stop offset="1" stop-color="#2684FF"/>
</linearGradient>
<linearGradient id="paint7_linear" x1="132.483" y1="65.3531" x2="190.813" y2="65.3531" gradientUnits="userSpaceOnUse">
<stop stop-color="#0065FF"/>
<stop offset="1" stop-color="#4C9AFF"/>
</linearGradient>
<linearGradient id="paint8_linear" x1="156.01" y1="65.3531" x2="126.844" y2="65.3531" gradientUnits="userSpaceOnUse">
<stop stop-color="#0052CC" stop-opacity="0"/>
<stop offset="0.1284" stop-color="#0052CC" stop-opacity="0.1284"/>
<stop offset="1" stop-color="#0052CC"/>
</linearGradient>
<linearGradient id="paint9_linear" x1="77.072" y1="18.1915" x2="81.9795" y2="18.1915" gradientUnits="userSpaceOnUse">
<stop stop-color="#FFC400"/>
<stop offset="1" stop-color="#FF991F"/>
</linearGradient>
<linearGradient id="paint10_linear" x1="48.631" y1="40.5131" x2="72.1758" y2="16.9805" gradientUnits="userSpaceOnUse">
<stop stop-color="#0065FF"/>
<stop offset="1" stop-color="#4C9AFF"/>
</linearGradient>
<linearGradient id="paint11_linear" x1="46.9635" y1="64.556" x2="55.8854" y2="64.556" gradientUnits="userSpaceOnUse">
<stop stop-color="#36B37E"/>
<stop offset="1" stop-color="#79F2C0"/>
</linearGradient>
<linearGradient id="paint12_linear" x1="47.1714" y1="49.8682" x2="64.728" y2="49.8682" gradientUnits="userSpaceOnUse">
<stop stop-color="#00875A"/>
<stop offset="1" stop-color="#57D9A3"/>
</linearGradient>
<linearGradient id="paint13_linear" x1="101.538" y1="117.533" x2="103.913" y2="117.533" gradientUnits="userSpaceOnUse">
<stop offset="0.3771" stop-color="#F1DBCB"/>
<stop offset="1" stop-color="#EFC7B0"/>
</linearGradient>
<linearGradient id="paint14_linear" x1="102.775" y1="124.096" x2="108.555" y2="124.096" gradientUnits="userSpaceOnUse">
<stop stop-color="#253858"/>
<stop offset="1" stop-color="#344563"/>
</linearGradient>
<linearGradient id="paint15_linear" x1="94.4527" y1="138.432" x2="104.998" y2="138.432" gradientUnits="userSpaceOnUse">
<stop offset="0.3771" stop-color="#F1DBCB"/>
<stop offset="1" stop-color="#EFC7B0"/>
</linearGradient>
<linearGradient id="paint16_linear" x1="94.4509" y1="147.444" x2="97.4881" y2="147.444" gradientUnits="userSpaceOnUse">
<stop stop-color="#253858"/>
<stop offset="1" stop-color="#344563"/>
</linearGradient>
<linearGradient id="paint17_linear" x1="101.366" y1="146.199" x2="103.568" y2="146.199" gradientUnits="userSpaceOnUse">
<stop stop-color="#253858"/>
<stop offset="1" stop-color="#344563"/>
</linearGradient>
<linearGradient id="paint18_linear" x1="100.366" y1="116.087" x2="103.186" y2="116.087" gradientUnits="userSpaceOnUse">
<stop offset="0.3771" stop-color="#F1DBCB"/>
<stop offset="1" stop-color="#EFC7B0"/>
</linearGradient>
<linearGradient id="paint19_linear" x1="91.4282" y1="119.242" x2="106.33" y2="119.242" gradientUnits="userSpaceOnUse">
<stop stop-color="#253858"/>
<stop offset="1" stop-color="#344563"/>
</linearGradient>
<linearGradient id="paint20_linear" x1="82.983" y1="14.099" x2="82.983" y2="9.08555" gradientUnits="userSpaceOnUse">
<stop stop-color="#253858" stop-opacity="0.1"/>
<stop offset="0.7192" stop-color="#253858"/>
</linearGradient>
<linearGradient id="paint21_linear" x1="77.9252" y1="36.2887" x2="87.7066" y2="36.2887" gradientUnits="userSpaceOnUse">
<stop stop-color="#FFF0B2"/>
<stop offset="0.5692" stop-color="#FFC400"/>
</linearGradient>
<linearGradient id="paint22_linear" x1="79.3054" y1="21.1819" x2="88.3879" y2="21.1819" gradientUnits="userSpaceOnUse">
<stop stop-color="#FFC400"/>
<stop offset="0.0847" stop-color="#FFB809"/>
<stop offset="0.2475" stop-color="#FFA715"/>
<stop offset="0.4236" stop-color="#FF9C1D"/>
<stop offset="0.6358" stop-color="#FF991F"/>
</linearGradient>
<linearGradient id="paint23_linear" x1="0" y1="156.973" x2="27.0445" y2="156.973" gradientUnits="userSpaceOnUse">
<stop stop-color="#091E42" stop-opacity="0"/>
<stop offset="1" stop-color="#091E42"/>
</linearGradient>
<linearGradient id="paint24_linear" x1="11.8773" y1="107.718" x2="47.1717" y2="107.718" gradientUnits="userSpaceOnUse">
<stop stop-color="#36B37E"/>
<stop offset="1" stop-color="#79F2C0"/>
</linearGradient>
<linearGradient id="paint25_linear" x1="16.493" y1="154.538" x2="16.493" y2="132.464" gradientUnits="userSpaceOnUse">
<stop stop-color="#FFC400"/>
<stop offset="0.0847" stop-color="#FFB809"/>
<stop offset="0.2475" stop-color="#FFA715"/>
<stop offset="0.4236" stop-color="#FF9C1D"/>
<stop offset="0.6358" stop-color="#FF991F"/>
</linearGradient>
<linearGradient id="paint26_linear" x1="18.6608" y1="134.635" x2="18.6608" y2="108.854" gradientUnits="userSpaceOnUse">
<stop offset="0.4308" stop-color="#FFC400"/>
<stop offset="1" stop-color="#FFF0B2"/>
</linearGradient>
<clipPath id="clip0">
<rect width="195" height="161" fill="white"/>
</clipPath>
</defs>
</svg>
