<svg width="239" height="171" viewBox="0 0 239 171" fill="none" xmlns="http://www.w3.org/2000/svg">
<g filter="url(#filter0_dd)">
<path d="M12.666 6.41641C12.666 5.45005 13.4494 4.66666 14.4158 4.66666H224.386C225.353 4.66666 226.136 5.45005 226.136 6.41641V149.021C226.136 149.988 225.353 150.771 224.386 150.771H14.4158C13.4494 150.771 12.666 149.988 12.666 149.021V6.41641Z" fill="white"/>
<path d="M12.8847 6.41641C12.8847 5.57085 13.5702 4.88538 14.4158 4.88538H224.386C225.232 4.88538 225.918 5.57084 225.918 6.41641V149.021C225.918 149.867 225.232 150.553 224.386 150.553H14.4158C13.5702 150.553 12.8847 149.867 12.8847 149.021V6.41641Z" stroke="#C1C7D0" stroke-width="0.437439"/>
</g>
<path d="M47.334 49.1111H192.223" stroke="#DFE1E6" stroke-width="0.888889" stroke-linecap="round"/>
<line x1="11.8828" y1="26.4905" x2="223.391" y2="26.4905" stroke="#EBECF0" stroke-width="0.436992"/>
<circle cx="19.9353" cy="15.9983" r="1.74976" fill="#DFE1E6"/>
<circle cx="19.9353" cy="15.9983" r="1.74976" fill="#DFE1E6"/>
<circle cx="25.6208" cy="15.9983" r="1.74976" fill="#DFE1E6"/>
<circle cx="25.6208" cy="15.9983" r="1.74976" fill="#DFE1E6"/>
<circle cx="31.3083" cy="15.9983" r="1.74976" fill="#DFE1E6"/>
<circle cx="31.3083" cy="15.9983" r="1.74976" fill="#DFE1E6"/>
<rect x="50.5547" y="10.3114" width="152.229" height="11.3734" rx="3.93695" fill="#F4F5F7"/>
<path d="M57.5522 17.6667H57.993V16.0314C57.993 15.5649 58.2647 15.2522 58.7594 15.2522C59.1772 15.2522 59.3976 15.4957 59.3976 15.9853V17.6667H59.8385V15.8776C59.8385 15.2291 59.4694 14.8549 58.885 14.8549C58.4621 14.8549 58.1725 15.0343 58.0341 15.3393H57.993V13.8066H57.5522V17.6667ZM60.8803 14.1885V14.9036H60.4344V15.2727H60.8803V16.949C60.8803 17.477 61.1085 17.6872 61.6775 17.6872C61.7646 17.6872 61.8492 17.6769 61.9363 17.6615V17.2899C61.8543 17.2976 61.8108 17.3001 61.7313 17.3001C61.4442 17.3001 61.3212 17.1617 61.3212 16.8362V15.2727H61.9363V14.9036H61.3212V14.1885H60.8803ZM62.8398 14.1885V14.9036H62.3938V15.2727H62.8398V16.949C62.8398 17.477 63.0679 17.6872 63.6369 17.6872C63.7241 17.6872 63.8087 17.6769 63.8958 17.6615V17.2899C63.8138 17.2976 63.7702 17.3001 63.6908 17.3001C63.4037 17.3001 63.2807 17.1617 63.2807 16.8362V15.2727H63.8958V14.9036H63.2807V14.1885H62.8398ZM65.9603 14.8549C65.5836 14.8549 65.2529 15.0471 65.0761 15.365H65.0351V14.9036H64.6147V18.5894H65.0556V17.2514H65.0966C65.2478 17.5436 65.5656 17.7154 65.9603 17.7154C66.6626 17.7154 67.1214 17.1489 67.1214 16.2851C67.1214 15.4162 66.6652 14.8549 65.9603 14.8549ZM65.8553 17.3181C65.358 17.3181 65.0427 16.9182 65.0427 16.2851C65.0427 15.6495 65.358 15.2522 65.8578 15.2522C66.3628 15.2522 66.6652 15.6392 66.6652 16.2851C66.6652 16.931 66.3628 17.3181 65.8553 17.3181ZM67.8019 15.6597C67.8019 16.0596 68.0377 16.2826 68.5555 16.4082L69.0296 16.5235C69.3244 16.5953 69.4679 16.7234 69.4679 16.9131C69.4679 17.1668 69.2014 17.3437 68.8297 17.3437C68.476 17.3437 68.2556 17.195 68.1812 16.9618H67.7276C67.7763 17.4206 68.1992 17.7154 68.8143 17.7154C69.4423 17.7154 69.9216 17.3745 69.9216 16.8798C69.9216 16.4825 69.6704 16.2569 69.1501 16.1313L68.7246 16.0288C68.3991 15.9494 68.2453 15.8315 68.2453 15.6418C68.2453 15.3957 68.5016 15.2291 68.8297 15.2291C69.1629 15.2291 69.3782 15.3752 69.4372 15.5957H69.8729C69.8139 15.142 69.4115 14.8549 68.8323 14.8549C68.2453 14.8549 67.8019 15.2009 67.8019 15.6597ZM71.0301 15.7084C71.2146 15.7084 71.3633 15.5572 71.3633 15.3752C71.3633 15.1907 71.2146 15.042 71.0301 15.042C70.8481 15.042 70.6969 15.1907 70.6969 15.3752C70.6969 15.5572 70.8481 15.7084 71.0301 15.7084ZM71.0301 17.6923C71.2146 17.6923 71.3633 17.5411 71.3633 17.3591C71.3633 17.1745 71.2146 17.0259 71.0301 17.0259C70.8481 17.0259 70.6969 17.1745 70.6969 17.3591C70.6969 17.5411 70.8481 17.6923 71.0301 17.6923ZM72.2565 18.4535L73.5893 13.8066H73.2151L71.8823 18.4535H72.2565ZM74.057 18.4535L75.3899 13.8066H75.0156L73.6828 18.4535H74.057ZM75.8781 17.6667H76.3189V15.9545C76.3189 15.5649 76.5983 15.2522 76.9597 15.2522C77.3083 15.2522 77.5364 15.4624 77.5364 15.7905V17.6667H77.9773V15.8904C77.9773 15.5393 78.2336 15.2522 78.6181 15.2522C79.0076 15.2522 79.1999 15.4521 79.1999 15.8597V17.6667H79.6407V15.7571C79.6407 15.1779 79.3255 14.8549 78.7616 14.8549C78.3797 14.8549 78.0644 15.0471 77.9158 15.3393H77.8747C77.7466 15.0523 77.4852 14.8549 77.1109 14.8549C76.7419 14.8549 76.465 15.0318 76.3394 15.3393H76.2984V14.9036H75.8781V17.6667ZM80.6313 18.6663C81.1209 18.6663 81.3413 18.4766 81.5771 17.8358L82.6562 14.9036H82.1871L81.431 17.1771H81.39L80.6313 14.9036H80.1546L81.1773 17.6692L81.126 17.8333C81.0107 18.1665 80.8723 18.2869 80.6185 18.2869C80.557 18.2869 80.4878 18.2844 80.434 18.2741V18.6509C80.4955 18.6611 80.5724 18.6663 80.6313 18.6663ZM85.482 15.7494C85.4051 15.2573 84.995 14.8549 84.3235 14.8549C83.5494 14.8549 83.0573 15.4137 83.0573 16.2749C83.0573 17.154 83.552 17.7154 84.326 17.7154C84.9899 17.7154 85.4025 17.3411 85.482 16.8336H85.036C84.954 17.1463 84.6951 17.3181 84.3235 17.3181C83.8313 17.3181 83.5135 16.9131 83.5135 16.2749C83.5135 15.6495 83.8262 15.2522 84.3235 15.2522C84.7207 15.2522 84.9642 15.4752 85.036 15.7494H85.482ZM87.321 17.7154C88.1079 17.7154 88.5948 17.172 88.5948 16.2851C88.5948 15.3957 88.1079 14.8549 87.321 14.8549C86.5341 14.8549 86.0471 15.3957 86.0471 16.2851C86.0471 17.172 86.5341 17.7154 87.321 17.7154ZM87.321 17.3181C86.7981 17.3181 86.5033 16.9387 86.5033 16.2851C86.5033 15.629 86.7981 15.2522 87.321 15.2522C87.8439 15.2522 88.1386 15.629 88.1386 16.2851C88.1386 16.9387 87.8439 17.3181 87.321 17.3181ZM89.3394 17.6667H89.7802V16.0314C89.7802 15.547 90.0647 15.2522 90.5056 15.2522C90.9465 15.2522 91.1566 15.488 91.1566 15.9853V17.6667H91.5975V15.8776C91.5975 15.2214 91.2515 14.8549 90.6312 14.8549C90.2083 14.8549 89.9391 15.0343 89.8007 15.3393H89.7597V14.9036H89.3394V17.6667ZM92.6419 17.6667H93.0828V15.2727H93.7159V14.9036H93.0828V14.6089C93.0828 14.3064 93.216 14.1526 93.5339 14.1526C93.6133 14.1526 93.6877 14.1552 93.7415 14.1654V13.8066C93.6492 13.7887 93.5518 13.781 93.4442 13.781C92.9187 13.781 92.6419 14.045 92.6419 14.596V14.9036H92.1831V15.2727H92.6419V17.6667ZM94.4373 17.6667H94.8782V13.8066H94.4373V17.6667ZM98.0218 14.9036H97.5809V16.5389C97.5809 17.0233 97.3144 17.3129 96.8274 17.3129C96.3865 17.3129 96.202 17.0823 96.202 16.585V14.9036H95.7611V16.6927C95.7611 17.3463 96.0841 17.7154 96.7044 17.7154C97.1273 17.7154 97.422 17.5411 97.5604 17.2335H97.6014V17.6667H98.0218V14.9036ZM100.735 16.9515C100.619 17.195 100.379 17.3258 100.022 17.3258C99.5532 17.3258 99.2482 16.9797 99.2251 16.4338V16.4133H101.212V16.2441C101.212 15.3855 100.758 14.8549 100.012 14.8549C99.2533 14.8549 98.7663 15.4188 98.7663 16.2877C98.7663 17.1617 99.2456 17.7154 100.012 17.7154C100.617 17.7154 101.048 17.4232 101.176 16.9515H100.735ZM100.007 15.2445C100.445 15.2445 100.737 15.5675 100.748 16.057H99.2251C99.2584 15.5675 99.566 15.2445 100.007 15.2445ZM101.956 17.6667H102.397V16.0314C102.397 15.547 102.681 15.2522 103.122 15.2522C103.563 15.2522 103.773 15.488 103.773 15.9853V17.6667H104.214V15.8776C104.214 15.2214 103.868 14.8549 103.248 14.8549C102.825 14.8549 102.556 15.0343 102.417 15.3393H102.376V14.9036H101.956V17.6667ZM107.36 15.7494C107.283 15.2573 106.873 14.8549 106.202 14.8549C105.428 14.8549 104.936 15.4137 104.936 16.2749C104.936 17.154 105.43 17.7154 106.204 17.7154C106.868 17.7154 107.281 17.3411 107.36 16.8336H106.914C106.832 17.1463 106.573 17.3181 106.202 17.3181C105.71 17.3181 105.392 16.9131 105.392 16.2749C105.392 15.6495 105.705 15.2522 106.202 15.2522C106.599 15.2522 106.843 15.4752 106.914 15.7494H107.36ZM109.894 16.9515C109.779 17.195 109.538 17.3258 109.181 17.3258C108.712 17.3258 108.407 16.9797 108.384 16.4338V16.4133H110.371V16.2441C110.371 15.3855 109.917 14.8549 109.171 14.8549C108.412 14.8549 107.925 15.4188 107.925 16.2877C107.925 17.1617 108.405 17.7154 109.171 17.7154C109.776 17.7154 110.207 17.4232 110.335 16.9515H109.894ZM109.166 15.2445C109.604 15.2445 109.897 15.5675 109.907 16.057H108.384C108.418 15.5675 108.725 15.2445 109.166 15.2445ZM111.479 17.6923C111.664 17.6923 111.812 17.5411 111.812 17.3591C111.812 17.1745 111.664 17.0259 111.479 17.0259C111.297 17.0259 111.146 17.1745 111.146 17.3591C111.146 17.5411 111.297 17.6923 111.479 17.6923ZM113.495 17.7154C113.864 17.7154 114.167 17.5539 114.346 17.2591H114.387V17.6667H114.807V15.7751C114.807 15.2009 114.431 14.8549 113.756 14.8549C113.167 14.8549 112.731 15.1471 112.672 15.5905H113.118C113.18 15.3727 113.41 15.2471 113.741 15.2471C114.154 15.2471 114.367 15.4342 114.367 15.7751V16.0263L113.569 16.075C112.926 16.1134 112.562 16.3979 112.562 16.8926C112.562 17.3975 112.959 17.7154 113.495 17.7154ZM113.577 17.3283C113.257 17.3283 113.018 17.1643 113.018 16.8823C113.018 16.6055 113.203 16.4594 113.623 16.4312L114.367 16.3825V16.6363C114.367 17.031 114.031 17.3283 113.577 17.3283ZM115.859 14.1885V14.9036H115.413V15.2727H115.859V16.949C115.859 17.477 116.088 17.6872 116.657 17.6872C116.744 17.6872 116.828 17.6769 116.915 17.6615V17.2899C116.833 17.2976 116.79 17.3001 116.71 17.3001C116.423 17.3001 116.3 17.1617 116.3 16.8362V15.2727H116.915V14.9036H116.3V14.1885H115.859ZM117.66 17.6667H118.101V13.8066H117.66V17.6667ZM119.778 17.7154C120.147 17.7154 120.45 17.5539 120.629 17.2591H120.67V17.6667H121.091V15.7751C121.091 15.2009 120.714 14.8549 120.04 14.8549C119.45 14.8549 119.015 15.1471 118.956 15.5905H119.402C119.463 15.3727 119.694 15.2471 120.024 15.2471C120.437 15.2471 120.65 15.4342 120.65 15.7751V16.0263L119.853 16.075C119.209 16.1134 118.845 16.3979 118.845 16.8926C118.845 17.3975 119.243 17.7154 119.778 17.7154ZM119.86 17.3283C119.54 17.3283 119.302 17.1643 119.302 16.8823C119.302 16.6055 119.486 16.4594 119.907 16.4312L120.65 16.3825V16.6363C120.65 17.031 120.314 17.3283 119.86 17.3283ZM121.894 15.6597C121.894 16.0596 122.13 16.2826 122.648 16.4082L123.122 16.5235C123.417 16.5953 123.56 16.7234 123.56 16.9131C123.56 17.1668 123.294 17.3437 122.922 17.3437C122.568 17.3437 122.348 17.195 122.274 16.9618H121.82C121.869 17.4206 122.291 17.7154 122.907 17.7154C123.535 17.7154 124.014 17.3745 124.014 16.8798C124.014 16.4825 123.763 16.2569 123.242 16.1313L122.817 16.0288C122.491 15.9494 122.338 15.8315 122.338 15.6418C122.338 15.3957 122.594 15.2291 122.922 15.2291C123.255 15.2291 123.47 15.3752 123.529 15.5957H123.965C123.906 15.142 123.504 14.8549 122.925 14.8549C122.338 14.8549 121.894 15.2009 121.894 15.6597ZM124.643 15.6597C124.643 16.0596 124.879 16.2826 125.397 16.4082L125.871 16.5235C126.166 16.5953 126.309 16.7234 126.309 16.9131C126.309 17.1668 126.043 17.3437 125.671 17.3437C125.317 17.3437 125.097 17.195 125.022 16.9618H124.569C124.617 17.4206 125.04 17.7154 125.656 17.7154C126.283 17.7154 126.763 17.3745 126.763 16.8798C126.763 16.4825 126.512 16.2569 125.991 16.1313L125.566 16.0288C125.24 15.9494 125.086 15.8315 125.086 15.6418C125.086 15.3957 125.343 15.2291 125.671 15.2291C126.004 15.2291 126.219 15.3752 126.278 15.5957H126.714C126.655 15.142 126.253 14.8549 125.673 14.8549C125.086 14.8549 124.643 15.2009 124.643 15.6597ZM127.738 14.3705C127.907 14.3705 128.046 14.2321 128.046 14.0629C128.046 13.8937 127.907 13.7553 127.738 13.7553C127.569 13.7553 127.43 13.8937 127.43 14.0629C127.43 14.2321 127.569 14.3705 127.738 14.3705ZM127.518 17.6667H127.958V14.9036H127.518V17.6667ZM129.621 17.7154C129.99 17.7154 130.292 17.5539 130.472 17.2591H130.513V17.6667H130.933V15.7751C130.933 15.2009 130.556 14.8549 129.882 14.8549C129.292 14.8549 128.857 15.1471 128.798 15.5905H129.244C129.305 15.3727 129.536 15.2471 129.867 15.2471C130.279 15.2471 130.492 15.4342 130.492 15.7751V16.0263L129.695 16.075C129.052 16.1134 128.688 16.3979 128.688 16.8926C128.688 17.3975 129.085 17.7154 129.621 17.7154ZM129.703 17.3283C129.382 17.3283 129.144 17.1643 129.144 16.8823C129.144 16.6055 129.328 16.4594 129.749 16.4312L130.492 16.3825V16.6363C130.492 17.031 130.156 17.3283 129.703 17.3283ZM131.8 17.6667H132.241V16.0314C132.241 15.547 132.526 15.2522 132.967 15.2522C133.408 15.2522 133.618 15.488 133.618 15.9853V17.6667H134.059V15.8776C134.059 15.2214 133.713 14.8549 133.092 14.8549C132.669 14.8549 132.4 15.0343 132.262 15.3393H132.221V14.9036H131.8V17.6667ZM135.282 17.6923C135.467 17.6923 135.616 17.5411 135.616 17.3591C135.616 17.1745 135.467 17.0259 135.282 17.0259C135.1 17.0259 134.949 17.1745 134.949 17.3591C134.949 17.5411 135.1 17.6923 135.282 17.6923ZM136.529 17.6667H136.97V16.0314C136.97 15.547 137.255 15.2522 137.696 15.2522C138.136 15.2522 138.347 15.488 138.347 15.9853V17.6667H138.787V15.8776C138.787 15.2214 138.441 14.8549 137.821 14.8549C137.398 14.8549 137.129 15.0343 136.991 15.3393H136.95V14.9036H136.529V17.6667ZM141.477 16.9515C141.362 17.195 141.121 17.3258 140.765 17.3258C140.296 17.3258 139.991 16.9797 139.968 16.4338V16.4133H141.954V16.2441C141.954 15.3855 141.5 14.8549 140.755 14.8549C139.996 14.8549 139.509 15.4188 139.509 16.2877C139.509 17.1617 139.988 17.7154 140.755 17.7154C141.359 17.7154 141.79 17.4232 141.918 16.9515H141.477ZM140.749 15.2445C141.188 15.2445 141.48 15.5675 141.49 16.057H139.968C140.001 15.5675 140.309 15.2445 140.749 15.2445ZM142.883 14.1885V14.9036H142.437V15.2727H142.883V16.949C142.883 17.477 143.111 17.6872 143.68 17.6872C143.767 17.6872 143.852 17.6769 143.939 17.6615V17.2899C143.857 17.2976 143.814 17.3001 143.734 17.3001C143.447 17.3001 143.324 17.1617 143.324 16.8362V15.2727H143.939V14.9036H143.324V14.1885H142.883Z" fill="#97A0AF"/>
<rect x="57.998" y="55.3333" width="135.111" height="7.11111" rx="1.74976" fill="#B3D4FF"/>
<rect x="57.9004" y="67.7778" width="135.111" height="7.11111" rx="1.74976" fill="#F4F5F7"/>
<rect x="57.9004" y="67.7778" width="135.111" height="7.11111" rx="1.74976" fill="#F4F5F7"/>
<rect x="57.998" y="80.2222" width="135.111" height="7.11111" rx="1.74976" fill="#B3D4FF"/>
<rect x="57.9004" y="92.6667" width="135.111" height="7.11111" rx="1.74976" fill="#F4F5F7"/>
<rect x="57.9004" y="92.6667" width="135.111" height="7.11111" rx="1.74976" fill="#F4F5F7"/>
<rect x="57.998" y="105.111" width="135.111" height="7.11111" rx="1.74976" fill="#B3D4FF"/>
<rect x="57.998" y="117.556" width="135.111" height="7.11111" rx="1.74976" fill="#B3D4FF"/>
<rect x="57.998" y="130" width="135.111" height="7.11111" rx="1.74976" fill="#F4F5F7"/>
<rect x="57.998" y="130" width="135.111" height="7.11111" rx="1.74976" fill="#F4F5F7"/>
<rect x="57.998" y="142.444" width="135.111" height="7.11111" rx="1.74976" fill="#B3D4FF"/>
<rect x="47.332" y="55.3333" width="7.11111" height="7.11111" rx="0.888889" fill="#0065FF"/>
<rect width="7.11111" height="7.11111" transform="translate(47.332 55.3333)" fill="white" fill-opacity="0.01"/>
<path d="M49.3266 58.9843C49.2731 58.9274 49.1993 58.8939 49.1213 58.8911C49.0432 58.8884 48.9673 58.9165 48.9099 58.9695C48.8525 59.0224 48.8183 59.0959 48.8148 59.1739C48.8112 59.2519 48.8387 59.3281 48.8911 59.3861L49.9613 60.5472C50.1204 60.7031 50.3574 60.7031 50.5047 60.5561L50.6125 60.4498C51.002 60.0667 51.3911 59.6832 51.7796 59.2992L51.7915 59.2874C52.1547 58.9295 52.516 58.5697 52.8754 58.208C52.9291 58.1517 52.9585 58.0766 52.9574 57.9989C52.9562 57.9211 52.9245 57.8469 52.8691 57.7923C52.8137 57.7377 52.7391 57.7071 52.6613 57.707C52.5836 57.707 52.5089 57.7375 52.4534 57.792C52.0957 58.1518 51.7362 58.5098 51.3749 58.8661L51.3631 58.8779C50.9907 59.246 50.6179 59.6136 50.2445 59.9807L49.3266 58.9843Z" fill="white"/>
<rect x="47.332" y="80.2222" width="7.11111" height="7.11111" rx="0.888889" fill="#0065FF"/>
<rect width="7.11111" height="7.11111" transform="translate(47.332 80.2222)" fill="white" fill-opacity="0.01"/>
<path d="M49.3266 83.8732C49.2731 83.8163 49.1993 83.7828 49.1213 83.78C49.0432 83.7772 48.9673 83.8054 48.9099 83.8583C48.8525 83.9113 48.8183 83.9848 48.8148 84.0628C48.8112 84.1408 48.8387 84.217 48.8911 84.2749L49.9613 85.4361C50.1204 85.592 50.3574 85.592 50.5047 85.445L50.6125 85.3386C51.002 84.9556 51.3911 84.5721 51.7796 84.1881L51.7915 84.1763C52.1547 83.8184 52.516 83.4586 52.8754 83.0969C52.9291 83.0406 52.9585 82.9655 52.9574 82.8878C52.9562 82.81 52.9245 82.7358 52.8691 82.6812C52.8137 82.6266 52.7391 82.596 52.6613 82.5959C52.5836 82.5958 52.5089 82.6264 52.4534 82.6809C52.0957 83.0407 51.7362 83.3987 51.3749 83.7549L51.3631 83.7668C50.9907 84.1349 50.6179 84.5025 50.2445 84.8696L49.3266 83.8732Z" fill="white"/>
<rect x="47.332" y="105.111" width="7.11111" height="7.11111" rx="0.888889" fill="#0065FF"/>
<rect width="7.11111" height="7.11111" transform="translate(47.332 105.111)" fill="white" fill-opacity="0.01"/>
<path d="M49.3266 108.762C49.2731 108.705 49.1993 108.672 49.1213 108.669C49.0432 108.666 48.9673 108.694 48.9099 108.747C48.8525 108.8 48.8183 108.874 48.8148 108.952C48.8112 109.03 48.8387 109.106 48.8911 109.164L49.9613 110.325C50.1204 110.481 50.3574 110.481 50.5047 110.334L50.6125 110.228C51.002 109.844 51.3911 109.461 51.7796 109.077L51.7915 109.065C52.1547 108.707 52.516 108.347 52.8754 107.986C52.9291 107.93 52.9585 107.854 52.9574 107.777C52.9562 107.699 52.9245 107.625 52.8691 107.57C52.8137 107.516 52.7391 107.485 52.6613 107.485C52.5836 107.485 52.5089 107.515 52.4534 107.57C52.0957 107.93 51.7362 108.288 51.3749 108.644L51.3631 108.656C50.9907 109.024 50.6179 109.391 50.2445 109.758L49.3266 108.762Z" fill="white"/>
<rect x="47.332" y="117.556" width="7.11111" height="7.11111" rx="0.888889" fill="#0065FF"/>
<rect width="7.11111" height="7.11111" transform="translate(47.332 117.556)" fill="white" fill-opacity="0.01"/>
<path d="M49.3266 121.207C49.2731 121.15 49.1993 121.116 49.1213 121.113C49.0432 121.111 48.9673 121.139 48.9099 121.192C48.8525 121.245 48.8183 121.318 48.8148 121.396C48.8112 121.474 48.8387 121.55 48.8911 121.608L49.9613 122.769C50.1204 122.925 50.3574 122.925 50.5047 122.778L50.6125 122.672C51.002 122.289 51.3911 121.905 51.7796 121.521L51.7915 121.51C52.1547 121.152 52.516 120.792 52.8754 120.43C52.9291 120.374 52.9585 120.299 52.9574 120.221C52.9562 120.143 52.9245 120.069 52.8691 120.015C52.8137 119.96 52.7391 119.929 52.6613 119.929C52.5836 119.929 52.5089 119.96 52.4534 120.014C52.0957 120.374 51.7362 120.732 51.3749 121.088L51.3631 121.1C50.9907 121.468 50.6179 121.836 50.2445 122.203L49.3266 121.207Z" fill="white"/>
<rect x="47.332" y="142.444" width="7.11111" height="7.11111" rx="0.888889" fill="#0065FF"/>
<rect width="7.11111" height="7.11111" transform="translate(47.332 142.444)" fill="white" fill-opacity="0.01"/>
<path d="M49.3266 146.095C49.2731 146.038 49.1993 146.005 49.1213 146.002C49.0432 145.999 48.9673 146.028 48.9099 146.081C48.8525 146.134 48.8183 146.207 48.8148 146.285C48.8112 146.363 48.8387 146.439 48.8911 146.497L49.9613 147.658C50.1204 147.814 50.3574 147.814 50.5047 147.667L50.6125 147.561C51.002 147.178 51.3911 146.794 51.7796 146.41L51.7915 146.398C52.1547 146.041 52.516 145.681 52.8754 145.319C52.9291 145.263 52.9585 145.188 52.9574 145.11C52.9562 145.032 52.9245 144.958 52.8691 144.903C52.8137 144.849 52.7391 144.818 52.6613 144.818C52.5836 144.818 52.5089 144.849 52.4534 144.903C52.0957 145.263 51.7362 145.621 51.3749 145.977L51.3631 145.989C50.9907 146.357 50.6179 146.725 50.2445 147.092L49.3266 146.095Z" fill="white"/>
<rect x="47.7765" y="68.2222" width="6.22222" height="6.22222" rx="0.444444" fill="white" stroke="#A3AEBD" stroke-width="0.888889"/>
<rect x="47.7765" y="93.1111" width="6.22222" height="6.22222" rx="0.444444" fill="white" stroke="#A3AEBD" stroke-width="0.888889"/>
<rect x="47.7765" y="130.444" width="6.22222" height="6.22222" rx="0.444444" fill="white" stroke="#A3AEBD" stroke-width="0.888889"/>
<rect x="65.998" y="34" width="14.2222" height="10.6667" rx="1.74976" fill="#EBECF0"/>
<rect width="8.88889" height="8.88889" transform="translate(68.6641 34.8889)" fill="white" fill-opacity="0.01"/>
<path fill-rule="evenodd" clip-rule="evenodd" d="M75.7013 36H70.4606C70.2739 36.014 70.0995 36.0982 69.9724 36.2357C69.8452 36.3731 69.7749 36.5535 69.7754 36.7407V38.2222H70.1458V42.0926C70.1572 42.2554 70.2325 42.4071 70.3553 42.5147C70.4781 42.6222 70.6384 42.6768 70.8013 42.6667H75.4161C75.579 42.6768 75.7394 42.6222 75.8622 42.5147C75.985 42.4071 76.0603 42.2554 76.0717 42.0926V38.2222H76.4421V36.7407C76.4421 36.5443 76.364 36.3559 76.2251 36.217C76.0862 36.078 75.8978 36 75.7013 36V36ZM75.3309 41.9259H70.8865V38.2222H75.3309V41.9259ZM75.7013 37.4815H70.5161V36.7407H75.7013V37.4815ZM74.2198 40.0741H71.9976V39.3333H74.2198V40.0741Z" fill="#42526E"/>
<path d="M60.1612 41.9896C61.2376 41.9896 61.9599 41.2882 61.9599 40.2396C61.9599 39.2604 61.3175 38.5799 60.3904 38.5799C59.9321 38.5799 59.5605 38.7465 59.3349 39.0521H59.2758L59.3974 37.5937H61.6647V36.8785H58.7307L58.4876 39.7465H59.2932C59.4807 39.4201 59.7932 39.25 60.189 39.25C60.7654 39.25 61.1578 39.6562 61.1578 40.2604C61.1578 40.8611 60.7689 41.2639 60.189 41.2639C59.6751 41.2639 59.2862 40.9549 59.2307 40.5035H58.4182C58.4564 41.3889 59.1612 41.9896 60.1612 41.9896Z" fill="#0747A6"/>
<rect x="47.7765" y="36.2222" width="6.22222" height="6.22222" rx="0.444444" fill="#B3D4FF" stroke="#0065FF" stroke-width="0.888889"/>
<path d="M49.1094 39.3333H52.6649" stroke="#0065FF" stroke-width="0.888889" stroke-linecap="round"/>
<g clip-path="url(#clip0)">
<rect width="15.1967" height="15.1967" transform="translate(19.7422 26.5009)" fill="white" fill-opacity="0.01"/>
<path d="M22.3755 36.4901C22.2733 36.6702 22.137 36.8667 22.0349 37.0305C21.9327 37.1779 21.9838 37.3744 22.1541 37.4726L24.368 38.7827C24.5383 38.8809 24.7427 38.8318 24.8449 38.6681C24.93 38.5207 25.0492 38.3405 25.1684 38.144C26.054 36.7521 26.9226 36.9159 28.5234 37.6528L30.7204 38.6517C30.8907 38.7336 31.095 38.6517 31.1802 38.4879L32.2361 36.1953C32.3042 36.0316 32.2361 35.8351 32.0658 35.7696C31.6059 35.5567 30.6863 35.1473 29.8518 34.7543C26.8545 33.3787 24.3169 33.4606 22.3755 36.4901Z" fill="url(#paint0_linear)"/>
<path d="M32.3033 31.299C32.4054 31.1188 32.5417 30.9223 32.6439 30.7586C32.7461 30.6112 32.695 30.4147 32.5247 30.3164L30.3107 29.0064C30.1404 28.9081 29.936 28.9572 29.8339 29.121C29.7487 29.2684 29.6295 29.4485 29.5103 29.645C28.6247 31.037 27.7561 30.8732 26.1553 30.1363L23.9754 29.121C23.8051 29.0391 23.6007 29.121 23.5156 29.2848L22.4597 31.5774C22.3916 31.7411 22.4597 31.9376 22.63 32.0031C23.0898 32.216 24.0095 32.6254 24.844 33.0184C27.8243 34.4104 30.3618 34.3285 32.3033 31.299Z" fill="url(#paint1_linear)"/>
</g>
<defs>
<filter id="filter0_dd" x="0.666016" y="0.666656" width="237.47" height="170.105" filterUnits="userSpaceOnUse" color-interpolation-filters="sRGB">
<feFlood flood-opacity="0" result="BackgroundImageFix"/>
<feColorMatrix in="SourceAlpha" type="matrix" values="0 0 0 0 0 0 0 0 0 0 0 0 0 0 0 0 0 0 127 0"/>
<feOffset/>
<feGaussianBlur stdDeviation="0.5"/>
<feColorMatrix type="matrix" values="0 0 0 0 0.0352941 0 0 0 0 0.117647 0 0 0 0 0.258824 0 0 0 0.31 0"/>
<feBlend mode="normal" in2="BackgroundImageFix" result="effect1_dropShadow"/>
<feColorMatrix in="SourceAlpha" type="matrix" values="0 0 0 0 0 0 0 0 0 0 0 0 0 0 0 0 0 0 127 0"/>
<feOffset dy="8"/>
<feGaussianBlur stdDeviation="6"/>
<feColorMatrix type="matrix" values="0 0 0 0 0.0352941 0 0 0 0 0.117647 0 0 0 0 0.258824 0 0 0 0.15 0"/>
<feBlend mode="normal" in2="effect1_dropShadow" result="effect2_dropShadow"/>
<feBlend mode="normal" in="SourceGraphic" in2="effect2_dropShadow" result="shape"/>
</filter>
<linearGradient id="paint0_linear" x1="32.165" y1="39.4627" x2="25.5996" y2="35.5392" gradientUnits="userSpaceOnUse">
<stop stop-color="#0052CC"/>
<stop offset="0.9182" stop-color="#2380FB"/>
<stop offset="1" stop-color="#2684FF"/>
</linearGradient>
<linearGradient id="paint1_linear" x1="22.5228" y1="28.3249" x2="29.0881" y2="32.2483" gradientUnits="userSpaceOnUse">
<stop stop-color="#0052CC"/>
<stop offset="0.9182" stop-color="#2380FB"/>
<stop offset="1" stop-color="#2684FF"/>
</linearGradient>
<clipPath id="clip0">
<rect width="16.8972" height="16.8972" fill="white" transform="translate(19.7422 26.5009)"/>
</clipPath>
</defs>
</svg>
