<svg width="153" height="166" viewBox="0 0 153 166" fill="none" xmlns="http://www.w3.org/2000/svg">
<g clip-path="url(#clip0)">
<rect width="153" height="166" fill="white" fill-opacity="0.01"/>
<path d="M139.843 12.7868H13.1571C5.89061 12.7868 0 18.6886 0 25.9689V152.865C0 160.145 5.89061 166.047 13.1571 166.047H139.843C147.109 166.047 153 160.145 153 152.865V25.9689C153 18.6886 147.109 12.7868 139.843 12.7868Z" fill="#ECEEF1"/>
<g style="mix-blend-mode:multiply" opacity="0.1">
<g style="mix-blend-mode:multiply" opacity="0.5">
<path d="M152.922 143.187H0.394531V144.766H152.922V143.187Z" fill="#091E42"/>
</g>
<g style="mix-blend-mode:multiply" opacity="0.5">
<path d="M152.922 121.401H0.394531V122.98H152.922V121.401Z" fill="#091E42"/>
</g>
<g style="mix-blend-mode:multiply" opacity="0.5">
<path d="M152.922 99.5363H0.394531V101.115H152.922V99.5363Z" fill="#091E42"/>
</g>
<g style="mix-blend-mode:multiply" opacity="0.5">
<path d="M152.922 77.6713H0.394531V79.25H152.922V77.6713Z" fill="#091E42"/>
</g>
<g style="mix-blend-mode:multiply" opacity="0.5">
<path d="M152.922 55.8853H0.394531V57.464H152.922V55.8853Z" fill="#091E42"/>
</g>
<g style="mix-blend-mode:multiply" opacity="0.5">
<path d="M152.922 34.0203H0.394531V35.599H152.922V34.0203Z" fill="#091E42"/>
</g>
<g style="mix-blend-mode:multiply" opacity="0.5">
<path d="M131.964 12.9447H130.389V165.794H131.964V12.9447Z" fill="#091E42"/>
</g>
<g style="mix-blend-mode:multiply" opacity="0.5">
<path d="M110.142 12.9447H108.566V165.794H110.142V12.9447Z" fill="#091E42"/>
</g>
<g style="mix-blend-mode:multiply" opacity="0.5">
<path d="M88.398 12.9447H86.8223V165.794H88.398V12.9447Z" fill="#091E42"/>
</g>
<g style="mix-blend-mode:multiply" opacity="0.5">
<path d="M66.5737 12.9447H64.998V165.794H66.5737V12.9447Z" fill="#091E42"/>
</g>
<g style="mix-blend-mode:multiply" opacity="0.5">
<path d="M44.7495 12.9447H43.1738V165.794H44.7495V12.9447Z" fill="#091E42"/>
</g>
<g style="mix-blend-mode:multiply" opacity="0.5">
<path d="M23.0054 12.9447H21.4297V165.794H23.0054V12.9447Z" fill="#091E42"/>
</g>
</g>
<path d="M106.517 86.5119L80.7544 107.193L55.1493 106.64L29.4655 129.058L0 129.453V152.817C0 156.313 1.38619 159.666 3.85361 162.138C6.32104 164.611 9.66759 165.999 13.1571 165.999H139.764C143.261 165.999 146.616 164.613 149.096 162.143C151.576 159.673 152.979 156.321 153 152.817V72.4615L132.122 87.696L106.517 86.5119Z" fill="url(#paint0_linear)"/>
<path d="M128.734 76.4872L102.814 75.3032L76.9727 96.142L51.1313 95.5105L25.2899 118.086L0 118.402V129.453L29.4655 129.058L55.1493 106.64L80.7544 107.193L106.517 86.5119L132.122 87.696L153 72.4615V58.7269L152.764 58.9637L128.734 76.4872Z" fill="#0065FF"/>
<path d="M13.3146 12.7868H139.607C143.138 12.7868 146.524 14.1923 149.021 16.694C151.518 19.1957 152.921 22.5888 152.921 26.1268V36.0726H0V26.1268C0 22.5888 1.40279 19.1957 3.89976 16.694C6.39674 14.1923 9.78337 12.7868 13.3146 12.7868Z" fill="url(#paint1_linear)"/>
<path d="M73.5063 28.1791C75.856 28.1791 77.7607 26.2707 77.7607 23.9166C77.7607 21.5625 75.856 19.6541 73.5063 19.6541C71.1567 19.6541 69.252 21.5625 69.252 23.9166C69.252 26.2707 71.1567 28.1791 73.5063 28.1791Z" fill="#344563"/>
<path d="M124.559 28.1791C126.909 28.1791 128.813 26.2707 128.813 23.9166C128.813 21.5625 126.909 19.6541 124.559 19.6541C122.209 19.6541 120.305 21.5625 120.305 23.9166C120.305 26.2707 122.209 28.1791 124.559 28.1791Z" fill="#344563"/>
<path d="M22.3755 28.1791C24.7251 28.1791 26.6298 26.2707 26.6298 23.9166C26.6298 21.5625 24.7251 19.6541 22.3755 19.6541C20.0258 19.6541 18.1211 21.5625 18.1211 23.9166C18.1211 26.2707 20.0258 28.1791 22.3755 28.1791Z" fill="#344563"/>
<path d="M87.2138 12.7878H83.9048C83.9048 7.41716 79.6504 3.02302 74.4506 3.02302C69.2508 3.02302 64.9965 7.41716 64.9965 12.7878H61.6875C61.6875 5.54558 67.4388 -0.394653 74.4506 -0.394653C81.4625 -0.394653 87.2138 5.54558 87.2138 12.7878Z" fill="#F4F5F7"/>
<path d="M74.4506 25.9699C67.4388 25.9699 61.6875 20.0297 61.6875 12.7875H64.9965C64.9965 18.1581 69.2508 22.5522 74.4506 22.5522V25.9699Z" fill="url(#paint2_linear)"/>
<path d="M138.267 12.7878H134.958C134.958 7.41716 130.703 3.02302 125.503 3.02302C120.304 3.02302 116.049 7.41716 116.049 12.7878H112.74C112.74 5.54558 118.492 -0.394653 125.503 -0.394653C132.515 -0.394653 138.267 5.54558 138.267 12.7878Z" fill="#F4F5F7"/>
<path d="M125.503 25.9699C118.492 25.9699 112.74 20.0297 112.74 12.7875H116.049C116.049 18.1581 120.304 22.5522 125.503 22.5522V25.9699Z" fill="url(#paint3_linear)"/>
<path d="M36.0829 12.7878H32.7739C32.7739 7.41716 28.5196 3.02302 23.3198 3.02302C18.12 3.02302 13.8656 7.41716 13.8656 12.7878H10.5566C10.5566 5.54558 16.3079 -0.394653 23.3198 -0.394653C30.3316 -0.394653 36.0829 5.54558 36.0829 12.7878Z" fill="#F4F5F7"/>
<path d="M23.3198 25.9699C16.3079 25.9699 10.5566 20.0297 10.5566 12.7875H13.8656C13.8656 18.1581 18.12 22.5522 23.3198 22.5522V25.9699Z" fill="url(#paint4_linear)"/>
</g>
<defs>
<linearGradient id="paint0_linear" x1="90.1692" y1="190.998" x2="69.1033" y2="71.7175" gradientUnits="userSpaceOnUse">
<stop offset="0.28" stop-color="#B2D4FF" stop-opacity="0"/>
<stop offset="0.95" stop-color="#4C9AFF"/>
</linearGradient>
<linearGradient id="paint1_linear" x1="34.3659" y1="70.5434" x2="118.755" y2="-13.6773" gradientUnits="userSpaceOnUse">
<stop stop-color="#FF5230"/>
<stop offset="1" stop-color="#FF7143"/>
</linearGradient>
<linearGradient id="paint2_linear" x1="74.4329" y1="19.365" x2="61.6784" y2="19.365" gradientUnits="userSpaceOnUse">
<stop offset="0.075641" stop-color="#344563"/>
<stop offset="0.6102" stop-color="#C3C9D2"/>
<stop offset="0.787" stop-color="#F4F5F7"/>
</linearGradient>
<linearGradient id="paint3_linear" x1="125.542" y1="19.365" x2="112.788" y2="19.365" gradientUnits="userSpaceOnUse">
<stop offset="0.075641" stop-color="#344563"/>
<stop offset="0.6102" stop-color="#C3C9D2"/>
<stop offset="0.787" stop-color="#F4F5F7"/>
</linearGradient>
<linearGradient id="paint4_linear" x1="23.324" y1="19.365" x2="10.57" y2="19.365" gradientUnits="userSpaceOnUse">
<stop offset="0.075641" stop-color="#344563"/>
<stop offset="0.6102" stop-color="#C3C9D2"/>
<stop offset="0.787" stop-color="#F4F5F7"/>
</linearGradient>
<clipPath id="clip0">
<rect width="153" height="166" fill="white"/>
</clipPath>
</defs>
</svg>
