<svg width="203" height="163" viewBox="0 0 203 163" fill="none" xmlns="http://www.w3.org/2000/svg">
<g clip-path="url(#clip0)">
<path d="M43.7728 135.335L16.9121 126.318L46.8116 36.8517C48.3674 32.2065 51.2404 28.1164 55.0792 25.0813C58.918 22.0462 63.5562 20.1978 68.4267 19.762C73.2971 19.3263 78.1888 20.322 82.5035 22.6276C86.8182 24.9331 90.3689 28.4486 92.7214 32.744L111.173 66.4152L86.3156 80.1299L71.3743 52.8101L43.7728 135.335Z" fill="url(#paint0_linear)"/>
<path d="M50.7762 114.121H27.7792C27.004 114.122 26.2399 113.937 25.5506 113.581C24.8612 113.226 24.2665 112.711 23.8161 112.079C23.3656 111.447 23.0724 110.716 22.9608 109.947C22.8492 109.179 22.9226 108.395 23.1747 107.66L26.2387 98.5928L53.0321 107.5L50.7762 114.121Z" fill="#B3BAC5"/>
<path d="M172.563 109.802L64.0761 108.723L30.9863 108.394C30.2987 108.387 29.6192 108.245 28.9865 107.975C28.3537 107.705 27.7803 107.313 27.2988 106.821C26.8173 106.33 26.4372 105.747 26.1802 105.108C25.9232 104.469 25.7944 103.786 25.801 103.097L26.3145 50.8018C26.3156 50.1078 26.4537 49.4209 26.7207 48.7805C26.9878 48.1401 27.3787 47.559 27.8708 47.0706C28.3629 46.5823 28.9465 46.1962 29.5881 45.9347C30.2297 45.6732 30.9166 45.5415 31.6092 45.547L173.144 46.9556C173.835 46.9611 174.519 47.104 175.155 47.376C175.791 47.648 176.366 48.0438 176.849 48.5404C177.331 49.037 177.71 49.6245 177.964 50.269C178.218 50.9134 178.342 51.602 178.329 52.2948L177.815 104.59C177.804 105.978 177.246 107.305 176.262 108.281C175.277 109.258 173.948 109.805 172.563 109.802Z" fill="#EBECF0"/>
<path d="M77.6208 54.0428L38.5396 53.6532C36.4337 53.6323 34.7096 55.3258 34.6886 57.436L34.2998 96.5962C34.2789 98.7063 35.969 100.434 38.0749 100.455L77.1561 100.845C79.262 100.865 80.9861 99.1719 81.007 97.0618L81.3958 57.9016C81.4168 55.7914 79.7266 54.0638 77.6208 54.0428Z" stroke="#B2D4FF" stroke-width="4.2" stroke-miterlimit="10"/>
<path d="M53.091 89.3322L42.1481 78.1562C42.0097 78.0197 41.8997 77.8568 41.8246 77.6773C41.7496 77.4977 41.7109 77.305 41.7109 77.1103C41.7109 76.9156 41.7496 76.7229 41.8246 76.5434C41.8997 76.3638 42.0097 76.201 42.1481 76.0644L46.0623 72.2182C46.1992 72.0805 46.3618 71.9712 46.541 71.8967C46.7201 71.8221 46.9121 71.7837 47.1061 71.7837C47.3001 71.7837 47.4921 71.8221 47.6712 71.8967C47.8504 71.9712 48.013 72.0805 48.1499 72.2182L54.2443 78.443L67.7125 65.2343C67.8494 65.0966 68.012 64.9873 68.1912 64.9127C68.3703 64.8382 68.5623 64.7998 68.7563 64.7998C68.9503 64.7998 69.1423 64.8382 69.3214 64.9127C69.5005 64.9873 69.6632 65.0966 69.8001 65.2343L73.6217 69.1649C73.8967 69.4415 74.0511 69.8161 74.0511 70.2065C74.0511 70.597 73.8967 70.9716 73.6217 71.2482L55.1786 89.349C55.0407 89.4856 54.8771 89.5936 54.6974 89.6667C54.5177 89.7398 54.3253 89.7767 54.1313 89.7751C53.9374 89.7735 53.7456 89.7336 53.5671 89.6576C53.3886 89.5816 53.2268 89.471 53.091 89.3322Z" fill="#7D95BA"/>
<path d="M94.0176 65.209L138.934 65.656" stroke="#B2D4FF" stroke-width="4.2" stroke-miterlimit="10"/>
<path d="M93.875 79.2861L163.514 79.9778" stroke="#B2D4FF" stroke-width="4.2" stroke-miterlimit="10"/>
<path d="M93.7559 91.5928L163.395 92.2844" stroke="#B2D4FF" stroke-width="4.2" stroke-miterlimit="10"/>
<path d="M186.191 36.202L159.313 27.1348L131.661 109.398L102.604 109.111L111.627 125.584C113.796 129.545 116.988 132.849 120.867 135.15C124.747 137.451 129.173 138.666 133.681 138.666C134.422 138.666 135.163 138.666 135.912 138.565C136.375 138.523 136.821 138.456 137.267 138.396C137.436 138.396 137.596 138.396 137.764 138.329C137.932 138.262 138.303 138.219 138.606 138.169C138.909 138.118 139.271 138.042 139.591 137.966C139.911 137.89 140.096 137.823 140.357 137.755C140.618 137.688 141.03 137.578 141.358 137.477L142.082 137.216C142.411 137.098 142.747 136.988 143.067 136.861C143.53 136.676 143.985 136.465 144.431 136.254C144.523 136.203 144.624 136.17 144.717 136.128C145.087 135.942 145.441 135.748 145.794 135.554L146.316 135.276C151.593 132.172 155.577 127.267 157.537 121.46L186.191 36.202Z" fill="#7D95BA"/>
<path d="M187.361 37.1971L199.44 41.2711C199.947 41.4378 200.491 41.4514 201.004 41.3101C201.518 41.1687 201.979 40.8788 202.329 40.4765C202.68 40.0742 202.904 39.5774 202.974 39.0481C203.044 38.5189 202.957 37.9807 202.723 37.5008L184.895 1.53534C184.883 1.5117 184.869 1.48913 184.853 1.46786C184.692 1.15224 184.471 0.871538 184.202 0.641959C183.933 0.412381 183.621 0.238467 183.285 0.130253C182.948 0.022039 182.594 -0.0183329 182.242 0.0114668C181.889 0.0412664 181.547 0.140648 181.233 0.303876L145.374 18.1179C144.895 18.3571 144.498 18.7329 144.232 19.1979C143.966 19.6629 143.843 20.1964 143.879 20.7312C143.915 21.266 144.108 21.7781 144.434 22.2031C144.76 22.6281 145.204 22.947 145.711 23.1197L157.79 27.1936L187.361 37.1971Z" fill="#7D95BA"/>
<path d="M15.6409 125.804L3.57004 121.73C3.06238 121.559 2.51568 121.543 1.99892 121.684C1.48217 121.824 1.0185 122.115 0.666428 122.519C0.314354 122.923 0.0896441 123.423 0.0206474 123.955C-0.0483493 124.487 0.0414588 125.027 0.278741 125.508L18.1157 161.474V161.541C18.2777 161.856 18.5 162.137 18.7699 162.366C19.0399 162.595 19.3523 162.768 19.6892 162.876C20.026 162.984 20.3809 163.025 20.7334 162.996C21.0859 162.966 21.4293 162.868 21.7437 162.705L57.5945 144.883C58.2355 144.562 58.7251 144.001 58.9582 143.322C59.1884 142.643 59.1405 141.901 58.8249 141.257C58.5093 140.614 57.9517 140.122 57.2746 139.89L45.2206 135.799L15.6409 125.804Z" fill="#C1C7D0"/>
<path opacity="0.4" d="M102.604 109.111L105.726 114.805L129.894 115.032L131.661 109.398L102.604 109.111Z" fill="#0052CC"/>
<path opacity="0.1" d="M125.113 109.803L146.317 46.7197L152.715 46.7872L131.662 109.398L125.113 109.803Z" fill="#6C798F"/>
</g>
<defs>
<linearGradient id="paint0_linear" x1="16.9121" y1="77.4983" x2="111.173" y2="77.4983" gradientUnits="userSpaceOnUse">
<stop stop-color="#C1C7D0"/>
<stop offset="0.35" stop-color="#C1C7D0"/>
<stop offset="0.41" stop-color="#C1C7D0"/>
<stop offset="0.99" stop-color="#2684FF"/>
</linearGradient>
<clipPath id="clip0">
<rect width="203" height="163" fill="white"/>
</clipPath>
</defs>
</svg>
