<svg width="193" height="158" viewBox="0 0 193 158" fill="none" xmlns="http://www.w3.org/2000/svg">
<g clip-path="url(#clip0)">
<rect width="192.17" height="158" transform="translate(0.113281)" fill="white" fill-opacity="0.01"/>
<path d="M31.4317 67.75H78.2005C95.4883 67.75 109.519 81.75 109.519 99V113.083C109.519 130.333 95.4883 144.333 78.2005 144.333H52.6447C48.1348 144.333 43.9591 146.833 41.7876 150.75L37.8624 157.917L33.4361 149.833C31.6822 146.667 28.6757 144.417 25.0845 143.667C10.8033 140.75 0.113281 128.167 0.113281 113.167V99.0833C0.113281 81.75 14.1439 67.75 31.4317 67.75Z" fill="#0065FF"/>
<path d="M80.4559 97.167H29.0938V98.8336H80.4559V97.167Z" fill="#CCE0FF"/>
<path d="M80.4559 111.5H29.0938V113.167H80.4559V111.5Z" fill="#CCE0FF"/>
<path d="M80.4559 118.75H29.0938V120.417H80.4559V118.75Z" fill="#CCE0FF"/>
<path d="M80.4559 104.334H29.0938V106.001H80.4559V104.334Z" fill="#CCE0FF"/>
<path opacity="0.2" d="M78.2001 67.75H31.4313C20.9083 67.75 11.6381 72.9167 5.95898 80.9167C9.80071 101.167 27.5896 116.5 49.0531 116.5H84.8814C91.2286 116.5 97.0747 120 100.081 125.5L103.422 131.667C107.264 126.5 109.519 120.083 109.519 113.083V99C109.519 81.75 95.4879 67.75 78.2001 67.75Z" fill="#091E42"/>
<path d="M148.437 0H82.877C58.6575 0 39.0312 19.5833 39.0312 43.75V63.5C39.0312 87.6667 58.6575 107.25 82.877 107.25H118.705C125.052 107.25 130.899 110.75 133.905 116.25L139.417 126.333L145.597 115C148.019 110.5 152.279 107.333 157.29 106.333C177.25 102.25 192.283 84.6667 192.283 63.5V43.75C192.283 19.5833 172.656 0 148.437 0Z" fill="url(#paint0_linear)"/>
<path d="M79.2859 63.334C74.1914 63.334 70.0156 59.1673 70.0156 54.084C70.0156 49.0007 74.1914 44.834 79.2859 44.834C84.3803 44.834 88.5561 49.0007 88.5561 54.084C88.4726 59.2506 84.3803 63.334 79.2859 63.334ZM79.2859 46.584C75.1101 46.584 71.6859 50.0006 71.6859 54.1673C71.6859 58.334 75.1101 61.7506 79.2859 61.7506C83.4617 61.7506 86.8858 58.334 86.8858 54.1673C86.8858 50.0006 83.4617 46.584 79.2859 46.584Z" fill="white"/>
<path d="M114.28 63.334C109.186 63.334 105.01 59.1673 105.01 54.084C105.01 49.0007 109.186 44.834 114.28 44.834C119.374 44.834 123.55 49.0007 123.55 54.084C123.55 59.2506 119.374 63.334 114.28 63.334ZM114.28 46.584C110.104 46.584 106.68 50.0006 106.68 54.1673C106.68 58.334 110.104 61.7506 114.28 61.7506C118.456 61.7506 121.88 58.334 121.88 54.1673C121.88 50.0006 118.456 46.584 114.28 46.584Z" fill="white"/>
<path d="M149.272 63.334C144.178 63.334 140.002 59.1673 140.002 54.084C140.002 49.0007 144.178 44.834 149.272 44.834C154.367 44.834 158.542 49.0007 158.542 54.084C158.542 59.2506 154.367 63.334 149.272 63.334ZM149.272 46.584C145.096 46.584 141.672 50.0006 141.672 54.1673C141.672 58.334 145.096 61.7506 149.272 61.7506C153.448 61.7506 156.872 58.334 156.872 54.1673C156.872 50.0006 153.448 46.584 149.272 46.584Z" fill="white"/>
</g>
<defs>
<linearGradient id="paint0_linear" x1="63.3179" y1="105.846" x2="167.768" y2="1.1671" gradientUnits="userSpaceOnUse">
<stop stop-color="#48CC8C"/>
<stop offset="0.2702" stop-color="#4DD091"/>
<stop offset="0.5996" stop-color="#5CDB9E"/>
<stop offset="0.9585" stop-color="#75EDB4"/>
<stop offset="1" stop-color="#78F0B7"/>
</linearGradient>
<clipPath id="clip0">
<rect width="192.17" height="158" fill="white" transform="translate(0.113281)"/>
</clipPath>
</defs>
</svg>
