<svg width="247" height="175" viewBox="0 0 247 175" fill="none" xmlns="http://www.w3.org/2000/svg">
<g filter="url(#filter0_dd)">
<path d="M11.5195 6.43904C11.5195 5.43771 12.3313 4.62598 13.3326 4.62598H230.901C231.902 4.62598 232.714 5.43772 232.714 6.43905V154.204C232.714 155.206 231.902 156.017 230.901 156.017H13.3326C12.3313 156.017 11.5195 155.206 11.5195 154.204V6.43904Z" fill="white"/>
<path d="M11.7462 6.43904C11.7462 5.56288 12.4564 4.85261 13.3326 4.85261H230.901C231.777 4.85261 232.487 5.56288 232.487 6.43905V154.204C232.487 155.08 231.777 155.791 230.901 155.791H13.3326C12.4564 155.791 11.7462 155.08 11.7462 154.204V6.43904Z" stroke="#C1C7D0" stroke-width="0.453267"/>
</g>
<path d="M85.8164 47.5135C85.3077 47.5135 84.8954 47.9259 84.8954 48.4346C84.8954 48.9433 85.3077 49.3556 85.8164 49.3556V47.5135ZM98.2506 48.4346H99.1717C99.1717 47.9259 98.7593 47.5135 98.2506 47.5135V48.4346ZM97.5993 65.6648C97.959 66.0245 98.5422 66.0245 98.9019 65.6648L104.763 59.8033C105.123 59.4436 105.123 58.8604 104.763 58.5007C104.404 58.141 103.821 58.141 103.461 58.5007L98.2506 63.711L93.0404 58.5007C92.6807 58.141 92.0975 58.141 91.7378 58.5007C91.3781 58.8604 91.3781 59.4436 91.7378 59.8033L97.5993 65.6648ZM85.8164 49.3556H98.2506V47.5135H85.8164V49.3556ZM97.3296 48.4346V65.0135H99.1717V48.4346H97.3296Z" fill="#C1C7D0"/>
<path d="M130.025 75.1444C129.517 75.1444 129.104 75.5567 129.104 76.0654C129.104 76.5741 129.517 76.9865 130.025 76.9865V75.1444ZM142.46 76.0654H143.381C143.381 75.5567 142.968 75.1444 142.46 75.1444V76.0654ZM141.808 93.2957C142.168 93.6554 142.751 93.6554 143.111 93.2957L148.972 87.4341C149.332 87.0744 149.332 86.4912 148.972 86.1316C148.613 85.7719 148.03 85.7719 147.67 86.1316L142.46 91.3418L137.249 86.1316C136.89 85.7719 136.306 85.7719 135.947 86.1316C135.587 86.4912 135.587 87.0744 135.947 87.4341L141.808 93.2957ZM130.025 76.9865H142.46V75.1444H130.025V76.9865ZM141.539 76.0654V92.6444H143.381V76.0654H141.539Z" fill="#C1C7D0"/>
<path d="M173.316 101.855C172.808 101.855 172.395 102.268 172.395 102.776C172.395 103.285 172.808 103.697 173.316 103.697V101.855ZM185.751 102.776H186.672C186.672 102.268 186.259 101.855 185.751 101.855V102.776ZM185.099 120.007C185.459 120.366 186.042 120.366 186.402 120.007L192.263 114.145C192.623 113.785 192.623 113.202 192.263 112.842C191.904 112.483 191.321 112.483 190.961 112.842L185.751 118.053L180.54 112.842C180.181 112.483 179.597 112.483 179.238 112.842C178.878 113.202 178.878 113.785 179.238 114.145L185.099 120.007ZM173.316 103.697H185.751V101.855H173.316V103.697ZM184.83 102.776V119.355H186.672V102.776H184.83Z" fill="#C1C7D0"/>
<path d="M56.3429 58.5654C56.3429 58.0567 55.9306 57.6444 55.4219 57.6444C54.9132 57.6444 54.5008 58.0567 54.5008 58.5654H56.3429ZM55.4219 75.1444H54.5008C54.5008 75.6531 54.9132 76.0654 55.4219 76.0654V75.1444ZM68.5074 75.7957C68.8671 75.436 68.8671 74.8528 68.5074 74.4931L62.6458 68.6316C62.2861 68.2719 61.703 68.2719 61.3433 68.6316C60.9836 68.9912 60.9836 69.5744 61.3433 69.9341L66.5535 75.1444L61.3433 80.3546C60.9836 80.7143 60.9836 81.2975 61.3433 81.6572C61.703 82.0169 62.2861 82.0169 62.6458 81.6572L68.5074 75.7957ZM54.5008 58.5654V75.1444H56.3429V58.5654H54.5008ZM55.4219 76.0654H67.8561V74.2233H55.4219V76.0654Z" fill="#C1C7D0"/>
<path d="M100.552 86.1973C100.552 85.6886 100.14 85.2762 99.6309 85.2762C99.1222 85.2762 98.7098 85.6886 98.7098 86.1973H100.552ZM99.6309 102.776H98.7098C98.7098 103.285 99.1222 103.697 99.6309 103.697V102.776ZM112.716 103.427C113.076 103.068 113.076 102.485 112.716 102.125L106.855 96.2634C106.495 95.9037 105.912 95.9037 105.552 96.2634C105.193 96.6231 105.193 97.2063 105.552 97.566L110.763 102.776L105.552 107.986C105.193 108.346 105.193 108.929 105.552 109.289C105.912 109.649 106.495 109.649 106.855 109.289L112.716 103.427ZM98.7098 86.1973V102.776H100.552V86.1973H98.7098ZM99.6309 103.697H112.065V101.855H99.6309V103.697Z" fill="#C1C7D0"/>
<path d="M143.843 112.908C143.843 112.4 143.431 111.987 142.922 111.987C142.413 111.987 142.001 112.4 142.001 112.908H143.843ZM142.922 129.487H142.001C142.001 129.996 142.413 130.408 142.922 130.408V129.487ZM156.007 130.138C156.367 129.779 156.367 129.196 156.007 128.836L150.146 122.974C149.786 122.615 149.203 122.615 148.843 122.974C148.484 123.334 148.484 123.917 148.843 124.277L154.054 129.487L148.843 134.697C148.484 135.057 148.484 135.64 148.843 136C149.203 136.36 149.786 136.36 150.146 136L156.007 130.138ZM142.001 112.908V129.487H143.843V112.908H142.001ZM142.922 130.408H155.356V128.566H142.922V130.408Z" fill="#C1C7D0"/>
<line x1="12.2402" y1="26.3771" x2="231.402" y2="26.3771" stroke="#EBECF0" stroke-width="0.452804"/>
<circle cx="20.5826" cy="15.5045" r="1.81307" fill="#DFE1E6"/>
<circle cx="20.5826" cy="15.5045" r="1.81307" fill="#DFE1E6"/>
<circle cx="26.4752" cy="15.5045" r="1.81307" fill="#DFE1E6"/>
<circle cx="26.4752" cy="15.5045" r="1.81307" fill="#DFE1E6"/>
<circle cx="32.3697" cy="15.5045" r="1.81307" fill="#DFE1E6"/>
<circle cx="32.3697" cy="15.5045" r="1.81307" fill="#DFE1E6"/>
<rect x="52.3125" y="9.6123" width="157.737" height="11.785" rx="4.07941" fill="#F4F5F7"/>
<path d="M59.5623 17.0527H60.0191V15.3583C60.0191 14.8749 60.3006 14.5509 60.8132 14.5509C61.2461 14.5509 61.4745 14.8032 61.4745 15.3105V17.0527H61.9313V15.1989C61.9313 14.527 61.5489 14.1393 60.9433 14.1393C60.5051 14.1393 60.205 14.3252 60.0616 14.6412H60.0191V13.053H59.5623V17.0527ZM63.0109 13.4487V14.1897H62.5487V14.5722H63.0109V16.3091C63.0109 16.8562 63.2472 17.074 63.8368 17.074C63.9271 17.074 64.0148 17.0634 64.1051 17.0474V16.6623C64.0201 16.6703 63.9749 16.6729 63.8926 16.6729C63.5952 16.6729 63.4677 16.5295 63.4677 16.1922V14.5722H64.1051V14.1897H63.4677V13.4487H63.0109ZM65.0412 13.4487V14.1897H64.5791V14.5722H65.0412V16.3091C65.0412 16.8562 65.2776 17.074 65.8672 17.074C65.9575 17.074 66.0451 17.0634 66.1354 17.0474V16.6623C66.0504 16.6703 66.0053 16.6729 65.923 16.6729C65.6255 16.6729 65.498 16.5295 65.498 16.1922V14.5722H66.1354V14.1897H65.498V13.4487H65.0412ZM68.2747 14.1393C67.8843 14.1393 67.5417 14.3384 67.3584 14.6678H67.3159V14.1897H66.8804V18.0088H67.3372V16.6225H67.3797C67.5363 16.9253 67.8657 17.1032 68.2747 17.1032C69.0024 17.1032 69.4778 16.5162 69.4778 15.6212C69.4778 14.7209 69.005 14.1393 68.2747 14.1393ZM68.1658 16.6915C67.6506 16.6915 67.3239 16.2772 67.3239 15.6212C67.3239 14.9626 67.6506 14.5509 68.1684 14.5509C68.6917 14.5509 69.005 14.9519 69.005 15.6212C69.005 16.2905 68.6917 16.6915 68.1658 16.6915ZM70.1829 14.9732C70.1829 15.3875 70.4272 15.6186 70.9637 15.7487L71.455 15.8682C71.7604 15.9426 71.9092 16.0754 71.9092 16.2719C71.9092 16.5348 71.633 16.7181 71.2479 16.7181C70.8814 16.7181 70.653 16.5641 70.5759 16.3224H70.1058C70.1563 16.7978 70.5945 17.1032 71.2319 17.1032C71.8826 17.1032 72.3793 16.75 72.3793 16.2374C72.3793 15.8257 72.119 15.592 71.5798 15.4619L71.139 15.3556C70.8017 15.2733 70.6423 15.1511 70.6423 14.9546C70.6423 14.6996 70.9079 14.527 71.2479 14.527C71.5931 14.527 71.8162 14.6784 71.8773 14.9068H72.3288C72.2677 14.4367 71.8507 14.1393 71.2505 14.1393C70.6423 14.1393 70.1829 14.4978 70.1829 14.9732ZM73.5279 15.0237C73.7191 15.0237 73.8731 14.867 73.8731 14.6784C73.8731 14.4872 73.7191 14.3331 73.5279 14.3331C73.3393 14.3331 73.1826 14.4872 73.1826 14.6784C73.1826 14.867 73.3393 15.0237 73.5279 15.0237ZM73.5279 17.0793C73.7191 17.0793 73.8731 16.9226 73.8731 16.734C73.8731 16.5428 73.7191 16.3888 73.5279 16.3888C73.3393 16.3888 73.1826 16.5428 73.1826 16.734C73.1826 16.9226 73.3393 17.0793 73.5279 17.0793ZM74.7987 17.8681L76.1797 13.053H75.7919L74.4109 17.8681H74.7987ZM76.6643 17.8681L78.0454 13.053H77.6576L76.2766 17.8681H76.6643ZM78.7956 13.6373C78.9709 13.6373 79.1143 13.4939 79.1143 13.3186C79.1143 13.1433 78.9709 12.9999 78.7956 12.9999C78.6203 12.9999 78.4769 13.1433 78.4769 13.3186C78.4769 13.4939 78.6203 13.6373 78.7956 13.6373ZM79.0187 14.1897H78.5619V17.2015C78.5619 17.5175 78.4557 17.645 78.1317 17.645H78.0626V18.0354H78.1423C78.7425 18.0354 79.0187 17.7831 79.0187 17.1935V14.1897ZM80.1833 13.6373C80.3585 13.6373 80.502 13.4939 80.502 13.3186C80.502 13.1433 80.3585 12.9999 80.1833 12.9999C80.008 12.9999 79.8646 13.1433 79.8646 13.3186C79.8646 13.4939 80.008 13.6373 80.1833 13.6373ZM79.9549 17.0527H80.4117V14.1897H79.9549V17.0527ZM81.3372 17.0527H81.794V15.2786C81.794 14.8749 82.11 14.5828 82.5456 14.5828C82.6359 14.5828 82.8006 14.5987 82.8377 14.6093V14.1525C82.7793 14.1446 82.6837 14.1393 82.6093 14.1393C82.2295 14.1393 81.9002 14.3358 81.8152 14.6147H81.7727V14.1897H81.3372V17.0527ZM84.2599 17.1032C84.6423 17.1032 84.9557 16.9359 85.1416 16.6305H85.1841V17.0527H85.6197V15.0927C85.6197 14.4978 85.2293 14.1393 84.5308 14.1393C83.9199 14.1393 83.4685 14.442 83.4074 14.9015H83.8695C83.9332 14.6757 84.1723 14.5456 84.5149 14.5456C84.9425 14.5456 85.1629 14.7395 85.1629 15.0927V15.353L84.3369 15.4034C83.6703 15.4433 83.2932 15.7381 83.2932 16.2507C83.2932 16.7739 83.7048 17.1032 84.2599 17.1032ZM84.3449 16.7022C84.0129 16.7022 83.7659 16.5322 83.7659 16.24C83.7659 15.9532 83.9571 15.8018 84.3927 15.7726L85.1629 15.7221V15.9851C85.1629 16.3941 84.815 16.7022 84.3449 16.7022ZM86.8958 17.0793C87.087 17.0793 87.2411 16.9226 87.2411 16.734C87.2411 16.5428 87.087 16.3888 86.8958 16.3888C86.7072 16.3888 86.5505 16.5428 86.5505 16.734C86.5505 16.9226 86.7072 17.0793 86.8958 17.0793ZM88.9846 17.1032C89.367 17.1032 89.6804 16.9359 89.8663 16.6305H89.9088V17.0527H90.3444V15.0927C90.3444 14.4978 89.954 14.1393 89.2555 14.1393C88.6446 14.1393 88.1931 14.442 88.132 14.9015H88.5942C88.6579 14.6757 88.8969 14.5456 89.2395 14.5456C89.6671 14.5456 89.8876 14.7395 89.8876 15.0927V15.353L89.0616 15.4034C88.395 15.4433 88.0178 15.7381 88.0178 16.2507C88.0178 16.7739 88.4295 17.1032 88.9846 17.1032ZM89.0696 16.7022C88.7376 16.7022 88.4906 16.5322 88.4906 16.24C88.4906 15.9532 88.6818 15.8018 89.1174 15.7726L89.8876 15.7221V15.9851C89.8876 16.3941 89.5397 16.7022 89.0696 16.7022ZM91.4346 13.4487V14.1897H90.9724V14.5722H91.4346V16.3091C91.4346 16.8562 91.6709 17.074 92.2605 17.074C92.3508 17.074 92.4385 17.0634 92.5288 17.0474V16.6623C92.4438 16.6703 92.3986 16.6729 92.3163 16.6729C92.0188 16.6729 91.8914 16.5295 91.8914 16.1922V14.5722H92.5288V14.1897H91.8914V13.4487H91.4346ZM93.3002 17.0527H93.7571V13.053H93.3002V17.0527ZM95.4953 17.1032C95.8777 17.1032 96.1911 16.9359 96.377 16.6305H96.4195V17.0527H96.8551V15.0927C96.8551 14.4978 96.4647 14.1393 95.7662 14.1393C95.1553 14.1393 94.7038 14.442 94.6427 14.9015H95.1049C95.1686 14.6757 95.4076 14.5456 95.7502 14.5456C96.1778 14.5456 96.3983 14.7395 96.3983 15.0927V15.353L95.5723 15.4034C94.9057 15.4433 94.5285 15.7381 94.5285 16.2507C94.5285 16.7739 94.9402 17.1032 95.4953 17.1032ZM95.5803 16.7022C95.2483 16.7022 95.0013 16.5322 95.0013 16.24C95.0013 15.9532 95.1925 15.8018 95.6281 15.7726L96.3983 15.7221V15.9851C96.3983 16.3941 96.0503 16.7022 95.5803 16.7022ZM97.6876 14.9732C97.6876 15.3875 97.932 15.6186 98.4685 15.7487L98.9598 15.8682C99.2652 15.9426 99.4139 16.0754 99.4139 16.2719C99.4139 16.5348 99.1377 16.7181 98.7526 16.7181C98.3861 16.7181 98.1577 16.5641 98.0807 16.3224H97.6106C97.6611 16.7978 98.0993 17.1032 98.7367 17.1032C99.3874 17.1032 99.884 16.75 99.884 16.2374C99.884 15.8257 99.6238 15.592 99.0846 15.4619L98.6437 15.3556C98.3064 15.2733 98.1471 15.1511 98.1471 14.9546C98.1471 14.6996 98.4127 14.527 98.7526 14.527C99.0979 14.527 99.321 14.6784 99.3821 14.9068H99.8336C99.7725 14.4367 99.3555 14.1393 98.7553 14.1393C98.1471 14.1393 97.6876 14.4978 97.6876 14.9732ZM100.536 14.9732C100.536 15.3875 100.78 15.6186 101.317 15.7487L101.808 15.8682C102.114 15.9426 102.262 16.0754 102.262 16.2719C102.262 16.5348 101.986 16.7181 101.601 16.7181C101.234 16.7181 101.006 16.5641 100.929 16.3224H100.459C100.509 16.7978 100.948 17.1032 101.585 17.1032C102.236 17.1032 102.732 16.75 102.732 16.2374C102.732 15.8257 102.472 15.592 101.933 15.4619L101.492 15.3556C101.155 15.2733 100.995 15.1511 100.995 14.9546C100.995 14.6996 101.261 14.527 101.601 14.527C101.946 14.527 102.169 14.6784 102.23 14.9068H102.682C102.621 14.4367 102.204 14.1393 101.604 14.1393C100.995 14.1393 100.536 14.4978 100.536 14.9732ZM103.743 13.6373C103.918 13.6373 104.062 13.4939 104.062 13.3186C104.062 13.1433 103.918 12.9999 103.743 12.9999C103.568 12.9999 103.424 13.1433 103.424 13.3186C103.424 13.4939 103.568 13.6373 103.743 13.6373ZM103.514 17.0527H103.971V14.1897H103.514V17.0527ZM105.694 17.1032C106.076 17.1032 106.389 16.9359 106.575 16.6305H106.618V17.0527H107.053V15.0927C107.053 14.4978 106.663 14.1393 105.964 14.1393C105.354 14.1393 104.902 14.442 104.841 14.9015H105.303C105.367 14.6757 105.606 14.5456 105.949 14.5456C106.376 14.5456 106.597 14.7395 106.597 15.0927V15.353L105.771 15.4034C105.104 15.4433 104.727 15.7381 104.727 16.2507C104.727 16.7739 105.138 17.1032 105.694 17.1032ZM105.779 16.7022C105.447 16.7022 105.2 16.5322 105.2 16.24C105.2 15.9532 105.391 15.8018 105.826 15.7726L106.597 15.7221V15.9851C106.597 16.3941 106.249 16.7022 105.779 16.7022ZM107.952 17.0527H108.409V15.3583C108.409 14.8563 108.704 14.5509 109.161 14.5509C109.618 14.5509 109.835 14.7952 109.835 15.3105V17.0527H110.292V15.1989C110.292 14.519 109.934 14.1393 109.291 14.1393C108.853 14.1393 108.574 14.3252 108.43 14.6412H108.388V14.1897H107.952V17.0527ZM111.56 17.0793C111.751 17.0793 111.906 16.9226 111.906 16.734C111.906 16.5428 111.751 16.3888 111.56 16.3888C111.372 16.3888 111.215 16.5428 111.215 16.734C111.215 16.9226 111.372 17.0793 111.56 17.0793ZM112.852 17.0527H113.309V15.3583C113.309 14.8563 113.604 14.5509 114.061 14.5509C114.518 14.5509 114.735 14.7952 114.735 15.3105V17.0527H115.192V15.1989C115.192 14.519 114.834 14.1393 114.191 14.1393C113.753 14.1393 113.474 14.3252 113.33 14.6412H113.288V14.1897H112.852V17.0527ZM117.979 16.3117C117.86 16.5641 117.61 16.6995 117.241 16.6995C116.755 16.6995 116.439 16.341 116.415 15.7753V15.754H118.473V15.5787C118.473 14.689 118.003 14.1393 117.23 14.1393C116.444 14.1393 115.94 14.7235 115.94 15.6239C115.94 16.5295 116.436 17.1032 117.23 17.1032C117.857 17.1032 118.303 16.8004 118.436 16.3117H117.979ZM117.225 14.5429C117.679 14.5429 117.982 14.8776 117.993 15.3849H116.415C116.45 14.8776 116.768 14.5429 117.225 14.5429ZM119.436 13.4487V14.1897H118.974V14.5722H119.436V16.3091C119.436 16.8562 119.672 17.074 120.262 17.074C120.352 17.074 120.44 17.0634 120.53 17.0474V16.6623C120.445 16.6703 120.4 16.6729 120.318 16.6729C120.02 16.6729 119.893 16.5295 119.893 16.1922V14.5722H120.53V14.1897H119.893V13.4487H119.436Z" fill="#97A0AF"/>
<rect x="28.7109" y="40.6055" width="55.2632" height="14.7368" rx="2.76316" fill="#0052CC"/>
<rect x="72" y="68.2373" width="55.2632" height="14.7368" rx="2.76316" fill="#FFC400"/>
<rect x="115.289" y="95.8682" width="55.2632" height="14.7368" rx="2.76316" fill="#FFC400"/>
<rect x="158.578" y="123.5" width="55.2632" height="14.7368" rx="2.76316" fill="#36B37E"/>
<defs>
<filter id="filter0_dd" x="0.4669" y="0.941766" width="243.3" height="173.497" filterUnits="userSpaceOnUse" color-interpolation-filters="sRGB">
<feFlood flood-opacity="0" result="BackgroundImageFix"/>
<feColorMatrix in="SourceAlpha" type="matrix" values="0 0 0 0 0 0 0 0 0 0 0 0 0 0 0 0 0 0 127 0"/>
<feOffset/>
<feGaussianBlur stdDeviation="0.460526"/>
<feColorMatrix type="matrix" values="0 0 0 0 0.0352941 0 0 0 0 0.117647 0 0 0 0 0.258824 0 0 0 0.31 0"/>
<feBlend mode="normal" in2="BackgroundImageFix" result="effect1_dropShadow"/>
<feColorMatrix in="SourceAlpha" type="matrix" values="0 0 0 0 0 0 0 0 0 0 0 0 0 0 0 0 0 0 127 0"/>
<feOffset dy="7.36842"/>
<feGaussianBlur stdDeviation="5.52632"/>
<feColorMatrix type="matrix" values="0 0 0 0 0.0352941 0 0 0 0 0.117647 0 0 0 0 0.258824 0 0 0 0.15 0"/>
<feBlend mode="normal" in2="effect1_dropShadow" result="effect2_dropShadow"/>
<feBlend mode="normal" in="SourceGraphic" in2="effect2_dropShadow" result="shape"/>
</filter>
</defs>
</svg>
