<svg width="232" height="147" viewBox="0 0 232 147" fill="none" xmlns="http://www.w3.org/2000/svg">
<path opacity="0.4" d="M118.777 102.079L137.068 93.7412" stroke="url(#paint0_linear)" stroke-width="2.74" stroke-linecap="round"/>
<path opacity="0.4" d="M92.5859 114.02L113 104.718" stroke="url(#paint1_linear)" stroke-width="2.74" stroke-linecap="round"/>
<g opacity="0.71">
<path d="M142.523 44.4435C142.519 43.7019 142.955 43.029 143.631 42.7323C144.679 42.2686 145.717 41.8049 146.733 41.3412C163.482 34.019 176.627 29.7064 185.123 28.7511C185.465 28.7142 185.806 28.8251 186.062 29.056C186.317 29.287 186.463 29.6162 186.462 29.9614V65.1533C186.463 65.7765 185.994 66.2994 185.377 66.3636C179.105 66.9711 170.576 69.2897 159.956 73.287C155.936 74.7987 150.965 76.8809 145.187 79.4731H145.159C144.582 79.7432 143.908 79.696 143.374 79.3483C142.84 79.0005 142.522 78.401 142.533 77.7619L142.523 44.4435Z" fill="#B3F5FF"/>
<path d="M142.523 49.3079C143.95 48.6634 145.357 48.0373 146.733 47.4531C164.391 39.7182 178.043 35.3453 186.467 34.71V72.341C180.102 72.7677 171.203 75.1234 159.956 79.3525C155.936 80.8643 150.965 82.9464 145.187 85.5386L142.537 86.735L142.523 49.3079Z" fill="#79E2F2"/>
<path d="M183.512 42.0186V43.8734C183.512 45.3691 182.305 46.5816 180.816 46.5816V46.5816C179.328 46.5816 178.121 47.7941 178.121 49.2897V60.4979" stroke="url(#paint2_linear)" stroke-width="2.29"/>
<path fill-rule="evenodd" clip-rule="evenodd" d="M183.513 42.0179C184.515 42.0179 185.327 41.202 185.327 40.1955C185.327 39.189 184.515 38.373 183.513 38.373C182.511 38.373 181.699 39.189 181.699 40.1955C181.699 41.202 182.511 42.0179 183.513 42.0179Z" stroke="#B3F5FF" stroke-width="2.29"/>
<path d="M150.684 58.3965V60.2514C150.68 60.9728 150.963 61.6659 151.47 62.177C151.977 62.688 152.666 62.9747 153.384 62.9734V62.9734C154.872 62.9734 156.079 64.1859 156.079 65.6816V76.8897" stroke="url(#paint3_linear)" stroke-width="2.29"/>
<path fill-rule="evenodd" clip-rule="evenodd" d="M150.683 58.3919C151.685 58.3919 152.497 57.576 152.497 56.5695C152.497 55.563 151.685 54.7471 150.683 54.7471C149.681 54.7471 148.869 55.563 148.869 56.5695C148.869 57.576 149.681 58.3919 150.683 58.3919Z" stroke="#B3F5FF" stroke-width="2.29"/>
</g>
<path d="M165.703 68.6359V30.7451" stroke="url(#paint4_linear)" stroke-width="2.29"/>
<path d="M171.971 38.1553V40.344C171.971 42.083 170.568 43.4927 168.837 43.4927V43.4927C168.006 43.4927 167.209 43.8245 166.621 44.4149C166.033 45.0054 165.703 45.8063 165.703 46.6414V59.6674" stroke="url(#paint5_linear)" stroke-width="2.29"/>
<path d="M165.703 68.7328V61.6749C165.703 59.0037 167.858 56.8383 170.517 56.8383V56.8383C173.176 56.8383 175.331 54.6728 175.331 52.0016V49.4512" stroke="url(#paint6_linear)" stroke-width="2.29"/>
<path d="M158.461 46.9893V52.2942C158.461 54.2996 160.079 55.9252 162.075 55.9252V55.9252C164.071 55.9252 165.689 57.5508 165.689 59.5561V68.6312" stroke="url(#paint7_linear)" stroke-width="2.29"/>
<path fill-rule="evenodd" clip-rule="evenodd" d="M158.478 46.9894C159.643 46.9894 160.588 46.0406 160.588 44.8702C160.588 43.6998 159.643 42.751 158.478 42.751C157.313 42.751 156.369 43.6998 156.369 44.8702C156.369 46.0406 157.313 46.9894 158.478 46.9894Z" stroke="#B3F5FF" stroke-width="2.29"/>
<path fill-rule="evenodd" clip-rule="evenodd" d="M165.703 30.7443C166.868 30.7443 167.812 29.7955 167.812 28.6251C167.812 27.4547 166.868 26.5059 165.703 26.5059C164.538 26.5059 163.594 27.4547 163.594 28.6251C163.594 29.7955 164.538 30.7443 165.703 30.7443Z" stroke="#B3F5FF" stroke-width="2.29"/>
<path fill-rule="evenodd" clip-rule="evenodd" d="M171.971 38.1554C173.135 38.1554 174.08 37.2066 174.08 36.0362C174.08 34.8658 173.135 33.917 171.971 33.917C170.806 33.917 169.861 34.8658 169.861 36.0362C169.861 37.2066 170.806 38.1554 171.971 38.1554Z" stroke="#B3F5FF" stroke-width="2.29"/>
<path fill-rule="evenodd" clip-rule="evenodd" d="M175.329 49.4418C176.239 49.4418 176.977 48.7006 176.977 47.7863C176.977 46.872 176.239 46.1309 175.329 46.1309C174.419 46.1309 173.682 46.872 173.682 47.7863C173.682 48.7006 174.419 49.4418 175.329 49.4418Z" stroke="#B3F5FF" stroke-width="2.29"/>
<path d="M190.5 85.1024C190.499 84.5651 190.917 84.121 191.451 84.0914C200.22 83.6277 208.528 81.1143 215.197 76.9037C219.18 74.4553 222.599 71.1831 225.226 67.3047V96.0555C225.226 109.545 210.392 120.633 191.571 121.755C191.293 121.772 191.021 121.673 190.819 121.481C190.616 121.29 190.501 121.023 190.5 120.744V85.1024Z" fill="url(#paint8_linear)"/>
<path d="M215.197 82.9836C208.306 87.3472 199.602 89.8838 190.5 90.213V121.802C209.825 121.064 225.226 109.796 225.226 96.0513V73.3799C222.599 77.26 219.18 80.5338 215.197 82.9836Z" fill="url(#paint9_linear)"/>
<path d="M205.792 93.3848C203.932 93.9934 202.032 94.4677 200.105 94.8038L205.792 93.3848Z" fill="#253858"/>
<path d="M205.792 93.3848C203.932 93.9934 202.032 94.4677 200.105 94.8038" stroke="#253858" stroke-width="1.37"/>
<path d="M225.979 78.3691C221.723 84.5239 215.809 89.332 208.93 92.2298" stroke="url(#paint10_linear)" stroke-width="1.37"/>
<path d="M205.796 98.1748C204.011 98.7603 202.186 99.2144 200.336 99.5335L205.796 98.1748Z" fill="#253858"/>
<path d="M205.796 98.1748C204.011 98.7603 202.186 99.2144 200.336 99.5335" stroke="#253858" stroke-width="1.37"/>
<path opacity="0.7" d="M225.846 82.2139C223.547 86.0467 220.576 89.4294 217.077 92.1978C214.573 94.1368 211.834 95.748 208.926 96.9927" stroke="url(#paint11_linear)" stroke-width="1.37"/>
<path d="M205.797 102.946C204.085 103.511 202.334 103.946 200.559 104.249L205.797 102.946Z" fill="#253858"/>
<path d="M205.797 102.946C204.085 103.511 202.334 103.946 200.559 104.249" stroke="#253858" stroke-width="1.37"/>
<path d="M225.726 86.0762C223.502 90.3577 220.417 94.1286 216.666 97.1499C214.297 99.0203 211.699 100.579 208.936 101.787" stroke="url(#paint12_linear)" stroke-width="1.37"/>
<path d="M205.791 107.881C204.026 108.48 202.215 108.931 200.377 109.23L205.791 107.881Z" fill="#253858"/>
<path d="M205.791 107.881C204.026 108.48 202.215 108.931 200.377 109.23" stroke="#253858" stroke-width="1.37"/>
<path opacity="0.7" d="M225.597 89.9346C223.451 94.6553 220.253 98.817 216.251 102.098C214.019 103.929 211.56 105.461 208.936 106.656" stroke="url(#paint13_linear)" stroke-width="1.37"/>
<path d="M205.797 112.685C204.079 113.28 202.314 113.73 200.521 114.029L205.797 112.685Z" fill="#253858"/>
<path d="M205.797 112.685C204.079 113.28 202.314 113.73 200.521 114.029" stroke="#253858" stroke-width="1.37"/>
<path d="M225.468 93.7969C222.411 101.584 216.492 107.892 208.936 111.418" stroke="url(#paint14_linear)" stroke-width="1.37"/>
<path d="M5.30859 54.3253C5.30859 40.8356 20.1424 29.748 38.964 28.6258C39.2415 28.6092 39.5135 28.7082 39.7161 28.8995C39.9187 29.0908 40.034 29.3574 40.0347 29.6367V65.2738C40.0356 65.8111 39.6179 66.2551 39.084 66.2847C30.3147 66.7484 22.0071 69.2618 15.3378 73.4724C11.3547 75.9208 7.93588 79.193 5.30859 83.0715L5.30859 54.3253Z" fill="url(#paint15_linear)"/>
<g style="mix-blend-mode:multiply" opacity="0.1">
<path d="M215.198 76.9035C213.923 77.7101 212.606 78.4469 211.252 79.1108L225.227 87.2213V67.2998C222.601 71.18 219.182 74.4538 215.198 76.9035Z" fill="url(#paint16_linear)"/>
</g>
<path d="M186.943 80.1773C186.587 80.0354 186.204 79.9721 185.821 79.9918C185.423 79.9802 185.026 80.0335 184.645 80.1495C184.645 80.1495 184.88 80.7477 185.891 80.7477C186.901 80.7477 186.943 80.1773 186.943 80.1773Z" fill="#505F79"/>
<path opacity="0.1" d="M177.946 87.1192C183.131 87.1192 187.334 86.4299 187.334 85.5796C187.334 84.7293 183.131 84.04 177.946 84.04C172.762 84.04 168.559 84.7293 168.559 85.5796C168.559 86.4299 172.762 87.1192 177.946 87.1192Z" fill="#344563"/>
<path d="M187.939 61.9582C187.898 61.8001 187.845 61.6451 187.782 61.4945C187.708 61.3177 187.62 61.1471 187.519 60.9844C187.413 61.0122 187.238 61.0586 187.021 61.0957C186.804 61.1328 186.688 61.142 186.61 61.1513C186.148 61.207 185.327 61.2997 183.056 61.4527C182.425 62.1552 181.97 62.9996 181.731 63.9151C180.194 69.5586 179.885 71.7613 179.885 71.7613C179.885 71.7613 179.267 75.9348 178.662 80.7019C178.971 80.9058 179.3 81.0752 179.645 81.2073C179.891 81.2939 180.147 81.3485 180.407 81.3696C181.67 79.3328 182.219 76.9301 181.967 74.5436C182.2 73.371 182.54 72.2224 182.982 71.1121C183.305 70.3052 184.311 67.7872 184.828 67.866C185.345 67.9448 184.934 70.3655 184.893 74.8636C184.893 77.2842 184.893 79.269 184.893 80.5859C185.221 80.7651 185.607 80.8035 185.964 80.6926C186.223 80.6333 186.462 80.5052 186.656 80.3216C186.811 79.6078 186.929 78.8865 187.011 78.1607C187.058 77.7665 187.076 77.4465 187.099 76.9921C187.141 76.2316 187.191 75.1372 187.219 73.8202C187.441 71.1353 187.501 70.2171 187.505 69.9574C187.51 69.7262 187.529 69.4955 187.561 69.2665C187.561 69.1876 187.584 69.1088 187.611 68.9882C187.773 68.1721 188.493 64.7034 188.304 63.4236C188.222 62.9259 188.1 62.4358 187.939 61.9582Z" fill="#F0D0B4"/>
<path d="M187.053 77.7383C187.053 77.8867 187.03 78.0304 187.011 78.202C186.929 78.9279 186.81 79.6491 186.656 80.363C186.462 80.5465 186.223 80.6746 185.963 80.7339C185.607 80.8449 185.221 80.8064 184.893 80.6273C184.893 79.8714 184.893 78.9022 184.893 77.7568L187.053 77.7383Z" fill="#0065FF"/>
<path d="M180.786 81.2166C180.786 81.2166 180.703 81.0357 179.863 80.7528C179.463 80.607 179.045 80.5195 178.621 80.4932C178.73 80.8269 178.99 81.0886 179.323 81.198C179.797 81.3558 180.308 81.3623 180.786 81.2166Z" fill="#505F79"/>
<path d="M186.942 80.1772C186.193 80.4408 185.376 80.431 184.634 80.1494C184.699 81.2206 184.791 82.0831 184.87 82.686C184.966 83.4418 185.146 84.6707 184.75 84.8516C184.7 84.8698 184.649 84.8823 184.597 84.8887L184.371 84.9443C184.279 84.9443 184.099 84.9999 183.706 85.051L183.646 85.2318C184.314 85.4258 184.992 85.5806 185.677 85.6955C185.9 85.7539 186.137 85.7133 186.328 85.5842C186.433 85.4805 186.497 85.3421 186.508 85.1947L186.942 80.1772Z" fill="#7A869A"/>
<path d="M181.833 77.7432C181.769 78.0678 181.69 78.4063 181.589 78.7541C181.316 79.6745 180.922 80.5541 180.416 81.3695C180.157 81.3483 179.901 81.2938 179.655 81.2072C179.31 81.0751 178.98 80.9056 178.672 80.7017C178.801 79.6908 178.93 78.7031 179.055 77.7756C179.978 77.7849 180.91 77.7571 181.833 77.7432Z" fill="#0065FF"/>
<path d="M178.625 80.5117C178.942 80.8008 179.323 81.0091 179.737 81.1192C180.078 81.2112 180.433 81.2441 180.785 81.2166C180.563 82.0327 180.323 82.6866 180.185 83.1317C179.823 83.9676 179.584 84.8516 179.474 85.7564C179.474 85.9744 179.474 86.1552 179.474 86.2711H178.306L178.117 86.0949L177.845 86.2526H174.96C174.78 86.2526 174.651 86.1088 174.706 85.9651L175.856 85.6637C176.965 85.4397 177.839 84.5799 178.085 83.4703C178.196 82.784 178.32 82.0281 178.431 81.4855C178.486 81.1609 178.551 80.8363 178.625 80.5117Z" fill="#7A869A"/>
<path d="M188.156 62.0041C188.464 63.2592 188.772 64.57 189.079 65.9364C189.596 68.4776 189.961 70.889 190.21 73.152C189.673 73.4318 189.112 73.6645 188.535 73.8475C185.969 74.6051 183.221 74.4412 180.762 73.3838C179.913 73.0108 179.113 72.5325 178.381 71.9602C179.249 68.3385 180.01 65.7092 180.269 65.0693C180.497 64.4788 180.777 63.9093 181.104 63.3674C181.646 62.4812 182.31 61.6757 183.075 60.9746L188.156 62.0041Z" fill="url(#paint17_linear)"/>
<path d="M185.345 121.657C176.243 120.683 161.807 115.814 143.119 107.412C142.756 107.247 142.523 106.884 142.523 106.484V71.2739C142.524 70.9301 142.697 70.6098 142.984 70.4226C143.271 70.2354 143.632 70.2067 143.945 70.3464C150.254 73.1891 155.622 75.4474 159.956 77.0797C170.673 81.1141 179.257 83.4373 185.548 84.0355C186.069 84.0789 186.471 84.5163 186.471 85.0418V120.66C186.468 120.948 186.343 121.22 186.129 121.41C185.914 121.6 185.629 121.69 185.345 121.657Z" fill="#B3F5FF"/>
<path d="M187.417 129.508C178.02 128.808 162.443 123.633 142.066 114.423V75.7861C149.216 79.0322 155.257 81.5919 160.066 83.4005C171.674 87.7687 180.859 90.1986 187.426 90.6392L187.417 129.508Z" fill="#B3F5FF" stroke="#79E2F2" stroke-width="1.37"/>
<path d="M88.0159 79.0973C88.0157 79.4411 87.8425 79.7614 87.5556 79.9486C87.2686 80.1358 86.9069 80.1645 86.5943 80.0248L85.3666 79.4729C79.5789 76.8807 74.6036 74.8032 70.5974 73.2915C59.8805 69.2571 51.2959 66.9339 45.0051 66.3357C44.4839 66.2923 44.0826 65.8549 44.082 65.3294V29.7248C44.0831 29.4375 44.2051 29.1641 44.418 28.9724C44.6309 28.7806 44.9146 28.6883 45.199 28.7185C53.6866 29.646 66.919 33.9539 83.8159 41.3596C84.9974 41.879 86.2066 42.4122 87.4297 42.9641C87.7926 43.1284 88.0257 43.4915 88.0251 43.8915L88.0159 79.0973Z" fill="#B3F5FF"/>
<path d="M44.0723 34.6953V66.2748C50.4369 66.7014 59.3353 69.0571 70.583 73.2863C74.603 74.798 79.5738 76.8801 85.3523 79.4677L88.0015 80.6641V49.3118C86.5753 48.6673 85.1677 48.0412 83.7923 47.457C66.1523 39.6989 52.4907 35.326 44.0723 34.6953Z" fill="#79E2F2"/>
<path d="M42.9609 29.2559H50.1471V68.6676H42.9609V29.2559Z" fill="#2684FF"/>
<path d="M40.0347 120.734C40.034 121.014 39.9187 121.28 39.7161 121.472C39.5135 121.663 39.2415 121.762 38.964 121.745C20.1424 120.642 5.30859 109.535 5.30859 96.0457V67.2949C7.93599 71.1733 11.3548 74.4454 15.3378 76.894C21.9886 81.1046 30.3286 83.618 39.084 84.0817C39.6179 84.1113 40.0356 84.5553 40.0347 85.0926V120.734Z" fill="url(#paint18_linear)"/>
<path d="M40.5887 129.648C20.3179 128.873 4.16406 117.053 4.16406 102.636V72.4941C6.92186 76.5548 10.5072 79.9801 14.6825 82.543C21.9102 87.1199 31.0394 89.7817 40.5887 90.1249V129.648Z" fill="url(#paint19_linear)"/>
<path opacity="0.75" d="M225.226 83.0715C222.599 79.1931 219.18 75.9209 215.197 73.4724C208.546 69.2618 200.206 66.7484 191.451 66.2847C190.917 66.2551 190.499 65.8111 190.5 65.2738V29.6367C190.501 29.3574 190.616 29.0908 190.819 28.8995C191.021 28.7082 191.293 28.6092 191.571 28.6258C210.392 29.7295 225.226 40.8356 225.226 54.3253V83.0715Z" fill="url(#paint20_linear)"/>
<g opacity="0.75">
<path d="M190.5 34.6543V65.26C190.499 65.7973 190.917 66.2413 191.451 66.2709C200.22 66.7346 208.528 69.248 215.197 73.4586C219.18 75.9071 222.599 79.1793 225.226 83.0576V60.4048C225.226 46.6601 209.825 35.3916 190.5 34.6543Z" fill="url(#paint21_linear)"/>
<path d="M190.5 24.6426H197.146V72.828H190.5V24.6426Z" fill="#0065FF"/>
</g>
<path d="M92.0508 68.5012C92.0474 68.103 92.2769 67.7399 92.637 67.5737L96.1308 65.9368C97.4093 65.3339 98.6647 64.7357 99.8785 64.1561C108.999 59.7878 116.111 56.1615 116.18 56.1244L119.194 54.5385C122.669 52.7346 129.2 49.4143 137.051 45.7278C137.365 45.5817 137.731 45.6072 138.022 45.7952C138.313 45.9832 138.488 46.3076 138.486 46.6552V81.861C138.49 82.2581 138.263 82.6209 137.905 82.7884C135.574 83.8736 133.142 85.019 130.659 86.2107C121.539 90.579 114.426 94.2053 114.352 94.2424L111.339 95.8283C108.279 97.4143 102.002 100.619 94.4139 104.175L93.4908 104.611C93.1769 104.757 92.8104 104.732 92.5195 104.544C92.2285 104.356 92.0534 104.031 92.0554 103.684L92.0508 68.5012Z" fill="#2684FF"/>
<path d="M91.4863 73.653C92.8709 73.0084 94.2971 72.3453 95.7233 71.6683C97.0525 71.0423 98.354 70.4255 99.614 69.8134C109.08 65.2782 116.465 61.5174 116.539 61.4664L119.668 59.8202C123.489 57.8354 130.883 54.0793 139.694 49.9893V88.8538C137.091 90.0641 134.363 91.3487 131.571 92.6842C122.105 97.2194 114.72 100.98 114.646 101.031L111.517 102.677C108.342 104.324 101.825 107.653 93.9509 111.358L91.4956 112.504L91.4863 73.653Z" fill="#2684FF" stroke="#0065FF" stroke-width="1.37"/>
<g style="mix-blend-mode:multiply">
<path d="M138.485 107.765C138.487 108.112 138.312 108.437 138.021 108.625C137.73 108.813 137.364 108.838 137.05 108.692L136.127 108.256C128.53 104.681 122.257 101.477 119.193 99.9094L116.179 98.3095C116.11 98.2724 108.993 94.6461 99.8727 90.2779C97.3896 89.0861 94.9573 87.9592 92.6265 86.8556C92.2682 86.688 92.0407 86.3252 92.045 85.9281V50.7177C92.043 50.3701 92.218 50.0457 92.509 49.8577C92.8 49.6697 93.1664 49.6442 93.4804 49.7903C101.327 53.4629 107.862 56.7878 111.347 58.601L114.351 60.1823C114.42 60.2194 121.537 63.8457 130.657 68.2139C131.871 68.7982 133.127 69.3918 134.405 69.9946L137.899 71.6316C138.257 71.7991 138.485 72.162 138.48 72.559L138.485 107.765Z" fill="#DFE1E5"/>
</g>
<g opacity="0.73">
<path d="M44.0684 85.033C44.069 84.5075 44.4702 84.0701 44.9914 84.0267C51.2822 83.4471 59.8668 81.1192 70.5837 77.0709C74.9176 75.4386 80.276 73.1803 86.5945 70.3376C86.9071 70.198 87.2688 70.2266 87.5557 70.4138C87.8427 70.601 88.0159 70.9214 88.016 71.2651V106.48C88.0167 106.88 87.7836 107.243 87.4207 107.408C68.7514 115.81 54.296 120.679 45.1945 121.653C44.9102 121.683 44.6264 121.591 44.4136 121.399C44.2007 121.208 44.0786 120.934 44.0776 120.647L44.0684 85.033Z" fill="#8993A4"/>
<path d="M44.0684 90.1803C50.4284 89.7537 59.3314 87.398 70.5791 83.1688C75.2314 81.416 81.0884 78.9397 88.0114 75.791V113.227C68.2668 122.149 53.1745 127.167 44.0684 127.844L44.0684 90.1803Z" fill="url(#paint22_linear)"/>
<path d="M52.5137 88.126L102.572 113.496V75.9904L52.5137 50.6201V88.126Z" fill="url(#paint23_linear)"/>
<path d="M64.7493 116.445C73.7754 116.445 81.0924 109.094 81.0924 100.025C81.0924 90.9562 73.7754 83.6045 64.7493 83.6045C55.7233 83.6045 48.4062 90.9562 48.4062 100.025C48.4062 109.094 55.7233 116.445 64.7493 116.445Z" fill="url(#paint24_radial)"/>
<path opacity="0.4" d="M65.7464 104.908L74.631 109.406C74.9169 109.552 75.0899 109.854 75.0719 110.176C75.0539 110.497 74.8483 110.778 74.5479 110.89L64.9756 114.461C64.3971 114.678 63.7549 114.642 63.2033 114.364L54.8679 110.144C54.5821 109.998 54.4091 109.696 54.4271 109.375C54.4451 109.053 54.6507 108.772 54.951 108.66L65.1049 104.876C65.314 104.797 65.5462 104.809 65.7464 104.908Z" fill="#344563"/>
<path d="M72.0378 98.5362L71.8809 99.7372C74.1565 100.7 76.5756 101.277 79.0393 101.444C80.764 100.896 82.4125 100.131 83.9455 99.1668C84.2669 99.0182 84.4888 98.7129 84.5316 98.36L84.5685 98.0493C84.6143 97.6721 84.4486 97.3004 84.138 97.0836C83.8274 96.8668 83.4229 96.8404 83.087 97.0152L78.5224 99.3941L72.0378 98.5362Z" fill="url(#paint25_linear)"/>
<path d="M53.2168 104.407L64.0676 109.903V99.6728L53.2168 94.1777V104.407Z" fill="url(#paint26_linear)"/>
<path d="M76.2833 105.349L64.0664 109.903V99.6729L76.2833 95.1191V105.349Z" fill="#79E2F2"/>
<path d="M65.4337 89.624L76.2845 95.1191L64.0676 99.6729L53.2168 94.1778L65.4337 89.624Z" fill="#B3F5FF"/>
<path d="M61.8883 94.3726V94.3448V94.3169V94.2891V94.1361V94.1083V94.0804V94.0526V94.0248V93.997V93.9691V93.6724V93.6445V93.6167V93.5889V93.5611V93.5332V93.5054V93.4776V93.4498V93.4219C61.8883 92.6893 60.6791 92.0957 59.1883 92.0957C57.6975 92.0957 56.4883 92.6893 56.4883 93.4219V93.4498V93.4776V93.5054V93.5332V93.5611V93.5889V93.6167V93.6445V93.6724V93.7002V93.728V93.7558V93.7836V93.8115V93.8393V94.1361V94.1639V94.1917V94.2195C56.4883 94.9522 57.6975 95.5458 59.1883 95.5458C60.6791 95.5458 61.8883 95.1053 61.8883 94.3726Z" fill="url(#paint27_linear)"/>
<path d="M65.2293 93.6067C66.7201 93.6067 67.9293 93.0132 67.9293 92.2805V92.2527V92.2248V92.197V92.1692V92.1414V92.1135V92.0857V92.0579V92.0301V92.0023V91.9744V91.9466V91.353V91.3252V91.2974V91.2696V91.2417V91.2139V91.1861V91.1583C67.9293 90.4256 66.7201 89.832 65.2293 89.832C63.7385 89.832 62.5293 90.4256 62.5293 91.1583V91.1861V91.2139V91.2417V91.2696V91.2974V91.3252V91.353V91.3809V91.4087V91.4365V91.4643V91.4922V91.52V91.8168V91.8446V91.8724V91.9002V91.9281V91.9559V91.9837C62.5385 93.0132 63.7478 93.6067 65.2293 93.6067Z" fill="url(#paint28_linear)"/>
<path d="M64.2605 94.1914C62.7698 94.1914 61.5605 94.785 61.5605 95.5177V95.5455V95.5733V95.6011V95.6289V95.6568V95.6846V95.9907V96.0185V96.0463V96.0741V96.1019V96.1298V96.1576V96.4544V96.4822V96.51V96.5378V96.5657V96.5935V96.6213C61.5605 97.354 62.7698 97.9476 64.2605 97.9476C65.7513 97.9476 66.9605 97.354 66.9605 96.6213V96.5935V96.5657V96.5378V96.51V96.4822V96.4544V96.4266V96.3987V96.3709V96.3431V96.3153V96.2874V96.2596V95.9907V95.9628V95.935V95.9072V95.8794V95.8515V95.8237C66.9605 94.7803 65.7513 94.1914 64.2605 94.1914Z" fill="url(#paint29_linear)"/>
<path d="M73.0113 93.4356C73.0113 92.7029 71.8021 92.1094 70.3113 92.1094C68.8206 92.1094 67.6113 92.7029 67.6113 93.4356V93.4634V93.4913V93.5191V93.5469V93.6721V93.6999V93.7278V93.7556V93.7834V93.8112V93.8391V93.8669V93.8947V93.9225V94.1358V94.1637V94.1915V94.2193V94.2471V94.275V94.3028V94.3306V94.3584V94.3863V94.5996V94.6274V94.6552V94.683V94.7109C67.6113 95.4435 68.8206 96.0371 70.3113 96.0371C71.8021 96.0371 73.0113 95.4435 73.0113 94.7109V94.683V94.6552V94.6274V94.5996V94.5717V94.5439V94.5161V94.4883V94.4605V94.4326V94.4048V94.377V94.3492V94.1358V94.108V94.0802V94.0524V94.0246V93.9967V93.9689V93.9411V93.9133V93.8854V93.6721V93.6443V93.6165V93.5887V93.5608V93.533C73.0113 93.533 73.0113 93.4403 73.0113 93.4356Z" fill="url(#paint30_linear)"/>
<path d="M59.1844 94.3302C60.6755 94.3302 61.8844 93.7364 61.8844 93.004C61.8844 92.2715 60.6755 91.6777 59.1844 91.6777C57.6932 91.6777 56.4844 92.2715 56.4844 93.004C56.4844 93.7364 57.6932 94.3302 59.1844 94.3302Z" fill="#B3F5FF"/>
<path d="M65.2391 92.2394C66.7302 92.2394 67.9391 91.6456 67.9391 90.9132C67.9391 90.1807 66.7302 89.5869 65.2391 89.5869C63.7479 89.5869 62.5391 90.1807 62.5391 90.9132C62.5391 91.6456 63.7479 92.2394 65.2391 92.2394Z" fill="#B3F5FF"/>
<path d="M64.2605 96.839C65.7517 96.839 66.9605 96.2452 66.9605 95.5128C66.9605 94.7803 65.7517 94.1865 64.2605 94.1865C62.7694 94.1865 61.5605 94.7803 61.5605 95.5128C61.5605 96.2452 62.7694 96.839 64.2605 96.839Z" fill="#B3F5FF"/>
<path d="M70.3113 94.7482C71.8025 94.7482 73.0113 94.1544 73.0113 93.4219C73.0113 92.6895 71.8025 92.0957 70.3113 92.0957C68.8202 92.0957 67.6113 92.6895 67.6113 93.4219C67.6113 94.1544 68.8202 94.7482 70.3113 94.7482Z" fill="#B3F5FF"/>
</g>
<path d="M138.486 103.706C138.488 104.054 138.312 104.379 138.021 104.567C137.731 104.755 137.364 104.78 137.05 104.634L136.127 104.198C128.53 100.623 122.258 97.4184 119.193 95.851L116.189 94.2697C116.119 94.2326 109.002 90.6063 99.8824 86.2381C97.3994 85.0463 94.9671 83.9194 92.6363 82.8158C92.278 82.6482 92.0505 82.2854 92.0547 81.8883V46.664C92.0528 46.3164 92.2278 45.992 92.5188 45.804C92.8097 45.616 93.1762 45.5905 93.4901 45.7365C101.336 49.4092 107.872 52.7341 111.356 54.5473L114.361 56.1286C114.43 56.1657 121.547 59.792 130.667 64.1602C131.881 64.7445 133.136 65.3381 134.415 65.9409L137.909 67.5779C138.267 67.7454 138.494 68.1082 138.49 68.5053L138.486 103.706Z" fill="#B3F5FF"/>
<path d="M138.486 111.377L136.118 110.274C128.521 106.698 122.249 103.494 119.184 101.927L116.18 100.345C116.11 100.308 108.993 96.6818 99.8735 92.3136C97.1781 91.0244 94.552 89.7863 92.0273 88.6038V51.1582C100.515 55.0952 107.637 58.7169 111.329 60.6321L114.333 62.2133C114.403 62.2504 121.52 65.8768 130.64 70.245C131.853 70.8293 133.109 71.4229 134.387 72.0257C135.772 72.6749 137.129 73.3149 138.467 73.9362L138.486 111.377Z" fill="#79E2F2"/>
<path d="M49.229 32.2055C49.2469 32.5523 49.1212 32.8911 48.8816 33.1415C48.642 33.3918 48.31 33.5314 47.9644 33.5271C47.226 33.528 46.6167 32.9465 46.5798 32.2055C46.5619 31.8587 46.6877 31.5199 46.9272 31.2695C47.1668 31.0192 47.4988 30.8796 47.8444 30.8839C48.5829 30.883 49.1921 31.4645 49.229 32.2055Z" fill="#FF7452"/>
<path d="M53.4419 33.0541C53.4598 33.401 53.334 33.7397 53.0945 33.9901C52.8549 34.2405 52.5229 34.38 52.1773 34.3757C51.4388 34.3767 50.8296 33.7952 50.7927 33.0541C50.7748 32.7073 50.9006 32.3685 51.1401 32.1182C51.3797 31.8678 51.7117 31.7282 52.0573 31.7325C52.7958 31.7316 53.405 32.3131 53.4419 33.0541Z" fill="#79E2F2"/>
<path d="M57.7067 34.1762C57.7244 34.5198 57.6011 34.8556 57.3656 35.1054C57.1301 35.3552 56.8029 35.497 56.4605 35.4978C55.7221 35.4987 55.1128 34.9172 55.0759 34.1762C55.058 33.8294 55.1838 33.4906 55.4233 33.2402C55.6629 32.9899 55.9949 32.8503 56.3405 32.8546C57.0718 32.8635 57.6702 33.4423 57.7067 34.1762Z" fill="#2684FF"/>
<path d="M96.9241 49.9058C96.9591 50.2603 96.844 50.6132 96.6068 50.8779C96.3696 51.1427 96.0324 51.2948 95.6779 51.297C94.9263 51.2662 94.3239 50.661 94.2933 49.9058C94.2582 49.5514 94.3734 49.1985 94.6106 48.9337C94.8477 48.6689 95.1849 48.5168 95.5394 48.5146C96.2911 48.5454 96.8934 49.1506 96.9241 49.9058Z" fill="#FF7452"/>
<path d="M101.045 51.8628C101.08 52.2173 100.965 52.5702 100.728 52.835C100.491 53.0997 100.154 53.2518 99.799 53.254C99.0473 53.2232 98.445 52.6181 98.4144 51.8628C98.3793 51.5084 98.4945 51.1555 98.7317 50.8907C98.9688 50.626 99.306 50.4738 99.6605 50.4717C100.412 50.5024 101.015 51.1076 101.045 51.8628Z" fill="#79E2F2"/>
<path d="M105.356 53.7359C105.391 54.0903 105.276 54.4432 105.038 54.708C104.801 54.9728 104.464 55.1249 104.11 55.1271C103.358 55.0963 102.756 54.4911 102.725 53.7359C102.69 53.3814 102.805 53.0285 103.042 52.7638C103.279 52.499 103.617 52.3469 103.971 52.3447C104.723 52.3755 105.325 52.9807 105.356 53.7359Z" fill="#2684FF"/>
<path d="M147.043 74.1959C147.078 74.5503 146.963 74.9032 146.726 75.168C146.489 75.4327 146.152 75.5849 145.797 75.587C145.045 75.5563 144.443 74.9511 144.412 74.1959C144.377 73.8414 144.493 73.4885 144.73 73.2237C144.967 72.959 145.304 72.8069 145.659 72.8047C146.41 72.8355 147.013 73.4406 147.043 74.1959Z" fill="#FF5630"/>
<path d="M195.504 31.8804C195.539 32.2349 195.424 32.5878 195.187 32.8525C194.95 33.1173 194.612 33.2694 194.258 33.2716C193.506 33.2408 192.904 32.6356 192.873 31.8804C192.838 31.526 192.953 31.1731 193.191 30.9083C193.428 30.6436 193.765 30.4914 194.12 30.4893C194.871 30.52 195.474 31.1252 195.504 31.8804Z" fill="#FF5630"/>
<path d="M200.157 32.563C200.192 32.9175 200.076 33.2704 199.839 33.5352C199.602 33.7999 199.265 33.952 198.91 33.9542C198.159 33.9234 197.556 33.3183 197.526 32.563C197.491 32.2086 197.606 31.8557 197.843 31.5909C198.08 31.3262 198.417 31.174 198.772 31.1719C199.524 31.2026 200.126 31.8078 200.157 32.563Z" fill="#79E2F2"/>
<path d="M204.375 33.7222C204.41 34.0767 204.295 34.4296 204.058 34.6943C203.821 34.9591 203.484 35.1112 203.129 35.1134C202.377 35.0826 201.775 34.4774 201.744 33.7222C201.709 33.3678 201.825 33.0149 202.062 32.7501C202.299 32.4853 202.636 32.3332 202.991 32.3311C203.742 32.3618 204.345 32.967 204.375 33.7222Z" fill="#0065FF"/>
<path d="M150.961 75.9625C150.996 76.3169 150.881 76.6698 150.644 76.9346C150.407 77.1993 150.07 77.3515 149.715 77.3536C148.963 77.3229 148.361 76.7177 148.33 75.9625C148.295 75.608 148.411 75.2551 148.648 74.9903C148.885 74.7256 149.222 74.5735 149.577 74.5713C150.328 74.6021 150.931 75.2072 150.961 75.9625Z" fill="#79E2F2"/>
<path d="M154.869 77.6275C154.904 77.9819 154.789 78.3348 154.552 78.5996C154.315 78.8644 153.978 79.0165 153.623 79.0187C152.872 78.9879 152.269 78.3827 152.239 77.6275C152.204 77.273 152.319 76.9201 152.556 76.6554C152.793 76.3906 153.13 76.2385 153.485 76.2363C154.236 76.2671 154.839 76.8723 154.869 77.6275Z" fill="#0065FF"/>
<path d="M101.105 60.2188L115.122 67.17" stroke="#B3F5FF" stroke-width="1.37"/>
<path d="M95.5996 57.4736L99.1258 59.2219" stroke="#B3F5FF" stroke-width="1.37"/>
<path d="M101.488 64.4062L133.482 80.2748" stroke="#00C7E5" stroke-width="1.37"/>
<path d="M95.5996 61.4756L99.5088 63.4093" stroke="#B3F5FF" stroke-width="1.37"/>
<path d="M116.725 75.9619L122.166 78.6608" stroke="#B3F5FF" stroke-width="1.37"/>
<path d="M101.105 68.2139L114.559 74.8868" stroke="#00C7E5" stroke-width="1.37"/>
<path d="M95.5996 65.4727L99.1258 67.2163" stroke="#B3F5FF" stroke-width="1.37"/>
<path d="M101.105 72.2109L133.482 88.2696" stroke="#00C7E5" stroke-width="1.37"/>
<path d="M95.5996 69.4707L99.1258 71.2143" stroke="#B3F5FF" stroke-width="1.37"/>
<path d="M127.561 89.3311L133.482 92.271" stroke="#B3F5FF" stroke-width="1.37"/>
<path d="M101.105 76.208L125.442 88.2833" stroke="#00C7E5" stroke-width="1.37"/>
<path d="M95.5996 73.4678L99.1258 75.2114" stroke="#B3F5FF" stroke-width="1.37"/>
<path d="M101.105 80.2051L126.744 92.925" stroke="#00C7E5" stroke-width="1.37"/>
<path d="M95.5996 77.4648L99.1258 79.2084" stroke="#B3F5FF" stroke-width="1.37"/>
<path d="M62.7188 54.1536V54.1211" stroke="#C1C7D0" stroke-width="0.46"/>
<path opacity="0.6" fill-rule="evenodd" clip-rule="evenodd" d="M62.5338 53.3697C59.6815 52.535 56.7692 51.7606 53.8477 51.0511V41.2295C56.7369 41.9204 59.6492 42.6995 62.5338 43.5481V53.3697ZM73.3846 47.1512C71.2477 46.3629 69.0415 45.5978 66.8077 44.8743C65.8154 44.5544 64.8369 44.2437 63.8907 43.9469V53.7917C64.9707 54.1163 66.0923 54.4641 67.223 54.8305C69.2815 55.4982 71.3492 56.2216 73.38 56.9543L73.3846 47.1512ZM74.7461 47.6613C77.7969 48.816 80.8523 50.0727 83.8477 51.4082V61.151C80.8477 59.8294 77.7923 58.5866 74.7461 57.4412V47.6613Z" fill="url(#paint31_linear)"/>
<path opacity="0.4" d="M77.0176 32.9053L112.399 48.338" stroke="url(#paint32_linear)" stroke-width="2.74" stroke-linecap="round"/>
<path opacity="0.4" d="M147.047 67.2393C152.797 70.0143 158.684 72.4907 164.687 74.6588C172.907 77.6266 177.439 79.2265 183.721 79.8618C189.222 80.4088 194.775 80.1039 200.184 78.9575" stroke="url(#paint33_linear)" stroke-width="2.74" stroke-linecap="round"/>
<path opacity="0.4" d="M147.047 113.724C152.797 116.499 158.684 118.975 164.687 121.143C172.907 124.111 177.439 125.711 183.721 126.346C189.222 126.893 194.775 126.588 200.184 125.442" stroke="url(#paint34_linear)" stroke-width="2.74" stroke-linecap="round"/>
<path opacity="0.4" d="M77.691 116.812C72.4064 119.181 68.128 121.045 66.6141 121.593C58.3941 124.56 53.8618 126.16 47.5803 126.795C42.0789 127.343 36.5265 127.038 31.1172 125.891" stroke="url(#paint35_linear)" stroke-width="2.74" stroke-linecap="round"/>
<path opacity="0.4" d="M107.267 103.206C102.578 105.469 88.1683 112.128 77.6914 116.812" stroke="url(#paint36_linear)" stroke-width="2.74" stroke-linecap="round"/>
<path opacity="0.4" d="M111.809 44.6611L128.41 51.9045" stroke="url(#paint37_linear)" stroke-width="2.74" stroke-linecap="round"/>
<path opacity="0.4" d="M68.6504 25.834L87.4304 34.028" stroke="url(#paint38_linear)" stroke-width="2.74" stroke-linecap="round"/>
<path opacity="0.4" d="M191.793 24.6279C207.577 24.9199 222.011 33.641 229.667 47.5126" stroke="url(#paint39_linear)" stroke-width="2.74" stroke-linecap="round"/>
<path d="M146.64 102.376C157.855 107.407 169.509 110.983 181.467 113.719C181.467 113.719 181.546 110.282 181.537 110.751C181.56 108.363 181.569 105.974 181.564 103.586C181.56 101.198 181.564 98.81 181.537 96.4218C181.537 96.1065 181.615 93.4864 181.467 93.454C169.509 90.718 157.855 87.1427 146.64 82.1113C146.677 82.1113 146.566 85.5243 146.571 85.0792C146.548 87.4673 146.538 89.8555 146.543 92.2437C146.548 94.6318 146.543 97.02 146.571 99.4082C146.571 99.7745 146.418 102.274 146.64 102.376Z" fill="url(#paint40_linear)"/>
<path d="M146.949 106.025C150.102 107.393 153.411 108.747 156.923 110.064C160.335 111.347 163.642 112.502 166.842 113.528" fill="#B3F5FF"/>
<path d="M146.949 106.025C150.102 107.393 153.411 108.747 156.923 110.064C160.335 111.347 163.642 112.502 166.842 113.528" stroke="#79E2F2" stroke-width="1.37"/>
<path d="M205.949 50.3C205.946 50.6834 206.197 51.0223 206.563 51.13C215.054 53.6716 221.926 59.9695 225.223 68.2321V59.3194C223.89 55.6687 221.838 52.3253 219.191 49.4884C215.866 45.9362 211.714 43.2715 207.108 41.735C206.873 41.6493 206.611 41.6833 206.406 41.8261C206.201 41.9689 206.077 42.2028 206.074 42.4538L205.949 50.3Z" fill="url(#paint41_linear)"/>
<path d="M205.949 64.856C205.95 65.2498 206.216 65.5933 206.595 65.6907C214.332 67.6443 221.007 72.5517 225.2 79.3705C225.246 76.4491 225.2 73.523 225.223 70.6015C223.714 67.3829 221.674 64.4434 219.191 61.9067C215.784 58.4756 211.662 55.8465 207.122 54.209C206.886 54.1178 206.621 54.1484 206.412 54.2908C206.203 54.4332 206.077 54.6694 206.074 54.9231L205.949 64.856Z" fill="url(#paint42_linear)"/>
<path opacity="0.7" d="M213.153 61.9575C213.103 62.5935 212.763 63.1705 212.233 63.5206C211.702 63.8707 211.04 63.9545 210.439 63.7475C209.081 63.2664 208.233 61.9069 208.395 60.469C208.444 59.833 208.784 59.256 209.315 58.9059C209.846 58.5558 210.508 58.472 211.108 58.679C212.467 59.1601 213.315 60.5197 213.153 61.9575Z" fill="#79E2F2"/>
<path opacity="0.7" d="M213.153 48.7739C213.103 49.4099 212.763 49.9869 212.233 50.337C211.702 50.6871 211.04 50.7709 210.439 50.5639C209.081 50.0828 208.233 48.7233 208.395 47.2854C208.444 46.6494 208.784 46.0724 209.315 45.7223C209.846 45.3722 210.508 45.2885 211.108 45.4954C212.467 45.9765 213.315 47.3361 213.153 48.7739Z" fill="#79E2F2"/>
<path opacity="0.4" d="M216.979 117.994C223.527 114.141 227.774 107.303 228.342 99.7002V99.7002" stroke="url(#paint43_linear)" stroke-width="2.74" stroke-linecap="round"/>
<path opacity="0.4" d="M2.16992 52.7251C2.33152 45.1054 6.20608 38.0511 12.5361 33.8516V33.8516" stroke="url(#paint44_linear)" stroke-width="2.74" stroke-linecap="round"/>
<g opacity="0.5">
<path d="M5.38672 74.6084C7.53749 71.8771 11.0083 68.5012 15.739 65.2458C21.8636 61.0259 27.5544 58.9763 31.3667 58.1045" stroke="url(#paint45_linear)" stroke-width="1.37"/>
<path opacity="0.7" d="M5.55273 70.2629C8.58106 66.5267 12.1281 63.2471 16.085 60.5247C21.8486 56.4598 28.3772 53.6195 35.2712 52.1777" stroke="url(#paint46_linear)" stroke-width="1.37"/>
<path d="M5.72461 66.7433C7.42769 63.8868 10.7554 59.5603 16.4969 55.5537C21.2692 52.2149 25.8523 50.0818 28.8615 49.3213" stroke="url(#paint47_linear)" stroke-width="1.37"/>
<path opacity="0.7" d="M23.5996 46.5206C26.2657 45.2826 29.0616 44.3493 31.935 43.7383" stroke="#0052CC" stroke-width="1.37"/>
<path opacity="0.7" d="M5.30859 62.0322C8.8736 56.0571 13.9883 51.1683 20.1055 47.8887" stroke="url(#paint48_linear)" stroke-width="1.37"/>
<path d="M5.91797 55.9897C9.16342 51.8427 13.0608 48.2558 17.4564 45.3705C19.9178 43.7583 22.5265 42.3857 25.2472 41.2712C28.2025 40.071 31.2768 39.1911 34.418 38.6465" stroke="url(#paint49_linear)" stroke-width="1.37"/>
</g>
<path opacity="0.1" d="M89.8845 133.079C96.1882 133.079 101.298 131.935 101.298 130.524C101.298 129.113 96.1882 127.969 89.8845 127.969C83.5809 127.969 78.4707 129.113 78.4707 130.524C78.4707 131.935 83.5809 133.079 89.8845 133.079Z" fill="#172B4D"/>
<path d="M76.8553 105.376L75.6045 106.146C75.3334 106.216 75.0572 106.265 74.7784 106.29C74.5614 106.29 74.386 106.29 74.2707 106.188C74.2306 106.146 74.2006 106.095 74.183 106.04C74.1124 106.084 74.0227 106.084 73.9522 106.04C73.8751 105.995 73.8289 105.911 73.8322 105.822C73.8361 105.738 73.8913 105.666 73.9707 105.641C73.936 105.595 73.9166 105.54 73.9153 105.483C73.9153 105.26 74.2984 105.066 74.8384 104.992C74.5384 104.894 74.3445 104.709 74.3537 104.528C74.3563 104.484 74.3725 104.442 74.3999 104.407L75.1522 104.583C75.302 104.539 75.4577 104.519 75.6137 104.523C75.8927 104.536 76.1641 104.619 76.403 104.764L76.8553 105.376Z" fill="#CEA28B"/>
<path d="M96.2271 127.607C96.8594 127.815 97.4208 128.198 97.8471 128.711C97.7964 128.855 97.7364 128.999 97.6671 129.152C97.3429 129.851 96.8868 130.481 96.3241 131.007H94.5564C94.5489 130.959 94.5489 130.91 94.5564 130.863C94.6302 130.399 95.4333 130.237 95.4794 130.227C95.7628 129.621 95.7628 128.919 95.4794 128.312L96.2271 127.607Z" fill="#344563"/>
<path d="M89.3369 102.779C91.2639 102.779 92.8261 101.209 92.8261 99.2733C92.8261 97.3372 91.2639 95.7676 89.3369 95.7676C87.4098 95.7676 85.8477 97.3372 85.8477 99.2733C85.8477 101.209 87.4098 102.779 89.3369 102.779Z" fill="#253858"/>
<path d="M88.3075 104.384C87.1306 103.396 84.4075 103.86 83.5813 105.265C82.7552 106.67 83.9644 109.179 85.4275 112.049C85.8336 112.842 86.4613 114.001 89.2721 118.509C90.8367 121.013 91.1552 121.472 92.1429 123.09C93.5598 125.409 94.649 127.305 95.3413 128.534L96.8598 127.82C96.1213 126.091 95.5813 124.667 95.2306 123.698C94.4829 121.648 94.1736 120.54 93.3844 118.787C92.8582 117.632 92.3552 116.728 92.0229 116.153C91.7152 115.226 91.4075 114.276 91.0998 113.306C90.5029 111.432 89.949 109.591 89.4382 107.783C89.4937 107.156 89.4199 106.525 89.2213 105.928C89.0529 105.343 88.7383 104.812 88.3075 104.384Z" fill="#42526E"/>
<path d="M85.3807 128.85C85.4499 129.095 85.5145 129.36 85.5653 129.643C85.6323 129.995 85.6801 130.351 85.7084 130.709C85.7148 130.789 85.6875 130.869 85.6332 130.928C85.5788 130.987 85.5023 131.02 85.4222 131.02H81.776C81.7567 130.856 81.7995 130.69 81.896 130.556C82.0437 130.385 82.2607 130.394 82.5191 130.352C83.027 130.244 83.4952 129.997 83.8714 129.638C84.0949 129.415 84.268 129.146 84.3791 128.85L85.3807 128.85Z" fill="#344563"/>
<path d="M86.106 102.891C85.2986 102.684 84.4426 102.811 83.7291 103.243C82.8383 103.86 82.4183 105.066 82.4783 109.582C82.5106 111.831 82.6491 114.266 83.0414 117.929C83.3367 120.675 83.4752 121.319 83.6921 123.763C83.8952 126.031 83.9967 127.895 84.0475 129.124L85.866 129.23C86.2629 126.963 86.526 125.057 86.6968 123.573C86.8844 122.395 86.9247 121.199 86.8168 120.011C86.6942 119.062 86.4967 118.124 86.226 117.206C86.1383 116.918 86.0506 116.649 85.9675 116.413C86.0783 115.801 86.2629 114.85 86.5214 113.691C86.8444 112.253 87.126 110.978 87.5921 109.388C88.3675 106.707 88.686 106.429 88.5152 105.553C88.2546 104.291 87.3316 103.271 86.106 102.891Z" fill="#505F79"/>
<path d="M82.2424 93.2356C81.987 93.8683 81.9625 94.5713 82.1732 95.2204C82.3539 95.7685 82.7196 96.236 83.207 96.542C83.4118 96.6595 83.6377 96.7352 83.8716 96.7645C84.086 96.8037 84.3066 96.7877 84.5132 96.7182C85.2332 96.324 84.4209 93.2495 83.3778 92.4798C83.2516 92.3661 83.0855 92.3077 82.9163 92.3175C82.5378 92.3777 82.3532 92.9203 82.2424 93.2356Z" fill="#253858"/>
<path d="M89.3354 106.193C87.078 107.985 83.8786 107.938 81.6738 106.081C81.9085 105.721 82.0977 105.334 82.2369 104.927C82.6065 103.837 82.6306 102.659 82.3061 101.555C82.0661 100.804 81.8446 100.716 81.8446 100.132C81.8446 99.8675 81.8861 99.7469 82.2369 98.4856C82.4908 97.5581 82.5 97.5025 82.5877 97.3819C83.1172 96.891 83.8263 96.644 84.5446 96.7002C84.7984 96.7002 87.24 96.7281 87.9877 98.2955C88.2315 98.9346 88.2781 99.6326 88.1215 100.299C88.0384 100.888 87.6877 102.617 87.8631 103.127C88.0606 103.565 88.2889 103.988 88.5461 104.393C88.8455 104.976 89.109 105.577 89.3354 106.193Z" fill="url(#paint50_linear)"/>
<path d="M82.3071 94.3906C82.3474 94.4415 82.3958 94.4853 82.4502 94.5204C82.5075 94.5645 82.5677 94.6048 82.6302 94.641C82.6302 94.7662 82.6302 94.896 82.6302 95.0305C82.6454 95.2732 82.6746 95.5147 82.7179 95.7539C82.9633 95.8192 83.2132 95.8657 83.4656 95.893C83.9267 95.958 84.3957 95.9391 84.8502 95.8374C85.1588 95.7779 85.4533 95.6599 85.7179 95.4896C86.5499 94.91 86.8221 93.7987 86.353 92.8973C85.8839 91.9959 84.8202 91.5864 83.8718 91.9421C83.4897 92.0964 83.1765 92.3847 82.9902 92.7537C82.8933 92.9809 82.9441 93.0087 82.7825 93.3982C82.7317 93.5216 82.6747 93.6423 82.6118 93.7599C82.4133 94.1355 82.261 94.27 82.3071 94.3906Z" fill="#CEA28B"/>
<path d="M85.8472 94.8447C85.4853 95.4692 85.4542 96.233 85.7641 96.8851C85.4257 97.1108 85.0811 97.3473 84.7303 97.5946C84.2288 97.9501 83.7503 98.3026 83.2949 98.6519L83.8995 97.0984C83.9058 96.6915 83.8639 96.2852 83.7749 95.8881L85.8472 94.8447Z" fill="#CEA28B"/>
<path d="M76.3066 104.389L76.5928 105.566C78.0538 105.507 79.5102 105.361 80.9543 105.131C81.9928 104.964 82.9713 104.764 83.8759 104.546C85.2862 103.408 86.5471 102.094 87.6282 100.637C87.7325 100.494 87.8178 100.338 87.882 100.173C87.9097 100.099 88.3805 98.8981 87.7436 98.3834C87.2035 98.0512 86.5079 98.1295 86.0543 98.5735L82.6574 102.817L76.3066 104.389Z" fill="url(#paint51_linear)"/>
<path d="M83.6458 93.8019C83.8489 94.0523 83.955 93.9317 84.1489 94.1543C84.5597 94.618 84.1489 95.2209 84.532 95.6521C84.7166 95.8608 84.8966 95.7124 85.0489 95.9164C85.2012 96.1205 85.0166 96.6769 85.0489 97.0526C85.1089 97.7018 85.9997 98.2258 86.6873 98.351C87.1489 98.4345 87.2504 98.2953 87.7627 98.2814C89.2489 98.2443 89.7889 99.3897 90.532 99.144C91.275 98.8982 91.5889 97.4467 91.3073 96.3616C91.099 95.6152 90.6132 94.9778 89.9504 94.5809C89.3181 94.2099 88.935 94.3491 88.3304 93.839C87.9976 93.5697 87.7268 93.2311 87.5366 92.8466C87.2243 92.3 86.7839 91.8383 86.2535 91.5018C85.6955 91.217 85.0599 91.1241 84.4443 91.2375C84.0473 91.2931 83.2858 91.3951 83.032 91.9192C82.9173 92.1387 82.9021 92.3971 82.9904 92.6286C83.0412 92.7214 83.0827 92.7353 83.1797 92.8373C83.4797 93.1851 83.3873 93.4773 83.6458 93.8019Z" fill="#253858"/>
<path d="M161.475 96.3014V101.773C161.475 101.869 161.523 101.959 161.603 102.012C161.682 102.065 161.783 102.075 161.872 102.038L166.625 100.053C166.72 100.013 166.787 99.925 166.799 99.8223C166.811 99.7197 166.768 99.6183 166.685 99.5567L161.932 96.0695C161.845 96.0045 161.729 95.9945 161.632 96.0436C161.535 96.0927 161.474 96.1925 161.475 96.3014Z" fill="#00C7E5"/>
<path opacity="0.1" d="M130.858 41.6387C130.903 40.6691 124.884 39.5972 117.413 39.2446C109.943 38.8919 103.85 39.392 103.805 40.3616C103.759 41.3312 109.779 42.4031 117.249 42.7557C124.72 43.1084 130.813 42.6083 130.858 41.6387Z" fill="#172B4D"/>
<path d="M123.9 38.9528C123.9 39.1661 123.9 39.4165 123.928 39.6345C123.953 39.9333 123.995 40.2306 124.053 40.5248C124.066 40.5907 124.105 40.6482 124.162 40.6834C124.219 40.7186 124.288 40.7284 124.353 40.7103L127.283 39.871C127.264 39.7277 127.19 39.5979 127.076 39.5093C126.919 39.4026 126.743 39.4629 126.527 39.5093C126.093 39.5381 125.66 39.4449 125.276 39.2403C125.046 39.1126 124.846 38.9371 124.69 38.7256L123.9 38.9528Z" fill="#344563"/>
<path d="M114.614 18.2154C114.582 18.0597 114.598 17.8978 114.66 17.7517C115.002 16.8242 116.506 14.0419 116.635 13.8239L118.708 8.85746C119.107 8.85481 119.497 8.9763 119.825 9.20526C119.274 10.751 118.737 12.3663 118.214 14.0512C117.582 16.1054 117.042 18.0902 116.571 19.9961C116.287 19.6096 115.937 19.2768 115.537 19.013C115.131 18.7394 114.72 18.5956 114.614 18.2154Z" fill="#FF7452"/>
<path d="M117.443 21.4053C117.176 21.4378 116.915 21.508 116.668 21.6139C115.62 22.0777 115.094 23.0608 114.595 24.0392L114.508 24.2108C114.275 24.6968 114.127 25.219 114.069 25.755C114.009 26.2187 113.723 27.3316 112.781 29.9285C112.541 30.2392 112.191 30.7122 111.803 31.3197C111.433 31.901 111.097 32.5033 110.797 33.1235C110.087 34.5215 109.293 35.8749 108.42 37.1765L109.86 38.192C111.092 36.4484 112.117 35.0665 112.823 34.1391C113.912 32.6969 114.249 32.312 114.909 31.3197C115.638 30.2253 116.114 29.372 117.028 27.7073C117.558 26.7474 118.246 25.4628 119.021 23.9279C118.654 23.8153 118.32 23.6111 118.052 23.3344C117.582 22.8094 117.36 22.1064 117.443 21.4053Z" fill="#FF5630"/>
<path d="M117.597 13.8653C117.579 13.8997 117.554 13.9297 117.523 13.9534C117.493 13.9823 117.458 14.0073 117.422 14.0276C117.587 14.3662 117.668 14.7403 117.657 15.1173C117.574 15.2668 117.474 15.4055 117.357 15.5301C117.1 15.8192 116.76 16.0203 116.383 16.1051C115.982 16.1639 115.573 16.082 115.225 15.8732C115.008 15.7619 113.872 15.173 113.928 14.1157C114.024 13.1947 114.792 12.4925 115.714 12.4834C116.059 12.5015 116.386 12.6429 116.637 12.8822C116.872 13.1372 116.877 13.2949 117.209 13.5268C117.385 13.6381 117.625 13.7772 117.597 13.8653Z" fill="#CEA28B"/>
<path d="M114.748 15.3027C115.226 15.7078 115.475 16.3237 115.413 16.9489C115.797 17.0852 116.219 17.0652 116.59 16.8933C116.767 16.8047 116.924 16.68 117.051 16.527L116.885 15.4743L114.748 15.3027Z" fill="#CEA28B"/>
<path d="M99.9231 0.993852C99.9289 0.447121 100.377 0.00864743 100.924 0.014496L140.143 0.434036C140.69 0.439885 141.128 0.887839 141.122 1.43457L141.039 9.26185C141.034 9.80858 140.586 10.2471 140.039 10.2412L100.82 9.82167C100.273 9.81582 99.8344 9.36787 99.8402 8.82113L99.9231 0.993852Z" fill="url(#paint52_linear)"/>
<path d="M102.518 3.41699C102.522 3.02489 102.843 2.71043 103.235 2.71463L106.241 2.74678C106.633 2.75098 106.948 3.07224 106.944 3.46434L106.912 6.49126C106.908 6.88336 106.586 7.19782 106.194 7.19363L103.188 7.16147C102.796 7.15728 102.482 6.83602 102.486 6.44392L102.518 3.41699Z" fill="#4C9AFF"/>
<path d="M103.418 4.69321L104.281 5.61138L105.86 4.21094" stroke="#DEEBFF" stroke-width="1.77"/>
<path d="M110.133 4.06641L131.954 4.29827" stroke="#79E2F2" stroke-width="1.77"/>
<path d="M110.109 6.02832L125.802 6.19526" stroke="#79E2F2" stroke-width="1.77"/>
<path d="M124.538 9.94642C124.684 9.77491 124.818 9.59364 124.94 9.40387C125.213 8.97396 125.42 8.50491 125.554 8.0127C125.624 7.82963 125.536 7.62396 125.355 7.54898C125.238 7.53556 125.123 7.58708 125.055 7.68345C124.994 7.68302 124.933 7.69241 124.875 7.71128C124.641 7.81887 124.471 8.02972 124.414 8.28166L124.211 8.54598L124.104 8.27238C124.068 8.18013 123.994 8.10772 123.901 8.07298C123.825 8.04496 123.742 8.04496 123.666 8.07298L123.804 8.49497L123.851 9.61254L124.538 9.94642Z" fill="#CEA28B"/>
<path d="M117.186 16.6937L120.919 13.8789L123.762 9.19531C124.148 9.27799 124.499 9.477 124.769 9.76569L122.373 14.6023L119.23 19.5641C118.984 19.1777 118.722 18.7835 118.446 18.3817C118.026 17.7788 117.601 17.2084 117.186 16.6937Z" fill="#FF7452"/>
<path d="M115.317 23.5479C115.161 23.8158 115.049 24.107 114.985 24.4104C114.648 26.0102 115.811 27.4246 116.069 27.7399C116.669 28.4726 116.992 28.4448 118.317 29.5623C118.946 30.0843 119.546 30.6417 120.112 31.2317C120.244 32.0701 120.481 32.8882 120.818 33.6663C121.321 34.8163 121.797 35.3125 122.535 36.5924C123.041 37.471 123.479 38.3872 123.846 39.333L125.434 38.7208C125.005 37.2045 124.511 35.6278 123.948 33.9955C123.412 32.456 122.849 31.0184 122.78 30.8468C122.265 29.5803 121.647 28.3582 120.934 27.1927C120.509 26.46 119.918 25.3888 119.245 23.9838C118.766 24.1788 118.256 24.2826 117.74 24.2898C116.876 24.2925 116.032 24.0339 115.317 23.5479V23.5479Z" fill="url(#paint53_linear)"/>
<path d="M116.051 14.7648L116.194 15.2934C116.219 15.3851 116.188 15.4832 116.115 15.5438C116.038 15.6081 115.955 15.6641 115.866 15.7108C115.741 15.7771 115.608 15.8255 115.469 15.8545H115.386C115.3 15.8762 115.208 15.8574 115.137 15.8035L114.938 15.6598C114.641 15.4633 114.386 15.2076 114.191 14.9085L114.112 14.7833C113.994 14.5979 113.923 14.3861 113.905 14.1666C113.88 13.8588 113.963 13.5521 114.14 13.2994C114.374 12.971 114.7 12.7207 115.077 12.5807L115.326 12.4879C115.419 12.4583 115.503 12.4057 115.571 12.3349C115.645 12.2519 115.76 12.2194 115.866 12.2514L116.198 12.3488C116.243 12.3618 116.285 12.3856 116.318 12.4184L116.683 12.7801C116.743 12.8388 116.77 12.9246 116.752 13.0073L116.701 13.2484C116.67 13.3925 116.619 13.5314 116.549 13.6611L116.406 13.9301C116.36 14.007 116.36 14.1036 116.406 14.1805L116.512 14.3382L116.471 14.4819L116.365 14.4587C116.237 14.4243 116.102 14.4842 116.041 14.6025C116.025 14.656 116.029 14.7135 116.051 14.7648Z" fill="#344563"/>
<path d="M115.451 16.8936C115.84 16.6443 116.29 16.5079 116.752 16.4995C117.657 16.4117 118.569 16.4413 119.466 16.5876C119.537 17.3512 119.592 18.1426 119.632 18.9618C119.71 20.6957 119.694 22.4326 119.586 24.1648C118.181 25.6415 115.942 25.9332 114.209 24.865C114.242 24.3962 114.313 23.9309 114.421 23.4738C114.694 22.3285 115.012 22.0317 115.054 21.1552C115.045 20.6885 114.998 20.2233 114.915 19.7641C114.818 19.0592 114.703 18.4796 114.62 18.0808C114.763 17.6059 115.054 17.1898 115.451 16.8936Z" fill="#FF7452"/>
<path d="M108.841 37.459C108.579 37.6175 108.324 37.7893 108.079 37.9737C107.849 38.1453 107.646 38.3215 107.461 38.4884C107.498 38.6044 107.539 38.7296 107.59 38.8502C107.828 39.4314 108.176 39.9605 108.615 40.4083L110.046 40.4871C110.052 40.4487 110.052 40.4095 110.046 40.3712C110.004 40.0002 109.358 39.8286 109.321 39.8193C109.215 39.5691 109.17 39.2976 109.187 39.0264C109.214 38.6469 109.361 38.2862 109.607 37.9969L108.841 37.459Z" fill="#344563"/>
<path fill-rule="evenodd" clip-rule="evenodd" d="M169.644 99.5893C169.68 101.175 169.03 102.699 167.862 103.766C166.695 104.833 165.124 105.34 163.556 105.154C160.14 104.777 157.534 101.91 157.468 98.4579C157.432 96.8721 158.082 95.3485 159.249 94.2811C160.417 93.2137 161.988 92.7074 163.556 92.8932C166.972 93.2703 169.578 96.1371 169.644 99.5893V99.5893Z" stroke="#00C7E5" stroke-width="1.37"/>
<path opacity="0.1" d="M156.596 146.847C162.543 146.847 167.364 146.058 167.364 145.084C167.364 144.111 162.543 143.322 156.596 143.322C150.649 143.322 145.828 144.111 145.828 145.084C145.828 146.058 150.649 146.847 156.596 146.847Z" fill="#344563"/>
<path d="M160.085 105.265C159.833 105.316 159.572 105.262 159.36 105.116C159.06 104.875 159.065 104.453 159.088 103.725C159.098 103.031 159.255 102.346 159.549 101.717C159.609 101.601 159.835 101.147 159.946 101.179C159.983 101.179 159.997 101.249 160.006 101.295C160.034 101.471 160.005 101.652 159.923 101.81C159.835 102.027 159.764 102.25 159.711 102.478C159.788 102.378 159.918 102.336 160.038 102.372C160.159 102.407 160.245 102.514 160.255 102.64C160.369 102.605 160.491 102.615 160.597 102.668C160.814 102.802 160.758 103.173 160.772 103.475C160.786 103.759 160.723 104.041 160.588 104.291L160.085 105.265Z" fill="#72594B"/>
<path d="M145.883 113.728C145.851 113.83 145.809 113.983 145.763 114.168C145.571 115.036 145.472 115.922 145.467 116.811C145.407 118.11 145.467 117.739 145.421 118.379C145.375 119.019 145.301 119.552 145.56 120.071C145.637 120.226 145.735 120.37 145.851 120.498L150.327 124.699L151.481 123.92L147.152 119.176L147.877 113.714L146.834 113.436L145.883 113.728Z" fill="#FF5630"/>
<path d="M147.327 120.893C147.419 120.494 147.565 120.11 147.761 119.752C147.933 119.806 148.107 119.851 148.283 119.886C148.477 119.924 148.629 119.937 148.712 119.951C149.174 120.016 150.051 120.123 152.404 120.304C152.57 120.504 152.724 120.713 152.866 120.93C153.297 121.629 153.609 122.395 153.789 123.197C155.391 129.824 155.511 130.051 155.511 130.051C155.735 131.325 155.951 132.617 156.157 133.928C156.563 136.52 157.121 141.422 157.426 143.903C157.37 144.082 157.266 144.242 157.126 144.366C156.992 144.476 156.834 144.551 156.664 144.584C156.055 144.668 154.994 141.454 154.994 141.454C154.374 139.341 153.999 137.162 153.877 134.962C153.87 134.408 153.908 133.854 153.992 133.307C153.3 131.987 152.607 130.659 151.915 129.323C151.377 128.284 150.843 127.249 150.314 126.216C150.314 128.689 150.314 131.201 150.314 133.752C150.289 136.843 150.24 139.899 150.166 142.92C150.08 142.992 149.979 143.045 149.871 143.073C149.692 143.109 149.507 143.09 149.34 143.017C149.064 142.942 148.815 142.791 148.62 142.581C148.264 140.709 148.025 138.816 147.904 136.914C147.734 134.225 147.983 134.415 147.831 132.24C147.604 128.934 146.727 124.232 146.958 122.706C146.991 122.423 147.198 121.449 147.327 120.893Z" fill="#72594B"/>
<path d="M149.987 107.486C150.163 107.213 150.389 106.8 150.241 106.591C150.094 106.383 149.78 106.536 149.041 106.564C147.952 106.605 147.837 106.42 147.283 106.596C146.846 106.723 146.461 106.99 146.189 107.357C145.84 107.951 145.764 108.668 145.981 109.323C146.206 110.086 146.713 110.735 147.398 111.136L147.989 111.516L149.66 108.622L149.987 107.486Z" fill="#172B4D"/>
<path d="M148.068 112.531H150.325C149.981 111.726 149.895 110.833 150.08 109.976L148.695 109.911C148.695 109.995 148.654 110.111 148.612 110.25C148.585 110.386 148.533 110.516 148.46 110.635C148.306 110.805 148.085 110.9 147.855 110.894L148.068 112.531Z" fill="#543E36"/>
<path d="M147.578 132.203C147.578 132.161 147.578 132.119 147.578 132.073C147.486 130.756 147.297 129.221 147.117 127.737C146.84 125.52 146.577 123.429 146.72 122.478C146.762 122.214 146.974 121.226 147.098 120.688C147.143 120.493 147.2 120.301 147.269 120.113C147.349 119.896 147.445 119.686 147.555 119.483L147.657 119.302L147.855 119.362C148.018 119.413 148.182 119.455 148.349 119.487C148.492 119.515 148.608 119.529 148.691 119.538H148.765C149.198 119.603 150.052 119.705 152.457 119.891H152.568L152.637 119.979C152.802 120.187 152.957 120.403 153.098 120.628C153.549 121.349 153.876 122.141 154.068 122.97C155.498 128.882 155.738 129.68 155.775 129.777V129.842C155.868 130.375 155.96 130.923 156.052 131.465C155.223 132.039 154.212 132.285 153.214 132.156C152.706 131.187 152.198 130.218 151.695 129.244L150.578 127.083C150.578 128.683 150.578 130.287 150.578 131.887C149.629 132.277 148.588 132.387 147.578 132.203Z" fill="#FF7452"/>
<path d="M147.693 124.217C147.321 123.769 147.067 123.235 146.954 122.664C146.856 122.004 146.898 121.33 147.079 120.688C147.125 120.494 147.182 120.302 147.25 120.113C147.329 119.896 147.425 119.686 147.536 119.483L147.637 119.302L147.836 119.362C147.998 119.413 148.163 119.455 148.33 119.487C148.473 119.515 148.588 119.529 148.671 119.538H148.745C149.179 119.603 150.033 119.705 152.437 119.891H152.548L152.617 119.979C152.783 120.187 152.937 120.403 153.079 120.628C153.905 121.94 154.191 123.675 154.597 125.172C154.905 126.292 155.188 127.417 155.446 128.548C155.511 128.831 156.268 131.284 156.051 131.465C155.222 132.039 154.211 132.285 153.213 132.156C152.705 131.187 152.197 130.218 151.694 129.244C151.08 128.061 150.559 126.925 149.58 125.998C148.909 125.451 148.278 124.856 147.693 124.217Z" fill="url(#paint54_linear)"/>
<path d="M149.987 107.486L150.305 108.233L151.265 108.826L151.03 109.239L151.113 110.723C150.83 110.933 150.519 111.102 150.19 111.224C149.747 111.303 149.296 111.331 148.847 111.307C148.353 111.307 148.099 111.331 147.988 111.196C147.872 111.01 147.857 110.779 147.947 110.579C148.02 110.394 148.117 110.412 148.2 110.232C148.334 109.949 148.168 109.768 148.251 109.522C148.334 109.276 148.533 109.313 148.847 108.989C149.16 108.664 149.123 108.377 149.474 107.941C149.617 107.76 149.791 107.606 149.987 107.486Z" fill="#72594B"/>
<path d="M158.437 112.531C156.726 113.639 154.846 114.456 152.871 114.952C152.871 115.615 152.903 116.311 152.954 117.039C153.041 118.224 153.195 119.404 153.416 120.572C151.349 121.524 149.012 121.704 146.825 121.078C146.783 119.37 146.554 117.671 146.142 116.014C146.04 115.603 145.931 115.208 145.814 114.831C145.611 114.177 145.859 113.467 146.423 113.083L146.663 112.935C146.663 112.935 146.931 112.772 147.203 112.638C148.362 112.058 150.485 111.859 150.485 111.859C153.379 111.59 153.277 111.641 153.84 111.548C154.888 111.379 155.913 111.091 156.896 110.69L158.922 104.49L160.523 104.908C160.265 106.229 159.937 107.648 159.513 109.137C159.185 110.366 158.816 111.479 158.437 112.531Z" fill="url(#paint55_linear)"/>
<path d="M148.51 143.582H150.255C150.232 143.281 150.213 142.961 150.209 142.627C150.209 142.417 150.209 142.213 150.209 142.015C149.633 141.916 149.045 141.916 148.469 142.015C148.611 142.52 148.624 143.052 148.506 143.564L148.51 143.582Z" fill="#DFE1E5"/>
<path d="M155.996 144.866H157.74C157.74 144.556 157.445 143.605 157.431 143.294L156.471 143.178L155.617 143.062C155.696 143.35 155.765 143.651 155.834 143.99C155.903 144.328 155.949 144.579 155.996 144.866Z" fill="#DFE1E5"/>
<path d="M149.894 143.453C149.927 143.453 150.019 143.179 150.148 143.123C150.398 143.012 150.148 143.759 150.721 144.236C150.921 144.415 151.155 144.552 151.408 144.64C151.49 144.678 151.539 144.763 151.533 144.853V145.062H148.191C148.174 144.508 148.276 143.958 148.491 143.448L149.894 143.453Z" fill="#42526E"/>
<path d="M157.381 144.742C157.413 144.742 157.505 144.468 157.634 144.413C157.884 144.301 158.294 145.048 159.019 145.525C159.302 145.711 159.614 145.847 159.942 145.929C160.04 145.953 160.109 146.041 160.108 146.142V146.351H155.691C155.674 145.797 155.776 145.247 155.991 144.737L157.381 144.742Z" fill="#42526E"/>
<path d="M151.03 109.239C151.151 109.33 151.205 109.487 151.163 109.633C150.959 109.738 150.733 109.794 150.503 109.796C150.503 109.87 150.503 109.977 150.54 110.097C150.587 110.422 150.61 110.45 150.637 110.468C150.739 110.524 150.951 110.403 151.034 110.236C151.064 110.174 151.078 110.106 151.076 110.037C151.183 110.128 151.259 110.252 151.293 110.389C151.33 110.564 151.299 110.747 151.205 110.899C151.045 111.135 150.787 111.284 150.503 111.303H150.457C149.986 111.36 149.51 111.374 149.036 111.345C148.325 111.131 148.376 108.947 148.376 108.854L149.165 108.391C149 108.657 148.965 108.985 149.068 109.281C149.096 109.346 149.239 109.717 149.53 109.773C149.82 109.828 149.991 109.494 150.587 109.309C150.731 109.27 150.88 109.246 151.03 109.239Z" fill="#172B4D"/>
<path d="M183.01 50.625C182.885 50.8847 182.904 50.9867 182.941 51.0284C182.977 51.0702 183.374 50.9542 183.444 51.0563C183.513 51.1583 183.444 51.2047 183.393 51.2557C183.342 51.3067 183.245 51.4226 183.014 51.5524C182.867 51.6461 182.713 51.7282 182.553 51.7982C182.465 51.826 182.354 51.8492 182.156 51.8956L181.999 51.9373L181.51 51.302L182.599 50.7131C182.729 50.6426 182.877 50.615 183.024 50.6343L183.01 50.625Z" fill="url(#paint56_linear)"/>
<path d="M181.999 51.9368L178.459 55.6466L178.275 55.5399C177.853 55.362 177.583 54.942 177.596 54.4826C177.623 54.243 177.734 54.021 177.91 53.8566L181.496 51.2783L181.999 51.9368Z" fill="#F1DAD5"/>
<path d="M188.66 64.0769C189.099 63.7248 189.497 63.3234 189.846 62.8805C190.612 61.9038 191.13 60.7548 191.355 59.5324C191.157 58.5354 190.589 56.5368 188.872 55.4888C188.102 55.025 186.865 54.6031 186.532 54.9787C186.2 55.3543 187.266 56.7501 187.497 57.0701L189.685 59.6252C189.097 60.5033 188.621 61.452 188.268 62.4492C188.329 62.6904 188.391 62.9362 188.452 63.1866C188.523 63.4864 188.592 63.7832 188.66 64.0769Z" fill="#F1DAD5"/>
<path d="M187.957 50.0822C187.653 49.5257 186.6 49.2567 185.949 49.5628C185.886 49.5959 185.824 49.633 185.765 49.6741C184.819 50.2862 184.039 50.7685 183.919 51.529C183.903 51.6614 183.903 51.7953 183.919 51.9278C183.727 51.9347 183.542 51.9994 183.388 52.1133C182.989 52.5127 182.892 53.1255 183.148 53.6296C183.508 54.2889 184.276 54.6073 184.994 54.3948C185.11 54.353 185.223 54.3018 185.331 54.2417C185.456 54.1536 185.64 54.0099 185.853 53.8244C186.896 52.9201 188.46 51.0374 187.957 50.0822Z" fill="#172B4D"/>
<path d="M186.73 49.6787C186.22 49.9429 185.753 50.2838 185.345 50.6896C185.299 50.7406 185.281 50.7685 185.129 50.787C184.976 50.8056 184.796 50.787 184.796 50.8705C184.796 50.9539 184.93 51.1719 184.916 51.26L184.362 52.2477C184.282 52.3892 184.309 52.5675 184.427 52.679L184.662 52.9016L186.149 54.2928C186.129 53.5602 186.161 52.8272 186.245 52.0993C186.261 51.9633 186.278 51.8288 186.296 51.6959C186.169 51.4372 186.111 51.1493 186.13 50.8612C186.152 50.5957 186.234 50.3387 186.37 50.11C186.467 49.9481 186.588 49.8025 186.73 49.6787Z" fill="#F1DAD5"/>
<path d="M184.906 55.1506L187.126 55.35C187.061 54.5709 187.131 53.7863 187.334 53.0314L185.114 52.832L184.906 55.1506Z" fill="#F1DAD5"/>
<path d="M177.918 54.7845C177.917 54.4835 178.057 54.1994 178.295 54.0171C178.534 53.8349 178.844 53.7756 179.132 53.8571C179.708 54.0148 180.292 54.1432 180.881 54.242C181.698 54.3709 182.52 54.4544 183.346 54.4924C184.8 54.5898 186.997 54.6547 188.072 55.0535C188.458 55.2018 188.821 55.4065 189.147 55.661L189.521 55.9856C189.179 56.6398 188.898 57.3244 188.681 58.0306C188.286 59.3212 188.108 60.6691 188.155 62.0186C187.643 62.2044 187.112 62.3319 186.572 62.3989C186.129 62.4376 185.683 62.4515 185.238 62.4406C182.931 62.4406 182.109 61.9398 182.109 61.9398C182.19 61.1117 182.19 60.2777 182.109 59.4496C182.021 58.6659 181.892 58.3923 182.026 57.8451C182.105 57.5335 182.241 57.2394 182.427 56.9779C181.352 56.734 180.297 56.4085 179.271 56.0041C179.04 55.916 178.781 55.8094 178.504 55.6934C178.141 55.5407 177.909 55.1799 177.918 54.7845Z" fill="#F1DAD5"/>
<path d="M189.748 59.848H189.531L189.683 59.6115L187.496 57.0564C187.26 56.7364 186.185 55.3591 186.531 54.965C186.877 54.5708 188.1 55.0067 188.871 55.4751C190.523 56.486 191.109 58.3733 191.331 59.3982C191.347 59.4808 191.347 59.5659 191.331 59.6486C191.303 59.8109 191.262 59.9964 191.206 60.2004C190.76 59.956 190.256 59.8344 189.748 59.848Z" fill="#0052CC"/>
<path d="M178.459 55.6465C178.459 55.4023 178.459 55.1596 178.459 54.9184C178.466 54.6212 178.606 54.3431 178.842 54.1626C179.077 53.9822 179.381 53.919 179.668 53.991C180.042 54.0791 180.444 54.1672 180.877 54.2368C181.694 54.3656 182.517 54.4492 183.342 54.4872C184.796 54.5846 186.993 54.6495 188.068 55.0483C188.454 55.1965 188.817 55.4012 189.144 55.6558L189.517 55.9804C189.37 56.2632 189.217 56.5786 189.056 56.9078C189.056 56.9078 188.83 57.4504 188.654 58.0115C188.309 59.3126 188.132 60.653 188.128 61.9995C187.616 62.1853 187.085 62.3128 186.545 62.3797C186.411 62.3797 185.945 62.4215 185.211 62.4215C182.904 62.4215 182.082 61.9206 182.082 61.9206C182.163 61.0926 182.163 60.2585 182.082 59.4305C181.994 58.6468 181.865 58.3732 181.999 57.826C182.078 57.5144 182.214 57.2203 182.401 56.9588C181.325 56.7149 180.27 56.3893 179.244 55.985C179.045 55.9015 178.768 55.7902 178.459 55.6465Z" fill="url(#paint57_linear)"/>
<path d="M186.994 49.7253C186.717 50.0911 186.556 50.5323 186.532 50.9913C186.454 51.6869 186.071 51.9188 185.609 52.9807C185.3 53.7273 185.148 54.1029 185.236 54.4414C185.503 55.457 187.465 56.2685 188.3 55.5219C188.641 55.1233 188.788 54.5933 188.702 54.0751C189.057 53.5956 189.278 53.0284 189.339 52.4335C189.356 52.2484 189.356 52.0621 189.339 51.877C189.283 51.1304 188.406 49.6512 186.994 49.7253Z" fill="#172B4D"/>
<path d="M181.497 51.292C181.645 51.1308 181.781 50.9588 181.903 50.7772C181.959 50.6696 182.041 50.5785 182.143 50.5129C182.268 50.4387 182.388 50.4387 182.734 50.4619L183.357 50.5083C183.495 50.5083 183.606 50.5778 183.611 50.6381C183.615 50.6984 183.491 50.805 183.283 50.8421C183.296 50.8993 183.286 50.9593 183.255 51.0091C183.255 51.0091 183.209 51.0647 183.011 51.1065C182.937 51.1227 182.864 51.1351 182.789 51.1436C182.84 51.2038 182.854 51.2456 182.84 51.278C182.826 51.3105 182.688 51.4125 182.189 51.3801C182.184 51.5156 182.103 51.6367 181.98 51.6926C181.857 51.7484 181.713 51.7294 181.609 51.6435C181.504 51.5575 181.457 51.4195 181.488 51.2873L181.497 51.292Z" fill="#F1DAD5"/>
<defs>
<linearGradient id="paint0_linear" x1="118.145" y1="102.367" x2="137.7" y2="102.367" gradientUnits="userSpaceOnUse">
<stop stop-color="#B3F5FF"/>
<stop offset="0.06" stop-color="#B3F5FF" stop-opacity="0.93"/>
<stop offset="0.41" stop-color="#B3F5FF" stop-opacity="0.54"/>
<stop offset="0.7" stop-color="#B3F5FF" stop-opacity="0.25"/>
<stop offset="0.9" stop-color="#B3F5FF" stop-opacity="0.07"/>
<stop offset="1" stop-color="#B3F5FF" stop-opacity="0.01"/>
</linearGradient>
<linearGradient id="paint1_linear" x1="4091.66" y1="2517.12" x2="5050.5" y2="2517.12" gradientUnits="userSpaceOnUse">
<stop stop-color="#B3F5FF"/>
<stop offset="0.06" stop-color="#B3F5FF" stop-opacity="0.93"/>
<stop offset="0.41" stop-color="#B3F5FF" stop-opacity="0.54"/>
<stop offset="0.7" stop-color="#B3F5FF" stop-opacity="0.25"/>
<stop offset="0.9" stop-color="#B3F5FF" stop-opacity="0.07"/>
<stop offset="1" stop-color="#B3F5FF" stop-opacity="0.01"/>
</linearGradient>
<linearGradient id="paint2_linear" x1="177.59" y1="62.3164" x2="184.038" y2="62.3164" gradientUnits="userSpaceOnUse">
<stop stop-color="#B3F5FF" stop-opacity="0.01"/>
<stop offset="0.42" stop-color="#B3F5FF" stop-opacity="0.65"/>
<stop offset="0.65" stop-color="#B3F5FF"/>
<stop offset="1" stop-color="#B3F5FF"/>
</linearGradient>
<linearGradient id="paint3_linear" x1="13832.9" y1="2885.18" x2="13908.2" y2="2885.18" gradientUnits="userSpaceOnUse">
<stop stop-color="#B3F5FF" stop-opacity="0.01"/>
<stop offset="0.42" stop-color="#B3F5FF" stop-opacity="0.65"/>
<stop offset="0.65" stop-color="#B3F5FF"/>
<stop offset="1" stop-color="#B3F5FF"/>
</linearGradient>
<linearGradient id="paint4_linear" x1="348.722" y1="5638.96" x2="348.722" y2="2542.9" gradientUnits="userSpaceOnUse">
<stop stop-color="#B3F5FF" stop-opacity="0.01"/>
<stop offset="0.42" stop-color="#B3F5FF" stop-opacity="0.65"/>
<stop offset="0.65" stop-color="#B3F5FF"/>
<stop offset="1" stop-color="#B3F5FF"/>
</linearGradient>
<linearGradient id="paint5_linear" x1="2387.91" y1="2477.52" x2="2487.37" y2="2477.52" gradientUnits="userSpaceOnUse">
<stop stop-color="#B3F5FF" stop-opacity="0.01"/>
<stop offset="0.42" stop-color="#B3F5FF" stop-opacity="0.65"/>
<stop offset="0.65" stop-color="#B3F5FF"/>
<stop offset="1" stop-color="#B3F5FF"/>
</linearGradient>
<linearGradient id="paint6_linear" x1="3890.85" y1="2907.37" x2="3890.85" y2="2105.25" gradientUnits="userSpaceOnUse">
<stop stop-color="#B3F5FF" stop-opacity="0.01"/>
<stop offset="0.42" stop-color="#B3F5FF" stop-opacity="0.65"/>
<stop offset="0.65" stop-color="#B3F5FF"/>
<stop offset="1" stop-color="#B3F5FF"/>
</linearGradient>
<linearGradient id="paint7_linear" x1="2841.45" y1="3250.21" x2="2841.45" y2="2239.97" gradientUnits="userSpaceOnUse">
<stop stop-color="#B3F5FF" stop-opacity="0.01"/>
<stop offset="0.42" stop-color="#B3F5FF" stop-opacity="0.65"/>
<stop offset="0.65" stop-color="#B3F5FF"/>
<stop offset="1" stop-color="#B3F5FF"/>
</linearGradient>
<linearGradient id="paint8_linear" x1="190.5" y1="121.751" x2="225.226" y2="121.751" gradientUnits="userSpaceOnUse">
<stop stop-color="#B3F5FF"/>
<stop offset="0.27" stop-color="#B2F5FF" stop-opacity="0.99"/>
<stop offset="0.4" stop-color="#B1F4FE" stop-opacity="0.96"/>
<stop offset="0.51" stop-color="#AEF3FE" stop-opacity="0.91"/>
<stop offset="0.61" stop-color="#A9F2FD" stop-opacity="0.83"/>
<stop offset="0.69" stop-color="#A4F0FC" stop-opacity="0.74"/>
<stop offset="0.76" stop-color="#9DEEFA" stop-opacity="0.62"/>
<stop offset="0.83" stop-color="#95EBF8" stop-opacity="0.48"/>
<stop offset="0.9" stop-color="#8BE8F6" stop-opacity="0.31"/>
<stop offset="0.96" stop-color="#81E4F4" stop-opacity="0.13"/>
<stop offset="1" stop-color="#79E2F2" stop-opacity="0.01"/>
</linearGradient>
<linearGradient id="paint9_linear" x1="190.5" y1="121.802" x2="225.226" y2="121.802" gradientUnits="userSpaceOnUse">
<stop offset="0.26" stop-color="#42526E"/>
<stop offset="0.41" stop-color="#405672"/>
<stop offset="0.55" stop-color="#38617E"/>
<stop offset="0.69" stop-color="#2C7492"/>
<stop offset="0.83" stop-color="#1B8FAE"/>
<stop offset="0.97" stop-color="#05B1D1"/>
<stop offset="1" stop-color="#00B8D9"/>
</linearGradient>
<linearGradient id="paint10_linear" x1="208.81" y1="92.4231" x2="226.237" y2="92.4231" gradientUnits="userSpaceOnUse">
<stop stop-color="#253858"/>
<stop offset="0.29" stop-color="#314361" stop-opacity="0.58"/>
<stop offset="0.72" stop-color="#42526E" stop-opacity="0.01"/>
</linearGradient>
<linearGradient id="paint11_linear" x1="208.806" y1="97.2286" x2="226.123" y2="97.2286" gradientUnits="userSpaceOnUse">
<stop stop-color="#C1C7D0"/>
<stop offset="0.09" stop-color="#C1C7D0" stop-opacity="0.86"/>
<stop offset="0.53" stop-color="#C1C7D0" stop-opacity="0.25"/>
<stop offset="0.72" stop-color="#C1C7D0" stop-opacity="0.01"/>
</linearGradient>
<linearGradient id="paint12_linear" x1="7749.49" y1="3563.14" x2="8374.94" y2="3563.14" gradientUnits="userSpaceOnUse">
<stop stop-color="#253858"/>
<stop offset="0.29" stop-color="#314361" stop-opacity="0.58"/>
<stop offset="0.72" stop-color="#42526E" stop-opacity="0.01"/>
</linearGradient>
<linearGradient id="paint13_linear" x1="7691.28" y1="3946.32" x2="8307.76" y2="3946.32" gradientUnits="userSpaceOnUse">
<stop stop-color="#C1C7D0"/>
<stop offset="0.09" stop-color="#C1C7D0" stop-opacity="0.86"/>
<stop offset="0.53" stop-color="#C1C7D0" stop-opacity="0.25"/>
<stop offset="0.72" stop-color="#C1C7D0" stop-opacity="0.01"/>
</linearGradient>
<linearGradient id="paint14_linear" x1="208.802" y1="111.721" x2="225.763" y2="111.721" gradientUnits="userSpaceOnUse">
<stop stop-color="#42526E"/>
<stop offset="0.37" stop-color="#42526E" stop-opacity="0.47"/>
<stop offset="0.72" stop-color="#42526E" stop-opacity="0.01"/>
</linearGradient>
<linearGradient id="paint15_linear" x1="5.30859" y1="83.07" x2="40.0348" y2="83.07" gradientUnits="userSpaceOnUse">
<stop stop-color="#0052CC"/>
<stop offset="0.03" stop-color="#0356D0"/>
<stop offset="0.23" stop-color="#166FEA"/>
<stop offset="0.41" stop-color="#227FF9"/>
<stop offset="0.55" stop-color="#2684FF"/>
</linearGradient>
<linearGradient id="paint16_linear" x1="200.272" y1="107.533" x2="242.752" y2="107.533" gradientUnits="userSpaceOnUse">
<stop offset="0.36" stop-color="#071A41"/>
<stop offset="1" stop-color="#071A41" stop-opacity="0.01"/>
</linearGradient>
<linearGradient id="paint17_linear" x1="190.192" y1="60.9905" x2="178.362" y2="60.9905" gradientUnits="userSpaceOnUse">
<stop stop-color="#0065FF"/>
<stop offset="0.25" stop-color="#0569FF"/>
<stop offset="0.52" stop-color="#1274FF"/>
<stop offset="0.78" stop-color="#2684FF"/>
</linearGradient>
<linearGradient id="paint18_linear" x1="5.30859" y1="121.751" x2="40.0348" y2="121.751" gradientUnits="userSpaceOnUse">
<stop stop-color="#00C7E5"/>
<stop offset="0.06" stop-color="#22CFE9"/>
<stop offset="0.19" stop-color="#67DFF1"/>
<stop offset="0.32" stop-color="#9EEBF7"/>
<stop offset="0.42" stop-color="#C5F4FB"/>
<stop offset="0.5" stop-color="#DDFAFE"/>
<stop offset="0.55" stop-color="#E6FCFF"/>
</linearGradient>
<linearGradient id="paint19_linear" x1="4.16406" y1="129.641" x2="40.5887" y2="129.641" gradientUnits="userSpaceOnUse">
<stop offset="0.04" stop-color="#00C7E5"/>
<stop offset="0.55" stop-color="#B3F5FF"/>
</linearGradient>
<linearGradient id="paint20_linear" x1="190.5" y1="83.07" x2="225.226" y2="83.07" gradientUnits="userSpaceOnUse">
<stop stop-color="#B3F5FF"/>
<stop offset="0.51" stop-color="#CFF9FF"/>
<stop offset="1" stop-color="#E6FCFF"/>
</linearGradient>
<linearGradient id="paint21_linear" x1="190.5" y1="83.0623" x2="225.226" y2="83.0623" gradientUnits="userSpaceOnUse">
<stop stop-color="#00C7E5"/>
<stop offset="0.02" stop-color="#04C8E6"/>
<stop offset="0.5" stop-color="#61E0F3"/>
<stop offset="0.84" stop-color="#9CEFFC"/>
<stop offset="1" stop-color="#B3F5FF"/>
</linearGradient>
<linearGradient id="paint22_linear" x1="62.3507" y1="154.164" x2="116.768" y2="115.198" gradientUnits="userSpaceOnUse">
<stop offset="0.09" stop-color="#42526E"/>
<stop offset="0.23" stop-color="#445672"/>
<stop offset="0.37" stop-color="#48627D"/>
<stop offset="0.52" stop-color="#50768F"/>
<stop offset="0.66" stop-color="#5A92A8"/>
<stop offset="0.8" stop-color="#68B6CA"/>
<stop offset="0.94" stop-color="#79E1F1"/>
<stop offset="0.94" stop-color="#79E2F2"/>
</linearGradient>
<linearGradient id="paint23_linear" x1="92.1729" y1="101.09" x2="92.1729" y2="63.5846" gradientUnits="userSpaceOnUse">
<stop offset="0.26" stop-color="#344563"/>
<stop offset="0.66" stop-color="#384966"/>
<stop offset="1" stop-color="#42526E"/>
</linearGradient>
<radialGradient id="paint24_radial" cx="0" cy="0" r="1" gradientUnits="userSpaceOnUse" gradientTransform="translate(64.7493 100.025) scale(16.3431 16.4204)">
<stop stop-color="#00C7E5"/>
<stop offset="0.01" stop-color="#00C7E5" stop-opacity="0.98"/>
<stop offset="0.29" stop-color="#00C7E5" stop-opacity="0.64"/>
<stop offset="0.54" stop-color="#00C7E5" stop-opacity="0.36"/>
<stop offset="0.75" stop-color="#00C7E5" stop-opacity="0.17"/>
<stop offset="0.91" stop-color="#00C7E5" stop-opacity="0.05"/>
<stop offset="1" stop-color="#00C7E5" stop-opacity="0.01"/>
</radialGradient>
<linearGradient id="paint25_linear" x1="66.2819" y1="97.8306" x2="68.094" y2="104.921" gradientUnits="userSpaceOnUse">
<stop stop-color="#00A3BF"/>
<stop offset="0.75" stop-color="#42526E"/>
<stop offset="1" stop-color="#42526E"/>
</linearGradient>
<linearGradient id="paint26_linear" x1="57.4482" y1="111.593" x2="66.8297" y2="107.105" gradientUnits="userSpaceOnUse">
<stop offset="0.39" stop-color="#00C7E5"/>
<stop offset="0.48" stop-color="#07C9E6"/>
<stop offset="0.61" stop-color="#1ACDE8"/>
<stop offset="0.76" stop-color="#39D4EB"/>
<stop offset="0.93" stop-color="#63DDF0"/>
<stop offset="1" stop-color="#79E2F2"/>
</linearGradient>
<linearGradient id="paint27_linear" x1="56.4837" y1="95.4174" x2="61.8883" y2="95.4174" gradientUnits="userSpaceOnUse">
<stop offset="0.34" stop-color="#79E2F2"/>
<stop offset="0.39" stop-color="#8AE7F6"/>
<stop offset="0.48" stop-color="#9CEDFA"/>
<stop offset="0.59" stop-color="#A9F2FD"/>
<stop offset="0.72" stop-color="#B1F4FF"/>
<stop offset="1" stop-color="#B3F5FF"/>
</linearGradient>
<linearGradient id="paint28_linear" x1="776.248" y1="857.531" x2="839.428" y2="857.531" gradientUnits="userSpaceOnUse">
<stop offset="0.34" stop-color="#79E2F2"/>
<stop offset="0.39" stop-color="#8AE7F6"/>
<stop offset="0.48" stop-color="#9CEDFA"/>
<stop offset="0.59" stop-color="#A9F2FD"/>
<stop offset="0.72" stop-color="#B1F4FF"/>
<stop offset="1" stop-color="#B3F5FF"/>
</linearGradient>
<linearGradient id="paint29_linear" x1="763.831" y1="895.38" x2="827.011" y2="895.38" gradientUnits="userSpaceOnUse">
<stop offset="0.34" stop-color="#79E2F2"/>
<stop offset="0.39" stop-color="#8AE7F6"/>
<stop offset="0.48" stop-color="#9CEDFA"/>
<stop offset="0.59" stop-color="#A9F2FD"/>
<stop offset="0.72" stop-color="#B1F4FF"/>
<stop offset="1" stop-color="#B3F5FF"/>
</linearGradient>
<linearGradient id="paint30_linear" x1="840.674" y1="912.201" x2="903.908" y2="912.201" gradientUnits="userSpaceOnUse">
<stop offset="0.34" stop-color="#79E2F2"/>
<stop offset="0.39" stop-color="#8AE7F6"/>
<stop offset="0.48" stop-color="#9CEDFA"/>
<stop offset="0.59" stop-color="#A9F2FD"/>
<stop offset="0.72" stop-color="#B1F4FF"/>
<stop offset="1" stop-color="#B3F5FF"/>
</linearGradient>
<linearGradient id="paint31_linear" x1="72.6343" y1="63.5938" x2="80.5117" y2="45.6396" gradientUnits="userSpaceOnUse">
<stop offset="0.53" stop-color="#B3F5FF"/>
<stop offset="1" stop-color="#B3F5FF"/>
</linearGradient>
<linearGradient id="paint32_linear" x1="76.3853" y1="48.6148" x2="113.036" y2="48.6148" gradientUnits="userSpaceOnUse">
<stop stop-color="#B3F5FF" stop-opacity="0.01"/>
<stop offset="0.1" stop-color="#B3F5FF" stop-opacity="0.07"/>
<stop offset="0.3" stop-color="#B3F5FF" stop-opacity="0.25"/>
<stop offset="0.59" stop-color="#B3F5FF" stop-opacity="0.54"/>
<stop offset="0.94" stop-color="#B3F5FF" stop-opacity="0.93"/>
<stop offset="1" stop-color="#B3F5FF"/>
</linearGradient>
<linearGradient id="paint33_linear" x1="16826.7" y1="2874.52" x2="23089.5" y2="2874.52" gradientUnits="userSpaceOnUse">
<stop stop-color="#B3F5FF" stop-opacity="0.01"/>
<stop offset="0.1" stop-color="#B3F5FF" stop-opacity="0.07"/>
<stop offset="0.3" stop-color="#B3F5FF" stop-opacity="0.25"/>
<stop offset="0.59" stop-color="#B3F5FF" stop-opacity="0.54"/>
<stop offset="0.94" stop-color="#B3F5FF" stop-opacity="0.93"/>
<stop offset="1" stop-color="#B3F5FF"/>
</linearGradient>
<linearGradient id="paint34_linear" x1="16826.7" y1="4212.48" x2="23089.5" y2="4212.48" gradientUnits="userSpaceOnUse">
<stop stop-color="#B3F5FF" stop-opacity="0.01"/>
<stop offset="0.1" stop-color="#B3F5FF" stop-opacity="0.07"/>
<stop offset="0.3" stop-color="#B3F5FF" stop-opacity="0.25"/>
<stop offset="0.59" stop-color="#B3F5FF" stop-opacity="0.54"/>
<stop offset="0.94" stop-color="#B3F5FF" stop-opacity="0.93"/>
<stop offset="1" stop-color="#B3F5FF"/>
</linearGradient>
<linearGradient id="paint35_linear" x1="59338.7" y1="-7330.47" x2="64165.2" y2="-7330.47" gradientUnits="userSpaceOnUse">
<stop stop-color="#B3F5FF" stop-opacity="0.01"/>
<stop offset="0.1" stop-color="#B3F5FF" stop-opacity="0.07"/>
<stop offset="0.3" stop-color="#B3F5FF" stop-opacity="0.25"/>
<stop offset="0.59" stop-color="#B3F5FF" stop-opacity="0.54"/>
<stop offset="0.94" stop-color="#B3F5FF" stop-opacity="0.93"/>
<stop offset="1" stop-color="#B3F5FF"/>
</linearGradient>
<linearGradient id="paint36_linear" x1="35844.7" y1="-10384.8" x2="37820.3" y2="-10384.8" gradientUnits="userSpaceOnUse">
<stop stop-color="#B3F5FF" stop-opacity="0.01"/>
<stop offset="0.1" stop-color="#B3F5FF" stop-opacity="0.07"/>
<stop offset="0.3" stop-color="#B3F5FF" stop-opacity="0.25"/>
<stop offset="0.59" stop-color="#B3F5FF" stop-opacity="0.54"/>
<stop offset="0.94" stop-color="#B3F5FF" stop-opacity="0.93"/>
<stop offset="1" stop-color="#B3F5FF"/>
</linearGradient>
<linearGradient id="paint37_linear" x1="4055.5" y1="939.033" x2="4698.15" y2="939.033" gradientUnits="userSpaceOnUse">
<stop stop-color="#B3F5FF" stop-opacity="0.01"/>
<stop offset="0.1" stop-color="#B3F5FF" stop-opacity="0.07"/>
<stop offset="0.3" stop-color="#B3F5FF" stop-opacity="0.25"/>
<stop offset="0.59" stop-color="#B3F5FF" stop-opacity="0.54"/>
<stop offset="0.94" stop-color="#B3F5FF" stop-opacity="0.93"/>
<stop offset="1" stop-color="#B3F5FF"/>
</linearGradient>
<linearGradient id="paint38_linear" x1="2773.72" y1="732.687" x2="3589.34" y2="732.687" gradientUnits="userSpaceOnUse">
<stop stop-color="#B3F5FF" stop-opacity="0.01"/>
<stop offset="0.1" stop-color="#B3F5FF" stop-opacity="0.07"/>
<stop offset="0.3" stop-color="#B3F5FF" stop-opacity="0.25"/>
<stop offset="0.59" stop-color="#B3F5FF" stop-opacity="0.54"/>
<stop offset="0.94" stop-color="#B3F5FF" stop-opacity="0.93"/>
<stop offset="1" stop-color="#B3F5FF"/>
</linearGradient>
<linearGradient id="paint39_linear" x1="15752.3" y1="2775.14" x2="18964" y2="2775.14" gradientUnits="userSpaceOnUse">
<stop stop-color="#B3F5FF"/>
<stop offset="0.06" stop-color="#B3F5FF" stop-opacity="0.93"/>
<stop offset="0.41" stop-color="#B3F5FF" stop-opacity="0.54"/>
<stop offset="0.7" stop-color="#B3F5FF" stop-opacity="0.25"/>
<stop offset="0.9" stop-color="#B3F5FF" stop-opacity="0.07"/>
<stop offset="1" stop-color="#B3F5FF" stop-opacity="0.01"/>
</linearGradient>
<linearGradient id="paint40_linear" x1="165.303" y1="118.753" x2="184.697" y2="94.7915" gradientUnits="userSpaceOnUse">
<stop stop-color="#79E2F2"/>
<stop offset="0.08" stop-color="#79E2F2" stop-opacity="0.93"/>
<stop offset="0.53" stop-color="#79E2F2" stop-opacity="0.54"/>
<stop offset="0.85" stop-color="#79E2F2" stop-opacity="0.29"/>
<stop offset="1" stop-color="#79E2F2" stop-opacity="0.2"/>
</linearGradient>
<linearGradient id="paint41_linear" x1="204.778" y1="67.9226" x2="223.99" y2="68.4314" gradientUnits="userSpaceOnUse">
<stop offset="0.43" stop-color="#B3F5FF"/>
<stop offset="0.59" stop-color="#B3F5FF" stop-opacity="0.69"/>
<stop offset="0.79" stop-color="#B3F5FF" stop-opacity="0.32"/>
<stop offset="0.93" stop-color="#B3F5FF" stop-opacity="0.09"/>
<stop offset="1" stop-color="#B3F5FF" stop-opacity="0.01"/>
</linearGradient>
<linearGradient id="paint42_linear" x1="8845.27" y1="5844.64" x2="9647.06" y2="5844.64" gradientUnits="userSpaceOnUse">
<stop offset="0.43" stop-color="#B3F5FF"/>
<stop offset="0.59" stop-color="#B3F5FF" stop-opacity="0.69"/>
<stop offset="0.79" stop-color="#B3F5FF" stop-opacity="0.32"/>
<stop offset="0.93" stop-color="#B3F5FF" stop-opacity="0.09"/>
<stop offset="1" stop-color="#B3F5FF" stop-opacity="0.01"/>
</linearGradient>
<linearGradient id="paint43_linear" x1="6808.36" y1="6293.9" x2="7085.28" y2="6293.9" gradientUnits="userSpaceOnUse">
<stop stop-color="#B3F5FF" stop-opacity="0.01"/>
<stop offset="0.1" stop-color="#B3F5FF" stop-opacity="0.07"/>
<stop offset="0.3" stop-color="#B3F5FF" stop-opacity="0.25"/>
<stop offset="0.59" stop-color="#B3F5FF" stop-opacity="0.54"/>
<stop offset="0.94" stop-color="#B3F5FF" stop-opacity="0.93"/>
<stop offset="1" stop-color="#B3F5FF"/>
</linearGradient>
<linearGradient id="paint44_linear" x1="-3293.75" y1="-1930.6" x2="-3041.13" y2="-1930.6" gradientUnits="userSpaceOnUse">
<stop stop-color="#B3F5FF" stop-opacity="0.01"/>
<stop offset="0.1" stop-color="#B3F5FF" stop-opacity="0.07"/>
<stop offset="0.3" stop-color="#B3F5FF" stop-opacity="0.25"/>
<stop offset="0.59" stop-color="#B3F5FF" stop-opacity="0.54"/>
<stop offset="0.94" stop-color="#B3F5FF" stop-opacity="0.93"/>
<stop offset="1" stop-color="#B3F5FF"/>
</linearGradient>
<linearGradient id="paint45_linear" x1="30.845" y1="58.9288" x2="4.41922" y2="56.0431" gradientUnits="userSpaceOnUse">
<stop stop-color="#0052CC"/>
<stop offset="0.08" stop-color="#0052CC" stop-opacity="0.88"/>
<stop offset="0.52" stop-color="#0052CC" stop-opacity="0.25"/>
<stop offset="0.72" stop-color="#0052CC" stop-opacity="0.01"/>
</linearGradient>
<linearGradient id="paint46_linear" x1="34.9311" y1="53.0814" x2="4.83365" y2="49.5" gradientUnits="userSpaceOnUse">
<stop stop-color="#0052CC"/>
<stop offset="0.11" stop-color="#0052CC" stop-opacity="0.92"/>
<stop offset="0.31" stop-color="#0052CC" stop-opacity="0.72"/>
<stop offset="0.6" stop-color="#0052CC" stop-opacity="0.39"/>
<stop offset="0.91" stop-color="#0052CC" stop-opacity="0.01"/>
</linearGradient>
<linearGradient id="paint47_linear" x1="28.1218" y1="50.0171" x2="4.38051" y2="48.172" gradientUnits="userSpaceOnUse">
<stop stop-color="#0052CC"/>
<stop offset="0.1" stop-color="#0052CC" stop-opacity="0.88"/>
<stop offset="0.62" stop-color="#0052CC" stop-opacity="0.25"/>
<stop offset="0.85" stop-color="#0052CC" stop-opacity="0.01"/>
</linearGradient>
<linearGradient id="paint48_linear" x1="22176.4" y1="-46740.7" x2="22612.2" y2="-46740.7" gradientUnits="userSpaceOnUse">
<stop stop-color="#0052CC"/>
<stop offset="0.08" stop-color="#0052CC" stop-opacity="0.88"/>
<stop offset="0.52" stop-color="#0052CC" stop-opacity="0.25"/>
<stop offset="0.72" stop-color="#0052CC" stop-opacity="0.01"/>
</linearGradient>
<linearGradient id="paint49_linear" x1="34.0227" y1="39.522" x2="5.14567" y2="36.0857" gradientUnits="userSpaceOnUse">
<stop stop-color="#0052CC"/>
<stop offset="0.11" stop-color="#0052CC" stop-opacity="0.88"/>
<stop offset="0.69" stop-color="#0052CC" stop-opacity="0.25"/>
<stop offset="0.95" stop-color="#0052CC" stop-opacity="0.01"/>
</linearGradient>
<linearGradient id="paint50_linear" x1="81.6738" y1="107.533" x2="89.3354" y2="107.533" gradientUnits="userSpaceOnUse">
<stop stop-color="#00A3BF"/>
<stop offset="0.05" stop-color="#188FAA"/>
<stop offset="0.13" stop-color="#317A94"/>
<stop offset="0.2" stop-color="#426B85"/>
<stop offset="0.28" stop-color="#4D627C"/>
<stop offset="0.38" stop-color="#505F79"/>
<stop offset="0.61" stop-color="#4C5B76"/>
<stop offset="0.85" stop-color="#3F4F6C"/>
<stop offset="1" stop-color="#344563"/>
</linearGradient>
<linearGradient id="paint51_linear" x1="84.2469" y1="109.809" x2="89.3424" y2="98.9995" gradientUnits="userSpaceOnUse">
<stop stop-color="#00A3BF"/>
<stop offset="0.47" stop-color="#42526E"/>
<stop offset="1" stop-color="#42526E"/>
</linearGradient>
<linearGradient id="paint52_linear" x1="160.917" y1="21.2289" x2="162.707" y2="-5.42368" gradientUnits="userSpaceOnUse">
<stop stop-color="#B3F5FF"/>
<stop offset="1" stop-color="#B3F5FF"/>
</linearGradient>
<linearGradient id="paint53_linear" x1="113.906" y1="39.7586" x2="125.723" y2="40.2951" gradientUnits="userSpaceOnUse">
<stop offset="0.21" stop-color="#FF5630"/>
<stop offset="0.4" stop-color="#FF5F3B"/>
<stop offset="0.74" stop-color="#FF7858"/>
<stop offset="1" stop-color="#FF8F73"/>
</linearGradient>
<linearGradient id="paint54_linear" x1="156.079" y1="119.301" x2="146.894" y2="119.301" gradientUnits="userSpaceOnUse">
<stop stop-color="#FF8F73"/>
<stop offset="1" stop-color="#FF7452"/>
</linearGradient>
<linearGradient id="paint55_linear" x1="154.622" y1="96.9788" x2="137.99" y2="109.677" gradientUnits="userSpaceOnUse">
<stop offset="0.37" stop-color="#FF7452"/>
<stop offset="1" stop-color="#FF7452"/>
</linearGradient>
<linearGradient id="paint56_linear" x1="183.457" y1="50.6185" x2="181.496" y2="50.6185" gradientUnits="userSpaceOnUse">
<stop stop-color="#EFC7B0"/>
<stop offset="0.56" stop-color="#DFE1E5"/>
</linearGradient>
<linearGradient id="paint57_linear" x1="189.522" y1="53.9561" x2="178.459" y2="53.9561" gradientUnits="userSpaceOnUse">
<stop stop-color="#0052CC"/>
<stop offset="1" stop-color="#0065FF"/>
</linearGradient>
</defs>
</svg>
