<svg width="270" height="197" viewBox="0 0 270 197" fill="none" xmlns="http://www.w3.org/2000/svg">
<g clip-path="url(#clip0)">
<rect width="268.9" height="196.3" transform="translate(0.5 0.599609)" fill="white" fill-opacity="0.01"/>
<path d="M38.2122 159.386L36.7246 161.141L74.0343 192.782L75.522 191.027L38.2122 159.386Z" fill="#B2D4FF"/>
<path d="M23.0728 98.5313L22.7646 100.811L73.7012 107.697L74.0093 105.418L23.0728 98.5313Z" fill="#B2D4FF"/>
<path d="M69.2669 57.4796L67.5549 59.0156L94.4285 88.9667L96.1404 87.4307L69.2669 57.4796Z" fill="#B2D4FF"/>
<path d="M174.262 69.7903L173.438 71.9375L222.385 90.7267L223.209 88.5795L174.262 69.7903Z" fill="#B2D4FF"/>
<path d="M160.804 120.078L159.943 122.211L229.927 150.486L230.788 148.354L160.804 120.078Z" fill="#B2D4FF"/>
<path d="M223.941 89.3972L221.66 89.6895L229.315 149.451L231.597 149.159L223.941 89.3972Z" fill="#B2D4FF"/>
<path d="M67.5945 57.4183L22.1072 98.8086L23.6349 100.488L69.1222 59.0973L67.5945 57.4183Z" fill="#B2D4FF"/>
<path d="M24.0734 99.3967L21.8369 99.9336L36.4086 160.629L38.645 160.092L24.0734 99.3967Z" fill="#B2D4FF"/>
<path d="M229.703 148.598L198.552 179.104L200.141 180.725L231.292 150.22L229.703 148.598Z" fill="#B2D4FF"/>
<path d="M264.251 130.389L229.683 148.23L230.724 150.248L265.292 132.406L264.251 130.389Z" fill="#B2D4FF"/>
<path d="M129.877 123.241L37.3279 158.953L38.1451 161.071L130.694 125.359L129.877 123.241Z" fill="#B2D4FF"/>
<path d="M222.368 88.5009L129.918 123.066L130.713 125.193L223.163 90.6272L222.368 88.5009Z" fill="#B2D4FF"/>
<path d="M130.4 195.9C169.999 195.9 202.1 163.799 202.1 124.2C202.1 84.6012 169.999 52.5 130.4 52.5C90.8011 52.5 58.7 84.6012 58.7 124.2C58.7 163.799 90.8011 195.9 130.4 195.9Z" fill="url(#paint0_linear)"/>
<g opacity="0.5">
<path opacity="0.5" d="M74.1 79.8008C73.5 80.6008 72.8 81.4008 72.2 82.3008H96.4C96.7059 81.442 97.0735 80.6065 97.5 79.8008H74.1Z" fill="#B2D4FF"/>
<path opacity="0.5" d="M188.5 82.3008C187.923 81.426 187.288 80.5908 186.6 79.8008H164.8C165.1 80.6008 165.5 81.4008 165.8 82.3008H188.5Z" fill="#B2D4FF"/>
<path opacity="0.5" d="M129.1 79.8008H99.9C99.6 80.6008 99.2 81.4008 98.8 82.3008H129.1V79.8008Z" fill="#B2D4FF"/>
<path opacity="0.5" d="M131.6 82.3008H163.4C163 81.4008 162.7 80.6008 162.3 79.8008H131.6V82.3008Z" fill="#B2D4FF"/>
<path opacity="0.5" d="M129.1 166.1H97.3C97.7 166.9 98 167.8 98.4 168.6H129.1V166.1Z" fill="#B2D4FF"/>
<path opacity="0.5" d="M186.6 168.6C187.3 167.8 187.9 166.9 188.5 166.1H164.3C163.975 166.951 163.608 167.785 163.2 168.6H186.6Z" fill="#B2D4FF"/>
<path opacity="0.5" d="M72.2 166.1L74.1 168.6H95.9L94.9 166.1H72.2Z" fill="#B2D4FF"/>
<path opacity="0.5" d="M131.6 168.6H160.8C161.208 167.785 161.576 166.951 161.9 166.1H131.6V168.6Z" fill="#B2D4FF"/>
<path opacity="0.5" d="M98.7999 82.3C99.1999 81.4 99.5999 80.6 99.8999 79.8C107.1 64.9 117.5 55 129.1 53.8V52.5H131.6V53.7H132.2C142.8 53.9 152.6 61.5 159.9 74.8C160.7 76.4 161.6 78.1 162.3 79.8C163 81.5 163 81.4 163.4 82.3C168.2 94 170.7 108.1 170.6 122.9H172.8C172.9 108.2 170.5 94.1 165.8 82.3C165.5 81.4 165.1 80.6 164.8 79.8C164.5 79 162.9 75.7 161.9 73.7C156.3 63.5 149.3 56.6 141.5 53.4C138.423 52.8926 135.317 52.5919 132.2 52.5C129.1 52.5 126 52.6 123 52.9C112.8 56.5 103.8 66.2 97.4999 79.8C97.0734 80.6057 96.7058 81.4412 96.3999 82.3C91.3999 93.8 88.2999 107.8 87.8999 122.9H90.1999C90.4474 108.942 93.3667 95.1599 98.7999 82.3Z" fill="#B2D4FF"/>
<path opacity="0.5" d="M164.3 166.1C169.679 153.192 172.563 139.382 172.8 125.4H170.5C170.263 139.392 167.343 153.209 161.9 166.1C161.575 166.952 161.208 167.786 160.8 168.6C153.6 183.5 143.2 193.3 131.6 194.5V195.6H129.1V194.7H128.5C117.9 194.4 108.1 186.9 100.8 173.5L98.4 168.6C98 167.8 97.7 166.9 97.3 166.1C92.5 154.3 90 140.2 90.2 125.4H87.9C87.8 140.2 90.2 154.2 94.9 166.1L95.9 168.6C96.8 170.7 97.8 172.7 98.8 174.6C104.4 184.8 111.4 191.8 119.2 195C122.3 195.4 125.3 195.7 128.5 195.8C131.606 195.917 134.716 195.783 137.8 195.4C147.9 191.9 156.9 182.1 163.2 168.6C163.608 167.786 163.975 166.952 164.3 166.1Z" fill="#B2D4FF"/>
<path opacity="0.5" d="M131.6 79.8V53.7V52.5H129.1V53.8V79.8V82.3V122.9H131.6V82.3V79.8Z" fill="#B2D4FF"/>
<path opacity="0.5" d="M131.6 166.1V125.4H129.1V166.1V168.6V194.7V195.6H131.6V194.5V168.6V166.1Z" fill="#B2D4FF"/>
<path opacity="0.5" d="M129.1 125.4H131.6H170.5H172.8H202V122.9H172.8H170.6H131.6H129.1H90.2H87.9H59V125.4H87.9H90.2H129.1Z" fill="#B2D4FF"/>
</g>
<g opacity="0.4">
<path opacity="0.4" d="M78.3 155C78.0591 155.028 77.8149 154.997 77.5885 154.91C77.3621 154.822 77.1601 154.682 77 154.5C76.8085 154.331 76.6551 154.123 76.55 153.89C76.445 153.657 76.3906 153.405 76.3906 153.15C76.3906 152.894 76.445 152.642 76.55 152.409C76.6551 152.176 76.8085 151.968 77 151.8L129 99.7995C129.352 99.4691 129.817 99.2852 130.3 99.2852C130.783 99.2852 131.248 99.4691 131.6 99.7995C131.792 99.9684 131.945 100.176 132.05 100.409C132.155 100.642 132.209 100.894 132.209 101.15C132.209 101.405 132.155 101.657 132.05 101.89C131.945 102.123 131.792 102.331 131.6 102.5L79.6 154.5C79.4399 154.682 79.238 154.822 79.0116 154.91C78.7852 154.997 78.541 155.028 78.3 155Z" fill="url(#paint1_linear)"/>
</g>
<path d="M201 55.4995C177.9 46.0995 154.7 64.8995 131.6 55.4995V3.29948C154.7 12.6995 177.9 -6.10052 201 3.29948V55.4995Z" fill="url(#paint2_linear)"/>
<path d="M130.3 102.9C129.839 102.901 129.396 102.725 129.061 102.409C128.726 102.092 128.526 101.66 128.5 101.2V3.3C128.5 2.82261 128.69 2.36477 129.027 2.02721C129.365 1.68964 129.823 1.5 130.3 1.5C130.777 1.5 131.235 1.68964 131.573 2.02721C131.91 2.36477 132.1 2.82261 132.1 3.3V101.2C132.074 101.66 131.874 102.092 131.539 102.409C131.204 102.725 130.761 102.901 130.3 102.9Z" fill="#0052CC"/>
<path d="M68.4001 68.7996C74.2543 68.7996 79 64.0538 79 58.1996C79 52.3454 74.2543 47.5996 68.4001 47.5996C62.5458 47.5996 57.8 52.3454 57.8 58.1996C57.8 64.0538 62.5458 68.7996 68.4001 68.7996Z" fill="#4C9AFF"/>
<path d="M199.3 190.6C205.154 190.6 209.9 185.855 209.9 180C209.9 174.146 205.154 169.4 199.3 169.4C193.446 169.4 188.7 174.146 188.7 180C188.7 185.855 193.446 190.6 199.3 190.6Z" fill="url(#paint3_linear)"/>
<path d="M37.4001 170.899C43.2543 170.899 48 166.153 48 160.299C48 154.445 43.2543 149.699 37.4001 149.699C31.5458 149.699 26.8 154.445 26.8 160.299C26.8 166.153 31.5458 170.899 37.4001 170.899Z" fill="url(#paint4_linear)"/>
<path d="M230.5 154.3C233.206 154.3 235.4 152.106 235.4 149.4C235.4 146.694 233.206 144.5 230.5 144.5C227.794 144.5 225.6 146.694 225.6 149.4C225.6 152.106 227.794 154.3 230.5 154.3Z" fill="#00C7E5"/>
<path d="M222.8 94.5988C225.506 94.5988 227.7 92.405 227.7 89.6988C227.7 86.9926 225.506 84.7988 222.8 84.7988C220.094 84.7988 217.9 86.9926 217.9 89.6988C217.9 92.405 220.094 94.5988 222.8 94.5988Z" fill="#505F79"/>
<path d="M264.5 136.4C267.206 136.4 269.4 134.206 269.4 131.5C269.4 128.793 267.206 126.6 264.5 126.6C261.794 126.6 259.6 128.793 259.6 131.5C259.6 134.206 261.794 136.4 264.5 136.4Z" fill="#4C9AFF"/>
<path d="M6.14622 73.1738L4.25073 74.4766L21.9623 100.247L23.8577 98.9443L6.14622 73.1738Z" fill="#B2D4FF"/>
<path d="M5.4 78.4992C8.1062 78.4992 10.3 76.3054 10.3 73.5992C10.3 70.893 8.1062 68.6992 5.4 68.6992C2.6938 68.6992 0.5 70.893 0.5 73.5992C0.5 76.3054 2.6938 78.4992 5.4 78.4992Z" fill="#B2D4FF"/>
<path d="M22.9 104.499C25.6062 104.499 27.8 102.305 27.8 99.5992C27.8 96.893 25.6062 94.6992 22.9 94.6992C20.1938 94.6992 18 96.893 18 99.5992C18 102.305 20.1938 104.499 22.9 104.499Z" fill="#00C7E5"/>
<path d="M74.7 196.9C77.4062 196.9 79.6 194.706 79.6 192C79.6 189.293 77.4062 187.1 74.7 187.1C71.9938 187.1 69.8 189.293 69.8 192C69.8 194.706 71.9938 196.9 74.7 196.9Z" fill="#505F79"/>
<path d="M159.7 42.3002L149 31.1002C148.813 30.8561 148.712 30.5574 148.712 30.2502C148.712 29.943 148.813 29.6443 149 29.4002L151.9 26.7002C152.003 26.5746 152.133 26.4734 152.28 26.4039C152.427 26.3344 152.587 26.2984 152.75 26.2984C152.913 26.2984 153.073 26.3344 153.22 26.4039C153.367 26.4734 153.497 26.5746 153.6 26.7002L160.7 34.1002L179.1 16.6002C179.342 16.368 179.665 16.2383 180 16.2383C180.335 16.2383 180.658 16.368 180.9 16.6002L183.5 19.4002C183.732 19.6423 183.862 19.9647 183.862 20.3002C183.862 20.6357 183.732 20.9581 183.5 21.2002L161.4 42.2002C161.295 42.3189 161.168 42.4156 161.026 42.4849C160.883 42.5542 160.729 42.5947 160.571 42.604C160.413 42.6133 160.254 42.5912 160.105 42.5391C159.956 42.487 159.818 42.4058 159.7 42.3002Z" fill="#B3F5FF"/>
</g>
<defs>
<linearGradient id="paint0_linear" x1="79.68" y1="174.85" x2="181.04" y2="73.5" gradientUnits="userSpaceOnUse">
<stop stop-color="#0065FF"/>
<stop offset="0.67" stop-color="#4C9AFF"/>
<stop offset="0.99" stop-color="#B2D4FF"/>
</linearGradient>
<linearGradient id="paint1_linear" x1="76.42" y1="127.16" x2="132.19" y2="127.16" gradientUnits="userSpaceOnUse">
<stop stop-color="#0052CC" stop-opacity="0"/>
<stop offset="1" stop-color="#0052CC"/>
</linearGradient>
<linearGradient id="paint2_linear" x1="135.87" y1="59.8495" x2="196.72" y2="-1.00051" gradientUnits="userSpaceOnUse">
<stop offset="0.24" stop-color="#00B8D9"/>
<stop offset="1" stop-color="#79E2F2"/>
</linearGradient>
<linearGradient id="paint3_linear" x1="191.8" y1="187.46" x2="206.79" y2="172.47" gradientUnits="userSpaceOnUse">
<stop offset="0.05" stop-color="#4C9AFF"/>
<stop offset="0.99" stop-color="#B2D4FF"/>
</linearGradient>
<linearGradient id="paint4_linear" x1="650.716" y1="3695.4" x2="968.504" y2="3377.4" gradientUnits="userSpaceOnUse">
<stop offset="0.05" stop-color="#4C9AFF"/>
<stop offset="0.99" stop-color="#B2D4FF"/>
</linearGradient>
<clipPath id="clip0">
<rect width="268.9" height="196.3" fill="white" transform="translate(0.5 0.599609)"/>
</clipPath>
</defs>
</svg>
