<svg width="216" height="199" viewBox="0 0 216 199" fill="none" xmlns="http://www.w3.org/2000/svg">
<path d="M126.752 91.1476V125.325H160.93V91.1476H126.752Z" fill="#EBECF0" stroke="#EBECF0" stroke-width="1.22857" stroke-miterlimit="10"/>
<path d="M126.656 125.324L126.656 65.8916L67.224 65.8916L67.224 125.324L126.656 125.324Z" fill="#EBECF0" stroke="#EBECF0" stroke-width="1.22857" stroke-miterlimit="10"/>
<path d="M22.1425 171.412C27.0721 171.412 31.0682 170.489 31.0682 169.35C31.0682 168.211 27.0721 167.288 22.1425 167.288C17.213 167.288 13.2168 168.211 13.2168 169.35C13.2168 170.489 17.213 171.412 22.1425 171.412Z" fill="#F4F5F7"/>
<path d="M88.4805 159.502V125.324L20.1253 125.324V159.502H88.4805Z" fill="#F4F5F7" stroke="#DFE1E5" stroke-width="1.22857" stroke-miterlimit="10"/>
<path d="M84.0017 156.549C84.4697 156.549 84.8491 156.17 84.8491 155.702C84.8491 155.234 84.4697 154.854 84.0017 154.854C83.5337 154.854 83.1543 155.234 83.1543 155.702C83.1543 156.17 83.5337 156.549 84.0017 156.549Z" fill="#DFE1E5"/>
<path d="M22.99 156.691C23.458 156.691 23.8373 156.311 23.8373 155.843C23.8373 155.375 23.458 154.996 22.99 154.996C22.522 154.996 22.1426 155.375 22.1426 155.843C22.1426 156.311 22.522 156.691 22.99 156.691Z" fill="#DFE1E5"/>
<path d="M79.0155 133.201H29.5879V151.781H79.0155V133.201Z" fill="white" stroke="#DFE1E5" stroke-width="1.22857" stroke-miterlimit="10"/>
<path d="M29.5879 142.403H79.0155" stroke="#DFE1E5" stroke-width="1.22857" stroke-miterlimit="10"/>
<path d="M39.4746 133.043V151.784" stroke="#DFE1E5" stroke-width="1.22857" stroke-miterlimit="10"/>
<path d="M49.3594 133.043V151.784" stroke="#DFE1E5" stroke-width="1.22857" stroke-miterlimit="10"/>
<path d="M59.2461 133.043V151.784" stroke="#DFE1E5" stroke-width="1.22857" stroke-miterlimit="10"/>
<path d="M69.1289 133.043V151.784" stroke="#DFE1E5" stroke-width="1.22857" stroke-miterlimit="10"/>
<path opacity="0.8" d="M49.3459 142.403H29.5879V151.781H49.3459V142.403Z" fill="url(#paint0_linear)"/>
<path d="M118.182 125.324L118.182 65.8916L58.7494 65.8916L58.7494 125.324L118.182 125.324Z" fill="#F4F5F7" stroke="#DFE1E5" stroke-width="1.22857" stroke-miterlimit="10"/>
<path d="M88.4648 125.322V159.5H156.82V125.322H88.4648Z" fill="#F4F5F7" stroke="#DFE1E5" stroke-width="1.22857" stroke-miterlimit="10"/>
<path d="M92.9431 156.803C93.4111 156.803 93.7905 156.424 93.7905 155.956C93.7905 155.488 93.4111 155.108 92.9431 155.108C92.4751 155.108 92.0957 155.488 92.0957 155.956C92.0957 156.424 92.4751 156.803 92.9431 156.803Z" fill="#DFE1E5"/>
<path opacity="0.15" d="M130.556 171.949H113.701C114.678 171.949 115.469 171.158 115.469 170.181V166.692C115.469 165.424 116.498 164.396 117.766 164.396H123.864C126.256 164.396 128.197 162.456 128.197 160.063V147.381C128.197 144.68 130.386 142.494 133.084 142.494H137.657H152.729C150.028 142.494 147.842 144.683 147.842 147.381V157.109C147.842 158.99 147.029 160.778 145.605 162.012C142.543 164.67 134.575 169.805 131.666 171.652L130.556 171.949Z" fill="#C1C7D0"/>
<path d="M152.729 140.607H125.455V144.378H152.729V140.607Z" fill="#42526E"/>
<path d="M152.729 140.607H125.455V142.494H152.729V140.607Z" fill="#172B4D"/>
<path d="M33.1189 149.214C33.3025 149.103 33.5087 149.041 33.7205 149.03C33.8392 149.027 33.9578 149.041 34.0736 149.075L34.647 148.942C34.6668 148.968 34.6809 149.002 34.6809 149.033C34.6866 149.171 34.5397 149.31 34.3109 149.386C34.7233 149.442 35.0142 149.589 35.0142 149.759C35.0142 149.801 34.9973 149.843 34.9718 149.877C35.0312 149.897 35.0735 149.951 35.0764 150.016C35.0792 150.084 35.0425 150.148 34.986 150.182C34.9323 150.216 34.8645 150.216 34.8108 150.182C34.7967 150.225 34.7741 150.264 34.743 150.295C34.6555 150.372 34.5199 150.372 34.3561 150.372C34.1442 150.352 33.9324 150.315 33.7262 150.261L32.7715 149.677L33.1189 149.214Z" fill="#CEA28B"/>
<path d="M18.5695 167.09C18.352 167.551 18.352 168.085 18.5695 168.545C18.6034 168.551 19.2163 168.675 19.2728 169.028C19.2784 169.065 19.2784 169.102 19.2728 169.138H17.9255C17.4961 168.74 17.1487 168.263 16.9001 167.729C16.8465 167.613 16.8013 167.503 16.7617 167.396C17.0865 167.006 17.5159 166.715 17.9961 166.557L18.5695 167.09Z" fill="#172B4D"/>
<path d="M23.2565 147.705C24.726 147.705 25.9172 146.514 25.9172 145.045C25.9172 143.575 24.726 142.384 23.2565 142.384C21.787 142.384 20.5957 143.575 20.5957 145.045C20.5957 146.514 21.787 147.705 23.2565 147.705Z" fill="#253858"/>
<path d="M23.3436 150.098C23.1911 150.55 23.1346 151.03 23.177 151.507C22.7872 152.88 22.3663 154.278 21.9087 155.699C21.6743 156.436 21.4399 157.156 21.2054 157.86C20.9512 158.298 20.5671 158.984 20.166 159.859C19.5643 161.19 19.3271 162.032 18.7565 163.588C18.4882 164.322 18.0758 165.404 17.5137 166.718L18.6718 167.26C19.2 166.328 20.0304 164.887 21.1122 163.128C21.8664 161.899 22.1093 161.551 23.3013 159.65C25.4451 156.23 25.9253 155.349 26.2332 154.747C27.3489 152.569 28.2726 150.663 27.6427 149.598C27.0128 148.53 24.9367 148.18 24.0385 148.928C23.7108 149.25 23.4707 149.654 23.3436 150.098Z" fill="#172B4D"/>
<path d="M27.035 167.5C27.1197 167.726 27.2525 167.929 27.422 168.099C27.7101 168.373 28.066 168.559 28.4529 168.641C28.6507 168.672 28.8145 168.667 28.9275 168.796C29.0009 168.898 29.0348 169.022 29.0179 169.15H26.2356C26.23 169.15 26.2243 169.15 26.2187 169.15C26.0972 169.141 26.0097 169.034 26.0181 168.915C26.0407 168.644 26.0775 168.373 26.1283 168.104C26.1678 167.89 26.2159 167.689 26.2695 167.503L27.035 167.5Z" fill="#172B4D"/>
<path d="M23.8818 149.813C23.7518 150.479 23.9947 150.689 24.5851 152.725C24.941 153.931 25.1556 154.9 25.4014 155.993C25.5991 156.874 25.7403 157.595 25.8251 158.061C25.7629 158.241 25.6951 158.445 25.6274 158.662C25.4212 159.36 25.2715 160.072 25.1754 160.792C25.0935 161.693 25.1246 162.603 25.2658 163.495C25.3957 164.622 25.5963 166.068 25.8985 167.791L27.2854 167.71C27.3249 166.777 27.4012 165.362 27.5565 163.639C27.7232 161.784 27.8277 161.295 28.0537 159.21C28.3531 156.428 28.4576 154.581 28.483 152.875C28.5282 149.446 28.209 148.531 27.5283 148.062C26.9832 147.734 26.3307 147.638 25.7149 147.793C24.7828 148.081 24.0795 148.855 23.8818 149.813Z" fill="#253858"/>
<path d="M28.1512 139.766C28.0212 139.757 27.8941 139.802 27.7981 139.89C27.0015 140.475 26.383 142.808 26.9309 143.107C27.0891 143.161 27.2558 143.172 27.4196 143.141C27.5975 143.118 27.7698 143.062 27.9252 142.972C28.298 142.74 28.5748 142.384 28.7132 141.969C28.8742 141.477 28.8545 140.944 28.6596 140.463C28.5833 140.223 28.4421 139.811 28.1512 139.766Z" fill="#253858"/>
<path d="M23.8564 148.931C24.0513 148.623 24.2264 148.301 24.3761 147.971C24.5089 147.584 24.2434 146.27 24.1784 145.824C24.0598 145.319 24.0937 144.788 24.2801 144.305C24.8507 143.115 26.7121 143.093 26.907 143.093C27.455 143.05 27.9944 143.237 28.3984 143.61C28.4662 143.7 28.4718 143.742 28.6667 144.449C28.935 145.406 28.9661 145.497 28.9661 145.697C28.9661 146.141 28.7966 146.208 28.613 146.779C28.3645 147.618 28.3842 148.51 28.6667 149.338C28.774 149.646 28.9181 149.942 29.096 150.214C27.4154 151.623 24.975 151.66 23.252 150.298C23.4271 149.832 23.6276 149.375 23.8564 148.931Z" fill="#42526E"/>
<path d="M28.3845 140.861C28.3365 140.771 28.2941 140.681 28.2546 140.587C28.1303 140.291 28.1699 140.271 28.0964 140.099C27.9552 139.819 27.7151 139.599 27.4242 139.483C26.7689 139.237 26.0288 139.469 25.6306 140.045C25.1475 140.74 25.3227 141.695 26.0175 142.175C26.2181 142.305 26.444 142.392 26.6785 142.438C27.0259 142.514 27.3818 142.528 27.7349 142.48C27.9269 142.46 28.119 142.423 28.3054 142.375C28.3393 142.195 28.3619 142.011 28.3732 141.827C28.3732 141.726 28.3732 141.627 28.3732 141.531C28.4213 141.503 28.4664 141.472 28.5116 141.44C28.554 141.415 28.5907 141.381 28.6218 141.342C28.65 141.248 28.5342 141.144 28.3845 140.861Z" fill="#CEA28B"/>
<path d="M27.4978 142.477C27.43 142.78 27.3989 143.088 27.4018 143.395L27.8622 144.576C27.5147 144.311 27.1504 144.042 26.7662 143.774C26.4979 143.587 26.2352 143.407 25.9782 143.234C26.2154 142.74 26.19 142.158 25.916 141.687L27.4978 142.477Z" fill="#CEA28B"/>
<path d="M28.3481 147.737L25.758 144.517C25.4134 144.181 24.8824 144.121 24.47 144.373C23.9841 144.762 24.3429 145.675 24.3655 145.731C24.4135 145.856 24.4784 145.974 24.5604 146.084C25.3851 147.192 26.3455 148.189 27.4217 149.053C28.1109 149.22 28.8594 149.369 29.6503 149.496C30.7519 149.672 31.8619 149.782 32.9777 149.827L33.1951 148.932L28.3481 147.737Z" fill="#344563"/>
<path d="M27.9499 140.158C28.0233 140.082 28.0544 140.071 28.0939 140C28.1617 139.825 28.1504 139.627 28.0629 139.46C27.868 139.062 27.2889 138.986 26.9867 138.944C26.5178 138.859 26.032 138.927 25.6055 139.144C25.2015 139.398 24.8654 139.751 24.6281 140.164C24.4841 140.455 24.2779 140.712 24.0237 140.918C23.5633 141.305 23.2695 141.2 22.7893 141.48C22.2837 141.782 21.9137 142.265 21.7555 142.833C21.5409 143.658 21.781 144.759 22.3459 144.946C22.9108 145.132 23.3232 144.262 24.4587 144.291C24.8485 144.302 24.9276 144.406 25.2778 144.344C25.8032 144.248 26.4811 143.853 26.5263 143.358C26.5517 143.073 26.4105 142.649 26.5263 142.497C26.6421 142.342 26.7805 142.455 26.9217 142.296C27.2127 141.969 26.9019 141.511 27.2127 141.158C27.3595 140.989 27.4414 141.082 27.5968 140.89C27.7917 140.644 27.7211 140.424 27.9499 140.158Z" fill="#253858"/>
<path d="M28.3481 146.392L25.758 143.172C25.4134 142.836 24.8824 142.777 24.47 143.028C23.9841 143.418 24.3429 144.33 24.3655 144.387C24.4135 144.511 24.4784 144.629 24.5604 144.74C25.3851 145.847 26.3455 146.844 27.4217 147.708C28.0939 147.869 28.8198 148.016 29.5881 148.14V146.7L28.3481 146.392Z" fill="#344563"/>
<path d="M88.4668 121.982C102.962 121.982 114.713 110.231 114.713 95.7354C114.713 81.24 102.962 69.4893 88.4668 69.4893C73.9715 69.4893 62.2207 81.24 62.2207 95.7354C62.2207 110.231 73.9715 121.982 88.4668 121.982Z" fill="url(#paint1_radial)"/>
<path d="M119.691 131.193H96.998V153.886H119.691V131.193Z" fill="url(#paint2_linear)"/>
<g opacity="0.1">
<path opacity="0.1" d="M96.998 150.564H119.691" stroke="#7A869A" stroke-width="0.991641" stroke-miterlimit="10"/>
<path opacity="0.1" d="M96.998 147.322H119.691" stroke="#7A869A" stroke-width="0.991641" stroke-miterlimit="10"/>
<path opacity="0.1" d="M96.998 144.082H119.691" stroke="#7A869A" stroke-width="0.991641" stroke-miterlimit="10"/>
<path opacity="0.1" d="M96.998 140.839H119.691" stroke="#7A869A" stroke-width="0.991641" stroke-miterlimit="10"/>
<path opacity="0.1" d="M96.998 137.597H119.691" stroke="#7A869A" stroke-width="0.991641" stroke-miterlimit="10"/>
<path opacity="0.1" d="M96.998 134.354H119.691" stroke="#7A869A" stroke-width="0.991457" stroke-miterlimit="10"/>
<path opacity="0.1" d="M116.447 131.114V153.965" stroke="#7A869A" stroke-width="0.991641" stroke-miterlimit="10"/>
<path opacity="0.1" d="M113.205 131.114V153.965" stroke="#7A869A" stroke-width="0.991641" stroke-miterlimit="10"/>
<path opacity="0.1" d="M109.967 131.114V153.965" stroke="#7A869A" stroke-width="0.991641" stroke-miterlimit="10"/>
<path opacity="0.1" d="M106.723 131.114V153.965" stroke="#7A869A" stroke-width="0.991641" stroke-miterlimit="10"/>
<path opacity="0.1" d="M103.48 131.114V153.965" stroke="#7A869A" stroke-width="0.991641" stroke-miterlimit="10"/>
<path opacity="0.1" d="M100.24 131.114V153.965" stroke="#7A869A" stroke-width="0.991641" stroke-miterlimit="10"/>
</g>
<path d="M96.998 144.081H101.433L104.574 134.354L108.87 147.321L112.124 140.839L113.982 144.081H119.691" stroke="url(#paint3_linear)" stroke-width="1.55752" stroke-miterlimit="10" stroke-linejoin="round"/>
<path d="M119.691 131.065H96.998V153.758H119.691V131.065Z" stroke="#DFE1E5" stroke-width="0.991641" stroke-miterlimit="10"/>
<path d="M128.291 171.949H130.683C131.661 171.949 132.451 171.158 132.451 170.181V166.692C132.451 165.424 133.48 164.396 134.748 164.396H140.846C143.239 164.396 145.179 162.456 145.179 160.063V147.381C145.179 144.68 147.368 142.494 150.066 142.494H134.994H130.423C127.723 142.494 125.537 144.683 125.537 147.381V160.063C125.537 162.456 123.596 164.396 121.204 164.396H115.106C113.837 164.396 112.809 165.424 112.809 166.692V170.181C112.809 171.158 112.018 171.949 111.041 171.949H128.291Z" fill="url(#paint4_linear)"/>
<path d="M129.461 143.742H144.663" stroke="#C1C7D0" stroke-width="1.22857" stroke-miterlimit="10" stroke-linecap="round"/>
<path d="M128.342 146.675H143.544" stroke="#C1C7D0" stroke-width="1.22857" stroke-miterlimit="10" stroke-linecap="round"/>
<path d="M127.777 149.606H142.979" stroke="#C1C7D0" stroke-width="1.22857" stroke-miterlimit="10" stroke-linecap="round"/>
<path d="M127.777 152.539H142.979" stroke="#C1C7D0" stroke-width="1.22857" stroke-miterlimit="10" stroke-linecap="round"/>
<path d="M127.777 155.471H142.979" stroke="#C1C7D0" stroke-width="1.22857" stroke-miterlimit="10" stroke-linecap="round"/>
<path d="M127.777 158.405H142.979" stroke="#C1C7D0" stroke-width="1.22857" stroke-miterlimit="10" stroke-linecap="round"/>
<path d="M126.93 161.337H142.132" stroke="#C1C7D0" stroke-width="1.22857" stroke-miterlimit="10" stroke-linecap="round"/>
<path d="M115.041 166.636H130.246" stroke="#C1C7D0" stroke-width="1.22857" stroke-miterlimit="10" stroke-linecap="round"/>
<path d="M115.041 169.567H130.246" stroke="#C1C7D0" stroke-width="1.22857" stroke-miterlimit="10" stroke-linecap="round"/>
<path d="M86.3972 178.607C90.7932 178.607 94.3569 177.982 94.3569 177.212C94.3569 176.441 90.7932 175.816 86.3972 175.816C82.0012 175.816 78.4375 176.441 78.4375 177.212C78.4375 177.982 82.0012 178.607 86.3972 178.607Z" fill="#F4F5F7"/>
<path d="M85.8291 147.182C86.2189 147.019 86.9589 147.552 87.3233 148.083C87.6312 148.53 87.6961 148.996 87.7187 149.191C87.7668 149.569 87.7244 149.886 87.6792 150.095C87.7357 150.148 87.8402 150.261 87.8826 150.439C87.9334 150.657 87.8713 150.894 87.7272 151.052C87.6651 151.123 87.521 151.25 86.7584 151.278C86.7132 151.281 86.668 151.281 86.6171 151.281C86.1257 151.289 85.702 150.934 85.6285 150.448C85.2585 147.979 85.5127 147.315 85.8291 147.182Z" fill="#091E42"/>
<path d="M90.1821 177.49C90.1567 177.417 90.103 177.301 89.9985 177.197C89.7697 176.965 89.5127 177.007 89.1681 176.787C89.0805 176.731 88.9619 176.643 88.8433 176.505C88.8094 176.454 88.7642 176.377 88.6738 176.245C88.5721 176.098 88.5184 176.024 88.4845 176.01C88.4055 175.976 88.2501 176.022 87.9422 176.115C87.914 176.123 87.8885 176.132 87.8716 176.137C87.8518 176.321 87.8349 176.513 87.8236 176.714C87.8095 176.954 87.8066 177.185 87.8066 177.4C87.9902 177.411 88.1738 177.423 88.3546 177.434C88.4337 177.4 88.5128 177.366 88.5891 177.332C88.6512 177.383 88.7162 177.437 88.7783 177.488C88.9082 177.49 89.0382 177.493 89.1681 177.493C89.5127 177.499 89.8516 177.496 90.1821 177.49Z" fill="#344563"/>
<path d="M88.988 176.377C89.0699 176.385 89.2196 176.414 89.3552 176.521C89.3862 176.546 89.5585 176.688 89.5246 176.767C89.4879 176.857 89.2055 176.82 89.084 176.803C88.8467 176.772 88.6575 176.702 88.5332 176.642C88.6264 176.62 88.7592 176.575 88.8891 176.47C88.9286 176.439 88.9597 176.405 88.988 176.377Z" fill="#66A3FF"/>
<path d="M84.301 172.83C84.1626 174.065 84.0468 175.384 83.9083 176.242C83.8886 176.367 83.818 176.474 83.7106 176.539H83.7078C83.6231 176.59 83.5807 176.615 83.5214 176.629C83.4988 176.635 83.3039 176.683 83.1372 176.57C83.0977 176.542 83.0666 176.511 83.0497 176.488C83.013 175.802 82.9791 175.107 82.9508 174.403C82.9282 173.85 82.9056 173.299 82.8887 172.754L84.301 172.83Z" fill="#66A3FF"/>
<path d="M82.8893 172.767C82.7057 170.68 82.7283 169.234 82.7876 168.282C82.8583 167.127 82.847 165.966 82.9345 164.81C82.9402 164.751 82.9543 164.517 82.943 164.206C82.9402 164.138 82.9345 164.07 82.926 163.96C82.8583 163.243 82.5504 160.189 82.7876 159.11C82.9063 158.562 83.0588 158.122 83.1718 157.825C83.2085 157.707 83.2593 157.574 83.3243 157.435C83.4006 157.272 83.4853 157.128 83.5616 157.012C83.6435 157.046 83.7734 157.094 83.9372 157.142C84.0785 157.181 84.1915 157.201 84.248 157.215C84.5841 157.291 85.2281 157.424 86.9652 157.701C87.0415 157.814 87.146 157.981 87.2561 158.19C87.6544 158.952 87.7646 159.627 87.8126 159.918C88.5978 164.906 88.6769 166.841 88.6769 166.841C88.7899 167.601 88.8775 168.429 88.9255 169.316C88.9961 170.626 88.9622 171.827 88.8775 172.892C88.4058 172.993 87.9341 173.095 87.4623 173.197C87.4482 173.112 87.4369 173.024 87.4228 172.937C87.2561 171.793 87.1827 170.686 87.1799 169.615C87.0245 168.765 86.7675 167.536 86.3353 166.081C85.8806 164.556 85.4541 163.13 85.149 163.167C84.7225 163.22 84.8072 165.759 84.601 169.228C84.5248 170.536 84.4174 171.745 84.3044 172.832L82.8893 172.767Z" fill="#F1DAD5"/>
<path d="M87.7568 168.556C88.5977 168.556 89.2793 167.874 89.2793 167.031C89.2793 166.189 88.5977 165.506 87.7568 165.506C86.916 165.506 86.2344 166.189 86.2344 167.031C86.2344 167.874 86.916 168.556 87.7568 168.556Z" fill="#DFE1E5"/>
<path d="M83.751 169.1C84.5918 169.1 85.2734 168.417 85.2734 167.575C85.2734 166.733 84.5918 166.05 83.751 166.05C82.9101 166.05 82.2285 166.733 82.2285 167.575C82.2285 168.417 82.9101 169.1 83.751 169.1Z" fill="#DFE1E5"/>
<path d="M86.1861 150.49H84.6523V151.284H86.1861V150.49Z" fill="url(#paint5_linear)"/>
<path d="M86.7354 147.55C86.919 147.959 87.0122 148.666 87.0292 149.021C87.0264 149.084 87.0235 149.112 87.1083 149.211C87.1958 149.312 87.3314 149.394 87.2721 149.465C87.2128 149.535 87.0094 149.581 86.9642 149.643L86.7185 150.682C86.6959 150.775 86.6225 150.849 86.5264 150.866C86.1112 150.939 85.5096 150.97 84.8627 150.742C84.7017 150.685 84.5577 150.617 84.4277 150.547C85.0548 150.083 85.4079 149.677 85.6197 149.38C85.6734 149.307 85.6423 149.103 85.8231 149.092C85.9417 149.084 86.453 148.253 86.5462 148.149C86.6394 148.047 86.6422 148.007 86.6789 147.835C86.7157 147.66 86.7354 147.55 86.7354 147.55Z" fill="url(#paint6_linear)"/>
<path d="M86.7469 147.538C86.7017 148.024 86.504 148.301 86.326 148.544C86.1933 148.725 85.6877 149.417 85.7781 150.227C85.8261 150.66 85.4645 151.035 85.0324 151.015C85.0154 151.015 85.0069 151.018 84.9137 151.018C84.3827 151.013 84.1144 151.013 83.976 150.987C83.8602 150.965 83.3461 150.871 83.1004 150.442C82.9676 150.21 82.8603 149.798 83.0862 149.479C83.2444 149.256 83.4845 149.188 83.5721 149.168C83.5438 148.951 83.5014 148.372 83.8602 147.852C83.8602 147.852 83.9957 147.671 84.1652 147.521C84.6143 147.115 85.9447 146.716 86.7469 147.538Z" fill="#091E42"/>
<path d="M87.5478 153.272C87.658 154.179 87.3388 154.933 87.288 156.56C87.2682 157.218 87.3247 157.743 87.6071 158.755C88.028 160.269 88.6325 163.04 89.4234 166.949C89.4403 167.09 89.3612 167.228 89.2313 167.282C89.0985 167.339 88.9404 167.296 88.8528 167.18C88.85 167.22 88.8359 167.497 88.6212 167.649C88.3924 167.81 88.0308 167.762 87.7879 167.502C87.7201 167.601 87.5281 167.847 87.1863 167.963C86.6298 168.152 86.1525 167.839 86.0932 167.796C86.079 167.819 85.8051 168.223 85.3164 168.209C84.9012 168.197 84.6611 167.889 84.63 167.85C84.5933 167.884 84.3702 168.087 84.0369 168.062C83.6386 168.031 83.4381 167.695 83.4211 167.666C83.4042 167.683 83.0991 168.005 82.6585 167.918C82.2319 167.833 82.0738 167.443 82.0625 167.415C82.1472 163.277 82.5935 160.514 82.7969 158.882C82.7969 158.882 83.2403 156.834 82.8957 155.199C82.7347 154.427 82.4381 153.701 82.4381 153.701C82.2602 153.269 82.0709 152.905 81.9043 152.617C82.1952 152.413 82.5483 152.199 82.9692 152.004C83.2544 151.871 83.5256 151.767 83.7713 151.685C84.0453 151.654 84.2487 151.656 84.4323 151.507C84.5509 151.411 84.6131 151.286 84.647 151.196C85.1611 151.193 85.6723 151.19 86.1864 151.19C86.2118 151.292 86.2683 151.453 86.4039 151.586C86.675 151.849 86.9773 151.721 87.2343 151.987C87.4094 152.168 87.4546 152.422 87.4716 152.504C87.4942 152.637 87.4857 152.735 87.5252 153.074C87.5337 153.173 87.545 153.241 87.5478 153.272Z" fill="#0065FF"/>
<path d="M80.2115 156.84C81.1436 157.207 83.0163 157.814 85.4709 157.752C87.7532 157.693 89.4734 157.08 90.3772 156.693C90.4902 154.993 90.6032 153.289 90.7134 151.589H79.7285C79.8923 153.337 80.0505 155.089 80.2115 156.84Z" fill="#0052CC"/>
<path d="M88.9113 172.827C88.8266 173.72 88.756 174.632 88.7051 175.567C88.6938 175.796 88.6825 176.022 88.6712 176.248C88.6543 176.276 88.5385 176.454 88.3181 176.485C88.1995 176.502 88.0329 176.477 87.9368 176.364C87.8521 176.265 87.8606 176.132 87.8606 176.095C87.8719 175.81 87.7052 174.677 87.4199 172.937C87.9199 172.898 88.417 172.861 88.9113 172.827Z" fill="#66A3FF"/>
<path d="M92.1617 157.112L92.3566 157.236C92.5402 157.352 92.7548 157.414 92.9752 157.411L93.2124 157.408C93.3367 157.405 93.444 157.321 93.4723 157.196L93.5994 156.634C93.6163 156.561 93.5655 156.49 93.4921 156.485L92.9921 156.437L92.1532 156.448L92.0402 156.722C91.9809 156.863 92.0317 157.027 92.1617 157.112Z" fill="url(#paint7_linear)"/>
<path d="M92.5221 156.265L92.7509 156.118C92.8639 156.044 92.9966 156.013 93.1294 156.03C93.1661 156.036 93.2056 156.036 93.2424 156.03L93.5276 155.979C93.57 155.962 93.618 155.985 93.6322 156.03C93.6463 156.07 93.6265 156.112 93.5898 156.129L93.2706 156.279C93.2226 156.301 93.1802 156.332 93.1463 156.372L93.0927 156.431C92.9712 156.567 92.7904 156.637 92.6097 156.62L92.3809 156.601L92.5221 156.265Z" fill="#F1DBCB"/>
<path d="M84.65 168.243C84.5059 168.339 84.263 168.472 83.9382 168.534C83.7037 168.579 83.0908 168.652 82.5089 168.26C81.9553 167.887 81.7915 167.33 81.752 167.181C81.9045 163.235 82.1841 160.67 82.4779 158.896C82.5909 158.21 82.8564 156.75 82.5315 154.888C82.3592 153.894 82.074 153.097 81.8536 152.572C82.0796 152.352 82.5033 151.999 83.1275 151.775C83.6218 151.597 84.0568 151.566 84.3477 151.566C84.4466 157.125 84.5483 162.684 84.65 168.243Z" fill="#B2D4FF"/>
<path d="M86.4004 151.59C86.5755 151.723 86.7591 151.669 87.1687 151.793C87.2845 151.83 87.3777 151.867 87.437 151.892C87.4398 152.036 87.4455 152.248 87.4653 152.505C87.4822 152.742 87.502 152.937 87.5189 153.076C87.5246 153.109 87.5331 153.183 87.5415 153.273C87.7054 154.72 87.5669 155.832 87.5528 156.002C87.4794 156.739 87.7703 159.213 89.4171 166.953C89.4453 167.066 89.482 167.289 89.369 167.498C89.2504 167.715 89.0329 167.795 88.7137 167.905C88.4991 167.978 88.1742 168.066 87.7562 168.085C87.3043 162.586 86.8523 157.087 86.4004 151.59Z" fill="#B2D4FF"/>
<path d="M81.9648 159.565C82.1173 159.32 82.5806 159.359 82.6455 159.365C82.6935 159.359 82.7613 159.351 82.8461 159.348C83.2444 159.331 83.8008 159.41 83.829 159.588C83.8347 159.628 83.8177 159.693 83.6906 159.789C83.7838 159.825 83.829 159.93 83.798 160.017C83.7697 160.096 83.685 160.147 83.5946 160.133C83.6257 160.15 83.7161 160.204 83.7189 160.274C83.7189 160.359 83.5833 160.461 83.3658 160.475C83.25 160.486 83.1314 160.498 83.0156 160.509C82.7783 160.523 82.5438 160.478 82.3292 160.376L81.8603 160.153C81.8518 160.054 81.849 159.902 81.8998 159.729C81.9111 159.687 81.9337 159.616 81.9648 159.565Z" fill="url(#paint8_linear)"/>
<path d="M83.0126 154.015C82.0805 154.981 81.1484 155.947 80.2163 156.913C80.4648 157.308 80.7473 157.729 81.0721 158.164C81.4083 158.613 81.7444 159.017 82.0664 159.376C81.8969 159.817 81.7274 160.254 81.5551 160.695C81.0043 160.288 80.3067 159.684 79.6429 158.825C79.109 158.136 78.7447 157.472 78.4961 156.933C78.5102 156.873 78.5328 156.789 78.5611 156.687C78.8012 155.876 79.2446 155.19 80.462 153.93C80.8914 153.487 81.445 152.939 82.1201 152.34C82.4223 152.896 82.7189 153.456 83.0126 154.015Z" fill="#B2D4FF"/>
<path d="M87.3478 151.815C87.4467 151.909 87.5907 152.047 87.7546 152.228C88.3421 152.883 88.6076 153.473 88.8759 154.004C89.1188 154.487 89.4832 155.163 90.0058 155.97C90.4916 156.018 90.9972 156.058 91.5254 156.083C91.9067 156.1 92.2767 156.112 92.6355 156.114C92.6835 156.185 92.8304 156.428 92.8021 156.764C92.7739 157.1 92.5931 157.315 92.5338 157.377C91.4717 157.473 90.4125 157.569 89.3505 157.665C88.8731 157.304 88.3054 156.806 87.7461 156.143C87.2772 155.589 86.9298 155.052 86.6699 154.589C86.8987 153.666 87.1247 152.739 87.3478 151.815Z" fill="#B2D4FF"/>
<path d="M92.3818 154.863L94.1557 154.442L92.8055 157.838L91.043 158.258L92.3818 154.863Z" fill="#42526E"/>
<path d="M83.0123 166.184C82.5716 166.184 82.2129 165.825 82.2129 165.385V164.252H83.8088V165.385C83.8116 165.825 83.4557 166.184 83.0123 166.184Z" fill="#4C9AFF"/>
<path d="M88.6751 166.195C88.3701 166.223 88.1017 165.997 88.0735 165.695L87.9492 164.322L89.0508 164.224L89.1751 165.596C89.2033 165.899 88.9774 166.167 88.6751 166.195Z" fill="#4C9AFF"/>
<path d="M93.232 157.052L93.0936 156.93C93.0117 156.86 92.9891 156.741 93.0399 156.645L93.0653 156.6L93.0088 156.524C92.9749 156.478 92.9636 156.422 92.9749 156.368L93.0004 156.236C93.0088 156.185 93.0484 156.142 93.0992 156.131L93.1698 156.114L93.2433 156.058C93.2913 156.021 93.3591 156.026 93.3986 156.069L93.5201 156.199C93.5907 156.272 93.619 156.377 93.5964 156.478L93.4862 156.973C93.4579 157.083 93.3195 157.128 93.232 157.052Z" fill="#F1DBCB"/>
<path d="M83.4241 177.923C82.9835 177.923 82.6643 177.502 82.7858 177.076L83.0372 176.197L83.91 176.242L84.0936 177.095C84.1811 177.522 83.8591 177.923 83.4241 177.923Z" fill="#344563"/>
<path d="M83.4283 177.061C83.1966 177.061 83.0272 176.951 83.0921 176.838L83.2249 176.606L83.6853 176.618L83.7813 176.844C83.8293 176.954 83.6599 177.061 83.4283 177.061Z" fill="#66A3FF"/>
<path d="M118.279 91.1466V125.324H152.457V91.1466H118.279Z" fill="#F4F5F7" stroke="#DFE1E5" stroke-width="1.22857" stroke-miterlimit="10"/>
<path d="M121.951 122.498C122.419 122.498 122.798 122.119 122.798 121.651C122.798 121.183 122.419 120.804 121.951 120.804C121.483 120.804 121.104 121.183 121.104 121.651C121.104 122.119 121.483 122.498 121.951 122.498Z" fill="#DFE1E5"/>
<path d="M121.951 95.6645C122.419 95.6645 122.798 95.2851 122.798 94.8171C122.798 94.3491 122.419 93.9697 121.951 93.9697C121.483 93.9697 121.104 94.3491 121.104 94.8171C121.104 95.2851 121.483 95.6645 121.951 95.6645Z" fill="#DFE1E5"/>
<path d="M148.785 122.498C149.253 122.498 149.632 122.119 149.632 121.651C149.632 121.183 149.253 120.804 148.785 120.804C148.317 120.804 147.938 121.183 147.938 121.651C147.938 122.119 148.317 122.498 148.785 122.498Z" fill="#DFE1E5"/>
<path d="M148.785 95.6645C149.253 95.6645 149.632 95.2851 149.632 94.8171C149.632 94.3491 149.253 93.9697 148.785 93.9697C148.317 93.9697 147.938 94.3491 147.938 94.8171C147.938 95.2851 148.317 95.6645 148.785 95.6645Z" fill="#DFE1E5"/>
<path d="M140.473 97.983V118.487H130.087V97.983H140.473ZM141.137 97.3164H140.471H130.085H129.418V97.983V118.487V119.153H130.085H140.471H141.137V118.487V97.983V97.3164Z" fill="#0065FF"/>
<path d="M140.474 97.9824H130.088V107.705H140.474V97.9824Z" fill="#2684FF"/>
<path d="M137.81 115.427H127.424L130.087 107.702H140.473L137.81 115.427Z" fill="#2684FF"/>
<path d="M137.811 115.427L140.474 118.486V107.702L137.811 115.427Z" fill="#4C9AFF"/>
<path d="M130.087 118.487L127.424 115.428H137.81L140.473 118.487H130.087Z" fill="#B2D4FF"/>
<path d="M135.279 101.291V104.395" stroke="#B2D4FF" stroke-width="1.00251" stroke-miterlimit="10" stroke-linecap="round"/>
<path d="M134.671 112.408C135.32 111.857 135.526 111.031 135.129 110.564C134.733 110.096 133.884 110.163 133.235 110.714C132.585 111.265 132.38 112.091 132.777 112.559C133.173 113.026 134.021 112.959 134.671 112.408Z" stroke="#B2D4FF" stroke-width="1.02242" stroke-miterlimit="10" stroke-linecap="round"/>
<path d="M130.088 107.702H140.474" stroke="#4C9AFF" stroke-width="0.482398" stroke-miterlimit="10"/>
<path d="M103.533 31.714V65.8916H149.777V31.714H103.533Z" fill="#EBECF0" stroke="#EBECF0" stroke-width="1.22857" stroke-miterlimit="10"/>
<path d="M95.0449 31.7091V65.8867H141.289V31.7091H95.0449Z" fill="#F4F5F7" stroke="#DFE1E5" stroke-width="1.22857" stroke-miterlimit="10"/>
<path d="M98.7302 63.0668C99.1982 63.0668 99.5776 62.6874 99.5776 62.2194C99.5776 61.7515 99.1982 61.3721 98.7302 61.3721C98.2622 61.3721 97.8828 61.7515 97.8828 62.2194C97.8828 62.6874 98.2622 63.0668 98.7302 63.0668Z" fill="#DFE1E5"/>
<path d="M98.7302 36.2328C99.1982 36.2328 99.5776 35.8535 99.5776 35.3855C99.5776 34.9175 99.1982 34.5381 98.7302 34.5381C98.2622 34.5381 97.8828 34.9175 97.8828 35.3855C97.8828 35.8535 98.2622 36.2328 98.7302 36.2328Z" fill="#DFE1E5"/>
<path d="M137.631 63.0668C138.099 63.0668 138.478 62.6874 138.478 62.2194C138.478 61.7515 138.099 61.3721 137.631 61.3721C137.163 61.3721 136.783 61.7515 136.783 62.2194C136.783 62.6874 137.163 63.0668 137.631 63.0668Z" fill="#DFE1E5"/>
<path d="M137.631 36.2328C138.099 36.2328 138.478 35.8535 138.478 35.3855C138.478 34.9175 138.099 34.5381 137.631 34.5381C137.163 34.5381 136.783 34.9175 136.783 35.3855C136.783 35.8535 137.163 36.2328 137.631 36.2328Z" fill="#DFE1E5"/>
<path d="M32.3484 124.312C32.4825 124.312 32.5913 124.203 32.5913 124.069C32.5913 123.935 32.4825 123.826 32.3484 123.826C32.2142 123.826 32.1055 123.935 32.1055 124.069C32.1055 124.203 32.2142 124.312 32.3484 124.312Z" fill="#8993A4"/>
<path d="M129.398 58.9565L128.751 57.7363C128.689 57.4171 128.669 57.1488 128.663 56.9539C128.658 56.7505 128.666 56.5839 128.788 56.4822C128.839 56.4398 128.892 56.4201 128.932 56.4088C128.892 56.341 128.895 56.2562 128.94 56.1913C128.98 56.1319 129.059 56.0811 129.149 56.0924C129.228 56.1037 129.29 56.1574 129.307 56.2336C129.37 56.1969 129.418 56.1884 129.457 56.1913C129.666 56.2082 129.824 56.5726 129.864 57.1008C129.974 56.8268 130.155 56.6545 130.304 56.6686C130.333 56.6714 130.372 56.6827 130.415 56.7195C130.347 56.9511 130.276 57.1827 130.208 57.4143C130.234 57.5273 130.254 57.6798 130.237 57.8606C130.206 58.1996 130.059 58.4566 129.968 58.5893L129.398 58.9565Z" fill="#72594B"/>
<path d="M140.555 65.4484C140.58 65.5275 140.614 65.6461 140.651 65.7902C140.758 66.2139 140.823 66.646 140.88 67.8493C140.928 68.8605 140.88 68.5555 140.916 69.0695C140.953 69.6147 141.01 69.9847 140.809 70.3886C140.733 70.5412 140.645 70.6513 140.583 70.7219L137.078 73.9928C136.775 73.7894 136.476 73.5889 136.174 73.3855C137.304 72.1512 138.434 70.9197 139.561 69.6853L138.993 65.4315L139.809 65.2168L140.555 65.4484Z" fill="#FF991F"/>
<path d="M139.424 71.0294C139.396 70.9023 139.354 70.7582 139.297 70.6057C139.23 70.4249 139.156 70.2696 139.083 70.1396C138.995 70.1679 138.854 70.2074 138.676 70.2413C138.523 70.2724 138.405 70.2837 138.343 70.2922C137.981 70.343 137.295 70.4249 135.445 70.5662C135.357 70.6763 135.23 70.843 135.097 71.0548C134.614 71.8203 134.436 72.518 134.363 72.8202C133.109 77.9835 133.015 78.1587 133.015 78.1587C132.84 79.1501 132.671 80.1585 132.51 81.1782C132.191 83.1949 131.753 87.0166 131.516 88.9486C131.564 89.087 131.646 89.2057 131.75 89.296C131.75 89.296 131.914 89.4345 132.12 89.4655C132.595 89.5333 133.425 87.0279 133.425 87.0279C134.109 84.9659 134.295 82.243 134.301 81.9606C134.309 81.4239 134.258 80.9776 134.21 80.6697C134.753 79.6416 135.295 78.6078 135.837 77.5683C136.258 76.7605 136.676 75.9527 137.091 75.1477C137.08 77.0825 137.083 79.0399 137.097 81.0172C137.117 83.4294 137.154 86.8132 137.213 89.1605C137.258 89.2 137.337 89.2537 137.444 89.2819C137.487 89.2932 137.617 89.3215 137.86 89.2367C138.283 89.0899 138.422 88.8978 138.422 88.8978C138.614 87.8951 138.86 85.3642 138.981 83.4802C139.114 81.3844 138.919 81.5312 139.038 79.8365C139.215 77.2633 139.899 73.5998 139.718 72.4078C139.687 72.2157 139.523 71.4616 139.424 71.0294Z" fill="#72594B"/>
<path d="M137.343 60.5838C137.205 60.3719 137.027 60.0499 137.143 59.8889C137.245 59.7477 137.487 59.8466 138.081 59.8692C138.931 59.9002 139.024 59.7562 139.456 59.8946C139.586 59.937 140.021 60.0754 140.312 60.4877C140.722 61.0696 140.532 61.7984 140.473 62.0187C140.241 62.8802 139.552 63.3208 139.366 63.431C139.21 63.5298 139.058 63.6287 138.903 63.7276C138.468 62.9762 138.03 62.2249 137.595 61.4735L137.343 60.5838Z" fill="#172B4D"/>
<path d="M138.844 64.5157C138.254 64.5157 137.667 64.5157 137.076 64.5157C137.172 64.2897 137.288 63.9508 137.328 63.5215C137.364 63.1062 137.319 62.7588 137.265 62.5215C137.624 62.5046 137.983 62.4877 138.344 62.4707C138.359 62.5328 138.378 62.6261 138.409 62.7362C138.452 62.8859 138.48 62.9678 138.528 63.0356C138.647 63.2023 138.878 63.2333 139 63.239C138.949 63.6655 138.895 64.092 138.844 64.5157Z" fill="#72594B"/>
<path d="M139.228 79.839C139.231 79.8051 139.231 79.774 139.234 79.7373C139.304 78.712 139.454 77.5172 139.601 76.3619C139.818 74.6361 140.025 73.0063 139.912 72.2662C139.881 72.06 139.714 71.2889 139.618 70.8709C139.584 70.7184 139.539 70.5687 139.485 70.4246C139.423 70.2551 139.347 70.0913 139.259 69.9303L139.18 69.7891L139.025 69.8371C138.898 69.8766 138.768 69.9105 138.638 69.9359C138.528 69.9585 138.434 69.9698 138.372 69.9783L138.313 69.9868C137.974 70.0348 137.305 70.1167 135.429 70.2608L135.341 70.2664L135.288 70.3342C135.158 70.4952 135.036 70.6647 134.926 70.8398C134.415 71.6476 134.234 72.3877 134.169 72.6645C133.051 77.2714 132.859 77.8928 132.833 77.9691L132.825 77.986L132.819 78.0171C132.746 78.4351 132.672 78.8588 132.602 79.2825C133.164 79.7429 134 79.8757 134.822 79.822C135.217 79.0679 135.615 78.3137 136.011 77.551C136.305 76.989 136.596 76.4269 136.884 75.8676C136.878 77.1132 136.881 78.3645 136.886 79.6102C137.638 79.9124 138.46 79.9746 139.228 79.839Z" fill="#172B4D"/>
<path d="M139.141 73.6191C139.417 73.2689 139.632 72.8791 139.72 72.4074C139.836 71.7803 139.703 71.2154 139.621 70.868C139.567 70.6392 139.491 70.4358 139.488 70.4217C139.426 70.2522 139.35 70.0884 139.262 69.9274L139.183 69.7861L139.028 69.8342C138.901 69.8737 138.771 69.9076 138.641 69.933C138.531 69.9556 138.437 69.9669 138.375 69.9754L138.316 69.9839C137.977 70.0319 137.308 70.1138 135.432 70.2578L135.344 70.2635L135.291 70.3313C135.161 70.4923 135.039 70.6618 134.929 70.8369C134.282 71.8622 134.056 73.2124 133.743 74.3761C133.506 75.2489 133.285 76.1245 133.079 77.0058C133.028 77.2261 132.435 79.1384 132.605 79.2768C133.167 79.7372 134.003 79.8699 134.825 79.8163C135.22 79.0621 135.618 78.3079 136.014 77.5453C136.494 76.6217 136.901 75.7517 137.669 75.0342C138.163 74.5738 138.723 74.1445 139.141 73.6191Z" fill="#253858"/>
<path d="M137.343 60.584C137.258 60.7789 137.176 60.971 137.091 61.1659C136.84 61.3212 136.591 61.4737 136.34 61.6291C136.402 61.7364 136.461 61.8438 136.523 61.9511C136.501 62.3381 136.481 62.7222 136.458 63.1092C136.617 63.225 136.865 63.3803 137.196 63.4961C137.297 63.5329 137.343 63.53 138.249 63.5639C138.636 63.5781 138.834 63.5837 138.922 63.4764C139.023 63.3521 139.012 63.1374 138.953 62.9962C138.893 62.8521 138.82 62.8634 138.752 62.725C138.648 62.5047 138.777 62.3776 138.71 62.1714C138.645 61.968 138.487 62.0076 138.244 61.7534C137.97 61.4653 138.026 61.2788 137.752 60.9371C137.611 60.7591 137.45 60.649 137.343 60.584Z" fill="#72594B"/>
<path d="M130.729 64.5132C131.356 64.9171 132.133 65.3493 133.056 65.7306C133.791 66.0328 134.477 66.2475 135.085 66.4C135.082 66.9169 135.062 67.4593 135.02 68.027C134.946 69.0269 134.813 69.9477 134.655 70.781C135.175 71.0182 135.938 71.2951 136.889 71.408C138.152 71.5577 139.186 71.3516 139.813 71.1736C139.841 70.0409 139.98 68.6993 140.347 67.2276C140.426 66.9085 140.513 66.6006 140.604 66.3068C140.759 65.7956 140.57 65.2391 140.126 64.9425C140.124 64.9397 140.121 64.9369 140.118 64.9369C140.118 64.9369 140.044 64.8889 139.929 64.8183C139.929 64.8183 139.72 64.694 139.505 64.5866C138.598 64.1347 136.937 63.9794 136.937 63.9794C134.672 63.7675 134.751 63.8071 134.313 63.7393C133.277 63.5726 132.455 63.2873 131.924 63.0698C131.396 61.4655 130.87 59.8583 130.342 58.2539C129.554 58.4601 129.876 58.3754 129.088 58.5816C129.288 59.6125 129.548 60.7141 129.879 61.875C130.144 62.8128 130.432 63.6941 130.729 64.5132Z" fill="#FFC400"/>
<path d="M138.5 89.7049C138.045 89.7049 137.588 89.7049 137.133 89.7049C137.153 89.4705 137.167 89.2219 137.17 88.9592C137.172 88.7954 137.17 88.6372 137.167 88.4847C137.359 88.4536 137.588 88.431 137.847 88.4338C138.107 88.4367 138.339 88.4649 138.528 88.4988C138.477 88.6739 138.432 88.9168 138.438 89.2106C138.441 89.3998 138.469 89.5693 138.5 89.7049Z" fill="#DFE1E5"/>
<path d="M132.641 89.7055C132.186 89.7055 131.728 89.7055 131.273 89.7055C131.285 89.4626 131.505 88.7225 131.516 88.4796C131.765 88.4514 132.016 88.4203 132.268 88.3892C132.494 88.361 132.717 88.3299 132.937 88.2988C132.878 88.522 132.821 88.7564 132.768 89.005C132.72 89.2479 132.674 89.4823 132.641 89.7055Z" fill="#DFE1E5"/>
<path d="M137.415 89.6069C137.415 89.6097 137.412 89.6126 137.412 89.6126C137.387 89.6239 137.313 89.3979 137.214 89.3555C137.02 89.268 137.197 89.8498 136.765 90.2227C136.57 90.3922 136.378 90.4825 136.226 90.5362C136.169 90.556 136.127 90.6238 136.127 90.7029V90.8639H138.743C138.748 90.6577 138.737 90.3922 138.666 90.0899C138.624 89.9035 138.567 89.7425 138.508 89.6069H137.415Z" fill="#42526E"/>
<path d="M131.557 89.6069C131.557 89.6097 131.554 89.6126 131.554 89.6126C131.528 89.6239 131.455 89.3979 131.356 89.3555C131.161 89.268 130.842 89.8498 130.271 90.2227C130.014 90.3922 129.76 90.4825 129.56 90.5362C129.483 90.556 129.43 90.6238 129.43 90.7029V90.8639H132.887C132.893 90.6577 132.881 90.3922 132.811 90.0899C132.768 89.9035 132.712 89.7425 132.653 89.6069H131.557Z" fill="#42526E"/>
<path d="M136.524 61.9516C136.505 61.9657 136.454 62.008 136.428 62.0815C136.397 62.1634 136.414 62.234 136.423 62.2594C136.493 62.2962 136.592 62.3357 136.714 62.3611C136.798 62.3781 136.875 62.3837 136.94 62.3837C136.934 62.443 136.926 62.5221 136.911 62.6182C136.878 62.8695 136.858 62.895 136.835 62.9063C136.756 62.9515 136.589 62.8582 136.524 62.7255C136.496 62.6662 136.491 62.6069 136.491 62.5701C136.451 62.604 136.355 62.6944 136.318 62.8441C136.27 63.0418 136.363 63.2 136.386 63.2396C136.539 63.5023 136.858 63.5474 136.937 63.5559C136.948 63.5559 136.951 63.5587 136.974 63.5587C137.957 63.6068 138.024 63.6068 138.084 63.5898C138.64 63.4232 138.601 61.7228 138.598 61.6493C138.391 61.525 138.185 61.4008 137.982 61.2793C138.005 61.316 138.194 61.6295 138.058 61.9741C138.038 62.025 137.923 62.3131 137.694 62.3583C137.457 62.4035 137.329 62.1436 136.866 62.0137C136.725 61.9685 136.604 61.9572 136.524 61.9516Z" fill="#172B4D"/>
<path d="M165.293 125.322V159.5H199.471V125.322H165.293Z" fill="#EBECF0" stroke="#EBECF0" stroke-width="1.22857" stroke-miterlimit="10"/>
<path d="M156.82 125.322V159.5H190.998V125.322H156.82Z" fill="#F4F5F7" stroke="#DFE1E5" stroke-width="1.22857" stroke-miterlimit="10"/>
<path d="M177.055 133.788L184.986 147.527C185.486 148.394 185.19 149.502 184.325 150.002C184.048 150.16 183.738 150.245 183.419 150.245H167.553C166.553 150.245 165.742 149.434 165.742 148.434C165.742 148.115 165.827 147.804 165.985 147.527L173.917 133.788C174.417 132.921 175.524 132.625 176.391 133.125C176.668 133.286 176.897 133.514 177.055 133.788Z" fill="#FFAB00"/>
<path d="M175.479 133.788L183.41 147.527C183.91 148.394 183.613 149.502 182.749 150.002C182.472 150.16 182.162 150.245 181.842 150.245H165.977C164.977 150.245 164.166 149.434 164.166 148.434C164.166 148.115 164.251 147.804 164.409 147.527L172.34 133.788C172.84 132.921 173.948 132.625 174.815 133.125C175.092 133.286 175.32 133.514 175.479 133.788Z" fill="url(#paint9_linear)"/>
<path d="M174.575 143.765L174.92 138.469C174.959 137.865 174.501 137.342 173.897 137.303C173.874 137.3 173.849 137.3 173.826 137.3C173.222 137.3 172.73 137.791 172.73 138.396C172.73 138.418 172.73 138.444 172.733 138.466L173.078 143.762C173.103 144.158 173.431 144.466 173.826 144.466C174.222 144.469 174.55 144.161 174.575 143.765Z" fill="#253858"/>
<path d="M172.686 146.576C172.68 147.203 173.186 147.717 173.813 147.725C173.849 147.725 173.889 147.725 173.926 147.72C174.561 147.66 175.03 147.098 174.971 146.463C174.917 145.867 174.417 145.412 173.818 145.412C173.186 145.423 172.677 145.943 172.686 146.576Z" fill="#253858"/>
<path d="M198.237 145.946H192.234V155.609H198.237V145.946Z" fill="#253858"/>
<path d="M196.158 155.611V151.939" stroke="#FFC400" stroke-width="1.04803" stroke-miterlimit="10"/>
<path d="M194.241 155.611V154.506C194.241 153.656 193.902 152.84 193.301 152.238" stroke="#0065FF" stroke-width="1.04803" stroke-miterlimit="10"/>
<path d="M195.035 155.611V154.837C195.035 154.25 195.513 153.772 196.1 153.772C196.688 153.772 197.165 154.25 197.165 154.837V159.783" stroke="#FF5630" stroke-width="1.04803" stroke-miterlimit="10"/>
<path d="M194.241 145.946V147.042C194.241 147.892 193.902 148.709 193.301 149.31" stroke="#FFC400" stroke-width="1.04803" stroke-miterlimit="10"/>
<path d="M196.662 145.946V148.333" stroke="#0065FF" stroke-width="1.04803" stroke-miterlimit="10"/>
<path d="M206.35 148.648L210.395 151.346C210.488 151.408 210.434 151.555 210.322 151.541L205.887 150.945L205.748 151.97C205.737 152.049 205.65 152.089 205.585 152.043L201.54 149.346C201.447 149.284 201.5 149.137 201.613 149.151L206.048 149.747L206.186 148.722C206.195 148.645 206.285 148.606 206.35 148.648Z" fill="#FFC400"/>
<path d="M202.459 152.275L203.286 154.554C203.303 154.602 203.247 154.639 203.21 154.605L201.608 153.06L201.25 153.433C201.224 153.458 201.185 153.45 201.171 153.416L200.343 151.136C200.326 151.088 200.382 151.052 200.419 151.085L202.021 152.63L202.379 152.258C202.405 152.235 202.447 152.244 202.459 152.275Z" fill="#FFAB00"/>
<path d="M198.236 145.946H197.736V155.609H198.236V145.946Z" fill="#505F79"/>
<path d="M195.324 145.946V148.059C195.324 148.059 195.378 149.525 196.05 150.194" stroke="#FF5630" stroke-width="1.04803" stroke-miterlimit="10"/>
<path d="M168.611 162.907H163.047L165.089 153.066C165.126 152.888 165.281 152.764 165.462 152.764H166.196C166.377 152.764 166.532 152.891 166.569 153.066L168.611 162.907Z" fill="url(#paint10_linear)"/>
<path d="M170.255 161.642H161.623V162.907H170.255V161.642Z" fill="#F4F5F7"/>
<path d="M170.255 154.286H161.623V155.552H170.255V154.286Z" fill="#F4F5F7"/>
<path d="M170.255 164.173H161.623V163.769C161.623 163.291 162.01 162.904 162.487 162.904H169.391C169.868 162.904 170.255 163.291 170.255 163.769V164.173Z" fill="url(#paint11_linear)"/>
<path d="M214.355 164.319H208.793L210.835 154.478C210.872 154.3 211.027 154.176 211.208 154.176H211.942C212.123 154.176 212.279 154.303 212.315 154.478L214.355 164.319Z" fill="url(#paint12_linear)"/>
<path d="M215.999 163.054H207.367V164.319H215.999V163.054Z" fill="#F4F5F7"/>
<path d="M215.999 155.698H207.367V156.964H215.999V155.698Z" fill="#F4F5F7"/>
<path d="M215.999 165.585H207.367V165.181C207.367 164.703 207.754 164.316 208.232 164.316H215.135C215.612 164.316 215.999 164.703 215.999 165.181V165.585Z" fill="url(#paint13_linear)"/>
<path d="M197.162 159.783C197.162 160.518 197.758 161.116 198.495 161.116H201.159C201.845 161.116 202.402 161.673 202.402 162.359C202.402 163.046 201.845 163.602 201.159 163.602H199.984C199.297 163.602 198.741 164.159 198.741 164.845V165.062C198.741 165.749 199.297 166.305 199.984 166.305H204.76C205.221 166.305 205.594 166.678 205.594 167.138" stroke="#FF5630" stroke-width="1.04803" stroke-miterlimit="10"/>
<path d="M187.328 156.676C187.796 156.676 188.175 156.297 188.175 155.829C188.175 155.361 187.796 154.981 187.328 154.981C186.86 154.981 186.48 155.361 186.48 155.829C186.48 156.297 186.86 156.676 187.328 156.676Z" fill="#DFE1E5"/>
<path d="M184.789 168.785C189.358 168.785 193.062 168.308 193.062 167.72C193.062 167.132 189.358 166.655 184.789 166.655C180.22 166.655 176.516 167.132 176.516 167.72C176.516 168.308 180.22 168.785 184.789 168.785Z" fill="#F4F4F7"/>
<path d="M183.396 157.6L183.586 157.713C183.752 157.811 183.893 157.941 184.006 158.1C184.091 158.227 184.176 158.359 184.261 158.495C184.32 158.591 184.376 158.684 184.43 158.777C184.413 158.792 184.357 158.84 184.272 158.842C184.15 158.845 184.074 158.752 184.066 158.741L183.845 158.501L182.865 158.148L182.896 157.631C183.043 157.52 183.241 157.509 183.396 157.6Z" fill="#A27F68"/>
<path d="M183.577 157.99L183.848 158.501L182.678 158.561L182.404 158.14L183.577 157.99Z" fill="#A27F68"/>
<path d="M179.213 166.354C181.184 166.73 183.156 167.105 185.13 167.478C185.294 167.484 186.037 167.492 186.546 166.947C186.882 166.585 186.952 166.159 186.997 165.879C187.096 165.272 186.949 164.69 186.873 164.388C186.853 164.306 186.834 164.241 186.82 164.196C186.255 162.281 185.967 161.594 185.681 160.578C185.226 158.948 185.447 159.035 185.119 158.185C184.775 157.287 184.102 156.183 182.696 155.104C182.484 155.352 182.198 155.719 181.93 156.205C181.727 156.572 181.478 157.019 181.365 157.617C181.306 157.931 181.269 158.355 181.396 159.131C181.461 159.521 181.676 160.657 182.512 162.281C182.803 162.843 183.227 163.583 183.831 164.399C183.094 164.148 182.311 163.905 181.484 163.679C180.854 163.507 180.244 163.354 179.654 163.221C179.509 164.267 179.363 165.309 179.213 166.354Z" fill="url(#paint14_linear)"/>
<path d="M189.811 167.481C189.811 167.481 189.628 167.06 189.074 166.817C188.554 166.591 188.244 166.814 187.6 166.532C187.419 166.453 186.989 166.263 186.981 165.973C186.975 165.817 187.088 165.69 187.176 165.611C186.755 165.32 186.331 165.026 185.911 164.735C185.911 164.735 185.552 165.114 185.326 165.905C185.1 166.696 185.128 167.481 185.128 167.481H189.811Z" fill="#091E42"/>
<path d="M179.543 164.023C179.362 163.939 179.105 163.845 178.789 163.797C178.413 163.741 178.097 163.769 177.885 163.809C177.89 164.826 177.896 165.845 177.902 166.862C177.896 166.896 177.871 167.122 178.034 167.306C178.159 167.444 178.32 167.472 178.365 167.481C178.834 167.481 179.306 167.481 179.774 167.481C179.746 167.416 179.695 167.311 179.605 167.204C179.317 166.865 178.967 166.913 178.842 166.625C178.775 166.47 178.808 166.306 178.823 166.249C178.856 166.088 178.938 165.984 179.003 165.899C179.06 165.826 179.161 165.715 179.317 165.616C179.393 165.085 179.467 164.554 179.543 164.023Z" fill="#091E42"/>
<path d="M188.083 158.002C188.081 158.002 188.078 157.999 188.075 157.999C187.905 157.954 187.654 157.866 187.422 157.666C187.227 157.499 186.937 157.157 186.798 155.985C186.736 155.462 186.694 154.691 186.821 153.748C187.629 153.098 188.434 152.451 189.241 151.802C189.278 152.271 189.264 152.652 189.241 152.917C189.16 153.926 188.883 154.601 189.236 155.132C189.309 155.245 189.315 155.239 189.374 155.361C189.676 155.985 189.45 156.66 189.411 156.765C189.095 157.654 188.199 157.962 188.083 158.002Z" fill="url(#paint15_linear)"/>
<path d="M188.393 150.683C188.345 150.745 187.851 151.383 187.021 151.361C186.396 151.344 185.829 150.965 185.555 150.383C185.803 150.101 186.131 149.666 186.382 149.067C186.574 148.612 186.665 148.197 186.707 147.878C187.331 148.372 187.956 148.867 188.58 149.364C188.43 149.612 188.326 149.833 188.255 149.996C188.136 150.276 188.117 150.392 188.165 150.494C188.218 150.604 188.323 150.657 188.393 150.683Z" fill="url(#paint16_linear)"/>
<path d="M187.906 156.228C188.234 155.861 188.533 155.64 189.174 155.202C190.157 154.536 190.446 154.378 190.979 153.946C191.253 153.722 191.462 153.527 191.592 153.4C191.7 153.669 191.804 153.937 191.909 154.205C191.109 155.392 190.462 156.191 190.059 156.657C189.957 156.773 189.72 157.044 189.338 157.307C189.053 157.499 188.18 158.112 187.7 157.787C187.463 157.626 187.426 157.312 187.42 157.253C187.395 157.007 187.471 156.716 187.906 156.228Z" fill="#A27F68"/>
<path d="M188.893 150.88C188.647 150.787 188.435 150.688 188.263 150.603C187.89 150.784 187.52 150.965 187.147 151.146C186.805 150.64 186.466 150.132 186.124 149.626C185.308 149.728 184.489 149.827 183.673 149.928C183.571 150.259 183.43 150.73 183.26 151.301C182.871 152.623 182.854 152.959 182.577 153.716C182.215 154.705 182.02 154.727 181.512 155.984C181.258 156.608 181.091 157.131 180.992 157.473C181.721 157.919 182.642 158.368 183.755 158.665C184.02 158.735 184.28 158.792 184.529 158.84C185.071 158.744 185.613 158.651 186.156 158.555C186.218 158.419 186.314 158.204 186.41 157.933C186.509 157.656 186.531 157.549 186.61 157.363C186.754 157.021 186.929 156.8 187.006 156.699C187.805 155.673 187.396 154.981 188.234 153.86C188.432 153.597 188.667 153.352 188.983 152.832C189.297 152.315 189.288 152.103 189.345 151.979C189.539 151.55 189.333 151.05 188.893 150.88Z" fill="url(#paint17_linear)"/>
<path d="M187.159 150.897L184.041 158.888" stroke="#ABF5D1" stroke-width="0.600525" stroke-miterlimit="10" stroke-linecap="round"/>
<path d="M187.15 151.138L186.523 151.615C186.308 150.962 186.094 150.313 185.879 149.66C185.989 149.576 186.096 149.491 186.207 149.403C186.243 149.567 186.478 149.847 186.517 150.011L187.15 151.138Z" fill="#36B37E"/>
<path d="M188.119 150.31C188.054 150.488 187.475 150.988 187.15 151.149C187.249 151.347 187.345 151.547 187.444 151.745C187.823 151.414 188.201 151.084 188.58 150.753C188.526 150.612 188.472 150.471 188.419 150.33C188.342 150.265 188.266 150.203 188.19 150.138C188.156 150.208 188.133 150.268 188.119 150.31Z" fill="#36B37E"/>
<path d="M187.704 149.544C188.568 150.089 188.65 150.154 188.794 150.112C188.896 150.084 189.043 149.912 189.334 149.57C189.481 149.397 189.596 149.251 189.678 149.143C189.735 149.191 189.89 149.318 189.978 149.27C190.037 149.236 190.031 149.135 190.04 148.982C190.048 148.841 190.065 148.649 190.113 148.417C190.133 148.386 190.15 148.352 190.17 148.318C190.17 148.318 190.314 148.042 190.351 147.722C190.41 147.223 190.192 146.765 190.173 146.728C189.899 146.172 189.235 145.601 188.416 145.661C187.738 145.709 187.221 146.169 187.006 146.562C186.772 146.991 186.701 147.708 186.701 147.722C186.701 147.722 186.701 147.725 186.701 147.731C186.698 147.776 186.693 147.807 186.693 147.81C186.676 147.957 186.823 148.172 186.823 148.172C186.953 148.361 187.006 148.335 187.074 148.448C187.193 148.655 187.052 148.807 187.108 149.027C187.148 149.197 187.272 149.27 187.704 149.544Z" fill="#8C715D"/>
<path d="M188.632 147.468C188.445 147.677 188.324 147.878 188.25 148.016C188.157 147.974 188.067 147.931 187.974 147.889C187.934 147.754 187.875 147.618 187.779 147.604C187.564 147.57 187.412 148.191 187.115 148.2C186.889 148.205 186.717 147.852 186.694 147.807C186.446 147.302 186.632 146.595 187.042 146.149C187.499 145.655 188.118 145.615 188.304 145.601C189.154 145.545 189.733 146.039 189.844 146.135C190.327 146.562 190.527 147.135 190.544 147.578C190.547 147.663 190.561 147.982 190.437 148.027C190.375 148.05 190.284 147.999 189.988 147.669C189.516 147.143 189.493 146.994 189.324 146.974C189.098 146.946 188.889 147.183 188.632 147.468Z" fill="#172B4D"/>
<path d="M191.899 154.193C191.899 154.193 192.244 154.145 192.425 153.97C192.606 153.795 193.007 152.671 193.007 152.671C193.012 152.484 192.959 152.445 192.936 152.436C192.905 152.422 192.874 152.433 192.775 152.45C192.699 152.465 192.637 152.47 192.594 152.473C192.606 152.467 192.679 152.428 192.702 152.343C192.721 152.27 192.696 152.21 192.69 152.193C192.648 152.224 192.577 152.272 192.484 152.315C192.408 152.349 192.346 152.366 192.326 152.371C192.165 152.419 191.964 152.572 191.826 152.75C191.625 153.01 191.594 153.289 191.586 153.402C191.696 153.665 191.798 153.93 191.899 154.193Z" fill="#A27F68"/>
<path d="M181.368 157.62C181.286 158.058 181.331 158.411 181.374 158.623C181.405 158.778 181.523 159.73 182.379 160.219C182.633 160.363 182.859 160.49 183.13 160.606C183.13 160.606 183.667 160.835 184.303 160.973C185.627 161.264 187.638 161.117 187.771 161.108C187.333 161.447 186.876 161.834 186.407 162.272C185.783 162.857 185.249 163.433 184.797 163.973C185.661 164.569 186.526 165.165 187.39 165.761C188.051 165.128 188.743 164.413 189.443 163.614C189.686 163.337 189.847 163.156 190.034 162.919C190.52 162.303 191.09 161.433 191.562 160.247C191.384 159.905 191.062 159.411 190.505 159.038C189.83 158.583 189.184 158.583 187.593 158.428C186.791 158.349 185.478 158.222 185.122 158.188C183.87 157.999 182.619 157.809 181.368 157.62Z" fill="#344563"/>
<path d="M182.876 153.855C182.89 153.942 182.882 154.072 182.786 154.236C183.014 154.699 183.161 155.092 183.249 155.357C183.5 156.114 183.523 156.532 183.825 157.349C183.941 157.659 184.054 157.905 184.124 158.058C183.853 158.072 183.582 158.086 183.311 158.097C182.492 157.027 181.978 156.207 181.681 155.708C181.608 155.583 181.435 155.289 181.32 154.869C181.221 154.513 180.961 153.572 181.387 153.264C181.811 152.959 182.794 153.346 182.876 153.855Z" fill="#A27F68"/>
<path d="M183.266 157.99C183.325 158.092 183.559 158.462 183.949 158.507C184.136 158.529 184.291 158.467 184.503 158.385C184.782 158.275 184.989 158.137 185.121 158.032L185.751 158.507C185.799 158.544 185.867 158.549 185.921 158.518C186 158.467 186.011 158.36 185.949 158.295L185.415 157.73C185.376 157.688 185.319 157.659 185.26 157.654L184.525 157.586L183.477 157.51L183.266 157.99Z" fill="#A27F68"/>
<path d="M185.621 158.281L185.88 158.586C185.928 158.643 185.931 158.725 185.883 158.784C185.832 158.849 185.739 158.863 185.671 158.815L184.886 158.261L184.268 158.281L184.525 157.908H185.16L185.621 158.281Z" fill="#A27F68"/>
<path d="M185.642 159.101C185.585 159.151 185.498 159.151 185.441 159.101C185.308 158.948 185.176 158.796 185.043 158.643C184.797 158.516 184.551 158.392 184.303 158.265L184.489 158.024L185.266 158.383L185.661 158.897C185.707 158.962 185.698 159.047 185.642 159.101Z" fill="#A27F68"/>
<path d="M185.07 159.198C185.016 159.221 184.957 159.198 184.932 159.147L184.7 158.701C184.576 158.602 184.454 158.506 184.33 158.407C184.387 158.348 184.446 158.289 184.502 158.229C184.666 158.354 184.827 158.481 184.991 158.605L185.135 159.063C185.149 159.116 185.124 159.176 185.07 159.198Z" fill="#A27F68"/>
<path d="M184.78 150.208C184.563 149.979 184.266 149.877 183.981 149.897C183.622 149.92 183.365 150.168 183.227 150.307C182.391 151.137 182.196 151.589 181.532 152.298C181.165 152.69 180.801 153.021 180.662 153.617C180.625 153.775 180.614 153.911 180.611 154.004C180.699 154.055 180.832 154.123 181.004 154.176C181.591 154.368 181.795 154.151 182.651 154.224C182.916 154.247 183.128 154.286 183.185 154.188C183.233 154.103 183.148 153.962 183.072 153.86C183.594 153.464 184.436 152.705 184.786 151.614C184.845 151.428 185.111 150.555 184.78 150.208Z" fill="url(#paint18_linear)"/>
<path d="M90.7269 114.861C101.29 114.861 109.852 106.298 109.852 95.7357C109.852 85.1731 101.29 76.6104 90.7269 76.6104C80.1643 76.6104 71.6016 85.1731 71.6016 95.7357C71.6016 106.298 80.1643 114.861 90.7269 114.861Z" fill="#36B37E"/>
<path d="M88.4671 114.861C99.0298 114.861 107.592 106.298 107.592 95.7357C107.592 85.1731 99.0298 76.6104 88.4671 76.6104C77.9045 76.6104 69.3418 85.1731 69.3418 95.7357C69.3418 106.298 77.9045 114.861 88.4671 114.861Z" fill="url(#paint19_linear)"/>
<path d="M85.9013 105.854L77.7664 98.9164C77.4275 98.6254 77.3851 98.1142 77.6761 97.7752L80.4555 94.5156C80.7464 94.1767 81.2576 94.1343 81.5966 94.4253L85.8674 98.069L95.2027 87.1886C95.4936 86.8497 96.0048 86.8101 96.3438 87.1011L99.5949 89.8889C99.9339 90.1799 99.9734 90.6911 99.6825 91.0301L87.0424 105.766C86.7487 106.102 86.2402 106.142 85.9013 105.854Z" fill="white"/>
<path d="M118.182 91.1466V125.324H152.359V91.1466H118.182Z" fill="#F4F5F7" stroke="#DFE1E5" stroke-width="1.22857" stroke-miterlimit="10"/>
<path d="M121.949 122.498C122.417 122.498 122.796 122.119 122.796 121.651C122.796 121.183 122.417 120.804 121.949 120.804C121.481 120.804 121.102 121.183 121.102 121.651C121.102 122.119 121.481 122.498 121.949 122.498Z" fill="#DFE1E5"/>
<path d="M121.949 95.6655C122.417 95.6655 122.796 95.2861 122.796 94.8181C122.796 94.3501 122.417 93.9707 121.949 93.9707C121.481 93.9707 121.102 94.3501 121.102 94.8181C121.102 95.2861 121.481 95.6655 121.949 95.6655Z" fill="#DFE1E5"/>
<path d="M148.783 122.358C149.251 122.358 149.63 121.978 149.63 121.51C149.63 121.042 149.251 120.663 148.783 120.663C148.315 120.663 147.936 121.042 147.936 121.51C147.936 121.978 148.315 122.358 148.783 122.358Z" fill="#DFE1E5"/>
<path d="M148.783 95.5239C149.251 95.5239 149.63 95.1445 149.63 94.6765C149.63 94.2085 149.251 93.8291 148.783 93.8291C148.315 93.8291 147.936 94.2085 147.936 94.6765C147.936 95.1445 148.315 95.5239 148.783 95.5239Z" fill="#DFE1E5"/>
<path d="M135.367 119.66C141.677 119.66 146.792 114.544 146.792 108.234C146.792 101.924 141.677 96.8086 135.367 96.8086C129.057 96.8086 123.941 101.924 123.941 108.234C123.941 114.544 129.057 119.66 135.367 119.66Z" fill="#253858"/>
<g opacity="0.3">
<g opacity="0.3">
<path opacity="0.3" d="M135.367 116.805C140.1 116.805 143.937 112.968 143.937 108.235C143.937 103.502 140.1 99.665 135.367 99.665C130.634 99.665 126.797 103.502 126.797 108.235C126.797 112.968 130.634 116.805 135.367 116.805Z" stroke="#7A869A" stroke-width="0.991457" stroke-miterlimit="10"/>
<path opacity="0.3" d="M135.367 113.949C138.522 113.949 141.081 111.391 141.081 108.235C141.081 105.079 138.522 102.521 135.367 102.521C132.211 102.521 129.652 105.079 129.652 108.235C129.652 111.391 132.211 113.949 135.367 113.949Z" stroke="#7A869A" stroke-width="0.991457" stroke-miterlimit="10"/>
<path opacity="0.3" d="M135.367 111.091C136.945 111.091 138.223 109.813 138.223 108.236C138.223 106.658 136.945 105.38 135.367 105.38C133.79 105.38 132.512 106.658 132.512 108.236C132.512 109.813 133.79 111.091 135.367 111.091Z" stroke="#7A869A" stroke-width="0.991457" stroke-miterlimit="10"/>
</g>
<g opacity="0.3">
<path opacity="0.3" d="M135.367 108.235V119.661" stroke="#7A869A" stroke-width="0.991457" stroke-miterlimit="10"/>
<path opacity="0.3" d="M135.367 108.235L145.265 113.95" stroke="#7A869A" stroke-width="0.991457" stroke-miterlimit="10"/>
<path opacity="0.3" d="M135.367 108.236L145.265 102.521" stroke="#7A869A" stroke-width="0.991457" stroke-miterlimit="10"/>
<path opacity="0.3" d="M135.367 108.235V96.8096" stroke="#7A869A" stroke-width="0.991457" stroke-miterlimit="10"/>
<path opacity="0.3" d="M135.367 108.236L125.473 102.521" stroke="#7A869A" stroke-width="0.991457" stroke-miterlimit="10"/>
<path opacity="0.3" d="M135.367 108.235L125.473 113.95" stroke="#7A869A" stroke-width="0.991457" stroke-miterlimit="10"/>
</g>
</g>
<path d="M135.367 108.234H146.793C146.793 110.864 145.883 113.418 144.222 115.457C142.559 117.496 140.242 118.9 137.664 119.428L135.367 108.234Z" fill="#0049B0"/>
<g opacity="0.3">
<g opacity="0.3">
<path opacity="0.3" d="M135.367 116.805C140.1 116.805 143.937 112.968 143.937 108.235C143.937 103.502 140.1 99.665 135.367 99.665C130.634 99.665 126.797 103.502 126.797 108.235C126.797 112.968 130.634 116.805 135.367 116.805Z" stroke="#2684FF" stroke-width="0.991457" stroke-miterlimit="10"/>
<path opacity="0.3" d="M135.367 113.949C138.522 113.949 141.081 111.391 141.081 108.235C141.081 105.079 138.522 102.521 135.367 102.521C132.211 102.521 129.652 105.079 129.652 108.235C129.652 111.391 132.211 113.949 135.367 113.949Z" stroke="#2684FF" stroke-width="0.991457" stroke-miterlimit="10"/>
<path opacity="0.3" d="M135.367 111.091C136.945 111.091 138.223 109.813 138.223 108.236C138.223 106.658 136.945 105.38 135.367 105.38C133.79 105.38 132.512 106.658 132.512 108.236C132.512 109.813 133.79 111.091 135.367 111.091Z" stroke="#2684FF" stroke-width="0.991457" stroke-miterlimit="10"/>
</g>
<g opacity="0.3">
<path opacity="0.3" d="M135.367 108.235V119.661" stroke="#2684FF" stroke-width="0.991457" stroke-miterlimit="10"/>
<path opacity="0.3" d="M135.367 108.235L145.265 113.95" stroke="#2684FF" stroke-width="0.991457" stroke-miterlimit="10"/>
<path opacity="0.3" d="M135.367 108.236L145.265 102.521" stroke="#2684FF" stroke-width="0.991457" stroke-miterlimit="10"/>
<path opacity="0.3" d="M135.367 108.235V96.8096" stroke="#2684FF" stroke-width="0.991457" stroke-miterlimit="10"/>
<path opacity="0.3" d="M135.367 108.236L125.473 102.521" stroke="#2684FF" stroke-width="0.991457" stroke-miterlimit="10"/>
<path opacity="0.3" d="M135.367 108.235L125.473 113.95" stroke="#2684FF" stroke-width="0.991457" stroke-miterlimit="10"/>
</g>
</g>
<path d="M142.801 112.988C143.133 112.988 143.402 112.719 143.402 112.387C143.402 112.055 143.133 111.785 142.801 111.785C142.469 111.785 142.199 112.055 142.199 112.387C142.199 112.719 142.469 112.988 142.801 112.988Z" fill="#2684FF"/>
<path d="M131.393 101.309C131.725 101.309 131.994 101.039 131.994 100.707C131.994 100.375 131.725 100.105 131.393 100.105C131.06 100.105 130.791 100.375 130.791 100.707C130.791 101.039 131.06 101.309 131.393 101.309Z" fill="#0052CC"/>
<path d="M137.709 114.129C138.041 114.129 138.311 113.86 138.311 113.527C138.311 113.195 138.041 112.926 137.709 112.926C137.377 112.926 137.107 113.195 137.107 113.527C137.107 113.86 137.377 114.129 137.709 114.129Z" fill="#2684FF"/>
<path d="M127.967 112.988C128.299 112.988 128.569 112.719 128.569 112.387C128.569 112.055 128.299 111.785 127.967 111.785C127.635 111.785 127.365 112.055 127.365 112.387C127.365 112.719 127.635 112.988 127.967 112.988Z" fill="#0052CC"/>
<path d="M125.33 37.9902H114.43C109.552 37.9902 105.598 41.9447 105.598 46.8227C105.598 51.7008 109.552 55.6552 114.43 55.6552H114.939C117.331 55.6552 119.464 57.2314 120.091 59.5391C120.096 59.5588 120.102 59.5758 120.105 59.5956C120.11 59.621 120.147 59.621 120.156 59.5956C120.161 59.5758 120.164 59.5588 120.17 59.5391C120.794 57.2314 122.929 55.6552 125.322 55.6552H125.33C130.208 55.6552 134.163 51.7008 134.163 46.8227C134.16 41.9447 130.208 37.9902 125.33 37.9902Z" fill="#0065FF"/>
<path d="M120.133 59.6152H118.498L118.504 55.8867H120.133V59.6152Z" fill="#0065FF"/>
<path d="M123.695 37.9902H112.797C107.919 37.9902 103.965 41.9447 103.965 46.8227C103.965 51.7008 107.919 55.6552 112.797 55.6552H113.306C115.698 55.6552 117.831 57.2314 118.458 59.5391C118.463 59.5588 118.469 59.5758 118.472 59.5956C118.478 59.621 118.514 59.621 118.523 59.5956C118.528 59.5758 118.531 59.5588 118.537 59.5391C119.161 57.2314 121.297 55.6552 123.689 55.6552H123.697C128.576 55.6552 132.53 51.7008 132.53 46.8227C132.527 41.9447 128.573 37.9902 123.695 37.9902Z" fill="url(#paint20_linear)"/>
<path d="M111.9 44.6787H124.591" stroke="#0065FF" stroke-width="1.85514" stroke-miterlimit="10"/>
<path d="M111.9 47.2607H124.591" stroke="#0065FF" stroke-width="1.85514" stroke-miterlimit="10"/>
<path d="M111.9 49.8418H120.795" stroke="#0065FF" stroke-width="1.85514" stroke-miterlimit="10"/>
<path d="M9.47461 59.0753L9.47461 93.2529H43.6522V59.0753H9.47461Z" fill="#EBECF0" stroke="#EBECF0" stroke-width="1.22857" stroke-miterlimit="10"/>
<path d="M1 59.0753L1 93.2529H35.1776V59.0753H1Z" fill="#F4F5F7" stroke="#DFE1E5" stroke-width="1.22857" stroke-miterlimit="10"/>
<path d="M4.6716 90.4282C5.13959 90.4282 5.51898 90.0488 5.51898 89.5808C5.51898 89.1128 5.13959 88.7334 4.6716 88.7334C4.2036 88.7334 3.82422 89.1128 3.82422 89.5808C3.82422 90.0488 4.2036 90.4282 4.6716 90.4282Z" fill="#DFE1E5"/>
<path d="M4.6716 63.5942C5.13959 63.5942 5.51898 63.2148 5.51898 62.7468C5.51898 62.2788 5.13959 61.8994 4.6716 61.8994C4.2036 61.8994 3.82422 62.2788 3.82422 62.7468C3.82422 63.2148 4.2036 63.5942 4.6716 63.5942Z" fill="#DFE1E5"/>
<path d="M31.5056 90.4282C31.9736 90.4282 32.353 90.0488 32.353 89.5808C32.353 89.1128 31.9736 88.7334 31.5056 88.7334C31.0376 88.7334 30.6582 89.1128 30.6582 89.5808C30.6582 90.0488 31.0376 90.4282 31.5056 90.4282Z" fill="#DFE1E5"/>
<path d="M31.5056 63.5942C31.9736 63.5942 32.353 63.2148 32.353 62.7468C32.353 62.2788 31.9736 61.8994 31.5056 61.8994C31.0376 61.8994 30.6582 62.2788 30.6582 62.7468C30.6582 63.2148 31.0376 63.5942 31.5056 63.5942Z" fill="#DFE1E5"/>
<path d="M23.1933 65.9109V86.4146H12.8072V65.9109H23.1933ZM23.8599 65.2471H23.1933H12.8072H12.1406V65.9137V86.4174V87.084H12.8072H23.1933H23.8599V86.4174V65.9137V65.2471Z" fill="#0065FF"/>
<path d="M23.1927 65.9111H12.8066V75.6334H23.1927V65.9111Z" fill="#2684FF"/>
<path d="M20.5325 83.3581H10.1465L12.8073 75.6328H23.1933L20.5325 83.3581Z" fill="#2684FF"/>
<path d="M20.5332 83.3581L23.194 86.4171V75.6328L20.5332 83.3581Z" fill="#4C9AFF"/>
<path d="M12.8073 86.4174L10.1465 83.3584H20.5325L23.1933 86.4174H12.8073Z" fill="#B2D4FF"/>
<path d="M18.002 69.2217V72.3259" stroke="#B2D4FF" stroke-width="1.00251" stroke-miterlimit="10" stroke-linecap="round"/>
<path d="M17.3896 80.3403C18.0392 79.7894 18.2444 78.9637 17.8478 78.4962C17.4513 78.0286 16.6032 78.0961 15.9536 78.647C15.304 79.1979 15.0988 80.0236 15.4953 80.4912C15.8919 80.9588 16.74 80.8912 17.3896 80.3403Z" stroke="#B2D4FF" stroke-width="1.02242" stroke-miterlimit="10" stroke-linecap="round"/>
<path d="M12.8066 75.6328H23.1927" stroke="#4C9AFF" stroke-width="0.482398" stroke-miterlimit="10"/>
<path d="M38.3816 87.4792C38.359 87.6458 38.3816 87.8153 38.4465 87.9707C38.5539 88.2277 38.8956 89.0271 39.1583 88.9706C39.2826 88.9423 39.3391 88.7248 39.3504 88.6175C39.3702 88.4028 39.1047 88.2757 39.0792 88.0469C39.0792 87.9933 39.0792 87.9679 39.0595 87.9085C39.0369 87.7701 39.0256 87.6995 38.9945 87.691C38.9634 87.6826 38.8759 87.8294 38.7798 87.8266C38.616 87.8266 38.5397 87.3125 38.4494 87.321C38.407 87.3097 38.3872 87.4368 38.3816 87.4792Z" fill="#FFBDAD"/>
<path d="M39.9043 89.0748C39.6925 89.2753 39.1586 89.168 38.8988 88.8516C38.7491 88.6511 38.6869 88.3969 38.7265 88.1483C38.7604 87.8884 38.8734 87.863 38.9609 87.5947C39.1445 87.0241 38.8705 86.5383 39.0061 86.4733C39.04 86.4592 39.0993 86.4733 39.2236 86.5806C39.2462 86.5524 39.2829 86.5326 39.3197 86.5326C39.4044 86.5326 39.4581 86.6908 39.4806 86.7614C39.6417 87.1908 39.7744 87.6314 39.8789 88.0777C39.9778 88.6793 40.0088 88.9787 39.9043 89.0748Z" fill="#FFBDAD"/>
<path d="M39.8619 87.2584C39.9099 87.4448 39.9212 87.6397 39.8986 87.829C39.8986 88.5266 39.989 88.9701 39.9353 88.9701C39.8817 88.9701 39.8562 88.8317 39.828 88.7554C39.6133 88.1284 39.28 86.8008 39.4749 86.7387C39.5738 86.7076 39.7771 86.9929 39.8619 87.2584Z" fill="#FFBDAD"/>
<path d="M42.0733 125.277L44.9289 124.67L44.5391 122.862L43.6635 123.294C43.6635 123.614 43.5421 123.922 43.3246 124.15C42.963 124.498 42.4687 124.396 42.2088 124.783C42.11 124.93 42.0648 125.102 42.0733 125.277Z" fill="#172B4D"/>
<path d="M44.9787 124.452L42.0234 125.085L42.0654 125.281L45.0207 124.648L44.9787 124.452Z" fill="#8993A4"/>
<path d="M29.7871 125.044H33.0213V122.99L31.9677 123.035C31.8604 123.713 31.6033 123.99 31.3971 124.114C30.9424 124.4 30.4113 124.168 30.0357 124.544C29.9029 124.679 29.8154 124.854 29.7871 125.044Z" fill="#172B4D"/>
<path d="M33.0831 124.822H29.7246V125.043H33.0831V124.822Z" fill="#8993A4"/>
<path d="M35.7686 98.9949C36.0285 98.7972 36.2205 98.5232 36.325 98.2154C36.616 97.3426 36.1443 96.3963 35.2686 96.1054C34.7743 95.9416 34.232 96.0178 33.8027 96.3088C33.5117 96.1873 33.1784 96.3285 33.057 96.6195C32.9694 96.8285 33.0174 97.0714 33.1756 97.2352C33.1756 97.2889 33.1841 97.3426 33.201 97.3991C33.3479 97.9837 33.7066 98.4922 34.2094 98.8283L35.7686 98.9949Z" fill="#253858"/>
<path d="M34.609 100.763C35.2304 100.977 35.9196 100.856 36.4309 100.444C36.0241 99.9465 35.7812 99.3336 35.736 98.6924L34.2051 98.9522L34.609 100.763Z" fill="#FFBDAD"/>
<path d="M33.1755 97.2346C33.1811 97.4351 33.1726 97.6357 33.15 97.8334C33.1331 97.969 33.1161 98.065 33.1105 98.0904C33.0653 98.322 32.9975 98.5508 32.9043 98.7683L33.2376 98.8192L33.5511 99.8643C34.0002 99.9603 34.4635 99.9659 34.9154 99.8812C35.2996 99.8078 35.6865 99.7315 35.856 99.4349C35.904 99.3304 35.9407 99.2203 35.9605 99.1073C35.9775 99.0395 36.0001 98.9717 36.0255 98.9039C36.0537 98.822 36.0961 98.7034 36.1582 98.5621C36.0283 98.6384 35.8842 98.6836 35.7317 98.6949C35.5877 98.7231 35.438 98.6949 35.3137 98.613C35.1442 98.4548 35.2657 98.1752 35.1131 98.1017C35.0453 98.0735 34.9663 98.0819 34.9069 98.1271C34.7403 98.2514 34.8194 98.6666 34.8194 98.6666H34.52C34.5002 98.4802 34.4352 98.2994 34.3307 98.1441C34.1669 97.904 34.0228 97.9068 33.9014 97.6696C33.7827 97.4323 33.8618 97.3024 33.746 97.2035C33.6359 97.1046 33.5201 97.099 33.1755 97.2346Z" fill="#FFBDAD"/>
<path d="M39.3444 105.333C39.6297 105.853 39.8839 106.404 40.1381 106.988C41.0759 109.149 41.7058 111.431 42.0052 113.767C42.3413 114.544 42.6718 115.374 42.9825 116.256C43.6576 118.179 44.4541 121.283 44.8044 123.289L43.2706 123.639L40.0506 114.541C39.8952 114.216 39.6721 113.731 39.3981 113.14C37.4181 108.855 37.226 108.093 37.4548 107.319C37.596 106.867 37.983 106.065 39.3444 105.333Z" fill="url(#paint21_linear)"/>
<path d="M25.1372 92.9164C25.2897 92.9559 25.4281 93.035 25.5383 93.148C25.7191 93.3344 26.2924 93.9107 26.1484 94.1197C26.0806 94.2185 25.8744 94.1875 25.7755 94.1592C25.5835 94.0943 25.5665 93.8259 25.3632 93.7214C25.318 93.7073 25.2982 93.6847 25.253 93.6564C25.14 93.5858 25.0863 93.5519 25.0892 93.5237C25.092 93.4954 25.253 93.47 25.2812 93.3881C25.3293 93.244 24.9197 92.9983 24.9621 92.922C24.979 92.8938 25.0976 92.9079 25.1372 92.9164Z" fill="#FFBDAD"/>
<path d="M25.9503 94.9298C26.2159 94.8112 26.3204 94.2745 26.1283 93.9158C25.9984 93.7011 25.7865 93.5458 25.5408 93.4893C25.2866 93.4243 25.2301 93.5204 24.9363 93.495C24.3488 93.4526 23.9929 93.0091 23.8799 93.1108C23.8545 93.1362 23.8517 93.2012 23.8997 93.3509C23.863 93.3622 23.8347 93.3876 23.8206 93.4215C23.7924 93.5034 23.9138 93.6079 23.9703 93.6588C24.3064 93.9723 24.6623 94.2604 25.038 94.5259C25.5577 94.8366 25.8204 94.992 25.9503 94.9298Z" fill="#FFBDAD"/>
<path d="M35.4608 106.218C34.4186 108.729 33.5345 111.305 32.8198 113.929C32.077 116.649 31.7945 120.547 31.416 123.343H33.1842C33.4384 122.219 33.7322 121.058 34.0598 119.858C34.5146 118.219 34.7208 115.542 35.2236 114.093C37.7064 111.703 39.3644 109.675 39.8474 108.667C40.0339 108.28 40.3615 107.605 40.1327 106.952C40.0988 106.848 40.0028 106.667 39.822 106.271C39.6384 105.876 39.4746 105.56 39.3644 105.348C38.1103 105.825 36.7912 106.107 35.4524 106.181L35.4608 106.218Z" fill="#344563"/>
<path d="M31.804 102.707C32.4903 102.822 33.1908 102.839 33.8829 102.763C34.0439 103.512 34.2388 104.314 34.5269 105.17C34.7302 105.794 34.9421 106.379 35.1596 106.918C36.8911 107.299 38.696 106.797 39.9812 105.576C39.5857 104.797 39.2298 103.997 38.9191 103.184C38.6592 102.506 38.4446 101.859 38.2666 101.246C38.8909 100.526 39.4304 99.7408 39.8766 98.8991C40.6365 97.4529 41.1082 95.8711 41.2692 94.247C41.1082 93.0917 41.1873 93.0041 40.9246 91.7303C40.6901 90.5919 40.4416 89.5129 40.1563 88.4961L38.84 89.2107C38.8965 89.8265 38.9671 90.4592 39.049 91.1004C39.2213 92.4534 39.2213 92.4534 39.3767 93.8402C39.323 94.8204 39.0829 95.7835 38.6677 96.6733C38.2525 97.6252 37.6226 98.4669 36.8289 99.1363C35.8177 99.9527 34.5862 100.45 33.2897 100.566L33.2727 100.58L29.7109 100.402C29.6262 100.396 29.1714 100.376 29.0895 100.337C28.9652 100.275 28.8636 100.119 28.8127 99.995C28.7788 99.9131 28.7477 99.8284 28.7138 99.7465L26.5841 94.0012L25.4062 94.9446L27.5388 101.481C27.5388 101.481 27.7478 101.865 27.9145 101.907C28.6009 102.08 30.4707 102.537 31.804 102.707Z" fill="url(#paint22_linear)"/>
<path d="M62.4216 122.498C62.8896 122.498 63.269 122.119 63.269 121.651C63.269 121.183 62.8896 120.804 62.4216 120.804C61.9536 120.804 61.5742 121.183 61.5742 121.651C61.5742 122.119 61.9536 122.498 62.4216 122.498Z" fill="#DFE1E5"/>
<path d="M62.4216 70.4106C62.8896 70.4106 63.269 70.0312 63.269 69.5632C63.269 69.0952 62.8896 68.7158 62.4216 68.7158C61.9536 68.7158 61.5742 69.0952 61.5742 69.5632C61.5742 70.0312 61.9536 70.4106 62.4216 70.4106Z" fill="#DFE1E5"/>
<path d="M114.509 70.4106C114.977 70.4106 115.357 70.0312 115.357 69.5632C115.357 69.0952 114.977 68.7158 114.509 68.7158C114.041 68.7158 113.662 69.0952 113.662 69.5632C113.662 70.0312 114.041 70.4106 114.509 70.4106Z" fill="#DFE1E5"/>
<path d="M114.509 122.498C114.977 122.498 115.357 122.119 115.357 121.651C115.357 121.183 114.977 120.804 114.509 120.804C114.041 120.804 113.662 121.183 113.662 121.651C113.662 122.119 114.041 122.498 114.509 122.498Z" fill="#DFE1E5"/>
<path d="M84.7946 129.842C85.2626 129.842 85.642 129.463 85.642 128.995C85.642 128.527 85.2626 128.147 84.7946 128.147C84.3266 128.147 83.9473 128.527 83.9473 128.995C83.9473 129.463 84.3266 129.842 84.7946 129.842Z" fill="#DFE1E5"/>
<path d="M23.7966 129.842C24.2646 129.842 24.644 129.463 24.644 128.995C24.644 128.527 24.2646 128.147 23.7966 128.147C23.3286 128.147 22.9492 128.527 22.9492 128.995C22.9492 129.463 23.3286 129.842 23.7966 129.842Z" fill="#DFE1E5"/>
<path d="M92.1384 129.842C92.6064 129.842 92.9858 129.463 92.9858 128.995C92.9858 128.527 92.6064 128.147 92.1384 128.147C91.6704 128.147 91.291 128.527 91.291 128.995C91.291 129.463 91.6704 129.842 92.1384 129.842Z" fill="#DFE1E5"/>
<path d="M153.15 129.842C153.618 129.842 153.997 129.463 153.997 128.995C153.997 128.527 153.618 128.147 153.15 128.147C152.682 128.147 152.303 128.527 152.303 128.995C152.303 129.463 152.682 129.842 153.15 129.842Z" fill="#DFE1E5"/>
<path d="M153.15 156.676C153.618 156.676 153.997 156.297 153.997 155.829C153.997 155.361 153.618 154.981 153.15 154.981C152.682 154.981 152.303 155.361 152.303 155.829C152.303 156.297 152.682 156.676 153.15 156.676Z" fill="#DFE1E5"/>
<path d="M160.494 129.842C160.962 129.842 161.341 129.463 161.341 128.995C161.341 128.527 160.962 128.147 160.494 128.147C160.026 128.147 159.646 128.527 159.646 128.995C159.646 129.463 160.026 129.842 160.494 129.842Z" fill="#DFE1E5"/>
<path d="M187.328 129.842C187.796 129.842 188.175 129.463 188.175 128.995C188.175 128.527 187.796 128.147 187.328 128.147C186.86 128.147 186.48 128.527 186.48 128.995C186.48 129.463 186.86 129.842 187.328 129.842Z" fill="#DFE1E5"/>
<path d="M160.494 156.676C160.962 156.676 161.341 156.297 161.341 155.829C161.341 155.361 160.962 154.981 160.494 154.981C160.026 154.981 159.646 155.361 159.646 155.829C159.646 156.297 160.026 156.676 160.494 156.676Z" fill="#DFE1E5"/>
<path opacity="0.65" d="M79.0152 133.201H49.3457V142.421H79.0152V133.201Z" fill="url(#paint23_linear)"/>
<path d="M49.3458 132.17C49.9682 132.17 50.4728 131.665 50.4728 131.043C50.4728 130.421 49.9682 129.916 49.3458 129.916C48.7233 129.916 48.2188 130.421 48.2188 131.043C48.2188 131.665 48.7233 132.17 49.3458 132.17Z" fill="#42526E"/>
<path d="M49.3457 131.888V152.067" stroke="#42526E" stroke-width="1.20818" stroke-miterlimit="10"/>
<path d="M17.9844 48.9716C19.0323 48.9716 19.8825 48.1214 19.8825 47.0734C19.8825 46.2571 19.3684 45.5623 18.6453 45.2939C18.2584 45.1499 17.9844 44.7996 17.9844 44.3872V42.249" stroke="#42526E" stroke-width="1.22857" stroke-miterlimit="10" stroke-linecap="round"/>
<path d="M7.27148 59.075L17.9852 48.3613" stroke="#0065FF" stroke-width="1.22857" stroke-miterlimit="10" stroke-linecap="round"/>
<path d="M28.7137 59.075L18 48.3613" stroke="#0065FF" stroke-width="1.22857" stroke-miterlimit="10" stroke-linecap="round"/>
<path d="M17.9844 44.3055V20.5225" stroke="url(#paint24_linear)" stroke-width="1.22857" stroke-miterlimit="10" stroke-linecap="round"/>
<path d="M17.9841 48.9714C16.9361 48.9714 16.0859 48.1212 16.0859 47.0732" stroke="#42526E" stroke-width="1.22857" stroke-miterlimit="10" stroke-linecap="round"/>
<path d="M17.9855 44.8111C17.494 44.8111 17.0957 44.4128 17.0957 43.9214V42.461C17.0957 41.9696 17.494 41.5713 17.9855 41.5713C18.4769 41.5713 18.8752 41.9696 18.8752 42.461V43.9214C18.8752 44.4128 18.4769 44.8111 17.9855 44.8111Z" fill="#8993A4"/>
<path d="M165.392 115.233H165.384C164.525 115.233 163.836 117.538 163.836 120.388C163.836 123.241 164.528 125.543 165.384 125.543H165.392L175.276 122.238V118.535L165.392 115.233Z" fill="url(#paint25_linear)"/>
<path d="M188.077 115.233H188.085C188.944 115.233 189.633 117.538 189.633 120.388C189.633 123.241 188.941 125.543 188.085 125.543H188.077L178.193 122.238V118.535L188.077 115.233Z" fill="url(#paint26_linear)"/>
<path d="M172.598 123.49L173.185 118.49C173.267 117.804 173.849 117.287 174.541 117.287H178.933C179.625 117.287 180.207 117.804 180.289 118.49L180.877 123.49H172.598Z" fill="#FF7452"/>
<path d="M172.781 123.49L173.355 118.623C173.428 117.951 173.999 117.445 174.674 117.448H176.239C176.914 117.445 177.484 117.951 177.558 118.623L178.131 123.49H172.781Z" fill="url(#paint27_linear)"/>
<path opacity="0.6" d="M175.194 122.748C175.954 122.748 176.57 121.864 176.57 120.773C176.57 119.683 175.954 118.799 175.194 118.799C174.434 118.799 173.818 119.683 173.818 120.773C173.818 121.864 174.434 122.748 175.194 122.748Z" fill="#FF8F73"/>
<path opacity="0.6" d="M180.768 122.586C180.613 122.688 180.429 122.745 180.243 122.747C179.486 122.747 178.867 121.863 178.867 120.77C178.867 119.677 179.483 118.793 180.243 118.793H180.325L180.768 122.586Z" fill="#FF8F73"/>
<path d="M181.93 125.034H171.535V124.054C171.535 123.743 171.789 123.489 172.1 123.489H181.365C181.675 123.489 181.93 123.743 181.93 124.054V125.034Z" fill="url(#paint28_linear)"/>
<defs>
<linearGradient id="paint0_linear" x1="29.5882" y1="147.094" x2="49.3456" y2="147.094" gradientUnits="userSpaceOnUse">
<stop offset="0.0693" stop-color="#57D9A3"/>
<stop offset="0.2483" stop-color="#5CDBA6"/>
<stop offset="0.4724" stop-color="#6CE0AE"/>
<stop offset="0.7205" stop-color="#85E8BC"/>
<stop offset="0.9844" stop-color="#A9F4D0"/>
<stop offset="1" stop-color="#ABF5D1"/>
</linearGradient>
<radialGradient id="paint1_radial" cx="0" cy="0" r="1" gradientUnits="userSpaceOnUse" gradientTransform="translate(88.4655 95.7341) scale(26.2449)">
<stop offset="0.348958" stop-color="#57D9A3"/>
<stop offset="0.901042" stop-color="#57D9A3" stop-opacity="0"/>
</radialGradient>
<linearGradient id="paint2_linear" x1="96.9984" y1="131.194" x2="119.69" y2="153.886" gradientUnits="userSpaceOnUse">
<stop stop-color="#172B4D"/>
<stop offset="0.0443" stop-color="#1D3152"/>
<stop offset="0.2239" stop-color="#324361"/>
<stop offset="0.4023" stop-color="#3E4E6B"/>
<stop offset="0.5767" stop-color="#42526E"/>
<stop offset="1" stop-color="#172B4D"/>
</linearGradient>
<linearGradient id="paint3_linear" x1="96.9983" y1="140.838" x2="119.69" y2="140.838" gradientUnits="userSpaceOnUse">
<stop stop-color="#57D9A3" stop-opacity="0"/>
<stop offset="0.0913" stop-color="#57D9A3" stop-opacity="0.1464"/>
<stop offset="0.6239" stop-color="#57D9A3"/>
<stop offset="1" stop-color="#57D9A3" stop-opacity="0"/>
</linearGradient>
<linearGradient id="paint4_linear" x1="130.555" y1="171.948" x2="130.555" y2="142.494" gradientUnits="userSpaceOnUse">
<stop stop-color="#EBECF0"/>
<stop offset="0.00577305" stop-color="#EDEEF2"/>
<stop offset="0.0501" stop-color="#FBFBFC"/>
<stop offset="0.0904" stop-color="white"/>
<stop offset="0.1851" stop-color="#F6F6F8"/>
<stop offset="0.2581" stop-color="#EBECF0"/>
<stop offset="0.2853" stop-color="#EBECF0"/>
<stop offset="0.5647" stop-color="#EBECF0"/>
<stop offset="0.7413" stop-color="#EEEFF2"/>
<stop offset="0.8592" stop-color="#F7F8F9"/>
<stop offset="0.8872" stop-color="#FAFBFC"/>
<stop offset="0.982" stop-color="#EEEFF2"/>
<stop offset="1" stop-color="#EBECF0"/>
</linearGradient>
<linearGradient id="paint5_linear" x1="85.4194" y1="151.285" x2="85.4194" y2="150.491" gradientUnits="userSpaceOnUse">
<stop stop-color="#F1DBCB"/>
<stop offset="1" stop-color="#EFC7B0"/>
</linearGradient>
<linearGradient id="paint6_linear" x1="87.2889" y1="149.233" x2="84.4301" y2="149.233" gradientUnits="userSpaceOnUse">
<stop offset="0.7698" stop-color="#F1DBCB"/>
<stop offset="1" stop-color="#EFC7B0"/>
</linearGradient>
<linearGradient id="paint7_linear" x1="93.3319" y1="157.431" x2="92.4793" y2="156.256" gradientUnits="userSpaceOnUse">
<stop offset="0.3771" stop-color="#F1DBCB"/>
<stop offset="1" stop-color="#EFC7B0"/>
</linearGradient>
<linearGradient id="paint8_linear" x1="83.8313" y1="159.926" x2="81.8538" y2="159.926" gradientUnits="userSpaceOnUse">
<stop offset="0.3771" stop-color="#F1DBCB"/>
<stop offset="1" stop-color="#EFC7B0"/>
</linearGradient>
<linearGradient id="paint9_linear" x1="180.144" y1="140.507" x2="163.828" y2="148.115" gradientUnits="userSpaceOnUse">
<stop stop-color="#FFD740"/>
<stop offset="1" stop-color="#FFAB00"/>
</linearGradient>
<linearGradient id="paint10_linear" x1="162.466" y1="162.324" x2="169.192" y2="155.599" gradientUnits="userSpaceOnUse">
<stop offset="0.1356" stop-color="#FF991F"/>
<stop offset="0.8496" stop-color="#FFC400"/>
</linearGradient>
<linearGradient id="paint11_linear" x1="161.622" y1="163.539" x2="170.254" y2="163.539" gradientUnits="userSpaceOnUse">
<stop offset="0.3864" stop-color="#FF991F"/>
<stop offset="1" stop-color="#FFC400"/>
</linearGradient>
<linearGradient id="paint12_linear" x1="208.21" y1="163.736" x2="214.936" y2="157.011" gradientUnits="userSpaceOnUse">
<stop offset="0.1356" stop-color="#FF991F"/>
<stop offset="0.8496" stop-color="#FFC400"/>
</linearGradient>
<linearGradient id="paint13_linear" x1="207.367" y1="164.952" x2="215.999" y2="164.952" gradientUnits="userSpaceOnUse">
<stop offset="0.3864" stop-color="#FF991F"/>
<stop offset="1" stop-color="#FFC400"/>
</linearGradient>
<linearGradient id="paint14_linear" x1="187.028" y1="161.293" x2="179.213" y2="161.293" gradientUnits="userSpaceOnUse">
<stop stop-color="#172B4D"/>
<stop offset="1" stop-color="#344563"/>
</linearGradient>
<linearGradient id="paint15_linear" x1="188.72" y1="154.967" x2="183.485" y2="155.457" gradientUnits="userSpaceOnUse">
<stop stop-color="#57D9A3"/>
<stop offset="0.1268" stop-color="#4ACA94"/>
<stop offset="0.2998" stop-color="#3EBD87"/>
<stop offset="0.5258" stop-color="#38B580"/>
<stop offset="1" stop-color="#36B37E"/>
</linearGradient>
<linearGradient id="paint16_linear" x1="188.466" y1="150.632" x2="186.004" y2="149.507" gradientUnits="userSpaceOnUse">
<stop stop-color="#72594B"/>
<stop offset="0.5558" stop-color="#8C715D"/>
</linearGradient>
<linearGradient id="paint17_linear" x1="183.064" y1="158.679" x2="186.953" y2="150.166" gradientUnits="userSpaceOnUse">
<stop stop-color="#36B37E"/>
<stop offset="0.7681" stop-color="#57D9A3"/>
</linearGradient>
<linearGradient id="paint18_linear" x1="182.911" y1="151.691" x2="182.419" y2="154.481" gradientUnits="userSpaceOnUse">
<stop stop-color="#57D9A3"/>
<stop offset="1" stop-color="#36B37E"/>
</linearGradient>
<linearGradient id="paint19_linear" x1="74.6827" y1="108.986" x2="102.253" y2="82.4755" gradientUnits="userSpaceOnUse">
<stop offset="0.2367" stop-color="#36B37E"/>
<stop offset="0.5139" stop-color="#54CF9B"/>
<stop offset="0.82" stop-color="#6FE9B6"/>
<stop offset="1" stop-color="#79F2C0"/>
</linearGradient>
<linearGradient id="paint20_linear" x1="109.276" y1="55.7929" x2="127.216" y2="37.8533" gradientUnits="userSpaceOnUse">
<stop offset="0.0244" stop-color="#0065FF"/>
<stop offset="0.2492" stop-color="#1F7BFF"/>
<stop offset="0.4838" stop-color="#388CFF"/>
<stop offset="0.6983" stop-color="#4796FF"/>
<stop offset="0.8727" stop-color="#4C9AFF"/>
</linearGradient>
<linearGradient id="paint21_linear" x1="37.3832" y1="114.484" x2="44.8052" y2="114.484" gradientUnits="userSpaceOnUse">
<stop stop-color="#172B4D"/>
<stop offset="1" stop-color="#344563"/>
</linearGradient>
<linearGradient id="paint22_linear" x1="25.4118" y1="97.7703" x2="41.2735" y2="97.7703" gradientUnits="userSpaceOnUse">
<stop stop-color="#36B37E"/>
<stop offset="0.7681" stop-color="#57D9A3"/>
</linearGradient>
<linearGradient id="paint23_linear" x1="49.3454" y1="137.811" x2="79.0162" y2="137.811" gradientUnits="userSpaceOnUse">
<stop offset="0.2026" stop-color="#FFAB00"/>
<stop offset="0.3218" stop-color="#FFAD05"/>
<stop offset="0.471" stop-color="#FFB415"/>
<stop offset="0.6362" stop-color="#FFBF2E"/>
<stop offset="0.813" stop-color="#FFCF52"/>
<stop offset="0.9972" stop-color="#FFE37F"/>
<stop offset="1" stop-color="#FFE380"/>
</linearGradient>
<linearGradient id="paint24_linear" x1="-nan" y1="-nan" x2="-nan" y2="-nan" gradientUnits="userSpaceOnUse">
<stop stop-color="#0065FF"/>
<stop offset="0.9996" stop-color="#0065FF" stop-opacity="0"/>
</linearGradient>
<linearGradient id="paint25_linear" x1="163.838" y1="120.389" x2="175.276" y2="120.389" gradientUnits="userSpaceOnUse">
<stop offset="0.06" stop-color="#FFEBE5" stop-opacity="0"/>
<stop offset="0.81" stop-color="#FF8F73" stop-opacity="0.3"/>
</linearGradient>
<linearGradient id="paint26_linear" x1="189.632" y1="120.389" x2="178.194" y2="120.389" gradientUnits="userSpaceOnUse">
<stop offset="0.06" stop-color="#FFEBE5" stop-opacity="0"/>
<stop offset="0.81" stop-color="#FF8F73" stop-opacity="0.3"/>
</linearGradient>
<linearGradient id="paint27_linear" x1="172.943" y1="118.626" x2="177.97" y2="123.653" gradientUnits="userSpaceOnUse">
<stop stop-color="#FF8F73"/>
<stop offset="1" stop-color="#FF5630"/>
</linearGradient>
<linearGradient id="paint28_linear" x1="178.354" y1="121.663" x2="175.189" y2="127.144" gradientUnits="userSpaceOnUse">
<stop stop-color="#DFE1E5"/>
<stop offset="1" stop-color="#B3BAC5"/>
</linearGradient>
</defs>
</svg>
