<svg width="155" height="178" viewBox="0 0 155 178" fill="none" xmlns="http://www.w3.org/2000/svg">
<path opacity="0.1" d="M71.3843 123.942H23.7227L36.8251 80.5674H58.2819L71.3843 123.942Z" fill="white"/>
<path d="M47.5536 87.8042C53.8741 87.8042 58.9978 82.702 58.9978 76.408C58.9978 70.114 53.8741 65.0117 47.5536 65.0117C41.2331 65.0117 36.1094 70.114 36.1094 76.408C36.1094 82.702 41.2331 87.8042 47.5536 87.8042Z" fill="#4C9AFF"/>
<path d="M47.5528 13.1558C51.201 13.1558 54.1584 10.2108 54.1584 6.57789C54.1584 2.94502 51.201 0 47.5528 0C43.9047 0 40.9473 2.94502 40.9473 6.57789C40.9473 10.2108 43.9047 13.1558 47.5528 13.1558Z" fill="#4C9AFF"/>
<path d="M55.1185 13.2908V6.97461H40.1132V13.2908C40.1132 14.1795 39.7593 15.0319 39.1291 15.6611C38.499 16.2904 37.6439 16.6451 36.7515 16.6474H36.6247C35.7322 16.6474 34.8762 16.9998 34.2444 17.6274C33.6125 18.2549 33.2563 19.1064 33.2539 19.995V78.8622H61.8509V19.995C61.8509 19.1072 61.4967 18.2557 60.8663 17.6279C60.2358 17.0001 59.3808 16.6474 58.4892 16.6474C58.0466 16.6474 57.6082 16.5606 57.1993 16.3919C56.7903 16.2233 56.4187 15.976 56.1057 15.6643C55.7927 15.3526 55.5444 14.9826 55.375 14.5753C55.2056 14.1681 55.1185 13.7316 55.1185 13.2908Z" fill="url(#paint0_linear)"/>
<path d="M36.752 16.6474H58.4987C57.6047 16.6474 56.7474 16.2938 56.1152 15.6643C55.4831 15.0348 55.128 14.1811 55.128 13.2908V6.97461H40.1136V13.2908C40.1136 14.1795 39.7598 15.0319 39.1296 15.6611C38.4994 16.2904 37.6444 16.6451 36.752 16.6474Z" fill="url(#paint1_linear)"/>
<path d="M61.851 71.6621H33.3809V73.4667H61.851V71.6621Z" fill="#344563"/>
<path d="M61.851 66.2305H33.3809V68.0351H61.851V66.2305Z" fill="#344563"/>
<path d="M60.1384 3.57324H35.0934C34.1476 3.57324 33.3809 4.33677 33.3809 5.27862C33.3809 6.22048 34.1476 6.984 35.0934 6.984H60.1384C61.0843 6.984 61.851 6.22048 61.851 5.27862C61.851 4.33677 61.0843 3.57324 60.1384 3.57324Z" fill="#DFE1E5"/>
<path d="M17.6055 123.942H77.4997C77.4997 124.951 77.2995 125.951 76.9106 126.882C76.5217 127.814 75.9519 128.66 75.2337 129.372C74.5155 130.084 73.6631 130.647 72.7256 131.03C71.788 131.413 70.7838 131.608 69.7705 131.603H25.2984C23.2581 131.603 21.3014 130.796 19.8587 129.359C18.416 127.923 17.6055 125.974 17.6055 123.942Z" fill="#C1C7D0"/>
<path d="M7.69291 170.339H147.307C149.347 170.339 151.304 171.146 152.747 172.583C154.189 174.019 155 175.968 155 178H0C0 175.968 0.810501 174.019 2.2532 172.583C3.6959 171.146 5.65263 170.339 7.69291 170.339Z" fill="#DFE1E5"/>
<path d="M77.5 46.6045V73.4665C87.8432 73.4665 97.7628 77.5581 105.077 84.8412C112.39 92.1243 116.499 102.002 116.499 112.302C116.499 122.602 112.39 132.48 105.077 139.763C97.7628 147.046 87.8432 151.138 77.5 151.138V178C94.9974 178 111.778 171.078 124.151 158.757C136.523 146.437 143.474 129.726 143.474 112.302C143.474 94.8781 136.523 78.1676 124.151 65.8469C111.778 53.5262 94.9974 46.6045 77.5 46.6045Z" fill="url(#paint2_linear)"/>
<path d="M61.8516 36.8145H71.4564C73.0569 36.8145 74.5918 37.4476 75.7236 38.5746C76.8553 39.7016 77.4911 41.2301 77.4911 42.8239V73.5026H61.8516V36.8145Z" fill="url(#paint3_linear)"/>
<path d="M77.5005 78.8627C82.7551 78.8627 87.0147 74.6209 87.0147 69.3884C87.0147 64.1559 82.7551 59.9141 77.5005 59.9141C72.246 59.9141 67.9863 64.1559 67.9863 69.3884C67.9863 74.6209 72.246 78.8627 77.5005 78.8627Z" fill="#344563"/>
<path d="M77.5004 52.0275C80.508 52.0275 82.9462 49.5996 82.9462 46.6046C82.9462 43.6096 80.508 41.1816 77.5004 41.1816C74.4928 41.1816 72.0547 43.6096 72.0547 46.6046C72.0547 49.5996 74.4928 52.0275 77.5004 52.0275Z" fill="#344563"/>
<path d="M77.5001 76.1919C81.2733 76.1919 84.3322 73.1459 84.3322 69.3884C84.3322 65.631 81.2733 62.585 77.5001 62.585C73.7268 62.585 70.668 65.631 70.668 69.3884C70.668 73.1459 73.7268 76.1919 77.5001 76.1919Z" fill="#DFE1E5"/>
<path d="M77.5 49.3567C79.0263 49.3567 80.2636 48.1245 80.2636 46.6046C80.2636 45.0847 79.0263 43.8525 77.5 43.8525C75.9737 43.8525 74.7363 45.0847 74.7363 46.6046C74.7363 48.1245 75.9737 49.3567 77.5 49.3567Z" fill="#DFE1E5"/>
<path d="M50.1349 131.603H44.9609V170.556H50.1349V131.603Z" fill="#DFE1E5"/>
<path d="M60.963 131.603C61.0095 133.385 60.6972 135.158 60.0444 136.819C59.3916 138.479 58.4115 139.992 57.1621 141.269C55.9126 142.546 54.419 143.561 52.7694 144.254C51.1197 144.947 49.3474 145.304 47.557 145.304C45.7666 145.304 43.9943 144.947 42.3446 144.254C40.695 143.561 39.2013 142.546 37.9519 141.269C36.7024 139.992 35.7224 138.479 35.0696 136.819C34.4168 135.158 34.1045 133.385 34.151 131.603H60.963Z" fill="#C1C7D0"/>
<path d="M61.7786 77.1572H33.4626C32.5167 77.1572 31.75 77.9207 31.75 78.8626C31.75 79.8045 32.5167 80.568 33.4626 80.568H61.7786C62.7245 80.568 63.4912 79.8045 63.4912 78.8626C63.4912 77.9207 62.7245 77.1572 61.7786 77.1572Z" fill="#DFE1E5"/>
<path d="M85.5095 122.237H9.56803C8.62221 122.237 7.85547 123.001 7.85547 123.943C7.85547 124.885 8.62221 125.648 9.56803 125.648H85.5095C86.4553 125.648 87.2221 124.885 87.2221 123.943C87.2221 123.001 86.4553 122.237 85.5095 122.237Z" fill="#DFE1E5"/>
<path d="M111.851 164.592L87.7395 140.581C87.0073 139.852 86.1379 139.273 85.181 138.878C84.224 138.483 83.1982 138.279 82.1623 138.279C81.1264 138.279 80.1006 138.483 79.1437 138.878C78.1867 139.273 77.3173 139.852 76.5852 140.581L52.4735 164.592C51.3724 165.692 50.6232 167.091 50.3203 168.615C50.0173 170.138 50.1744 171.716 50.7715 173.151C51.3687 174.585 52.3791 175.812 53.6754 176.675C54.9718 177.538 56.4958 177.999 58.0551 178H106.279C107.837 177.997 109.36 177.535 110.655 176.671C111.95 175.807 112.959 174.581 113.555 173.147C114.151 171.713 114.307 170.135 114.004 168.612C113.701 167.09 112.952 165.691 111.851 164.592Z" fill="#97A0AF"/>
<path d="M58.0917 174.418C60.3537 174.418 62.1874 172.592 62.1874 170.339C62.1874 168.087 60.3537 166.261 58.0917 166.261C55.8298 166.261 53.9961 168.087 53.9961 170.339C53.9961 172.592 55.8298 174.418 58.0917 174.418Z" fill="#344563"/>
<path d="M106.387 174.418C108.649 174.418 110.482 172.592 110.482 170.339C110.482 168.087 108.649 166.261 106.387 166.261C104.125 166.261 102.291 168.087 102.291 170.339C102.291 172.592 104.125 174.418 106.387 174.418Z" fill="#344563"/>
<path d="M82.166 150.181C84.4279 150.181 86.2616 148.355 86.2616 146.103C86.2616 143.85 84.4279 142.024 82.166 142.024C79.904 142.024 78.0703 143.85 78.0703 146.103C78.0703 148.355 79.904 150.181 82.166 150.181Z" fill="#344563"/>
<path d="M36 98C36 95.7909 37.7909 94 40 94H56C58.2091 94 60 95.7909 60 98V114C60 116.209 58.2091 118 56 118H40C37.7909 118 36 116.209 36 114V98Z" fill="#FF7452"/>
<path fill-rule="evenodd" clip-rule="evenodd" d="M47.9196 99.6087C47.8439 99.4741 47.7326 99.3629 47.598 99.2872C47.1921 99.0588 46.6779 99.2028 46.4496 99.6087L40.3017 110.538C40.2307 110.665 40.1934 110.807 40.1934 110.952C40.1934 111.418 40.5709 111.795 41.0367 111.795H53.3325C53.4773 111.795 53.6197 111.758 53.7459 111.687C54.1519 111.458 54.2958 110.944 54.0675 110.538L47.9196 99.6087ZM47.1842 102.602L51.1692 109.687H43.1992L47.1842 102.602Z" fill="#4C9AFF"/>
<path fill-rule="evenodd" clip-rule="evenodd" d="M49.7597 98.7146C49.6889 98.5887 49.5849 98.4847 49.459 98.4139C49.0794 98.2004 48.5986 98.335 48.3851 98.7146L42.6364 108.934C42.57 109.053 42.5352 109.186 42.5352 109.321C42.5352 109.757 42.8882 110.11 43.3237 110.11H54.8211C54.9565 110.11 55.0897 110.075 55.2077 110.008C55.5873 109.795 55.7219 109.314 55.5084 108.934L49.7597 98.7146ZM49.0721 101.514L52.7983 108.138H45.3459L49.0721 101.514Z" fill="white"/>
<defs>
<linearGradient id="paint0_linear" x1="24.075" y1="69.7217" x2="70.8957" y2="22.6948" gradientUnits="userSpaceOnUse">
<stop offset="0.02" stop-color="#97A0AF"/>
<stop offset="0.46" stop-color="#B3BAC5"/>
<stop offset="1" stop-color="#DFE1E5"/>
</linearGradient>
<linearGradient id="paint1_linear" x1="35.3294" y1="11.811" x2="59.9032" y2="11.811" gradientUnits="userSpaceOnUse">
<stop offset="0.32" stop-color="#A5ADBA"/>
<stop offset="0.49" stop-color="#C1C7D0"/>
<stop offset="1" stop-color="#EBECF0"/>
</linearGradient>
<linearGradient id="paint2_linear" x1="51.3495" y1="151.95" x2="130.644" y2="72.3213" gradientUnits="userSpaceOnUse">
<stop offset="0.02" stop-color="#B3BAC5"/>
<stop offset="0.82" stop-color="#DFE1E5"/>
<stop offset="1" stop-color="#F4F5F7"/>
</linearGradient>
<linearGradient id="paint3_linear" x1="56.5599" y1="68.197" x2="80.9222" y2="43.7412" gradientUnits="userSpaceOnUse">
<stop offset="0.32" stop-color="#97A0AF"/>
<stop offset="1" stop-color="#B3BAC5"/>
</linearGradient>
</defs>
</svg>
