<svg width="191" height="180" viewBox="0 0 191 180" fill="none" xmlns="http://www.w3.org/2000/svg">
<g clip-path="url(#clip0)">
<rect width="190.703" height="180" fill="white" fill-opacity="0.01"/>
<path d="M74.6677 34.7214L18.398 29.6072C17.5774 29.5318 16.9121 28.7024 16.9121 27.7531V15.7549C16.9121 14.8057 17.5774 14.1182 18.398 14.2158L74.6677 20.9667C75.3197 21.0466 75.8476 21.7917 75.8476 22.6345V33.302C75.8476 34.1448 75.3197 34.7835 74.6677 34.7214ZM125.082 39.3034L80.7267 35.2714C80.088 35.2138 79.569 34.4863 79.569 33.6525V23.0692C79.569 22.2309 80.088 21.6187 80.7267 21.6941L125.082 27.0168C125.601 27.0789 126.027 27.7398 126.027 28.4939V38.0259C126.027 38.78 125.606 39.3522 125.082 39.3034ZM74.6677 147.243L18.398 155.511C17.5774 155.631 16.9121 154.961 16.9121 154.012V35.0763C16.9121 34.1271 17.5774 33.4129 18.398 33.4839L74.6677 38.1856C75.3197 38.2388 75.8476 38.9663 75.8476 39.809V145.54C75.8476 146.387 75.3197 147.15 74.6677 147.243ZM126.027 138.336V43.8454C126.027 43.0914 125.606 42.4438 125.082 42.4038L80.7267 38.6957C80.088 38.6425 79.569 39.2768 79.569 40.1151V145.012C79.569 145.85 80.088 146.449 80.7267 146.356L125.082 139.84C125.606 139.76 126.027 139.086 126.027 138.336ZM165.726 42.9982L129.851 39.7381C129.341 39.6937 128.924 39.0461 128.924 38.3009V28.831C128.924 28.0814 129.341 27.5269 129.851 27.589L165.726 31.8915C166.151 31.9448 166.497 32.5347 166.497 33.2178V41.8361C166.497 42.5192 166.151 43.0381 165.726 42.9982ZM166.497 132.521V47.0967C166.497 46.4136 166.151 45.8325 165.726 45.7971L129.851 42.7986C129.341 42.7543 128.924 43.3264 128.924 44.0761V137.915C128.924 138.665 129.341 139.21 129.851 139.135L165.726 133.865C166.151 133.803 166.497 133.2 166.497 132.521Z" fill="url(#paint0_linear)"/>
<path d="M68.9775 93.9808C68.9775 95.9457 67.7266 97.5913 66.1742 97.6578C64.6129 97.7244 63.3398 96.1631 63.3398 94.1715C63.3398 92.1799 64.6129 90.5343 66.1742 90.4944C67.7266 90.4545 68.9775 92.0158 68.9775 93.9808Z" fill="#FFAB00"/>
<path d="M68.2001 79.1684L26.2617 79.3423L26.2665 80.4911L68.2048 80.3172L68.2001 79.1684Z" fill="#B2D4FF"/>
<path d="M55.7096 85.6817L26.25 86.1914L26.2699 87.34L55.7295 86.8302L55.7096 85.6817Z" fill="#B2D4FF"/>
<path d="M31.7416 99.0815L27.3415 99.2634C26.7471 99.29 26.2637 98.74 26.2637 98.0436V92.8185C26.2637 92.1176 26.7471 91.541 27.3415 91.5233L31.7416 91.408C32.3227 91.3946 32.7973 91.9402 32.7973 92.6277V97.7863C32.7928 98.4783 32.3227 99.0593 31.7416 99.0815Z" fill="#FFAB00"/>
<g opacity="0.5">
<path opacity="0.5" d="M71.1725 131.204L22.705 136.642C22.1017 136.708 21.6094 136.194 21.6094 135.489V109.239C21.6094 108.534 22.1017 107.935 22.705 107.899L71.1725 105.114C71.6693 105.087 72.0729 105.58 72.0729 106.218V129.953C72.0729 130.587 71.6693 131.151 71.1725 131.204Z" stroke="white" stroke-width="2.2561" stroke-linejoin="round" stroke-dasharray="12.37 12.37"/>
</g>
<path opacity="0.1" d="M160.542 75.6839L129.888 75.196C129.511 75.1915 129.209 74.7347 129.209 74.1758V53.4173C129.209 52.8584 129.515 52.4282 129.888 52.4548L160.542 54.6371C160.861 54.6593 161.123 55.094 161.123 55.6085V74.7613C161.123 75.2758 160.866 75.6883 160.542 75.6839Z" fill="#0747A6"/>
<path d="M161.184 66.0719C161.184 67.6599 160.377 68.9284 159.374 68.9063C158.367 68.8841 157.547 67.5667 157.547 65.961C157.547 64.3554 158.367 63.0912 159.374 63.1267C160.377 63.1622 161.184 64.484 161.184 66.0719Z" fill="#0052CC"/>
<path d="M134.659 52.5301L134.59 53.6724L161.151 55.2689L161.22 54.1266L134.659 52.5301Z" fill="#B2D4FF"/>
<path d="M134.649 57.9594L134.596 59.1025L153.16 59.9723L153.214 58.8292L134.649 57.9594Z" fill="#B2D4FF"/>
<path d="M138.038 68.4139L135.293 68.3518C134.925 68.3429 134.623 67.886 134.623 67.3316V63.1888C134.623 62.6343 134.925 62.1952 135.293 62.2129L138.038 62.3149C138.402 62.3283 138.699 62.7851 138.699 63.3351V67.438C138.699 67.9836 138.402 68.4227 138.038 68.4139Z" fill="#2684FF"/>
<path opacity="0.1" d="M160.621 100.292L129.812 102.146C129.435 102.169 129.129 101.734 129.129 101.179V80.421C129.129 79.8621 129.435 79.4097 129.812 79.4097L160.621 79.25C160.945 79.25 161.203 79.6625 161.203 80.177V99.3298C161.203 99.8399 160.941 100.275 160.621 100.292Z" fill="#0747A6"/>
<path d="M68.8404 74.8058L20.3729 74.0429C19.7697 74.034 19.2773 73.453 19.2773 72.7477V46.498C19.2773 45.7928 19.7697 45.2561 20.3729 45.3004L68.8404 48.7202C69.3372 48.7557 69.7409 49.3013 69.7409 49.94V73.6748C69.7409 74.3002 69.3372 74.8103 68.8404 74.8058Z" fill="url(#paint1_linear)"/>
<path d="M71.1725 70.2106L22.705 69.4477C22.1017 69.4388 21.6094 68.8578 21.6094 68.1525V41.9028C21.6094 41.1976 22.1017 40.6608 22.705 40.7052L71.1725 44.125C71.6693 44.1605 72.0729 44.7061 72.0729 45.3448V69.0796C72.0729 69.7094 71.6693 70.2195 71.1725 70.2106ZM72.0729 99.512V75.7773C72.0729 75.1385 71.6693 74.6196 71.1725 74.6152L22.705 74.3002C22.1017 74.2958 21.6094 74.8635 21.6094 75.5688V101.819C21.6094 102.524 22.1017 103.074 22.705 103.043L71.1725 100.705C71.6693 100.683 72.0729 100.146 72.0729 99.512ZM163.872 70.7429V51.5901C163.872 51.0756 163.614 50.6409 163.29 50.6187L132.636 48.4364C132.259 48.4098 131.958 48.84 131.958 49.3989V70.1574C131.958 70.7163 132.264 71.1732 132.636 71.1776L163.29 71.6655C163.61 71.6699 163.872 71.2574 163.872 70.7429ZM163.872 95.3071V76.1543C163.872 75.6398 163.61 75.2228 163.286 75.2184L132.352 75.0144C131.975 75.0099 131.665 75.4623 131.665 76.0212V96.7797C131.665 97.3386 131.971 97.7733 132.352 97.7555L163.286 96.2652C163.61 96.2519 163.872 95.8216 163.872 95.3071Z" fill="url(#paint2_linear)"/>
<path d="M161.158 90.8534C161.158 92.4413 160.342 93.7631 159.331 93.803C158.315 93.8429 157.49 92.5788 157.49 90.9776C157.49 89.3763 158.315 88.0545 159.331 88.0279C160.342 87.9969 161.158 89.2654 161.158 90.8534Z" fill="#0065FF"/>
<path d="M161.156 78.7785L134.352 78.8896L134.356 80.0385L161.16 79.9273L161.156 78.7785Z" fill="#B2D4FF"/>
<path d="M153.066 83.9962L134.334 84.3203L134.354 85.4689L153.086 85.1448L153.066 83.9962Z" fill="#B2D4FF"/>
<path d="M137.804 94.6947L135.032 94.8101C134.66 94.8234 134.354 94.3887 134.354 93.8342V89.6914C134.354 89.137 134.655 88.6801 135.032 88.6712L137.804 88.5958C138.173 88.587 138.47 89.0216 138.47 89.5717V93.6746C138.47 94.2201 138.173 94.677 137.804 94.6947Z" fill="#57D9A3"/>
<path opacity="0.1" d="M100.692 70.064C102.045 70.064 103.265 69.4785 104.112 68.5514L126.028 87.895V84.7812L105.225 66.4179C105.296 66.0986 105.336 65.7659 105.336 65.4199C105.336 62.8606 103.251 60.7759 100.692 60.7759C98.1327 60.7759 96.0479 62.8606 96.0479 65.4199C96.0479 66.5199 96.4338 67.5268 97.0726 68.3252L80.1996 90.8979L79.5742 90.8934V120.239L106.525 117.791C106.986 117.751 107.363 117.183 107.363 116.531V92.1753C107.363 91.5233 106.99 90.991 106.525 90.9866L83.1094 90.9023L98.9488 69.718C99.4855 69.9398 100.075 70.064 100.692 70.064Z" fill="#0747A6"/>
<path opacity="0.1" d="M75.8481 120.581V90.8844L58.6558 90.8223C58.0215 90.8179 57.507 91.4433 57.507 92.2106V120.851C57.507 120.971 57.5247 121.086 57.5469 121.197L55.8791 123.428C55.307 123.175 54.6771 123.033 54.0118 123.033C52.415 123.033 51.0089 123.841 50.1706 125.069L25.2826 115.045C25.3003 114.872 25.3136 114.695 25.3136 114.517C25.3136 111.958 23.2289 109.873 20.6696 109.873C19.1216 109.873 17.751 110.64 16.9082 111.807V117.223C17.0901 117.476 17.2941 117.706 17.5203 117.915L16.9082 118.97V123.619L19.5784 119.019C19.9288 119.103 20.2925 119.152 20.6696 119.152C22.222 119.152 23.5926 118.385 24.4354 117.214L49.3855 127.265C49.3722 127.398 49.3633 127.531 49.3633 127.669C49.3633 130.228 51.448 132.313 54.0073 132.313C56.5667 132.313 58.6514 130.228 58.6514 127.669C58.6514 126.617 58.2965 125.65 57.7066 124.874L59.8357 122.027L75.8481 120.581Z" fill="#0747A6"/>
<path opacity="0.1" d="M161.579 42.621L165.767 31.9002C165.753 31.8958 165.74 31.8913 165.727 31.8869L163.376 31.603L159.162 42.3948L161.579 42.621Z" fill="#0747A6"/>
<path opacity="0.1" d="M158.084 45.1582L138.812 94.4995C138.328 94.5439 137.862 94.6592 137.432 94.8411L128.934 87.3405V90.4543L135.551 96.2959C134.948 97.081 134.585 98.0569 134.585 99.1214C134.585 101.681 136.669 103.765 139.229 103.765C141.788 103.765 143.873 101.681 143.873 99.1214C143.873 97.254 142.759 95.6395 141.162 94.9076L160.515 45.3622L158.084 45.1582Z" fill="#0747A6"/>
<g opacity="0.5">
<g opacity="0.5">
<path opacity="0.5" d="M85.0967 141.969L82.4531 142.337V139.667" stroke="white" stroke-width="2.2561" stroke-linejoin="round"/>
<path opacity="0.5" d="M82.4531 134.114V48.0459" stroke="white" stroke-width="2.2561" stroke-linejoin="round" stroke-dasharray="12.52 12.52"/>
<path opacity="0.5" d="M82.4531 45.2693V42.6035L85.1145 42.8031" stroke="white" stroke-width="2.2561" stroke-linejoin="round"/>
<path opacity="0.5" d="M90.2422 43.189L118.439 45.318" stroke="white" stroke-width="2.2561" stroke-linejoin="round" stroke-dasharray="11.59 11.59"/>
<path opacity="0.5" d="M121.002 45.5132L123.663 45.7128V48.383" stroke="white" stroke-width="2.2561" stroke-linejoin="round"/>
<path opacity="0.5" d="M123.664 53.4131V131.43" stroke="white" stroke-width="2.2561" stroke-linejoin="round" stroke-dasharray="11.35 11.35"/>
<path opacity="0.5" d="M123.663 133.945V136.616L121.02 136.984" stroke="white" stroke-width="2.2561" stroke-linejoin="round"/>
<path opacity="0.5" d="M115.888 137.693L87.6641 141.614" stroke="white" stroke-width="2.2561" stroke-linejoin="round" stroke-dasharray="11.68 11.68"/>
</g>
</g>
<path opacity="0.5" d="M68.7994 16.9129L17.848 10.1975C17.3113 10.1265 16.9121 9.66963 16.9121 9.12849V3.31346C16.9121 2.65699 17.4976 2.15134 18.1452 2.24449L69.0966 9.73173C69.6245 9.81157 70.0192 10.264 70.0192 10.8007V15.8484C70.0192 16.496 69.447 17.0016 68.7994 16.9129Z" fill="#4C9AFF"/>
<path d="M26.3008 46.0915L26.2324 47.2383L68.1706 49.7381L68.2389 48.5914L26.3008 46.0915Z" fill="#B2D4FF"/>
<path d="M68.9775 63.2913C68.9775 65.2563 67.7266 66.8221 66.1742 66.7866C64.6129 66.7511 63.3398 65.1099 63.3398 63.1184C63.3398 61.1268 64.6129 59.5655 66.1742 59.6231C67.7266 59.6808 68.9775 61.322 68.9775 63.2913Z" fill="#36B37E"/>
<path d="M26.2896 52.9418L26.2363 54.0894L55.696 55.4578L55.7493 54.3102L26.2896 52.9418Z" fill="#B2D4FF"/>
<path d="M148.206 36.8018L131.959 35.1384V32.4727L148.206 34.2424V36.8018Z" fill="#B2D4FF"/>
<path d="M47.3579 26.4716L21.6094 23.8369V20.4658L47.3579 23.2691V26.4716Z" fill="#B2D4FF"/>
<path d="M103.083 32.18L82.8652 30.1086V27.1323L103.083 29.3324V32.18Z" fill="#B2D4FF"/>
<path d="M1.16574 166.68C0.966135 166.68 0.766534 166.627 0.58024 166.521C0.021358 166.197 -0.164936 165.483 0.158861 164.924L30.3518 112.952L64.4525 126.685C65.0513 126.924 65.3396 127.607 65.1001 128.202C64.8606 128.8 64.1775 129.089 63.5831 128.849L31.3587 115.871L2.17705 166.099C1.9597 166.472 1.56937 166.68 1.16574 166.68Z" fill="url(#paint3_linear)"/>
<path d="M148.834 98.7003C148.661 98.7003 148.484 98.6604 148.32 98.5806C147.743 98.2967 147.504 97.5959 147.787 97.0192L182.695 25.9569C182.979 25.3803 183.68 25.1408 184.257 25.4247C184.833 25.7085 185.073 26.4094 184.789 26.986L149.881 98.0483C149.681 98.4608 149.264 98.7003 148.834 98.7003Z" fill="url(#paint4_linear)"/>
<path d="M64.0133 128.938C63.7693 128.938 63.5254 128.862 63.3169 128.707C62.8024 128.321 62.6959 127.589 63.0818 127.075L111.177 62.7368L149.611 96.6601C150.094 97.0859 150.139 97.8266 149.713 98.3101C149.287 98.7936 148.551 98.8379 148.067 98.4121L111.532 66.1655L64.9492 128.468C64.7185 128.778 64.3681 128.938 64.0133 128.938Z" fill="url(#paint5_linear)"/>
<path d="M148.889 101.823C150.807 101.823 152.362 100.268 152.362 98.35C152.362 96.4319 150.807 94.877 148.889 94.877C146.971 94.877 145.416 96.4319 145.416 98.35C145.416 100.268 146.971 101.823 148.889 101.823Z" fill="#2684FF"/>
<path d="M148.888 102.99C146.329 102.99 144.244 100.909 144.244 98.3457C144.244 95.7819 146.329 93.7017 148.888 93.7017C151.448 93.7017 153.532 95.7864 153.532 98.3457C153.532 100.905 151.448 102.99 148.888 102.99ZM148.888 96.0392C147.615 96.0392 146.582 97.0727 146.582 98.3457C146.582 99.6187 147.615 100.652 148.888 100.652C150.161 100.652 151.195 99.6187 151.195 98.3457C151.195 97.0771 150.161 96.0392 148.888 96.0392Z" fill="#0049B0"/>
<path d="M64.0141 131.045C65.9322 131.045 67.4871 129.49 67.4871 127.572C67.4871 125.654 65.9322 124.099 64.0141 124.099C62.096 124.099 60.541 125.654 60.541 127.572C60.541 129.49 62.096 131.045 64.0141 131.045Z" fill="#2684FF"/>
<path d="M64.0132 132.211C61.4539 132.211 59.3691 130.131 59.3691 127.567C59.3691 125.004 61.4539 122.923 64.0132 122.923C66.5725 122.923 68.6572 125.008 68.6572 127.567C68.6572 130.127 66.5725 132.211 64.0132 132.211ZM64.0132 125.261C62.7402 125.261 61.7067 126.294 61.7067 127.567C61.7067 128.84 62.7402 129.874 64.0132 129.874C65.2862 129.874 66.3197 128.84 66.3197 127.567C66.3197 126.299 65.2862 125.261 64.0132 125.261Z" fill="#0065FF"/>
<path d="M30.6762 117.884C32.5943 117.884 34.1492 116.329 34.1492 114.411C34.1492 112.493 32.5943 110.938 30.6762 110.938C28.7581 110.938 27.2031 112.493 27.2031 114.411C27.2031 116.329 28.7581 117.884 30.6762 117.884Z" fill="#2684FF"/>
<path d="M30.6753 119.055C28.116 119.055 26.0312 116.975 26.0312 114.411C26.0312 111.847 28.116 109.767 30.6753 109.767C33.2346 109.767 35.3193 111.852 35.3193 114.411C35.3193 116.97 33.2346 119.055 30.6753 119.055ZM30.6753 112.105C29.4023 112.105 28.3688 113.138 28.3688 114.411C28.3688 115.684 29.4023 116.718 30.6753 116.718C31.9483 116.718 32.9818 115.684 32.9818 114.411C32.9818 113.143 31.9483 112.105 30.6753 112.105Z" fill="#0065FF"/>
<path d="M110.69 68.7869C112.608 68.7869 114.163 67.232 114.163 65.3139C114.163 63.3958 112.608 61.8408 110.69 61.8408C108.772 61.8408 107.217 63.3958 107.217 65.3139C107.217 67.232 108.772 68.7869 110.69 68.7869Z" fill="#DEEBFF"/>
<path d="M110.689 69.958C108.13 69.958 106.045 67.8733 106.045 65.314C106.045 62.7546 108.13 60.6699 110.689 60.6699C113.248 60.6699 115.333 62.7546 115.333 65.314C115.333 67.8733 113.253 69.958 110.689 69.958ZM110.689 63.0075C109.416 63.0075 108.382 64.041 108.382 65.314C108.382 66.587 109.416 67.6205 110.689 67.6205C111.962 67.6205 112.995 66.587 112.995 65.314C112.995 64.041 111.962 63.0075 110.689 63.0075Z" fill="#2684FF"/>
<path d="M183.742 32.2644C186.941 32.2644 189.535 29.6709 189.535 26.4716C189.535 23.2723 186.941 20.6787 183.742 20.6787C180.543 20.6787 177.949 23.2723 177.949 26.4716C177.949 29.6709 180.543 32.2644 183.742 32.2644Z" fill="#0049B0"/>
<path d="M183.743 33.4354C179.906 33.4354 176.783 30.3128 176.783 26.476C176.783 22.6392 179.906 19.5166 183.743 19.5166C187.579 19.5166 190.702 22.6392 190.702 26.476C190.702 30.3128 187.579 33.4354 183.743 33.4354ZM183.743 21.8453C181.192 21.8453 179.116 23.9211 179.116 26.4716C179.116 29.022 181.192 31.0979 183.743 31.0979C186.293 31.0979 188.369 29.022 188.369 26.4716C188.369 23.9211 186.293 21.8453 183.743 21.8453Z" fill="#0065FF"/>
<path d="M119.216 110.738L69.9409 114.158C69.3022 114.202 68.7832 113.608 68.7832 112.832V83.9519C68.7832 83.1756 69.3022 82.5547 69.9409 82.5591L119.216 83.1535C119.704 83.1579 120.094 83.7079 120.094 84.3821V109.452C120.094 110.131 119.699 110.703 119.216 110.738Z" fill="url(#paint6_linear)"/>
<path d="M115.708 103.615C115.708 105.704 114.47 107.474 112.931 107.562C111.378 107.655 110.105 106.005 110.105 103.881C110.105 101.756 111.374 99.9864 112.931 99.9287C114.47 99.8711 115.708 101.521 115.708 103.615Z" fill="#FFC400"/>
<path d="M116.304 88.1225L73.6875 88.3174L73.6936 89.6436L116.311 89.4488L116.304 88.1225Z" fill="#F5FAFF"/>
<path d="M103.908 95.088L73.6758 95.8198L73.7079 97.1457L103.941 96.4138L103.908 95.088Z" fill="#F5FAFF"/>
<path d="M79.4202 109.536L74.8205 109.807C74.1951 109.842 73.6895 109.252 73.6895 108.485V102.759C73.6895 101.991 74.1951 101.352 74.8205 101.33L79.4202 101.162C80.0279 101.14 80.5158 101.729 80.5158 102.484V108.108C80.5158 108.862 80.0235 109.501 79.4202 109.536Z" fill="#A94C35"/>
<path d="M31.7416 66.0058L27.3415 65.9038C26.7471 65.8905 26.2637 65.3139 26.2637 64.6131V59.388C26.2637 58.6871 26.7471 58.1416 27.3415 58.1637L31.7416 58.3279C32.3227 58.35 32.7973 58.9267 32.7973 59.6186V64.7772C32.7928 65.4691 32.3227 66.0191 31.7416 66.0058Z" fill="#4C9AFF"/>
<path opacity="0.1" d="M115.6 180C123.97 180 130.756 178.684 130.756 177.059C130.756 175.435 123.97 174.119 115.6 174.119C107.229 174.119 100.443 175.435 100.443 177.059C100.443 178.684 107.229 180 115.6 180Z" fill="url(#paint7_linear)"/>
<path opacity="0.1" d="M149.785 173.16C157.719 173.16 164.152 171.844 164.152 170.22C164.152 168.595 157.719 167.279 149.785 167.279C141.85 167.279 135.418 168.595 135.418 170.22C135.418 171.844 141.85 173.16 149.785 173.16Z" fill="url(#paint8_linear)"/>
<path d="M121.747 132.704C121.991 132.917 122.128 133.161 122.217 133.36C122.718 134.442 122.559 135.569 122.634 137.303C122.723 139.242 122.634 138.656 122.701 139.636C122.767 140.679 122.869 141.384 122.501 142.16C122.364 142.453 122.199 142.666 122.089 142.799L115.697 149.062C115.147 148.676 114.597 148.29 114.047 147.904C115.923 145.877 117.799 143.855 119.671 141.828C119.511 138.78 119.347 135.733 119.188 132.686L120.674 132.273C120.918 132.287 121.361 132.367 121.747 132.704Z" fill="#CF9E76"/>
<path d="M122.218 133.36C122.125 133.161 121.992 132.917 121.748 132.704C121.362 132.367 120.923 132.287 120.683 132.265L119.197 132.677L119.747 136.993C120.705 136.989 121.659 136.935 122.617 136.478C122.595 135.197 122.635 134.261 122.218 133.36Z" fill="#FFAB00"/>
<path d="M115.254 168.397C115.254 169.758 115.378 170.832 115.498 171.568C115.6 172.202 115.746 172.93 115.919 174.203C115.986 174.709 116.035 175.13 116.066 175.409C115.915 175.418 115.791 175.423 115.702 175.427C115.329 175.44 115.223 175.436 115.028 175.471C114.93 175.489 114.85 175.516 114.695 175.565C114.504 175.627 114.451 175.658 114.433 175.711C114.425 175.733 114.416 175.791 114.491 175.902C114.757 176.283 115.201 176.261 115.817 176.607C116.115 176.776 116.15 176.86 116.398 176.935C116.563 176.984 116.886 177.086 117.139 176.922C117.215 176.873 117.534 176.74 117.481 176.203C117.445 175.826 117.414 175.361 117.41 174.828C117.401 173.799 117.498 173.085 117.689 171.626C117.769 171.023 117.907 169.949 118.124 168.264C117.17 168.312 116.212 168.357 115.254 168.397Z" fill="#FFC400"/>
<path d="M119.84 144.875C119.836 144.777 119.827 144.684 119.813 144.6C119.685 143.589 119.485 142.764 119.33 142.205C119.281 141.983 119.215 141.735 119.121 141.473C119.011 141.162 118.886 140.892 118.767 140.666C118.62 140.714 118.39 140.785 118.092 140.843C117.84 140.896 117.644 140.914 117.538 140.932C116.944 141.02 115.808 141.162 112.748 141.411C112.601 141.601 112.393 141.89 112.171 142.258C111.373 143.584 111.08 144.795 110.96 145.323C108.884 154.283 108.467 157.787 108.467 157.787C108.166 159.566 107.864 161.34 107.558 163.118C107.531 164.147 107.487 165.199 107.42 166.281C107.349 167.505 107.261 168.694 107.154 169.843C108.068 169.958 108.986 170.069 109.9 170.184C110.077 169.124 110.117 168.255 110.117 167.643C110.122 166.418 109.971 165.678 110.193 164.489C110.299 163.912 110.45 163.451 110.565 163.145C110.8 162.684 111.129 162.001 111.457 161.14C112.184 159.242 112.304 158.075 112.641 156.762C113.351 153.977 114.775 151.519 115.121 151.639C115.121 151.639 115.121 151.639 115.125 151.639C115.737 148.867 117.933 146.893 119.84 144.875Z" fill="#CF9E76"/>
<path d="M115.294 151.258C115.742 151.435 113.782 156.172 114.948 160.985C114.997 161.193 115.268 161.89 115.357 162.87C115.436 163.766 115.334 164.369 115.268 165.11C115.197 165.877 115.144 166.991 115.259 168.397C116.204 168.414 117.153 168.437 118.098 168.454C118.266 167.017 118.328 165.341 118.147 163.487C118.093 162.95 118.022 162.435 117.942 161.947C118.311 160.546 118.47 159.388 118.546 158.581C118.634 157.632 118.781 155.356 118.785 154.465C118.785 154.349 118.794 153.941 118.856 153.4C118.87 153.28 118.887 153.161 118.923 152.97C119.127 151.772 119.992 146.84 119.85 144.729C117.996 146.68 115.88 148.583 115.294 151.258Z" fill="#CF9E76"/>
<path d="M120.883 134.571C121.273 133.533 120.905 132.34 119.978 131.799C119.756 131.666 119.579 131.581 119.481 131.546C116.185 130.459 112.242 130.388 112.242 130.388C111.013 130.366 110.734 130.406 110.14 130.237C109.173 129.967 108.734 129.528 107.421 128.747C106.902 128.437 106.13 128.006 105.141 127.558C104.875 126.339 104.648 125.35 104.493 124.684C104.05 122.79 103.881 122.2 103.721 121.176C103.539 119.991 103.495 119.011 103.486 118.386C103.335 118.372 103.114 118.35 102.843 118.31C102.834 118.31 102.794 118.301 102.746 118.293C102.568 118.261 102.32 118.213 102 118.133C101.912 119.481 101.881 120.967 101.943 122.573C102.04 125.004 102.342 127.168 102.71 129.018C105.416 131.666 107.602 132.863 109.182 133.458C109.896 133.728 111.568 134.327 112.317 135.88C112.566 136.399 112.592 136.864 112.632 137.397C112.699 138.27 112.686 139.867 111.847 141.845C112.987 141.965 114.14 142.076 115.307 142.178C116.757 142.307 118.19 142.426 119.605 142.528C119.547 140.861 119.663 138.612 120.377 136.101C120.532 135.565 120.701 135.05 120.883 134.571Z" fill="#CF9E76"/>
<path d="M115.365 127.731C115.436 127.798 116.403 128.698 116.217 129.994C116.106 130.757 115.658 131.236 115.489 131.395C116.869 131.577 118.248 131.759 119.628 131.941C119.548 131.852 119.127 131.355 119.162 130.606C119.198 129.927 119.583 129.501 119.677 129.404C118.239 128.849 116.802 128.29 115.365 127.731Z" fill="#B08874"/>
<path d="M118.749 123.198C118.283 122.635 116.771 122.901 115.826 123.455C115.44 123.681 114.744 124.094 114.402 124.897C114.158 125.473 114.145 126.143 113.617 126.48C113.466 126.578 113.36 126.591 113.227 126.742C112.978 127.026 112.912 127.483 113.005 127.833C113.049 127.993 113.174 128.308 114.3 128.946C114.367 128.982 114.438 129.022 114.513 129.062C115.249 129.461 116.154 129.226 116.624 128.512C119.024 124.906 119.131 123.655 118.749 123.198Z" fill="#172B4D"/>
<path d="M117.108 123.069C116.527 123.571 115.861 124.617 115.569 125.167C115.524 125.265 115.511 125.314 115.307 125.407C115.103 125.5 114.832 125.522 114.872 125.677C114.912 125.833 115.183 126.063 115.205 126.201L114.748 128.308L115.538 128.72L118.208 130.104C118.181 129.984 117.414 126.999 117.436 126.835C117.458 126.671 117.52 126.325 117.343 126.223C117.165 126.117 117.015 124.404 116.953 124.169C116.886 123.934 116.913 123.872 116.988 123.571C117.055 123.26 117.108 123.069 117.108 123.069Z" fill="#CF9E76"/>
<path d="M117.086 123.083C116.776 123.939 116.873 124.564 116.971 125.123C117.042 125.54 117.304 127.119 116.523 128.41C116.106 129.097 116.386 130.029 117.1 130.353C117.517 130.543 117.898 130.716 118.302 130.774C118.621 130.818 119.153 130.889 119.686 130.685C120.644 130.313 121.043 129.257 121.269 128.663C121.349 128.454 121.744 127.363 121.486 126.001C121.424 125.677 121.331 125.376 121.26 125.19C120.848 124.138 119.025 122.364 117.086 123.083Z" fill="#172B4D"/>
<path d="M102.954 115.36C102.878 115.418 102.861 115.36 102.648 115.431C102.608 115.445 102.355 115.533 102.169 115.715C101.96 115.919 101.911 116.168 101.84 116.536C101.805 116.727 101.734 117.095 101.814 117.56C101.849 117.778 101.903 118.115 102.129 118.448C102.426 118.891 102.998 119.299 103.278 119.131C103.428 119.042 103.419 118.833 103.486 118.39C103.628 117.454 103.81 117.49 103.876 116.882C103.947 116.252 103.748 116.296 103.561 114.762C103.49 114.163 103.464 113.697 103.357 113.688C103.278 113.679 103.198 113.919 103.167 114.016C102.945 114.682 103.193 115.187 102.954 115.36Z" fill="#CF9E76"/>
<path d="M109.181 133.467C110.574 134.176 111.772 134.757 112.317 135.888C112.317 135.888 112.614 136.554 112.632 137.405C112.694 140.599 107.997 155.999 107.598 157.29C108.693 158.062 110.538 159.158 113.04 159.725C116.021 160.399 118.5 160 119.862 159.668C120.292 155.649 120.146 152.424 120.128 150.295C120.093 144.848 119.352 142.152 120.168 137.583C120.762 135.578 121.614 134.079 122.186 133.187C121.871 132.766 121.335 132.154 120.505 131.684C119.84 131.307 119.263 131.187 118.496 131.049C116.287 130.655 114.508 130.517 114.242 130.499C113.231 130.424 111.94 130.335 110.436 130.26L109.181 133.467Z" fill="url(#paint9_linear)"/>
<path d="M120.036 157.645C120.067 157.17 120.094 156.709 120.111 156.261C118.448 156.5 116.417 156.678 114.15 156.225C111.888 155.773 109.989 155.054 108.486 154.34C108.357 154.775 108.237 155.174 108.131 155.534C109.657 156.429 111.613 157.232 113.857 157.707C116.217 158.195 118.284 157.969 120.036 157.645Z" fill="#FFAB00"/>
<path d="M114.148 153.325C112.245 152.943 110.604 152.376 109.234 151.777C109.1 152.238 108.972 152.682 108.848 153.103C110.249 153.795 111.948 154.398 113.86 154.802C116.268 155.308 118.371 155.25 120.149 155.01C120.158 154.576 120.163 154.159 120.163 153.76C118.491 153.848 116.437 153.782 114.148 153.325Z" fill="#FFAB00"/>
<path d="M107.239 168.703C107.101 170.592 107.053 172.109 107.03 173.12C106.977 175.462 107.057 176.305 106.432 176.957C105.531 177.893 103.89 177.689 103.895 178.031C103.895 178.204 104.311 178.328 104.502 178.386C105.274 178.616 105.624 178.359 106.538 178.346C107.594 178.332 107.975 178.669 108.326 178.363C108.601 178.119 108.632 177.676 108.614 177.33C108.592 177.175 108.565 176.935 108.556 176.647C108.521 175.618 109.031 173.764 109.195 173.289C109.506 172.402 109.852 171.116 109.998 169.377C109.08 169.146 108.157 168.924 107.239 168.703Z" fill="#FFC400"/>
<path d="M105.554 177.507C105.958 177.547 106.361 177.538 106.769 177.525C107.053 177.516 107.373 177.299 107.608 177.099C107.856 176.886 108.158 176.753 108.477 176.704C108.508 176.7 108.535 176.695 108.557 176.691C108.57 176.957 108.592 177.174 108.61 177.325C108.628 177.676 108.597 178.119 108.322 178.359C107.971 178.669 107.59 178.328 106.534 178.341C105.62 178.354 105.266 178.612 104.498 178.381C104.308 178.323 103.891 178.199 103.891 178.026C103.891 177.782 104.742 177.818 105.554 177.507Z" fill="#172B4D"/>
<path d="M115.027 175.471C115.124 175.445 115.213 175.431 115.422 175.422C115.524 175.418 115.572 175.414 115.643 175.414C115.732 175.414 115.807 175.418 115.878 175.422C115.679 175.462 115.519 175.538 115.51 175.631C115.501 175.728 115.67 175.817 115.909 175.941C116.029 176.004 116.096 176.026 116.158 176.021C116.349 175.999 116.357 175.777 116.593 175.706C116.637 175.693 116.73 175.684 116.921 175.671C117.027 175.662 117.067 175.666 117.134 175.653C117.231 175.635 117.311 175.604 117.431 175.569C117.444 175.804 117.462 176.017 117.48 176.208C117.528 176.744 117.214 176.877 117.138 176.926C116.885 177.086 116.562 176.988 116.397 176.939C116.149 176.864 116.114 176.78 115.816 176.611C115.2 176.261 114.756 176.287 114.49 175.906C114.45 175.848 114.415 175.782 114.432 175.715C114.441 175.671 114.477 175.613 115.027 175.471Z" fill="#172B4D"/>
<path d="M145.389 126.458C145.411 126.574 145.681 127.771 146.795 128.268C147.629 128.641 148.609 128.476 149.323 127.842C149.163 127.292 148.995 126.48 149.021 125.491C149.044 124.737 149.177 124.107 149.31 123.637C148.188 123.93 147.065 124.218 145.939 124.511C145.987 124.95 145.992 125.323 145.983 125.593C145.974 126.055 145.93 126.228 145.801 126.343C145.673 126.458 145.5 126.467 145.389 126.458Z" fill="url(#paint10_linear)"/>
<path d="M131.613 129.461L129.665 129.913C129.577 129.913 129.492 129.967 129.457 130.051C129.421 130.131 129.435 130.228 129.488 130.295C129.39 130.348 129.328 130.446 129.328 130.552C129.324 130.69 129.417 130.818 129.559 130.858C129.532 130.907 129.492 130.991 129.515 131.08C129.554 131.222 129.759 131.324 130.002 131.266C130.002 131.297 130.007 131.408 130.087 131.506C130.189 131.626 130.326 131.63 130.348 131.63C131.076 131.634 131.528 131.661 131.528 131.661C131.932 131.599 132.14 131.568 132.349 131.399C132.482 131.293 132.566 131.169 132.619 131.084C132.983 131.297 133.107 131.213 133.138 131.191C133.307 131.058 133.223 130.579 132.934 129.98C132.495 129.807 132.052 129.634 131.613 129.461Z" fill="#A27F68"/>
<path d="M139.583 132.171C139.437 132.136 139.224 132.135 138.94 132.286C138.191 131.834 137.552 131.537 137.122 131.355C135.889 130.831 135.192 130.747 133.866 130.126C133.36 129.891 132.961 129.669 132.717 129.523C132.668 129.998 132.615 130.468 132.566 130.938C134.265 132.486 135.574 133.475 136.377 134.047C136.576 134.189 137.046 134.522 137.738 134.77C138.319 134.983 139.863 135.542 140.422 134.828C140.963 134.132 140.422 132.371 139.583 132.171Z" fill="#A27F68"/>
<path d="M139.206 135.187C139.41 135.25 139.716 135.312 140.071 135.258C140.771 135.152 141.219 134.673 141.707 134.141C142.599 133.16 143.26 132.42 143.805 131.808L143.677 126.804C143.202 127.319 142.86 127.78 142.639 128.108C141.792 129.368 141.477 130.428 140.585 130.707C140.399 130.765 140.399 130.756 140.217 130.841C139.299 131.28 138.926 132.287 138.868 132.446C138.398 133.795 139.108 135.032 139.206 135.187Z" fill="url(#paint11_linear)"/>
<path d="M147.031 171.586C147.111 171.492 147.231 171.351 147.391 171.195C147.985 170.623 148.562 170.379 148.805 170.259C149.276 170.029 149.919 169.59 150.624 168.663C151.17 168.747 151.715 168.836 152.265 168.92C152.372 169.199 152.483 169.55 152.558 169.962C152.638 170.41 152.656 170.809 152.647 171.129L151.595 171.138C151.542 171.049 151.454 170.938 151.329 170.92C151.134 170.894 150.957 171.12 150.895 171.191C150.385 171.785 149.169 171.781 148.455 171.781C148.105 171.781 147.612 171.745 147.031 171.586Z" fill="#091E42"/>
<path d="M139.836 171.036C139.916 170.943 140.036 170.801 140.195 170.646C140.79 170.073 141.366 169.829 141.61 169.71C142.08 169.479 142.723 169.04 143.429 168.113C143.974 168.197 144.52 168.286 145.07 168.37C145.176 168.649 145.287 169 145.363 169.412C145.442 169.86 145.46 170.26 145.451 170.579L144.4 170.588C144.347 170.499 144.258 170.388 144.134 170.37C143.939 170.344 143.761 170.57 143.699 170.641C143.189 171.235 141.974 171.231 141.26 171.231C140.909 171.231 140.417 171.196 139.836 171.036Z" fill="#091E42"/>
<path d="M143.593 138.647C143.216 141.654 142.915 144.835 142.728 148.17C142.307 155.551 142.506 162.32 143.021 168.33C143.513 168.574 144.591 168.804 145.452 168.427C145.509 165.77 145.527 163.504 145.518 161.561C145.514 160.803 145.505 160.217 145.5 159.849C145.487 158.918 145.465 157.844 145.434 156.651C145.78 153.284 146.126 149.922 146.472 146.556C146.685 147.829 146.836 148.875 146.938 149.59C147.248 151.825 147.319 152.827 147.665 154.934C147.825 155.928 147.962 156.624 148.029 156.988C148.499 159.547 149.142 163.406 149.847 168.969C150.712 169.155 151.87 169.248 152.686 168.977C152.393 163.89 152.105 158.802 151.812 153.715C151.613 150.827 151.373 147.886 151.098 144.892C150.921 142.989 150.734 141.113 150.535 139.259C148.215 139.051 145.904 138.847 143.593 138.647Z" fill="#091E42"/>
<path d="M144.614 126.418C144.996 126.445 145.333 126.445 145.612 126.432C145.994 126.92 146.375 127.403 146.756 127.891C147.511 127.403 148.269 126.92 149.023 126.432C150.043 127.088 151.059 127.745 152.079 128.406C152.013 128.925 151.919 129.674 151.795 130.57C151.529 132.544 151.414 133.533 151.241 134.349C151.055 135.214 150.851 135.959 150.695 137.161C150.58 138.035 150.54 138.763 150.527 139.255C149.254 139.659 147.981 140.058 146.708 140.462C146.57 140.031 146.433 139.601 146.295 139.171C146.056 139.517 145.816 139.863 145.581 140.213C144.92 139.739 144.264 139.264 143.603 138.789C143.603 138.559 143.607 138.204 143.643 137.769C143.678 137.321 143.714 137.157 143.723 136.851C143.736 136.283 143.643 135.871 143.598 135.68C143.164 133.75 144.117 133.054 143.687 130.969C143.585 130.481 143.425 129.989 143.319 129.071C143.217 128.157 143.354 127.869 143.354 127.66C143.354 126.933 143.931 126.37 144.614 126.418Z" fill="url(#paint12_linear)"/>
<path d="M146.681 127.793L146.051 139.516C146.131 139.401 146.21 139.286 146.29 139.166C146.344 139.326 146.392 139.49 146.446 139.649L147.089 127.673C146.978 127.744 146.867 127.815 146.756 127.886C146.729 127.86 146.707 127.829 146.681 127.793Z" fill="#FFF0B2"/>
<path d="M132.61 129.483L132.268 129.341C131.971 129.217 131.647 129.164 131.328 129.177L129.939 129.244C129.939 129.532 130.148 129.767 130.423 129.789L130.964 129.834L132.437 130.805L133.084 130.202C133.075 129.883 132.889 129.599 132.61 129.483Z" fill="#A27F68"/>
<path d="M151.174 135.83C151.143 135.963 151.143 136.159 151.267 136.42C150.89 137.103 150.646 137.689 150.495 138.084C150.061 139.21 149.99 139.844 149.48 141.055C149.285 141.517 149.098 141.88 148.979 142.107C149.369 142.151 149.764 142.2 150.154 142.244C151.436 140.692 152.256 139.499 152.731 138.767C152.851 138.585 153.121 138.155 153.33 137.525C153.507 136.992 153.969 135.586 153.379 135.076C152.802 134.571 151.338 135.067 151.174 135.83Z" fill="#A27F68"/>
<path d="M148.951 141.464L148.747 141.721C148.57 141.947 148.436 142.209 148.357 142.488L148.02 143.708C148.246 143.788 148.49 143.673 148.583 143.442L148.769 142.985L149.94 141.983L149.647 141.255C149.395 141.171 149.12 141.251 148.951 141.464Z" fill="#A27F68"/>
<path d="M146.76 127.873L147.301 128.933C147.98 128.166 148.654 127.399 149.332 126.631C149.239 126.445 149.146 126.259 149.057 126.068C148.907 126.272 148.76 126.476 148.609 126.68L146.76 127.873Z" fill="#FFAB00"/>
<path d="M145.983 126.112C145.961 126.4 145.926 126.467 145.89 126.507C145.837 126.569 145.766 126.6 145.766 126.6C146.099 127.03 146.427 127.46 146.759 127.886C146.511 128.099 146.263 128.312 146.01 128.525C145.708 127.829 145.407 127.128 145.109 126.431C145.265 126.272 145.424 126.108 145.58 125.948C145.717 125.908 145.859 125.868 145.996 125.828C145.992 125.948 145.988 126.045 145.983 126.112Z" fill="#FFAB00"/>
<path d="M146.937 125.416C145.465 125.624 145.318 125.664 145.154 125.513C145.035 125.407 144.946 125.079 144.773 124.418C144.684 124.085 144.618 123.806 144.573 123.61C144.471 123.642 144.187 123.717 144.103 123.597C144.045 123.513 144.116 123.375 144.196 123.158C144.272 122.958 144.36 122.679 144.44 122.329C144.436 122.275 144.427 122.218 144.427 122.156C144.427 122.156 144.405 121.681 144.547 121.215C144.768 120.483 145.332 119.991 145.38 119.947C146.077 119.348 147.297 118.98 148.343 119.579C149.208 120.075 149.616 121.038 149.661 121.721C149.71 122.466 149.372 123.504 149.364 123.522C149.364 123.522 149.364 123.526 149.359 123.531C149.337 123.593 149.324 123.642 149.324 123.646C149.257 123.859 148.933 124.067 148.933 124.067C148.649 124.249 148.592 124.178 148.437 124.294C148.157 124.506 148.25 124.808 148.042 125.079C147.882 125.287 147.674 125.314 146.937 125.416Z" fill="#8C715D"/>
<path d="M146.965 121.952C147.085 122.36 147.125 122.715 147.138 122.954C147.284 122.954 147.435 122.954 147.581 122.954C147.714 122.79 147.879 122.639 148.012 122.679C148.313 122.768 148.14 123.726 148.531 123.925C148.828 124.076 149.267 123.695 149.325 123.65C149.954 123.109 150.141 122.009 149.861 121.131C149.555 120.155 148.761 119.707 148.522 119.574C147.435 118.958 146.366 119.277 146.166 119.339C145.27 119.623 144.658 120.293 144.37 120.896C144.312 121.011 144.104 121.446 144.241 121.588C144.312 121.659 144.463 121.646 145.053 121.375C145.993 120.945 146.113 120.754 146.348 120.829C146.663 120.936 146.801 121.393 146.965 121.952Z" fill="#172B4D"/>
<path d="M150.45 128.09C150.876 127.913 151.328 127.957 151.696 128.166C152.158 128.423 152.344 128.933 152.446 129.213C153.049 130.894 153.036 131.643 153.484 133.049C153.732 133.83 154.016 134.518 153.834 135.431C153.786 135.675 153.719 135.866 153.666 135.999C153.386 135.968 152.801 135.937 152.131 136.221C151.47 136.5 151.067 136.944 150.889 137.17C150.694 137.037 150.423 136.806 150.326 136.447C150.206 136.008 150.406 135.6 150.45 135.498C150.676 134.97 150.654 133.617 149.598 130.042C149.341 129.253 149.718 128.396 150.45 128.09Z" fill="url(#paint13_linear)"/>
<path d="M148.89 142.116L148.766 142.99L150.393 142.48L150.571 141.734L148.89 142.116Z" fill="#A27F68"/>
<path opacity="0.6" d="M113.315 9.33252H94.6504V62.2134H113.315V9.33252Z" fill="url(#paint14_linear)"/>
<path d="M104.658 23.3158C111.096 23.3158 116.316 18.0964 116.316 11.6579C116.316 5.21941 111.096 0 104.658 0C98.2194 0 93 5.21941 93 11.6579C93 18.0964 98.2194 23.3158 104.658 23.3158Z" fill="url(#paint15_linear)"/>
<path fill-rule="evenodd" clip-rule="evenodd" d="M105.405 4.62192C105.33 4.48898 105.221 4.37914 105.088 4.30436C104.687 4.07888 104.179 4.22105 103.953 4.62192L97.8823 15.415C97.8122 15.5397 97.7754 15.6803 97.7754 15.8233C97.7754 16.2833 98.1482 16.6561 98.6082 16.6561H110.75C110.893 16.6561 111.034 16.6193 111.159 16.5492C111.56 16.3237 111.702 15.8159 111.476 15.415L105.405 4.62192ZM104.679 7.57802L108.614 14.574H100.744L104.679 7.57802Z" fill="#FAFBFC"/>
</g>
<defs>
<linearGradient id="paint0_linear" x1="14.0167" y1="151.832" x2="149.929" y2="15.9204" gradientUnits="userSpaceOnUse">
<stop stop-color="#4C9AFF"/>
<stop offset="1" stop-color="#DEEBFF" stop-opacity="0.7"/>
</linearGradient>
<linearGradient id="paint1_linear" x1="19.28" y1="60.0486" x2="69.7415" y2="60.0486" gradientUnits="userSpaceOnUse">
<stop stop-color="#EBECF0" stop-opacity="0"/>
<stop offset="0.1413" stop-color="#EBECF0" stop-opacity="0.1413"/>
<stop offset="1" stop-color="#EBECF0"/>
</linearGradient>
<linearGradient id="paint2_linear" x1="40.2755" y1="121.054" x2="137.075" y2="24.2549" gradientUnits="userSpaceOnUse">
<stop stop-color="#B2D4FF"/>
<stop offset="0.0525" stop-color="#BBD9FF"/>
<stop offset="0.1904" stop-color="#CFE3FF"/>
<stop offset="0.3313" stop-color="#DAE9FF"/>
<stop offset="0.4783" stop-color="#DEEBFF"/>
</linearGradient>
<linearGradient id="paint3_linear" x1="-0.000819833" y1="139.817" x2="65.181" y2="139.817" gradientUnits="userSpaceOnUse">
<stop offset="0.1025" stop-color="#0065FF" stop-opacity="0"/>
<stop offset="0.1753" stop-color="#0065FF" stop-opacity="0.1183"/>
<stop offset="0.7173" stop-color="#0065FF"/>
</linearGradient>
<linearGradient id="paint4_linear" x1="147.667" y1="62.0036" x2="184.908" y2="62.0036" gradientUnits="userSpaceOnUse">
<stop stop-color="#0049B0"/>
<stop offset="1" stop-color="#0065FF"/>
</linearGradient>
<linearGradient id="paint5_linear" x1="62.8455" y1="95.8359" x2="150.003" y2="95.8359" gradientUnits="userSpaceOnUse">
<stop stop-color="#0065FF"/>
<stop offset="0.0335" stop-color="#1171FF"/>
<stop offset="0.0902" stop-color="#2780FF"/>
<stop offset="0.1571" stop-color="#388CFF"/>
<stop offset="0.2399" stop-color="#4394FF"/>
<stop offset="0.3561" stop-color="#4A99FF"/>
<stop offset="0.6786" stop-color="#4C9AFF"/>
<stop offset="1" stop-color="#0049B0"/>
</linearGradient>
<linearGradient id="paint6_linear" x1="69.001" y1="103.5" x2="123.001" y2="101" gradientUnits="userSpaceOnUse">
<stop stop-color="#FF7452"/>
<stop offset="1" stop-color="#DB4C29"/>
</linearGradient>
<linearGradient id="paint7_linear" x1="100.443" y1="177.058" x2="130.757" y2="177.058" gradientUnits="userSpaceOnUse">
<stop stop-color="#091E42"/>
<stop offset="0.9682" stop-color="#091E42" stop-opacity="0.0318"/>
<stop offset="1" stop-color="#091E42" stop-opacity="0"/>
</linearGradient>
<linearGradient id="paint8_linear" x1="135.418" y1="170.222" x2="164.15" y2="170.222" gradientUnits="userSpaceOnUse">
<stop stop-color="#091E42"/>
<stop offset="0.9682" stop-color="#091E42" stop-opacity="0.0318"/>
<stop offset="1" stop-color="#091E42" stop-opacity="0"/>
</linearGradient>
<linearGradient id="paint9_linear" x1="107.598" y1="145.174" x2="122.191" y2="145.174" gradientUnits="userSpaceOnUse">
<stop stop-color="#FFE380"/>
<stop offset="1" stop-color="#FFAB00"/>
</linearGradient>
<linearGradient id="paint10_linear" x1="145.39" y1="126.051" x2="149.323" y2="126.051" gradientUnits="userSpaceOnUse">
<stop stop-color="#72594B"/>
<stop offset="0.5558" stop-color="#8C715D"/>
</linearGradient>
<linearGradient id="paint11_linear" x1="141.199" y1="130.754" x2="146.227" y2="135.808" gradientUnits="userSpaceOnUse">
<stop stop-color="#FFC400"/>
<stop offset="0.0133" stop-color="#FFC202"/>
<stop offset="0.1546" stop-color="#FFB00F"/>
<stop offset="0.322" stop-color="#FFA318"/>
<stop offset="0.5409" stop-color="#FF9B1D"/>
<stop offset="1" stop-color="#FF991F"/>
</linearGradient>
<linearGradient id="paint12_linear" x1="147.678" y1="140.46" x2="147.678" y2="126.414" gradientUnits="userSpaceOnUse">
<stop stop-color="#FF991F"/>
<stop offset="0.7681" stop-color="#FFC400"/>
</linearGradient>
<linearGradient id="paint13_linear" x1="151.8" y1="132.184" x2="148.948" y2="133.849" gradientUnits="userSpaceOnUse">
<stop stop-color="#FFC400"/>
<stop offset="1" stop-color="#FF991F"/>
</linearGradient>
<linearGradient id="paint14_linear" x1="103.982" y1="62.2125" x2="103.982" y2="9.33314" gradientUnits="userSpaceOnUse">
<stop stop-color="#FFEBE6" stop-opacity="0"/>
<stop offset="1" stop-color="#FF623A"/>
</linearGradient>
<linearGradient id="paint15_linear" x1="96.4128" y1="19.9026" x2="112.901" y2="3.41475" gradientUnits="userSpaceOnUse">
<stop stop-color="#CD5C41"/>
<stop offset="1" stop-color="#FF7452"/>
</linearGradient>
<clipPath id="clip0">
<rect width="190.703" height="180" fill="white"/>
</clipPath>
</defs>
</svg>
