<svg width="245" height="173" viewBox="0 0 245 173" fill="none" xmlns="http://www.w3.org/2000/svg">
<g filter="url(#filter0_dd)">
<path d="M11.1328 6.03728C11.1328 5.04426 11.9378 4.23926 12.9308 4.23926H228.693C229.687 4.23926 230.492 5.04426 230.492 6.03728V152.576C230.492 153.569 229.687 154.374 228.693 154.374H12.9308C11.9378 154.374 11.1328 153.569 11.1328 152.576V6.03728Z" fill="white"/>
<path d="M11.3576 6.03728C11.3576 5.16839 12.0619 4.46401 12.9308 4.46401H228.693C229.562 4.46401 230.267 5.16839 230.267 6.03728V152.576C230.267 153.445 229.562 154.149 228.693 154.149H12.9308C12.0619 154.149 11.3576 153.445 11.3576 152.576V6.03728Z" stroke="#C1C7D0" stroke-width="0.449506"/>
</g>
<path d="M30.3145 25.248H81.4653V154.039H32.1125C31.1195 154.039 30.3145 153.234 30.3145 152.241V25.248Z" fill="#F4F5F7"/>
<rect x="42.8398" y="33.1406" width="34.5796" height="6.74258" rx="1.79802" fill="#DFE1E6"/>
<rect x="34.4141" y="33.1406" width="6.64992" height="6.74258" rx="1.79802" fill="#DFE1E6"/>
<rect x="34.4141" y="49.3232" width="43.0028" height="4.94456" rx="2.47228" fill="#DFE1E6"/>
<rect x="34.4141" y="58.3125" width="30.5896" height="4.49506" rx="2.24753" fill="#DFE1E6"/>
<rect x="34.4141" y="66.8535" width="30.5896" height="4.49506" rx="2.24753" fill="#DFE1E6"/>
<rect x="89.4414" y="31.6592" width="18.2603" height="5.39407" rx="2.69703" fill="#EBECF0"/>
<rect x="109.928" y="31.6592" width="18.2603" height="5.39407" rx="2.69703" fill="#EBECF0"/>
<rect x="130.416" y="31.6592" width="18.2603" height="5.39407" rx="2.69703" fill="#EBECF0"/>
<rect x="90.6016" y="49.9102" width="128.791" height="6.39386" rx="1.79802" fill="#F4F5F7"/>
<rect x="90.6016" y="49.9102" width="128.791" height="6.39386" rx="1.79802" fill="#F4F5F7"/>
<rect x="90.6016" y="61.7842" width="121.483" height="6.39386" rx="1.79802" fill="#F4F5F7"/>
<rect x="90.6016" y="61.7842" width="121.483" height="6.39386" rx="1.79802" fill="#F4F5F7"/>
<rect x="90.6016" y="72.7451" width="111.436" height="7.30727" rx="1.79802" fill="#F4F5F7"/>
<rect x="90.6016" y="72.7451" width="111.436" height="7.30727" rx="1.79802" fill="#F4F5F7"/>
<rect x="90.6016" y="85.5332" width="128.791" height="6.39386" rx="1.79802" fill="#F4F5F7"/>
<rect x="90.6016" y="85.5332" width="128.791" height="6.39386" rx="1.79802" fill="#F4F5F7"/>
<rect x="90.6016" y="106.541" width="128.791" height="6.39386" rx="1.79802" fill="#F4F5F7"/>
<rect x="90.6016" y="106.541" width="128.791" height="6.39386" rx="1.79802" fill="#F4F5F7"/>
<rect x="90.5" y="117.193" width="106.567" height="6.55514" rx="1.79802" fill="#F4F5F7"/>
<rect x="90.5" y="117.193" width="106.567" height="6.55514" rx="1.79802" fill="#F4F5F7"/>
<rect x="90.5" y="128.154" width="84.6449" height="6.55514" rx="1.79802" fill="#F4F5F7"/>
<rect x="90.5" y="128.154" width="84.6449" height="6.55514" rx="1.79802" fill="#F4F5F7"/>
<line x1="12.1543" y1="25.752" x2="229.497" y2="25.752" stroke="#EBECF0" stroke-width="0.449046"/>
<circle cx="20.4269" cy="14.9709" r="1.79802" fill="#DFE1E6"/>
<circle cx="20.4269" cy="14.9709" r="1.79802" fill="#DFE1E6"/>
<circle cx="26.2726" cy="14.9709" r="1.79802" fill="#DFE1E6"/>
<circle cx="26.2726" cy="14.9709" r="1.79802" fill="#DFE1E6"/>
<circle cx="32.1164" cy="14.9709" r="1.79802" fill="#DFE1E6"/>
<circle cx="32.1164" cy="14.9709" r="1.79802" fill="#DFE1E6"/>
<rect x="51.8965" y="9.12598" width="156.428" height="11.6871" rx="4.04555" fill="#F4F5F7"/>
<path d="M59.0839 16.5469H59.5369V14.8665C59.5369 14.3871 59.8161 14.0658 60.3244 14.0658C60.7537 14.0658 60.9802 14.316 60.9802 14.8191V16.5469H61.4332V14.7085C61.4332 14.0421 61.054 13.6576 60.4535 13.6576C60.0189 13.6576 59.7213 13.8419 59.579 14.1554H59.5369V12.5803H59.0839V16.5469ZM62.5038 12.9728V13.7076H62.0456V14.0869H62.5038V15.8094C62.5038 16.352 62.7383 16.5679 63.323 16.5679C63.4125 16.5679 63.4994 16.5574 63.589 16.5416V16.1597C63.5047 16.1676 63.4599 16.1702 63.3783 16.1702C63.0833 16.1702 62.9569 16.028 62.9569 15.6935V14.0869H63.589V13.7076H62.9569V12.9728H62.5038ZM64.5173 12.9728V13.7076H64.0591V14.0869H64.5173V15.8094C64.5173 16.352 64.7518 16.5679 65.3365 16.5679C65.426 16.5679 65.5129 16.5574 65.6025 16.5416V16.1597C65.5182 16.1676 65.4734 16.1702 65.3918 16.1702C65.0968 16.1702 64.9704 16.028 64.9704 15.6935V14.0869H65.6025V13.7076H64.9704V12.9728H64.5173ZM67.724 13.6576C67.3368 13.6576 66.997 13.8551 66.8153 14.1817H66.7732V13.7076H66.3412V17.4951H66.7942V16.1202H66.8364C66.9918 16.4205 67.3184 16.5969 67.724 16.5969C68.4456 16.5969 68.9171 16.0148 68.9171 15.1272C68.9171 14.2344 68.4483 13.6576 67.724 13.6576ZM67.616 16.1887C67.105 16.1887 66.7811 15.7778 66.7811 15.1272C66.7811 14.4741 67.105 14.0658 67.6186 14.0658C68.1375 14.0658 68.4483 14.4635 68.4483 15.1272C68.4483 15.791 68.1375 16.1887 67.616 16.1887ZM69.6163 14.4846C69.6163 14.8955 69.8586 15.1246 70.3907 15.2537L70.8779 15.3722C71.1808 15.4459 71.3283 15.5776 71.3283 15.7725C71.3283 16.0333 71.0544 16.215 70.6725 16.215C70.309 16.215 70.0825 16.0623 70.0061 15.8226H69.5399C69.59 16.294 70.0246 16.5969 70.6567 16.5969C71.302 16.5969 71.7945 16.2466 71.7945 15.7383C71.7945 15.33 71.5364 15.0983 71.0017 14.9692L70.5645 14.8639C70.23 14.7822 70.072 14.6611 70.072 14.4662C70.072 14.2133 70.3354 14.0421 70.6725 14.0421C71.0149 14.0421 71.2361 14.1922 71.2967 14.4187H71.7444C71.6839 13.9526 71.2704 13.6576 70.6751 13.6576C70.072 13.6576 69.6163 14.0131 69.6163 14.4846ZM72.9336 14.5346C73.1232 14.5346 73.276 14.3792 73.276 14.1922C73.276 14.0026 73.1232 13.8498 72.9336 13.8498C72.7466 13.8498 72.5912 14.0026 72.5912 14.1922C72.5912 14.3792 72.7466 14.5346 72.9336 14.5346ZM72.9336 16.5732C73.1232 16.5732 73.276 16.4178 73.276 16.2308C73.276 16.0412 73.1232 15.8884 72.9336 15.8884C72.7466 15.8884 72.5912 16.0412 72.5912 16.2308C72.5912 16.4178 72.7466 16.5732 72.9336 16.5732ZM74.1938 17.3555L75.5634 12.5803H75.1788L73.8093 17.3555H74.1938ZM76.044 17.3555L77.4136 12.5803H77.0291L75.6595 17.3555H76.044ZM77.9153 16.5469H78.3683V14.7875C78.3683 14.3871 78.6554 14.0658 79.0268 14.0658C79.385 14.0658 79.6194 14.2818 79.6194 14.6189V16.5469H80.0724V14.7216C80.0724 14.3608 80.3358 14.0658 80.7308 14.0658C81.1312 14.0658 81.3287 14.2713 81.3287 14.69V16.5469H81.7817V14.5847C81.7817 13.9894 81.4578 13.6576 80.8783 13.6576C80.4859 13.6576 80.1619 13.8551 80.0092 14.1554H79.967C79.8353 13.8604 79.5667 13.6576 79.1822 13.6576C78.8029 13.6576 78.5184 13.8393 78.3894 14.1554H78.3472V13.7076H77.9153V16.5469ZM82.7997 17.5741C83.3027 17.5741 83.5292 17.3792 83.7715 16.7207L84.8804 13.7076H84.3984L83.6214 16.0438H83.5793L82.7997 13.7076H82.3098L83.3607 16.5495L83.308 16.7181C83.1895 17.0605 83.0472 17.1843 82.7865 17.1843C82.7233 17.1843 82.6522 17.1816 82.5968 17.1711V17.5583C82.6601 17.5688 82.7391 17.5741 82.7997 17.5741ZM86.2249 16.5969C86.6042 16.5969 86.9149 16.431 87.0993 16.1281H87.1415V16.5469H87.5734V14.6031C87.5734 14.0131 87.1862 13.6576 86.4935 13.6576C85.8878 13.6576 85.44 13.9578 85.3794 14.4135H85.8377C85.9009 14.1896 86.138 14.0605 86.4777 14.0605C86.9018 14.0605 87.1204 14.2528 87.1204 14.6031V14.8612L86.3013 14.9113C85.6402 14.9508 85.2662 15.2431 85.2662 15.7515C85.2662 16.2703 85.6744 16.5969 86.2249 16.5969ZM86.3092 16.1992C85.9799 16.1992 85.735 16.0306 85.735 15.7409C85.735 15.4565 85.9246 15.3063 86.3566 15.2774L87.1204 15.2273V15.4881C87.1204 15.8937 86.7754 16.1992 86.3092 16.1992ZM89.5158 16.5969C89.9082 16.5969 90.2454 16.4099 90.4245 16.0939H90.4666V16.5469H90.8985V12.5803H90.4455V14.1554H90.406C90.2454 13.8446 89.9109 13.6576 89.5158 13.6576C88.7941 13.6576 88.3227 14.237 88.3227 15.1272C88.3227 16.0201 88.7889 16.5969 89.5158 16.5969ZM89.6211 14.0658C90.1347 14.0658 90.4561 14.4767 90.4561 15.1272C90.4561 15.7831 90.1374 16.1887 89.6211 16.1887C89.1023 16.1887 88.7915 15.791 88.7915 15.1272C88.7915 14.4662 89.1049 14.0658 89.6211 14.0658ZM91.8322 16.5469H92.2852V14.7875C92.2852 14.3871 92.5723 14.0658 92.9437 14.0658C93.3019 14.0658 93.5363 14.2818 93.5363 14.6189V16.5469H93.9893V14.7216C93.9893 14.3608 94.2527 14.0658 94.6477 14.0658C95.0481 14.0658 95.2456 14.2713 95.2456 14.69V16.5469H95.6986V14.5847C95.6986 13.9894 95.3747 13.6576 94.7952 13.6576C94.4028 13.6576 94.0788 13.8551 93.9261 14.1554H93.8839C93.7522 13.8604 93.4836 13.6576 93.0991 13.6576C92.7198 13.6576 92.4353 13.8393 92.3063 14.1554H92.2641V13.7076H91.8322V16.5469ZM96.8166 13.1598C96.9905 13.1598 97.1327 13.0176 97.1327 12.8437C97.1327 12.6699 96.9905 12.5277 96.8166 12.5277C96.6428 12.5277 96.5006 12.6699 96.5006 12.8437C96.5006 13.0176 96.6428 13.1598 96.8166 13.1598ZM96.5901 16.5469H97.0432V13.7076H96.5901V16.5469ZM97.961 16.5469H98.414V14.8665C98.414 14.3687 98.7064 14.0658 99.1594 14.0658C99.6124 14.0658 99.8284 14.3081 99.8284 14.8191V16.5469H100.281V14.7085C100.281 14.0342 99.9258 13.6576 99.2884 13.6576C98.8539 13.6576 98.5773 13.8419 98.4351 14.1554H98.3929V13.7076H97.961V16.5469ZM101.539 16.5732C101.729 16.5732 101.881 16.4178 101.881 16.2308C101.881 16.0412 101.729 15.8884 101.539 15.8884C101.352 15.8884 101.197 16.0412 101.197 16.2308C101.197 16.4178 101.352 16.5732 101.539 16.5732ZM103.61 16.5969C103.99 16.5969 104.3 16.431 104.485 16.1281H104.527V16.5469H104.959V14.6031C104.959 14.0131 104.572 13.6576 103.879 13.6576C103.273 13.6576 102.826 13.9578 102.765 14.4135H103.223C103.286 14.1896 103.524 14.0605 103.863 14.0605C104.287 14.0605 104.506 14.2528 104.506 14.6031V14.8612L103.687 14.9113C103.026 14.9508 102.652 15.2431 102.652 15.7515C102.652 16.2703 103.06 16.5969 103.61 16.5969ZM103.695 16.1992C103.365 16.1992 103.121 16.0306 103.121 15.7409C103.121 15.4565 103.31 15.3063 103.742 15.2774L104.506 15.2273V15.4881C104.506 15.8937 104.161 16.1992 103.695 16.1992ZM106.04 12.9728V13.7076H105.582V14.0869H106.04V15.8094C106.04 16.352 106.274 16.5679 106.859 16.5679C106.949 16.5679 107.036 16.5574 107.125 16.5416V16.1597C107.041 16.1676 106.996 16.1702 106.915 16.1702C106.62 16.1702 106.493 16.028 106.493 15.6935V14.0869H107.125V13.7076H106.493V12.9728H106.04ZM107.89 16.5469H108.343V12.5803H107.89V16.5469ZM110.067 16.5969C110.446 16.5969 110.757 16.431 110.942 16.1281H110.984V16.5469H111.416V14.6031C111.416 14.0131 111.028 13.6576 110.336 13.6576C109.73 13.6576 109.282 13.9578 109.222 14.4135H109.68C109.743 14.1896 109.98 14.0605 110.32 14.0605C110.744 14.0605 110.963 14.2528 110.963 14.6031V14.8612L110.143 14.9113C109.482 14.9508 109.108 15.2431 109.108 15.7515C109.108 16.2703 109.517 16.5969 110.067 16.5969ZM110.151 16.1992C109.822 16.1992 109.577 16.0306 109.577 15.7409C109.577 15.4565 109.767 15.3063 110.199 15.2774L110.963 15.2273V15.4881C110.963 15.8937 110.618 16.1992 110.151 16.1992ZM112.241 14.4846C112.241 14.8955 112.484 15.1246 113.016 15.2537L113.503 15.3722C113.806 15.4459 113.953 15.5776 113.953 15.7725C113.953 16.0333 113.679 16.215 113.297 16.215C112.934 16.215 112.707 16.0623 112.631 15.8226H112.165C112.215 16.294 112.649 16.5969 113.282 16.5969C113.927 16.5969 114.419 16.2466 114.419 15.7383C114.419 15.33 114.161 15.0983 113.627 14.9692L113.189 14.8639C112.855 14.7822 112.697 14.6611 112.697 14.4662C112.697 14.2133 112.96 14.0421 113.297 14.0421C113.64 14.0421 113.861 14.1922 113.922 14.4187H114.369C114.309 13.9526 113.895 13.6576 113.3 13.6576C112.697 13.6576 112.241 14.0131 112.241 14.4846ZM115.066 14.4846C115.066 14.8955 115.308 15.1246 115.84 15.2537L116.328 15.3722C116.63 15.4459 116.778 15.5776 116.778 15.7725C116.778 16.0333 116.504 16.215 116.122 16.215C115.759 16.215 115.532 16.0623 115.456 15.8226H114.99C115.04 16.294 115.474 16.5969 116.106 16.5969C116.752 16.5969 117.244 16.2466 117.244 15.7383C117.244 15.33 116.986 15.0983 116.451 14.9692L116.014 14.8639C115.68 14.7822 115.522 14.6611 115.522 14.4662C115.522 14.2133 115.785 14.0421 116.122 14.0421C116.465 14.0421 116.686 14.1922 116.746 14.4187H117.194C117.134 13.9526 116.72 13.6576 116.125 13.6576C115.522 13.6576 115.066 14.0131 115.066 14.4846ZM118.246 13.1598C118.42 13.1598 118.562 13.0176 118.562 12.8437C118.562 12.6699 118.42 12.5277 118.246 12.5277C118.072 12.5277 117.93 12.6699 117.93 12.8437C117.93 13.0176 118.072 13.1598 118.246 13.1598ZM118.02 16.5469H118.473V13.7076H118.02V16.5469ZM120.181 16.5969C120.56 16.5969 120.871 16.431 121.055 16.1281H121.097V16.5469H121.529V14.6031C121.529 14.0131 121.142 13.6576 120.449 13.6576C119.844 13.6576 119.396 13.9578 119.335 14.4135H119.794C119.857 14.1896 120.094 14.0605 120.434 14.0605C120.858 14.0605 121.076 14.2528 121.076 14.6031V14.8612L120.257 14.9113C119.596 14.9508 119.222 15.2431 119.222 15.7515C119.222 16.2703 119.63 16.5969 120.181 16.5969ZM120.265 16.1992C119.936 16.1992 119.691 16.0306 119.691 15.7409C119.691 15.4565 119.88 15.3063 120.312 15.2774L121.076 15.2273V15.4881C121.076 15.8937 120.731 16.1992 120.265 16.1992ZM122.421 16.5469H122.874V14.8665C122.874 14.3687 123.166 14.0658 123.619 14.0658C124.072 14.0658 124.288 14.3081 124.288 14.8191V16.5469H124.741V14.7085C124.741 14.0342 124.386 13.6576 123.748 13.6576C123.314 13.6576 123.037 13.8419 122.895 14.1554H122.853V13.7076H122.421V16.5469ZM125.999 16.5732C126.188 16.5732 126.341 16.4178 126.341 16.2308C126.341 16.0412 126.188 15.8884 125.999 15.8884C125.812 15.8884 125.656 16.0412 125.656 16.2308C125.656 16.4178 125.812 16.5732 125.999 16.5732ZM127.28 16.5469H127.733V14.8665C127.733 14.3687 128.025 14.0658 128.478 14.0658C128.931 14.0658 129.147 14.3081 129.147 14.8191V16.5469H129.6V14.7085C129.6 14.0342 129.245 13.6576 128.608 13.6576C128.173 13.6576 127.896 13.8419 127.754 14.1554H127.712V13.7076H127.28V16.5469ZM132.365 15.812C132.246 16.0623 131.998 16.1966 131.632 16.1966C131.15 16.1966 130.837 15.841 130.813 15.28V15.2589H132.854V15.0851C132.854 14.2028 132.388 13.6576 131.622 13.6576C130.842 13.6576 130.342 14.237 130.342 15.1299C130.342 16.028 130.834 16.5969 131.622 16.5969C132.243 16.5969 132.686 16.2967 132.818 15.812H132.365ZM131.617 14.0579C132.067 14.0579 132.367 14.3898 132.378 14.8928H130.813C130.848 14.3898 131.164 14.0579 131.617 14.0579ZM133.809 12.9728V13.7076H133.351V14.0869H133.809V15.8094C133.809 16.352 134.044 16.5679 134.628 16.5679C134.718 16.5679 134.805 16.5574 134.894 16.5416V16.1597C134.81 16.1676 134.765 16.1702 134.684 16.1702C134.389 16.1702 134.262 16.028 134.262 15.6935V14.0869H134.894V13.7076H134.262V12.9728H133.809Z" fill="#97A0AF"/>
<path d="M11.1328 25.248H31.2278V154.039H13.873C12.3597 154.039 11.1328 152.812 11.1328 151.298V25.248Z" fill="#253858"/>
<path d="M19.6674 34.1948C19.6301 34.146 19.5809 34.1077 19.5245 34.0835C19.4681 34.0593 19.4064 34.0501 19.3454 34.0568C19.2843 34.0635 19.2261 34.0858 19.1762 34.1216C19.1264 34.1574 19.0866 34.2055 19.0608 34.2612L15.9844 40.414C15.9563 40.47 15.9429 40.5323 15.9457 40.5949C15.9484 40.6575 15.967 40.7184 15.9999 40.7717C16.0328 40.8251 16.0787 40.8692 16.1334 40.8998C16.188 40.9304 16.2496 40.9465 16.3123 40.9467H20.5962C20.6655 40.948 20.7337 40.929 20.7924 40.8919C20.851 40.8548 20.8974 40.8014 20.926 40.7382C21.8491 38.8426 21.2899 35.9292 19.6674 34.1948Z" fill="url(#paint0_linear)"/>
<path d="M21.9263 28.607C21.1594 29.7868 20.7125 31.1458 20.6294 32.5505C20.5463 33.9552 20.8299 35.3574 21.4524 36.6194L23.528 40.7384C23.5583 40.7996 23.605 40.8511 23.6629 40.8873C23.7209 40.9235 23.7877 40.9428 23.856 40.9431H28.1399C28.1999 40.9381 28.2579 40.9189 28.3091 40.8871C28.3602 40.8552 28.403 40.8117 28.434 40.76C28.4649 40.7083 28.4831 40.6499 28.487 40.5898C28.4909 40.5297 28.4804 40.4695 28.4564 40.4142L22.5518 28.607C22.5236 28.5481 22.4792 28.4983 22.4239 28.4635C22.3685 28.4286 22.3045 28.4102 22.2391 28.4102C22.1737 28.4102 22.1096 28.4286 22.0543 28.4635C21.999 28.4983 21.9546 28.5481 21.9263 28.607Z" fill="white"/>
<path d="M11.1328 25.248H230.351V152.212C230.351 153.221 229.533 154.039 228.524 154.039H12.9596C11.9507 154.039 11.1328 153.221 11.1328 152.212V25.248Z" fill="#091E42" fill-opacity="0.48"/>
<g filter="url(#filter1_dd)">
<rect x="82.375" y="45.3438" width="82.2068" height="48.4107" rx="1.82682" fill="white"/>
</g>
<rect x="90.5944" y="61.7848" width="67.5922" height="11.8743" rx="2.74023" fill="white" stroke="#0065FF" stroke-width="1.82682"/>
<rect x="139.006" y="79.1396" width="18.2682" height="9.13408" rx="1.82682" fill="#0065FF"/>
<rect x="118.91" y="79.1396" width="18.2682" height="9.13408" rx="1.82682" fill="#EBECF0"/>
<path d="M94.4689 69.4114C95.0273 69.4114 95.3378 68.9333 95.3378 68.0663C95.3378 67.1992 95.0273 66.7211 94.4689 66.7211C93.9088 66.7211 93.6001 67.1992 93.6001 68.0663C93.6001 68.9333 93.9088 69.4114 94.4689 69.4114ZM93.9123 68.0663C93.9123 67.3669 94.105 66.9994 94.4689 66.9994C94.7116 66.9994 94.8793 67.1636 94.9631 67.4829L93.9248 68.3499C93.9177 68.2625 93.9123 68.168 93.9123 68.0663ZM94.4689 69.1331C94.2263 69.1331 94.0604 68.969 93.9766 68.6532L95.0113 67.7791C95.0202 67.8683 95.0238 67.9628 95.0238 68.0663C95.0238 68.7638 94.8329 69.1331 94.4689 69.1331ZM97.0272 69.3525H97.3144V68.8084H97.7087V68.5319H97.3162V67.8005H97.0308V68.5355H96.1869V68.5123L97.0486 66.7782H96.7275L95.8533 68.5533V68.8084H97.0272V69.3525ZM98.9843 69.3632C99.1609 69.3632 99.3072 69.2152 99.3072 69.0332C99.3072 68.853 99.1609 68.7049 98.9843 68.7049C98.8076 68.7049 98.6613 68.853 98.6613 69.0332C98.6613 69.2152 98.8076 69.3632 98.9843 69.3632ZM102.215 69.3525V69.076H101.491V66.7782H101.182L100.415 67.276V67.6114L101.152 67.135H101.18V69.076H100.42V69.3525H102.215ZM102.622 67.6042C102.622 68.0752 102.959 68.4213 103.419 68.4213C103.582 68.4213 103.764 68.3446 103.84 68.2411L103.867 68.2554C103.851 68.2839 103.839 68.3071 103.78 68.3874L103.079 69.3525H103.439C103.459 69.3258 103.992 68.5765 104.015 68.5373C104.268 68.1697 104.372 67.8968 104.372 67.6042C104.372 67.0904 104.006 66.7247 103.498 66.7247C102.989 66.7247 102.622 67.094 102.622 67.6042ZM103.496 67.0048C103.821 67.0048 104.067 67.2581 104.067 67.5882C104.067 67.92 103.821 68.1733 103.496 68.1733C103.173 68.1733 102.927 67.92 102.927 67.5882C102.927 67.2581 103.173 67.0048 103.496 67.0048ZM104.939 67.5025V67.5132H105.243V67.5025C105.243 67.1992 105.439 67.0012 105.735 67.0012C106.035 67.0012 106.229 67.1832 106.229 67.4597C106.229 67.6631 106.151 67.8005 105.824 68.1662L104.954 69.1349V69.3525H106.582V69.0671H105.403V69.0368L106.01 68.3767C106.42 67.9289 106.541 67.7148 106.541 67.4472C106.541 67.0173 106.217 66.7247 105.744 66.7247C105.275 66.7247 104.939 67.0494 104.939 67.5025ZM108.018 69.3632C108.195 69.3632 108.341 69.2152 108.341 69.0332C108.341 68.853 108.195 68.7049 108.018 68.7049C107.842 68.7049 107.696 68.853 107.696 69.0332C107.696 69.2152 107.842 69.3632 108.018 69.3632ZM111.249 69.3525V69.076H110.525V66.7782H110.216L109.449 67.276V67.6114L110.186 67.135H110.215V69.076H109.455V69.3525H111.249ZM112.837 69.3525H113.124V68.8084H113.519V68.5319H113.126V67.8005H112.841V68.5355H111.997V68.5123L112.858 66.7782H112.537L111.663 68.5533V68.8084H112.837V69.3525ZM114.48 68.159H114.774C115.131 68.159 115.358 68.3499 115.358 68.6496C115.358 68.9404 115.138 69.1224 114.785 69.1224C114.464 69.1224 114.236 68.944 114.207 68.6693H113.909C113.932 69.1135 114.286 69.4061 114.794 69.4061C115.308 69.4061 115.675 69.0939 115.675 68.6568C115.675 68.3053 115.472 68.0645 115.129 68.0199V67.9913C115.406 67.9236 115.568 67.7023 115.568 67.3919C115.568 67.0012 115.24 66.7247 114.78 66.7247C114.303 66.7247 113.989 67.0012 113.959 67.4472H114.261C114.286 67.1707 114.478 67.0012 114.767 67.0012C115.058 67.0012 115.251 67.1743 115.251 67.4365C115.251 67.7059 115.049 67.895 114.76 67.895H114.48V68.159ZM117.053 69.3632C117.229 69.3632 117.376 69.2152 117.376 69.0332C117.376 68.853 117.229 68.7049 117.053 68.7049C116.876 68.7049 116.73 68.853 116.73 69.0332C116.73 69.2152 116.876 69.3632 117.053 69.3632ZM119.313 69.4114C119.871 69.4114 120.182 68.9333 120.182 68.0663C120.182 67.1992 119.871 66.7211 119.313 66.7211C118.753 66.7211 118.444 67.1992 118.444 68.0663C118.444 68.9333 118.753 69.4114 119.313 69.4114ZM118.756 68.0663C118.756 67.3669 118.949 66.9994 119.313 66.9994C119.556 66.9994 119.723 67.1636 119.807 67.4829L118.769 68.3499C118.762 68.2625 118.756 68.168 118.756 68.0663ZM119.313 69.1331C119.07 69.1331 118.904 68.969 118.821 68.6532L119.855 67.7791C119.864 67.8683 119.868 67.9628 119.868 68.0663C119.868 68.7638 119.677 69.1331 119.313 69.1331ZM121.256 68.159H121.55C121.907 68.159 122.133 68.3499 122.133 68.6496C122.133 68.9404 121.914 69.1224 121.561 69.1224C121.24 69.1224 121.011 68.944 120.983 68.6693H120.685C120.708 69.1135 121.061 69.4061 121.57 69.4061C122.084 69.4061 122.451 69.0939 122.451 68.6568C122.451 68.3053 122.248 68.0645 121.905 68.0199V67.9913C122.182 67.9236 122.344 67.7023 122.344 67.3919C122.344 67.0012 122.016 66.7247 121.555 66.7247C121.079 66.7247 120.765 67.0012 120.735 67.4472H121.036C121.061 67.1707 121.254 67.0012 121.543 67.0012C121.834 67.0012 122.026 67.1743 122.026 67.4365C122.026 67.7059 121.825 67.895 121.536 67.895H121.256V68.159ZM123.837 69.4096C124.372 69.4096 124.743 69.1028 124.743 68.6639C124.743 68.3392 124.531 68.0734 124.219 68.0074V67.9789C124.481 67.9057 124.64 67.6863 124.64 67.4062C124.64 67.0048 124.306 66.7211 123.837 66.7211C123.368 66.7211 123.033 67.0048 123.033 67.4062C123.033 67.6863 123.195 67.9075 123.454 67.9789V68.0074C123.136 68.0841 122.929 68.3446 122.929 68.6639C122.929 69.1028 123.302 69.4096 123.837 69.4096ZM123.837 67.8718C123.539 67.8718 123.341 67.697 123.341 67.433C123.341 67.1707 123.539 66.9959 123.837 66.9959C124.135 66.9959 124.331 67.1707 124.331 67.433C124.331 67.697 124.135 67.8718 123.837 67.8718ZM123.837 69.1367C123.488 69.1367 123.247 68.9333 123.247 68.6389C123.247 68.3446 123.488 68.1412 123.837 68.1412C124.187 68.1412 124.428 68.3446 124.428 68.6389C124.428 68.9333 124.187 69.1367 123.837 69.1367Z" fill="black"/>
<rect x="89.6816" y="52.0645" width="43.0028" height="4.94456" rx="2.47228" fill="#DFE1E6"/>
<defs>
<filter id="filter0_dd" x="0.17191" y="0.585624" width="241.281" height="172.057" filterUnits="userSpaceOnUse" color-interpolation-filters="sRGB">
<feFlood flood-opacity="0" result="BackgroundImageFix"/>
<feColorMatrix in="SourceAlpha" type="matrix" values="0 0 0 0 0 0 0 0 0 0 0 0 0 0 0 0 0 0 127 0"/>
<feOffset/>
<feGaussianBlur stdDeviation="0.456704"/>
<feColorMatrix type="matrix" values="0 0 0 0 0.0352941 0 0 0 0 0.117647 0 0 0 0 0.258824 0 0 0 0.31 0"/>
<feBlend mode="normal" in2="BackgroundImageFix" result="effect1_dropShadow"/>
<feColorMatrix in="SourceAlpha" type="matrix" values="0 0 0 0 0 0 0 0 0 0 0 0 0 0 0 0 0 0 127 0"/>
<feOffset dy="7.30727"/>
<feGaussianBlur stdDeviation="5.48045"/>
<feColorMatrix type="matrix" values="0 0 0 0 0.0352941 0 0 0 0 0.117647 0 0 0 0 0.258824 0 0 0 0.15 0"/>
<feBlend mode="normal" in2="effect1_dropShadow" result="effect2_dropShadow"/>
<feBlend mode="normal" in="SourceGraphic" in2="effect2_dropShadow" result="shape"/>
</filter>
<filter id="filter1_dd" x="65.9336" y="38.0365" width="115.089" height="81.2934" filterUnits="userSpaceOnUse" color-interpolation-filters="sRGB">
<feFlood flood-opacity="0" result="BackgroundImageFix"/>
<feColorMatrix in="SourceAlpha" type="matrix" values="0 0 0 0 0 0 0 0 0 0 0 0 0 0 0 0 0 0 127 0"/>
<feOffset/>
<feGaussianBlur stdDeviation="0.456704"/>
<feColorMatrix type="matrix" values="0 0 0 0 0.0352941 0 0 0 0 0.117647 0 0 0 0 0.258824 0 0 0 0.31 0"/>
<feBlend mode="normal" in2="BackgroundImageFix" result="effect1_dropShadow"/>
<feColorMatrix in="SourceAlpha" type="matrix" values="0 0 0 0 0 0 0 0 0 0 0 0 0 0 0 0 0 0 127 0"/>
<feOffset dy="9.13408"/>
<feGaussianBlur stdDeviation="8.22068"/>
<feColorMatrix type="matrix" values="0 0 0 0 0.0352941 0 0 0 0 0.117647 0 0 0 0 0.258824 0 0 0 0.15 0"/>
<feBlend mode="normal" in2="effect1_dropShadow" result="effect2_dropShadow"/>
<feBlend mode="normal" in="SourceGraphic" in2="effect2_dropShadow" result="shape"/>
</filter>
<linearGradient id="paint0_linear" x1="21.3635" y1="35.1446" x2="18.1146" y2="40.7753" gradientUnits="userSpaceOnUse">
<stop stop-color="white" stop-opacity="0.4"/>
<stop offset="0.92" stop-color="white"/>
</linearGradient>
</defs>
</svg>
