<svg width="133" height="230" viewBox="0 0 133 230" fill="none" xmlns="http://www.w3.org/2000/svg">
<path d="M0 9.7498L0 219.3C0 224.685 4.36522 229.05 9.75 229.05H122.79C128.175 229.05 132.54 224.685 132.54 219.3V9.7498C132.54 4.36502 128.175 -0.000198364 122.79 -0.000198364H9.75C4.36522 -0.000198364 0 4.36502 0 9.7498Z" fill="#172B4D"/>
<path d="M7.86011 16.4698L7.86011 192.57C7.86011 194.078 9.08237 195.3 10.5901 195.3H121.96C123.468 195.3 124.69 194.078 124.69 192.57L124.69 16.4698C124.69 14.9621 123.468 13.7398 121.96 13.7398H10.5901C9.08237 13.7398 7.86011 14.9621 7.86011 16.4698Z" fill="#ECEEF1"/>
<path d="M119.07 174.09H13.8901V195.3H119.07V174.09Z" fill="white"/>
<path d="M40.6099 195.3C33.0699 195.3 29.8399 195.3 23.1599 195.3C23.2365 193.037 24.1893 190.892 25.8172 189.319C27.4451 187.745 29.6207 186.865 31.8849 186.865C34.1491 186.865 36.3247 187.745 37.9526 189.319C39.5805 190.892 40.5333 193.037 40.6099 195.3Z" fill="#0065FF"/>
<path d="M119.07 43.4702H13.8901V78.9202H119.07V43.4702Z" fill="white"/>
<path d="M31.8899 70.71C36.7058 70.71 40.6099 66.8059 40.6099 61.99C40.6099 57.1741 36.7058 53.27 31.8899 53.27C27.074 53.27 23.1699 57.1741 23.1699 61.99C23.1699 66.8059 27.074 70.71 31.8899 70.71Z" fill="#FFD740"/>
<path d="M49.3401 50.6099H112.42" stroke="#A5ADBA" stroke-width="2" stroke-miterlimit="10"/>
<path d="M49.3401 71.7798H80.3801" stroke="#A5ADBA" stroke-width="2" stroke-miterlimit="10"/>
<path d="M49.3401 60.98H112.42" stroke="#A5ADBA" stroke-width="2" stroke-miterlimit="10"/>
<path d="M119.07 86.48H13.8901V121.93H119.07V86.48Z" fill="white"/>
<path d="M31.8899 113.72C36.7058 113.72 40.6099 109.816 40.6099 105C40.6099 100.184 36.7058 96.2798 31.8899 96.2798C27.074 96.2798 23.1699 100.184 23.1699 105C23.1699 109.816 27.074 113.72 31.8899 113.72Z" fill="#0065FF"/>
<path d="M49.3401 93.6201H112.42" stroke="#A5ADBA" stroke-width="2" stroke-miterlimit="10"/>
<path d="M49.3401 114.79H80.3801" stroke="#A5ADBA" stroke-width="2" stroke-miterlimit="10"/>
<path d="M49.3401 103.99H112.42" stroke="#A5ADBA" stroke-width="2" stroke-miterlimit="10"/>
<path d="M119.07 130.55H13.8901V166H119.07V130.55Z" fill="white"/>
<path d="M31.8899 157C36.7058 157 40.6099 153.096 40.6099 148.28C40.6099 143.464 36.7058 139.56 31.8899 139.56C27.074 139.56 23.1699 143.464 23.1699 148.28C23.1699 153.096 27.074 157 31.8899 157Z" fill="#42526E"/>
<path d="M49.3401 137.69H112.42" stroke="#A5ADBA" stroke-width="2" stroke-miterlimit="10"/>
<path d="M49.3401 158.86H80.3801" stroke="#A5ADBA" stroke-width="2" stroke-miterlimit="10"/>
<path d="M49.3401 148.06H112.42" stroke="#A5ADBA" stroke-width="2" stroke-miterlimit="10"/>
<path d="M121.95 13.7402H10.5901C10.2316 13.7402 9.87661 13.8108 9.54539 13.948C9.21417 14.0852 8.91321 14.2863 8.65971 14.5398C8.4062 14.7933 8.20511 15.0943 8.06792 15.4255C7.93072 15.7567 7.86011 16.1117 7.86011 16.4702V36.1302H124.68V16.4702C124.68 16.1117 124.609 15.7567 124.472 15.4255C124.335 15.0943 124.134 14.7933 123.881 14.5398C123.627 14.2863 123.326 14.0852 122.995 13.948C122.664 13.8108 122.309 13.7402 121.95 13.7402Z" fill="#97A0AF"/>
<path opacity="0.26" d="M28.5201 175.02C22.4856 181.535 15.5241 187.125 7.86011 191.61V192.61C7.86011 193.334 8.14773 194.029 8.65971 194.541C9.17168 195.053 9.86607 195.34 10.5901 195.34H121.95C122.674 195.34 123.369 195.053 123.881 194.541C124.392 194.029 124.68 193.334 124.68 192.61V16.4702C124.68 15.7462 124.392 15.0518 123.881 14.5398C123.369 14.0279 122.674 13.7402 121.95 13.7402H117.15C115.46 15.6802 113.78 17.6702 112.15 19.7402C70.7701 71.7702 68.4101 131.53 28.5201 175.02Z" fill="url(#paint0_linear)"/>
<path d="M66.2701 220.91C71.1854 220.91 75.1701 216.925 75.1701 212.01C75.1701 207.095 71.1854 203.11 66.2701 203.11C61.3548 203.11 57.3701 207.095 57.3701 212.01C57.3701 216.925 61.3548 220.91 66.2701 220.91Z" stroke="#5E6C84" stroke-width="2" stroke-miterlimit="10"/>
<path d="M54.48 6.06006H78.06" stroke="#5E6C84" stroke-width="2" stroke-miterlimit="10" stroke-linecap="round"/>
<defs>
<linearGradient id="paint0_linear" x1="2.33011" y1="104.52" x2="124.8" y2="104.52" gradientUnits="userSpaceOnUse">
<stop offset="0.18" stop-color="white" stop-opacity="0"/>
<stop offset="0.32" stop-color="white" stop-opacity="0.17"/>
<stop offset="0.79" stop-color="white" stop-opacity="0.76"/>
<stop offset="1" stop-color="white"/>
</linearGradient>
</defs>
</svg>
