<svg width="191" height="180" viewBox="0 0 191 180" fill="none" xmlns="http://www.w3.org/2000/svg">
<g clip-path="url(#clip0)">
<rect width="190.703" height="180" fill="white" fill-opacity="0.01"/>
<path d="M74.6677 34.7219L18.398 29.6077C17.5774 29.5323 16.9121 28.7028 16.9121 27.7536V15.7554C16.9121 14.8062 17.5774 14.1187 18.398 14.2163L74.6677 20.9672C75.3197 21.047 75.8476 21.7922 75.8476 22.635V33.3025C75.8476 34.1453 75.3197 34.784 74.6677 34.7219ZM125.082 39.3039L80.7267 35.2719C80.088 35.2143 79.569 34.4868 79.569 33.6529V23.0697C79.569 22.2313 80.088 21.6192 80.7267 21.6946L125.082 27.0173C125.601 27.0794 126.027 27.7403 126.027 28.4944V38.0264C126.027 38.7805 125.606 39.3527 125.082 39.3039ZM74.6677 147.244L18.398 155.511C17.5774 155.631 16.9121 154.961 16.9121 154.012V35.0768C16.9121 34.1276 17.5774 33.4134 18.398 33.4844L74.6677 38.1861C75.3197 38.2393 75.8476 38.9668 75.8476 39.8095V145.54C75.8476 146.387 75.3197 147.15 74.6677 147.244ZM126.027 138.337V43.8459C126.027 43.0918 125.606 42.4443 125.082 42.4043L80.7267 38.6962C80.088 38.643 79.569 39.2773 79.569 40.1156V145.012C79.569 145.851 80.088 146.45 80.7267 146.356L125.082 139.841C125.606 139.761 126.027 139.087 126.027 138.337ZM165.726 42.9987L129.851 39.7386C129.341 39.6942 128.924 39.0466 128.924 38.3014V28.8315C128.924 28.0819 129.341 27.5274 129.851 27.5895L165.726 31.892C166.151 31.9452 166.497 32.5352 166.497 33.2183V41.8366C166.497 42.5197 166.151 43.0386 165.726 42.9987ZM166.497 132.522V47.0972C166.497 46.4141 166.151 45.833 165.726 45.7975L129.851 42.7991C129.341 42.7547 128.924 43.3269 128.924 44.0765V137.916C128.924 138.665 129.341 139.211 129.851 139.135L165.726 133.866C166.151 133.804 166.497 133.201 166.497 132.522Z" fill="url(#paint0_linear)"/>
<path d="M68.9775 93.9812C68.9775 95.9462 67.7266 97.5918 66.1742 97.6583C64.6129 97.7249 63.3398 96.1635 63.3398 94.172C63.3398 92.1804 64.6129 90.5348 66.1742 90.4949C67.7266 90.455 68.9775 92.0163 68.9775 93.9812Z" fill="#FFAB00"/>
<path d="M68.2001 79.1689L26.2617 79.3428L26.2665 80.4916L68.2048 80.3177L68.2001 79.1689Z" fill="#B2D4FF"/>
<path d="M55.7096 85.6826L26.25 86.1924L26.2699 87.341L55.7295 86.8312L55.7096 85.6826Z" fill="#B2D4FF"/>
<path d="M31.7416 99.082L27.3415 99.2638C26.7471 99.2905 26.2637 98.7404 26.2637 98.0441V92.819C26.2637 92.1181 26.7471 91.5415 27.3415 91.5238L31.7416 91.4084C32.3227 91.3951 32.7973 91.9407 32.7973 92.6282V97.7868C32.7928 98.4788 32.3227 99.0598 31.7416 99.082Z" fill="#FFAB00"/>
<g opacity="0.5">
<path opacity="0.5" d="M71.1725 131.204L22.705 136.642C22.1017 136.709 21.6094 136.194 21.6094 135.489V109.239C21.6094 108.534 22.1017 107.935 22.705 107.9L71.1725 105.114C71.6693 105.088 72.0729 105.58 72.0729 106.219V129.954C72.0729 130.588 71.6693 131.151 71.1725 131.204Z" stroke="white" stroke-width="2.2561" stroke-linejoin="round" stroke-dasharray="12.37 12.37"/>
</g>
<path opacity="0.1" d="M160.542 75.6844L129.888 75.1965C129.511 75.192 129.209 74.7352 129.209 74.1763V53.4178C129.209 52.8589 129.515 52.4287 129.888 52.4553L160.542 54.6376C160.861 54.6598 161.123 55.0944 161.123 55.609V74.7618C161.123 75.2763 160.866 75.6888 160.542 75.6844Z" fill="#0747A6"/>
<path d="M161.184 66.0729C161.184 67.6608 160.377 68.9294 159.374 68.9072C158.367 68.8851 157.547 67.5677 157.547 65.962C157.547 64.3563 158.367 63.0922 159.374 63.1277C160.377 63.1632 161.184 64.485 161.184 66.0729Z" fill="#0052CC"/>
<path d="M134.659 52.5305L134.59 53.6729L161.151 55.2694L161.22 54.1271L134.659 52.5305Z" fill="#B2D4FF"/>
<path d="M134.649 57.9604L134.596 59.1035L153.16 59.9733L153.214 58.8302L134.649 57.9604Z" fill="#B2D4FF"/>
<path d="M138.038 68.4143L135.293 68.3522C134.925 68.3434 134.623 67.8865 134.623 67.3321V63.1892C134.623 62.6348 134.925 62.1957 135.293 62.2134L138.038 62.3154C138.402 62.3287 138.699 62.7856 138.699 63.3356V67.4385C138.699 67.9841 138.402 68.4232 138.038 68.4143Z" fill="#2684FF"/>
<path opacity="0.1" d="M160.621 100.293L129.812 102.147C129.435 102.17 129.129 101.735 129.129 101.18V80.422C129.129 79.8631 129.435 79.4107 129.812 79.4107L160.621 79.251C160.945 79.251 161.203 79.6635 161.203 80.178V99.3308C161.203 99.8409 160.941 100.276 160.621 100.293Z" fill="#0747A6"/>
<path d="M68.8404 74.8058L20.3729 74.0429C19.7697 74.034 19.2773 73.453 19.2773 72.7477V46.498C19.2773 45.7928 19.7697 45.2561 20.3729 45.3004L68.8404 48.7202C69.3372 48.7557 69.7409 49.3013 69.7409 49.94V73.6748C69.7409 74.3002 69.3372 74.8103 68.8404 74.8058Z" fill="url(#paint1_linear)"/>
<path d="M71.1725 70.2111L22.705 69.4482C22.1017 69.4393 21.6094 68.8583 21.6094 68.153V41.9033C21.6094 41.198 22.1017 40.6613 22.705 40.7057L71.1725 44.1255C71.6693 44.161 72.0729 44.7066 72.0729 45.3453V69.0801C72.0729 69.7099 71.6693 70.22 71.1725 70.2111ZM72.0729 99.5125V75.7778C72.0729 75.139 71.6693 74.6201 71.1725 74.6156L22.705 74.3007C22.1017 74.2963 21.6094 74.864 21.6094 75.5693V101.819C21.6094 102.524 22.1017 103.074 22.705 103.043L71.1725 100.706C71.6693 100.684 72.0729 100.147 72.0729 99.5125ZM163.872 70.7434V51.5906C163.872 51.0761 163.614 50.6414 163.29 50.6192L132.636 48.4369C132.259 48.4103 131.958 48.8405 131.958 49.3994V70.1579C131.958 70.7168 132.264 71.1736 132.636 71.1781L163.29 71.666C163.61 71.6704 163.872 71.2579 163.872 70.7434ZM163.872 95.3076V76.1548C163.872 75.6403 163.61 75.2233 163.286 75.2189L132.352 75.0148C131.975 75.0104 131.665 75.4628 131.665 76.0217V96.7802C131.665 97.3391 131.971 97.7738 132.352 97.756L163.286 96.2657C163.61 96.2524 163.872 95.8221 163.872 95.3076Z" fill="url(#paint2_linear)"/>
<path d="M161.158 90.8543C161.158 92.4423 160.342 93.7641 159.331 93.804C158.315 93.8439 157.49 92.5798 157.49 90.9785C157.49 89.3773 158.315 88.0555 159.331 88.0289C160.342 87.9978 161.158 89.2664 161.158 90.8543Z" fill="#0065FF"/>
<path d="M161.156 78.7785L134.352 78.8896L134.356 80.0385L161.16 79.9273L161.156 78.7785Z" fill="#B2D4FF"/>
<path d="M153.066 83.9962L134.334 84.3203L134.354 85.4689L153.086 85.1448L153.066 83.9962Z" fill="#B2D4FF"/>
<path d="M137.804 94.6957L135.032 94.811C134.66 94.8243 134.354 94.3897 134.354 93.8352V89.6924C134.354 89.138 134.655 88.6811 135.032 88.6722L137.804 88.5968C138.173 88.5879 138.47 89.0226 138.47 89.5726V93.6755C138.47 94.2211 138.173 94.678 137.804 94.6957Z" fill="#57D9A3"/>
<path opacity="0.1" d="M100.692 70.0645C102.045 70.0645 103.265 69.479 104.112 68.5519L126.028 87.8955V84.7817L105.225 66.4184C105.296 66.0991 105.336 65.7664 105.336 65.4204C105.336 62.8611 103.251 60.7764 100.692 60.7764C98.1327 60.7764 96.0479 62.8611 96.0479 65.4204C96.0479 66.5204 96.4338 67.5273 97.0726 68.3257L80.1996 90.8983L79.5742 90.8939V120.24L106.525 117.791C106.986 117.751 107.363 117.184 107.363 116.532V92.1758C107.363 91.5238 106.99 90.9915 106.525 90.9871L83.1094 90.9028L98.9488 69.7185C99.4855 69.9403 100.075 70.0645 100.692 70.0645Z" fill="#0747A6"/>
<path opacity="0.1" d="M75.8481 120.582V90.8854L58.6558 90.8233C58.0215 90.8188 57.507 91.4442 57.507 92.2116V120.852C57.507 120.972 57.5247 121.087 57.5469 121.198L55.8791 123.429C55.307 123.176 54.6771 123.034 54.0118 123.034C52.415 123.034 51.0089 123.842 50.1706 125.07L25.2826 115.046C25.3003 114.873 25.3136 114.696 25.3136 114.518C25.3136 111.959 23.2289 109.874 20.6696 109.874C19.1216 109.874 17.751 110.641 16.9082 111.808V117.224C17.0901 117.477 17.2941 117.707 17.5203 117.916L16.9082 118.971V123.62L19.5784 119.02C19.9288 119.104 20.2925 119.153 20.6696 119.153C22.222 119.153 23.5926 118.386 24.4354 117.215L49.3855 127.266C49.3722 127.399 49.3633 127.532 49.3633 127.67C49.3633 130.229 51.448 132.314 54.0073 132.314C56.5667 132.314 58.6514 130.229 58.6514 127.67C58.6514 126.618 58.2965 125.651 57.7066 124.875L59.8357 122.028L75.8481 120.582Z" fill="#0747A6"/>
<path opacity="0.1" d="M161.579 42.6215L165.767 31.9007C165.753 31.8963 165.74 31.8918 165.727 31.8874L163.376 31.6035L159.162 42.3953L161.579 42.6215Z" fill="#0747A6"/>
<path opacity="0.1" d="M158.084 45.1582L138.812 94.4995C138.328 94.5439 137.862 94.6592 137.432 94.8411L128.934 87.3405V90.4543L135.551 96.2959C134.948 97.081 134.585 98.0569 134.585 99.1214C134.585 101.681 136.669 103.765 139.229 103.765C141.788 103.765 143.873 101.681 143.873 99.1214C143.873 97.254 142.759 95.6395 141.162 94.9076L160.515 45.3622L158.084 45.1582Z" fill="#0747A6"/>
<g opacity="0.5">
<g opacity="0.5">
<path opacity="0.5" d="M85.0967 141.969L82.4531 142.337V139.667" stroke="white" stroke-width="2.2561" stroke-linejoin="round"/>
<path opacity="0.5" d="M82.4531 134.114V48.0459" stroke="white" stroke-width="2.2561" stroke-linejoin="round" stroke-dasharray="12.52 12.52"/>
<path opacity="0.5" d="M82.4531 45.2693V42.6035L85.1145 42.8031" stroke="white" stroke-width="2.2561" stroke-linejoin="round"/>
<path opacity="0.5" d="M90.2422 43.1895L118.439 45.3185" stroke="white" stroke-width="2.2561" stroke-linejoin="round" stroke-dasharray="11.59 11.59"/>
<path opacity="0.5" d="M121.002 45.5137L123.663 45.7133V48.3835" stroke="white" stroke-width="2.2561" stroke-linejoin="round"/>
<path opacity="0.5" d="M123.664 53.4131V131.43" stroke="white" stroke-width="2.2561" stroke-linejoin="round" stroke-dasharray="11.35 11.35"/>
<path opacity="0.5" d="M123.663 133.945V136.616L121.02 136.984" stroke="white" stroke-width="2.2561" stroke-linejoin="round"/>
<path opacity="0.5" d="M115.888 137.693L87.6641 141.614" stroke="white" stroke-width="2.2561" stroke-linejoin="round" stroke-dasharray="11.68 11.68"/>
</g>
</g>
<path opacity="0.5" d="M68.7994 16.9129L17.848 10.1975C17.3113 10.1265 16.9121 9.66963 16.9121 9.12849V3.31346C16.9121 2.65699 17.4976 2.15134 18.1452 2.24449L69.0966 9.73173C69.6245 9.81157 70.0192 10.264 70.0192 10.8007V15.8484C70.0192 16.496 69.447 17.0016 68.7994 16.9129Z" fill="#4C9AFF"/>
<path d="M26.3008 46.0915L26.2324 47.2383L68.1706 49.7381L68.2389 48.5914L26.3008 46.0915Z" fill="#B2D4FF"/>
<path d="M68.9775 63.2909C68.9775 65.2558 67.7266 66.8216 66.1742 66.7861C64.6129 66.7506 63.3398 65.1094 63.3398 63.1179C63.3398 61.1263 64.6129 59.565 66.1742 59.6226C67.7266 59.6803 68.9775 61.3215 68.9775 63.2909Z" fill="#36B37E"/>
<path d="M26.2896 52.9413L26.2363 54.0889L55.696 55.4573L55.7493 54.3098L26.2896 52.9413Z" fill="#B2D4FF"/>
<path d="M148.206 36.8018L131.959 35.1384V32.4727L148.206 34.2424V36.8018Z" fill="#B2D4FF"/>
<path d="M47.3579 26.4716L21.6094 23.8369V20.4658L47.3579 23.2691V26.4716Z" fill="#B2D4FF"/>
<path d="M103.083 32.1805L82.8652 30.1091V27.1328L103.083 29.3329V32.1805Z" fill="#B2D4FF"/>
<path d="M1.16574 166.68C0.966135 166.68 0.766534 166.627 0.58024 166.521C0.021358 166.197 -0.164936 165.483 0.158861 164.924L30.3518 112.952L64.4525 126.685C65.0513 126.924 65.3396 127.607 65.1001 128.202C64.8606 128.8 64.1775 129.089 63.5831 128.849L31.3587 115.871L2.17705 166.099C1.9597 166.472 1.56937 166.68 1.16574 166.68Z" fill="url(#paint3_linear)"/>
<path d="M148.834 98.7008C148.661 98.7008 148.484 98.6609 148.32 98.5811C147.743 98.2972 147.504 97.5964 147.787 97.0197L182.695 25.9574C182.979 25.3808 183.68 25.1413 184.257 25.4252C184.833 25.709 185.073 26.4099 184.789 26.9865L149.881 98.0488C149.681 98.4613 149.264 98.7008 148.834 98.7008Z" fill="url(#paint4_linear)"/>
<path d="M64.0133 128.938C63.7693 128.938 63.5254 128.863 63.3169 128.708C62.8024 128.322 62.6959 127.59 63.0818 127.075L111.177 62.7373L149.611 96.6606C150.094 97.0864 150.139 97.8271 149.713 98.3106C149.287 98.7941 148.551 98.8384 148.067 98.4126L111.532 66.166L64.9492 128.468C64.7185 128.779 64.3681 128.938 64.0133 128.938Z" fill="url(#paint5_linear)"/>
<path d="M148.889 101.823C150.807 101.823 152.362 100.268 152.362 98.35C152.362 96.4319 150.807 94.877 148.889 94.877C146.971 94.877 145.416 96.4319 145.416 98.35C145.416 100.268 146.971 101.823 148.889 101.823Z" fill="#2684FF"/>
<path d="M148.888 102.989C146.329 102.989 144.244 100.909 144.244 98.3452C144.244 95.7815 146.329 93.7012 148.888 93.7012C151.448 93.7012 153.532 95.7859 153.532 98.3452C153.532 100.905 151.448 102.989 148.888 102.989ZM148.888 96.0387C147.615 96.0387 146.582 97.0722 146.582 98.3452C146.582 99.6182 147.615 100.652 148.888 100.652C150.161 100.652 151.195 99.6182 151.195 98.3452C151.195 97.0767 150.161 96.0387 148.888 96.0387Z" fill="#0049B0"/>
<path d="M64.0141 131.045C65.9322 131.045 67.4871 129.49 67.4871 127.572C67.4871 125.654 65.9322 124.099 64.0141 124.099C62.096 124.099 60.541 125.654 60.541 127.572C60.541 129.49 62.096 131.045 64.0141 131.045Z" fill="#2684FF"/>
<path d="M64.0132 132.211C61.4539 132.211 59.3691 130.131 59.3691 127.567C59.3691 125.003 61.4539 122.923 64.0132 122.923C66.5725 122.923 68.6572 125.008 68.6572 127.567C68.6572 130.126 66.5725 132.211 64.0132 132.211ZM64.0132 125.26C62.7402 125.26 61.7067 126.294 61.7067 127.567C61.7067 128.84 62.7402 129.873 64.0132 129.873C65.2862 129.873 66.3197 128.84 66.3197 127.567C66.3197 126.298 65.2862 125.26 64.0132 125.26Z" fill="#0065FF"/>
<path d="M30.6762 117.885C32.5943 117.885 34.1492 116.33 34.1492 114.412C34.1492 112.493 32.5943 110.938 30.6762 110.938C28.7581 110.938 27.2031 112.493 27.2031 114.412C27.2031 116.33 28.7581 117.885 30.6762 117.885Z" fill="#2684FF"/>
<path d="M30.6753 119.056C28.116 119.056 26.0312 116.975 26.0312 114.412C26.0312 111.848 28.116 109.768 30.6753 109.768C33.2346 109.768 35.3193 111.852 35.3193 114.412C35.3193 116.971 33.2346 119.056 30.6753 119.056ZM30.6753 112.105C29.4023 112.105 28.3688 113.139 28.3688 114.412C28.3688 115.685 29.4023 116.718 30.6753 116.718C31.9483 116.718 32.9818 115.685 32.9818 114.412C32.9818 113.143 31.9483 112.105 30.6753 112.105Z" fill="#0065FF"/>
<path d="M110.69 68.7869C112.608 68.7869 114.163 67.232 114.163 65.3139C114.163 63.3958 112.608 61.8408 110.69 61.8408C108.772 61.8408 107.217 63.3958 107.217 65.3139C107.217 67.232 108.772 68.7869 110.69 68.7869Z" fill="#DEEBFF"/>
<path d="M110.689 69.958C108.13 69.958 106.045 67.8733 106.045 65.314C106.045 62.7546 108.13 60.6699 110.689 60.6699C113.248 60.6699 115.333 62.7546 115.333 65.314C115.333 67.8733 113.253 69.958 110.689 69.958ZM110.689 63.0075C109.416 63.0075 108.382 64.041 108.382 65.314C108.382 66.587 109.416 67.6205 110.689 67.6205C111.962 67.6205 112.995 66.587 112.995 65.314C112.995 64.041 111.962 63.0075 110.689 63.0075Z" fill="#2684FF"/>
<path d="M183.742 32.2644C186.941 32.2644 189.535 29.6709 189.535 26.4716C189.535 23.2723 186.941 20.6787 183.742 20.6787C180.543 20.6787 177.949 23.2723 177.949 26.4716C177.949 29.6709 180.543 32.2644 183.742 32.2644Z" fill="#0049B0"/>
<path d="M183.743 33.4354C179.906 33.4354 176.783 30.3128 176.783 26.476C176.783 22.6392 179.906 19.5166 183.743 19.5166C187.579 19.5166 190.702 22.6392 190.702 26.476C190.702 30.3128 187.579 33.4354 183.743 33.4354ZM183.743 21.8453C181.192 21.8453 179.116 23.9211 179.116 26.4716C179.116 29.022 181.192 31.0979 183.743 31.0979C186.293 31.0979 188.369 29.022 188.369 26.4716C188.369 23.9211 186.293 21.8453 183.743 21.8453Z" fill="#0065FF"/>
<path d="M119.216 110.739L69.9409 114.159C69.3022 114.203 68.7832 113.609 68.7832 112.832V83.9524C68.7832 83.1761 69.3022 82.5552 69.9409 82.5596L119.216 83.154C119.704 83.1584 120.094 83.7084 120.094 84.3826V109.452C120.094 110.131 119.699 110.703 119.216 110.739Z" fill="white"/>
<path d="M115.708 103.615C115.708 105.704 114.47 107.474 112.931 107.563C111.378 107.656 110.105 106.006 110.105 103.881C110.105 101.757 111.374 99.9869 112.931 99.9292C114.47 99.8715 115.708 101.522 115.708 103.615Z" fill="#FFC400"/>
<path d="M116.304 88.1235L73.6875 88.3184L73.6936 89.6446L116.311 89.4498L116.304 88.1235Z" fill="#4C9AFF"/>
<path d="M103.908 95.0875L73.6758 95.8193L73.7079 97.1452L103.941 96.4133L103.908 95.0875Z" fill="#4C9AFF"/>
<path d="M79.4202 109.537L74.8205 109.808C74.1951 109.843 73.6895 109.253 73.6895 108.486V102.76C73.6895 101.992 74.1951 101.353 74.8205 101.331L79.4202 101.163C80.0279 101.141 80.5158 101.73 80.5158 102.485V108.109C80.5158 108.863 80.0235 109.502 79.4202 109.537Z" fill="#57D9A3"/>
<path d="M31.7416 66.0058L27.3415 65.9038C26.7471 65.8905 26.2637 65.3139 26.2637 64.6131V59.388C26.2637 58.6871 26.7471 58.1416 27.3415 58.1637L31.7416 58.3279C32.3227 58.35 32.7973 58.9267 32.7973 59.6186V64.7772C32.7928 65.4691 32.3227 66.0191 31.7416 66.0058Z" fill="#4C9AFF"/>
<path opacity="0.1" d="M115.6 180C123.97 180 130.756 178.683 130.756 177.059C130.756 175.435 123.97 174.118 115.6 174.118C107.229 174.118 100.443 175.435 100.443 177.059C100.443 178.683 107.229 180 115.6 180Z" fill="url(#paint6_linear)"/>
<path opacity="0.1" d="M149.785 173.16C157.719 173.16 164.152 171.843 164.152 170.219C164.152 168.595 157.719 167.278 149.785 167.278C141.85 167.278 135.418 168.595 135.418 170.219C135.418 171.843 141.85 173.16 149.785 173.16Z" fill="url(#paint7_linear)"/>
<path d="M121.747 132.703C121.991 132.916 122.128 133.16 122.217 133.359C122.718 134.441 122.559 135.568 122.634 137.302C122.723 139.241 122.634 138.655 122.701 139.636C122.767 140.678 122.869 141.383 122.501 142.159C122.364 142.452 122.199 142.665 122.089 142.798L115.697 149.061C115.147 148.675 114.597 148.289 114.047 147.903C115.923 145.876 117.799 143.854 119.671 141.827C119.511 138.779 119.347 135.732 119.188 132.685L120.674 132.272C120.918 132.286 121.361 132.366 121.747 132.703Z" fill="#CF9E76"/>
<path d="M122.218 133.359C122.125 133.16 121.992 132.916 121.748 132.703C121.362 132.366 120.923 132.286 120.683 132.264L119.197 132.676L119.747 136.992C120.705 136.988 121.659 136.934 122.617 136.477C122.595 135.196 122.635 134.26 122.218 133.359Z" fill="#FFAB00"/>
<path d="M115.254 168.396C115.254 169.757 115.378 170.831 115.498 171.567C115.6 172.201 115.746 172.929 115.919 174.202C115.986 174.708 116.035 175.129 116.066 175.408C115.915 175.417 115.791 175.422 115.702 175.426C115.329 175.439 115.223 175.435 115.028 175.471C114.93 175.488 114.85 175.515 114.695 175.564C114.504 175.626 114.451 175.657 114.433 175.71C114.425 175.732 114.416 175.79 114.491 175.901C114.757 176.282 115.201 176.26 115.817 176.606C116.115 176.775 116.15 176.859 116.398 176.934C116.563 176.983 116.886 177.085 117.139 176.921C117.215 176.872 117.534 176.739 117.481 176.202C117.445 175.825 117.414 175.36 117.41 174.827C117.401 173.798 117.498 173.084 117.689 171.625C117.769 171.022 117.907 169.948 118.124 168.263C117.17 168.311 116.212 168.356 115.254 168.396Z" fill="#FFC400"/>
<path d="M119.84 144.874C119.836 144.777 119.827 144.684 119.813 144.599C119.685 143.588 119.485 142.763 119.33 142.204C119.281 141.982 119.215 141.734 119.121 141.472C119.011 141.162 118.886 140.891 118.767 140.665C118.62 140.714 118.39 140.785 118.092 140.842C117.84 140.896 117.644 140.913 117.538 140.931C116.944 141.02 115.808 141.162 112.748 141.41C112.601 141.601 112.393 141.889 112.171 142.257C111.373 143.584 111.08 144.795 110.96 145.322C108.884 154.282 108.467 157.786 108.467 157.786C108.166 159.565 107.864 161.339 107.558 163.118C107.531 164.147 107.487 165.198 107.42 166.28C107.349 167.505 107.261 168.693 107.154 169.842C108.068 169.958 108.986 170.068 109.9 170.184C110.077 169.124 110.117 168.254 110.117 167.642C110.122 166.418 109.971 165.677 110.193 164.488C110.299 163.912 110.45 163.451 110.565 163.145C110.8 162.683 111.129 162 111.457 161.14C112.184 159.241 112.304 158.075 112.641 156.762C113.351 153.976 114.775 151.519 115.121 151.639C115.121 151.639 115.121 151.639 115.125 151.639C115.737 148.866 117.933 146.893 119.84 144.874Z" fill="#CF9E76"/>
<path d="M115.294 151.257C115.742 151.434 113.782 156.171 114.948 160.984C114.997 161.192 115.268 161.889 115.357 162.869C115.436 163.765 115.334 164.368 115.268 165.109C115.197 165.876 115.144 166.99 115.259 168.396C116.204 168.413 117.153 168.436 118.098 168.453C118.266 167.016 118.328 165.34 118.147 163.486C118.093 162.949 118.022 162.434 117.942 161.946C118.311 160.545 118.47 159.387 118.546 158.58C118.634 157.631 118.781 155.355 118.785 154.464C118.785 154.348 118.794 153.94 118.856 153.399C118.87 153.279 118.887 153.16 118.923 152.969C119.127 151.771 119.992 146.839 119.85 144.728C117.996 146.679 115.88 148.582 115.294 151.257Z" fill="#CF9E76"/>
<path d="M120.883 134.57C121.273 133.532 120.905 132.339 119.978 131.798C119.756 131.665 119.579 131.581 119.481 131.545C116.185 130.458 112.242 130.387 112.242 130.387C111.013 130.365 110.734 130.405 110.14 130.237C109.173 129.966 108.734 129.527 107.421 128.746C106.902 128.436 106.13 128.005 105.141 127.557C104.875 126.338 104.648 125.349 104.493 124.683C104.05 122.789 103.881 122.199 103.721 121.175C103.539 119.99 103.495 119.01 103.486 118.385C103.335 118.371 103.114 118.349 102.843 118.309C102.834 118.309 102.794 118.3 102.746 118.292C102.568 118.26 102.32 118.212 102 118.132C101.912 119.48 101.881 120.966 101.943 122.572C102.04 125.003 102.342 127.167 102.71 129.017C105.416 131.665 107.602 132.862 109.182 133.457C109.896 133.727 111.568 134.326 112.317 135.879C112.566 136.398 112.592 136.863 112.632 137.396C112.699 138.269 112.686 139.866 111.847 141.844C112.987 141.964 114.14 142.075 115.307 142.177C116.757 142.306 118.19 142.425 119.605 142.527C119.547 140.86 119.663 138.611 120.377 136.1C120.532 135.564 120.701 135.049 120.883 134.57Z" fill="#CF9E76"/>
<path d="M115.365 127.73C115.436 127.797 116.403 128.697 116.217 129.993C116.106 130.756 115.658 131.235 115.489 131.394C116.869 131.576 118.248 131.758 119.628 131.94C119.548 131.851 119.127 131.354 119.162 130.605C119.198 129.926 119.583 129.5 119.677 129.403C118.239 128.848 116.802 128.289 115.365 127.73Z" fill="#B08874"/>
<path d="M118.749 123.197C118.283 122.634 116.771 122.9 115.826 123.455C115.44 123.681 114.744 124.093 114.402 124.896C114.158 125.473 114.145 126.143 113.617 126.48C113.466 126.577 113.36 126.591 113.227 126.741C112.978 127.025 112.912 127.482 113.005 127.833C113.049 127.992 113.174 128.307 114.3 128.946C114.367 128.981 114.438 129.021 114.513 129.061C115.249 129.461 116.154 129.225 116.624 128.511C119.024 124.905 119.131 123.654 118.749 123.197Z" fill="#172B4D"/>
<path d="M117.108 123.069C116.527 123.571 115.861 124.617 115.569 125.167C115.524 125.265 115.511 125.314 115.307 125.407C115.103 125.5 114.832 125.522 114.872 125.677C114.912 125.833 115.183 126.063 115.205 126.201L114.748 128.308L115.538 128.72L118.208 130.104C118.181 129.984 117.414 126.999 117.436 126.835C117.458 126.671 117.52 126.325 117.343 126.223C117.165 126.117 117.015 124.404 116.953 124.169C116.886 123.934 116.913 123.872 116.988 123.571C117.055 123.26 117.108 123.069 117.108 123.069Z" fill="#CF9E76"/>
<path d="M117.086 123.083C116.776 123.939 116.873 124.564 116.971 125.123C117.042 125.54 117.304 127.119 116.523 128.41C116.106 129.097 116.386 130.029 117.1 130.353C117.517 130.543 117.898 130.716 118.302 130.774C118.621 130.818 119.153 130.889 119.686 130.685C120.644 130.313 121.043 129.257 121.269 128.663C121.349 128.454 121.744 127.363 121.486 126.001C121.424 125.677 121.331 125.376 121.26 125.19C120.848 124.138 119.025 122.364 117.086 123.083Z" fill="#172B4D"/>
<path d="M102.954 115.36C102.878 115.418 102.861 115.36 102.648 115.431C102.608 115.444 102.355 115.533 102.169 115.715C101.96 115.919 101.911 116.167 101.84 116.535C101.805 116.726 101.734 117.094 101.814 117.56C101.849 117.777 101.903 118.114 102.129 118.447C102.426 118.891 102.998 119.299 103.278 119.13C103.428 119.041 103.419 118.833 103.486 118.389C103.628 117.454 103.81 117.489 103.876 116.881C103.947 116.252 103.748 116.296 103.561 114.761C103.49 114.162 103.464 113.697 103.357 113.688C103.278 113.679 103.198 113.918 103.167 114.016C102.945 114.681 103.193 115.187 102.954 115.36Z" fill="#CF9E76"/>
<path d="M109.181 133.466C110.574 134.175 111.772 134.756 112.317 135.888C112.317 135.888 112.614 136.553 112.632 137.404C112.694 140.598 107.997 155.998 107.598 157.289C108.693 158.061 110.538 159.157 113.04 159.724C116.021 160.399 118.5 159.999 119.862 159.667C120.292 155.648 120.146 152.423 120.128 150.294C120.093 144.847 119.352 142.151 120.168 137.582C120.762 135.577 121.614 134.078 122.186 133.186C121.871 132.765 121.335 132.153 120.505 131.683C119.84 131.306 119.263 131.186 118.496 131.048C116.287 130.654 114.508 130.516 114.242 130.498C113.231 130.423 111.94 130.334 110.436 130.259L109.181 133.466Z" fill="url(#paint8_linear)"/>
<path d="M120.036 157.644C120.067 157.17 120.094 156.708 120.111 156.26C118.448 156.5 116.417 156.677 114.15 156.225C111.888 155.773 109.989 155.054 108.486 154.34C108.357 154.775 108.237 155.174 108.131 155.533C109.657 156.429 111.613 157.232 113.857 157.706C116.217 158.194 118.284 157.968 120.036 157.644Z" fill="#FFAB00"/>
<path d="M114.148 153.323C112.245 152.942 110.604 152.374 109.234 151.775C109.1 152.237 108.972 152.68 108.848 153.102C110.249 153.794 111.948 154.397 113.86 154.8C116.268 155.306 118.371 155.248 120.149 155.009C120.158 154.574 120.163 154.157 120.163 153.758C118.491 153.847 116.437 153.78 114.148 153.323Z" fill="#FFAB00"/>
<path d="M107.239 168.702C107.101 170.592 107.053 172.109 107.03 173.12C106.977 175.462 107.057 176.305 106.432 176.957C105.531 177.893 103.89 177.689 103.895 178.03C103.895 178.203 104.311 178.327 104.502 178.385C105.274 178.616 105.624 178.358 106.538 178.345C107.594 178.332 107.975 178.669 108.326 178.363C108.601 178.119 108.632 177.675 108.614 177.329C108.592 177.174 108.565 176.935 108.556 176.646C108.521 175.617 109.031 173.763 109.195 173.289C109.506 172.401 109.852 171.115 109.998 169.376C109.08 169.146 108.157 168.924 107.239 168.702Z" fill="#FFC400"/>
<path d="M105.554 177.507C105.958 177.546 106.361 177.538 106.769 177.524C107.053 177.515 107.373 177.298 107.608 177.098C107.856 176.886 108.158 176.753 108.477 176.704C108.508 176.699 108.535 176.695 108.557 176.69C108.57 176.957 108.592 177.174 108.61 177.325C108.628 177.675 108.597 178.119 108.322 178.358C107.971 178.669 107.59 178.327 106.534 178.34C105.62 178.354 105.266 178.611 104.498 178.38C104.308 178.323 103.891 178.199 103.891 178.026C103.891 177.782 104.742 177.817 105.554 177.507Z" fill="#172B4D"/>
<path d="M115.027 175.471C115.124 175.444 115.213 175.431 115.422 175.422C115.524 175.418 115.572 175.413 115.643 175.413C115.732 175.413 115.807 175.418 115.878 175.422C115.679 175.462 115.519 175.537 115.51 175.63C115.501 175.728 115.67 175.817 115.909 175.941C116.029 176.003 116.096 176.025 116.158 176.021C116.349 175.999 116.357 175.777 116.593 175.706C116.637 175.693 116.73 175.684 116.921 175.67C117.027 175.661 117.067 175.666 117.134 175.653C117.231 175.635 117.311 175.604 117.431 175.568C117.444 175.803 117.462 176.016 117.48 176.207C117.528 176.744 117.214 176.877 117.138 176.926C116.885 177.085 116.562 176.988 116.397 176.939C116.149 176.864 116.114 176.779 115.816 176.611C115.2 176.26 114.756 176.287 114.49 175.905C114.45 175.848 114.415 175.781 114.432 175.715C114.441 175.67 114.477 175.613 115.027 175.471Z" fill="#172B4D"/>
<path d="M145.389 126.458C145.411 126.573 145.681 127.771 146.795 128.267C147.629 128.64 148.609 128.476 149.323 127.842C149.163 127.292 148.995 126.48 149.021 125.491C149.044 124.737 149.177 124.107 149.31 123.637C148.188 123.929 147.065 124.218 145.939 124.511C145.987 124.95 145.992 125.322 145.983 125.593C145.974 126.054 145.93 126.227 145.801 126.342C145.673 126.458 145.5 126.467 145.389 126.458Z" fill="url(#paint9_linear)"/>
<path d="M131.613 129.461L129.665 129.913C129.577 129.913 129.492 129.967 129.457 130.051C129.421 130.131 129.435 130.228 129.488 130.295C129.39 130.348 129.328 130.446 129.328 130.552C129.324 130.69 129.417 130.818 129.559 130.858C129.532 130.907 129.492 130.991 129.515 131.08C129.554 131.222 129.759 131.324 130.002 131.266C130.002 131.297 130.007 131.408 130.087 131.506C130.189 131.626 130.326 131.63 130.348 131.63C131.076 131.634 131.528 131.661 131.528 131.661C131.932 131.599 132.14 131.568 132.349 131.399C132.482 131.293 132.566 131.169 132.619 131.084C132.983 131.297 133.107 131.213 133.138 131.191C133.307 131.058 133.223 130.579 132.934 129.98C132.495 129.807 132.052 129.634 131.613 129.461Z" fill="#A27F68"/>
<path d="M139.583 132.171C139.437 132.136 139.224 132.136 138.94 132.287C138.191 131.834 137.552 131.537 137.122 131.355C135.889 130.832 135.192 130.748 133.866 130.127C133.36 129.892 132.961 129.67 132.717 129.523C132.668 129.998 132.615 130.468 132.566 130.938C134.265 132.486 135.574 133.476 136.377 134.048C136.576 134.19 137.046 134.522 137.738 134.771C138.319 134.984 139.863 135.543 140.422 134.828C140.963 134.132 140.422 132.371 139.583 132.171Z" fill="#A27F68"/>
<path d="M139.206 135.187C139.41 135.249 139.716 135.311 140.071 135.258C140.771 135.151 141.219 134.672 141.707 134.14C142.599 133.16 143.26 132.419 143.805 131.807L143.677 126.804C143.202 127.318 142.86 127.78 142.639 128.108C141.792 129.367 141.477 130.428 140.585 130.707C140.399 130.765 140.399 130.756 140.217 130.84C139.299 131.279 138.926 132.286 138.868 132.446C138.398 133.794 139.108 135.032 139.206 135.187Z" fill="url(#paint10_linear)"/>
<path d="M147.031 171.586C147.111 171.493 147.231 171.351 147.391 171.196C147.985 170.624 148.562 170.38 148.805 170.26C149.276 170.029 149.919 169.59 150.624 168.663C151.17 168.747 151.715 168.836 152.265 168.92C152.372 169.2 152.483 169.55 152.558 169.963C152.638 170.411 152.656 170.81 152.647 171.129L151.595 171.138C151.542 171.049 151.454 170.939 151.329 170.921C151.134 170.894 150.957 171.12 150.895 171.191C150.385 171.786 149.169 171.781 148.455 171.781C148.105 171.781 147.612 171.746 147.031 171.586Z" fill="#091E42"/>
<path d="M139.836 171.035C139.916 170.942 140.036 170.8 140.195 170.645C140.79 170.073 141.366 169.829 141.61 169.709C142.08 169.478 142.723 169.039 143.429 168.112C143.974 168.197 144.52 168.285 145.07 168.37C145.176 168.649 145.287 168.999 145.363 169.412C145.442 169.86 145.46 170.259 145.451 170.578L144.4 170.587C144.347 170.499 144.258 170.388 144.134 170.37C143.939 170.343 143.761 170.57 143.699 170.641C143.189 171.235 141.974 171.231 141.26 171.231C140.909 171.231 140.417 171.195 139.836 171.035Z" fill="#091E42"/>
<path d="M143.593 138.647C143.216 141.655 142.915 144.835 142.728 148.171C142.307 155.551 142.506 162.32 143.021 168.33C143.513 168.574 144.591 168.805 145.452 168.428C145.509 165.771 145.527 163.504 145.518 161.562C145.514 160.803 145.505 160.218 145.5 159.849C145.487 158.918 145.465 157.845 145.434 156.651C145.78 153.285 146.126 149.923 146.472 146.556C146.685 147.829 146.836 148.876 146.938 149.59C147.248 151.826 147.319 152.828 147.665 154.935C147.825 155.928 147.962 156.625 148.029 156.989C148.499 159.548 149.142 163.407 149.847 168.969C150.712 169.155 151.87 169.248 152.686 168.978C152.393 163.89 152.105 158.803 151.812 153.715C151.613 150.828 151.373 147.887 151.098 144.893C150.921 142.99 150.734 141.114 150.535 139.26C148.215 139.051 145.904 138.847 143.593 138.647Z" fill="#091E42"/>
<path d="M144.614 126.418C144.996 126.445 145.333 126.445 145.612 126.431C145.994 126.919 146.375 127.403 146.756 127.891C147.511 127.403 148.269 126.919 149.023 126.431C150.043 127.088 151.059 127.744 152.079 128.405C152.013 128.924 151.919 129.674 151.795 130.57C151.529 132.544 151.414 133.533 151.241 134.349C151.055 135.214 150.851 135.959 150.695 137.161C150.58 138.035 150.54 138.762 150.527 139.255C149.254 139.658 147.981 140.057 146.708 140.461C146.57 140.031 146.433 139.601 146.295 139.17C146.056 139.516 145.816 139.862 145.581 140.213C144.92 139.738 144.264 139.263 143.603 138.789C143.603 138.558 143.607 138.203 143.643 137.769C143.678 137.321 143.714 137.157 143.723 136.85C143.736 136.283 143.643 135.87 143.598 135.679C143.164 133.75 144.117 133.054 143.687 130.969C143.585 130.481 143.425 129.989 143.319 129.07C143.217 128.157 143.354 127.868 143.354 127.66C143.354 126.933 143.931 126.369 144.614 126.418Z" fill="url(#paint11_linear)"/>
<path d="M146.681 127.794L146.051 139.517C146.131 139.401 146.21 139.286 146.29 139.166C146.344 139.326 146.392 139.49 146.446 139.65L147.089 127.674C146.978 127.745 146.867 127.816 146.756 127.887C146.729 127.86 146.707 127.829 146.681 127.794Z" fill="#FFF0B2"/>
<path d="M132.61 129.483L132.268 129.341C131.971 129.217 131.647 129.163 131.328 129.177L129.939 129.243C129.939 129.532 130.148 129.767 130.423 129.789L130.964 129.833L132.437 130.805L133.084 130.201C133.075 129.882 132.889 129.598 132.61 129.483Z" fill="#A27F68"/>
<path d="M151.174 135.83C151.143 135.963 151.143 136.159 151.267 136.42C150.89 137.103 150.646 137.689 150.495 138.084C150.061 139.21 149.99 139.844 149.48 141.055C149.285 141.517 149.098 141.88 148.979 142.107C149.369 142.151 149.764 142.2 150.154 142.244C151.436 140.692 152.256 139.499 152.731 138.767C152.851 138.585 153.121 138.155 153.33 137.525C153.507 136.992 153.969 135.586 153.379 135.076C152.802 134.571 151.338 135.067 151.174 135.83Z" fill="#A27F68"/>
<path d="M148.951 141.464L148.747 141.721C148.57 141.948 148.436 142.209 148.357 142.489L148.02 143.709C148.246 143.788 148.49 143.673 148.583 143.442L148.769 142.986L149.94 141.983L149.647 141.256C149.395 141.171 149.12 141.251 148.951 141.464Z" fill="#A27F68"/>
<path d="M146.76 127.873L147.301 128.933C147.98 128.165 148.654 127.398 149.332 126.631C149.239 126.444 149.146 126.258 149.057 126.067C148.907 126.271 148.76 126.475 148.609 126.679L146.76 127.873Z" fill="#FFAB00"/>
<path d="M145.983 126.112C145.961 126.4 145.926 126.467 145.89 126.507C145.837 126.569 145.766 126.6 145.766 126.6C146.099 127.03 146.427 127.46 146.759 127.886C146.511 128.099 146.263 128.312 146.01 128.525C145.708 127.829 145.407 127.128 145.109 126.431C145.265 126.272 145.424 126.108 145.58 125.948C145.717 125.908 145.859 125.868 145.996 125.828C145.992 125.948 145.988 126.045 145.983 126.112Z" fill="#FFAB00"/>
<path d="M146.937 125.416C145.465 125.624 145.318 125.664 145.154 125.513C145.035 125.407 144.946 125.079 144.773 124.418C144.684 124.085 144.618 123.806 144.573 123.61C144.471 123.642 144.187 123.717 144.103 123.597C144.045 123.513 144.116 123.375 144.196 123.158C144.272 122.958 144.36 122.679 144.44 122.329C144.436 122.275 144.427 122.218 144.427 122.156C144.427 122.156 144.405 121.681 144.547 121.215C144.768 120.483 145.332 119.991 145.38 119.947C146.077 119.348 147.297 118.98 148.343 119.579C149.208 120.075 149.616 121.038 149.661 121.721C149.71 122.466 149.372 123.504 149.364 123.522C149.364 123.522 149.364 123.526 149.359 123.531C149.337 123.593 149.324 123.642 149.324 123.646C149.257 123.859 148.933 124.067 148.933 124.067C148.649 124.249 148.592 124.178 148.437 124.294C148.157 124.506 148.25 124.808 148.042 125.079C147.882 125.287 147.674 125.314 146.937 125.416Z" fill="#8C715D"/>
<path d="M146.965 121.952C147.085 122.36 147.125 122.715 147.138 122.954C147.284 122.954 147.435 122.954 147.581 122.954C147.714 122.79 147.879 122.639 148.012 122.679C148.313 122.768 148.14 123.726 148.531 123.925C148.828 124.076 149.267 123.695 149.325 123.65C149.954 123.109 150.141 122.009 149.861 121.131C149.555 120.155 148.761 119.707 148.522 119.574C147.435 118.958 146.366 119.277 146.166 119.339C145.27 119.623 144.658 120.293 144.37 120.896C144.312 121.011 144.104 121.446 144.241 121.588C144.312 121.659 144.463 121.646 145.053 121.375C145.993 120.945 146.113 120.754 146.348 120.829C146.663 120.936 146.801 121.393 146.965 121.952Z" fill="#172B4D"/>
<path d="M150.45 128.091C150.876 127.914 151.328 127.958 151.696 128.166C152.158 128.424 152.344 128.934 152.446 129.213C153.049 130.894 153.036 131.644 153.484 133.05C153.732 133.831 154.016 134.518 153.834 135.432C153.786 135.676 153.719 135.866 153.666 136C153.386 135.968 152.801 135.937 152.131 136.221C151.47 136.501 151.067 136.944 150.889 137.171C150.694 137.037 150.423 136.807 150.326 136.448C150.206 136.008 150.406 135.6 150.45 135.498C150.676 134.971 150.654 133.618 149.598 130.043C149.341 129.253 149.718 128.397 150.45 128.091Z" fill="url(#paint12_linear)"/>
<path d="M148.89 142.116L148.766 142.99L150.393 142.48L150.571 141.734L148.89 142.116Z" fill="#A27F68"/>
<path opacity="0.6" d="M113.315 9.33203H94.6504V62.2129H113.315V9.33203Z" fill="url(#paint13_linear)"/>
<path d="M103.983 18.6649C109.137 18.6649 113.315 14.4866 113.315 9.33245C113.315 4.17828 109.137 0 103.983 0C98.8287 0 94.6504 4.17828 94.6504 9.33245C94.6504 14.4866 98.8287 18.6649 103.983 18.6649Z" fill="url(#paint14_linear)"/>
<path d="M110.077 6.99038C110.077 6.74642 109.979 6.52021 109.811 6.34722L108.91 5.4468C108.737 5.27381 108.511 5.18066 108.267 5.18066C108.023 5.18066 107.797 5.27825 107.629 5.4468L103.175 9.86907L101.148 7.84201C100.793 7.48716 100.217 7.48716 99.8619 7.84201L98.9614 8.74243C98.7885 8.91542 98.6953 9.14163 98.6953 9.38559C98.6953 9.62954 98.7885 9.85576 98.9614 10.0287L102.532 13.5994C102.674 13.7413 102.856 13.83 103.051 13.8566C103.091 13.8611 103.135 13.8655 103.175 13.8655C103.419 13.8655 103.645 13.7724 103.818 13.5994L109.815 7.6291C109.984 7.46055 110.077 7.23433 110.077 6.99038Z" fill="url(#paint15_radial)"/>
</g>
<defs>
<linearGradient id="paint0_linear" x1="14.0167" y1="151.833" x2="149.929" y2="15.9209" gradientUnits="userSpaceOnUse">
<stop stop-color="#4C9AFF"/>
<stop offset="1" stop-color="#DEEBFF" stop-opacity="0.7"/>
</linearGradient>
<linearGradient id="paint1_linear" x1="19.28" y1="60.0486" x2="69.7415" y2="60.0486" gradientUnits="userSpaceOnUse">
<stop stop-color="#EBECF0" stop-opacity="0"/>
<stop offset="0.1413" stop-color="#EBECF0" stop-opacity="0.1413"/>
<stop offset="1" stop-color="#EBECF0"/>
</linearGradient>
<linearGradient id="paint2_linear" x1="40.2755" y1="121.055" x2="137.075" y2="24.2554" gradientUnits="userSpaceOnUse">
<stop stop-color="#B2D4FF"/>
<stop offset="0.0525" stop-color="#BBD9FF"/>
<stop offset="0.1904" stop-color="#CFE3FF"/>
<stop offset="0.3313" stop-color="#DAE9FF"/>
<stop offset="0.4783" stop-color="#DEEBFF"/>
</linearGradient>
<linearGradient id="paint3_linear" x1="-0.000819833" y1="139.817" x2="65.181" y2="139.817" gradientUnits="userSpaceOnUse">
<stop offset="0.1025" stop-color="#0065FF" stop-opacity="0"/>
<stop offset="0.1753" stop-color="#0065FF" stop-opacity="0.1183"/>
<stop offset="0.7173" stop-color="#0065FF"/>
</linearGradient>
<linearGradient id="paint4_linear" x1="147.667" y1="62.0041" x2="184.908" y2="62.0041" gradientUnits="userSpaceOnUse">
<stop stop-color="#0049B0"/>
<stop offset="1" stop-color="#0065FF"/>
</linearGradient>
<linearGradient id="paint5_linear" x1="62.8455" y1="95.8363" x2="150.003" y2="95.8363" gradientUnits="userSpaceOnUse">
<stop stop-color="#0065FF"/>
<stop offset="0.0335" stop-color="#1171FF"/>
<stop offset="0.0902" stop-color="#2780FF"/>
<stop offset="0.1571" stop-color="#388CFF"/>
<stop offset="0.2399" stop-color="#4394FF"/>
<stop offset="0.3561" stop-color="#4A99FF"/>
<stop offset="0.6786" stop-color="#4C9AFF"/>
<stop offset="1" stop-color="#0049B0"/>
</linearGradient>
<linearGradient id="paint6_linear" x1="100.443" y1="177.057" x2="130.757" y2="177.057" gradientUnits="userSpaceOnUse">
<stop stop-color="#091E42"/>
<stop offset="0.9682" stop-color="#091E42" stop-opacity="0.0318"/>
<stop offset="1" stop-color="#091E42" stop-opacity="0"/>
</linearGradient>
<linearGradient id="paint7_linear" x1="135.418" y1="170.221" x2="164.15" y2="170.221" gradientUnits="userSpaceOnUse">
<stop stop-color="#091E42"/>
<stop offset="0.9682" stop-color="#091E42" stop-opacity="0.0318"/>
<stop offset="1" stop-color="#091E42" stop-opacity="0"/>
</linearGradient>
<linearGradient id="paint8_linear" x1="107.598" y1="145.173" x2="122.191" y2="145.173" gradientUnits="userSpaceOnUse">
<stop stop-color="#FFE380"/>
<stop offset="1" stop-color="#FFAB00"/>
</linearGradient>
<linearGradient id="paint9_linear" x1="145.39" y1="126.051" x2="149.323" y2="126.051" gradientUnits="userSpaceOnUse">
<stop stop-color="#72594B"/>
<stop offset="0.5558" stop-color="#8C715D"/>
</linearGradient>
<linearGradient id="paint10_linear" x1="141.199" y1="130.753" x2="146.227" y2="135.807" gradientUnits="userSpaceOnUse">
<stop stop-color="#FFC400"/>
<stop offset="0.0133" stop-color="#FFC202"/>
<stop offset="0.1546" stop-color="#FFB00F"/>
<stop offset="0.322" stop-color="#FFA318"/>
<stop offset="0.5409" stop-color="#FF9B1D"/>
<stop offset="1" stop-color="#FF991F"/>
</linearGradient>
<linearGradient id="paint11_linear" x1="147.678" y1="140.46" x2="147.678" y2="126.413" gradientUnits="userSpaceOnUse">
<stop stop-color="#FF991F"/>
<stop offset="0.7681" stop-color="#FFC400"/>
</linearGradient>
<linearGradient id="paint12_linear" x1="151.8" y1="132.184" x2="148.948" y2="133.85" gradientUnits="userSpaceOnUse">
<stop stop-color="#FFC400"/>
<stop offset="1" stop-color="#FF991F"/>
</linearGradient>
<linearGradient id="paint13_linear" x1="103.982" y1="62.2121" x2="103.982" y2="9.33266" gradientUnits="userSpaceOnUse">
<stop stop-color="#79F2C0" stop-opacity="0"/>
<stop offset="1" stop-color="#79F2C0"/>
</linearGradient>
<linearGradient id="paint14_linear" x1="97.3824" y1="15.9326" x2="110.581" y2="2.7336" gradientUnits="userSpaceOnUse">
<stop stop-color="#36B37E"/>
<stop offset="0.2621" stop-color="#4BC793"/>
<stop offset="0.7392" stop-color="#6CE6B4"/>
<stop offset="1" stop-color="#79F2C0"/>
</linearGradient>
<radialGradient id="paint15_radial" cx="0" cy="0" r="1" gradientUnits="userSpaceOnUse" gradientTransform="translate(104.219 9.32322) rotate(7.79304) scale(5.0884)">
<stop stop-color="#FAFBFC"/>
<stop offset="0.5461" stop-color="#F4F5F8"/>
<stop offset="1" stop-color="#EBECF0"/>
</radialGradient>
<clipPath id="clip0">
<rect width="190.703" height="180" fill="white"/>
</clipPath>
</defs>
</svg>
