<svg width="210" height="180" viewBox="0 0 210 180" fill="none" xmlns="http://www.w3.org/2000/svg">
<g clip-path="url(#clip0)">
<rect width="209.346" height="180" fill="white" fill-opacity="0.01"/>
<path opacity="0.5" d="M197.248 92.1257C196.452 92.1223 195.657 92.2045 194.878 92.3709V92.1257C194.878 86.3589 192.587 80.8282 188.509 76.7505C184.431 72.6727 178.901 70.3818 173.134 70.3818C167.367 70.3818 161.836 72.6727 157.759 76.7505C153.681 80.8282 151.39 86.3589 151.39 92.1257V92.5344C149.607 92.0537 147.738 91.9931 145.928 92.3574C144.118 92.7218 142.417 93.5011 140.959 94.634C139.501 95.767 138.326 97.2227 137.526 98.8868C136.726 100.551 136.323 102.378 136.349 104.224V108.965C136.349 110.916 135.574 112.787 134.194 114.167C132.815 115.547 130.943 116.322 128.992 116.322H197.248C200.457 116.322 203.534 115.047 205.803 112.778C208.072 110.51 209.346 107.432 209.346 104.224C209.346 101.015 208.072 97.938 205.803 95.6692C203.534 93.4003 200.457 92.1257 197.248 92.1257Z" fill="url(#paint0_linear)"/>
<path opacity="0.5" d="M81.4162 54.5233L80.1083 54.6867V54.5233C79.8634 51.6024 78.5301 48.8801 76.3726 46.8959C74.2151 44.9118 71.3909 43.8105 68.4598 43.8105C65.5286 43.8105 62.7045 44.9118 60.547 46.8959C58.3895 48.8801 57.0562 51.6024 56.8113 54.5233V54.7685C56.2813 54.6069 55.7304 54.5243 55.1764 54.5233C53.4562 54.5448 51.8138 55.2432 50.605 56.4673C49.3962 57.6914 48.7185 59.3425 48.7186 61.0628V63.5968C48.7186 64.6375 48.3052 65.6355 47.5694 66.3713C46.8336 67.1071 45.8356 67.5205 44.7949 67.5205H81.4162C83.1289 67.5205 84.7714 66.8402 85.9825 65.6291C87.1936 64.418 87.8739 62.7755 87.8739 61.0628C87.8741 59.3425 87.1963 57.6914 85.9876 56.4673C84.7788 55.2432 83.1364 54.5448 81.4162 54.5233Z" fill="url(#paint1_linear)"/>
<path opacity="0.5" d="M36.6213 104.387L35.3134 104.55V104.387C35.0685 101.466 33.7351 98.7434 31.5777 96.7592C29.4202 94.775 26.596 93.6738 23.6649 93.6738C20.7337 93.6738 17.9095 94.775 15.752 96.7592C13.5946 98.7434 12.2612 101.466 12.0163 104.387V104.632C11.5142 104.471 10.9904 104.388 10.4632 104.387C8.72883 104.387 7.06548 105.076 5.83908 106.302C4.61269 107.528 3.92371 109.192 3.92371 110.926V113.46C3.92371 114.501 3.51032 115.499 2.77448 116.235C2.03864 116.97 1.04063 117.384 0 117.384H36.6213C38.334 117.384 39.9765 116.703 41.1876 115.492C42.3986 114.281 43.079 112.639 43.079 110.926C43.0898 110.071 42.9308 109.223 42.6111 108.43C42.2914 107.637 41.8175 106.915 41.2167 106.307C40.616 105.698 39.9004 105.215 39.1116 104.886C38.3227 104.556 37.4762 104.386 36.6213 104.387Z" fill="url(#paint2_linear)"/>
<path d="M132.425 83.8696C132.279 83.8667 132.135 83.8279 132.007 83.7567C131.878 83.6854 131.769 83.5839 131.689 83.4609L110.681 47.4119C110.579 47.2232 110.547 47.0042 110.592 46.7943C110.637 46.5844 110.756 46.3975 110.927 46.2674C111.022 46.2104 111.129 46.1736 111.239 46.1592C111.35 46.1448 111.462 46.1532 111.569 46.1838C111.677 46.2144 111.776 46.2666 111.863 46.3373C111.949 46.4079 112.02 46.4954 112.071 46.5944L133.079 82.6435C133.176 82.8197 133.205 83.0256 133.16 83.2217C133.114 83.4178 132.998 83.5903 132.834 83.7061L132.425 83.8696Z" fill="#4C9AFF"/>
<path d="M187.194 84.6871H186.785L111.009 47.7388C110.81 47.6338 110.657 47.458 110.582 47.2461C110.506 47.0343 110.513 46.8017 110.6 46.5944C110.651 46.4954 110.722 46.4079 110.808 46.3373C110.895 46.2666 110.994 46.2144 111.101 46.1838C111.209 46.1532 111.321 46.1448 111.432 46.1592C111.542 46.1736 111.649 46.2104 111.744 46.2674L187.521 83.1339C187.714 83.2232 187.864 83.384 187.941 83.5824C188.017 83.7808 188.013 84.0011 187.93 84.1966C187.86 84.3348 187.755 84.4526 187.626 84.5385C187.497 84.6244 187.348 84.6756 187.194 84.6871Z" fill="#0052CC"/>
<path d="M108.229 45.8588C108.228 46.5064 108.411 47.1408 108.756 47.689C109.101 48.2371 109.593 48.6765 110.177 48.9565C110.761 49.2365 111.412 49.3456 112.056 49.2713C112.699 49.197 113.308 48.9423 113.813 48.5366C114.318 48.1308 114.697 47.5906 114.908 46.9783C115.119 46.366 115.152 45.7066 115.004 45.0761C114.856 44.4457 114.533 43.87 114.072 43.4154C113.61 42.9609 113.03 42.6461 112.397 42.5073C112.195 42.4553 112.015 42.3401 111.882 42.1783C111.75 42.0166 111.673 41.8168 111.662 41.6081V38.7471" stroke="#DFE1E5" stroke-width="3" stroke-linejoin="round"/>
<path d="M112.316 39.1556H111.008C110.592 39.1599 110.189 39.013 109.873 38.7424C109.557 38.4718 109.351 38.0958 109.291 37.6842L108.882 33.3518C108.836 32.9087 108.963 32.4649 109.238 32.1141C109.512 31.7632 109.913 31.5329 110.354 31.4717H112.806C113.24 31.4717 113.656 31.6439 113.962 31.9505C114.269 32.2571 114.441 32.673 114.441 33.1066V33.3518L114.032 37.6842C113.973 38.0958 113.766 38.4718 113.45 38.7424C113.135 39.013 112.732 39.1599 112.316 39.1556Z" fill="#B3BAC5"/>
<path d="M111.662 31.4714V0" stroke="url(#paint3_linear)" stroke-width="3" stroke-linejoin="round"/>
<path d="M89.8356 85.177L89.4269 85.0135C89.3304 84.9709 89.2443 84.9081 89.1742 84.8293C89.1041 84.7505 89.0518 84.6576 89.0208 84.5568C88.9898 84.456 88.9808 84.3498 88.9945 84.2452C89.0081 84.1407 89.0441 84.0403 89.0999 83.9508L110.68 46.5939C110.723 46.4974 110.786 46.4112 110.864 46.3412C110.943 46.2711 111.036 46.2188 111.137 46.1878C111.238 46.1568 111.344 46.1478 111.449 46.1615C111.553 46.1751 111.654 46.2111 111.743 46.2669C111.842 46.3181 111.93 46.389 112 46.4753C112.071 46.5615 112.123 46.6613 112.154 46.7685C112.184 46.8757 112.193 46.988 112.178 47.0986C112.164 47.2091 112.127 47.3155 112.07 47.4113L90.5713 84.7683C90.4867 84.8867 90.3768 84.9848 90.2495 85.0555C90.1223 85.1262 89.9809 85.1677 89.8356 85.177Z" fill="#0052CC"/>
<path d="M28.4473 85.259C28.2906 85.2564 28.1379 85.2088 28.0074 85.1218C27.877 85.0349 27.7743 84.9122 27.7116 84.7685C27.6577 84.6739 27.6255 84.5684 27.6173 84.4598C27.6091 84.3512 27.6252 84.2421 27.6643 84.1404C27.7034 84.0387 27.7646 83.947 27.8434 83.8718C27.9223 83.7967 28.0169 83.74 28.1203 83.7059L111.009 46.2672C111.108 46.2006 111.22 46.1564 111.338 46.1379C111.456 46.1193 111.576 46.1268 111.691 46.1598C111.806 46.1928 111.912 46.2505 112.002 46.3289C112.092 46.4072 112.163 46.5043 112.212 46.6134C112.26 46.7224 112.284 46.8408 112.282 46.9601C112.28 47.0794 112.252 47.1968 112.2 47.304C112.147 47.4113 112.072 47.5057 111.979 47.5808C111.886 47.6559 111.778 47.7097 111.663 47.7386L28.7743 85.1773L28.4473 85.259Z" fill="#0052CC"/>
<path d="M91.8803 86.7305H26.7305V176.379H91.8803V86.7305Z" fill="url(#paint4_linear)"/>
<path d="M188.338 86.7305H91.7988V176.379H188.338V86.7305Z" fill="url(#paint5_linear)"/>
<path d="M59.2645 86.7305H26.7305V176.379H59.2645V86.7305Z" fill="url(#paint6_linear)"/>
<path d="M91.7977 86.7305H59.2637V176.379H91.7977V86.7305Z" fill="url(#paint7_linear)"/>
<path opacity="0.2" d="M104.06 90.9805H96.0488V170.28H104.06V90.9805Z" fill="url(#paint8_linear)"/>
<path d="M158.175 149.509L153.516 144.523L165.614 133.487L154.497 121.471L159.565 116.812L175.178 133.896L158.175 149.509Z" fill="#B2D4FF"/>
<path d="M124.006 149.019L108.393 132.016L125.395 116.321L129.973 121.308L117.957 132.425L128.992 144.441L124.006 149.019Z" fill="#B2D4FF"/>
<path d="M147.172 105.586L128.662 159.039L135.097 161.267L153.606 107.814L147.172 105.586Z" fill="#B2D4FF"/>
<path opacity="0.2" d="M115.423 90.9805H107.412V170.28H115.423V90.9805Z" fill="url(#paint9_linear)"/>
<path opacity="0.2" d="M126.702 90.9805H118.691V170.28H126.702V90.9805Z" fill="url(#paint10_linear)"/>
<path opacity="0.2" d="M137.984 90.9805H129.973V170.28H137.984V90.9805Z" fill="url(#paint11_linear)"/>
<path opacity="0.2" d="M149.347 90.9805H141.336V170.28H149.347V90.9805Z" fill="url(#paint12_linear)"/>
<path opacity="0.2" d="M160.626 90.9805H152.615V170.28H160.626V90.9805Z" fill="url(#paint13_linear)"/>
<path opacity="0.2" d="M171.989 90.9805H163.979V170.28H171.989V90.9805Z" fill="url(#paint14_linear)"/>
<path opacity="0.2" d="M183.271 90.9805H175.26V170.28H183.271V90.9805Z" fill="url(#paint15_linear)"/>
<path opacity="0.1" d="M183.27 90.9805H96.0488V93.0241H183.27V90.9805Z" fill="#091E42"/>
<path d="M91.8803 83.0518H26.7305V86.7384H91.8803V83.0518Z" fill="#0052CC"/>
<path d="M188.338 83.0518H91.7988V86.7384H188.338V83.0518Z" fill="#0065FF"/>
<path d="M91.8803 176.321H26.7305V180.008H91.8803V176.321Z" fill="#0052CC"/>
<path d="M188.338 176.321H91.7988V180.008H188.338V176.321Z" fill="#0065FF"/>
<path d="M87.0563 151.717H31.9609V161.158H87.0563V151.717Z" fill="url(#paint16_linear)"/>
<path d="M91.881 101.607H91.7992C90.9415 101.607 90.2461 102.303 90.2461 103.161V114.008C90.2461 114.866 90.9415 115.561 91.7992 115.561H91.881C92.7387 115.561 93.4341 114.866 93.4341 114.008V103.161C93.4341 102.303 92.7387 101.607 91.881 101.607Z" fill="url(#paint17_linear)"/>
<path d="M91.881 149.428H91.7992C90.9415 149.428 90.2461 150.123 90.2461 150.981V161.828C90.2461 162.686 90.9415 163.381 91.7992 163.381H91.881C92.7387 163.381 93.4341 162.686 93.4341 161.828V150.981C93.4341 150.123 92.7387 149.428 91.881 149.428Z" fill="url(#paint18_linear)"/>
<path d="M26.7306 101.607H26.6488C25.7911 101.607 25.0957 102.303 25.0957 103.161V114.008C25.0957 114.866 25.7911 115.561 26.6488 115.561H26.7306C27.5884 115.561 28.2837 114.866 28.2837 114.008V103.161C28.2837 102.303 27.5884 101.607 26.7306 101.607Z" fill="url(#paint19_linear)"/>
<path d="M26.7306 149.428H26.6488C25.7911 149.428 25.0957 150.123 25.0957 150.981V161.828C25.0957 162.686 25.7911 163.381 26.6488 163.381H26.7306C27.5884 163.381 28.2837 162.686 28.2837 161.828V150.981C28.2837 150.123 27.5884 149.428 26.7306 149.428Z" fill="url(#paint20_linear)"/>
<path d="M87.0563 103.896H31.9609V113.338H87.0563V103.896Z" fill="url(#paint21_linear)"/>
<path d="M60.3262 86.7305H58.1191V176.51H60.3262V86.7305Z" fill="#0052CC"/>
<path opacity="0.2" d="M87.0563 90.9805H31.9609V172.324H87.0563V90.9805Z" fill="url(#paint22_linear)"/>
<path d="M42.0157 90.9805H40.3809V172.291H42.0157V90.9805Z" fill="#0052CC"/>
<path d="M80.4357 90.9805H78.8008V172.291H80.4357V90.9805Z" fill="#0052CC"/>
<path d="M79.6188 144.359H41.1992V145.994H79.6188V144.359Z" fill="#0052CC"/>
<path d="M40.463 90.9805H38.8281V172.291H40.463V90.9805Z" fill="#C1C7D0"/>
<path d="M78.8829 90.9805H77.248V172.291H78.8829V90.9805Z" fill="#C1C7D0"/>
<path d="M78.0661 144.359H39.6465V145.994H78.0661V144.359Z" fill="#C1C7D0"/>
<path opacity="0.1" d="M85.0127 90.9805H31.9609V93.0241H85.0127V172.316H87.0563V93.0241V90.9805H85.0127Z" fill="#091E42"/>
<path d="M64.9869 142.479H54.8506C54.3992 142.479 54.0332 142.845 54.0332 143.297V147.106C54.0332 147.558 54.3992 147.924 54.8506 147.924H64.9869C65.4383 147.924 65.8043 147.558 65.8043 147.106V143.297C65.8043 142.845 65.4383 142.479 64.9869 142.479Z" fill="#F4F5F7"/>
<path d="M63.4341 142.479H53.2979C52.8464 142.479 52.4805 142.845 52.4805 143.297V147.106C52.4805 147.558 52.8464 147.924 53.2979 147.924H63.4341C63.8856 147.924 64.2516 147.558 64.2516 147.106V143.297C64.2516 142.845 63.8856 142.479 63.4341 142.479Z" fill="#C1C7D0"/>
</g>
<defs>
<linearGradient id="paint0_linear" x1="144.581" y1="131.976" x2="194.134" y2="82.4227" gradientUnits="userSpaceOnUse">
<stop stop-color="#00A3BF" stop-opacity="0"/>
<stop offset="1" stop-color="#00A3BF"/>
</linearGradient>
<linearGradient id="paint1_linear" x1="2845.36" y1="2245.99" x2="3496.78" y2="1062.43" gradientUnits="userSpaceOnUse">
<stop stop-color="#00A3BF" stop-opacity="0"/>
<stop offset="1" stop-color="#00A3BF"/>
</linearGradient>
<linearGradient id="paint2_linear" x1="441.565" y1="3741.69" x2="1092.98" y2="2558.12" gradientUnits="userSpaceOnUse">
<stop stop-color="#00A3BF" stop-opacity="0"/>
<stop offset="1" stop-color="#00A3BF"/>
</linearGradient>
<linearGradient id="paint3_linear" x1="-nan" y1="-nan" x2="-nan" y2="-nan" gradientUnits="userSpaceOnUse">
<stop stop-color="#DFE1E5"/>
<stop offset="1" stop-color="#EBECF0" stop-opacity="0"/>
</linearGradient>
<linearGradient id="paint4_linear" x1="20.5752" y1="170.215" x2="97.9539" y2="92.8367" gradientUnits="userSpaceOnUse">
<stop stop-color="#0065FF"/>
<stop offset="0.5" stop-color="#247EFF"/>
<stop offset="1" stop-color="#4C9AFF"/>
</linearGradient>
<linearGradient id="paint5_linear" x1="11139.8" y1="19615.8" x2="21320.1" y2="8652.88" gradientUnits="userSpaceOnUse">
<stop stop-color="#0065FF"/>
<stop offset="0.5" stop-color="#247EFF"/>
<stop offset="1" stop-color="#4C9AFF"/>
</linearGradient>
<linearGradient id="paint6_linear" x1="12.4335" y1="162.082" x2="73.537" y2="100.978" gradientUnits="userSpaceOnUse">
<stop stop-color="#0052CC"/>
<stop offset="0.73" stop-color="#005FF0"/>
<stop offset="1" stop-color="#0065FF"/>
</linearGradient>
<linearGradient id="paint7_linear" x1="1849.94" y1="17862.2" x2="6147.75" y2="16302.5" gradientUnits="userSpaceOnUse">
<stop stop-color="#0052CC"/>
<stop offset="0.73" stop-color="#005FF0"/>
<stop offset="1" stop-color="#0065FF"/>
</linearGradient>
<linearGradient id="paint8_linear" x1="88.7818" y1="132.809" x2="111.31" y2="128.427" gradientUnits="userSpaceOnUse">
<stop offset="0.28" stop-color="#091E42" stop-opacity="0"/>
<stop offset="0.59" stop-color="#091E42" stop-opacity="0.45"/>
<stop offset="1" stop-color="#091E42"/>
</linearGradient>
<linearGradient id="paint9_linear" x1="1088.35" y1="12974.8" x2="1317.47" y2="12970.3" gradientUnits="userSpaceOnUse">
<stop offset="0.28" stop-color="#091E42" stop-opacity="0"/>
<stop offset="0.59" stop-color="#091E42" stop-opacity="0.45"/>
<stop offset="1" stop-color="#091E42"/>
</linearGradient>
<linearGradient id="paint10_linear" x1="1210.5" y1="12974.8" x2="1439.62" y2="12970.3" gradientUnits="userSpaceOnUse">
<stop offset="0.28" stop-color="#091E42" stop-opacity="0"/>
<stop offset="0.59" stop-color="#091E42" stop-opacity="0.45"/>
<stop offset="1" stop-color="#091E42"/>
</linearGradient>
<linearGradient id="paint11_linear" x1="1332.73" y1="12974.8" x2="1561.77" y2="12970.3" gradientUnits="userSpaceOnUse">
<stop offset="0.28" stop-color="#091E42" stop-opacity="0"/>
<stop offset="0.59" stop-color="#091E42" stop-opacity="0.45"/>
<stop offset="1" stop-color="#091E42"/>
</linearGradient>
<linearGradient id="paint12_linear" x1="1454.96" y1="12974.8" x2="1684.08" y2="12970.3" gradientUnits="userSpaceOnUse">
<stop offset="0.28" stop-color="#091E42" stop-opacity="0"/>
<stop offset="0.59" stop-color="#091E42" stop-opacity="0.45"/>
<stop offset="1" stop-color="#091E42"/>
</linearGradient>
<linearGradient id="paint13_linear" x1="1577.11" y1="12974.8" x2="1806.23" y2="12970.3" gradientUnits="userSpaceOnUse">
<stop offset="0.28" stop-color="#091E42" stop-opacity="0"/>
<stop offset="0.59" stop-color="#091E42" stop-opacity="0.45"/>
<stop offset="1" stop-color="#091E42"/>
</linearGradient>
<linearGradient id="paint14_linear" x1="1699.43" y1="12974.8" x2="1928.47" y2="12970.3" gradientUnits="userSpaceOnUse">
<stop offset="0.28" stop-color="#091E42" stop-opacity="0"/>
<stop offset="0.59" stop-color="#091E42" stop-opacity="0.45"/>
<stop offset="1" stop-color="#091E42"/>
</linearGradient>
<linearGradient id="paint15_linear" x1="1821.58" y1="12974.8" x2="2050.7" y2="12970.3" gradientUnits="userSpaceOnUse">
<stop offset="0.28" stop-color="#091E42" stop-opacity="0"/>
<stop offset="0.59" stop-color="#091E42" stop-opacity="0.45"/>
<stop offset="1" stop-color="#091E42"/>
</linearGradient>
<linearGradient id="paint16_linear" x1="61.1435" y1="147.147" x2="57.8656" y2="165.728" gradientUnits="userSpaceOnUse">
<stop offset="0.27" stop-color="#0052CC"/>
<stop offset="0.44" stop-color="#0052CC" stop-opacity="0.75"/>
<stop offset="0.62" stop-color="#0052CC" stop-opacity="0.51"/>
<stop offset="0.78" stop-color="#0052CC" stop-opacity="0.34"/>
<stop offset="0.91" stop-color="#0052CC" stop-opacity="0.24"/>
<stop offset="1" stop-color="#0052CC" stop-opacity="0.2"/>
</linearGradient>
<linearGradient id="paint17_linear" x1="90.2461" y1="108.613" x2="93.4096" y2="108.613" gradientUnits="userSpaceOnUse">
<stop stop-color="#0052CC"/>
<stop offset="1" stop-color="#0052CC"/>
</linearGradient>
<linearGradient id="paint18_linear" x1="442.203" y1="2819.88" x2="454.541" y2="2819.88" gradientUnits="userSpaceOnUse">
<stop stop-color="#0052CC"/>
<stop offset="1" stop-color="#0052CC"/>
</linearGradient>
<linearGradient id="paint19_linear" x1="123.063" y1="1955.63" x2="135.433" y2="1955.63" gradientUnits="userSpaceOnUse">
<stop stop-color="#0052CC"/>
<stop offset="1" stop-color="#0052CC"/>
</linearGradient>
<linearGradient id="paint20_linear" x1="123.063" y1="2819.88" x2="135.433" y2="2819.88" gradientUnits="userSpaceOnUse">
<stop stop-color="#0052CC"/>
<stop offset="1" stop-color="#0052CC"/>
</linearGradient>
<linearGradient id="paint21_linear" x1="4153.09" y1="1251.12" x2="4146.41" y2="1472.2" gradientUnits="userSpaceOnUse">
<stop offset="0.27" stop-color="#0052CC"/>
<stop offset="0.44" stop-color="#0052CC" stop-opacity="0.75"/>
<stop offset="0.62" stop-color="#0052CC" stop-opacity="0.51"/>
<stop offset="0.78" stop-color="#0052CC" stop-opacity="0.34"/>
<stop offset="0.91" stop-color="#0052CC" stop-opacity="0.24"/>
<stop offset="1" stop-color="#0052CC" stop-opacity="0.2"/>
</linearGradient>
<linearGradient id="paint22_linear" x1="25.3969" y1="165.752" x2="93.6203" y2="97.5281" gradientUnits="userSpaceOnUse">
<stop stop-color="#091E42"/>
<stop offset="0.01" stop-color="#091E42" stop-opacity="0.94"/>
<stop offset="0.11" stop-color="#091E42" stop-opacity="0.53"/>
<stop offset="0.21" stop-color="#091E42" stop-opacity="0.24"/>
<stop offset="0.31" stop-color="#091E42" stop-opacity="0.06"/>
<stop offset="0.41" stop-color="#091E42" stop-opacity="0"/>
</linearGradient>
<clipPath id="clip0">
<rect width="209.346" height="180" fill="white"/>
</clipPath>
</defs>
</svg>
