<svg width="191" height="222" viewBox="0 0 191 222" fill="none" xmlns="http://www.w3.org/2000/svg">
<g clip-path="url(#clip0)">
<rect width="190.2" height="221.5" fill="white" fill-opacity="0.01"/>
<path d="M122.7 119.5H49.3999V36.5999C49.8905 27.2108 53.9658 18.368 60.7852 11.8957C67.6046 5.42328 76.648 1.81494 86.0499 1.81494C95.4518 1.81494 104.495 5.42328 111.315 11.8957C118.134 18.368 122.209 27.2108 122.7 36.5999V119.5ZM61.3999 107.5H110.7V36.5999C110.301 30.3337 107.53 24.4547 102.951 20.1583C98.3721 15.862 92.3288 13.4707 86.0499 13.4707C79.771 13.4707 73.7277 15.862 69.1489 20.1583C64.57 24.4547 61.7992 30.3337 61.3999 36.5999V107.5Z" fill="#0065FF"/>
<path d="M160.3 111.2C152.848 97.0387 150.855 80.6338 154.7 65.1001C154.883 64.3598 154.894 63.5873 154.733 62.842C154.572 62.0966 154.242 61.398 153.769 60.7996C153.296 60.2013 152.693 59.719 152.005 59.3898C151.317 59.0606 150.563 58.8931 149.8 58.9001H19.1001C18.3482 58.8967 17.6051 59.063 16.9263 59.3865C16.2475 59.7101 15.6504 60.1826 15.1795 60.7688C14.7086 61.3551 14.376 62.04 14.2064 62.7726C14.0368 63.5052 14.0347 64.2666 14.2001 65.0001C17.9783 80.6243 15.9156 97.0907 8.40012 111.3C2.51133 122.67 -0.38899 135.351 -0.0281079 148.15C0.332774 160.95 3.943 173.447 10.4631 184.467C16.9832 195.488 26.1989 204.668 37.2437 211.147C48.2885 217.625 60.7994 221.188 73.6001 221.5H91.5001C101.565 221.74 111.577 219.965 120.946 216.278C130.315 212.591 138.852 207.068 146.054 200.033C153.257 192.998 158.98 184.594 162.886 175.315C166.792 166.035 168.803 156.068 168.8 146C168.86 133.879 165.941 121.929 160.3 111.2Z" fill="#FF991F"/>
<path d="M154.7 65.1001C154.883 64.3598 154.894 63.5873 154.733 62.842C154.572 62.0966 154.242 61.398 153.769 60.7996C153.296 60.2013 152.693 59.719 152.005 59.3898C151.317 59.0606 150.563 58.8931 149.8 58.9001H36.9C36.154 58.9149 35.4203 59.0931 34.7507 59.4223C34.0812 59.7515 33.492 60.2235 33.0247 60.8052C32.5574 61.3869 32.2235 62.0641 32.0464 62.7889C31.8694 63.5137 31.8535 64.2685 32 65.0001C35.8087 80.6122 33.7816 97.078 26.3 111.3C20.3828 122.605 17.4891 135.247 17.9 148C18.9 188 51.5 220.5 91.5 221.5C101.565 221.74 111.577 219.965 120.946 216.278C130.314 212.591 138.851 207.068 146.054 200.033C153.257 192.998 158.979 184.594 162.886 175.315C166.792 166.035 168.803 156.068 168.8 146C168.86 133.879 165.941 121.929 160.3 111.2C152.848 97.0387 150.855 80.6338 154.7 65.1001Z" fill="#FFAB00"/>
<path d="M93.4001 213.6H91.7001C80.2465 213.318 69.0525 210.13 59.1692 204.335C49.2859 198.54 41.0377 190.328 35.1991 180.47C29.3605 170.613 26.1231 159.433 25.7909 147.981C25.4587 136.528 28.0426 125.18 33.3001 115C41.036 100.159 43.5711 83.1523 40.5001 66.7002H146.2C143.017 83.0742 145.522 100.044 153.3 114.8C158.352 124.42 160.962 135.135 160.9 146C160.926 154.877 159.199 163.671 155.818 171.878C152.436 180.085 147.467 187.543 141.195 193.824C134.923 200.105 127.472 205.086 119.27 208.479C111.068 211.873 102.276 213.613 93.4001 213.6Z" fill="#FFC400"/>
<g style="mix-blend-mode:multiply">
<path d="M152.8 178.2L84.5 119.2L80.8 123.5L149.9 183.1L152.8 178.2Z" fill="#FFE380"/>
</g>
<path d="M90.4 170.2C88.3452 170.197 86.3155 169.749 84.4509 168.886C82.5862 168.023 80.9312 166.765 79.5999 165.2C78.2601 163.653 77.2786 161.828 76.7254 159.858C76.1722 157.887 76.0611 155.818 76.4 153.8L78.3 141.2C75.4643 138.289 73.5294 134.622 72.7277 130.638C71.926 126.655 72.2917 122.524 73.7808 118.743C75.2699 114.962 77.8191 111.692 81.122 109.325C84.4249 106.958 88.3411 105.595 92.4 105.4H93.4C98.996 105.4 104.363 107.623 108.32 111.58C112.277 115.537 114.5 120.904 114.5 126.5C114.496 132.015 112.302 137.302 108.4 141.2L110.4 153.8C110.692 155.825 110.548 157.89 109.979 159.856C109.41 161.821 108.428 163.643 107.1 165.2C105.769 166.765 104.114 168.023 102.249 168.886C100.384 169.749 98.3547 170.197 96.3 170.2H90.4Z" fill="#FFAB00"/>
<path d="M106.6 126.5C106.586 128.31 106.196 130.098 105.456 131.751C104.716 133.403 103.641 134.884 102.3 136.1C101.574 136.821 101.032 137.707 100.719 138.681C100.405 139.655 100.33 140.691 100.5 141.7L102.6 155C102.728 155.904 102.662 156.826 102.405 157.702C102.147 158.579 101.706 159.39 101.109 160.082C100.512 160.773 99.7741 161.329 98.9446 161.711C98.1152 162.094 97.2134 162.295 96.3 162.3H90.4C89.4866 162.295 88.5848 162.094 87.7554 161.711C86.926 161.329 86.188 160.773 85.5912 160.082C84.9944 159.39 84.5526 158.579 84.2954 157.702C84.0382 156.826 83.9715 155.904 84.1 155L86.2 141.6C86.3747 140.582 86.2925 139.537 85.9607 138.559C85.6289 137.581 85.058 136.701 84.3 136C82.8962 134.716 81.7988 133.132 81.0892 131.367C80.3795 129.601 80.0756 127.699 80.2 125.8C80.2928 122.299 81.7726 118.979 84.3137 116.569C86.8548 114.159 90.2492 112.857 93.75 112.95C97.2509 113.043 100.571 114.523 102.981 117.064C105.391 119.605 106.693 122.999 106.6 126.5Z" fill="#253858"/>
<path d="M149.2 130.5H93.4C92.8286 130.591 92.2443 130.557 91.6872 130.401C91.1302 130.244 90.6138 129.969 90.1736 129.593C89.7334 129.217 89.3799 128.751 89.1375 128.226C88.8951 127.7 88.7695 127.128 88.7695 126.55C88.7695 125.971 88.8951 125.399 89.1375 124.874C89.3799 124.349 89.7334 123.882 90.1736 123.507C90.6138 123.131 91.1302 122.856 91.6872 122.699C92.2443 122.542 92.8286 122.509 93.4 122.6H149.2C150.14 122.75 150.995 123.23 151.613 123.954C152.23 124.678 152.57 125.598 152.57 126.55C152.57 127.501 152.23 128.422 151.613 129.146C150.995 129.87 150.14 130.35 149.2 130.5Z" fill="#0065FF"/>
<path d="M153.1 126.5C153.075 125.473 152.656 124.496 151.93 123.77C151.204 123.044 150.226 122.625 149.2 122.6H112.4C111.829 122.509 111.244 122.542 110.687 122.699C110.13 122.856 109.614 123.131 109.174 123.507C108.733 123.882 108.38 124.349 108.137 124.874C107.895 125.399 107.77 125.971 107.77 126.55C107.77 127.128 107.895 127.7 108.137 128.226C108.38 128.751 108.733 129.217 109.174 129.593C109.614 129.969 110.13 130.244 110.687 130.401C111.244 130.557 111.829 130.591 112.4 130.5H149.2C150.243 130.474 151.235 130.041 151.964 129.293C152.693 128.546 153.1 127.544 153.1 126.5Z" fill="#2684FF"/>
<path d="M167.7 149C163.25 149 158.9 147.68 155.2 145.208C151.5 142.736 148.616 139.222 146.913 135.11C145.21 130.999 144.764 126.475 145.632 122.11C146.5 117.746 148.643 113.737 151.79 110.59C154.937 107.443 158.946 105.301 163.31 104.432C167.675 103.564 172.199 104.01 176.31 105.713C180.422 107.416 183.936 110.3 186.408 114C188.88 117.7 190.2 122.05 190.2 126.5C190.2 132.467 187.829 138.19 183.61 142.41C179.39 146.629 173.667 149 167.7 149ZM167.7 111.9C164.812 111.9 161.99 112.756 159.589 114.361C157.188 115.965 155.316 118.245 154.211 120.913C153.106 123.581 152.817 126.516 153.381 129.348C153.944 132.18 155.334 134.782 157.376 136.824C159.418 138.866 162.02 140.256 164.852 140.819C167.684 141.383 170.619 141.094 173.287 139.989C175.955 138.884 178.235 137.012 179.839 134.611C181.444 132.21 182.3 129.388 182.3 126.5C182.274 122.636 180.727 118.938 177.995 116.205C175.262 113.473 171.564 111.926 167.7 111.9Z" fill="#2684FF"/>
<path d="M67.8001 164.9H55.6001C55.3424 164.877 55.101 164.765 54.9181 164.582C54.7352 164.399 54.6226 164.158 54.6001 163.9C54.6001 163.635 54.7055 163.38 54.893 163.193C55.0805 163.005 55.3349 162.9 55.6001 162.9H67.8001C68.0653 162.9 68.3197 163.005 68.5072 163.193C68.6947 163.38 68.8001 163.635 68.8001 163.9C68.7776 164.158 68.665 164.399 68.4821 164.582C68.2992 164.765 68.0577 164.877 67.8001 164.9Z" fill="#FFFAE5"/>
<path d="M62.8001 182.1C62.6676 182.112 62.5343 182.091 62.4121 182.039C62.2899 181.986 62.1826 181.904 62.1001 181.8C61.9168 181.613 61.8142 181.362 61.8142 181.1C61.8142 180.838 61.9168 180.587 62.1001 180.4L70.5001 171.9C70.6926 171.756 70.9308 171.686 71.171 171.703C71.4111 171.72 71.637 171.823 71.8072 171.993C71.9774 172.163 72.0805 172.389 72.0975 172.629C72.1146 172.869 72.0445 173.108 71.9001 173.3L63.5001 181.8C63.3099 181.98 63.0617 182.087 62.8001 182.1Z" fill="#FFFAE5"/>
<path d="M79.8999 189.2C79.6423 189.178 79.4008 189.065 79.2179 188.882C79.035 188.699 78.9224 188.458 78.8999 188.2V175.2C78.9224 174.943 79.035 174.701 79.2179 174.518C79.4008 174.335 79.6423 174.223 79.8999 174.2C80.1651 174.2 80.4195 174.306 80.607 174.493C80.7945 174.681 80.8999 174.935 80.8999 175.2V188.2C80.8999 188.465 80.7945 188.72 80.607 188.907C80.4195 189.095 80.1651 189.2 79.8999 189.2Z" fill="#FFFAE5"/>
<path d="M128.8 110.9H116.7C116.565 110.916 116.428 110.901 116.299 110.857C116.17 110.812 116.053 110.739 115.957 110.643C115.861 110.546 115.788 110.429 115.743 110.301C115.699 110.172 115.684 110.035 115.7 109.9C115.7 109.635 115.805 109.38 115.993 109.193C116.18 109.005 116.435 108.9 116.7 108.9H128.8C129.065 108.9 129.319 109.005 129.507 109.193C129.695 109.38 129.8 109.635 129.8 109.9C129.816 110.035 129.801 110.172 129.757 110.301C129.712 110.429 129.639 110.546 129.543 110.643C129.446 110.739 129.329 110.812 129.201 110.857C129.072 110.901 128.935 110.916 128.8 110.9Z" fill="#FFFAE5"/>
<path d="M113.2 102.2C112.938 102.186 112.69 102.08 112.5 101.9C112.317 101.713 112.214 101.462 112.214 101.2C112.214 100.938 112.317 100.687 112.5 100.5L121 92.0999C121.193 91.9555 121.431 91.8854 121.671 91.9024C121.911 91.9195 122.137 92.0226 122.307 92.1928C122.477 92.363 122.58 92.5889 122.597 92.829C122.615 93.0691 122.544 93.3073 122.4 93.4999L113.9 101.9C113.812 101.998 113.704 102.076 113.583 102.128C113.462 102.179 113.331 102.204 113.2 102.2Z" fill="#FFFAE5"/>
<path d="M104.5 99.6001C104.235 99.6001 103.98 99.4948 103.793 99.3073C103.605 99.1197 103.5 98.8654 103.5 98.6001V85.7001C103.5 85.4349 103.605 85.1806 103.793 84.993C103.98 84.8055 104.235 84.7001 104.5 84.7001C104.635 84.6841 104.772 84.6989 104.901 84.7434C105.03 84.788 105.146 84.8612 105.243 84.9575C105.339 85.0537 105.412 85.1706 105.457 85.2992C105.501 85.4279 105.516 85.565 105.5 85.7001V98.6001C105.516 98.7353 105.501 98.8724 105.457 99.0011C105.412 99.1297 105.339 99.2466 105.243 99.3428C105.146 99.4391 105.03 99.5123 104.901 99.5569C104.772 99.6014 104.635 99.6162 104.5 99.6001Z" fill="#FFFAE5"/>
</g>
<defs>
<clipPath id="clip0">
<rect width="190.2" height="221.5" fill="white"/>
</clipPath>
</defs>
</svg>
