<svg width="597" height="402" viewBox="0 0 597 402" fill="none" xmlns="http://www.w3.org/2000/svg">
<path opacity="0.1" d="M581.06 383.5H415.41C414.134 383.5 413.1 384.534 413.1 385.81V389.26C413.1 390.536 414.134 391.57 415.41 391.57H581.06C582.335 391.57 583.37 390.536 583.37 389.26V385.81C583.37 384.534 582.335 383.5 581.06 383.5Z" fill="#091E42"/>
<path d="M386.861 246.7H268.721V374.55H386.861V246.7Z" fill="#EBECF0"/>
<path d="M386.86 366.8H239.21V374.55H386.86V366.8Z" fill="#EBECF0"/>
<path d="M538.74 332.37V33.4501C538.74 31.7932 537.397 30.4501 535.74 30.4501L103.39 30.4501C101.733 30.4501 100.39 31.7932 100.39 33.4501V332.37C100.39 334.027 101.733 335.37 103.39 335.37H535.74C537.397 335.37 538.74 334.027 538.74 332.37Z" fill="#EBECF0"/>
<path d="M521.25 47.9301H117.86V317.89H521.25V47.9301Z" fill="#EBECF0"/>
<path d="M521.25 47.9301H117.86V319.49H521.25V47.9301Z" fill="url(#paint0_linear)"/>
<path d="M521.25 47.93H117.86V319.49H521.25V47.93Z" fill="url(#paint1_linear)"/>
<path d="M231.41 47.93H117.86V284.97H231.41V47.93Z" fill="url(#paint2_linear)"/>
<path d="M521.25 284.97H117.86V319.49H521.25V284.97Z" fill="#79E2F2"/>
<path d="M203.19 68.25H197.9C197.315 68.2532 196.747 68.0567 196.289 67.6931C195.83 67.3295 195.51 66.8204 195.38 66.25C194.1 60.5252 191.84 55.0648 188.7 50.11C188.387 49.617 188.253 49.0318 188.318 48.4516C188.384 47.8714 188.645 47.331 189.06 46.92L192.81 43.18C193.296 42.6927 193.568 42.0329 193.568 41.345C193.568 40.6572 193.296 39.9973 192.81 39.51L183.5 30.2C183.013 29.7145 182.353 29.442 181.665 29.442C180.977 29.442 180.317 29.7145 179.83 30.2L176.09 33.94C175.68 34.3564 175.141 34.6201 174.56 34.6874C173.98 34.7547 173.394 34.6216 172.9 34.31C167.948 31.1656 162.486 28.9054 156.76 27.63C156.191 27.4986 155.683 27.1777 155.319 26.7199C154.956 26.2621 154.759 25.6945 154.76 25.11V19.83C154.76 19.489 154.693 19.1514 154.562 18.8365C154.431 18.5217 154.24 18.2357 153.998 17.9951C153.756 17.7544 153.47 17.5639 153.154 17.4343C152.839 17.3047 152.501 17.2387 152.16 17.24H139.01C138.323 17.24 137.664 17.5129 137.179 17.9986C136.693 18.4843 136.42 19.1431 136.42 19.83V25.12C136.422 25.7045 136.224 26.2721 135.861 26.7299C135.498 27.1877 134.99 27.5086 134.42 27.64C128.694 28.9154 123.233 31.1756 118.28 34.32C117.786 34.6315 117.2 34.7647 116.62 34.6974C116.04 34.6301 115.5 34.3664 115.09 33.95L111.35 30.21C110.863 29.7245 110.203 29.452 109.515 29.452C108.827 29.452 108.167 29.7245 107.68 30.21L98.3702 39.52C97.8847 40.0073 97.6121 40.6672 97.6121 41.355C97.6121 42.0429 97.8847 42.7027 98.3702 43.19L102.12 46.9C102.537 47.3097 102.8 47.8495 102.868 48.4298C102.935 49.01 102.802 49.5959 102.49 50.09C99.3499 55.0448 97.09 60.5052 95.8102 66.23C95.6804 66.8004 95.36 67.3095 94.9018 67.6731C94.4437 68.0367 93.8751 68.2332 93.2902 68.23H88.0002C87.3133 68.23 86.6545 68.5029 86.1688 68.9886C85.683 69.4743 85.4102 70.1331 85.4102 70.82V84C85.4089 84.341 85.4749 84.6788 85.6045 84.9942C85.734 85.3096 85.9246 85.5963 86.1652 85.8379C86.4059 86.0795 86.6918 86.2711 87.0067 86.4019C87.3216 86.5327 87.6592 86.6 88.0002 86.6H93.2902C93.8751 86.5968 94.4437 86.7933 94.9018 87.1569C95.36 87.5206 95.6804 88.0296 95.8102 88.6C97.09 94.3248 99.3499 99.7852 102.49 104.74C102.802 105.234 102.935 105.82 102.868 106.4C102.8 106.981 102.537 107.52 102.12 107.93L98.3802 111.67C97.8947 112.157 97.6221 112.817 97.6221 113.505C97.6221 114.193 97.8947 114.853 98.3802 115.34L107.69 124.65C108.177 125.135 108.837 125.408 109.525 125.408C110.213 125.408 110.873 125.135 111.36 124.65L115.1 120.9C115.512 120.487 116.051 120.225 116.631 120.158C117.21 120.091 117.795 120.222 118.29 120.53C123.242 123.678 128.703 125.941 134.43 127.22C135.001 127.35 135.51 127.67 135.873 128.128C136.237 128.587 136.433 129.155 136.43 129.74V135.03C136.43 135.717 136.703 136.376 137.189 136.861C137.674 137.347 138.333 137.62 139.02 137.62H152.18C152.521 137.621 152.859 137.555 153.174 137.426C153.49 137.296 153.776 137.106 154.018 136.865C154.26 136.624 154.451 136.338 154.582 136.023C154.713 135.709 154.78 135.371 154.78 135.03V129.74C154.777 129.155 154.973 128.587 155.337 128.128C155.701 127.67 156.21 127.35 156.78 127.22C162.507 125.941 167.968 123.678 172.92 120.53C173.415 120.222 174 120.091 174.58 120.158C175.159 120.225 175.699 120.487 176.11 120.9L179.85 124.65C180.337 125.135 180.997 125.408 181.685 125.408C182.373 125.408 183.033 125.135 183.52 124.65L192.83 115.34C193.316 114.853 193.588 114.193 193.588 113.505C193.588 112.817 193.316 112.157 192.83 111.67L189.06 107.9C188.645 107.489 188.384 106.949 188.318 106.368C188.253 105.788 188.387 105.203 188.7 104.71C191.84 99.7552 194.1 94.2948 195.38 88.57C195.51 87.9996 195.83 87.4906 196.289 87.1269C196.747 86.7633 197.315 86.5668 197.9 86.57H203.19C203.531 86.57 203.869 86.5027 204.184 86.3719C204.499 86.2411 204.785 86.0494 205.025 85.8079C205.266 85.5663 205.456 85.2796 205.586 84.9642C205.715 84.6488 205.782 84.311 205.78 83.97V70.84C205.78 70.4999 205.713 70.1631 205.583 69.8489C205.453 69.5346 205.262 69.2491 205.022 69.0086C204.781 68.7681 204.496 68.5773 204.181 68.4472C203.867 68.317 203.53 68.25 203.19 68.25ZM145.59 93.25C142.455 93.25 139.391 92.3204 136.784 90.5788C134.178 88.8372 132.146 86.3618 130.947 83.4656C129.747 80.5693 129.433 77.3824 130.045 74.3078C130.656 71.2332 132.166 68.409 134.383 66.1924C136.599 63.9757 139.423 62.4661 142.498 61.8546C145.573 61.243 148.76 61.5569 151.656 62.7565C154.552 63.9562 157.027 65.9877 158.769 68.5942C160.511 71.2007 161.44 74.2652 161.44 77.4C161.445 81.602 159.782 85.6341 156.816 88.61C153.849 91.5859 149.822 93.2621 145.62 93.27L145.59 93.25Z" fill="#79E2F2"/>
<path opacity="0.1" d="M480.34 302.36H277.98C276.704 302.36 275.67 303.394 275.67 304.67V308.12C275.67 309.396 276.704 310.43 277.98 310.43H480.34C481.616 310.43 482.65 309.396 482.65 308.12V304.67C482.65 303.394 481.616 302.36 480.34 302.36Z" fill="#091E42"/>
<path d="M429.73 31.53H426.46C426.099 31.5308 425.749 31.4097 425.466 31.1864C425.183 30.9632 424.983 30.6508 424.9 30.3C424.115 26.752 422.717 23.368 420.77 20.3C420.572 19.9913 420.486 19.6235 420.528 19.259C420.57 18.8944 420.737 18.5556 421 18.3L423.31 15.99C423.607 15.6871 423.774 15.2795 423.774 14.855C423.774 14.4305 423.607 14.0229 423.31 13.72L417.56 7.97C417.257 7.67257 416.849 7.50594 416.425 7.50594C416 7.50594 415.593 7.67257 415.29 7.97L412.98 10.28C412.724 10.5432 412.385 10.7099 412.021 10.7518C411.656 10.7938 411.289 10.7083 410.98 10.51C407.912 8.56257 404.528 7.16498 400.98 6.38C400.651 6.29092 400.36 6.09937 400.148 5.83321C399.935 5.56704 399.814 5.24013 399.8 4.9V1.6C399.8 1.38988 399.758 1.18183 399.678 0.987709C399.598 0.793588 399.48 0.617202 399.331 0.468628C399.183 0.320054 399.006 0.202203 398.812 0.121796C398.618 0.0413881 398.41 0 398.2 0H390.06C389.85 0 389.642 0.0413881 389.448 0.121796C389.253 0.202203 389.077 0.320054 388.928 0.468628C388.78 0.617202 388.662 0.793588 388.582 0.987709C388.501 1.18183 388.46 1.38988 388.46 1.6V4.9C388.461 5.26059 388.34 5.61086 388.116 5.89402C387.893 6.17718 387.581 6.37661 387.23 6.46C383.682 7.24673 380.299 8.64421 377.23 10.59C376.921 10.7883 376.553 10.8738 376.189 10.8318C375.824 10.7899 375.485 10.6232 375.23 10.36L372.92 8.05C372.617 7.75257 372.209 7.58593 371.785 7.58593C371.36 7.58593 370.953 7.75257 370.65 8.05L364.9 13.8C364.602 14.1029 364.436 14.5105 364.436 14.935C364.436 15.3595 364.602 15.7671 364.9 16.07L367.22 18.38C367.48 18.6379 367.644 18.9771 367.684 19.3411C367.724 19.7051 367.638 20.0718 367.44 20.38C365.492 23.448 364.095 26.832 363.31 30.38C363.228 30.7317 363.029 31.0451 362.746 31.2686C362.462 31.4922 362.111 31.6126 361.75 31.61H358.49C358.065 31.61 357.657 31.7782 357.355 32.078C357.053 32.3778 356.883 32.7847 356.88 33.21V41.35C356.883 41.7753 357.053 42.1822 357.355 42.482C357.657 42.7818 358.065 42.95 358.49 42.95H361.75C362.111 42.9474 362.462 43.0678 362.746 43.2914C363.029 43.5149 363.228 43.8283 363.31 44.18C364.097 47.7275 365.494 51.1112 367.44 54.18C367.638 54.4882 367.724 54.8549 367.684 55.2189C367.644 55.5829 367.48 55.9221 367.22 56.18L364.9 58.49C364.602 58.7929 364.436 59.2005 364.436 59.625C364.436 60.0495 364.602 60.4571 364.9 60.76L370.65 66.51C370.953 66.8074 371.36 66.9741 371.785 66.9741C372.209 66.9741 372.617 66.8074 372.92 66.51L375.23 64.2C375.485 63.9368 375.824 63.7701 376.189 63.7282C376.553 63.6862 376.921 63.7717 377.23 63.97C380.299 65.9158 383.682 67.3133 387.23 68.1C387.582 68.1817 387.895 68.3807 388.118 68.6643C388.342 68.9478 388.462 69.299 388.46 69.66V72.92C388.46 73.3453 388.628 73.7533 388.928 74.0549C389.228 74.3566 389.635 74.5274 390.06 74.53H398.2C398.625 74.5274 399.032 74.3566 399.332 74.0549C399.632 73.7533 399.8 73.3453 399.8 72.92V69.66C399.797 69.299 399.918 68.9478 400.141 68.6643C400.365 68.3807 400.678 68.1817 401.03 68.1C404.578 67.315 407.962 65.9174 411.03 63.97C411.339 63.7717 411.706 63.6862 412.071 63.7282C412.435 63.7701 412.774 63.9368 413.03 64.2L415.34 66.51C415.643 66.8074 416.05 66.9741 416.475 66.9741C416.899 66.9741 417.307 66.8074 417.61 66.51L423.36 60.76C423.657 60.4571 423.824 60.0495 423.824 59.625C423.824 59.2005 423.657 58.7929 423.36 58.49L421.05 56.18C420.787 55.9244 420.62 55.5856 420.578 55.221C420.536 54.8565 420.622 54.4887 420.82 54.18C422.766 51.1112 424.163 47.7275 424.95 44.18C425.033 43.8292 425.233 43.5168 425.516 43.2936C425.799 43.0703 426.149 42.9492 426.51 42.95H429.78C429.99 42.95 430.198 42.9086 430.392 42.8282C430.586 42.7478 430.763 42.6299 430.911 42.4814C431.06 42.3328 431.178 42.1564 431.258 41.9623C431.338 41.7682 431.38 41.5601 431.38 41.35V33.21C431.391 32.989 431.356 32.768 431.278 32.5611C431.199 32.3543 431.078 32.1659 430.923 32.008C430.768 31.8501 430.582 31.7261 430.377 31.6438C430.171 31.5616 429.951 31.5228 429.73 31.53ZM394.13 46.99C392.194 46.99 390.301 46.4158 388.691 45.3401C387.081 44.2643 385.826 42.7354 385.085 40.9465C384.344 39.1576 384.15 37.1891 384.528 35.2901C384.906 33.391 385.838 31.6466 387.207 30.2774C388.576 28.9083 390.321 27.9759 392.22 27.5981C394.119 27.2204 396.087 27.4142 397.876 28.1552C399.665 28.8962 401.194 30.151 402.27 31.761C403.346 33.3709 403.92 35.2637 403.92 37.2C403.92 39.7965 402.888 42.2866 401.052 44.1226C399.216 45.9586 396.726 46.99 394.13 46.99Z" fill="#E6FCFF"/>
<path d="M521.26 255.96H225.83V284.89H521.26V255.96Z" fill="url(#paint3_linear)"/>
<path d="M284.34 257.4V307.71" stroke="#00B8D9" stroke-width="2" stroke-miterlimit="10"/>
<path d="M345.601 257.4V307.71" stroke="#00B8D9" stroke-width="2" stroke-miterlimit="10"/>
<path d="M345.59 257.4V307.71" stroke="#00B8D9" stroke-width="2" stroke-miterlimit="10"/>
<path d="M406.851 257.4V307.71" stroke="#00B8D9" stroke-width="2" stroke-miterlimit="10"/>
<path d="M473.38 255.96H266.97C263.816 255.96 261.26 258.516 261.26 261.67V270.2C261.26 273.353 263.816 275.91 266.97 275.91H473.38C476.533 275.91 479.09 273.353 479.09 270.2V261.67C479.09 258.516 476.533 255.96 473.38 255.96Z" fill="#00B8D9"/>
<path d="M546.69 255.96H340.28C337.127 255.96 334.57 258.516 334.57 261.67V270.2C334.57 273.353 337.127 275.91 340.28 275.91H546.69C549.844 275.91 552.4 273.353 552.4 270.2V261.67C552.4 258.516 549.844 255.96 546.69 255.96Z" fill="#00C7E5"/>
<path d="M345.64 271.33C348.512 271.33 350.84 269.002 350.84 266.13C350.84 263.258 348.512 260.93 345.64 260.93C342.769 260.93 340.44 263.258 340.44 266.13C340.44 269.002 342.769 271.33 345.64 271.33Z" fill="#00B8D9"/>
<path d="M370.31 271.33C373.182 271.33 375.51 269.002 375.51 266.13C375.51 263.258 373.182 260.93 370.31 260.93C367.438 260.93 365.11 263.258 365.11 266.13C365.11 269.002 367.438 271.33 370.31 271.33Z" fill="#00B8D9"/>
<path d="M394.971 271.33C397.842 271.33 400.171 269.002 400.171 266.13C400.171 263.258 397.842 260.93 394.971 260.93C392.099 260.93 389.771 263.258 389.771 266.13C389.771 269.002 392.099 271.33 394.971 271.33Z" fill="#00B8D9"/>
<path d="M419.64 271.33C422.512 271.33 424.84 269.002 424.84 266.13C424.84 263.258 422.512 260.93 419.64 260.93C416.769 260.93 414.44 263.258 414.44 266.13C414.44 269.002 416.769 271.33 419.64 271.33Z" fill="#00B8D9"/>
<path d="M444.31 271.33C447.182 271.33 449.51 269.002 449.51 266.13C449.51 263.258 447.182 260.93 444.31 260.93C441.438 260.93 439.11 263.258 439.11 266.13C439.11 269.002 441.438 271.33 444.31 271.33Z" fill="#00B8D9"/>
<path d="M468.971 271.33C471.842 271.33 474.171 269.002 474.171 266.13C474.171 263.258 471.842 260.93 468.971 260.93C466.099 260.93 463.771 263.258 463.771 266.13C463.771 269.002 466.099 271.33 468.971 271.33Z" fill="#00B8D9"/>
<path d="M493.64 271.33C496.512 271.33 498.84 269.002 498.84 266.13C498.84 263.258 496.512 260.93 493.64 260.93C490.769 260.93 488.44 263.258 488.44 266.13C488.44 269.002 490.769 271.33 493.64 271.33Z" fill="#00B8D9"/>
<path d="M518.31 271.33C521.182 271.33 523.51 269.002 523.51 266.13C523.51 263.258 521.182 260.93 518.31 260.93C515.438 260.93 513.11 263.258 513.11 266.13C513.11 269.002 515.438 271.33 518.31 271.33Z" fill="#00B8D9"/>
<path d="M448.51 87.35V75.13L164.93 75.13V87.35L448.51 87.35Z" fill="url(#paint4_linear)"/>
<path d="M456.88 252.67C477.132 244.281 486.749 221.064 478.36 200.812C469.972 180.561 446.754 170.944 426.503 179.332C406.251 187.721 396.634 210.938 405.023 231.19C413.411 251.441 436.629 261.058 456.88 252.67Z" fill="#B3F5FF"/>
<path d="M393.62 129.12C393.172 127.797 392.239 126.694 391.01 126.03C390.211 125.578 389.308 125.34 388.39 125.34C387.472 125.34 386.569 125.578 385.77 126.03C384.541 126.694 383.609 127.797 383.16 129.12L375.45 130.4L370.45 143.68L378.5 153.48L382.55 150.15L376.43 142.69L379.3 135.08L384.06 134.29C384.571 134.952 385.227 135.488 385.978 135.857C386.729 136.226 387.554 136.418 388.39 136.418C389.227 136.418 390.052 136.226 390.802 135.857C391.553 135.488 392.209 134.952 392.72 134.29L397.49 135.08L400.35 142.69L394.23 150.15L398.28 153.48L406.33 143.68L401.33 130.4L393.62 129.12Z" fill="#79E2F2"/>
<path d="M391.02 126.03V80.03H385.78V126.03C386.579 125.578 387.482 125.34 388.4 125.34C389.319 125.34 390.221 125.578 391.02 126.03Z" fill="url(#paint5_linear)"/>
<path d="M296.46 47.9301H291.56L112.25 230.63L114.75 233.07L296.46 47.9301Z" fill="#97A0AF"/>
<path d="M310.52 57.3601L208.68 296.77H229.28L322.8 47.9301L319.26 57.3601H310.52Z" fill="#FFAB00"/>
<path d="M208.68 296.77L310.52 57.36H294.83L146.23 296.77H166.83H208.68Z" fill="#FF991F"/>
<path d="M310.52 57.3601H319.26L322.8 47.9301H300.68L294.83 57.3601H310.52Z" fill="#FF8B00"/>
<path d="M309.95 247.64C308.74 247.22 307.54 246.75 306.37 246.23C307.54 246.75 308.74 247.22 309.95 247.64Z" fill="#C1C7D0"/>
<path d="M306.15 246.13C303.722 245.047 301.382 243.776 299.15 242.33C301.382 243.776 303.722 245.047 306.15 246.13Z" fill="#C1C7D0"/>
<path d="M343.62 247.57C342.36 248.02 341.08 248.41 339.78 248.76C341.06 248.41 342.34 248.02 343.62 247.57Z" fill="#C1C7D0"/>
<path d="M347.42 246.02C346.21 246.57 344.97 247.08 343.71 247.53C344.97 247.08 346.21 246.57 347.42 246.02Z" fill="#C1C7D0"/>
<path d="M351.29 244.08C350.12 244.73 348.93 245.33 347.71 245.89C348.93 245.33 350.12 244.73 351.29 244.08Z" fill="#C1C7D0"/>
<path d="M317.79 249.7C315.258 249.249 312.763 248.604 310.33 247.77C312.765 248.599 315.259 249.244 317.79 249.7Z" fill="#C1C7D0"/>
<path d="M322.08 250.27C320.84 250.16 319.61 250 318.4 249.8C319.62 250 320.84 250.16 322.08 250.27Z" fill="#C1C7D0"/>
<path d="M335.12 249.77C333.87 249.98 332.61 250.15 331.33 250.27C332.62 250.15 333.87 249.98 335.12 249.77Z" fill="#C1C7D0"/>
<path d="M326.67 250.49C325.36 250.49 324.06 250.42 322.77 250.32C324.06 250.42 325.36 250.49 326.67 250.49Z" fill="#C1C7D0"/>
<path d="M330.7 250.31C329.37 250.42 328.03 250.49 326.7 250.49C328.03 250.49 329.37 250.42 330.7 250.31Z" fill="#C1C7D0"/>
<path d="M339.55 248.82C338.31 249.15 337.04 249.42 335.76 249.66C337.04 249.42 338.31 249.15 339.55 248.82Z" fill="#C1C7D0"/>
<path d="M346.04 231.34C344.354 230.663 342.837 229.623 341.598 228.294C340.359 226.965 339.427 225.38 338.87 223.65L350.39 223.59C350.986 223.611 351.576 223.473 352.101 223.191C352.626 222.908 353.066 222.491 353.377 221.982C353.687 221.473 353.857 220.891 353.868 220.295C353.879 219.698 353.731 219.11 353.44 218.59C351.961 215.903 351.18 212.887 351.17 209.82L351.08 193.16C351.11 187.223 348.825 181.509 344.71 177.23C344.62 177.13 344.51 177.05 344.41 176.95C341.742 174.096 338.397 171.961 334.686 170.741C330.974 169.522 327.015 169.257 323.175 169.971C319.334 170.686 315.735 172.357 312.71 174.83C309.686 177.303 307.333 180.498 305.87 184.12C304.536 187.042 303.853 190.218 303.87 193.43L303.95 210.06C303.962 213.125 303.206 216.143 301.75 218.84C301.474 219.363 301.341 219.948 301.363 220.539C301.385 221.129 301.562 221.703 301.876 222.203C302.19 222.704 302.63 223.113 303.152 223.39C303.674 223.666 304.26 223.801 304.85 223.78L316.39 223.72C315.866 225.445 314.967 227.033 313.757 228.37C312.546 229.707 311.055 230.758 309.39 231.45C304.45 233.512 299.885 236.377 295.88 239.93C296.94 240.75 298.04 241.53 299.16 242.26C301.391 243.707 303.731 244.977 306.16 246.06L306.38 246.16C307.55 246.68 308.75 247.16 309.96 247.57L310.34 247.7C312.773 248.534 315.267 249.179 317.8 249.63L318.41 249.73C319.62 249.93 320.85 250.09 322.09 250.2L322.78 250.25C324.07 250.35 325.37 250.42 326.68 250.42C327.99 250.42 329.38 250.35 330.68 250.24H331.31C332.59 250.12 333.85 249.95 335.1 249.74L335.74 249.63C337.02 249.39 338.29 249.12 339.53 248.79L339.74 248.73C341.04 248.38 342.32 247.99 343.58 247.54H343.69C344.95 247.09 346.19 246.54 347.4 246.03L347.69 245.9C348.91 245.34 350.1 244.74 351.27 244.09L351.34 244.04C353.745 242.689 356.036 241.144 358.19 239.42C352.79 236.5 349.3 232.65 346.04 231.34Z" fill="#97A0AF"/>
<path d="M324.511 129.77L299.511 157.47C292.396 162.011 286.535 168.264 282.462 175.656C278.39 183.049 276.237 191.344 276.2 199.784C276.163 208.224 278.244 216.538 282.251 223.966C286.259 231.394 292.066 237.697 299.141 242.3C298.021 241.57 296.921 240.79 295.861 239.97C299.865 236.417 304.43 233.552 309.371 231.49C311.036 230.798 312.527 229.746 313.737 228.41C314.948 227.073 315.847 225.485 316.371 223.76L304.831 223.82C304.24 223.841 303.655 223.706 303.133 223.43C302.611 223.153 302.171 222.744 301.857 222.243C301.543 221.743 301.366 221.169 301.344 220.579C301.322 219.988 301.455 219.403 301.731 218.88C303.187 216.183 303.943 213.165 303.931 210.1L303.851 193.47C303.834 190.258 304.517 187.082 305.851 184.16C307.314 180.538 309.667 177.343 312.691 174.87C315.716 172.397 319.314 170.726 323.155 170.011C326.996 169.297 330.955 169.562 334.667 170.781C338.378 172.001 341.722 174.136 344.391 176.99C344.491 177.09 344.601 177.17 344.691 177.27C348.806 181.549 351.091 187.263 351.061 193.2L351.151 209.86C351.161 212.927 351.941 215.943 353.421 218.63C353.712 219.15 353.86 219.738 353.849 220.334C353.838 220.931 353.668 221.513 353.358 222.022C353.047 222.531 352.607 222.948 352.082 223.231C351.557 223.513 350.966 223.651 350.371 223.63L338.851 223.69C339.408 225.419 340.339 227.005 341.579 228.334C342.818 229.663 344.334 230.703 346.021 231.38C349.281 232.69 352.771 236.54 358.191 239.45C356.037 241.174 353.746 242.719 351.341 244.07C359.108 239.715 365.584 233.383 370.113 225.716C374.642 218.049 377.061 209.32 377.126 200.416C377.191 191.512 374.899 182.748 370.483 175.016C366.067 167.284 359.683 160.858 351.981 156.39L327.981 129.81V47.9H324.491L324.511 129.77ZM326.671 149.52C320.225 149.517 313.839 150.753 307.861 153.16L326.251 132.79L344.191 152.65C338.583 150.575 332.65 149.516 326.671 149.52Z" fill="#C1C7D0"/>
<path d="M521.26 82.49C516.445 85.5446 510.734 86.8708 505.066 86.2507C499.397 85.6306 494.108 83.1011 490.067 79.0777C486.026 75.0543 483.474 69.7763 482.829 64.1106C482.185 58.4448 483.486 52.7283 486.52 47.9H413.44C412.703 48.6619 412.291 49.6801 412.29 50.74V71.64C412.293 72.731 412.728 73.7764 413.5 74.5468C414.273 75.3173 415.319 75.75 416.41 75.75H424.8C425.727 75.7485 426.627 76.061 427.353 76.6367C428.08 77.2124 428.59 78.0173 428.8 78.92C430.828 88.0096 434.418 96.6782 439.41 104.54C439.906 105.325 440.119 106.255 440.013 107.177C439.908 108.099 439.49 108.958 438.83 109.61L432.89 115.55C432.507 115.933 432.203 116.387 431.996 116.887C431.788 117.387 431.682 117.924 431.682 118.465C431.682 119.006 431.788 119.543 431.996 120.043C432.203 120.543 432.507 120.997 432.89 121.38L447.66 136.15C448.042 136.533 448.495 136.837 448.995 137.044C449.494 137.251 450.029 137.358 450.57 137.358C451.111 137.358 451.646 137.251 452.145 137.044C452.645 136.837 453.098 136.533 453.48 136.15L459.42 130.21C460.075 129.551 460.934 129.133 461.857 129.026C462.78 128.919 463.712 129.128 464.5 129.62C472.36 134.619 481.029 138.213 490.12 140.24C491.022 140.451 491.825 140.961 492.399 141.688C492.973 142.414 493.284 143.314 493.28 144.24V152.64C493.283 153.731 493.718 154.776 494.49 155.547C495.263 156.317 496.309 156.75 497.4 156.75H518.29C518.849 156.756 519.403 156.648 519.918 156.433C520.434 156.218 520.901 155.901 521.29 155.5L521.26 82.49Z" fill="#00C7E5"/>
<path d="M507.85 366.83C537.64 366.83 561.79 342.68 561.79 312.89C561.79 283.1 537.64 258.95 507.85 258.95C478.06 258.95 453.91 283.1 453.91 312.89C453.91 342.68 478.06 366.83 507.85 366.83Z" fill="#C1C7D0"/>
<path d="M537.91 300.55C535.853 295.779 532.356 291.77 527.907 289.085C523.459 286.401 518.282 285.174 513.102 285.578C507.922 285.981 502.997 287.994 499.018 291.335C495.039 294.676 492.204 299.178 490.91 304.21C490.445 306.061 489.582 307.788 488.382 309.271C487.182 310.754 485.673 311.959 483.96 312.8C481.63 313.937 479.014 314.354 476.446 313.998C473.877 313.641 471.473 312.528 469.54 310.8C465.267 306.992 460.39 303.92 455.11 301.71C452.601 313.537 454.138 325.864 459.475 336.712C464.812 347.561 473.64 356.301 484.54 361.53C484.82 354.97 486.91 349.81 486.67 346.06C486.49 343.462 487.088 340.869 488.388 338.612C489.688 336.355 491.632 334.537 493.97 333.39C495.651 332.554 497.495 332.098 499.371 332.053C501.248 332.008 503.112 332.376 504.83 333.13C509.408 335.192 514.502 335.822 519.444 334.938C524.386 334.055 528.946 331.698 532.525 328.178C536.105 324.658 538.537 320.138 539.504 315.212C540.47 310.285 539.925 305.182 537.94 300.57L537.91 300.55Z" fill="#97A0AF"/>
<path d="M525.3 365.94H405.43V373.79H525.3V365.94Z" fill="#6C798F"/>
<path d="M565.971 365.94H525.301V373.79H565.971V365.94Z" fill="#97A0AF"/>
<path d="M416.15 389.27C420.419 389.27 423.88 385.809 423.88 381.54C423.88 377.271 420.419 373.81 416.15 373.81C411.881 373.81 408.42 377.271 408.42 381.54C408.42 385.809 411.881 389.27 416.15 389.27Z" fill="#6C798F"/>
<path d="M513.56 389.27C517.829 389.27 521.29 385.809 521.29 381.54C521.29 377.271 517.829 373.81 513.56 373.81C509.291 373.81 505.83 377.271 505.83 381.54C505.83 385.809 509.291 389.27 513.56 389.27Z" fill="#6C798F"/>
<path d="M457.121 389.27C461.39 389.27 464.851 385.809 464.851 381.54C464.851 377.271 461.39 373.81 457.121 373.81C452.851 373.81 449.391 377.271 449.391 381.54C449.391 385.809 452.851 389.27 457.121 389.27Z" fill="#6C798F"/>
<path d="M554.531 389.27C558.8 389.27 562.261 385.809 562.261 381.54C562.261 377.271 558.8 373.81 554.531 373.81C550.262 373.81 546.801 377.271 546.801 381.54C546.801 385.809 550.262 389.27 554.531 389.27Z" fill="#6C798F"/>
<path d="M386.86 366.8H313.04V374.55H386.86V366.8Z" fill="#DFE1E5"/>
<path d="M386.861 335.37H268.721V343.12H386.861V335.37Z" fill="#DFE1E5"/>
<path d="M585.231 397.5L596.981 394.83L595.281 387.39L591.681 389.22C591.708 390.534 591.224 391.806 590.331 392.77C588.851 394.23 586.811 393.84 585.761 395.45C585.373 396.061 585.188 396.778 585.231 397.5Z" fill="#162B4C"/>
<path d="M533.551 401.06L547.341 400.87L547.211 392.12L542.721 392.37C542.301 395.27 541.221 396.46 540.351 397.01C538.431 398.26 536.151 397.3 534.571 398.92C534.019 399.511 533.662 400.259 533.551 401.06Z" fill="#162B4C"/>
<path d="M553.34 295.15C554.876 295.658 556.516 295.765 558.104 295.462C559.693 295.16 561.179 294.457 562.42 293.42C560.351 290.962 559.097 287.922 558.83 284.72L551.2 286.13L553.34 295.15Z" fill="#8C715D"/>
<path d="M559.12 288.17C560.29 287.4 558.92 285.46 559.46 284.17C560.028 282.783 560.147 281.253 559.801 279.795C559.455 278.337 558.66 277.024 557.529 276.041C556.398 275.057 554.987 274.453 553.495 274.313C552.003 274.173 550.504 274.504 549.21 275.26C548.704 275 548.123 274.923 547.566 275.043C547.01 275.163 546.512 275.473 546.158 275.919C545.804 276.364 545.616 276.919 545.625 277.488C545.635 278.058 545.841 278.606 546.21 279.04C546.2 279.278 546.22 279.517 546.27 279.75C546.729 282.302 548.123 284.591 550.18 286.17L559.12 288.17Z" fill="#27375C"/>
<path d="M546.24 279.03C546.214 279.893 546.117 280.753 545.95 281.6C545.84 282.17 545.74 282.6 545.71 282.69C545.45 283.69 544.57 285.32 544.63 285.53C544.69 285.74 546.04 285.85 546.04 285.85C546.04 285.85 546.74 290.16 547.04 290.42C548.95 290.901 550.927 291.063 552.89 290.9C554.55 290.69 556.24 290.49 557.05 289.27C557.293 288.837 557.484 288.378 557.62 287.9C557.72 287.61 555.88 287.81 555.38 287.42C554.51 287.42 554.9 283.76 554.29 283.33C554.15 283.259 553.994 283.227 553.838 283.236C553.682 283.244 553.531 283.294 553.4 283.38C552.66 283.87 552.87 285.67 552.87 285.67L551.58 285.58C551.552 284.772 551.329 283.983 550.93 283.28C550.3 282.2 549.67 282.17 549.23 281.12C548.79 280.07 549.17 279.53 548.7 279.12C548.23 278.71 547.76 278.56 546.24 279.03Z" fill="#8C715D"/>
<path d="M574.071 320.01C575.281 322.14 576.361 324.4 577.441 326.79C581.433 335.651 584.159 345.03 585.541 354.65C586.971 357.83 588.371 361.24 589.711 364.86C592.602 372.753 594.84 380.87 596.401 389.13L590.091 390.67L577.521 357.95C576.861 356.62 575.911 354.63 574.751 352.22C566.341 334.65 565.511 331.51 566.411 328.31C566.951 326.44 568.491 323.12 574.071 320.01Z" fill="#172B4D"/>
<path d="M557.901 325.26C549.135 347.229 543.249 370.24 540.391 393.72L547.931 393.62C548.951 388.807 550.127 383.837 551.461 378.71C553.301 371.71 555.301 365.07 557.351 358.86C567.801 348.52 574.751 339.77 576.751 335.44C577.521 333.79 578.881 330.88 577.871 328.12C577.721 327.67 577.301 326.91 576.501 325.24C575.701 323.57 574.971 322.24 574.501 321.33C569.182 323.441 563.569 324.719 557.861 325.12L557.901 325.26Z" fill="url(#paint6_linear)"/>
<path d="M513.36 288.9C513.638 288.981 513.934 288.976 514.209 288.884C514.484 288.793 514.725 288.621 514.9 288.39C515.247 288.024 515.505 287.582 515.654 287.1C515.803 286.618 515.839 286.108 515.76 285.61C515.594 284.653 515.354 283.71 515.04 282.79C514.8 282.02 514.56 281.25 514.34 280.47C514.258 279.775 514.058 279.099 513.75 278.47C513.19 277.69 512.52 278.23 512.3 278.99C512.08 279.75 512.38 281.13 511.22 281.25C510.28 281.34 509.12 280.42 508.28 280.09C507.89 279.94 507.37 279.63 506.94 279.78C506.51 279.93 506.6 280.27 506.34 280.56C506.08 280.85 505.56 280.84 505.34 281.25C505.12 281.66 505.34 281.91 505.22 282.25C505.01 282.88 504.66 283.25 505.06 283.94C505.75 285.17 507.85 285.94 509 286.66C510.15 287.38 511.38 287.77 512.47 288.45C512.745 288.639 513.045 288.79 513.36 288.9Z" fill="#8C715D"/>
<path d="M568.12 296.11C567.638 294.316 566.494 292.772 564.919 291.789C563.343 290.805 561.454 290.455 559.63 290.81L548.99 292.9C546.58 293.38 544.328 294.456 542.44 296.03L527.25 300.74L516.06 285.84L511.73 288.42L524.06 308.63C528.048 309.273 532.082 309.588 536.12 309.57C539.968 309.542 543.806 309.207 547.6 308.57L553.75 328.1L561.75 328.81C566.979 329.278 572.187 327.713 576.29 324.44L577.44 323.52L569.211 300.26L568.12 296.11Z" fill="#344563"/>
<path d="M473.17 354.9C473.634 355.195 474.156 355.384 474.7 355.455C475.244 355.526 475.797 355.476 476.32 355.31C476.954 354.983 477.492 354.497 477.88 353.9C478.432 353.209 478.88 352.441 479.21 351.62L482.12 351.99C482.231 352.007 482.345 351.99 482.445 351.939C482.546 351.889 482.628 351.809 482.68 351.71C482.718 351.64 482.739 351.563 482.743 351.484C482.747 351.405 482.733 351.326 482.702 351.254C482.671 351.181 482.625 351.116 482.566 351.063C482.507 351.011 482.436 350.972 482.36 350.95L479.61 350.11C479.398 350.047 479.17 350.064 478.97 350.16L476.49 351.29L472.98 352.98L473.17 354.9Z" fill="#ECC19C"/>
<path d="M481.28 351.49L482.68 352C482.805 352.045 482.911 352.133 482.979 352.248C483.047 352.363 483.072 352.498 483.05 352.63C483.027 352.777 482.95 352.909 482.832 353.001C482.715 353.092 482.567 353.135 482.42 353.12L478.88 352.78L476.93 353.99L477.06 352.32L479.06 351.15L481.28 351.49Z" fill="#ECC19C"/>
<path d="M482.85 354.09C482.806 354.22 482.715 354.33 482.595 354.396C482.474 354.463 482.333 354.482 482.2 354.45L480.08 353.72L477.01 353.86L477.17 352.75L480.32 352.48L482.54 353.41C482.668 353.463 482.77 353.563 482.828 353.689C482.885 353.815 482.893 353.958 482.85 354.09Z" fill="#ECC19C"/>
<path d="M480.26 355.1C480.196 355.177 480.106 355.229 480.007 355.245C479.908 355.262 479.806 355.242 479.72 355.19L479.09 354.53L477.36 354.27L477.58 353.38L479.85 353.69L480.22 354.55C480.296 354.619 480.343 354.715 480.35 354.817C480.358 354.919 480.326 355.021 480.26 355.1Z" fill="#ECC19C"/>
<path d="M437.45 338.24C440.592 338.24 443.14 335.692 443.14 332.55C443.14 329.407 440.592 326.86 437.45 326.86C434.307 326.86 431.76 329.407 431.76 332.55C431.76 335.692 434.307 338.24 437.45 338.24Z" fill="#253858"/>
<path d="M402.86 392.53L424.18 396.59C425.117 396.64 426.054 396.495 426.932 396.165C427.81 395.834 428.609 395.325 429.28 394.67C430.201 393.585 430.77 392.246 430.91 390.83C431.123 389.028 430.97 387.202 430.46 385.46C430.38 385.16 430.32 384.93 430.27 384.77C428.27 377.86 427.19 375.39 426.17 371.77C424.53 365.9 425.32 366.21 424.17 363.15C422.362 358.7 419.336 354.85 415.44 352.04C414.389 353.278 413.465 354.618 412.68 356.04C411.736 357.614 411.06 359.334 410.68 361.13C410.376 362.938 410.413 364.786 410.79 366.58C411.515 370.554 412.865 374.389 414.79 377.94C416.169 380.607 417.761 383.159 419.55 385.57C416.89 384.67 414.07 383.79 411.09 382.97C408.824 382.35 406.624 381.8 404.49 381.32C403.91 385.04 403.367 388.777 402.86 392.53Z" fill="#FF991F"/>
<path d="M415.46 352.02C414.366 353.231 413.428 354.575 412.67 356.02C411.45 358.32 409.91 361.21 410.67 364.72C410.79 365.31 411.26 368.72 414.3 370.46C415.175 370.98 416.08 371.448 417.01 371.86C418.378 372.416 419.789 372.858 421.23 373.18C425.077 373.914 428.983 374.296 432.9 374.32C431.471 375.422 430.102 376.6 428.8 377.85C426.747 379.777 424.81 381.824 423 383.98L432.35 390.43C434.74 388.14 437.23 385.57 439.75 382.69C442.462 379.594 445.012 376.36 447.39 373C447.817 371.853 447.872 370.601 447.55 369.42C447.23 368.494 446.704 367.652 446.011 366.959C445.318 366.266 444.476 365.74 443.55 365.42L433.06 361.9L425.27 359.42C423.44 358.26 421.49 356.92 419.49 355.37C418.03 354.27 416.69 353.13 415.46 352.02Z" fill="#FFAB00"/>
<path d="M439.29 355.56L425.54 359.65C421.859 357.534 418.459 354.964 415.42 352C418.795 348.544 422.418 345.339 426.26 342.41C428.15 340.99 429.26 340.26 431.62 338.81C431.62 338.81 435.62 336.3 437.94 335.73L439.53 335.34L442.67 342.61C442.949 343.258 443.043 343.972 442.94 344.67L441.83 352.59C441.755 353.158 441.546 353.699 441.218 354.169C440.891 354.639 440.456 355.023 439.95 355.29C439.741 355.405 439.519 355.495 439.29 355.56Z" fill="#FFC400"/>
<path d="M444.45 342.82C444.444 342.509 444.4 342.2 444.32 341.9C444.223 341.55 444.082 341.214 443.9 340.9C443.838 339.496 444.112 338.097 444.7 336.82C444.918 336.337 445.187 335.878 445.5 335.45L441.45 332.99L438.74 336.04L440.16 337.67C441.057 338.739 441.851 339.891 442.53 341.11C442.662 341.341 442.816 341.559 442.99 341.76C443.396 342.213 443.894 342.574 444.45 342.82Z" fill="#ECC19C"/>
<path d="M441.05 396.6C440.476 395.512 439.533 394.664 438.39 394.21C436.52 393.39 435.39 394.21 433.08 393.21C432.43 392.92 430.88 392.21 430.85 391.21C430.869 390.955 430.942 390.708 431.065 390.484C431.187 390.259 431.356 390.064 431.56 389.91L427 386.76C425.996 387.991 425.275 389.429 424.89 390.97C424.392 392.818 424.153 394.726 424.18 396.64L441.05 396.6Z" fill="#253858"/>
<path d="M404.05 384.14C403.186 383.742 402.271 383.466 401.33 383.32C400.25 383.149 399.15 383.149 398.07 383.32L398.13 394.32C398.097 394.606 398.123 394.896 398.207 395.172C398.292 395.447 398.432 395.702 398.62 395.92C398.932 396.261 399.353 396.484 399.81 396.55H404.89C404.743 396.188 404.54 395.851 404.29 395.55C403.24 394.33 401.99 394.5 401.53 393.47C401.366 393.035 401.342 392.56 401.46 392.11C401.572 391.641 401.795 391.205 402.11 390.84C402.431 390.448 402.813 390.111 403.24 389.84L404.05 384.14Z" fill="#253858"/>
<path d="M441.551 333.19L446.441 336.19C447.114 336.592 447.915 336.72 448.681 336.55C449.346 336.395 449.939 336.018 450.361 335.48L452.131 333.24L452.831 333.73C452.89 333.771 452.96 333.795 453.033 333.798C453.105 333.801 453.177 333.784 453.241 333.749C453.304 333.714 453.356 333.661 453.392 333.598C453.427 333.535 453.444 333.463 453.441 333.39L453.321 331.2L453.701 330.02C454.172 328.515 454.318 326.926 454.131 325.36C454.011 324.336 453.67 323.35 453.132 322.471C452.593 321.592 451.869 320.841 451.011 320.27C450.076 319.647 449.007 319.253 447.892 319.121C446.776 318.989 445.645 319.122 444.591 319.51L444.171 319.67C443.698 319.84 443.266 320.105 442.901 320.45C441.914 321.355 441.202 322.52 440.848 323.812C440.495 325.103 440.513 326.468 440.901 327.75L441.371 329.29L441.551 333.19Z" fill="#ECC19C"/>
<path d="M443.251 336.65C445.171 340.077 447.087 343.503 449.001 346.93L453.831 355.49C456.411 354.92 458.541 354.55 460.011 354.32C462.421 353.93 463.851 353.78 468.361 353.19L473.541 352.49C473.661 353.49 473.771 354.49 473.881 355.49C470.687 357.398 467.298 358.957 463.771 360.14C457.861 362.14 454.901 363.14 451.831 362.14C449.831 361.5 445.891 358.38 440.911 350.14C440.071 348.74 439.451 347.54 439.051 346.71C438.287 344.908 438.244 342.882 438.931 341.05C439.312 340.06 439.892 339.159 440.635 338.403C441.378 337.646 442.268 337.049 443.251 336.65Z" fill="#FFC400"/>
<path d="M439.8 323.81C439.55 325.66 440.55 326.61 440.95 330.34C441.064 331.336 441.111 332.338 441.09 333.34C442.176 332.616 443.124 331.706 443.89 330.65C444.378 330.049 444.766 329.374 445.04 328.65C445.59 326.99 445.16 325.73 445.96 325.23C446.062 325.162 446.177 325.116 446.297 325.094C446.417 325.071 446.541 325.074 446.66 325.1C447.48 325.41 446.66 327.53 447.66 328.4C448.66 329.27 450.66 328.4 451.74 327.91C452.98 327.39 454.21 326.86 454.6 325.69C454.708 325.136 454.695 324.565 454.562 324.016C454.429 323.467 454.18 322.954 453.83 322.51C452.14 319.85 447.83 317.08 443.83 318.86C442.808 319.297 441.907 319.975 441.205 320.838C440.502 321.7 440.021 322.72 439.8 323.81Z" fill="#253858"/>
<path d="M203.64 325.39H51.8398V345.34H203.64V325.39Z" fill="#253858"/>
<path d="M31.5098 244.05H63.5098C63.775 244.05 64.0293 244.155 64.2169 244.343C64.4044 244.53 64.5098 244.785 64.5098 245.05V255.05H30.5098V245.05C30.5098 244.785 30.6151 244.53 30.8027 244.343C30.9902 244.155 31.2445 244.05 31.5098 244.05Z" stroke="#97A0AF" stroke-width="2" stroke-miterlimit="10"/>
<path d="M238.51 343.96H115.74C109.234 343.96 103.96 349.234 103.96 355.74V373.37C103.96 379.876 109.234 385.15 115.74 385.15H238.51C245.016 385.15 250.29 379.876 250.29 373.37V355.74C250.29 349.234 245.016 343.96 238.51 343.96Z" fill="#97A0AF"/>
<path d="M221.361 343.96H98.5905C92.0846 343.96 86.8105 349.234 86.8105 355.74V373.37C86.8105 379.876 92.0846 385.15 98.5905 385.15H221.361C227.866 385.15 233.141 379.876 233.141 373.37V355.74C233.141 349.234 227.866 343.96 221.361 343.96Z" fill="#6C798F"/>
<path d="M201.75 343.96H78.9802C72.4743 343.96 67.2002 349.234 67.2002 355.74V373.37C67.2002 379.876 72.4743 385.15 78.9802 385.15H201.75C208.256 385.15 213.53 379.876 213.53 373.37V355.74C213.53 349.234 208.256 343.96 201.75 343.96Z" fill="#97A0AF"/>
<path d="M178.25 343.96H11.78C5.27409 343.96 0 349.234 0 355.74V373.37C0 379.876 5.27409 385.15 11.78 385.15H178.25C184.756 385.15 190.03 379.876 190.03 373.37V355.74C190.03 349.234 184.756 343.96 178.25 343.96Z" fill="#6C798F"/>
<path d="M76.6201 230.1H156.76C157.291 230.1 157.799 230.311 158.174 230.686C158.549 231.061 158.76 231.57 158.76 232.1V314.24H74.6201V232.1C74.6201 231.57 74.8308 231.061 75.2059 230.686C75.581 230.311 76.0897 230.1 76.6201 230.1Z" fill="#FF991F"/>
<path d="M173.05 230.1H194.41C198.197 230.1 201.829 231.604 204.507 234.282C207.185 236.96 208.69 240.593 208.69 244.38V314.25H158.77V244.38C158.77 240.593 160.274 236.96 162.952 234.282C165.63 231.604 169.262 230.1 173.05 230.1Z" fill="#FFC400"/>
<path d="M130.23 230.1H194.41C198.198 230.1 201.83 231.605 204.508 234.283C207.186 236.961 208.69 240.593 208.69 244.38V285.06H130.23V230.06V230.1Z" fill="#79E2F2"/>
<path d="M187.42 230.4L168.42 261.03V285.03H208.69V255.03C208.681 249.058 206.529 243.288 202.626 238.768C198.722 234.248 193.327 231.279 187.42 230.4Z" fill="#00C7E5"/>
<path d="M195.26 275.95C195.389 275.819 195.488 275.662 195.55 275.49C195.66 275.558 195.786 275.594 195.915 275.594C196.044 275.594 196.171 275.558 196.28 275.49C196.402 275.425 196.505 275.329 196.577 275.211C196.649 275.093 196.688 274.958 196.69 274.82C196.685 274.693 196.642 274.57 196.567 274.467C196.493 274.364 196.389 274.285 196.27 274.24C196.384 274.105 196.45 273.936 196.46 273.76C196.46 273.21 195.3 272.27 193.66 271.9L194.11 276.17C194.86 276.2 195.08 276.12 195.26 275.95Z" fill="#DABCAA"/>
<path d="M194.08 271.95C194.94 271.5 195.14 271.21 195.15 270.95C195.133 270.878 195.109 270.808 195.08 270.74C194.775 270.963 194.438 271.138 194.08 271.26V271.95Z" fill="#DABCAA"/>
<path d="M191.06 275.65C191.55 275.8 192.4 275.99 192.81 276.08L192.76 271.08L192.16 270.78C191.832 270.706 191.497 270.666 191.16 270.66C190.49 270.661 189.827 270.797 189.21 271.06V274.44L191.06 275.65Z" fill="#DABCAA"/>
<path d="M181.86 282.9L181.67 282.78L181.23 285.05H183.01L183.35 283.26C182.847 283.169 182.35 283.049 181.86 282.9Z" fill="#00A3BF"/>
<path d="M194.26 272.61V271.45C194.391 271.375 194.515 271.288 194.63 271.19C194.899 271 195.12 270.748 195.273 270.456C195.426 270.164 195.507 269.84 195.51 269.51C195.51 268.945 195.286 268.403 194.886 268.004C194.487 267.604 193.945 267.38 193.38 267.38C192.815 267.38 192.273 267.604 191.874 268.004C191.474 268.403 191.25 268.945 191.25 269.51C191.254 269.879 191.354 270.241 191.542 270.559C191.73 270.876 191.998 271.139 192.32 271.32C192.381 271.367 192.444 271.41 192.51 271.45V285.05H194.26V272.61Z" fill="#00A3BF"/>
<path d="M181.86 282.9C182.35 283.049 182.847 283.169 183.35 283.26C183.67 283.32 183.98 283.38 184.22 283.41C184.471 283.484 184.735 283.502 184.993 283.46C185.251 283.418 185.496 283.319 185.71 283.17C185.828 283.052 185.917 282.908 185.97 282.75C186.071 282.813 186.187 282.846 186.305 282.846C186.424 282.846 186.54 282.813 186.64 282.75C186.751 282.691 186.844 282.603 186.909 282.496C186.974 282.388 187.009 282.266 187.01 282.14C187.012 282.023 186.976 281.908 186.908 281.813C186.839 281.717 186.742 281.646 186.63 281.61C186.732 281.48 186.794 281.324 186.81 281.16C186.81 280.52 185.75 279.92 184.15 279.64C185.02 279.39 185.6 278.88 185.6 278.43C185.6 278.3 185.558 278.174 185.48 278.07L184.3 278.3L183.3 278.49C183.046 278.41 182.785 278.353 182.52 278.32C182.331 278.309 182.14 278.309 181.95 278.32C181.143 278.331 180.351 278.537 179.64 278.92L179.48 281.33L181.68 282.79L181.86 282.9Z" fill="#DABCAA"/>
<path d="M182.621 275.39C182.333 275.032 182.171 274.589 182.161 274.13C182.198 273.589 182.439 273.082 182.835 272.712C183.231 272.342 183.753 272.136 184.296 272.136C184.838 272.136 185.36 272.342 185.756 272.712C186.153 273.082 186.394 273.589 186.431 274.13C186.42 274.51 186.306 274.88 186.101 275.2L189.981 275V270.34H173.301L168.811 261.97C169.433 263.388 169.908 264.866 170.231 266.38C170.231 266.53 170.231 266.68 170.231 266.84C170.371 268.99 169.531 269.37 168.861 272.21C168.781 272.56 168.701 272.92 168.641 273.35L170.911 276L182.621 275.39Z" fill="#0049B0"/>
<path d="M165.75 248.62C165.75 249 165.75 249.19 165.75 249.35C165.767 250.245 165.73 251.14 165.64 252.03C164.753 252.342 163.844 252.586 162.92 252.76C162.56 252.83 162.13 252.9 161.66 252.96C161.66 253.36 161.66 253.78 161.6 254.21C161.54 254.64 161.6 254.77 161.6 255.04C162.564 255.186 163.519 255.387 164.46 255.64C165.064 255.791 165.62 256.09 166.08 256.51C166.296 256.346 166.467 256.129 166.578 255.881C166.688 255.633 166.733 255.361 166.71 255.09C166.49 252.83 166.17 250.02 165.88 247.33L165.74 247.4C165.78 247.84 165.73 247.8 165.75 248.62Z" fill="#172B4D"/>
<path d="M162.79 267.9C163.2 271 163.47 274.05 163.65 277.04L166.76 277.41C166.574 275.931 166.487 274.441 166.5 272.95C166.5 272.84 166.55 272.19 166.56 271.32C166.566 269.039 166.229 266.77 165.56 264.59C165.215 263.415 164.749 262.279 164.17 261.2C163.546 260.06 162.787 258.999 161.91 258.04C161.983 257.462 161.9 256.875 161.67 256.34V256.87C160.99 257.236 160.247 257.47 159.48 257.56C159.48 257.68 159.39 257.79 159.35 257.9C159.99 258.17 160.61 258.41 161.18 258.6C161.82 261.56 162.36 264.66 162.79 267.9Z" fill="#2684FF"/>
<path d="M163.86 283.4V285.05H167.62C167.56 284.55 167.5 284.05 167.44 283.6L163.86 283.4Z" fill="#2684FF"/>
<path d="M164.56 243.07L160.44 243.52C160.64 246.01 160.05 251.77 159.75 256.33C159.715 256.742 159.631 257.148 159.5 257.54C160.267 257.45 161.01 257.216 161.69 256.85V256.32C161.69 255.91 161.69 255.49 161.69 255.04C161.69 254.77 161.69 254.5 161.69 254.21C161.69 253.92 161.69 253.36 161.75 252.96C162.22 252.9 162.65 252.83 163.01 252.76C163.934 252.586 164.843 252.342 165.73 252.03C165.82 251.14 165.857 250.245 165.84 249.35C165.84 249.19 165.84 249 165.84 248.62C165.84 247.8 165.84 247.84 165.84 247.4L165.98 247.33L166.98 246.87L165.86 245.74L164.99 244.86C164.85 244.72 164.71 243.84 164.56 243.07Z" fill="#DABCAA"/>
<path d="M155.621 243.42C156.047 244.231 156.428 245.066 156.761 245.92C156.428 245.066 156.047 244.231 155.621 243.42C153.644 244.925 151.592 246.327 149.471 247.62C149.531 248.62 149.631 249.88 149.761 251.38C149.831 252.24 148.761 255.96 148.301 257.99C148.256 258.179 148.254 258.375 148.294 258.566C148.334 258.756 148.414 258.935 148.531 259.09C148.699 259.349 148.954 259.541 149.251 259.63L150.531 260.03C151.809 260.381 153.113 260.632 154.431 260.78C155.179 260.88 155.94 260.798 156.65 260.543C157.36 260.287 157.998 259.864 158.511 259.31C158.898 258.892 159.206 258.408 159.421 257.88C159.421 257.77 159.511 257.66 159.551 257.54C159.682 257.148 159.766 256.742 159.801 256.33C160.101 251.77 160.691 246.01 160.491 243.52L164.611 243.07C164.761 243.84 164.901 244.72 164.931 244.86L165.801 245.74C165.691 244.67 165.591 243.65 165.521 242.74C165.191 241.386 164.475 240.156 163.461 239.2C162.911 238.716 162.286 238.325 161.611 238.04C159.766 239.996 157.762 241.795 155.621 243.42ZM158.511 255.06C158.507 254.097 158.447 253.136 158.331 252.18C158.43 253.137 158.473 254.098 158.461 255.06H158.511ZM158.211 251.39C158.111 250.69 157.981 250 157.821 249.33C157.931 250.01 158.061 250.69 158.161 251.39H158.211ZM156.971 246.48C157.211 247.16 157.431 247.85 157.621 248.55C157.381 247.9 157.161 247.16 156.921 246.48H156.971Z" fill="#172B4D"/>
<path d="M184.3 272C183.734 272 183.192 272.224 182.79 272.623C182.389 273.022 182.163 273.564 182.16 274.13C182.176 274.451 182.26 274.765 182.407 275.051C182.553 275.338 182.759 275.589 183.01 275.79L182.51 278.36C182.775 278.393 183.036 278.45 183.29 278.53L184.29 278.34L184.7 276.18C184.99 276.123 185.265 276.005 185.505 275.832C185.744 275.659 185.944 275.437 186.09 275.18C186.296 274.86 186.41 274.49 186.42 274.11C186.412 273.551 186.186 273.017 185.79 272.623C185.394 272.229 184.859 272.005 184.3 272Z" fill="#00A3BF"/>
<path d="M146.39 285.05C146.667 284.454 146.974 283.874 147.31 283.31L147.66 282.56C148.205 281.637 148.632 280.649 148.93 279.62C149.58 276.97 147.15 269.31 147.15 269.31C146.495 267.241 146.135 265.09 146.08 262.92C146.056 262.178 146.238 261.443 146.607 260.798C146.976 260.154 147.518 259.624 148.17 259.27L148.48 259.09C148.364 258.935 148.283 258.756 148.244 258.566C148.204 258.376 148.206 258.179 148.25 257.99C148.73 255.99 149.78 252.24 149.71 251.38C149.58 249.88 149.48 248.65 149.42 247.62L148.94 247.92C147.854 246.187 147.43 244.12 147.746 242.099C148.062 240.078 149.097 238.239 150.66 236.92C151.1 237.34 151.53 237.79 151.94 238.24C151.53 237.78 151.1 237.34 150.66 236.92C146.034 232.514 139.889 230.058 133.5 230.06H130.23V285.01L146.39 285.05Z" fill="#00C7E5"/>
<path d="M153.24 239.82C152.9 239.38 152.54 238.95 152.17 238.53C152.54 238.95 152.9 239.38 153.24 239.82Z" fill="#00C7E5"/>
<path d="M153.62 240.26C153.93 240.68 154.23 241.1 154.51 241.54C154.18 241.1 153.88 240.68 153.62 240.26Z" fill="#00C7E5"/>
<path d="M168.72 277.62C168.55 276.202 168.55 274.768 168.72 273.35C168.78 272.92 168.86 272.56 168.94 272.21C169.61 269.37 170.45 268.99 170.31 266.84C170.31 266.68 170.31 266.53 170.31 266.38C169.987 264.866 169.512 263.388 168.89 261.97C168.71 261.53 168.56 261.19 168.49 261.03L168.43 260.9C168.08 260.17 167.66 259.2 167.21 258.01C166.993 257.432 166.639 256.914 166.18 256.502C165.72 256.089 165.168 255.794 164.57 255.64C163.628 255.387 162.673 255.186 161.71 255.04C161.71 255.49 161.71 255.91 161.71 256.32C161.94 256.855 162.023 257.442 161.95 258.02C162.827 258.979 163.586 260.04 164.21 261.18C164.789 262.259 165.255 263.395 165.6 264.57C166.269 266.75 166.606 269.019 166.6 271.3C166.6 272.17 166.55 272.82 166.54 272.93C166.527 274.421 166.614 275.911 166.8 277.39L163.69 277.02C163.51 274.02 163.24 271.02 162.83 267.88C162.42 264.74 161.83 261.56 161.24 258.58C160.67 258.39 160.05 258.15 159.41 257.88C159.016 258.849 158.311 259.66 157.405 260.185C156.5 260.71 155.447 260.919 154.41 260.78C153.092 260.632 151.788 260.381 150.51 260.03L149.23 259.63C148.933 259.541 148.678 259.349 148.51 259.09L148.2 259.27C147.547 259.624 147.005 260.153 146.636 260.798C146.267 261.443 146.085 262.178 146.11 262.92C146.164 265.09 146.524 267.241 147.18 269.31C147.18 269.31 149.61 276.97 148.96 279.62C148.661 280.649 148.235 281.637 147.69 282.56L147.34 283.31C147.003 283.874 146.696 284.454 146.42 285.05H163.89V283.4L167.49 283.6C167.55 284.07 167.61 284.55 167.67 285.05H170.31L170.2 284.61C170.2 284.61 170.09 284.27 169.94 283.73L179.3 284.23L179.5 281.32L179.62 278.9L168.72 277.62Z" fill="#0049B0"/>
<path d="M20.0508 251.59H74.6208V314.25H18.0508V253.59C18.0508 253.06 18.2615 252.551 18.6366 252.176C19.0116 251.801 19.5203 251.59 20.0508 251.59Z" fill="#FF8B00"/>
<path d="M20.5998 376.4C27.1388 376.4 32.4398 371.099 32.4398 364.56C32.4398 358.021 27.1388 352.72 20.5998 352.72C14.0607 352.72 8.75977 358.021 8.75977 364.56C8.75977 371.099 14.0607 376.4 20.5998 376.4Z" fill="#505F79"/>
<path d="M57.1603 376.4C63.6994 376.4 69.0003 371.099 69.0003 364.56C69.0003 358.021 63.6994 352.72 57.1603 352.72C50.6213 352.72 45.3203 358.021 45.3203 364.56C45.3203 371.099 50.6213 376.4 57.1603 376.4Z" fill="#505F79"/>
<path d="M93.7101 376.4C100.249 376.4 105.55 371.099 105.55 364.56C105.55 358.021 100.249 352.72 93.7101 352.72C87.1711 352.72 81.8701 358.021 81.8701 364.56C81.8701 371.099 87.1711 376.4 93.7101 376.4Z" fill="#505F79"/>
<path d="M130.27 376.4C136.809 376.4 142.11 371.099 142.11 364.56C142.11 358.021 136.809 352.72 130.27 352.72C123.731 352.72 118.43 358.021 118.43 364.56C118.43 371.099 123.731 376.4 130.27 376.4Z" fill="#505F79"/>
<path d="M166.82 376.4C173.36 376.4 178.66 371.099 178.66 364.56C178.66 358.021 173.36 352.72 166.82 352.72C160.281 352.72 154.98 358.021 154.98 364.56C154.98 371.099 160.281 376.4 166.82 376.4Z" fill="#505F79"/>
<path d="M223.039 314.25H32.4395V334.2H223.039V314.25Z" fill="#505F79"/>
<path d="M229.45 296.77H208.68V314.25H229.45V296.77Z" fill="#FFC400"/>
<path d="M223.039 314.25H32.4395V319.32H223.039V314.25Z" fill="#344563"/>
<path d="M64.5498 264.91H30.5098V301.64H64.5498V264.91Z" fill="#FF991F"/>
<path d="M119.15 239.32H85.1104V301.64H119.15V239.32Z" fill="#FF991F" stroke="#FFAB00" stroke-width="2" stroke-miterlimit="10"/>
<path d="M446.04 316.44C448.277 316.141 450.542 316.74 452.339 318.106C454.136 319.472 455.319 321.494 455.63 323.73L439.25 326.39C438.84 324.171 439.323 321.88 440.595 320.016C441.867 318.152 443.824 316.867 446.04 316.44Z" fill="url(#paint7_linear)"/>
<path d="M439.22 328.22L458.22 325.13C458.466 325.077 458.683 324.933 458.827 324.728C458.972 324.522 459.033 324.269 459 324.02C458.952 323.774 458.813 323.556 458.611 323.408C458.409 323.26 458.159 323.193 457.91 323.22H455.46L438.9 326.32C438.653 326.371 438.433 326.514 438.287 326.72C438.14 326.926 438.077 327.179 438.11 327.43C438.161 327.678 438.304 327.897 438.51 328.043C438.716 328.19 438.97 328.253 439.22 328.22Z" fill="url(#paint8_linear)"/>
<path d="M151.62 234.21C153.768 233.143 156.251 232.97 158.526 233.729C160.802 234.488 162.683 236.117 163.76 238.26L148.04 246.49C146.893 244.385 146.626 241.913 147.297 239.612C147.968 237.311 149.522 235.369 151.62 234.21Z" fill="url(#paint9_linear)"/>
<path d="M148.62 248.35L166.86 238.78C166.981 238.72 167.088 238.636 167.176 238.533C167.263 238.43 167.329 238.311 167.369 238.182C167.41 238.053 167.423 237.917 167.41 237.783C167.396 237.648 167.355 237.518 167.29 237.4C167.23 237.279 167.146 237.171 167.043 237.084C166.94 236.996 166.82 236.93 166.691 236.89C166.563 236.85 166.427 236.836 166.292 236.85C166.158 236.864 166.028 236.905 165.91 236.97L163.43 237.79L147.62 246.54C147.499 246.6 147.391 246.684 147.303 246.787C147.216 246.89 147.15 247.009 147.11 247.138C147.07 247.267 147.056 247.403 147.07 247.537C147.083 247.672 147.124 247.802 147.19 247.92C147.249 248.048 147.335 248.162 147.442 248.254C147.548 248.346 147.673 248.415 147.808 248.456C147.943 248.496 148.085 248.508 148.225 248.49C148.365 248.471 148.499 248.424 148.62 248.35Z" fill="url(#paint10_linear)"/>
<path d="M556.001 269.59C553.842 268.939 551.513 269.17 549.524 270.233C547.535 271.295 546.049 273.103 545.391 275.26L561.141 280.48C561.899 278.354 561.784 276.014 560.82 273.973C559.857 271.932 558.124 270.356 556.001 269.59Z" fill="url(#paint11_linear)"/>
<path d="M560.88 282.29L542.62 276.24C542.385 276.15 542.192 275.974 542.081 275.748C541.97 275.521 541.948 275.262 542.02 275.02C542.107 274.783 542.279 274.588 542.504 274.473C542.728 274.358 542.988 274.332 543.23 274.4L545.64 274.78L561.51 280.46C561.746 280.55 561.938 280.726 562.05 280.952C562.161 281.179 562.183 281.438 562.11 281.68C562.022 281.919 561.845 282.116 561.617 282.229C561.388 282.343 561.125 282.365 560.88 282.29Z" fill="url(#paint12_linear)"/>
<defs>
<linearGradient id="paint0_linear" x1="169.36" y1="362.71" x2="469.75" y2="4.72003" gradientUnits="userSpaceOnUse">
<stop stop-color="#DFE1E5"/>
<stop offset="0.02" stop-color="#E1E3E7"/>
<stop offset="0.22" stop-color="#EFF0F3"/>
<stop offset="0.39" stop-color="#F4F5F7"/>
<stop offset="0.69" stop-color="#F1F3F5"/>
<stop offset="0.88" stop-color="#E9EAED"/>
<stop offset="1" stop-color="#DFE1E5"/>
</linearGradient>
<linearGradient id="paint1_linear" x1="319.56" y1="319.49" x2="319.56" y2="47.93" gradientUnits="userSpaceOnUse">
<stop stop-color="#E6FCFF"/>
<stop offset="0.51" stop-color="#E4FCFF"/>
<stop offset="0.7" stop-color="#DDFBFF"/>
<stop offset="0.83" stop-color="#D2F9FF"/>
<stop offset="0.94" stop-color="#C1F7FF"/>
<stop offset="1" stop-color="#B3F5FF"/>
</linearGradient>
<linearGradient id="paint2_linear" x1="174.64" y1="284.97" x2="174.64" y2="47.93" gradientUnits="userSpaceOnUse">
<stop stop-color="#B3F5FF"/>
<stop offset="0.5" stop-color="#B1F4FF"/>
<stop offset="0.68" stop-color="#AAF2FD"/>
<stop offset="0.81" stop-color="#9FEEFA"/>
<stop offset="0.91" stop-color="#8EE9F7"/>
<stop offset="1" stop-color="#79E2F2"/>
</linearGradient>
<linearGradient id="paint3_linear" x1="225.83" y1="270.43" x2="521.26" y2="270.43" gradientUnits="userSpaceOnUse">
<stop stop-color="#B3F5FF"/>
<stop offset="0.23" stop-color="#9EEEFA"/>
<stop offset="0.58" stop-color="#83E5F4"/>
<stop offset="0.78" stop-color="#79E2F2"/>
</linearGradient>
<linearGradient id="paint4_linear" x1="-198455" y1="-944.34" x2="-118034" y2="-944.34" gradientUnits="userSpaceOnUse">
<stop stop-color="#B3F5FF"/>
<stop offset="0.23" stop-color="#9EEEFA"/>
<stop offset="0.58" stop-color="#83E5F4"/>
<stop offset="0.78" stop-color="#79E2F2"/>
</linearGradient>
<linearGradient id="paint5_linear" x1="388.4" y1="127.2" x2="388.4" y2="79.98" gradientUnits="userSpaceOnUse">
<stop stop-color="#79E2F2"/>
<stop offset="1" stop-color="#79E2F2" stop-opacity="0"/>
</linearGradient>
<linearGradient id="paint6_linear" x1="558.46" y1="393.033" x2="554.924" y2="322.313" gradientUnits="userSpaceOnUse">
<stop stop-color="#253858"/>
<stop offset="1" stop-color="#172B4D"/>
</linearGradient>
<linearGradient id="paint7_linear" x1="442.813" y1="334.159" x2="447.964" y2="317.632" gradientUnits="userSpaceOnUse">
<stop offset="0.55" stop-color="#FF991F"/>
<stop offset="1" stop-color="#FFC400"/>
</linearGradient>
<linearGradient id="paint8_linear" x1="10684.8" y1="2367.23" x2="10675.1" y2="2286.17" gradientUnits="userSpaceOnUse">
<stop offset="0.55" stop-color="#FF991F"/>
<stop offset="1" stop-color="#FFC400"/>
</linearGradient>
<linearGradient id="paint9_linear" x1="-9700.82" y1="9931.97" x2="-9729.75" y2="9681.08" gradientUnits="userSpaceOnUse">
<stop offset="0.55" stop-color="#FF991F"/>
<stop offset="1" stop-color="#FFC400"/>
</linearGradient>
<linearGradient id="paint10_linear" x1="-12442.7" y1="10821.7" x2="-12483.2" y2="10630.8" gradientUnits="userSpaceOnUse">
<stop offset="0.55" stop-color="#FF991F"/>
<stop offset="1" stop-color="#FFC400"/>
</linearGradient>
<linearGradient id="paint11_linear" x1="4957.23" y1="6247.03" x2="4954.63" y2="6041.88" gradientUnits="userSpaceOnUse">
<stop offset="0.55" stop-color="#FF991F"/>
<stop offset="1" stop-color="#FFC400"/>
</linearGradient>
<linearGradient id="paint12_linear" x1="6642.85" y1="5469.35" x2="6658.86" y2="5342.12" gradientUnits="userSpaceOnUse">
<stop offset="0.55" stop-color="#FF991F"/>
<stop offset="1" stop-color="#FFC400"/>
</linearGradient>
</defs>
</svg>
