<svg width="249" height="169" viewBox="0 0 249 169" fill="none" xmlns="http://www.w3.org/2000/svg">
<g clip-path="url(#clip0)">
<g filter="url(#filter0_dd)">
<rect x="7.48828" y="1.87218" width="234.023" height="144.158" rx="3.74436" fill="white"/>
</g>
<g clip-path="url(#clip1)">
<rect width="22.4662" height="22.4662" transform="translate(24.3379 25.2744)" fill="white" fill-opacity="0.01"/>
<path fill-rule="evenodd" clip-rule="evenodd" d="M27.1462 25.2744H43.9958C44.7406 25.2744 45.4549 25.5703 45.9815 26.097C46.5082 26.6236 46.8041 27.3379 46.8041 28.0827V44.9323C46.8041 45.6771 46.5082 46.3914 45.9815 46.9181C45.4549 47.4447 44.7406 47.7406 43.9958 47.7406H27.1462C26.4014 47.7406 25.6871 47.4447 25.1604 46.9181C24.6338 46.3914 24.3379 45.6771 24.3379 44.9323V28.0827C24.3379 27.3379 24.6338 26.6236 25.1604 26.097C25.6871 25.5703 26.4014 25.2744 27.1462 25.2744V25.2744ZM28.0823 42.1241C28.0823 42.6445 28.4997 43.0602 29.0137 43.0602H36.5117C37.0172 43.0602 37.4432 42.6408 37.4432 42.1241C37.4432 41.6036 37.0257 41.188 36.5117 41.188H29.0137C28.5082 41.188 28.0823 41.6073 28.0823 42.1241ZM28.0823 38.3797C28.0823 38.9002 28.5016 39.3158 29.0183 39.3158H42.1236C42.6431 39.3158 43.0597 38.8964 43.0597 38.3797C43.0597 37.8592 42.6403 37.4436 42.1236 37.4436H29.0183C28.4988 37.4436 28.0823 37.863 28.0823 38.3797ZM28.0823 34.6353C28.0823 35.1558 28.5016 35.5714 29.0183 35.5714H42.1236C42.6431 35.5714 43.0597 35.1521 43.0597 34.6353C43.0597 34.1149 42.6403 33.6992 42.1236 33.6992H29.0183C28.4988 33.6992 28.0823 34.1186 28.0823 34.6353ZM28.0823 30.891C28.0823 31.4114 28.5016 31.8271 29.0183 31.8271H42.1236C42.6431 31.8271 43.0597 31.4077 43.0597 30.891C43.0597 30.3705 42.6403 29.9549 42.1236 29.9549H29.0183C28.4988 29.9549 28.0823 30.3743 28.0823 30.891Z" fill="#2684FF"/>
</g>
<rect x="54.293" y="37.4436" width="78.6316" height="4.68045" rx="0.93609" fill="#C1C7D0"/>
<rect x="54.293" y="30.891" width="118.883" height="4.68045" rx="0.93609" fill="#C1C7D0"/>
<g filter="url(#filter1_dd)">
<rect x="190.963" y="21.5301" width="33.6992" height="29.9549" rx="2.80827" fill="white"/>
<rect width="22.4662" height="22.4662" transform="translate(196.58 25.2744)" fill="white" fill-opacity="0.01"/>
<path fill-rule="evenodd" clip-rule="evenodd" d="M204.069 34.6353V32.765C204.07 31.7719 204.465 30.8196 205.167 30.1173C205.869 29.4149 206.821 29.0198 207.814 29.0188C208.306 29.0188 208.793 29.1157 209.247 29.304C209.702 29.4923 210.114 29.7683 210.462 30.1162C210.81 30.4641 211.086 30.877 211.274 31.3316C211.462 31.7861 211.558 32.2732 211.558 32.765V34.6353C212.055 34.6353 212.531 34.8326 212.882 35.1837C213.233 35.5348 213.43 36.011 213.43 36.5075V42.1241C213.43 43.1584 212.586 43.9962 211.55 43.9962H204.079C203.832 43.9975 203.588 43.95 203.359 43.8564C203.131 43.7629 202.924 43.6252 202.749 43.4512C202.574 43.2772 202.435 43.0704 202.341 42.8427C202.246 42.6149 202.197 42.3707 202.197 42.1241V36.5075C202.197 35.4759 203.037 34.64 204.069 34.6353ZM205.942 34.6353H209.686V32.765C209.686 32.5191 209.638 32.2755 209.544 32.0481C209.45 31.8208 209.312 31.6143 209.138 31.4403C208.964 31.2662 208.758 31.1282 208.531 31.0339C208.303 30.9397 208.06 30.8911 207.814 30.891C206.782 30.891 205.942 31.7316 205.942 32.765V34.6353ZM207.814 41.188C208.31 41.188 208.787 40.9907 209.138 40.6396C209.489 40.2885 209.686 39.8123 209.686 39.3158C209.686 38.8193 209.489 38.3431 209.138 37.992C208.787 37.6409 208.31 37.4436 207.814 37.4436C207.317 37.4436 206.841 37.6409 206.49 37.992C206.139 38.3431 205.942 38.8193 205.942 39.3158C205.942 39.8123 206.139 40.2885 206.49 40.6396C206.841 40.9907 207.317 41.188 207.814 41.188Z" fill="#42526E"/>
<rect x="190.963" y="21.5301" width="33.6992" height="29.9549" rx="2.80827" stroke="#4C9AFF" stroke-width="2.80827"/>
</g>
<line x1="24.3379" y1="58.5056" x2="224.661" y2="58.5056" stroke="#B3BAC5" stroke-width="0.93609"/>
<g clip-path="url(#clip2)">
<rect width="22.4662" height="22.4662" transform="translate(24.3379 67.3985)" fill="white" fill-opacity="0.01"/>
<path fill-rule="evenodd" clip-rule="evenodd" d="M27.1462 67.3985H43.9958C44.7406 67.3985 45.4549 67.6944 45.9815 68.221C46.5082 68.7477 46.8041 69.462 46.8041 70.2068V87.0564C46.8041 87.8012 46.5082 88.5155 45.9815 89.0421C45.4549 89.5688 44.7406 89.8647 43.9958 89.8647H27.1462C26.4014 89.8647 25.6871 89.5688 25.1604 89.0421C24.6338 88.5155 24.3379 87.8012 24.3379 87.0564V70.2068C24.3379 69.462 24.6338 68.7477 25.1604 68.221C25.6871 67.6944 26.4014 67.3985 27.1462 67.3985V67.3985ZM28.0823 84.2481C28.0823 84.7686 28.4997 85.1842 29.0137 85.1842H36.5117C37.0172 85.1842 37.4432 84.7648 37.4432 84.2481C37.4432 83.7277 37.0257 83.312 36.5117 83.312H29.0137C28.5082 83.312 28.0823 83.7314 28.0823 84.2481ZM28.0823 80.5038C28.0823 81.0242 28.5016 81.4399 29.0183 81.4399H42.1236C42.6431 81.4399 43.0597 81.0205 43.0597 80.5038C43.0597 79.9833 42.6403 79.5677 42.1236 79.5677H29.0183C28.4988 79.5677 28.0823 79.987 28.0823 80.5038ZM28.0823 76.7594C28.0823 77.2799 28.5016 77.6955 29.0183 77.6955H42.1236C42.6431 77.6955 43.0597 77.2761 43.0597 76.7594C43.0597 76.2389 42.6403 75.8233 42.1236 75.8233H29.0183C28.4988 75.8233 28.0823 76.2427 28.0823 76.7594ZM28.0823 73.015C28.0823 73.5355 28.5016 73.9511 29.0183 73.9511H42.1236C42.6431 73.9511 43.0597 73.5318 43.0597 73.015C43.0597 72.4946 42.6403 72.0789 42.1236 72.0789H29.0183C28.4988 72.0789 28.0823 72.4983 28.0823 73.015Z" fill="#2684FF"/>
</g>
<rect x="54.293" y="79.5677" width="78.6316" height="4.68045" rx="0.93609" fill="#C1C7D0"/>
<rect x="54.293" y="73.015" width="118.883" height="4.68045" rx="0.93609" fill="#C1C7D0"/>
<rect width="22.4662" height="22.4662" transform="translate(196.578 66.4624)" fill="white" fill-opacity="0.01"/>
<path d="M201.26 76.7678C201.26 75.7288 202.099 74.8872 203.138 74.8872H212.487C212.985 74.8882 213.463 75.0868 213.815 75.4393C214.167 75.7918 214.365 76.2696 214.365 76.7678V84.2397C214.365 85.2788 213.525 86.1203 212.487 86.1203H203.138C202.639 86.1196 202.162 85.9211 201.81 85.5685C201.458 85.2159 201.26 84.738 201.26 84.2397V76.7678ZM203.132 76.7594V84.2481H212.493V76.7594H203.132Z" fill="#42526E"/>
<path d="M207.812 82.3759C208.846 82.3759 209.685 81.5377 209.685 80.5038C209.685 79.4698 208.846 78.6316 207.812 78.6316C206.778 78.6316 205.94 79.4698 205.94 80.5038C205.94 81.5377 206.778 82.3759 207.812 82.3759Z" fill="#42526E"/>
<path d="M204.068 72.0808C204.069 71.0877 204.463 70.1354 205.165 69.433C205.867 68.7306 206.819 68.3356 207.812 68.3346C208.304 68.3346 208.791 68.4315 209.246 68.6198C209.7 68.8081 210.113 69.0841 210.461 69.4319C210.808 69.7798 211.084 70.1928 211.272 70.6473C211.46 71.1018 211.557 71.5889 211.557 72.0808V72.547H209.685V72.0808C209.685 71.8348 209.636 71.5912 209.542 71.3639C209.448 71.1366 209.31 70.9301 209.137 70.7561C208.963 70.582 208.756 70.444 208.529 70.3497C208.302 70.2555 208.058 70.2069 207.812 70.2068C206.781 70.2068 205.94 71.0474 205.94 72.0808V76.7594H204.068V72.0808ZM209.685 72.547H211.557C211.557 72.7953 211.458 73.0334 211.283 73.2089C211.107 73.3845 210.869 73.4831 210.621 73.4831C210.372 73.4831 210.134 73.3845 209.959 73.2089C209.783 73.0334 209.685 72.7953 209.685 72.547Z" fill="#42526E"/>
<line x1="24.3379" y1="96.8853" x2="224.661" y2="96.8853" stroke="#B3BAC5" stroke-width="0.93609"/>
<g clip-path="url(#clip3)">
<rect width="22.4662" height="22.4662" transform="translate(24.3379 104.842)" fill="white" fill-opacity="0.01"/>
<path fill-rule="evenodd" clip-rule="evenodd" d="M27.1462 104.842H43.9958C44.7406 104.842 45.4549 105.138 45.9815 105.665C46.5082 106.191 46.8041 106.906 46.8041 107.65V124.5C46.8041 125.245 46.5082 125.959 45.9815 126.486C45.4549 127.012 44.7406 127.308 43.9958 127.308H27.1462C26.4014 127.308 25.6871 127.012 25.1604 126.486C24.6338 125.959 24.3379 125.245 24.3379 124.5V107.65C24.3379 106.906 24.6338 106.191 25.1604 105.665C25.6871 105.138 26.4014 104.842 27.1462 104.842V104.842ZM28.0823 121.692C28.0823 122.212 28.4997 122.628 29.0137 122.628H36.5117C37.0172 122.628 37.4432 122.208 37.4432 121.692C37.4432 121.171 37.0257 120.756 36.5117 120.756H29.0137C28.5082 120.756 28.0823 121.175 28.0823 121.692ZM28.0823 117.947C28.0823 118.468 28.5016 118.883 29.0183 118.883H42.1236C42.6431 118.883 43.0597 118.464 43.0597 117.947C43.0597 117.427 42.6403 117.011 42.1236 117.011H29.0183C28.4988 117.011 28.0823 117.431 28.0823 117.947ZM28.0823 114.203C28.0823 114.723 28.5016 115.139 29.0183 115.139H42.1236C42.6431 115.139 43.0597 114.72 43.0597 114.203C43.0597 113.683 42.6403 113.267 42.1236 113.267H29.0183C28.4988 113.267 28.0823 113.686 28.0823 114.203ZM28.0823 110.459C28.0823 110.979 28.5016 111.395 29.0183 111.395H42.1236C42.6431 111.395 43.0597 110.975 43.0597 110.459C43.0597 109.938 42.6403 109.523 42.1236 109.523H29.0183C28.4988 109.523 28.0823 109.942 28.0823 110.459Z" fill="#2684FF"/>
</g>
<rect x="54.293" y="117.011" width="78.6316" height="4.68045" rx="0.93609" fill="#C1C7D0"/>
<rect x="54.293" y="110.459" width="118.883" height="4.68045" rx="0.93609" fill="#C1C7D0"/>
<rect width="22.4662" height="22.4662" transform="translate(196.578 104.842)" fill="white" fill-opacity="0.01"/>
<path d="M201.26 115.148C201.26 114.108 202.099 113.267 203.138 113.267H212.487C212.985 113.268 213.463 113.466 213.815 113.819C214.167 114.172 214.365 114.649 214.365 115.148V122.619C214.365 123.658 213.525 124.5 212.487 124.5H203.138C202.639 124.499 202.162 124.301 201.81 123.948C201.458 123.596 201.26 123.118 201.26 122.619V115.148ZM203.132 115.139V122.628H212.493V115.139H203.132Z" fill="#42526E"/>
<path d="M207.812 120.756C208.846 120.756 209.685 119.917 209.685 118.883C209.685 117.849 208.846 117.011 207.812 117.011C206.778 117.011 205.94 117.849 205.94 118.883C205.94 119.917 206.778 120.756 207.812 120.756Z" fill="#42526E"/>
<path d="M204.068 110.461C204.069 109.467 204.463 108.515 205.165 107.813C205.867 107.11 206.819 106.715 207.812 106.714C208.304 106.714 208.791 106.811 209.246 106.999C209.7 107.188 210.113 107.464 210.461 107.812C210.808 108.16 211.084 108.573 211.272 109.027C211.46 109.482 211.557 109.969 211.557 110.461V110.927H209.685V110.461C209.685 110.215 209.636 109.971 209.542 109.744C209.448 109.516 209.31 109.31 209.137 109.136C208.963 108.962 208.756 108.824 208.529 108.729C208.302 108.635 208.058 108.587 207.812 108.586C206.781 108.586 205.94 109.427 205.94 110.461V115.139H204.068V110.461ZM209.685 110.927H211.557C211.557 111.175 211.458 111.413 211.283 111.589C211.107 111.764 210.869 111.863 210.621 111.863C210.372 111.863 210.134 111.764 209.959 111.589C209.783 111.413 209.685 111.175 209.685 110.927Z" fill="#42526E"/>
<g filter="url(#filter2_d)">
<path fill-rule="evenodd" clip-rule="evenodd" d="M191.731 46.2898C191.871 46.4165 191.968 46.5076 192.269 46.7927C192.563 47.072 192.705 47.2039 192.835 47.3143C192.889 47.36 192.935 47.4821 192.954 47.6636C192.969 47.813 192.963 47.9796 192.945 48.1401C192.939 48.1956 192.933 48.2357 192.929 48.2548C192.89 48.4689 193.053 48.6667 193.271 48.669C193.467 48.6709 193.618 48.6734 194.017 48.6805C194.117 48.6823 194.117 48.6823 194.218 48.684C195.304 48.7027 195.859 48.6976 196.257 48.6475C196.682 48.594 197.121 48.0801 197.499 47.4352C197.82 48.0058 198.266 48.563 198.715 48.6355C198.858 48.6583 199.031 48.6654 199.231 48.6608C199.381 48.6573 199.539 48.6475 199.698 48.6332C199.818 48.6225 199.914 48.6117 199.972 48.6043C200.183 48.5769 200.321 48.3688 200.265 48.1631C200.253 48.1187 200.233 48.0372 200.213 47.9346C200.19 47.8157 200.174 47.6995 200.166 47.5937C200.161 47.5266 200.161 47.4658 200.164 47.4133C200.169 47.3218 200.17 47.2705 200.173 47.1521C200.174 47.108 200.174 47.108 200.175 47.0695C200.18 46.9432 200.197 46.8233 200.252 46.5619C200.276 46.4484 200.39 46.2313 200.57 45.9626C200.624 45.8825 200.682 45.799 200.745 45.7127C200.864 45.5491 200.992 45.3837 201.12 45.2255C201.197 45.1308 201.257 45.0599 201.29 45.0214C201.567 44.6241 201.863 43.9737 201.971 43.5935C202.076 43.2281 202.159 42.555 202.21 41.8935C202.238 41.5183 202.249 41.2157 202.249 40.7412C202.249 40.658 202.249 40.658 202.249 40.5893C202.249 40.4767 202.249 40.4341 202.249 40.3815C202.248 40.2377 202.244 40.0952 202.23 39.7318C202.2 38.9702 201.783 38.4777 201.168 38.3828C200.644 38.302 200.007 38.7366 200.007 38.7366C200.007 38.7366 199.866 38.2472 199.77 38.0961C199.614 37.8533 199.214 37.544 198.907 37.4837C198.592 37.4225 198.219 37.4293 197.876 37.4899C197.576 37.5437 197.277 37.8118 197.104 38.101C196.98 38.3073 197.096 38.09 196.972 37.8766C196.801 37.5827 196.402 37.3194 196.022 37.2417C195.7 37.1752 195.331 37.2005 194.994 37.3007C194.561 37.4302 194.492 37.76 194.475 37.6656C194.417 37.349 194.412 37.3698 194.376 37.1439C194.242 36.3059 194.093 35.726 193.866 35.22C193.879 35.2491 193.783 35.0308 193.749 34.9555C193.688 34.8251 193.628 34.7071 193.561 34.5937C193.357 34.2439 193.122 33.982 192.828 33.8332C192.318 33.5746 191.552 33.7005 191.189 34.124C190.829 34.545 190.769 35.2487 190.859 36.1196C190.894 36.4578 191.016 37.0751 191.126 37.5314C191.165 37.6897 191.199 37.8342 191.261 38.101C191.272 38.1464 191.272 38.1464 191.283 38.1918C191.331 38.3937 191.374 38.5598 191.425 38.7422C191.419 38.7232 191.515 39.0643 191.536 39.1397C191.543 39.1649 191.543 39.1649 191.549 39.1902C191.588 39.3342 191.625 39.4894 191.683 39.7484C191.715 39.8909 191.746 40.043 191.777 40.2043C191.86 40.6442 191.861 40.5526 191.78 40.4588C191.725 40.394 191.673 40.3351 191.623 40.2809C191.53 40.1801 191.444 40.0967 191.362 40.0302C190.768 39.5443 190.404 39.3296 189.905 39.2825C189.085 39.2038 188.308 39.7826 188.191 40.5638C188.119 41.0428 188.142 41.2633 188.364 41.6866C188.486 41.9153 188.692 42.1915 189.077 42.667C189.1 42.6961 189.1 42.6961 189.124 42.7251C189.596 43.3072 189.648 43.3719 189.76 43.5346C190.064 43.9752 190.803 45.2403 190.937 45.4101L191.731 46.2898Z" fill="black"/>
</g>
<path fill-rule="evenodd" clip-rule="evenodd" d="M189.668 42.2827C189.645 42.254 189.645 42.254 189.622 42.2253C189.269 41.789 189.075 41.5296 188.984 41.3586C188.841 41.0853 188.833 41.0113 188.885 40.6679C188.945 40.2631 189.382 39.9376 189.838 39.9814C190.153 40.0111 190.428 40.1735 190.917 40.5739C190.97 40.6171 191.034 40.6791 191.107 40.758C191.151 40.8047 191.196 40.8565 191.246 40.9145C191.32 41.0016 191.571 41.3082 191.534 41.2636C191.588 41.329 191.627 41.3797 191.672 41.4418C191.76 41.5676 191.809 41.6374 191.876 41.7269C191.845 41.6849 192.077 42.0063 192.127 42.0533C192.387 42.3022 192.765 42.0926 192.741 41.7608C192.738 41.7054 192.724 41.6456 192.697 41.5411C192.59 40.7742 192.552 40.5281 192.466 40.0739C192.434 39.9052 192.402 39.7453 192.368 39.5944C192.308 39.3271 192.268 39.1638 192.227 39.0101C192.22 38.9829 192.22 38.9829 192.213 38.9559C192.191 38.8766 192.094 38.5303 192.1 38.5535C192.052 38.3807 192.012 38.2224 191.965 38.0281C191.955 37.9838 191.955 37.9838 191.944 37.9392C191.882 37.6738 191.847 37.5257 191.807 37.3652C191.704 36.9386 191.588 36.3474 191.557 36.0474C191.487 35.3695 191.535 34.7985 191.722 34.5807C191.867 34.4107 192.28 34.3429 192.511 34.4596C192.661 34.5359 192.812 34.7043 192.955 34.9481C193.009 35.0403 193.059 35.1393 193.111 35.251C193.143 35.3186 193.236 35.5303 193.225 35.5069C193.422 35.9467 193.557 36.4718 193.682 37.2543C193.719 37.4861 193.764 37.7487 193.823 38.0701C193.84 38.1654 193.84 38.1654 193.858 38.2602C194.14 39.7911 194.119 39.675 194.123 39.7971C194.138 40.2425 194.795 40.2529 194.824 39.8083C194.834 39.6672 194.83 39.5413 194.814 39.1797C194.812 39.1285 194.812 39.1285 194.809 39.0776C194.795 38.7444 194.796 38.5527 194.816 38.4438C194.852 38.2451 195.03 38.0226 195.194 37.9735C195.425 37.9049 195.678 37.8876 195.88 37.9294C196.074 37.9691 196.3 38.1182 196.365 38.2296C196.443 38.3644 196.51 38.5697 196.562 38.8243C196.603 39.0297 196.632 39.2501 196.652 39.4854C196.658 39.5586 196.662 39.6151 196.668 39.7087C196.671 39.7478 196.671 39.7478 196.674 39.7801C196.675 39.7963 196.675 39.7963 196.679 39.822C196.682 39.8399 196.682 39.8399 196.695 39.8854C196.702 40.0144 196.702 40.0144 197.22 40.0622C197.375 39.8752 197.375 39.8752 197.371 39.8424C197.396 39.7316 197.411 39.6081 197.434 39.3761C197.448 39.2252 197.455 39.1511 197.463 39.0742C197.498 38.7558 197.541 38.5535 197.595 38.4646C197.661 38.354 197.894 38.1999 197.999 38.1811C198.261 38.1347 198.55 38.1295 198.772 38.1727C198.873 38.1926 199.119 38.3825 199.177 38.4734C199.297 38.6621 199.413 39.2704 199.479 39.8739C199.468 39.9135 199.468 39.9135 199.629 40.1431C200.182 40.0801 200.182 40.0801 200.166 39.9803C200.181 39.9448 200.192 39.9037 200.209 39.8398C200.248 39.6903 200.274 39.6035 200.313 39.5062C200.34 39.4389 200.369 39.3814 200.398 39.3356C200.511 39.1578 200.803 39.037 201.06 39.0766C201.335 39.1191 201.511 39.3262 201.528 39.759C201.541 40.1151 201.545 40.252 201.546 40.3864C201.547 40.436 201.547 40.4758 201.546 40.5877C201.546 40.6569 201.546 40.6569 201.546 40.7412C201.546 41.1989 201.536 41.484 201.51 41.8402C201.462 42.4517 201.382 43.0972 201.296 43.4007C201.207 43.7102 200.943 44.2908 200.734 44.5928C200.72 44.6072 200.656 44.6831 200.575 44.7835C200.439 44.9505 200.304 45.1252 200.177 45.2995C200.109 45.3929 200.045 45.4838 199.986 45.5718C199.758 45.9123 199.612 46.1904 199.564 46.4183C199.502 46.7145 199.48 46.8716 199.473 47.0419C199.472 47.0902 199.472 47.0902 199.471 47.1369C199.468 47.2474 199.467 47.2921 199.462 47.3729C199.457 47.4578 199.459 47.5481 199.465 47.6435C199.475 47.7802 199.465 47.9669 199.465 47.9669C199.465 47.9669 199.347 47.9558 199.215 47.9589C199.053 47.9626 198.919 47.9571 198.826 47.9423C198.692 47.9207 198.331 47.4682 198.145 47.1157C197.862 46.5761 197.176 46.6023 196.894 47.0788C196.64 47.5111 196.277 47.9374 196.169 47.9509C195.818 47.995 195.275 48 194.229 47.9821C194.129 47.9803 194.129 47.9803 194.029 47.9785C193.628 47.9714 193.643 48.0392 193.652 47.9669C193.675 47.7607 193.672 47.7993 193.652 47.5931C193.617 47.2474 193.51 46.9655 193.288 46.7782C193.173 46.6806 193.035 46.5529 192.759 46.2904C192.443 45.9906 192.344 45.8979 192.222 45.7908L191.472 44.957C191.39 44.8517 190.667 43.6147 190.337 43.1359C190.209 42.9501 190.161 42.8897 189.668 42.2827ZM198.569 42.2862V45.5242C198.569 45.9922 199.271 45.9922 199.271 45.5242V42.2862C199.271 41.8182 198.569 41.8182 198.569 42.2862ZM196.668 42.2857L196.683 45.5367C196.685 46.0048 197.387 46.0016 197.385 45.5335L197.37 42.2825C197.368 41.8144 196.665 41.8177 196.668 42.2857ZM195.536 45.5186L195.516 42.3115C195.513 41.8435 194.811 41.8478 194.814 42.3158L194.834 45.5229C194.837 45.9909 195.539 45.9866 195.536 45.5186Z" fill="white"/>
</g>
<defs>
<filter id="filter0_dd" x="-4.51172" y="-2.12782" width="258.023" height="168.158" filterUnits="userSpaceOnUse" color-interpolation-filters="sRGB">
<feFlood flood-opacity="0" result="BackgroundImageFix"/>
<feColorMatrix in="SourceAlpha" type="matrix" values="0 0 0 0 0 0 0 0 0 0 0 0 0 0 0 0 0 0 127 0"/>
<feOffset/>
<feGaussianBlur stdDeviation="0.5"/>
<feColorMatrix type="matrix" values="0 0 0 0 0.0352941 0 0 0 0 0.117647 0 0 0 0 0.258824 0 0 0 0.31 0"/>
<feBlend mode="normal" in2="BackgroundImageFix" result="effect1_dropShadow"/>
<feColorMatrix in="SourceAlpha" type="matrix" values="0 0 0 0 0 0 0 0 0 0 0 0 0 0 0 0 0 0 127 0"/>
<feOffset dy="8"/>
<feGaussianBlur stdDeviation="6"/>
<feColorMatrix type="matrix" values="0 0 0 0 0.0352941 0 0 0 0 0.117647 0 0 0 0 0.258824 0 0 0 0.15 0"/>
<feBlend mode="normal" in2="effect1_dropShadow" result="effect2_dropShadow"/>
<feBlend mode="normal" in="SourceGraphic" in2="effect2_dropShadow" result="shape"/>
</filter>
<filter id="filter1_dd" x="184.559" y="18.1259" width="46.5075" height="42.7632" filterUnits="userSpaceOnUse" color-interpolation-filters="sRGB">
<feFlood flood-opacity="0" result="BackgroundImageFix"/>
<feColorMatrix in="SourceAlpha" type="matrix" values="0 0 0 0 0 0 0 0 0 0 0 0 0 0 0 0 0 0 127 0"/>
<feOffset/>
<feGaussianBlur stdDeviation="0.5"/>
<feColorMatrix type="matrix" values="0 0 0 0 0.0352941 0 0 0 0 0.117647 0 0 0 0 0.258824 0 0 0 0.31 0"/>
<feBlend mode="normal" in2="BackgroundImageFix" result="effect1_dropShadow"/>
<feColorMatrix in="SourceAlpha" type="matrix" values="0 0 0 0 0 0 0 0 0 0 0 0 0 0 0 0 0 0 127 0"/>
<feOffset dy="3"/>
<feGaussianBlur stdDeviation="2.5"/>
<feColorMatrix type="matrix" values="0 0 0 0 0.0352941 0 0 0 0 0.117647 0 0 0 0 0.258824 0 0 0 0.2 0"/>
<feBlend mode="normal" in2="effect1_dropShadow" result="effect2_dropShadow"/>
<feBlend mode="normal" in="SourceGraphic" in2="effect2_dropShadow" result="shape"/>
</filter>
<filter id="filter2_d" x="186.154" y="32.6992" width="18.0949" height="18.9947" filterUnits="userSpaceOnUse" color-interpolation-filters="sRGB">
<feFlood flood-opacity="0" result="BackgroundImageFix"/>
<feColorMatrix in="SourceAlpha" type="matrix" values="0 0 0 0 0 0 0 0 0 0 0 0 0 0 0 0 0 0 127 0"/>
<feOffset dy="1"/>
<feGaussianBlur stdDeviation="1"/>
<feColorMatrix type="matrix" values="0 0 0 0 0 0 0 0 0 0 0 0 0 0 0 0 0 0 0.4 0"/>
<feBlend mode="normal" in2="BackgroundImageFix" result="effect1_dropShadow"/>
<feBlend mode="normal" in="SourceGraphic" in2="effect1_dropShadow" result="shape"/>
</filter>
<clipPath id="clip0">
<rect width="249" height="168.496" fill="white"/>
</clipPath>
<clipPath id="clip1">
<rect width="22.4662" height="22.4662" fill="white" transform="translate(24.3379 25.2744)"/>
</clipPath>
<clipPath id="clip2">
<rect width="22.4662" height="22.4662" fill="white" transform="translate(24.3379 67.3985)"/>
</clipPath>
<clipPath id="clip3">
<rect width="22.4662" height="22.4662" fill="white" transform="translate(24.3379 104.842)"/>
</clipPath>
</defs>
</svg>
