<svg width="596" height="394" viewBox="0 0 596 394" fill="none" xmlns="http://www.w3.org/2000/svg">
<g opacity="0.12">
<path opacity="0.12" d="M515.97 314.019L145.33 368.039L0 344.649L404.97 301.189L516.79 314.129" fill="url(#paint0_linear)"/>
</g>
<path opacity="0.22" d="M301.26 393.269C322.678 393.269 340.04 389.906 340.04 385.759C340.04 381.611 322.678 378.249 301.26 378.249C279.843 378.249 262.48 381.611 262.48 385.759C262.48 389.906 279.843 393.269 301.26 393.269Z" fill="url(#paint1_linear)"/>
<path opacity="0.2" d="M526.311 225.479L254.311 243.009C252.691 243.109 251.311 241.599 251.311 239.629V182.769C251.311 180.769 252.621 179.189 254.311 179.189L526.311 175.359C527.571 175.359 528.581 176.769 528.581 178.539V222.259C528.531 223.919 527.571 225.379 526.311 225.479Z" fill="url(#paint2_linear)"/>
<path d="M569.321 309.209C566.711 313.399 568.321 317.779 570.681 334.649C571.191 338.329 571.591 341.349 571.791 343.209C572.151 346.139 572.451 349.109 572.791 352.079C573.604 360.292 574.271 368.292 574.791 376.079L580.031 376.029C580.639 367.229 580.792 358.404 580.491 349.589C580.391 347.169 580.281 344.809 580.131 342.489C580.491 336.899 580.691 332.059 580.791 328.279C581.141 318.459 580.991 314.789 580.491 310.809C580.182 308.281 579.728 305.774 579.131 303.299C572.801 304.859 570.381 307.629 569.321 309.209Z" fill="url(#paint3_linear)"/>
<path d="M562.581 302.649C568.022 303.818 573.611 304.139 579.151 303.599C579.351 304.599 579.651 306.069 579.951 307.779C580.25 309.489 580.461 310.399 580.461 310.859C580.611 313.269 579.15 315.439 577.38 317.399C572.75 322.589 566.101 326.269 558.451 330.399L551.04 334.399C549.94 337.701 548.523 340.889 546.81 343.919C545.45 346.339 544.291 347.919 539.411 354.499C536.791 358.019 534.52 361.039 532.76 363.499L527.521 361.989C532.113 351.198 537.432 340.73 543.44 330.659C549.239 320.957 555.631 311.622 562.581 302.709V302.649Z" fill="url(#paint4_linear)"/>
<path d="M562.93 251.319C576.837 251.319 588.11 239.705 588.11 225.379C588.11 211.052 576.837 199.439 562.93 199.439C549.023 199.439 537.75 211.052 537.75 225.379C537.75 239.705 549.023 251.319 562.93 251.319Z" fill="#36B37E"/>
<path d="M584.94 240.389C584.996 239.423 584.729 238.465 584.18 237.669C582.37 235.149 578.34 236.459 577.38 234.189C577.08 233.489 577.38 233.389 577.38 230.919C577.288 229.769 577.121 228.627 576.88 227.499C576.68 226.689 575.52 223.669 563.78 220.499C557.39 218.789 554.26 217.939 551.95 219.039C545.5 221.959 540.61 238.389 545.65 246.039C548.357 249.006 551.719 251.301 555.47 252.739C557.79 254.449 559.55 250.829 562.32 251.579C564.472 252.142 566.697 252.382 568.92 252.289C572.269 251.523 575.423 250.07 578.18 248.022C580.938 245.973 583.24 243.374 584.94 240.389Z" fill="#57D9A3"/>
<path d="M571.54 244.419L564.091 244.019L556.63 244.419C556.483 244.415 556.339 244.469 556.23 244.569L550.23 248.649C554.283 251.44 559.096 252.917 564.017 252.881C568.938 252.846 573.729 251.298 577.74 248.449L571.891 244.569C571.848 244.518 571.794 244.479 571.733 244.453C571.672 244.427 571.606 244.415 571.54 244.419Z" fill="#ABF5D1"/>
<path d="M571.07 244.618C570.185 245.84 569.016 246.827 567.664 247.495C566.312 248.162 564.817 248.489 563.31 248.448C562.058 248.319 560.849 247.923 559.762 247.289C558.676 246.654 557.737 245.795 557.01 244.768C557.525 243.814 557.864 242.774 558.01 241.698C558.301 240.121 558.216 238.497 557.76 236.958H569.7C569.134 238.476 569.047 240.13 569.45 241.698C569.741 242.79 570.298 243.793 571.07 244.618Z" fill="#ABF5D1"/>
<path d="M577.23 234.499V219.279L550.03 218.379V234.499H577.13" fill="#57D9A3"/>
<path d="M561.92 230.469C568.403 230.469 573.66 225.056 573.66 218.379C573.66 211.701 568.403 206.289 561.92 206.289C555.436 206.289 550.18 211.701 550.18 218.379C550.18 225.056 555.436 230.469 561.92 230.469Z" fill="#F0D0B6"/>
<path d="M575.07 229.309C575.049 229.777 574.944 230.238 574.76 230.669C574.216 231.952 573.47 233.141 572.55 234.189L569.88 237.119C568.351 238.728 566.258 239.685 564.04 239.789H563.68C562.577 239.759 561.492 239.508 560.488 239.049C559.485 238.59 558.584 237.934 557.84 237.119L555.73 234.849C554.487 233.701 553.491 232.313 552.8 230.769C552.606 230.341 552.504 229.878 552.5 229.409L552.07 218.479C552.071 218.071 552.121 217.664 552.22 217.269C553.082 214.189 555.128 211.576 557.91 210C560.693 208.424 563.986 208.014 567.07 208.859C567.17 208.859 567.22 208.909 567.27 208.909C569.2 209.538 570.947 210.628 572.36 212.084C573.774 213.541 574.81 215.321 575.38 217.269C575.43 217.637 575.43 218.01 575.38 218.379L575.07 229.309Z" fill="#ABF5D1"/>
<path d="M577.28 218.428C577.068 216.582 576.26 214.856 574.979 213.51C573.698 212.164 572.013 211.272 570.18 210.969C569.166 210.997 568.17 211.241 567.258 211.684C566.346 212.128 565.539 212.759 564.89 213.538C565.326 215.139 566.198 216.586 567.41 217.719C569.73 219.839 572.15 219.388 573.86 221.548C574.652 222.603 575.124 223.863 575.22 225.178C576 224.25 576.585 223.174 576.939 222.014C577.293 220.854 577.409 219.634 577.28 218.428Z" fill="#57D9A3"/>
<path d="M562.42 205.889C559.161 205.998 556.068 207.355 553.781 209.68C551.494 212.004 550.187 215.118 550.13 218.379V218.429C550.14 219.481 550.277 220.529 550.54 221.549C550.922 222.963 551.515 224.311 552.3 225.549C552.337 224.655 552.505 223.773 552.8 222.929C555.17 218.849 561.52 220.719 566.55 217.089C568.62 215.629 571.39 213.609 572.4 211.249C570.726 209.13 568.491 207.522 565.95 206.609C564.823 206.168 563.629 205.925 562.42 205.889Z" fill="#57D9A3"/>
<path d="M563.99 216.819C562.045 217.422 560.026 217.758 557.99 217.819C556.706 217.768 555.42 217.872 554.16 218.129C552.698 218.498 551.333 219.18 550.16 220.129C550.01 218.977 550.01 217.81 550.16 216.659C550.524 214.171 551.632 211.853 553.34 210.009C554.646 208.604 556.267 207.531 558.07 206.879L563.99 216.819Z" fill="#57D9A3"/>
<path d="M541.82 244.209C540.712 242.902 539.671 241.54 538.7 240.129C538.55 239.929 538.2 239.419 538.35 239.129C538.392 239.073 538.444 239.027 538.504 238.993C538.565 238.958 538.631 238.936 538.7 238.929C538.6 238.319 538.7 238.119 538.85 238.019C539.36 237.769 540.26 239.679 542.38 240.339C543.44 240.689 543.69 240.389 544.59 240.839C545.009 241.046 545.382 241.337 545.687 241.693C545.991 242.048 546.22 242.462 546.36 242.909C546.76 244.369 545.9 246.229 544.8 246.429C544.24 246.639 543.38 245.829 541.82 244.209Z" fill="#D4B696"/>
<path d="M542.931 238.319C542.731 238.529 543.991 239.789 543.691 240.319C543.541 240.569 542.931 240.519 542.881 240.669C542.831 240.819 543.031 240.969 543.331 241.329L543.691 241.679C544.341 242.229 544.141 243.239 544.791 243.679C545.151 243.879 545.851 244.189 546.211 243.879C546.911 243.279 545.351 240.659 544.851 239.799C544.532 239.304 544.1 238.893 543.591 238.599C543.381 238.369 543.181 238.119 542.931 238.319Z" fill="#D4B696"/>
<path d="M538.6 240.089C539.2 239.629 542.53 243.559 543.94 245.579C544.14 245.829 544.49 246.229 544.34 246.379C544.19 246.529 543.07 245.209 540.97 243.759C540.345 243.396 539.782 242.937 539.3 242.399C538.75 241.549 538.3 240.289 538.6 240.089Z" fill="#D4B696"/>
<path d="M542.38 244.319L541.92 247.999L545.35 248.649L546.41 244.319H542.38Z" fill="#D4B696"/>
<path d="M589.42 234.139C589.829 232.466 590.133 230.769 590.33 229.059C590.33 228.799 590.48 228.199 590.18 227.999C590.048 227.949 589.902 227.949 589.77 227.999C589.57 227.389 589.37 227.239 589.22 227.239C588.67 227.239 588.72 229.359 587.16 230.919C586.4 231.679 586 231.569 585.44 232.379C585.161 232.749 584.964 233.173 584.86 233.625C584.757 234.076 584.75 234.544 584.84 234.999C585.19 236.459 586.75 237.769 587.84 237.469C588.31 237.369 588.72 236.309 589.42 234.139Z" fill="#D4B696"/>
<path d="M585.691 229.359C586.001 229.509 585.441 231.169 585.951 231.469C586.251 231.629 586.751 231.319 586.801 231.369C586.851 231.419 586.801 231.679 586.651 232.129C586.608 232.281 586.558 232.431 586.501 232.579C586.201 233.389 586.801 234.189 586.401 234.849C586.201 235.199 585.691 235.759 585.241 235.649C584.331 235.399 584.541 232.379 584.591 231.419C584.646 230.831 584.834 230.263 585.141 229.759C585.291 229.709 585.541 229.309 585.691 229.359Z" fill="#D4B696"/>
<path d="M590.38 229.009C589.62 228.909 588.47 233.889 588.11 236.359C588.11 236.659 587.91 237.269 588.11 237.269C588.31 237.269 588.72 235.649 589.93 233.389C590.338 232.782 590.627 232.103 590.78 231.389C590.93 230.369 590.73 229.059 590.38 229.009Z" fill="#D4B696"/>
<path d="M584.84 235.049L586.2 239.779L589.98 239.229L588.82 235.909L584.84 235.049Z" fill="#D4B696"/>
<path d="M534.37 361.069C533.92 362.179 528.98 369.639 527.17 372.409C526.976 372.696 526.686 372.904 526.352 372.995C526.019 373.087 525.663 373.056 525.35 372.909C524.7 372.609 524.09 372.309 523.49 371.999C523.89 371.699 523.89 371.499 523.89 371.399C523.79 370.749 521.89 370.589 521.22 370.489L514.67 366.869L514.93 366.109L519.61 366.669C520.822 366.815 522.051 366.611 523.15 366.079C524.25 365.547 525.173 364.71 525.81 363.669C526.857 361.937 527.75 360.116 528.48 358.229L534.37 361.069Z" fill="#253858"/>
<path d="M580.311 372.509C580.561 373.869 580.411 380.419 580.561 384.289C580.582 384.658 580.582 385.029 580.561 385.399L580.211 385.859C579.211 386.009 578.211 386.159 577.281 386.259C577.431 385.859 577.381 385.709 577.281 385.599C576.881 385.149 575.281 385.959 574.821 386.259L567.971 386.709L567.761 386.009L570.761 384.549C571.991 383.947 573.015 382.994 573.703 381.81C574.392 380.627 574.715 379.265 574.631 377.899C574.531 375.979 574.381 374.019 574.231 373.259L580.311 372.509Z" fill="#253858"/>
<path d="M545.85 258.669C545.744 255.3 546.312 251.945 547.52 248.799L540.52 245.629C540.12 246.529 535.44 263.509 544.45 275.999C550.7 284.709 557.9 286.679 560.12 287.079C559.64 288.19 559.431 289.4 559.51 290.609C559.71 294.339 562.74 295.699 563.14 298.869C563.29 300.279 563.04 302.339 560.67 305.159L579.41 304.559C577.501 297.906 577.64 290.831 579.81 284.259C582.386 282.562 584.768 280.587 586.91 278.369C589.53 275.649 593.11 269.549 594.72 260.029C595.864 252.514 594.351 244.836 590.44 238.319L584.65 239.319C585.45 240.529 591.25 249.039 588.32 259.769C585.76 269.239 580.32 273.769 577.09 275.389L576.69 275.589L575.88 275.939C570.649 276.834 565.37 277.425 560.07 277.709C551.07 276.209 546.41 267.839 545.85 258.669Z" fill="#0065FF"/>
<path d="M565.851 266.209C565.751 266.209 565.401 266.509 564.851 266.859C563.951 267.469 564.801 267.859 565.311 268.679C565.361 268.779 564.801 270.839 564.501 271.999C564.201 273.159 564.651 273.359 566.311 275.279L568.881 277.279L569.791 277.829C569.081 274.459 569.031 272.949 569.181 272.289C569.231 271.989 569.281 271.739 569.341 271.439C569.401 270.832 569.381 270.22 569.281 269.619C568.931 267.309 570.041 266.049 569.181 265.089C568.679 264.539 568.06 264.109 567.371 263.829C567.128 263.732 566.894 263.615 566.671 263.479C566.711 265.419 566.301 266.029 565.851 266.209Z" fill="#D4B696"/>
<path d="M569.07 265.069C568.178 264.328 567.163 263.749 566.07 263.359C566.364 262.517 566.827 261.745 567.43 261.089C568.029 260.474 568.752 259.993 569.55 259.679C570.564 259.362 571.647 259.345 572.67 259.629C574.676 259.92 576.551 260.796 578.06 262.149C580.38 264.469 579.27 267.239 580.22 271.919C580.611 273.794 581.257 275.608 582.14 277.309C582.24 277.509 582.34 277.759 582.44 278.019C582.945 279.434 582.868 280.991 582.227 282.35C581.587 283.709 580.433 284.758 579.02 285.269H578.91L578.36 285.419C577.896 285.53 577.425 285.614 576.95 285.669C575.798 285.777 574.636 285.655 573.532 285.31C572.427 284.966 571.402 284.405 570.516 283.66C569.631 282.916 568.902 282.003 568.372 280.974C567.842 279.946 567.522 278.822 567.43 277.669V277.269C567.124 273.099 567.682 268.912 569.07 264.969V265.069Z" fill="#172B4D"/>
<path opacity="0.4" d="M515.87 314.039L145.81 367.989C143.75 368.289 142.03 366.579 142.03 364.159V4.08864C142.03 1.67864 143.75 -0.141356 145.81 0.00864373L515.23 37.2086C516.258 37.3528 517.201 37.8572 517.891 38.6319C518.582 39.4066 518.975 40.4012 519 41.4386V309.659C518.9 311.829 517.54 313.789 515.87 314.039Z" fill="url(#paint5_linear)"/>
<path d="M519.01 76.5286L142.07 42.6686L142.15 3.79858C142.15 3.29849 142.253 2.80376 142.455 2.34593C142.656 1.8881 142.95 1.47721 143.319 1.13946C143.688 0.801702 144.123 0.544494 144.597 0.384223C145.07 0.223952 145.572 0.164134 146.07 0.208587L515.07 37.2086C516.139 37.3011 517.135 37.791 517.861 38.5814C518.586 39.3719 518.989 40.4056 518.99 41.4786L519.01 76.5286Z" fill="url(#paint6_linear)"/>
<path opacity="0.6" d="M504.3 63.0686L410.07 53.7686C409.586 53.7175 409.136 53.4912 408.807 53.1321C408.477 52.773 408.29 52.3059 408.28 51.8186V43.2786C408.287 43.0098 408.347 42.745 408.458 42.5C408.569 42.2551 408.728 42.035 408.926 41.853C409.124 41.6709 409.356 41.5307 409.61 41.4406C409.863 41.3505 410.132 41.3124 410.4 41.3286L505.15 50.7786C505.488 50.8085 505.802 50.9635 506.032 51.2133C506.261 51.463 506.389 51.7895 506.39 52.1286V61.1286C506.383 61.3939 506.322 61.655 506.213 61.8967C506.103 62.1384 505.946 62.3559 505.752 62.5365C505.557 62.7171 505.329 62.8571 505.079 62.9485C504.83 63.0398 504.565 63.0806 504.3 63.0686Z" fill="white"/>
<g opacity="0.2">
<path opacity="0.2" d="M506.21 189.059L190.7 202.559C190.355 202.565 190.011 202.499 189.693 202.366C189.374 202.232 189.087 202.033 188.849 201.781C188.612 201.53 188.43 201.232 188.315 200.906C188.199 200.58 188.154 200.233 188.18 199.889V150.209C188.147 149.502 188.393 148.811 188.864 148.284C189.335 147.756 189.995 147.435 190.7 147.389L506.21 150.959C507.27 150.959 508.13 152.069 508.13 153.479V186.479C508.193 187.071 508.031 187.666 507.675 188.144C507.319 188.622 506.796 188.949 506.21 189.059Z" fill="url(#paint7_linear)"/>
</g>
<g opacity="0.2">
<path opacity="0.2" d="M506.21 137.329L190.7 130.079C190.355 130.085 190.011 130.019 189.693 129.886C189.374 129.752 189.087 129.553 188.849 129.301C188.612 129.05 188.43 128.752 188.315 128.426C188.199 128.1 188.154 127.753 188.18 127.409V77.7486C188.147 77.0422 188.393 76.351 188.864 75.8237C189.335 75.2964 189.995 74.975 190.7 74.9286L506.21 99.2086C507.27 99.2086 508.13 100.319 508.13 101.729V134.779C508.188 135.367 508.022 135.955 507.667 136.427C507.311 136.9 506.791 137.221 506.21 137.329Z" fill="url(#paint8_linear)"/>
</g>
<g opacity="0.4">
<path opacity="0.4" d="M230.54 93.6586L294.76 97.3386" stroke="#4C9AFF" stroke-width="4" stroke-miterlimit="10"/>
<path opacity="0.4" d="M230.34 102.929L280.71 105.449" stroke="#4C9AFF" stroke-width="4" stroke-miterlimit="10"/>
<path opacity="0.4" d="M230.24 112.399L262.12 114.059" stroke="#4C9AFF" stroke-width="4" stroke-miterlimit="10"/>
</g>
<g opacity="0.2">
<path opacity="0.2" d="M506.21 243.359L190.7 274.539C190.355 274.545 190.011 274.48 189.693 274.346C189.374 274.212 189.087 274.013 188.849 273.761C188.612 273.51 188.43 273.212 188.315 272.886C188.199 272.56 188.154 272.213 188.18 271.869V222.209C188.147 221.502 188.393 220.811 188.864 220.284C189.335 219.756 189.995 219.435 190.7 219.389L506.21 205.279C507.27 205.279 508.13 206.389 508.13 207.799V240.799C508.17 241.385 507.998 241.966 507.646 242.435C507.293 242.905 506.784 243.233 506.21 243.359Z" fill="url(#paint9_linear)"/>
</g>
<path opacity="0.6" d="M415.951 130.279H381.551V218.779H415.951V130.279Z" fill="url(#paint10_linear)"/>
<path d="M401.6 96.5287L415.6 128.529C416.029 129.491 416.143 130.564 415.925 131.595C415.708 132.626 415.171 133.561 414.39 134.269C413.941 134.614 413.396 134.809 412.83 134.829H384.83C383.07 134.829 381.66 132.959 381.66 130.589C381.663 129.867 381.798 129.151 382.06 128.479L396.06 96.4787C396.97 94.4787 398.89 93.7587 400.45 94.9187C400.952 95.3599 401.346 95.9108 401.6 96.5287Z" fill="url(#paint11_linear)"/>
<path d="M400.071 119.759L400.681 107.469C400.731 106.049 399.971 104.849 398.861 104.749H398.711C397.661 104.749 396.801 105.899 396.801 107.309V107.519L397.401 119.809C397.384 120.196 397.507 120.577 397.748 120.882C397.988 121.187 398.33 121.395 398.711 121.469C399.098 121.38 399.443 121.163 399.69 120.852C399.938 120.541 400.072 120.156 400.071 119.759Z" fill="#253858"/>
<path d="M396.71 126.209C396.71 127.669 397.62 128.879 398.71 128.879H398.92C400.02 128.779 400.92 127.469 400.78 126.009C400.64 124.549 399.78 123.489 398.71 123.539C398.091 123.628 397.533 123.959 397.158 124.46C396.783 124.96 396.622 125.589 396.71 126.209Z" fill="#253858"/>
<path opacity="0.6" d="M313.19 80.3186H278.79V168.819H313.19V80.3186Z" fill="url(#paint12_linear)"/>
<path d="M299.651 46.3186L312.741 78.6486C313.143 79.6209 313.228 80.6953 312.983 81.7187C312.739 82.7421 312.178 83.6624 311.381 84.3486C310.909 84.6791 310.346 84.8539 309.771 84.8486L281.771 84.0386C280.001 83.9886 278.641 82.0386 278.691 79.7586C278.7 79.0418 278.874 78.3368 279.201 77.6986L294.071 46.1186C295.021 44.1186 296.991 43.4986 298.501 44.6986C299.007 45.1401 299.401 45.6953 299.651 46.3186Z" fill="url(#paint13_linear)"/>
<path d="M297.431 69.4886L298.431 57.1986C298.536 56.6073 298.421 55.9978 298.105 55.4867C297.789 54.9756 297.297 54.5989 296.721 54.4286H296.561C295.511 54.3786 294.561 55.5286 294.561 56.8886V57.0986L294.811 69.4386C294.811 70.3386 295.371 71.0986 296.071 71.0986C296.45 71.0328 296.795 70.8354 297.043 70.541C297.292 70.2465 297.429 69.874 297.431 69.4886Z" fill="#253858"/>
<path d="M293.91 75.8786C293.91 77.3386 294.71 78.5486 295.82 78.5986H296.02C296.642 78.4574 297.19 78.0916 297.559 77.5712C297.929 77.0508 298.093 76.4125 298.02 75.7786C298.064 75.1787 297.884 74.5838 297.514 74.109C297.145 73.6343 296.612 73.3135 296.02 73.2086C295.395 73.3028 294.83 73.6311 294.438 74.1269C294.046 74.6227 293.857 75.2489 293.91 75.8786Z" fill="#253858"/>
<g opacity="0.4">
<path opacity="0.4" d="M231.45 163.429L295.72 163.679" stroke="#4C9AFF" stroke-width="4" stroke-miterlimit="10"/>
<path opacity="0.4" d="M231.75 172.689L282.17 172.489" stroke="#4C9AFF" stroke-width="4" stroke-miterlimit="10"/>
<path opacity="0.4" d="M232.15 182.159L264.04 182.109" stroke="#4C9AFF" stroke-width="4" stroke-miterlimit="10"/>
</g>
<path opacity="0.5" d="M231.551 233.839L295.871 230.869" stroke="#4C9AFF" stroke-width="4" stroke-miterlimit="10"/>
<path opacity="0.5" d="M231.7 243.309L282.17 240.789" stroke="#4C9AFF" stroke-width="4" stroke-miterlimit="10"/>
<path opacity="0.5" d="M231.95 252.829L263.94 251.119" stroke="#4C9AFF" stroke-width="4" stroke-miterlimit="10"/>
<path d="M444.61 228.399L477.85 227.999" stroke="#42526E" stroke-width="2.87" stroke-miterlimit="10" stroke-linecap="round"/>
<path d="M448.74 248.199L481.78 247.239" stroke="#42526E" stroke-width="2.87" stroke-miterlimit="10" stroke-linecap="round"/>
<path d="M452.82 267.889L485.66 266.379" stroke="#42526E" stroke-width="2.87" stroke-miterlimit="10" stroke-linecap="round"/>
<path d="M456.851 287.429L489.491 285.419" stroke="#42526E" stroke-width="2.87" stroke-miterlimit="10" stroke-linecap="round"/>
<path d="M460.931 306.929L493.321 304.359" stroke="#42526E" stroke-width="2.87" stroke-miterlimit="10" stroke-linecap="round"/>
<path d="M464.91 326.269L497.15 323.199" stroke="#42526E" stroke-width="2.87" stroke-miterlimit="10" stroke-linecap="round"/>
<path d="M468.891 345.509L500.971 341.929" stroke="#42526E" stroke-width="2.87" stroke-miterlimit="10" stroke-linecap="round"/>
<path d="M504.4 359.059L475.03 214.049" stroke="#42526E" stroke-width="2.87" stroke-miterlimit="10" stroke-linecap="round"/>
<path d="M472.571 363.089L441.641 214.049" stroke="#42526E" stroke-width="2.87" stroke-miterlimit="10" stroke-linecap="round"/>
<path d="M534.72 216.509L244.54 234.039C242.93 234.139 241.54 232.629 241.54 230.669L241.59 173.799C241.59 171.799 242.9 170.229 244.59 170.229L534.77 166.399C536.03 166.399 537.04 167.809 537.04 169.569V213.289C536.94 214.949 535.93 216.409 534.72 216.509Z" fill="white"/>
<path d="M268.87 184.279L280.76 209.409C281.13 210.168 281.242 211.028 281.078 211.857C280.913 212.685 280.482 213.438 279.85 213.999C279.474 214.288 279.014 214.446 278.54 214.449L255.54 214.799C254.08 214.799 252.87 213.339 252.87 211.479C252.866 210.91 252.971 210.347 253.18 209.819L264.31 184.329C265.01 182.719 266.63 182.159 267.88 183.069C268.329 183.358 268.676 183.781 268.87 184.279Z" fill="url(#paint14_linear)"/>
<path d="M267.86 202.659L268.22 192.889C268.283 192.411 268.162 191.928 267.882 191.536C267.601 191.144 267.183 190.873 266.711 190.779H266.61C266.132 190.851 265.701 191.106 265.408 191.491C265.115 191.875 264.983 192.359 265.04 192.839V192.989L265.7 202.759C265.75 203.469 266.25 204.069 266.81 204.019C267.118 203.953 267.392 203.78 267.585 203.531C267.777 203.282 267.875 202.973 267.86 202.659Z" fill="#253858"/>
<path d="M265.2 207.899C265.2 209.059 265.95 210.019 266.86 209.969H267.01C267.512 209.851 267.95 209.544 268.231 209.112C268.513 208.68 268.616 208.155 268.52 207.649C268.525 207.165 268.355 206.695 268.04 206.328C267.726 205.96 267.289 205.719 266.81 205.649C266.303 205.744 265.853 206.031 265.553 206.45C265.253 206.869 265.127 207.388 265.2 207.899Z" fill="#253858"/>
<path d="M292.601 187.899L362.811 186.749" stroke="#4C9AFF" stroke-width="4" stroke-miterlimit="10"/>
<path d="M293.101 198.029L348.201 196.719" stroke="#4C9AFF" stroke-width="4" stroke-miterlimit="10"/>
<path d="M293.75 208.349L328.61 207.599" stroke="#4C9AFF" stroke-width="4" stroke-miterlimit="10"/>
<path d="M328.36 273.379C328.861 273.854 329.271 274.416 329.57 275.039C330.83 277.809 330.42 280.689 330.62 285.119C330.83 290.049 330.62 288.589 330.78 291.119C330.93 293.789 331.23 295.599 330.27 297.569C330.011 298.162 329.653 298.706 329.21 299.179L312.84 315.179C311.43 314.179 310.02 313.179 308.61 312.179C313.4 306.989 318.23 301.799 323.02 296.609C322.62 288.802 322.2 280.995 321.76 273.189L325.59 272.129C326.605 272.304 327.558 272.734 328.36 273.379Z" fill="#CF9E76"/>
<path d="M329.571 275.039C329.271 274.416 328.861 273.854 328.361 273.379C327.589 272.738 326.64 272.351 325.641 272.269L321.811 273.329L323.221 284.329C325.739 284.461 328.253 284.013 330.571 283.019C330.521 279.729 330.621 277.359 329.571 275.039Z" fill="#FFAB00"/>
<path d="M311.74 364.749C311.727 367.463 311.927 370.175 312.34 372.859C312.59 374.469 313 376.339 313.4 379.609C313.55 380.919 313.7 381.979 313.75 382.679C313.35 382.679 313.05 382.679 312.75 382.679C312.179 382.673 311.607 382.706 311.04 382.779C310.748 382.835 310.464 382.922 310.19 383.039C309.68 383.189 309.58 383.289 309.53 383.389C309.519 383.478 309.527 383.568 309.553 383.654C309.579 383.74 309.622 383.82 309.68 383.889C310.39 384.889 311.49 384.799 313.06 385.709C313.518 386.067 314.027 386.353 314.57 386.559C314.867 386.706 315.194 386.783 315.525 386.783C315.857 386.783 316.184 386.706 316.48 386.559C316.815 386.407 317.085 386.143 317.242 385.811C317.4 385.48 317.434 385.103 317.34 384.749C317.24 383.749 317.19 382.579 317.14 381.219C317.17 378.468 317.404 375.724 317.84 373.009C318.04 371.449 318.4 368.729 318.95 364.399C316.62 364.499 314.15 364.599 311.74 364.749Z" fill="#FFC400"/>
<path d="M323.47 304.509C323.47 304.259 323.47 304.009 323.47 303.799C323.19 301.726 322.769 299.674 322.21 297.659C322.083 297.023 321.899 296.401 321.66 295.799C321.405 295.088 321.101 294.397 320.75 293.729C320.4 293.829 319.8 294.029 319.04 294.179C318.579 294.299 318.106 294.37 317.63 294.389C316.12 294.639 313.2 294.989 305.34 295.589C304.99 296.099 304.43 296.799 303.88 297.759C301.81 301.139 302.14 304.179 301.79 305.539C296.5 328.459 294.36 337.539 294.36 337.539C293.6 342.069 292.8 346.659 292.04 351.189C291.99 353.809 291.84 356.529 291.69 359.299C291.49 362.419 291.29 365.499 291.03 368.419C293.4 368.719 295.72 369.019 298.09 369.269C298.451 367.124 298.635 364.953 298.64 362.779C298.64 359.649 298.29 357.779 298.84 354.719C299.056 353.544 299.391 352.395 299.84 351.289C300.694 349.612 301.439 347.881 302.07 346.109C303.93 341.229 304.23 338.259 305.07 334.929C306.88 327.779 310.51 321.529 311.41 321.839C312.95 314.729 318.59 309.699 323.47 304.509Z" fill="#CF9E76"/>
<path d="M311.841 320.879C313.001 321.329 307.961 333.469 310.931 345.759C311.455 347.33 311.81 348.952 311.991 350.599C312.116 352.515 312.033 354.44 311.741 356.339C311.475 359.136 311.475 361.952 311.741 364.749L318.991 364.899C319.498 360.685 319.525 356.428 319.071 352.209C318.921 350.849 318.771 349.539 318.571 348.279C319.324 345.456 319.846 342.576 320.131 339.669C320.381 337.249 320.731 331.409 320.731 329.139C320.731 328.228 320.798 327.319 320.931 326.419C320.981 326.119 321.031 325.819 321.081 325.309C321.591 322.239 323.801 309.649 323.451 304.209C318.741 309.139 313.301 314.029 311.841 320.879Z" fill="#CF9E76"/>
<path d="M326.141 278.209C326.645 276.939 326.689 275.533 326.265 274.234C325.841 272.936 324.977 271.826 323.821 271.099C323.425 270.844 323.006 270.626 322.571 270.449C314.151 267.679 304.031 267.449 304.031 267.449C300.911 267.399 300.151 267.449 298.641 267.039C296.171 266.339 295.061 265.229 291.691 263.219C289.812 262.09 287.862 261.088 285.851 260.219C285.191 257.099 284.591 254.579 284.181 252.869C283.081 248.039 282.621 246.519 282.181 243.869C281.838 241.496 281.638 239.105 281.581 236.709C281.171 236.659 280.581 236.609 279.911 236.509C279.825 236.504 279.741 236.487 279.661 236.459C279.211 236.359 278.551 236.259 277.751 236.059C277.129 245.398 277.737 254.778 279.561 263.959C286.561 270.759 292.101 273.779 296.131 275.349C297.951 276.049 302.231 277.559 304.131 281.539C304.671 282.76 304.947 284.083 304.941 285.419C305.205 289.318 304.518 293.223 302.941 296.799C305.861 297.109 308.841 297.409 311.811 297.659C315.531 298.009 319.211 298.309 322.811 298.569C322.623 293.008 323.298 287.452 324.811 282.099C325.241 280.689 325.691 279.379 326.141 278.209Z" fill="#CF9E76"/>
<path d="M311.99 260.639C312.781 261.365 313.389 262.268 313.765 263.274C314.14 264.281 314.272 265.362 314.15 266.429C313.947 267.796 313.292 269.056 312.29 270.009C315.82 270.459 319.29 270.959 322.87 271.419C322.058 270.463 321.627 269.242 321.66 267.989C321.715 266.841 322.18 265.752 322.97 264.919C319.39 263.509 315.67 262.049 311.99 260.639Z" fill="#B08874"/>
<path d="M320.651 249.049C319.441 247.589 315.561 248.299 313.151 249.709C311.564 250.492 310.286 251.784 309.521 253.379C308.921 254.849 308.871 256.559 307.521 257.379C307.16 257.553 306.823 257.775 306.521 258.039C306.209 258.43 305.995 258.89 305.898 259.38C305.8 259.871 305.822 260.378 305.961 260.859C306.061 261.259 306.421 262.069 309.291 263.729C309.468 263.839 309.652 263.939 309.841 264.029C310.752 264.513 311.812 264.637 312.811 264.376C313.81 264.115 314.674 263.488 315.231 262.619C321.361 253.379 321.661 250.209 320.651 249.049Z" fill="#172B4D"/>
<path d="M316.47 248.699C314.899 250.289 313.574 252.106 312.54 254.089C312.44 254.339 312.39 254.439 311.89 254.689C311.39 254.939 310.68 254.999 310.78 255.399C310.88 255.799 311.59 256.399 311.64 256.759L310.48 262.149L312.48 263.209L319.33 266.729C319.33 266.429 317.33 258.729 317.33 258.369C317.33 258.009 317.53 257.059 317.08 256.809C316.63 256.559 316.22 252.179 316.08 251.569C315.943 251.052 315.978 250.504 316.18 250.009C316.243 249.565 316.34 249.127 316.47 248.699Z" fill="#CF9E76"/>
<path d="M316.42 248.749C315.808 250.428 315.704 252.25 316.12 253.989C316.32 255.049 316.97 259.079 314.96 262.399C314.71 262.819 314.55 263.285 314.488 263.77C314.427 264.255 314.466 264.747 314.603 265.216C314.74 265.685 314.972 266.121 315.284 266.496C315.597 266.872 315.984 267.179 316.42 267.399C317.377 267.922 318.414 268.281 319.49 268.459C320.684 268.699 321.921 268.612 323.07 268.209C325.54 267.209 326.54 264.589 327.07 263.029C327.852 260.851 328.042 258.504 327.62 256.229C327.493 255.52 327.292 254.826 327.02 254.159C326.07 251.469 321.36 246.889 316.42 248.749Z" fill="#172B4D"/>
<path d="M280.26 228.959C280.05 229.109 280 228.959 279.45 229.159C279.005 229.31 278.593 229.548 278.24 229.859C277.734 230.455 277.433 231.198 277.38 231.979C277.2 232.841 277.183 233.73 277.33 234.599C277.443 235.399 277.718 236.169 278.14 236.859C278.9 238.019 280.36 239.029 281.06 238.629C281.46 238.369 281.41 237.869 281.62 236.709C281.97 234.289 282.42 234.399 282.62 232.829C282.82 231.259 282.27 231.319 281.82 227.389C281.62 225.879 281.57 224.669 281.31 224.619C281.05 224.569 280.91 225.229 280.81 225.479C280.21 227.209 280.86 228.549 280.26 228.959Z" fill="#CF9E76"/>
<path d="M296.17 275.299C299.75 277.109 302.82 278.619 304.17 281.489C304.668 282.724 304.943 284.037 304.98 285.369C305.13 293.529 293.09 332.969 292.08 336.289C296.265 339.252 300.986 341.375 305.98 342.539C311.741 343.827 317.722 343.776 323.46 342.389C324.192 334.411 324.429 326.396 324.17 318.389C324.07 304.439 322.17 297.539 324.27 285.849C325.432 281.868 327.181 278.083 329.46 274.619C328.317 273.053 326.855 271.748 325.17 270.789C323.578 269.961 321.851 269.426 320.07 269.209C314.43 268.209 309.84 267.849 309.19 267.799C306.62 267.599 303.29 267.399 299.47 267.199L296.17 275.299Z" fill="url(#paint15_linear)"/>
<path d="M323.98 337.209C324.08 335.999 324.13 334.789 324.18 333.679C319.126 334.531 313.962 334.497 308.92 333.579C303.907 332.558 299.035 330.937 294.41 328.749C294.06 329.859 293.75 330.859 293.5 331.819C298.053 334.449 303.005 336.321 308.16 337.359C313.389 338.382 318.771 338.331 323.98 337.209Z" fill="#FFAB00"/>
<path d="M308.92 326.209C304.584 325.35 300.358 324.008 296.32 322.209C295.97 323.369 295.67 324.529 295.32 325.579C299.4 327.562 303.714 329.021 308.16 329.919C313.461 331.033 318.916 331.219 324.28 330.469C324.28 329.359 324.33 328.299 324.33 327.249C319.17 327.557 313.992 327.208 308.92 326.209Z" fill="#FFAB00"/>
<path d="M291.19 365.509C290.83 370.339 290.68 374.219 290.63 376.789C290.48 382.789 290.68 384.949 289.12 386.609C286.8 389.029 282.62 388.479 282.62 389.379C282.62 389.839 283.68 390.139 284.18 390.289C286.18 390.889 287.06 390.239 289.42 390.189C292.14 390.139 293.1 390.989 294.01 390.189C294.319 389.823 294.546 389.396 294.675 388.935C294.805 388.475 294.834 387.991 294.76 387.519C294.71 387.119 294.66 386.519 294.61 385.759C294.51 383.139 295.82 378.399 296.27 377.139C297.382 373.907 298.078 370.546 298.34 367.139C295.92 366.669 293.55 366.059 291.19 365.509Z" fill="#FFC400"/>
<path d="M286.9 388.019C287.941 388.111 288.987 388.127 290.03 388.069C290.84 387.909 291.589 387.524 292.19 386.959C292.83 386.437 293.595 386.092 294.41 385.959C294.51 385.959 294.56 385.959 294.61 385.909C294.61 386.559 294.71 387.169 294.76 387.519C294.83 387.991 294.8 388.474 294.671 388.934C294.541 389.394 294.316 389.822 294.01 390.189C293.1 390.989 292.14 390.139 289.42 390.139C287.11 390.189 286.2 390.839 284.18 390.239C283.68 390.089 282.62 389.779 282.62 389.329C282.62 388.729 284.84 388.829 286.9 388.019Z" fill="#172B4D"/>
<path d="M311.13 382.829C311.461 382.76 311.795 382.71 312.13 382.679H313.29C312.78 382.779 312.38 382.989 312.29 383.239C312.2 383.489 312.69 383.689 313.29 384.039C313.486 384.16 313.71 384.229 313.94 384.239C314.45 384.239 314.45 383.639 315.05 383.439C315.333 383.378 315.621 383.345 315.91 383.339C316.095 383.352 316.281 383.335 316.46 383.289C316.718 383.238 316.972 383.171 317.22 383.089C317.27 383.689 317.27 384.239 317.32 384.699C317.415 385.053 317.38 385.43 317.222 385.761C317.065 386.093 316.795 386.357 316.46 386.509C315.855 386.773 315.169 386.791 314.55 386.559C314.007 386.353 313.498 386.067 313.04 385.709C311.47 384.799 310.32 384.849 309.66 383.889C309.599 383.822 309.554 383.742 309.528 383.656C309.502 383.569 309.496 383.478 309.51 383.389C309.67 383.339 309.72 383.209 311.13 382.829Z" fill="#172B4D"/>
<path opacity="0.5" d="M210.291 113.709C215.41 113.709 219.561 108.569 219.561 102.229C219.561 95.8884 215.41 90.7487 210.291 90.7487C205.171 90.7487 201.021 95.8884 201.021 102.229C201.021 108.569 205.171 113.709 210.291 113.709Z" fill="#4C9AFF"/>
<path opacity="0.5" d="M211.3 184.779C216.42 184.779 220.57 179.639 220.57 173.299C220.57 166.958 216.42 161.819 211.3 161.819C206.181 161.819 202.03 166.958 202.03 173.299C202.03 179.639 206.181 184.779 211.3 184.779Z" fill="#4C9AFF"/>
<path opacity="0.5" d="M211.3 256.199C216.42 256.199 220.57 251.059 220.57 244.719C220.57 238.378 216.42 233.239 211.3 233.239C206.181 233.239 202.03 238.378 202.03 244.719C202.03 251.059 206.181 256.199 211.3 256.199Z" fill="#4C9AFF"/>
<path d="M471.36 189.919C471.57 190.909 472 191.839 472.618 192.64C473.236 193.442 474.026 194.094 474.93 194.549C475.994 195.021 477.174 195.168 478.321 194.973C479.469 194.777 480.533 194.247 481.38 193.449C480.808 191.502 480.552 189.476 480.62 187.449C480.669 185.846 480.925 184.256 481.38 182.719C478.51 183.469 475.64 184.229 472.77 184.929C472.872 185.848 472.905 186.774 472.87 187.699C472.82 188.859 472.72 189.319 472.41 189.619C472.108 189.843 471.735 189.949 471.36 189.919Z" fill="url(#paint16_linear)"/>
<path d="M436.07 197.579L431.07 198.729C430.954 198.731 430.841 198.766 430.744 198.83C430.646 198.893 430.569 198.983 430.52 199.089C430.478 199.185 430.46 199.29 430.469 199.395C430.478 199.5 430.512 199.601 430.57 199.689C430.451 199.754 430.35 199.849 430.278 199.965C430.207 200.08 430.166 200.213 430.16 200.349C430.166 200.529 430.229 200.702 430.338 200.846C430.447 200.989 430.598 201.095 430.77 201.149C430.679 201.32 430.644 201.516 430.67 201.709C430.77 202.059 431.27 202.309 431.93 202.159C431.923 202.376 431.994 202.589 432.13 202.759C432.209 202.855 432.308 202.933 432.42 202.987C432.533 203.04 432.656 203.068 432.78 203.069C434.65 203.069 435.78 203.169 435.78 203.169C436.53 203.141 437.258 202.913 437.89 202.509C438.169 202.283 438.409 202.013 438.6 201.709C439.5 202.259 439.86 202.059 439.91 201.959C440.31 201.609 440.11 200.399 439.4 198.829C438.31 198.479 437.21 198.029 436.07 197.579Z" fill="#A27F68"/>
<path d="M456.451 204.529C455.879 204.407 455.283 204.515 454.79 204.829C453.308 203.92 451.756 203.127 450.15 202.459C446.98 201.099 445.21 200.899 441.84 199.339C440.832 198.887 439.856 198.366 438.921 197.779C438.771 198.989 438.671 200.189 438.521 201.399C441.599 204.275 444.863 206.948 448.29 209.399C449.36 210.171 450.527 210.8 451.76 211.269C453.27 211.819 457.201 213.269 458.611 211.419C460.021 209.569 458.611 205.029 456.451 204.529Z" fill="#A27F68"/>
<path d="M455.49 212.279C456.209 212.494 456.963 212.565 457.71 212.489C459.52 212.229 460.63 210.969 461.89 209.609C464.15 207.099 465.89 205.229 467.28 203.609L466.97 190.819C466.023 191.878 465.131 192.986 464.3 194.139C462.14 197.359 461.3 200.079 459.07 200.789C458.719 200.846 458.381 200.965 458.07 201.139C456.436 202.02 455.206 203.5 454.64 205.269C454.277 206.431 454.165 207.656 454.311 208.865C454.458 210.074 454.86 211.237 455.49 212.279Z" fill="url(#paint17_linear)"/>
<path d="M475.54 304.669C475.819 304.317 476.119 303.983 476.44 303.669C477.491 302.658 478.722 301.854 480.07 301.299C481.921 300.334 483.51 298.934 484.7 297.219C486.11 297.419 487.53 297.679 488.89 297.879C489.21 298.747 489.461 299.64 489.64 300.549C489.811 301.539 489.894 302.543 489.89 303.549L487.22 303.599C487.16 303.463 487.071 303.342 486.958 303.245C486.846 303.149 486.713 303.078 486.57 303.039C486.06 302.989 485.57 303.549 485.46 303.749C484.15 305.209 481.07 305.209 479.21 305.209C477.971 305.165 476.74 304.984 475.54 304.669Z" fill="#091E42"/>
<path d="M457.13 304.839C457.41 304.485 457.714 304.15 458.04 303.839C459.086 302.827 460.314 302.023 461.66 301.469C463.512 300.501 465.104 299.102 466.3 297.389C467.71 297.589 469.12 297.839 470.48 298.049C470.8 298.917 471.051 299.81 471.23 300.719C471.408 301.708 471.495 302.713 471.49 303.719H468.82C468.759 303.582 468.668 303.46 468.554 303.363C468.439 303.267 468.305 303.197 468.16 303.159C467.66 303.159 467.16 303.669 467.05 303.869C465.74 305.379 462.62 305.379 460.81 305.379C459.568 305.329 458.334 305.148 457.13 304.839Z" fill="#091E42"/>
<path d="M466.72 221.099C465.77 228.799 465.01 236.909 464.51 245.479C463.534 262.95 463.765 280.469 465.2 297.909C467.172 298.8 469.412 298.893 471.45 298.169C471.6 291.369 471.71 284.709 471.66 279.729C471.66 277.729 471.66 276.299 471.66 275.349C471.61 272.979 471.56 270.209 471.51 267.189C472.41 258.569 473.27 249.959 474.18 241.349C474.73 244.619 475.13 247.289 475.39 249.099C476.19 254.849 476.39 257.359 477.25 262.799C477.65 265.319 478.01 267.139 478.16 268.039C479.37 274.589 481.03 284.459 482.79 298.719C485.01 299.169 487.98 299.419 490.04 298.719C489.29 285.669 488.53 272.719 487.83 259.629C487.324 252.229 486.717 244.709 486.01 237.069C485.56 232.179 485.06 227.389 484.55 222.659C478.56 222.209 472.67 221.599 466.72 221.099Z" fill="#091E42"/>
<path d="M469.34 189.819C470.34 189.869 471.21 189.869 471.91 189.869C472.91 191.129 473.91 192.339 474.83 193.599C476.75 192.339 478.71 191.129 480.62 189.869C483.24 191.529 485.83 193.339 488.4 195.009C488.253 196.342 488.03 198.155 487.73 200.449C487.02 205.449 486.73 208.049 486.32 210.119C485.91 212.189 485.32 214.249 484.91 217.319C484.667 219.09 484.514 220.872 484.45 222.659C481.18 223.659 477.95 224.719 474.68 225.729C474.33 224.619 473.98 223.519 473.62 222.409C473.02 223.309 472.41 224.169 471.81 225.079C470.1 223.869 468.44 222.659 466.72 221.449C466.72 220.849 466.72 219.939 466.82 218.829C466.92 217.719 467.02 217.269 467.02 216.459C467.061 215.45 466.96 214.44 466.72 213.459C465.61 208.529 468.03 206.759 466.97 201.459C466.571 199.849 466.254 198.22 466.02 196.579C465.882 195.37 465.915 194.148 466.12 192.949C466.1 192.525 466.171 192.101 466.327 191.707C466.483 191.312 466.722 190.955 467.026 190.659C467.33 190.363 467.694 190.135 468.093 189.991C468.492 189.846 468.917 189.787 469.34 189.819Z" fill="url(#paint18_linear)"/>
<path d="M438.62 197.679L437.76 197.319C436.993 197.008 436.166 196.872 435.34 196.919L431.77 197.069C431.761 197.42 431.886 197.761 432.121 198.023C432.355 198.285 432.68 198.448 433.03 198.479L434.39 198.579L438.16 201.049L439.83 199.489C439.832 199.101 439.719 198.721 439.503 198.398C439.287 198.075 438.98 197.825 438.62 197.679Z" fill="#A27F68"/>
<path d="M486.37 213.739C486.274 214.259 486.363 214.796 486.62 215.259C485.849 216.617 485.18 218.031 484.62 219.489C483.52 222.359 483.31 223.969 482 227.089C481.63 228 481.212 228.891 480.75 229.759C481.75 229.859 482.75 230.009 483.75 230.109C486.115 227.265 488.319 224.29 490.35 221.199C490.999 220.218 491.507 219.151 491.86 218.029C492.31 216.669 493.47 213.029 492.01 211.779C490.55 210.529 486.77 211.779 486.37 213.739Z" fill="#A27F68"/>
<path d="M480.42 228.299L479.92 228.959C479.456 229.552 479.116 230.232 478.92 230.959L478.07 234.079C478.351 234.166 478.654 234.149 478.923 234.029C479.192 233.909 479.408 233.696 479.53 233.429L479.98 232.269L482.98 229.699L482.23 227.839C481.916 227.739 481.58 227.729 481.26 227.811C480.94 227.892 480.649 228.061 480.42 228.299Z" fill="#A27F68"/>
<path d="M474.83 193.549L476.24 196.269C477.96 194.269 479.72 192.339 481.43 190.369C481.18 189.869 480.98 189.369 480.73 188.909C480.32 189.419 479.97 189.969 479.57 190.469L474.83 193.549Z" fill="url(#paint19_linear)"/>
<path d="M472.791 189.019C472.803 189.36 472.745 189.7 472.621 190.019C473.471 191.129 473.981 192.439 474.831 193.549C474.181 194.099 473.571 194.649 472.921 195.209C472.161 193.449 471.361 191.629 470.601 189.869C471.001 189.469 471.411 189.059 471.811 188.609L472.811 188.299C472.831 188.609 472.791 188.869 472.791 189.019Z" fill="url(#paint20_linear)"/>
<path d="M475.29 187.209C471.51 187.759 471.16 187.859 470.7 187.459C470.4 187.209 470.15 186.349 469.7 184.639C469.5 183.779 469.3 183.079 469.2 182.579C468.95 182.679 468.2 182.879 467.99 182.529C467.78 182.179 468.04 181.969 468.24 181.419C468.502 180.73 468.706 180.021 468.85 179.299C468.85 179.149 468.8 178.999 468.8 178.849C468.784 178.032 468.885 177.217 469.1 176.429C469.517 175.19 470.247 174.081 471.22 173.209C472.237 172.292 473.507 171.706 474.864 171.527C476.222 171.349 477.601 171.586 478.82 172.209C479.779 172.789 480.586 173.59 481.174 174.545C481.762 175.499 482.114 176.581 482.2 177.699C482.19 179.272 481.934 180.834 481.44 182.329V182.379L481.34 182.689C481.19 183.239 480.34 183.739 480.34 183.739C479.64 184.199 479.49 184.049 479.08 184.349C478.38 184.899 478.58 185.659 478.08 186.349C477.7 186.899 477.2 186.999 475.29 187.209Z" fill="#8C715D"/>
<path d="M475.34 178.389C475.575 179.225 475.725 180.082 475.79 180.949H476.95C477.3 180.549 477.7 180.149 478.06 180.249C478.81 180.499 478.41 182.919 479.37 183.419C480.12 183.819 481.23 182.819 481.37 182.719C482.98 181.309 483.44 178.539 482.73 176.269C482.144 174.544 480.916 173.111 479.3 172.269C478.389 171.778 477.39 171.472 476.36 171.37C475.331 171.267 474.291 171.368 473.3 171.669C472.306 171.991 471.387 172.511 470.6 173.199C469.813 173.886 469.173 174.727 468.72 175.669C468.57 175.969 468.06 177.079 468.36 177.429C468.52 177.629 468.92 177.579 470.43 176.869C472.85 175.769 473.15 175.259 473.75 175.459C474.58 175.769 474.93 176.969 475.34 178.389Z" fill="#172B4D"/>
<path d="M484.45 194.149C484.959 193.931 485.512 193.836 486.064 193.871C486.616 193.905 487.153 194.069 487.63 194.349C488.558 194.989 489.234 195.933 489.54 197.019C491.1 201.299 491.05 203.219 492.21 206.839C492.86 208.839 493.57 210.619 493.12 212.939C493.027 213.442 492.872 213.932 492.66 214.399C491.325 214.242 489.971 214.431 488.73 214.949C487.488 215.478 486.398 216.31 485.56 217.369C484.853 216.952 484.323 216.29 484.07 215.509C483.902 214.691 484.008 213.841 484.37 213.089C484.98 211.729 484.88 208.299 482.21 199.139C481.911 198.177 481.973 197.139 482.386 196.22C482.798 195.301 483.532 194.564 484.45 194.149Z" fill="url(#paint21_linear)"/>
<path d="M480.271 230.009L479.971 232.229L484.151 230.919L484.601 229.009L480.271 230.009Z" fill="#A27F68"/>
<path d="M425.271 202.759C439.15 202.759 450.401 191.167 450.401 176.869C450.401 162.57 439.15 150.979 425.271 150.979C411.392 150.979 400.141 162.57 400.141 176.869C400.141 191.167 411.392 202.759 425.271 202.759Z" fill="#2684FF"/>
<path d="M441.72 196.449L436.6 193.549C436.45 193.455 436.277 193.404 436.1 193.399L426.18 192.889L416.25 193.399C416.072 193.394 415.897 193.447 415.75 193.549L409.57 197.089C414.101 200.866 419.841 202.884 425.739 202.772C431.637 202.66 437.297 200.426 441.68 196.479L441.72 196.449Z" fill="#5EAAFC"/>
<path d="M435.7 194.759C434.437 196.319 432.828 197.564 431 198.394C429.172 199.223 427.176 199.615 425.17 199.539C423.516 199.391 421.908 198.909 420.445 198.122C418.982 197.334 417.695 196.258 416.66 194.959C417.706 193.915 418.453 192.61 418.82 191.179C419.274 189.315 419.117 187.355 418.37 185.589L433.58 185.239C433.105 186.192 432.824 187.23 432.756 188.293C432.687 189.356 432.831 190.422 433.18 191.429C433.667 192.766 434.545 193.926 435.7 194.759Z" fill="#5EAAFC"/>
<path d="M425.871 159.299C427.64 159.347 429.379 159.767 430.976 160.53C432.573 161.293 433.992 162.383 435.141 163.729C437.376 166.556 438.423 170.143 438.061 173.729C437.603 176.801 436.561 179.758 434.991 182.439C434.119 184.305 433.144 186.121 432.071 187.879C431.773 188.349 431.355 188.732 430.861 188.989C429.316 189.883 427.562 190.354 425.776 190.354C423.99 190.354 422.236 189.883 420.691 188.989C420.195 188.735 419.777 188.351 419.481 187.879C418.421 186.119 417.481 184.309 416.551 182.439C414.985 179.756 413.943 176.8 413.481 173.729C413.132 170.144 414.178 166.562 416.401 163.729C417.573 162.358 419.024 161.254 420.657 160.489C422.29 159.725 424.068 159.319 425.871 159.299Z" fill="#5EAAFC"/>
<path opacity="0.22" d="M547.721 389.629C566.498 389.629 581.721 387.148 581.721 384.089C581.721 381.029 566.498 378.549 547.721 378.549C528.943 378.549 513.721 381.029 513.721 384.089C513.721 387.148 528.943 389.629 547.721 389.629Z" fill="url(#paint22_linear)"/>
<path d="M368.27 48.9286C368.273 49.0566 368.248 49.1835 368.197 49.301C368.146 49.4184 368.071 49.5237 367.976 49.6099C367.882 49.696 367.77 49.7609 367.648 49.8004C367.526 49.8398 367.398 49.8529 367.27 49.8386L310.78 45.1386C310.51 45.1139 310.258 44.99 310.073 44.7905C309.888 44.5911 309.784 44.3304 309.78 44.0586V31.0586C309.778 30.9303 309.803 30.803 309.854 30.6851C309.905 30.5672 309.98 30.4613 310.074 30.3745C310.169 30.2876 310.28 30.2217 310.402 30.181C310.524 30.1404 310.653 30.1259 310.78 30.1386L367.27 34.8386C367.541 34.8677 367.792 34.9944 367.976 35.1951C368.16 35.3957 368.265 35.6565 368.27 35.9286V48.9286Z" fill="#0065FF"/>
<path d="M168.06 33.8686C174.328 33.8686 179.41 28.787 179.41 22.5186C179.41 16.2501 174.328 11.1686 168.06 11.1686C161.792 11.1686 156.71 16.2501 156.71 22.5186C156.71 28.787 161.792 33.8686 168.06 33.8686Z" fill="url(#paint23_linear)"/>
<path d="M191.53 24.7086L262.65 31.9286" stroke="#B2D4FF" stroke-width="6" stroke-miterlimit="10"/>
<defs>
<linearGradient id="paint0_linear" x1="261.39" y1="353.819" x2="256.42" y2="313.219" gradientUnits="userSpaceOnUse">
<stop stop-color="#091E42"/>
<stop offset="0.19" stop-color="#091E42" stop-opacity="0.89"/>
<stop offset="0.49" stop-color="#091E42" stop-opacity="0.58"/>
<stop offset="0.84" stop-color="#091E42" stop-opacity="0.07"/>
<stop offset="0.88" stop-color="#091E42" stop-opacity="0"/>
</linearGradient>
<linearGradient id="paint1_linear" x1="340.04" y1="385.749" x2="262.48" y2="385.749" gradientUnits="userSpaceOnUse">
<stop stop-color="#091E42"/>
<stop offset="0.97" stop-color="#091E42" stop-opacity="0.03"/>
<stop offset="1" stop-color="#091E42" stop-opacity="0"/>
</linearGradient>
<linearGradient id="paint2_linear" x1="389.631" y1="32.3187" x2="390.231" y2="327.889" gradientUnits="userSpaceOnUse">
<stop stop-color="#091E42"/>
<stop offset="0.19" stop-color="#091E42" stop-opacity="0.89"/>
<stop offset="0.64" stop-color="#091E42" stop-opacity="0.58"/>
<stop offset="0.84" stop-color="#091E42" stop-opacity="0.07"/>
<stop offset="0.88" stop-color="#091E42" stop-opacity="0"/>
</linearGradient>
<linearGradient id="paint3_linear" x1="574.441" y1="376.129" x2="574.441" y2="303.349" gradientUnits="userSpaceOnUse">
<stop stop-color="#4C9AFF"/>
<stop offset="1" stop-color="#0065FF"/>
</linearGradient>
<linearGradient id="paint4_linear" x1="580.461" y1="333.039" x2="527.521" y2="333.039" gradientUnits="userSpaceOnUse">
<stop stop-color="#0052CC"/>
<stop offset="1" stop-color="#2684FF"/>
</linearGradient>
<linearGradient id="paint5_linear" x1="131.76" y1="355.699" x2="483.39" y2="4.06869" gradientUnits="userSpaceOnUse">
<stop stop-color="#4C9AFF"/>
<stop offset="0.98" stop-color="#DEEBFF" stop-opacity="0.7"/>
</linearGradient>
<linearGradient id="paint6_linear" x1="139.37" y1="24.5086" x2="627.94" y2="59.5586" gradientUnits="userSpaceOnUse">
<stop offset="0.04" stop-color="#B2D4FF"/>
<stop offset="0.3" stop-color="#DEEBFF"/>
</linearGradient>
<linearGradient id="paint7_linear" x1="188.18" y1="174.989" x2="508.13" y2="174.989" gradientUnits="userSpaceOnUse">
<stop stop-color="#0052CC"/>
<stop offset="1" stop-color="#0065FF"/>
</linearGradient>
<linearGradient id="paint8_linear" x1="61017.4" y1="24353.5" x2="163391" y2="24353.5" gradientUnits="userSpaceOnUse">
<stop stop-color="#0052CC"/>
<stop offset="1" stop-color="#0065FF"/>
</linearGradient>
<linearGradient id="paint9_linear" x1="61016.3" y1="17887.5" x2="163389" y2="17887.5" gradientUnits="userSpaceOnUse">
<stop stop-color="#0052CC"/>
<stop offset="1" stop-color="#0065FF"/>
</linearGradient>
<linearGradient id="paint10_linear" x1="398.751" y1="218.779" x2="398.751" y2="130.279" gradientUnits="userSpaceOnUse">
<stop stop-color="#FFAB00" stop-opacity="0"/>
<stop offset="0.17" stop-color="#FFAD06" stop-opacity="0.17"/>
<stop offset="0.4" stop-color="#FFB518" stop-opacity="0.4"/>
<stop offset="0.67" stop-color="#FEC035" stop-opacity="0.67"/>
<stop offset="0.97" stop-color="#FED05E" stop-opacity="0.97"/>
<stop offset="1" stop-color="#FED263"/>
</linearGradient>
<linearGradient id="paint11_linear" x1="409.27" y1="112.979" x2="379.37" y2="126.919" gradientUnits="userSpaceOnUse">
<stop stop-color="#FFD740"/>
<stop offset="1" stop-color="#FFAB00"/>
</linearGradient>
<linearGradient id="paint12_linear" x1="10527.6" y1="28966.7" x2="10527.6" y2="36798.1" gradientUnits="userSpaceOnUse">
<stop stop-color="#FFAB00" stop-opacity="0"/>
<stop offset="0.17" stop-color="#FFAD06" stop-opacity="0.17"/>
<stop offset="0.4" stop-color="#FFB518" stop-opacity="0.4"/>
<stop offset="0.67" stop-color="#FEC035" stop-opacity="0.67"/>
<stop offset="0.97" stop-color="#FED05E" stop-opacity="0.97"/>
<stop offset="1" stop-color="#FED263"/>
</linearGradient>
<linearGradient id="paint13_linear" x1="16413.5" y1="1925.88" x2="15316.3" y2="2322.98" gradientUnits="userSpaceOnUse">
<stop stop-color="#FFD740"/>
<stop offset="1" stop-color="#FFAB00"/>
</linearGradient>
<linearGradient id="paint14_linear" x1="7461.01" y1="5888.67" x2="6752.23" y2="6191.79" gradientUnits="userSpaceOnUse">
<stop stop-color="#FFD740"/>
<stop offset="1" stop-color="#FFAB00"/>
</linearGradient>
<linearGradient id="paint15_linear" x1="292.09" y1="305.329" x2="329.46" y2="305.329" gradientUnits="userSpaceOnUse">
<stop stop-color="#FFE380"/>
<stop offset="1" stop-color="#FFAB00"/>
</linearGradient>
<linearGradient id="paint16_linear" x1="471.33" y1="188.889" x2="481.4" y2="188.889" gradientUnits="userSpaceOnUse">
<stop stop-color="#72594B"/>
<stop offset="0.56" stop-color="#8C715D"/>
</linearGradient>
<linearGradient id="paint17_linear" x1="458.49" y1="207.739" x2="468.92" y2="192.769" gradientUnits="userSpaceOnUse">
<stop stop-color="#00C7E5"/>
<stop offset="1" stop-color="#B3F5FF"/>
</linearGradient>
<linearGradient id="paint18_linear" x1="38083.8" y1="9869.08" x2="38083.8" y2="11383.4" gradientUnits="userSpaceOnUse">
<stop stop-color="#00C7E5"/>
<stop offset="1" stop-color="#B3F5FF"/>
</linearGradient>
<linearGradient id="paint19_linear" x1="474.83" y1="192.589" x2="481.42" y2="192.589" gradientUnits="userSpaceOnUse">
<stop stop-color="#00C7E5"/>
<stop offset="1" stop-color="#79E2F2"/>
</linearGradient>
<linearGradient id="paint20_linear" x1="2469.41" y1="2285.14" x2="2487.3" y2="2285.14" gradientUnits="userSpaceOnUse">
<stop stop-color="#00C7E5"/>
<stop offset="1" stop-color="#79E2F2"/>
</linearGradient>
<linearGradient id="paint21_linear" x1="19221.2" y1="6899.6" x2="19009.3" y2="7047.81" gradientUnits="userSpaceOnUse">
<stop stop-color="#00C7E5"/>
<stop offset="1" stop-color="#B3F5FF"/>
</linearGradient>
<linearGradient id="paint22_linear" x1="-23771.2" y1="122531" x2="-28395.2" y2="122531" gradientUnits="userSpaceOnUse">
<stop stop-color="#091E42"/>
<stop offset="0.97" stop-color="#091E42" stop-opacity="0.03"/>
<stop offset="1" stop-color="#091E42" stop-opacity="0"/>
</linearGradient>
<linearGradient id="paint23_linear" x1="98.93" y1="16.5986" x2="292.4" y2="33.1786" gradientUnits="userSpaceOnUse">
<stop offset="0.24" stop-color="#B2D4FF"/>
<stop offset="0.79" stop-color="#4C9AFF" stop-opacity="0.5"/>
</linearGradient>
</defs>
</svg>
