<svg width="251" height="163" viewBox="0 0 251 163" fill="none" xmlns="http://www.w3.org/2000/svg">
<g clip-path="url(#clip0)">
<rect width="251" height="161.485" transform="translate(0 0.722168)" fill="white" fill-opacity="0.01"/>
<path d="M200.161 97.7132C202.183 97.7132 203.821 96.0733 203.821 94.0505C203.821 92.0276 202.183 90.3877 200.161 90.3877C198.14 90.3877 196.502 92.0276 196.502 94.0505C196.502 96.0733 198.14 97.7132 200.161 97.7132Z" fill="#42526E"/>
<path opacity="0.6" d="M1.97327 148.202H42.0486C44.1654 148.202 46.1745 149.028 47.6814 150.537L52.3096 155.169C53.8165 156.677 55.8256 157.503 57.9424 157.503H114.45C116.566 157.503 118.576 158.329 120.082 159.837C121.589 161.345 123.598 162.171 125.715 162.171H174.294C176.41 162.171 178.42 161.345 179.926 159.837L181.003 158.76C182.51 157.252 184.519 156.426 186.636 156.426H209.92C212.037 156.426 214.046 155.6 215.553 154.092L219.607 150.034C221.114 148.526 223.123 147.7 225.24 147.7H247.125C248.094 147.7 248.847 146.946 248.847 145.976C248.847 145.007 248.094 144.252 247.125 144.252H1.97327C0.896941 144.252 0 145.15 0 146.227C0 147.341 0.896941 148.202 1.97327 148.202Z" fill="url(#paint0_linear)"/>
<path opacity="0.6" d="M4.12561 146.048H44.2009C46.3177 146.048 48.3269 146.874 49.8337 148.382L54.462 153.014C55.9688 154.522 57.978 155.348 60.0947 155.348H116.602C118.719 155.348 120.728 156.174 122.235 157.682C123.742 159.191 125.751 160.016 127.868 160.016H176.446C178.563 160.016 180.572 159.191 182.079 157.682L183.155 156.605C184.662 155.097 186.671 154.271 188.788 154.271H212.072C214.189 154.271 216.198 153.445 217.705 151.937L221.759 147.879C223.266 146.371 225.275 145.545 227.392 145.545H249.278C250.246 145.545 251 144.791 251 143.821C251 142.852 250.246 142.098 249.278 142.098H4.12561C3.04928 142.098 2.15234 142.995 2.15234 144.073C2.15234 145.186 3.04928 146.048 4.12561 146.048Z" fill="url(#paint1_linear)"/>
<path d="M171.531 102.884C172.069 103.315 172.679 103.279 172.858 103.279C173.361 103.244 173.396 103.028 174.293 102.741C175.154 102.454 175.406 102.561 175.657 102.238C175.908 101.879 175.908 101.304 175.657 101.053C175.477 100.874 175.226 100.945 174.76 100.909C173.863 100.909 173.791 100.694 173.074 100.658C172.894 100.658 171.172 100.586 170.849 101.34C170.634 101.879 171.1 102.561 171.531 102.884Z" fill="#CF9E76"/>
<path d="M195.354 99.8322C194.17 100.874 191.623 102.669 186.887 103.71C182.941 103.387 178.958 103.1 175.012 102.777C175.012 102.454 175.012 102.094 175.048 101.699C175.083 101.053 175.191 100.514 175.335 100.048C178.922 100.084 182.51 100.155 186.098 100.191C188.43 99.2935 190.224 98.324 191.48 97.5699C193.202 96.5285 194.421 95.5589 195.785 95.918C195.857 95.9539 197.005 96.2771 197.148 97.1749C197.256 98.1444 196.072 99.1858 195.354 99.8322Z" fill="url(#paint2_linear)"/>
<path d="M193.451 96.2772C193.595 96.2413 193.953 96.1695 194.169 95.8822C194.348 95.6667 194.348 95.3794 194.348 95.0922C194.348 94.6612 194.312 94.0508 194.169 93.3326C195.424 93.153 196.644 92.9735 197.9 92.7939C197.936 93.0453 197.972 93.3685 198.008 93.7276C198.115 94.5535 198.151 94.769 198.331 95.0203C198.51 95.3076 198.761 95.4513 198.94 95.5231C198.438 95.8104 197.649 96.1695 196.68 96.349C195.281 96.6363 194.133 96.4567 193.451 96.2772Z" fill="#A27F68"/>
<path d="M193.129 96.8158C193.165 96.6362 193.272 96.4208 193.452 96.2771C193.811 96.0258 194.277 96.1694 194.385 96.2053C194.959 96.3489 196.43 96.2412 200.125 95.3794C200.197 96.0976 200.233 96.8158 200.304 97.534L194.815 100.048C194.385 99.4372 193.954 98.8267 193.524 98.2162C193.416 97.7494 193.272 97.2826 193.129 96.8158Z" fill="#A27F68"/>
<path d="M198.008 93.7993C197.434 93.943 195.245 94.4457 193.774 94.2662C193.487 94.2303 192.806 94.1225 192.662 93.7275C192.59 93.548 192.662 93.4403 192.555 93.0812C192.483 92.8298 192.411 92.7939 192.375 92.5784C192.339 92.3989 192.303 92.1475 192.375 91.8243C192.268 91.7884 192.16 91.7525 192.016 91.6807C191.837 91.6089 191.765 91.573 191.729 91.5011C191.622 91.2857 192.016 90.9984 192.124 90.4957C192.16 90.4239 192.16 90.3161 192.16 90.2443C192.196 89.7416 192.232 89.2389 192.375 88.7361C192.375 88.7002 192.375 88.7002 192.411 88.6643C192.555 88.2334 192.734 87.8743 192.877 87.5511C193.416 86.6175 194.313 85.9711 195.353 85.7557C196.501 85.5402 197.685 85.8634 198.546 86.6534L198.725 86.797C198.905 86.9766 199.048 87.192 199.156 87.4075C199.551 88.7361 199.12 90.6752 198.259 91.7166L198.116 91.8602C198.116 92.5425 198.08 93.1889 198.008 93.7993Z" fill="#B5917C"/>
<path d="M199.982 89.67C199.731 91.1064 199.085 91.6091 199.121 92.9018C199.157 93.9791 199.695 94.8409 200.125 95.3437C199.695 95.5591 198.296 96.1337 196.86 95.6309C194.959 94.9487 193.667 92.6146 194.062 89.9573C193.057 89.3827 192.483 88.485 192.591 87.6591C192.699 86.9409 193.273 86.51 193.56 86.2945C194.887 85.3609 197.47 84.894 199.013 86.51C199.802 87.3359 200.197 88.5927 199.982 89.67Z" fill="#42526E"/>
<path d="M192.734 87.2637C193.165 85.181 195.246 83.8523 197.327 84.2832C199.408 84.7142 200.735 86.7969 200.305 88.8796L192.734 87.2637Z" fill="#FFAB00"/>
<path d="M201.062 88.5356L192.217 86.6606L192.016 87.6092L200.861 89.4841L201.062 88.5356Z" fill="#FF991F"/>
<path d="M208.269 143.139C208.161 143.57 208.018 144.144 208.018 144.827C208.018 145.437 208.053 145.94 208.161 146.335C208.448 146.443 208.699 146.586 208.986 146.694C209.058 146.586 209.094 146.478 209.166 146.371C209.273 146.55 209.345 146.73 209.453 146.945C209.811 147.161 210.35 147.412 210.995 147.628C211.354 147.735 211.785 147.843 212.287 147.879C213.005 147.915 214.045 147.735 214.117 147.376C214.153 147.161 213.794 147.017 213.005 146.407C212.897 146.299 212.179 145.76 211.641 145.006C211.39 144.647 211.031 144.072 210.744 143.282L210.601 142.852L208.269 143.139Z" fill="#172B4D"/>
<path d="M198.116 142.815C198.08 143.354 197.937 144 197.506 144.539C196.322 146.011 193.632 145.832 193.596 146.442C193.596 146.478 193.596 146.586 193.703 146.658C196.717 146.909 197.829 146.801 198.188 146.55C198.26 146.514 198.547 146.299 198.941 146.37C199.157 146.406 199.336 146.514 199.444 146.622C200.125 146.622 200.771 146.622 201.453 146.622C201.489 145.975 201.489 145.221 201.381 144.36C201.345 143.929 201.274 143.498 201.166 143.139C200.125 143.067 199.121 142.959 198.116 142.815Z" fill="#172B4D"/>
<path d="M205.578 110.964V113.298L201.094 111.287L205.578 110.964Z" fill="url(#paint3_linear)"/>
<path d="M196.215 110.21C196.143 111.179 196.072 112.652 196 114.375C195.856 120.372 196.466 124.394 196.861 130.319C197.112 133.766 197.435 138.147 197.866 143.282C199.014 143.282 200.162 143.282 201.346 143.318C201.31 142.457 201.274 141.092 201.346 139.44C201.489 135.921 201.956 134.556 201.884 131.899C201.848 130.858 201.74 129.314 201.31 127.446C201.92 124.322 202.566 121.198 203.175 118.074C203.498 117.966 205.83 117.284 206.871 114.95C207.732 113.047 207.445 110.749 206.082 109.025C202.781 109.42 199.48 109.815 196.215 110.21Z" fill="url(#paint4_linear)"/>
<path d="M205.436 110.353L206.404 110.102L207.229 109.958L206.404 111.215L205.436 110.353Z" fill="#B5917C"/>
<path d="M198.332 110.174C199.014 112.005 199.695 113.873 200.377 115.776C201.776 119.618 203.068 123.425 204.288 127.195C205.292 132.725 206.297 138.255 207.301 143.821C208.45 143.642 209.598 143.462 210.746 143.282C210.208 137.537 209.705 131.791 209.167 126.082C209.024 124.286 208.162 113.047 207.84 111.467C207.768 111.179 207.696 110.928 207.696 110.928C207.624 110.641 207.517 110.318 207.337 109.959C206.979 109.169 206.512 108.63 206.117 108.235C203.57 108.845 200.951 109.528 198.332 110.174Z" fill="url(#paint5_linear)"/>
<path d="M202.565 96.9592C203.211 97.8569 203.246 98.7906 203.282 102.417C203.282 103.136 203.282 104.213 203.282 105.577C203.82 106.08 204.359 106.583 204.933 107.122C205.327 107.481 205.758 107.84 206.152 108.199C205.291 109.204 203.318 111.143 200.197 112.113C198.546 112.616 197.075 112.723 195.999 112.688C195.533 110.605 195.102 108.558 194.636 106.475C194.313 106.224 193.882 105.865 193.452 105.398C192.914 104.823 192.555 104.392 192.34 103.746C192.232 103.423 192.232 102.992 192.268 102.13C192.268 101.52 192.304 101.017 192.34 100.658C191.514 100.801 191.945 96.4565 193.595 96.1692C193.667 96.3846 194.349 98.0365 195.64 98.1801C196.286 98.2519 196.788 97.9646 197.65 97.426C198.295 97.031 199.192 96.3846 200.125 95.3433C201.596 95.8101 202.242 96.5283 202.565 96.9592Z" fill="#2684FF"/>
<path opacity="0.6" d="M138.13 150.106H69.6035L97.4087 45.6094H165.935L138.13 150.106Z" fill="url(#paint6_linear)"/>
<path opacity="0.6" d="M129.878 150.106H61.3516L89.1567 45.6094H157.683L129.878 150.106Z" fill="url(#paint7_linear)"/>
<path opacity="0.6" d="M146.022 150.106H77.4961L105.301 45.6094H173.828L146.022 150.106Z" fill="url(#paint8_linear)"/>
<g opacity="0.2">
<path opacity="0.2" d="M122.45 52.432C122.415 52.432 122.343 52.432 122.307 52.3961C122.02 52.3243 121.841 52.037 121.912 51.7497L124.388 42.4133C124.46 42.126 124.747 41.9465 125.034 42.0183C125.321 42.0901 125.5 42.3774 125.428 42.6646L122.953 52.0011C122.917 52.2884 122.702 52.432 122.45 52.432Z" fill="#008DA6"/>
</g>
<g opacity="0.2">
<path opacity="0.2" d="M111.472 65.3593C111.436 65.3593 111.364 65.3593 111.328 65.3234C111.041 65.2516 110.862 64.9643 110.934 64.677L116.387 44.2087C116.459 43.9214 116.746 43.7419 117.033 43.8137C117.32 43.8855 117.499 44.1728 117.428 44.4601L111.974 64.9284C111.938 65.2157 111.723 65.3593 111.472 65.3593Z" fill="#008DA6"/>
</g>
<g opacity="0.2">
<path opacity="0.2" d="M151.476 55.3046C151.44 55.3046 151.368 55.3046 151.332 55.2687C151.045 55.1968 150.866 54.9096 150.938 54.6223L153.413 45.2858C153.485 44.9986 153.772 44.819 154.059 44.8908C154.346 44.9627 154.525 45.2499 154.454 45.5372L151.978 54.8737C151.906 55.1609 151.691 55.3046 151.476 55.3046Z" fill="#008DA6"/>
</g>
<g opacity="0.2">
<path opacity="0.2" d="M96.5833 97.3187C96.5474 97.3187 96.4756 97.3187 96.4398 97.2828C96.1527 97.211 95.9734 96.9237 96.0451 96.6364L98.5207 87.3C98.5924 87.0127 98.8795 86.8332 99.1665 86.905C99.4535 86.9768 99.6329 87.2641 99.5611 87.5514L97.0856 96.8878C97.0497 97.1751 96.8344 97.3187 96.5833 97.3187Z" fill="#008DA6"/>
</g>
<g opacity="0.2">
<path opacity="0.2" d="M98.7356 69.4892C98.6998 69.4892 98.628 69.4892 98.5921 69.4533C98.3051 69.3815 98.1257 69.0942 98.1975 68.8069L103.651 48.3386C103.723 48.0513 104.01 47.8718 104.297 47.9436C104.584 48.0154 104.763 48.3027 104.691 48.5899L99.2379 69.0583C99.1662 69.3456 98.9509 69.4892 98.7356 69.4892Z" fill="#008DA6"/>
</g>
<g opacity="0.2">
<path opacity="0.2" d="M100.566 83.6733C100.53 83.6733 100.458 83.6733 100.422 83.6374C100.135 83.5656 99.9558 83.2783 100.028 82.991L105.481 62.5227C105.553 62.2354 105.84 62.0558 106.127 62.1277C106.414 62.1995 106.593 62.4867 106.521 62.774L101.068 83.2424C101.032 83.5297 100.817 83.6733 100.566 83.6733Z" fill="#008DA6"/>
</g>
<g opacity="0.2">
<path opacity="0.2" d="M111.437 94.0869C111.401 94.0869 111.329 94.0869 111.293 94.051C111.006 93.9791 110.827 93.6919 110.899 93.4046L116.352 72.9362C116.424 72.649 116.711 72.4694 116.998 72.5412C117.285 72.613 117.464 72.9003 117.392 73.1876L111.939 93.656C111.903 93.9432 111.688 94.0869 111.437 94.0869Z" fill="#008DA6"/>
</g>
<g opacity="0.2">
<path opacity="0.2" d="M123.636 108.487C123.6 108.487 123.528 108.487 123.493 108.451C123.205 108.379 123.026 108.092 123.098 107.804L128.551 87.3361C128.623 87.0489 128.91 86.8693 129.197 86.9411C129.484 87.0129 129.663 87.3002 129.592 87.5875L124.138 108.056C124.102 108.307 123.887 108.487 123.636 108.487Z" fill="#008DA6"/>
</g>
<g opacity="0.2">
<path opacity="0.2" d="M118.577 67.0472C118.542 67.0472 118.47 67.0472 118.434 67.0113C118.147 66.9395 117.968 66.6522 118.039 66.365L120.515 57.0285C120.587 56.7412 120.874 56.5617 121.161 56.6335C121.448 56.7053 121.627 56.9926 121.555 57.2799L119.08 66.6163C119.008 66.9036 118.793 67.0472 118.577 67.0472Z" fill="#008DA6"/>
</g>
<g opacity="0.2">
<path opacity="0.2" d="M106.091 114.196C106.055 114.196 105.983 114.196 105.948 114.16C105.661 114.088 105.481 113.801 105.553 113.514L108.028 104.177C108.1 103.89 108.387 103.711 108.674 103.782C108.961 103.854 109.141 104.142 109.069 104.429L106.593 113.765C106.558 114.053 106.342 114.196 106.091 114.196Z" fill="#008DA6"/>
</g>
<path d="M197.112 45.6088H112.189C115.024 45.6088 117.32 43.3106 117.32 40.4738C117.32 37.6369 119.616 35.3387 122.45 35.3387C122.953 35.3387 123.455 35.4105 123.921 35.5542C123.921 35.4824 123.921 35.4105 123.921 35.3387C123.921 29.665 128.514 25.0686 134.182 25.0686C134.792 25.0686 135.402 25.1405 136.012 25.2123C137.017 16.0554 144.766 8.94531 154.202 8.94531C163.853 8.94531 171.782 16.4504 172.464 25.9664C173.755 25.3918 175.155 25.0686 176.662 25.0686C182.33 25.0686 186.923 29.665 186.923 35.3387C186.923 41.0124 191.443 45.6088 197.112 45.6088Z" fill="#344563"/>
<path d="M146.131 148.202L103.831 105.901H73.0478L30.748 148.202H146.131Z" fill="#C1C7D0"/>
<path d="M89.874 110.174L89.0488 111L126.254 148.202H127.868L89.874 110.174Z" fill="#A5ADBA"/>
<path d="M84.4932 115.56L83.668 116.386L115.491 148.202H117.142L84.4932 115.56Z" fill="#A5ADBA"/>
<path d="M79.1116 120.911L78.3223 121.737L104.764 148.202H106.414L79.1116 120.911Z" fill="#A5ADBA"/>
<path d="M73.7646 126.297L72.9395 127.123L93.9996 148.202H95.65L73.7646 126.297Z" fill="#A5ADBA"/>
<path d="M68.3838 131.684L67.5586 132.51L83.273 148.202H84.9234L68.3838 131.684Z" fill="#A5ADBA"/>
<path d="M63.001 137.07L62.1758 137.86L72.5085 148.202H74.1589L63.001 137.07Z" fill="#A5ADBA"/>
<path d="M57.6194 142.42L56.8301 143.246L61.7812 148.202H63.4316L57.6194 142.42Z" fill="#A5ADBA"/>
<path d="M52.6689 148.202L52.2743 147.807L51.8438 148.202H52.6689Z" fill="#A5ADBA"/>
<path d="M137.159 36.9189L130.989 60.5473L128.656 57.1359L141.321 57.2437L145.017 57.2796L143.617 60.4037L133.356 83.3139L139.025 58.8955L141.321 62.0555L128.656 62.1633L124.566 62.1992L126.289 58.7519L137.159 36.9189Z" fill="white"/>
<path d="M79.541 148.202L149.323 78.394L219.105 148.202H79.541Z" fill="url(#paint9_linear)"/>
<path d="M149.394 97.0874L148.582 97.8999L198.813 148.175L199.625 147.363L149.394 97.0874Z" fill="#C1C7D0"/>
<path d="M144.013 102.454L143.188 103.28L188.106 148.202H189.721L144.013 102.454Z" fill="#C1C7D0"/>
<path d="M138.667 107.84L137.842 108.666L177.343 148.202H178.993L138.667 107.84Z" fill="#C1C7D0"/>
<path d="M133.284 113.226L132.459 114.052L166.615 148.202H168.229L133.284 113.226Z" fill="#C1C7D0"/>
<path d="M127.903 118.612L127.078 119.402L155.852 148.202H157.502L127.903 118.612Z" fill="#C1C7D0"/>
<path d="M122.522 123.963L121.732 124.789L145.125 148.202H146.775L122.522 123.963Z" fill="#C1C7D0"/>
<path d="M117.175 129.35L116.35 130.176L134.36 148.202H136.011L117.175 129.35Z" fill="#C1C7D0"/>
<path d="M111.794 134.736L110.969 135.562L123.634 148.202H125.284L111.794 134.736Z" fill="#C1C7D0"/>
<path d="M88.4384 121.198L103.83 105.793H73.0469L88.4384 121.198Z" fill="url(#paint10_linear)"/>
<path d="M160.982 33.0406C160.982 39.9711 166.615 45.6089 173.539 45.6089H69.4941C72.9743 45.6089 75.7727 42.808 75.7727 39.3248C75.7727 35.8416 78.5712 33.0406 82.0513 33.0406C82.6612 33.0406 83.2712 33.1125 83.8452 33.292C83.8452 33.2202 83.8452 33.1125 83.8452 33.0406C83.8452 26.1101 89.478 20.4723 96.4024 20.4723C97.1558 20.4723 97.9092 20.5442 98.6268 20.6519C99.8825 9.44815 109.39 0.722168 120.943 0.722168C132.782 0.722168 142.505 9.91498 143.294 21.5855C144.873 20.8673 146.595 20.4723 148.425 20.4723C155.385 20.4723 160.982 26.1101 160.982 33.0406Z" fill="url(#paint11_linear)"/>
<path opacity="0.6" d="M121.158 28.552C120.082 28.552 119.185 27.6902 119.113 26.6129L118.467 16.1633C118.36 14.6192 119.615 13.2905 121.158 13.2905C122.701 13.2905 123.921 14.5833 123.849 16.1633L123.203 26.6488C123.167 27.7261 122.27 28.552 121.158 28.552Z" fill="#B3BAC5"/>
<path opacity="0.6" d="M121.339 35.554C122.646 35.554 123.707 34.4929 123.707 33.184C123.707 31.8751 122.646 30.814 121.339 30.814C120.031 30.814 118.971 31.8751 118.971 33.184C118.971 34.4929 120.031 35.554 121.339 35.554Z" fill="#B3BAC5"/>
<path opacity="0.15" d="M88.5109 121.019L75.2362 133.587L61.3516 117.608L73.0835 105.937L88.5109 121.019Z" fill="url(#paint12_linear)"/>
<path d="M115.168 145.473H103.149C102 145.473 101.104 146.407 101.104 147.52V148.202H117.248V147.52C117.213 146.407 116.316 145.473 115.168 145.473Z" fill="#FF991F"/>
<path d="M110.252 127.806H108.028C107.489 127.806 107.023 128.201 106.915 128.775L103.938 146.048H114.378L111.4 128.775C111.257 128.201 110.79 127.806 110.252 127.806Z" fill="#FF991F"/>
<path d="M113.803 131.217H104.834V133.587H113.803V131.217Z" fill="#FFC400"/>
<path d="M114.701 140.876H103.256V143.246H114.701V140.876Z" fill="#FFC400"/>
<path d="M233.205 145.473H221.186C220.038 145.473 219.141 146.407 219.141 147.52V148.202H235.286V147.52C235.25 146.407 234.353 145.473 233.205 145.473Z" fill="#FF991F"/>
<path d="M228.289 127.806H226.065C225.526 127.806 225.06 128.201 224.952 128.775L221.975 146.048H232.415L229.437 128.775C229.294 128.201 228.827 127.806 228.289 127.806Z" fill="#FF991F"/>
<path d="M231.84 131.217H222.871V133.587H231.84V131.217Z" fill="#FFC400"/>
<path d="M232.738 140.876H221.293V143.246H232.738V140.876Z" fill="#FFC400"/>
<path d="M184.806 108.343C184.232 108.307 183.694 108.307 183.299 108.343C182.94 108.379 182.474 108.415 181.9 108.558C181.361 108.702 180.967 108.81 180.572 109.133C179.89 109.636 179.496 110.426 179.639 110.569C179.783 110.713 180.465 110.246 180.536 110.354C180.608 110.426 180.07 110.785 179.711 111.503C179.568 111.826 179.424 112.077 179.532 112.293C179.675 112.58 180.034 112.508 180.716 112.903C181.146 113.155 181.11 113.262 181.29 113.262C181.649 113.298 181.864 112.867 182.797 111.718C183.586 110.713 183.801 110.533 184.124 110.39C184.519 110.246 184.734 110.282 184.913 110.102C185.272 109.743 185.057 108.989 184.806 108.343Z" fill="#CF9E76"/>
<path d="M202.028 100.084C201.346 101.52 199.768 104.177 195.857 107.014C192.126 108.307 188.394 109.6 184.627 110.928C184.484 110.641 184.34 110.318 184.233 109.959C184.017 109.348 183.91 108.81 183.838 108.343C187.139 106.942 190.439 105.578 193.704 104.177C195.462 102.418 196.718 100.802 197.579 99.6168C198.727 97.965 199.481 96.5645 200.844 96.385C200.916 96.385 202.1 96.2413 202.566 96.9954C203.068 97.8213 202.422 99.2577 202.028 100.084Z" fill="url(#paint13_linear)"/>
<path d="M29.3843 115.381C31.0884 115.381 32.4698 113.998 32.4698 112.293C32.4698 110.587 31.0884 109.205 29.3843 109.205C27.6802 109.205 26.2988 110.587 26.2988 112.293C26.2988 113.998 27.6802 115.381 29.3843 115.381Z" fill="#253858"/>
<path d="M33.6884 118.685C33.6884 118.541 33.6525 118.361 33.5808 118.182C33.509 117.966 33.4014 117.787 33.2937 117.643C33.222 117.141 33.1861 116.315 33.5449 115.381C33.6525 115.094 33.796 114.806 33.9037 114.591L31.5716 113.442L30.2441 115.237L31.1052 116.063C31.6434 116.602 32.1098 117.212 32.5403 117.823C32.6121 117.931 32.7197 118.038 32.8273 118.146C33.1502 118.433 33.509 118.613 33.6884 118.685Z" fill="#F0D0B4"/>
<path d="M31.6444 113.585L34.4428 114.95C34.8375 115.129 35.268 115.165 35.6627 115.022C36.0214 114.914 36.3085 114.663 36.5237 114.375L37.3848 113.083L37.7794 113.298C37.923 113.37 38.1382 113.262 38.1023 113.083L37.923 111.898L38.0665 111.251C38.2459 110.425 38.2459 109.528 38.0665 108.702C37.8153 107.588 37.1336 106.619 36.1291 106.08C35.0527 105.47 33.7253 105.434 32.6131 105.972L32.3978 106.08C32.1467 106.188 31.9314 106.367 31.752 106.547C30.7474 107.66 30.4963 109.24 31.0344 110.605L31.3573 111.431L31.6444 113.585Z" fill="#F0D0B4"/>
<path d="M30.2457 108.558C30.2099 109.564 30.7839 110.031 31.1786 112.042C31.3221 112.724 31.3579 113.298 31.3938 113.657C32.1114 113.083 32.5419 112.472 32.7931 112.077C33.0442 111.647 33.2236 111.359 33.3312 110.928C33.5465 109.995 33.2595 109.348 33.6541 109.025C33.69 108.989 33.8694 108.882 34.0129 108.917C34.4793 109.061 34.1564 110.246 34.6946 110.677C35.2327 111.108 36.3449 110.533 36.8831 110.21C37.5289 109.851 38.1747 109.528 38.3182 108.882C38.4976 108.163 37.9953 107.481 37.7442 107.194C36.7037 105.829 34.1923 104.536 32.1473 105.686C31.2144 106.224 30.3175 107.337 30.2457 108.558Z" fill="#253858"/>
<path d="M25.4013 129.601C25.2219 131.396 25.1501 133.73 25.6165 136.388C25.8677 137.752 26.1906 138.973 26.5852 140.014L28.0921 139.871C28.0921 139.368 28.0921 138.542 28.1639 137.537C28.3074 135.598 28.5585 134.844 28.6303 133.371C28.6661 132.653 28.6661 131.54 28.4509 130.211C28.8814 129.349 29.3119 128.488 29.7066 127.554C30.9623 124.825 32.0745 122.132 33.0073 119.582C33.115 119.331 32.9715 119.043 32.7203 118.936L29.7066 117.858L25.4013 129.601Z" fill="#0049B0"/>
<path d="M11.2656 145.832C15.1404 146.586 19.0152 147.305 22.89 148.059C23.2129 148.059 24.6839 148.095 25.6526 147.017C26.2984 146.299 26.4419 145.473 26.5495 144.935C26.7289 143.75 26.4419 142.6 26.2984 141.99C26.2625 141.846 26.2266 141.703 26.1907 141.631C25.0785 137.86 24.5045 136.532 23.9663 134.521C23.0694 131.325 23.4999 131.504 22.8541 129.817C22.1724 128.057 20.845 125.867 18.0824 123.748C17.6518 124.251 17.1137 124.969 16.5755 125.903C16.1809 126.621 15.6786 127.519 15.4633 128.668C15.3557 129.278 15.2839 130.104 15.5351 131.648C15.6786 132.402 16.0732 134.629 17.7236 137.825C18.2976 138.938 19.1228 140.374 20.3068 141.99C18.8717 141.487 17.3289 141.02 15.6786 140.59C14.4587 140.266 13.2389 139.943 12.0908 139.692C11.8397 141.739 11.5526 143.785 11.2656 145.832Z" fill="url(#paint14_linear)"/>
<path d="M18.118 123.748C17.6875 124.215 17.1135 124.933 16.6112 125.903C15.9295 127.159 15.1043 128.739 15.499 130.643C15.5707 130.966 15.8219 132.833 17.4723 133.767C17.9745 134.054 18.4051 134.305 18.9432 134.521C18.9432 134.521 19.9837 134.952 21.2394 135.239C23.8585 135.814 27.805 135.526 28.0562 135.49C27.1951 136.173 26.2981 136.927 25.3653 137.789C24.1455 138.938 23.105 140.087 22.2081 141.128C23.8943 142.313 25.6165 143.462 27.3027 144.647C28.5943 143.39 29.9577 141.99 31.321 140.41C32.9355 138.579 34.2989 136.783 35.4828 135.131C35.5905 134.808 35.8057 134.054 35.5546 133.192C35.124 131.612 33.5454 131.038 33.4019 131.002C31.5004 130.391 29.5989 129.781 27.6974 129.134C26.2981 128.668 24.863 128.237 23.4638 127.77C22.4592 127.124 21.4188 126.405 20.3066 125.544C19.5173 124.969 18.7997 124.323 18.118 123.748Z" fill="#0065FF"/>
<path d="M31.1068 125.651L23.6084 127.877C22.7832 127.41 21.8863 126.836 20.9535 126.118C19.8413 125.292 18.9084 124.466 18.1191 123.676C20.5588 121.198 22.6397 119.51 24.039 118.433C25.0794 117.643 25.6893 117.248 26.945 116.458C26.945 116.458 29.1336 115.094 30.3893 114.77C30.8916 114.663 31.3939 114.914 31.6091 115.381L32.9725 118.541C33.116 118.9 33.1877 119.295 33.116 119.654L32.5061 123.963C32.4343 124.574 32.0755 125.112 31.4656 125.435C31.358 125.579 31.2145 125.615 31.1068 125.651Z" fill="#0052CC"/>
<path d="M32.0741 148.022C32.0741 148.022 31.7153 147.197 30.639 146.73C29.6344 146.299 29.0245 146.73 27.7329 146.155C27.3741 146.011 26.5489 145.616 26.513 145.042C26.513 144.755 26.7283 144.503 26.9077 144.324C26.0825 143.749 25.2573 143.175 24.4321 142.6C24.4321 142.6 23.7146 143.354 23.2841 144.898C22.8535 146.442 22.8894 147.987 22.8894 147.987L32.0741 148.022Z" fill="#253858"/>
<path d="M11.9114 141.236C11.5526 141.056 11.0503 140.877 10.4404 140.805C9.68694 140.697 9.07702 140.769 8.64648 140.841C8.64648 142.852 8.68236 144.827 8.68236 146.838C8.68236 146.91 8.61061 147.34 8.93351 147.7C9.18465 147.987 9.50755 148.023 9.5793 148.059C10.5121 148.059 11.4091 148.059 12.3419 148.059C12.306 147.915 12.1984 147.735 12.019 147.52C11.4449 146.838 10.7633 146.945 10.5121 146.371C10.3686 146.084 10.4404 145.725 10.4762 145.617C10.548 145.294 10.6915 145.114 10.835 144.935C10.9427 144.791 11.1579 144.575 11.4449 144.396C11.5885 143.319 11.7678 142.277 11.9114 141.236Z" fill="#253858"/>
<path d="M31.8962 115.345L34.5152 119.044L39.2152 124.286C39.9327 124.179 41.045 124.071 42.4083 124.035C44.9915 123.963 46.1755 124.358 48.7586 124.322C50.0502 124.287 51.1266 124.179 51.88 124.071C51.8441 124.646 51.8082 125.22 51.7365 125.795C49.5121 126.154 47.2877 126.477 45.0632 126.836C45.0632 126.836 41.0808 127.734 38.2106 126.764C34.9458 125.651 32.7213 123.245 31.1068 121.486C30.4969 120.839 30.0664 120.265 29.7435 119.834C29.5641 119.582 28.8107 118.397 29.0977 116.817C29.2053 116.279 29.3847 115.812 29.6 115.453C30.1023 114.591 31.3221 114.555 31.8962 115.345Z" fill="url(#paint15_linear)"/>
<path d="M51.7722 125.543C52.0234 125.723 52.992 126.333 53.9607 126.01C54.4271 125.866 54.7142 125.543 55.1088 125.112C55.647 124.538 55.9699 123.999 56.1493 123.604L58.1584 123.999C58.3019 124.035 58.4813 123.963 58.5531 123.819C58.6966 123.604 58.589 123.353 58.3737 123.281L56.5081 122.563C56.3645 122.491 56.221 122.491 56.0775 122.563L54.2836 123.209L51.7363 124.214L51.7722 125.543Z" fill="#F0D0B4"/>
<path d="M57.5837 123.604L58.5165 124.035C58.6959 124.107 58.8036 124.322 58.7318 124.502C58.6959 124.717 58.4807 124.861 58.2654 124.825L55.8257 124.394L54.3906 125.148L54.57 123.999L56.041 123.281L57.5837 123.604Z" fill="#F0D0B4"/>
<path d="M58.5522 125.507C58.4805 125.687 58.2652 125.795 58.0858 125.723C57.6194 125.507 57.1171 125.292 56.6507 125.112C55.9332 125.076 55.2156 125.076 54.498 125.041L54.6774 124.286L56.9019 124.25L58.4087 125.005C58.5522 125.112 58.624 125.292 58.5522 125.507Z" fill="#F0D0B4"/>
<path d="M57.332 126.369C57.2243 126.477 57.0808 126.477 56.9373 126.405L55.8969 125.615C55.5022 125.507 55.1075 125.435 54.7129 125.328C54.7846 125.112 54.8564 124.933 54.9282 124.717C55.4663 124.825 55.9686 124.933 56.5068 125.04L57.3678 125.938C57.4396 126.082 57.4396 126.261 57.332 126.369Z" fill="#F0D0B4"/>
<path d="M30.2451 108.881C30.0298 106.619 31.7161 104.608 33.9764 104.393C36.2367 104.177 38.2458 105.865 38.4611 108.127L30.2451 108.881Z" fill="#FFAB00"/>
<path d="M39.0748 107.545L29.5 108.426L29.5953 109.463L39.1701 108.581L39.0748 107.545Z" fill="#FF991F"/>
</g>
<defs>
<linearGradient id="paint0_linear" x1="0" y1="153.229" x2="248.855" y2="153.229" gradientUnits="userSpaceOnUse">
<stop stop-color="#79E2F2" stop-opacity="0"/>
<stop offset="1" stop-color="#79E2F2"/>
</linearGradient>
<linearGradient id="paint1_linear" x1="2.15234" y1="151.074" x2="251.007" y2="151.074" gradientUnits="userSpaceOnUse">
<stop stop-color="#79E2F2" stop-opacity="0"/>
<stop offset="1" stop-color="#79E2F2"/>
</linearGradient>
<linearGradient id="paint2_linear" x1="175.04" y1="99.7711" x2="197.12" y2="99.7711" gradientUnits="userSpaceOnUse">
<stop stop-color="#0057D8"/>
<stop offset="0.0570388" stop-color="#045CDC"/>
<stop offset="0.3933" stop-color="#1772EF"/>
<stop offset="0.714" stop-color="#227FFB"/>
<stop offset="1" stop-color="#2684FF"/>
</linearGradient>
<linearGradient id="paint3_linear" x1="203.337" y1="113.291" x2="203.337" y2="110.956" gradientUnits="userSpaceOnUse">
<stop stop-color="#FFC400"/>
<stop offset="1" stop-color="#FF991F"/>
</linearGradient>
<linearGradient id="paint4_linear" x1="203.278" y1="143.202" x2="201.298" y2="109.29" gradientUnits="userSpaceOnUse">
<stop offset="0.5465" stop-color="#0057D8"/>
<stop offset="0.6489" stop-color="#0059DD"/>
<stop offset="0.7696" stop-color="#005EEB"/>
<stop offset="0.8809" stop-color="#0065FF"/>
</linearGradient>
<linearGradient id="paint5_linear" x1="212.329" y1="142.763" x2="201.805" y2="109.08" gradientUnits="userSpaceOnUse">
<stop stop-color="#0057D8"/>
<stop offset="1" stop-color="#0065FF"/>
</linearGradient>
<linearGradient id="paint6_linear" x1="103.858" y1="150.106" x2="103.858" y2="45.6094" gradientUnits="userSpaceOnUse">
<stop offset="0.2586" stop-color="#79E2F2" stop-opacity="0"/>
<stop offset="1" stop-color="#79E2F2"/>
</linearGradient>
<linearGradient id="paint7_linear" x1="95.606" y1="150.106" x2="95.606" y2="45.6094" gradientUnits="userSpaceOnUse">
<stop offset="0.3119" stop-color="#79E2F2" stop-opacity="0"/>
<stop offset="0.9445" stop-color="#79E2F2" stop-opacity="0.9194"/>
<stop offset="1" stop-color="#79E2F2"/>
</linearGradient>
<linearGradient id="paint8_linear" x1="111.751" y1="150.106" x2="111.751" y2="45.6094" gradientUnits="userSpaceOnUse">
<stop offset="0.5028" stop-color="#79E2F2" stop-opacity="0"/>
<stop offset="0.9599" stop-color="#79E2F2" stop-opacity="0.9194"/>
<stop offset="1" stop-color="#79E2F2"/>
</linearGradient>
<linearGradient id="paint9_linear" x1="149.335" y1="148.219" x2="149.335" y2="78.3768" gradientUnits="userSpaceOnUse">
<stop offset="0.126" stop-color="#DFE1E5"/>
<stop offset="0.7465" stop-color="#FAFBFC"/>
</linearGradient>
<linearGradient id="paint10_linear" x1="80.7445" y1="113.489" x2="96.1526" y2="98.0949" gradientUnits="userSpaceOnUse">
<stop stop-color="#DFE1E5"/>
<stop offset="0.3584" stop-color="#E7E9EC"/>
<stop offset="0.8323" stop-color="#FAFBFC"/>
</linearGradient>
<linearGradient id="paint11_linear" x1="94.6642" y1="70.7904" x2="149.336" y2="16.1667" gradientUnits="userSpaceOnUse">
<stop offset="0.5431" stop-color="#5E6C84"/>
<stop offset="0.7013" stop-color="#606E86"/>
<stop offset="0.7881" stop-color="#68768C"/>
<stop offset="0.8576" stop-color="#768296"/>
<stop offset="0.9178" stop-color="#8A94A5"/>
<stop offset="0.9716" stop-color="#A2ABB8"/>
<stop offset="1" stop-color="#B3BAC5"/>
</linearGradient>
<linearGradient id="paint12_linear" x1="68.0394" y1="127.534" x2="80.7663" y2="112.38" gradientUnits="userSpaceOnUse">
<stop offset="0.2586" stop-color="#091E42" stop-opacity="0"/>
<stop offset="1" stop-color="#091E42"/>
</linearGradient>
<linearGradient id="paint13_linear" x1="183.816" y1="103.652" x2="202.749" y2="103.652" gradientUnits="userSpaceOnUse">
<stop stop-color="#0057D8"/>
<stop offset="0.0570388" stop-color="#045CDC"/>
<stop offset="0.3933" stop-color="#1772EF"/>
<stop offset="0.714" stop-color="#227FFB"/>
<stop offset="1" stop-color="#2684FF"/>
</linearGradient>
<linearGradient id="paint14_linear" x1="26.597" y1="135.88" x2="11.251" y2="135.88" gradientUnits="userSpaceOnUse">
<stop stop-color="#0052CC"/>
<stop offset="0.452" stop-color="#0065FF"/>
</linearGradient>
<linearGradient id="paint15_linear" x1="48.4066" y1="116.819" x2="31.9802" y2="124.633" gradientUnits="userSpaceOnUse">
<stop stop-color="#0065FF"/>
<stop offset="1" stop-color="#0052CC"/>
</linearGradient>
<clipPath id="clip0">
<rect width="251" height="161.485" fill="white" transform="translate(0 0.722168)"/>
</clipPath>
</defs>
</svg>
