<svg width="156" height="167" viewBox="0 0 156 167" fill="none" xmlns="http://www.w3.org/2000/svg">
<g clip-path="url(#clip0)">
<rect width="155.306" height="166.737" transform="translate(0.136719)" fill="white" fill-opacity="0.01"/>
<path d="M126.834 54.1085H107.547V44.5377C107.547 30.6154 96.2216 19.2906 82.2994 19.2906C68.3736 19.2906 57.0487 30.6154 57.0487 44.5377V54.1085H37.7617V44.5377C37.7582 19.978 57.7397 0 82.2958 0C106.856 0 126.834 19.978 126.834 44.5377V54.1085Z" fill="url(#paint0_linear)"/>
<path d="M152.127 156.376H12.4053C10.63 156.376 9.19141 154.938 9.19141 153.162V51.8301C9.19141 50.0549 10.63 48.6162 12.4053 48.6162H152.127C153.903 48.6162 155.341 50.0549 155.341 51.8301V153.159C155.341 154.934 153.903 156.376 152.127 156.376Z" fill="url(#paint1_linear)"/>
<path d="M57.173 156.376H12.366C10.612 156.376 9.1875 154.955 9.1875 153.197V51.7908C9.1875 50.0368 10.6084 48.6123 12.366 48.6123H57.1694V156.376H57.173Z" fill="url(#paint2_linear)"/>
<path d="M104.925 122.313C105.064 122.335 105.329 122.349 105.528 122.193C105.776 121.994 105.772 121.644 105.755 121.055C105.744 120.747 105.698 120.067 105.354 119.39C105.305 119.294 105.117 118.919 105.025 118.944C104.996 118.954 104.986 119 104.975 119.039C104.936 119.216 105.003 119.369 105.046 119.464C105.099 119.592 105.166 119.773 105.223 120.017C105.156 119.932 105.042 119.897 104.94 119.932C104.844 119.964 104.78 120.053 104.77 120.152C104.692 120.134 104.578 120.12 104.486 120.177C104.305 120.29 104.351 120.598 104.337 120.846C104.327 121.08 104.38 121.314 104.493 121.523L104.925 122.313Z" fill="#00C7E5"/>
<path d="M116.749 129.329C116.774 129.415 116.813 129.539 116.852 129.694C116.966 130.144 117.037 130.605 117.097 131.888C117.146 132.965 117.097 132.639 117.136 133.185C117.175 133.766 117.235 134.159 117.019 134.588C116.937 134.751 116.845 134.868 116.778 134.942L113.05 138.422C112.731 138.206 112.409 137.993 112.09 137.777C113.291 136.466 114.492 135.151 115.694 133.84L115.091 129.315L115.959 129.085L116.749 129.329Z" fill="#0052CC"/>
<path d="M114.399 134.484C114.017 134.541 113.287 134.626 111.316 134.778C111.221 134.895 111.09 135.073 110.948 135.299C110.434 136.111 110.246 136.855 110.168 137.177C108.832 142.67 108.737 142.858 108.737 142.858C108.549 143.913 108.372 144.984 108.198 146.071C107.858 148.219 107.394 152.283 107.139 154.338C107.188 154.484 107.277 154.611 107.39 154.707C107.39 154.707 107.564 154.856 107.784 154.888C108.29 154.958 109.173 152.294 109.173 152.294C109.899 150.1 110.328 147.205 110.331 146.904C110.338 146.334 110.058 145.859 110.009 145.533C110.586 144.438 111.164 143.339 111.738 142.234C112.185 141.373 112.631 140.515 113.07 139.658L114.399 134.484Z" fill="#00C7E5"/>
<path d="M113.066 139.647C113.055 141.706 113.055 143.789 113.073 145.894C113.094 148.46 113.133 152.01 113.193 154.508C113.243 154.551 113.325 154.608 113.438 154.636C113.484 154.647 113.622 154.678 113.881 154.59C114.331 154.434 114.48 154.228 114.48 154.228C114.682 153.162 115.238 150.518 115.366 148.513C115.507 146.28 115.008 146.44 115.132 144.636C115.319 141.897 116.049 137.999 115.858 136.734C115.826 136.529 115.653 135.724 115.546 135.267C115.514 135.133 115.472 134.98 115.412 134.817C115.341 134.626 115.263 134.459 115.185 134.321C115.093 134.35 114.94 134.392 114.753 134.431C114.59 134.463 114.462 134.474 114.398 134.484L113.066 139.647Z" fill="#00C7E5"/>
<path d="M113.331 124.152C113.182 123.925 112.994 123.581 113.118 123.411C113.225 123.262 113.487 123.365 114.114 123.39C115.021 123.425 115.121 123.269 115.578 123.414C115.716 123.457 116.18 123.606 116.488 124.045C116.924 124.662 116.722 125.441 116.658 125.675C116.41 126.593 115.677 127.061 115.478 127.178C115.315 127.284 115.149 127.387 114.986 127.493C114.522 126.692 114.057 125.895 113.593 125.094L113.331 124.152Z" fill="#172B4D"/>
<path d="M114.932 128.337C114.305 128.337 113.678 128.337 113.051 128.337C113.154 128.096 113.278 127.734 113.32 127.281C113.359 126.838 113.309 126.469 113.256 126.218C113.639 126.2 114.022 126.182 114.404 126.161C114.419 126.228 114.44 126.328 114.472 126.445C114.514 126.604 114.546 126.689 114.596 126.764C114.723 126.941 114.968 126.973 115.099 126.98C115.042 127.433 114.986 127.883 114.932 128.337Z" fill="#F0D0B4"/>
<path d="M115.339 144.637C115.342 144.601 115.342 144.569 115.346 144.53C115.42 143.439 115.583 142.167 115.735 140.937C115.966 139.102 116.185 137.369 116.069 136.579C116.037 136.359 115.856 135.54 115.753 135.094C115.718 134.935 115.668 134.772 115.611 134.619C115.544 134.438 115.463 134.265 115.37 134.095L115.285 133.942L115.119 133.996C114.984 134.038 114.846 134.073 114.708 134.098C114.591 134.12 114.492 134.134 114.424 134.141L114.364 134.148C114.003 134.201 113.294 134.286 111.296 134.438L111.203 134.446L111.147 134.516C111.008 134.687 110.881 134.871 110.764 135.055C110.222 135.916 110.03 136.699 109.956 136.997C108.765 141.897 108.564 142.557 108.535 142.638L108.525 142.656L108.517 142.688C108.439 143.131 108.362 143.581 108.287 144.034C108.886 144.523 109.775 144.665 110.651 144.608C111.072 143.804 111.494 143.003 111.916 142.192C112.227 141.593 112.536 140.997 112.844 140.399C112.84 141.724 112.84 143.053 112.848 144.381C113.645 144.718 114.52 144.782 115.339 144.637Z" fill="url(#paint3_linear)"/>
<path d="M115.243 138.021C115.537 137.649 115.764 137.231 115.859 136.731C115.983 136.061 115.842 135.463 115.753 135.094C115.696 134.85 115.615 134.633 115.611 134.619C115.544 134.438 115.463 134.265 115.37 134.095L115.285 133.942L115.119 133.996C114.984 134.038 114.846 134.073 114.708 134.098C114.591 134.12 114.492 134.134 114.424 134.141L114.364 134.148C114.003 134.201 113.294 134.286 111.295 134.438L111.203 134.446L111.147 134.516C111.108 134.57 111.037 134.665 110.948 134.782C110.757 135.034 110.608 135.211 110.594 135.229C110.13 135.792 109.502 138.825 109.502 138.825C109.378 139.417 109.091 140.374 108.797 141.621C108.744 141.855 108.113 143.889 108.294 144.038C108.893 144.527 109.782 144.668 110.658 144.612C111.079 143.807 111.501 143.007 111.923 142.195C112.433 141.214 112.865 140.289 113.684 139.523C114.205 139.038 114.8 138.581 115.243 138.021Z" fill="#00C7E5"/>
<path d="M113.332 124.152C113.244 124.358 113.155 124.567 113.066 124.772C112.801 124.935 112.535 125.102 112.266 125.265C112.329 125.378 112.397 125.492 112.461 125.609C112.436 126.02 112.414 126.431 112.39 126.838C112.556 126.959 112.822 127.129 113.176 127.253C113.286 127.292 113.332 127.288 114.296 127.324C114.711 127.338 114.916 127.345 115.012 127.232C115.122 127.1 115.107 126.87 115.044 126.721C114.98 126.569 114.902 126.58 114.831 126.431C114.718 126.197 114.859 126.062 114.789 125.843C114.718 125.626 114.551 125.669 114.292 125.4C114.002 125.095 114.059 124.893 113.768 124.531C113.619 124.34 113.449 124.223 113.332 124.152Z" fill="#F0D0B4"/>
<path d="M106.3 128.333C106.966 128.762 107.791 129.222 108.777 129.63C109.56 129.952 110.29 130.179 110.934 130.342C110.931 130.891 110.91 131.469 110.864 132.071C110.786 133.134 110.644 134.116 110.477 134.998C111.03 135.253 111.842 135.547 112.855 135.664C114.198 135.824 115.296 135.604 115.966 135.416C115.998 134.212 116.143 132.784 116.533 131.221C116.618 130.881 116.71 130.555 116.806 130.239C116.973 129.697 116.771 129.102 116.299 128.79C116.296 128.787 116.292 128.787 116.289 128.783C116.289 128.783 116.211 128.73 116.09 128.659C116.09 128.659 115.867 128.528 115.64 128.411C114.673 127.929 112.908 127.766 112.908 127.766C110.499 127.543 110.58 127.585 110.116 127.511C109.01 127.334 108.139 127.029 107.572 126.799C107.012 125.091 106.448 123.383 105.889 121.675C105.052 121.894 105.393 121.806 104.553 122.022C104.769 123.117 105.042 124.293 105.393 125.527C105.676 126.526 105.981 127.461 106.3 128.333Z" fill="#00C7E5"/>
<path d="M114.562 155.086C114.077 155.086 113.591 155.086 113.109 155.086C113.131 154.838 113.145 154.572 113.148 154.292C113.152 154.118 113.148 153.948 113.145 153.785C113.347 153.753 113.591 153.729 113.871 153.729C114.148 153.732 114.392 153.76 114.598 153.796C114.544 153.984 114.495 154.242 114.502 154.551C114.502 154.763 114.53 154.94 114.562 155.086Z" fill="#E6FCFF"/>
<path d="M108.33 155.136C107.844 155.136 107.359 155.136 106.877 155.136C106.888 154.877 107.125 154.091 107.136 153.832C107.398 153.804 107.667 153.772 107.936 153.736C108.177 153.704 108.415 153.673 108.649 153.641C108.585 153.878 108.525 154.126 108.468 154.392C108.415 154.647 108.369 154.899 108.33 155.136Z" fill="#B3F5FF"/>
<path d="M113.406 154.98C113.406 154.983 113.406 154.987 113.403 154.987C113.375 155.001 113.3 154.76 113.19 154.71C112.981 154.618 113.173 155.235 112.712 155.635C112.503 155.816 112.301 155.912 112.138 155.968C112.078 155.99 112.035 156.061 112.035 156.146V156.316H114.817C114.824 156.096 114.81 155.812 114.735 155.494C114.689 155.295 114.629 155.125 114.569 154.98H113.406Z" fill="#42526E"/>
<path d="M107.178 155.03C107.178 155.033 107.178 155.037 107.174 155.037C107.146 155.051 107.072 154.81 106.962 154.76C106.753 154.668 106.413 155.285 105.807 155.685C105.534 155.866 105.261 155.961 105.048 156.018C104.967 156.039 104.91 156.11 104.91 156.195V156.365H108.588C108.595 156.146 108.581 155.862 108.507 155.543C108.461 155.345 108.4 155.175 108.34 155.03H107.178Z" fill="#008DA6"/>
<path d="M112.46 125.609C112.439 125.626 112.386 125.669 112.358 125.747C112.326 125.835 112.343 125.91 112.35 125.935C112.428 125.974 112.531 126.016 112.662 126.044C112.754 126.062 112.832 126.069 112.903 126.069C112.896 126.133 112.889 126.218 112.875 126.317C112.839 126.587 112.818 126.611 112.793 126.622C112.708 126.668 112.531 126.569 112.46 126.427C112.428 126.363 112.425 126.303 112.425 126.261C112.382 126.296 112.28 126.392 112.244 126.551C112.195 126.764 112.294 126.93 112.315 126.973C112.478 127.253 112.815 127.299 112.9 127.309C112.91 127.309 112.914 127.309 112.939 127.313C113.984 127.366 114.058 127.366 114.122 127.345C114.714 127.168 114.671 125.357 114.671 125.279C114.452 125.148 114.236 125.017 114.016 124.886C114.041 124.925 114.243 125.258 114.097 125.623C114.076 125.676 113.956 125.984 113.711 126.03C113.456 126.08 113.325 125.8 112.829 125.662C112.673 125.626 112.545 125.612 112.46 125.609Z" fill="#172B4D"/>
<path d="M103.806 88.8705C105.462 88.8705 106.804 87.5284 106.804 85.8728C106.804 84.2171 105.462 82.875 103.806 82.875C102.151 82.875 100.809 84.2171 100.809 85.8728C100.809 87.5284 102.151 88.8705 103.806 88.8705Z" fill="#00C7E5"/>
<path d="M121.959 69.2748C123.805 61.8619 119.188 54.3569 111.683 52.6986C104.507 51.1111 97.3071 55.59 95.5425 62.723C94.3483 67.5456 95.8897 72.4037 99.1816 75.6672C100.588 77.0633 101.152 79.0973 100.673 81.0178L100.652 81.1064L108.823 83.1404L108.845 83.0482C109.323 81.1206 110.783 79.5934 112.682 79.0158C117.122 77.6764 120.758 74.0975 121.959 69.2748Z" fill="#E6FCFF"/>
<path d="M104.974 76.0069L103.274 75.5817C102.335 75.3478 101.764 74.3946 101.994 73.4591C102.228 72.5201 103.181 71.9496 104.117 72.18C105.056 72.4138 105.63 73.367 105.396 74.306L104.974 76.0069ZM103.695 72.6335C103.135 72.6335 102.625 73.0127 102.483 73.5796C102.317 74.2458 102.724 74.9261 103.391 75.0927L104.602 75.3939L104.904 74.182C104.985 73.8596 104.935 73.5229 104.762 73.2395C104.588 72.9524 104.315 72.7505 103.993 72.6725C103.897 72.6477 103.794 72.6335 103.695 72.6335Z" fill="#79E2F2"/>
<path d="M109.517 77.0842C109.379 77.0842 109.237 77.0665 109.095 77.0311L107.395 76.6094L107.82 74.9085C108.054 73.9695 109.01 73.3955 109.942 73.6294C110.881 73.8632 111.452 74.8164 111.221 75.7519C111.023 76.5527 110.304 77.0842 109.517 77.0842ZM108.008 76.2409L109.219 76.5421C109.542 76.6236 109.878 76.574 110.162 76.4003C110.449 76.2267 110.651 75.9539 110.729 75.6314C110.895 74.9652 110.488 74.2849 109.818 74.1184C109.149 73.9518 108.472 74.3593 108.305 75.0255L108.008 76.2409Z" fill="#79E2F2"/>
<path d="M106.437 82.5442L105.948 82.4238L107.394 76.609L104.973 76.0066L103.528 81.8214L103.035 81.6974L104.605 75.3936L108.007 76.2404L106.437 82.5442Z" fill="#79E2F2"/>
<path d="M108.409 84.8058L108.824 83.1404L100.652 81.1064L100.238 82.7719C100.149 83.1333 100.369 83.4983 100.73 83.5904C100.369 83.5018 100.004 83.7215 99.9118 84.0829L99.6602 85.0928C99.5717 85.4543 99.7914 85.8192 100.153 85.9114L107.016 87.6193C107.378 87.7079 107.743 87.4882 107.835 87.1268L108.087 86.1169C108.175 85.7554 107.955 85.3905 107.594 85.2983C107.955 85.3869 108.32 85.1637 108.409 84.8058Z" fill="#00C7E5"/>
<path d="M107.465 156.376H152.268C154.022 156.376 155.447 154.955 155.447 153.197V51.7908C155.447 50.0368 154.026 48.6123 152.268 48.6123H107.465V156.376Z" fill="url(#paint4_linear)"/>
<path d="M111.685 52.6983C110.264 52.3829 108.843 52.312 107.465 52.4467V76.1063L107.522 76.1205L107.823 74.9122C108.057 73.9732 109.006 73.3991 109.949 73.633C110.888 73.8669 111.458 74.8201 111.228 75.7555C111.03 76.5528 110.314 77.0843 109.527 77.0843C109.389 77.0843 109.247 77.0666 109.105 77.0312L107.897 76.73L107.472 78.4308V82.7964L108.833 83.1365L108.854 83.0444C109.332 81.1168 110.792 79.5895 112.691 79.012C117.128 77.669 120.767 74.0937 121.965 69.2675C123.807 61.8616 119.19 54.3566 111.685 52.6983Z" fill="#B3F5FF"/>
<path d="M108.01 76.2408L109.218 76.542C109.888 76.7086 110.565 76.3011 110.731 75.6314C110.898 74.9652 110.49 74.2848 109.82 74.1183C109.154 73.9518 108.474 74.3593 108.307 75.029L108.01 76.2408Z" fill="#B3F5FF"/>
<path d="M109.098 77.0314C109.239 77.0669 109.381 77.0846 109.519 77.0846C110.306 77.0846 111.022 76.5495 111.22 75.7558C111.454 74.8168 110.88 73.8636 109.941 73.6333C108.998 73.3994 108.049 73.9734 107.815 74.9124L107.514 76.1208L107.457 76.1066V78.4346L107.882 76.7338L109.098 77.0314ZM108.311 75.0294C108.478 74.3632 109.158 73.9557 109.824 74.1187C110.49 74.2853 110.898 74.9621 110.735 75.6318C110.568 76.2979 109.891 76.709 109.222 76.5424L108.013 76.2412L108.311 75.0294Z" fill="#79E2F2"/>
<path d="M107.465 87.5689C107.642 87.4874 107.784 87.328 107.833 87.1225L108.085 86.1126C108.174 85.7511 107.954 85.3862 107.592 85.294C107.954 85.3826 108.319 85.1629 108.411 84.8015L108.826 83.1361L107.465 82.7959V87.5689Z" fill="#00B8D9"/>
<path d="M113.068 144.456C113.072 144.934 113.072 145.409 113.075 145.891C113.093 148.223 113.129 151.355 113.182 153.782C113.38 153.751 113.611 153.729 113.873 153.733C114.138 153.736 114.369 153.761 114.567 153.797C114.812 152.556 115.258 150.285 115.372 148.51C115.513 146.288 115.017 146.433 115.138 144.658C114.447 144.75 113.735 144.693 113.068 144.456Z" fill="#00A3BF"/>
<path d="M108.652 153.641C108.652 153.641 108.652 153.644 108.652 153.648C108.942 152.978 109.173 152.287 109.173 152.287C109.899 150.094 110.328 147.199 110.331 146.897C110.339 146.327 110.059 145.852 110.009 145.526C110.165 145.228 110.324 144.924 110.48 144.626C109.761 144.651 109.052 144.537 108.51 144.197C108.404 144.821 108.298 145.437 108.198 146.068C107.975 147.471 107.702 149.693 107.465 151.639V153.796C107.624 153.779 107.78 153.761 107.94 153.74C108.181 153.704 108.418 153.672 108.652 153.641Z" fill="#00A3BF"/>
<path d="M115.036 127.469C115.057 127.306 115.075 127.146 115.096 126.983C115.099 126.891 115.078 126.799 115.05 126.721C114.986 126.569 114.908 126.579 114.837 126.431C114.724 126.197 114.866 126.062 114.795 125.842C114.766 125.757 114.727 125.715 114.671 125.676C114.649 126.239 114.554 127.221 114.125 127.352C114.068 127.37 114.005 127.37 113.314 127.338C113.296 127.508 113.264 127.664 113.229 127.805C113.625 127.859 114.327 127.965 114.954 128.156C114.983 127.922 115.011 127.696 115.036 127.469Z" fill="#00A3BF"/>
<path d="M110.479 144.623C110.539 144.619 110.6 144.619 110.66 144.616C111.082 143.811 111.503 143.011 111.925 142.199C112.031 141.997 112.134 141.795 112.24 141.593C112.432 141.225 112.63 140.867 112.857 140.527C112.853 141.813 112.853 143.103 112.86 144.389C112.931 144.417 113.002 144.435 113.073 144.456C113.743 144.69 114.455 144.751 115.139 144.658C115.206 144.648 115.277 144.648 115.344 144.637C115.348 144.602 115.348 144.57 115.351 144.531C115.426 143.439 115.589 142.167 115.741 140.938C115.972 139.102 116.191 137.369 116.074 136.579C116.053 136.448 115.982 136.104 115.908 135.757C115.887 135.654 115.862 135.552 115.84 135.452C115.164 135.633 114.122 135.817 112.86 135.669C111.989 135.566 111.28 135.336 110.745 135.112C110.224 135.956 110.036 136.717 109.965 137.005C109.926 137.16 109.895 137.299 109.859 137.444C109.739 137.915 109.629 138.383 109.508 138.829C109.257 139.758 109.023 140.69 108.803 141.625C108.75 141.859 108.119 143.893 108.3 144.042C108.367 144.099 108.442 144.148 108.516 144.194C109.051 144.531 109.76 144.644 110.479 144.623Z" fill="#00B8D9"/>
<path d="M112.465 126.43C112.536 126.572 112.713 126.671 112.798 126.625C112.819 126.611 112.841 126.586 112.88 126.32C112.894 126.218 112.904 126.132 112.908 126.072C112.841 126.072 112.759 126.065 112.667 126.047C112.582 126.03 112.508 126.005 112.447 125.977C112.44 126.072 112.437 126.171 112.43 126.267C112.43 126.303 112.433 126.363 112.465 126.43Z" fill="#00A3BF"/>
<path d="M113.712 126.037C113.956 125.991 114.077 125.682 114.098 125.629C114.165 125.463 114.158 125.303 114.13 125.176C114.016 124.977 113.992 124.797 113.775 124.531C113.623 124.34 113.453 124.223 113.336 124.155C113.248 124.361 113.159 124.57 113.07 124.775C112.805 124.938 112.539 125.105 112.27 125.268C112.333 125.381 112.401 125.495 112.464 125.612C112.546 125.615 112.677 125.629 112.829 125.672C113.322 125.807 113.457 126.083 113.712 126.037Z" fill="#00A3BF"/>
<path d="M112.858 135.669C114.12 135.817 115.165 135.633 115.838 135.452C115.86 135.552 115.884 135.654 115.906 135.757L116.781 134.939C116.848 134.864 116.94 134.747 117.022 134.584C117.234 134.152 117.178 133.762 117.139 133.181C117.1 132.635 117.153 132.961 117.1 131.884C117.04 130.605 116.969 130.141 116.855 129.691C116.852 129.684 116.852 129.677 116.848 129.669C116.834 129.56 116.802 129.457 116.76 129.354C116.756 129.347 116.753 129.333 116.753 129.326H116.749C116.653 129.113 116.505 128.925 116.299 128.787C116.295 128.784 116.292 128.784 116.288 128.78C116.288 128.78 116.21 128.727 116.09 128.656C116.09 128.656 115.867 128.525 115.64 128.408C115.442 128.309 115.204 128.224 114.96 128.149C114.332 127.962 113.631 127.852 113.234 127.799C113.035 127.774 112.911 127.76 112.911 127.76C110.502 127.536 110.583 127.579 110.119 127.504C109.014 127.327 108.142 127.023 107.575 126.792C107.54 126.686 107.504 126.576 107.469 126.47V129.01C107.869 129.223 108.305 129.432 108.783 129.627C109.566 129.949 110.296 130.176 110.941 130.339C110.938 130.888 110.917 131.466 110.87 132.068C110.792 133.131 110.651 134.113 110.484 134.995C110.562 135.031 110.658 135.07 110.746 135.105C111.278 135.332 111.987 135.566 112.858 135.669Z" fill="#008DA6"/>
<path d="M113.18 153.787C113.169 153.787 113.155 153.79 113.145 153.79C113.148 153.953 113.152 154.123 113.148 154.297C113.145 154.446 113.134 154.58 113.127 154.722C113.145 154.708 113.162 154.704 113.194 154.719C113.301 154.765 113.379 155.006 113.407 154.995C113.41 154.995 113.41 154.991 113.41 154.988H114.544C114.52 154.864 114.502 154.726 114.498 154.563C114.491 154.254 114.544 153.992 114.594 153.808C114.583 153.808 114.573 153.804 114.566 153.804C114.367 153.769 114.137 153.744 113.871 153.741C113.609 153.734 113.379 153.755 113.18 153.787Z" fill="#79E2F2"/>
<path d="M108.35 155.047C108.386 154.835 108.425 154.619 108.471 154.392C108.528 154.13 108.588 153.882 108.648 153.648C108.648 153.648 108.648 153.644 108.648 153.641C108.414 153.673 108.177 153.704 107.936 153.736C107.776 153.758 107.62 153.775 107.461 153.793V155.03H108.34C108.347 155.037 108.347 155.04 108.35 155.047Z" fill="#79E2F2"/>
<path d="M113.405 154.987C113.377 155.002 113.302 154.761 113.192 154.711C113.164 154.697 113.143 154.704 113.125 154.715C113.026 154.793 113.107 155.292 112.714 155.636C112.505 155.817 112.303 155.912 112.14 155.969C112.08 155.99 112.037 156.061 112.037 156.146V156.316H114.819C114.826 156.097 114.812 155.813 114.737 155.494C114.691 155.296 114.631 155.126 114.571 154.98H114.542H113.408C113.408 154.984 113.408 154.987 113.405 154.987Z" fill="#008DA6"/>
<path d="M108.51 155.544C108.464 155.353 108.407 155.186 108.351 155.048C108.347 155.044 108.347 155.037 108.344 155.03H107.465V156.366H108.592C108.599 156.146 108.585 155.863 108.51 155.544Z" fill="#008DA6"/>
<path d="M114.124 127.348C114.553 127.22 114.649 126.235 114.67 125.672C114.723 125.711 114.766 125.757 114.794 125.838C114.865 126.058 114.727 126.193 114.836 126.426C114.907 126.575 114.985 126.561 115.049 126.717C115.081 126.791 115.099 126.887 115.095 126.979C115.074 127.142 115.056 127.302 115.035 127.465C115.184 127.369 115.336 127.273 115.485 127.178C115.683 127.061 116.417 126.593 116.665 125.675C116.729 125.441 116.931 124.665 116.495 124.045C116.186 123.606 115.722 123.457 115.584 123.414C115.123 123.269 115.024 123.422 114.121 123.39C113.49 123.365 113.231 123.262 113.125 123.411C113.001 123.581 113.192 123.925 113.338 124.152C113.454 124.219 113.621 124.339 113.777 124.527C113.993 124.793 114.014 124.974 114.131 125.172C114.16 125.3 114.167 125.459 114.099 125.626C114.078 125.679 113.958 125.987 113.713 126.033C113.458 126.083 113.327 125.803 112.831 125.665C112.678 125.622 112.551 125.608 112.466 125.604C112.445 125.622 112.391 125.665 112.363 125.743C112.331 125.831 112.349 125.906 112.356 125.93C112.381 125.945 112.413 125.955 112.445 125.969C112.508 125.994 112.579 126.022 112.664 126.04C112.756 126.058 112.834 126.065 112.905 126.065C112.898 126.129 112.891 126.214 112.877 126.313C112.841 126.582 112.82 126.607 112.795 126.618C112.71 126.664 112.533 126.565 112.462 126.423C112.43 126.359 112.427 126.299 112.427 126.256C112.384 126.292 112.282 126.387 112.246 126.547C112.197 126.76 112.296 126.926 112.317 126.969C112.48 127.249 112.817 127.295 112.902 127.305C112.912 127.305 112.916 127.305 112.941 127.309C113.082 127.316 113.203 127.323 113.309 127.326C114.004 127.365 114.067 127.365 114.124 127.348Z" fill="#008DA6"/>
<path d="M34.816 100.603C41.4874 100.603 46.8956 95.1944 46.8956 88.523C46.8956 81.8516 41.4874 76.4434 34.816 76.4434C28.1446 76.4434 22.7363 81.8516 22.7363 88.523C22.7363 95.1944 28.1446 100.603 34.816 100.603Z" fill="#00C7E5"/>
<path d="M33.5712 94.5219L27.9726 89.9544C27.8344 89.841 27.8131 89.6355 27.9265 89.4973L29.9534 87.0133C30.0668 86.8751 30.2723 86.8539 30.4105 86.9672L33.27 89.3024L38.7199 82.623C38.8333 82.4848 39.0388 82.4635 39.177 82.5769L41.6609 84.6038C41.7991 84.7172 41.8204 84.9227 41.707 85.0609L34.0213 94.4758C33.915 94.614 33.7094 94.6353 33.5712 94.5219Z" fill="#B3F5FF"/>
<path d="M41.8012 53.9732L34.7143 54.324C31.5429 54.4799 29.0979 57.18 29.2574 60.3514C29.4133 63.5228 32.1134 65.9678 35.2848 65.8083L35.6108 65.7906C37.1522 65.7126 38.5873 66.6517 39.0798 68.1151C39.0834 68.1257 39.0869 68.1399 39.0905 68.1505C39.0975 68.1753 39.1365 68.1754 39.1401 68.147C39.1436 68.1364 39.1472 68.1222 39.1472 68.1116C39.4909 66.6056 40.8268 65.5319 42.3682 65.454C45.5395 65.2981 47.9845 62.598 47.8251 59.4266C47.6727 56.2587 44.9726 53.8137 41.8012 53.9732Z" fill="#00C7E5"/>
<path d="M92.9667 123.444C93.0872 123.692 93.0695 123.787 93.0305 123.83C92.9313 123.936 92.6088 123.755 92.545 123.855C92.5131 123.904 92.5663 123.996 92.5946 124.046C92.6584 124.152 92.7399 124.205 92.9632 124.329C93.2147 124.471 93.3423 124.542 93.4238 124.567C93.5088 124.592 93.6151 124.616 93.8065 124.663C93.8703 124.677 93.9199 124.687 93.9553 124.694C94.1112 124.492 94.2707 124.287 94.4266 124.085L93.3742 123.518C93.3317 123.493 93.2679 123.468 93.1899 123.451C93.0978 123.429 93.0163 123.437 92.9667 123.444Z" fill="#00B8D9"/>
<path d="M93.957 124.693L97.3587 128.279C97.419 128.244 97.4792 128.209 97.5395 128.177C97.9682 127.971 98.2269 127.564 98.1915 127.16C98.1631 126.844 97.9647 126.632 97.8903 126.561L94.4319 124.084L93.957 124.693Z" fill="#00B8D9"/>
<path d="M87.8512 136.536C87.4154 136.252 86.8732 135.831 86.3665 135.218C85.346 133.988 85.0271 132.688 84.9102 132C85.1015 131.044 85.6472 129.123 87.3091 128.113C88.0532 127.66 89.2474 127.263 89.5663 127.624C89.8994 128.003 88.8611 129.325 88.6343 129.633C87.9292 130.452 87.2276 131.27 86.5224 132.089C86.7421 132.411 86.9689 132.78 87.1815 133.191C87.5465 133.885 87.7945 134.541 87.9682 135.108C87.9327 135.583 87.8902 136.061 87.8512 136.536Z" fill="#00A3BF"/>
<path d="M88.2078 134.332C88.2433 134.198 88.2893 134.049 88.3567 133.889C88.4346 133.702 88.5232 133.539 88.6082 133.4C88.711 133.429 88.8811 133.471 89.0901 133.51C89.2709 133.542 89.4126 133.553 89.487 133.563C89.9122 133.617 90.7272 133.705 92.9171 133.854C93.0234 133.971 93.1722 134.145 93.3281 134.368C93.8986 135.169 94.1077 135.902 94.1963 136.221C95.681 141.639 95.9786 143.761 95.9786 143.761C95.9786 143.761 96.5739 147.787 97.1586 152.351C97.1373 152.361 96.6837 152.67 96.2089 152.836C96.0388 152.896 95.7908 152.964 95.4719 152.989C95.0892 152.372 94.6533 151.529 94.3415 150.476C93.8454 148.807 93.8738 147.355 93.9695 146.433C93.8065 145.622 93.5195 144.463 92.9879 143.138C92.6761 142.362 91.7052 139.945 91.2127 140.037C90.7449 140.126 91.1099 142.44 91.1489 146.759C91.1702 149.084 91.1595 150.99 91.1453 152.259C91.0072 152.333 90.6103 152.517 90.1107 152.365C89.611 152.213 89.4445 152.007 89.4445 152.007C89.3417 151.536 89.2035 150.816 89.1008 149.931C89.0583 149.551 89.0405 149.243 89.0157 148.807C88.9732 148.077 88.9272 147.046 88.8988 145.76C88.6827 143.18 88.626 142.298 88.6224 142.05C88.6224 141.99 88.6153 141.731 88.5693 141.384C88.5586 141.309 88.5445 141.235 88.5232 141.114C88.3673 140.331 87.6728 136.997 87.857 135.789C87.9527 135.165 88.098 134.665 88.2078 134.332Z" fill="#00A3BF"/>
<path d="M89.0664 149.491C89.077 149.633 89.0912 149.771 89.1089 149.924C89.2081 150.809 89.3499 151.529 89.4526 152C89.4881 152.032 89.5341 152.074 89.5979 152.12C89.7113 152.205 89.9735 152.39 90.3456 152.425C90.7354 152.464 91.033 152.319 91.1535 152.252C91.1606 151.525 91.1677 150.593 91.1677 149.491H89.0664Z" fill="#00B8D9"/>
<path d="M94.1055 149.498C94.1657 149.813 94.2437 150.136 94.3429 150.469C94.6547 151.521 95.0905 152.365 95.4732 152.981C95.7921 152.953 96.0367 152.889 96.2103 152.829C96.6851 152.662 97.1422 152.354 97.1599 152.343C97.0359 151.373 96.9119 150.423 96.7914 149.533C95.8949 149.537 94.9949 149.512 94.1055 149.498Z" fill="#00B8D9"/>
<path d="M97.202 150.838C96.6811 151.008 96.1496 151.192 95.6074 151.394C95.3027 151.508 95.005 151.621 94.7109 151.738C95.1432 152.691 95.4799 153.393 95.7102 153.864C96.0149 154.488 96.302 155.051 96.3835 155.877C96.4047 156.082 96.4047 156.256 96.4047 156.373L97.4996 156.366C97.5599 156.309 97.6201 156.252 97.6839 156.199C97.7796 156.252 97.8788 156.305 97.9745 156.359H100.756C100.93 156.359 101.054 156.22 101.001 156.082L99.8915 155.795C99.3139 155.646 98.8178 155.366 98.4422 154.998C98.0489 154.612 97.9107 154.169 97.7406 153.687C97.5918 153.272 97.528 152.911 97.4075 152.199C97.3048 151.642 97.241 151.175 97.202 150.838Z" fill="#008DA6"/>
<path d="M87.9998 134.379C87.688 135.584 87.3974 136.845 87.1281 138.156C86.6285 140.598 86.2777 142.915 86.0332 145.087C86.3946 145.275 86.9474 145.534 87.6526 145.753C91.3555 146.919 94.5836 145.573 95.1541 145.325C95.7352 145.07 96.5608 144.651 97.4538 143.957C96.6175 140.477 95.8805 137.954 95.6324 137.334C95.3915 136.735 95.1505 136.229 94.8245 135.697C94.169 134.627 93.4355 133.865 92.9252 133.397L87.9998 134.379Z" fill="url(#paint5_linear)"/>
<path d="M88.1909 122.929C88.485 122.394 89.5019 122.136 90.1291 122.43C90.1504 122.44 90.1787 122.455 90.3063 122.536C91.2205 123.121 91.9753 123.585 92.0816 124.315C92.1029 124.467 92.0993 124.602 92.0922 124.698C92.2304 124.705 92.4289 124.74 92.6025 124.875C93.0171 125.194 93.0454 125.878 92.8363 126.331C92.521 127.008 91.6351 127.263 91.0469 127.065C90.8874 127.011 90.7209 126.916 90.7209 126.916C90.6004 126.831 90.4232 126.696 90.2177 126.515C89.2149 125.647 87.6877 123.84 88.1909 122.929Z" fill="#008DA6"/>
<path d="M89.375 122.536C89.8321 122.731 90.4345 123.234 90.718 123.507C90.764 123.557 90.7782 123.585 90.927 123.603C91.0723 123.62 91.246 123.581 91.2495 123.684C91.253 123.787 91.1219 123.975 91.1326 124.06L91.6641 125.006C91.742 125.141 91.7137 125.311 91.6003 125.417L91.37 125.63L89.9349 126.958C89.9526 126.299 89.9278 125.594 89.8392 124.85C89.825 124.719 89.8073 124.591 89.7896 124.464C89.8569 124.329 89.9739 124.039 89.949 123.663C89.9455 123.599 89.9207 123.284 89.7152 122.94C89.6018 122.756 89.4707 122.621 89.375 122.536Z" fill="#00A3BF"/>
<path d="M91.1371 127.788L88.9969 127.983C89.0217 127.667 89.0323 127.288 88.9934 126.863C88.9544 126.434 88.88 126.062 88.7949 125.757C89.5072 125.694 90.2229 125.63 90.9352 125.562L91.1371 127.788Z" fill="#00A3BF"/>
<path d="M97.8789 127.44C97.8789 127.433 97.8789 127.425 97.8789 127.418C97.8719 126.812 97.2943 126.377 96.7096 126.536C96.2171 126.671 95.6537 126.802 95.0229 126.908C94.1796 127.05 93.5489 127.092 92.6453 127.149C91.2421 127.241 89.1231 127.305 88.0813 127.688C87.4931 127.904 87.0431 128.269 87.0431 128.269C86.9226 128.375 86.8021 128.478 86.6816 128.584C86.9687 129.13 87.2592 129.785 87.4931 130.547C87.9856 132.138 88.0459 133.559 87.9998 134.573C89.1514 134.704 89.4526 134.782 90.8133 134.782C93.0599 134.782 93.8359 134.3 93.8359 134.3C93.8359 134.3 93.7048 133.134 93.8394 131.908C93.9209 131.157 94.0485 130.891 93.9174 130.367C93.8252 129.998 93.6587 129.718 93.5276 129.534C94.3178 129.357 95.3737 129.07 96.5714 128.598C96.7911 128.513 97.0427 128.414 97.312 128.301C97.6628 128.155 97.886 127.812 97.8789 127.44Z" fill="#00B8D9"/>
<path d="M86.4643 132.303C86.5352 132.303 86.6025 132.31 86.6734 132.313C86.6238 132.235 86.5742 132.161 86.5246 132.086C87.2297 131.268 87.9313 130.449 88.6365 129.631C88.8633 129.326 89.9015 128.001 89.5684 127.622C89.2495 127.26 88.0554 127.661 87.3112 128.111C85.7131 129.082 85.1497 130.892 84.9371 131.881C84.9194 131.962 84.9194 132.044 84.9371 132.122C84.9655 132.278 85.0044 132.455 85.0576 132.65C85.4367 132.437 85.908 132.303 86.4643 132.303Z" fill="#00C7E5"/>
<path d="M97.3581 128.28C97.3581 128.046 97.3581 127.812 97.3581 127.582C97.3581 126.972 96.7876 126.526 96.1923 126.671C95.8344 126.756 95.4446 126.838 95.0229 126.909C94.1796 127.05 93.5489 127.093 92.6453 127.15C91.2421 127.242 89.1231 127.305 88.0813 127.688C87.4931 127.904 87.0431 128.269 87.0431 128.269C86.9226 128.376 86.8021 128.478 86.6816 128.585C86.9687 129.13 87.2592 129.786 87.4931 130.548C87.9856 132.139 88.0459 133.56 87.9998 134.573C89.1514 134.704 89.4526 134.782 90.8133 134.782C93.0599 134.782 93.8359 134.3 93.8359 134.3C93.8359 134.3 93.7048 133.134 93.8394 131.908C93.9209 131.157 94.0485 130.891 93.9174 130.367C93.8253 129.998 93.6587 129.719 93.5276 129.534C94.3178 129.357 95.3737 129.07 96.5714 128.599C96.7911 128.514 97.0604 128.407 97.3581 128.28Z" fill="#00C7E5"/>
<path d="M89.1247 122.575C89.4755 123.035 89.5251 123.436 89.5676 123.794C89.6421 124.46 90.0141 124.676 90.4464 125.707C90.7476 126.426 90.8964 126.784 90.8079 127.11C90.5492 128.088 88.657 128.868 87.8491 128.148C87.399 127.744 87.438 127.011 87.4628 126.759C87.2467 126.465 86.9171 125.92 86.8463 125.183C86.825 124.963 86.8356 124.764 86.8463 124.647C86.9136 123.928 87.7605 122.507 89.1247 122.575Z" fill="#008DA6"/>
<path d="M94.4277 124.082C94.247 123.883 94.1194 123.71 94.0344 123.586C93.921 123.419 93.882 123.377 93.804 123.331C93.6836 123.26 93.5666 123.26 93.23 123.281C92.9997 123.295 92.7977 123.313 92.6276 123.327C92.4965 123.345 92.3902 123.394 92.3831 123.455C92.376 123.522 92.4965 123.618 92.6985 123.649C92.6914 123.696 92.6879 123.759 92.7233 123.812C92.7375 123.834 92.7694 123.866 92.9572 123.908C93.0387 123.926 93.1131 123.936 93.1698 123.944C93.1201 124 93.1095 124.043 93.1202 124.075C93.1414 124.138 93.2654 124.202 93.7473 124.17C93.7544 124.376 93.9422 124.532 94.1336 124.507C94.332 124.486 94.4738 124.287 94.4277 124.082Z" fill="#00B8D9"/>
<path d="M89.3965 151.685C90.0308 151.688 90.665 151.695 91.2993 151.699C91.2603 152.237 91.2426 152.687 91.2391 153.017C91.2178 154.268 91.3135 154.619 91.4446 154.898C91.6289 155.288 91.8521 155.515 91.9265 155.586C92.3411 155.983 92.8053 156.103 93.0144 156.146C93.0533 156.22 93.0923 156.295 93.1313 156.373C92.5608 156.373 91.9868 156.373 91.4163 156.373C91.4021 156.358 91.317 156.28 91.1966 156.284C91.0938 156.288 91.0336 156.351 91.0194 156.365C90.6899 156.365 90.3603 156.369 90.0308 156.369C90.0166 156.249 89.9882 156.032 89.9599 155.763C89.9174 155.38 89.8926 155.072 89.8784 154.906C89.8749 154.842 89.8713 154.796 89.8678 154.789C89.843 154.519 89.726 153.694 89.3965 151.685Z" fill="#008DA6"/>
<path opacity="0.3" d="M119.62 75.1992L38.4434 156.376H48.7548L124.776 80.3549L119.62 75.1992Z" fill="url(#paint6_linear)"/>
<path opacity="0.3" d="M63.4062 156.376H73.7177L146.837 83.2534L141.681 78.0977L63.4062 156.376Z" fill="url(#paint7_linear)"/>
<path d="M80.1703 117.851C79.4687 116.278 77.6261 115.573 76.0564 116.274L25.5196 138.793C21.8096 133.829 15.148 131.777 9.19141 134.045V141.164C9.72647 140.721 10.3253 140.338 10.9915 140.04C14.9672 138.269 19.6446 140.062 21.4163 144.037C23.188 148.013 21.3951 152.69 17.4193 154.462C14.6023 155.717 11.438 155.178 9.20204 153.346C9.29771 155.036 10.6938 156.379 12.4089 156.379H24.9881C27.7237 153.133 28.9107 148.754 28.0603 144.494L59.2817 130.579L61.018 134.477L61.0073 134.481C59.4907 135.157 58.8104 136.933 59.4872 138.449C60.164 139.966 61.9393 140.646 63.4559 139.969L68.9553 137.517L66.5103 132.029L64.774 128.131L68.1828 126.611L71.3967 133.822L72.3676 136.001L77.8671 133.549C79.3837 132.872 80.064 131.097 79.3872 129.58C78.7104 128.063 76.9352 127.383 75.4186 128.06L75.4079 128.063L73.6716 124.166L78.597 121.972C80.1632 121.264 80.8719 119.421 80.1703 117.851Z" fill="#00A3BF"/>
<path d="M73.8795 94.0253C73.8795 84.5749 66.0343 76.9564 56.5024 77.3285C47.9627 77.6616 40.9679 84.5324 40.4895 93.065C40.1777 98.6672 42.6262 103.706 46.5949 106.955C47.215 107.462 47.5091 108.266 47.378 109.057L43.5936 131.692C43.4944 132.28 43.9479 132.815 44.5432 132.815H69.7939C70.3892 132.815 70.8428 132.28 70.7435 131.692L66.9591 109.057C66.828 108.266 67.1221 107.466 67.7387 106.959C71.4877 103.894 73.8795 99.2377 73.8795 94.0253Z" fill="#E6FCFF"/>
<path d="M56.5017 77.329C52.1008 77.5026 48.1144 79.4125 45.2158 82.389C46.0769 83.8489 46.6474 85.5108 46.8281 87.3074C47.31 92.0591 44.9678 96.4424 41.1621 98.7988C42.1295 102.038 44.0465 104.869 46.5978 106.956C47.2179 107.463 47.512 108.267 47.3809 109.057L43.5965 131.693C43.4972 132.281 43.9508 132.816 44.5461 132.816H57.1714V77.3184C56.9482 77.3184 56.725 77.3184 56.5017 77.329Z" fill="url(#paint8_linear)"/>
<path d="M46.8295 87.307C46.6487 85.5105 46.0782 83.845 45.2172 82.3887C42.4887 85.188 40.7241 88.9299 40.4938 93.0651C40.3804 95.0672 40.6284 96.9948 41.167 98.7984C44.9691 96.442 47.3114 92.0588 46.8295 87.307Z" fill="#79E2F2"/>
<path d="M136.03 80.646L121.062 82.7083C114.362 83.6296 109.681 89.8094 110.602 96.5065C111.523 103.207 117.703 107.888 124.4 106.967L125.088 106.871C128.348 106.421 131.562 108.143 132.876 111.159C132.887 111.183 132.897 111.208 132.908 111.233C132.933 111.286 133.007 111.276 133.018 111.219C133.021 111.194 133.025 111.166 133.029 111.141C133.479 107.885 136.111 105.358 139.368 104.908C146.068 103.987 150.749 97.8069 149.828 91.1098C148.907 84.4056 142.727 79.7247 136.03 80.646Z" fill="#00C7E5"/>
<path d="M138.368 60.8666L131.337 62.4824C128.191 63.2053 126.228 66.3412 126.951 69.4878C127.673 72.6344 130.809 74.5975 133.956 73.8746L134.278 73.8002C135.809 73.4494 137.411 74.1297 138.162 75.5081C138.169 75.5188 138.173 75.5294 138.18 75.5436C138.194 75.5684 138.229 75.5613 138.229 75.5329C138.229 75.5188 138.229 75.5081 138.229 75.494C138.307 73.9242 139.448 72.6131 140.979 72.2623C144.126 71.5395 146.089 68.4035 145.366 65.2569C144.647 62.1068 141.511 60.1437 138.368 60.8666Z" fill="#4C9AFF"/>
<path d="M31.67 105.829L24.7567 107.423C21.6633 108.139 19.7321 111.225 20.4479 114.319C21.1637 117.412 24.25 119.344 27.3435 118.628L27.6624 118.553C29.1683 118.206 30.7452 118.876 31.4858 120.229C31.4928 120.24 31.4964 120.251 31.5035 120.261C31.5176 120.286 31.5531 120.279 31.5531 120.251C31.5531 120.236 31.5531 120.226 31.5531 120.212C31.6275 118.67 32.7508 117.377 34.2567 117.03C37.3502 116.314 39.2813 113.228 38.5656 110.134C37.8498 107.044 34.7634 105.113 31.67 105.829Z" fill="#4C9AFF"/>
<path d="M145.599 116.679L138.732 114.897C135.66 114.099 132.52 115.942 131.723 119.018C130.926 122.09 132.768 125.229 135.844 126.027L136.159 126.108C137.655 126.498 138.742 127.82 138.774 129.365C138.774 129.379 138.774 129.389 138.774 129.404C138.774 129.432 138.81 129.439 138.824 129.418C138.831 129.407 138.838 129.396 138.842 129.386C139.621 128.054 141.216 127.426 142.711 127.816C145.783 128.613 148.923 126.771 149.72 123.695C150.517 120.616 148.675 117.476 145.599 116.679Z" fill="#4C9AFF"/>
<path d="M27.2378 74.6074C28.9051 74.6074 30.2568 73.2557 30.2568 71.5884C30.2568 69.921 28.9051 68.5693 27.2378 68.5693C25.5704 68.5693 24.2188 69.921 24.2188 71.5884C24.2188 73.2557 25.5704 74.6074 27.2378 74.6074Z" fill="#00C7E5"/>
<path d="M21.4871 80.0826C22.1466 80.0826 22.6813 79.548 22.6813 78.8885C22.6813 78.229 22.1466 77.6943 21.4871 77.6943C20.8276 77.6943 20.293 78.229 20.293 78.8885C20.293 79.548 20.8276 80.0826 21.4871 80.0826Z" fill="#00C7E5"/>
<path d="M22.45 65.1149C23.1095 65.1149 23.6441 64.5802 23.6441 63.9207C23.6441 63.2612 23.1095 62.7266 22.45 62.7266C21.7905 62.7266 21.2559 63.2612 21.2559 63.9207C21.2559 64.5802 21.7905 65.1149 22.45 65.1149Z" fill="#00C7E5"/>
<path d="M91.6108 57.7832C93.2782 57.7832 94.6298 56.4315 94.6298 54.7641C94.6298 53.0968 93.2782 51.7451 91.6108 51.7451C89.9435 51.7451 88.5918 53.0968 88.5918 54.7641C88.5918 56.4315 89.9435 57.7832 91.6108 57.7832Z" fill="#79E2F2"/>
<path d="M88.1883 64.5973C88.8478 64.5973 89.3824 64.0626 89.3824 63.4031C89.3824 62.7436 88.8478 62.209 88.1883 62.209C87.5288 62.209 86.9941 62.7436 86.9941 63.4031C86.9941 64.0626 87.5288 64.5973 88.1883 64.5973Z" fill="#79E2F2"/>
<path d="M148.953 80.0615C150.62 80.0615 151.972 78.7098 151.972 77.0425C151.972 75.3751 150.62 74.0234 148.953 74.0234C147.285 74.0234 145.934 75.3751 145.934 77.0425C145.934 78.7098 147.285 80.0615 148.953 80.0615Z" fill="#00C7E5"/>
<path d="M151.061 69.1861C151.721 69.1861 152.255 68.6515 152.255 67.992C152.255 67.3325 151.721 66.7979 151.061 66.7979C150.402 66.7979 149.867 67.3325 149.867 67.992C149.867 68.6515 150.402 69.1861 151.061 69.1861Z" fill="#00C7E5"/>
<path d="M131.405 56.6813C132.065 56.6813 132.599 56.1466 132.599 55.4871C132.599 54.8276 132.065 54.293 131.405 54.293C130.746 54.293 130.211 54.8276 130.211 55.4871C130.211 56.1466 130.746 56.6813 131.405 56.6813Z" fill="#00C7E5"/>
<path d="M86.3979 88.0585C88.0653 88.0585 89.4169 86.7069 89.4169 85.0395C89.4169 83.3722 88.0653 82.0205 86.3979 82.0205C84.7306 82.0205 83.3789 83.3722 83.3789 85.0395C83.3789 86.7069 84.7306 88.0585 86.3979 88.0585Z" fill="#79E2F2"/>
<path d="M93.7234 91.9567C94.3829 91.9567 94.9176 91.422 94.9176 90.7625C94.9176 90.103 94.3829 89.5684 93.7234 89.5684C93.0639 89.5684 92.5293 90.103 92.5293 90.7625C92.5293 91.422 93.0639 91.9567 93.7234 91.9567Z" fill="#79E2F2"/>
<path opacity="0.1" d="M13.9531 162.751C19.695 162.751 24.3496 161.811 24.3496 160.65C24.3496 159.49 19.695 158.549 13.9531 158.549C8.21131 158.549 3.55664 159.49 3.55664 160.65C3.55664 161.811 8.21131 162.751 13.9531 162.751Z" fill="#091E42"/>
<path d="M8.514 134.357C1.39875 137.528 -1.81162 145.894 1.35977 153.01C4.53116 160.125 12.9008 163.335 20.0161 160.164C26.1533 157.428 29.3779 150.827 28.1164 144.498L59.3378 130.583L61.0741 134.481L61.0634 134.484C59.5468 135.161 58.8665 136.937 59.5433 138.453C60.2201 139.97 61.9954 140.65 63.512 139.973L69.0114 137.521L66.5664 132.032L64.8301 128.135L68.2389 126.614L70.7441 132.238C70.815 132.075 70.8469 131.891 70.815 131.696L68.7811 119.549L25.5793 138.804C21.7169 133.634 14.6513 131.621 8.514 134.357ZM17.4789 154.47C13.5032 156.241 8.82583 154.448 7.0541 150.473C5.28237 146.497 7.07536 141.819 11.0511 140.048C15.0269 138.276 19.7042 140.069 21.476 144.045C23.2477 148.02 21.4547 152.698 17.4789 154.47Z" fill="#FF991F"/>
<path d="M36.2051 140.806C36.5204 140.668 40.3438 138.914 40.3438 138.914L41.4777 137.646C41.6266 138.609 42.1191 139.24 43.0121 139.623L41.8994 140.587C41.7718 140.696 41.6195 140.771 41.4565 140.799L39.7521 141.118L36.6445 141.611L36.2051 140.806Z" fill="#9C7761"/>
<path d="M44.0161 134.797C43.1338 135.789 42.2515 136.778 41.3691 137.77C41.4932 138.727 41.9432 139.403 42.9283 139.804C43.6972 139.138 44.4661 138.475 45.2315 137.809L44.0161 134.797Z" fill="#42526E"/>
<path opacity="0.1" d="M49.7977 166.737C54.0601 166.737 57.5154 166.039 57.5154 165.178C57.5154 164.317 54.0601 163.619 49.7977 163.619C45.5354 163.619 42.0801 164.317 42.0801 165.178C42.0801 166.039 45.5354 166.737 49.7977 166.737Z" fill="#091E42"/>
<path d="M47.8419 160.15L47.2466 163.782C47.2466 163.782 47.1403 164.42 47.2644 164.569C47.3494 164.672 47.7215 164.629 47.7215 164.629L47.7002 165.086L46.2935 165.391L46.2616 164.732L45.7832 160.193L47.8419 160.15Z" fill="#9C7761"/>
<path d="M53.3877 160.381C53.3381 161.44 53.253 162.691 53.1928 163.779C53.1751 164.098 53.3062 164.406 53.5436 164.622C53.7456 164.803 53.9547 164.973 54.1425 165.2C53.9582 165.285 53.6747 165.384 53.3239 165.402C52.6861 165.437 52.2042 165.196 52.0022 165.076C52.0164 164.934 52.027 164.796 52.0412 164.654L50.9746 160.285L53.3877 160.381Z" fill="#9C7761"/>
<path d="M45.7836 160.189C45.5851 159.53 45.1316 154.831 45.1847 153.265C44.7914 151.118 44.5434 149.509 44.0792 147.163C43.9799 146.653 43.7106 144.831 43.9729 143.917C44.0614 143.616 44.2811 142.61 44.5433 142.192C44.5717 142.146 44.7418 141.742 44.8162 141.625C44.8906 141.508 44.9331 141.168 45.0536 141.097C45.1457 141.04 45.3725 141.178 45.5178 141.178C45.6631 141.178 45.7269 141.203 45.9182 141.221C46.999 141.32 48.1718 141.38 49.2703 141.408C49.4723 141.681 49.4936 141.667 49.7168 141.997C50.3511 142.925 51.0066 143.942 51.4425 145.065C52.3071 147.291 53.2638 148.917 53.5295 151.518C53.7953 154.119 53.2992 157.591 53.3878 160.373C53.0264 160.681 52.5374 160.834 52.222 160.876C51.8783 160.926 51.2121 160.919 50.9747 160.274C50.4149 158.754 50.2802 156.971 50.3015 155.2C50.3121 154.3 50.4326 153.006 50.5318 152.049C50.1668 151.532 49.7203 151.057 49.3341 150.579C48.714 149.81 48.2285 149.02 47.7431 148.173C48.14 150.823 48.2179 153.474 48.1541 156.167C48.1258 157.421 48.0478 158.832 47.8388 160.065C47.7608 160.529 47.2399 160.72 46.8501 160.72C46.4604 160.72 45.904 160.586 45.7836 160.189Z" fill="#172B4D"/>
<path d="M43.3555 135.849C43.7134 135.456 43.9472 135.03 44.7799 134.687C45.7473 134.286 47.3525 134.357 48.6813 134.276C49.9853 134.194 50.6727 134.152 51.5479 133.787C52.2212 133.507 52.5933 133.206 53.7272 132.724C54.326 132.469 54.8292 132.291 55.1729 132.182C55.1729 131.813 55.1941 131.211 55.3323 130.491C55.5733 129.248 55.9524 128.744 56.2005 127.529C56.2891 127.1 56.3883 126.441 56.3706 125.601C56.4804 125.594 56.6399 125.577 56.8383 125.548C56.8454 125.548 56.8737 125.545 56.9092 125.538C57.0367 125.516 57.2175 125.484 57.4513 125.428C57.5151 126.36 57.5399 127.387 57.4938 128.493C57.423 130.172 57.2033 131.668 56.9375 132.947C55.7646 133.939 54.2091 135.055 52.246 136.016C51.2715 136.49 50.3467 136.859 49.4927 137.142C49.5707 137.667 49.6557 138.198 49.7443 138.737C49.9215 139.789 50.1128 140.813 50.3148 141.809C49.4892 141.891 48.6529 141.969 47.806 142.039C46.7536 142.128 45.7154 142.21 44.6913 142.28C44.7339 141.129 44.6488 139.573 44.1315 137.84C43.9012 137.089 43.6319 136.423 43.3555 135.849Z" fill="#9C7761"/>
<path d="M47.7597 132.055C47.7066 132.101 47.0085 132.724 47.1432 133.617C47.2247 134.145 47.5507 134.475 47.6711 134.588C46.6719 134.716 45.6726 134.84 44.6698 134.967C44.7265 134.907 45.0348 134.563 45.0065 134.046C44.9817 133.575 44.7017 133.284 44.6309 133.217C45.6762 132.827 46.7179 132.441 47.7597 132.055Z" fill="#B08874"/>
<path d="M45.3078 128.922C45.648 128.535 46.7429 128.716 47.4268 129.102C47.7067 129.258 48.2099 129.542 48.4579 130.098C48.6351 130.499 48.6457 130.959 49.0284 131.193C49.1914 131.292 49.1949 131.275 49.3119 131.374C49.7902 131.781 49.4678 132.472 49.7619 133.195C50.0631 133.932 50.6832 133.921 50.6726 134.294C50.6478 135.059 48.0008 136.083 47.1043 135.233C46.5941 134.747 47.122 134.102 46.8492 132.6C46.4523 130.417 44.8648 129.432 45.3078 128.922Z" fill="#172B4D"/>
<path d="M46.4933 128.833C46.915 129.18 47.3969 129.903 47.6095 130.282C47.6414 130.35 47.652 130.385 47.8009 130.449C47.9497 130.513 48.1446 130.527 48.1162 130.637C48.0879 130.746 47.8894 130.902 47.8753 130.998L48.2083 132.454L47.6378 132.738L45.7031 133.695C45.7208 133.613 46.2772 131.551 46.263 131.437C46.2488 131.324 46.2027 131.087 46.3303 131.012C46.4579 130.938 46.5677 129.754 46.6138 129.591C46.6634 129.428 46.6421 129.386 46.589 129.177C46.5323 128.964 46.4933 128.833 46.4933 128.833Z" fill="#9C7761"/>
<path d="M56.7567 124.117C56.7602 124.117 56.7708 124.128 56.785 124.131C56.7992 124.135 56.824 124.145 56.863 124.138C56.948 124.128 57.4016 124.021 57.6106 124.05C57.7098 124.064 57.8516 124.117 58.004 124.315C57.6921 124.546 57.5929 124.769 57.561 124.928C57.5079 125.184 57.639 125.293 57.5823 125.637C57.5575 125.786 57.5185 126.02 57.3555 126.25C57.1394 126.558 56.7248 126.838 56.5228 126.721C56.4129 126.661 56.42 126.516 56.3704 126.208C56.2677 125.563 56.1366 125.588 56.0869 125.166C56.0763 125.07 56.0728 124.996 56.0799 124.928C56.094 124.744 56.0976 124.578 56.1932 124.422C56.3704 124.138 56.7106 124.089 56.7567 124.117Z" fill="#9C7761"/>
<path d="M52.2432 136.016C51.857 136.26 51.4034 136.512 50.8755 136.746C50.5388 136.895 50.2164 137.012 49.9187 137.111C49.9896 137.178 50.4644 137.649 50.4148 138.362C50.3794 138.865 50.0994 139.198 50.0038 139.304C50.305 140.396 50.6097 141.483 50.9109 142.575C50.2093 143.039 48.6573 143.925 46.5454 143.96C45.4965 143.978 44.6213 143.783 43.9941 143.585C44.2138 142.44 44.4299 141.296 44.6496 140.151C44.2669 139.495 43.8665 138.723 43.5051 137.837C43.3917 137.564 43.2925 137.299 43.1968 137.04C42.8956 136.193 43.2216 135.229 44.0118 134.8C44.0189 134.797 44.0224 134.793 44.0295 134.79C44.4795 134.549 44.9083 134.435 45.4859 134.35C46.8926 134.141 47.5411 134.326 48.6785 134.283C49.8089 134.241 50.638 134.003 51.3326 133.805L52.2432 136.016Z" fill="url(#paint9_linear)"/>
<path d="M54.1457 165.199C53.8658 165.224 53.5788 165.221 53.2953 165.214C53.0969 165.206 52.8736 165.061 52.7071 164.93C52.5335 164.788 52.3208 164.7 52.1011 164.668C52.0799 164.664 52.0622 164.661 52.0445 164.657C52.0374 164.834 52.0196 164.98 52.0055 165.079C51.9913 165.313 52.0126 165.607 52.2075 165.77C52.4519 165.975 52.7177 165.752 53.4583 165.759C54.0997 165.766 54.3442 165.94 54.8863 165.788C55.0174 165.749 55.3115 165.667 55.3115 165.55C55.3115 165.384 54.7162 165.405 54.1457 165.199Z" fill="#172B4D"/>
<path d="M48.0048 164.665C47.934 164.647 47.8702 164.637 47.7178 164.63C47.6434 164.626 47.608 164.626 47.5548 164.626C47.4911 164.626 47.4344 164.63 47.3847 164.633C47.53 164.661 47.6434 164.715 47.6505 164.778C47.6576 164.846 47.5336 164.906 47.3635 164.991C47.2749 165.033 47.2288 165.051 47.1828 165.044C47.0446 165.03 47.041 164.878 46.8674 164.824C46.8355 164.814 46.7646 164.81 46.63 164.8C46.552 164.796 46.5237 164.796 46.4741 164.789C46.4032 164.778 46.3465 164.757 46.2579 164.732C46.2473 164.895 46.2367 165.044 46.2225 165.175C46.1871 165.544 46.4138 165.636 46.4705 165.671C46.6548 165.785 46.8887 165.714 47.0091 165.678C47.1899 165.625 47.2147 165.569 47.4308 165.452C47.8773 165.211 48.1997 165.228 48.3911 164.963C48.4194 164.924 48.4478 164.878 48.4336 164.832C48.4301 164.803 48.4053 164.761 48.0048 164.665Z" fill="#172B4D"/>
<path d="M46.5127 128.844C46.7112 129.014 46.9096 129.184 47.108 129.354C46.938 129.651 46.7679 129.953 46.5978 130.25C46.3675 130.746 46.1832 131.384 46.4383 131.923C46.6828 132.444 47.1328 132.44 47.2923 132.947C47.4836 133.567 46.9061 133.857 46.9947 134.644C47.0726 135.328 47.5368 135.363 47.6502 135.991C47.7955 136.784 47.2817 137.964 46.2293 138.29C45.3647 138.56 44.5142 138.131 44.0678 137.638C43.6992 137.231 43.5894 136.763 43.5398 136.547C43.352 135.739 43.6815 135.505 43.4902 134.704C43.3272 134.02 43.065 134.077 43.0189 133.524C42.9622 132.826 43.3874 132.741 43.352 131.905C43.3378 131.554 43.2492 131.313 43.3307 130.853C43.3307 130.853 43.3874 130.562 43.4973 130.293C43.7878 129.573 45.1095 128.347 46.5127 128.844Z" fill="#172B4D"/>
<path d="M36.6429 141.61L35.7606 142.351L34.609 142.287L33.9924 142.439L33.6133 142.049L34.4035 141.571L35.0165 141.117L33.9357 141.096L33.8755 140.877L35.7748 140.558L36.3807 140.884L36.6429 141.61Z" fill="#9C7761"/>
</g>
<defs>
<linearGradient id="paint0_linear" x1="66.5105" y1="70.708" x2="104.054" y2="5.68104" gradientUnits="userSpaceOnUse">
<stop offset="0.4411" stop-color="#00B8D9"/>
<stop offset="0.4567" stop-color="#07BBDB"/>
<stop offset="0.5515" stop-color="#30C9E3"/>
<stop offset="0.6445" stop-color="#50D4E9"/>
<stop offset="0.734" stop-color="#67DCEE"/>
<stop offset="0.8186" stop-color="#74E0F1"/>
<stop offset="0.8929" stop-color="#79E2F2"/>
</linearGradient>
<linearGradient id="paint1_linear" x1="82.2671" y1="156.375" x2="82.2671" y2="48.6159" gradientUnits="userSpaceOnUse">
<stop offset="0.3671" stop-color="#79E2F2"/>
<stop offset="0.7556" stop-color="#B3F5FF"/>
</linearGradient>
<linearGradient id="paint2_linear" x1="33.1819" y1="156.374" x2="33.1819" y2="48.6156" gradientUnits="userSpaceOnUse">
<stop offset="0.1161" stop-color="#00B8D9"/>
<stop offset="0.1404" stop-color="#07BBDB"/>
<stop offset="0.2877" stop-color="#30C9E3"/>
<stop offset="0.4322" stop-color="#50D4E9"/>
<stop offset="0.5714" stop-color="#67DCEE"/>
<stop offset="0.7028" stop-color="#74E0F1"/>
<stop offset="0.8184" stop-color="#79E2F2"/>
</linearGradient>
<linearGradient id="paint3_linear" x1="112.197" y1="144.71" x2="112.197" y2="133.945" gradientUnits="userSpaceOnUse">
<stop stop-color="#0052CC"/>
<stop offset="1" stop-color="#2684FF"/>
</linearGradient>
<linearGradient id="paint4_linear" x1="101.624" y1="153.002" x2="159.699" y2="52.413" gradientUnits="userSpaceOnUse">
<stop stop-color="#00B8D9"/>
<stop offset="0.0262" stop-color="#07BBDB"/>
<stop offset="0.1846" stop-color="#30C9E3"/>
<stop offset="0.3401" stop-color="#50D4E9"/>
<stop offset="0.4898" stop-color="#67DCEE"/>
<stop offset="0.6312" stop-color="#74E0F1"/>
<stop offset="0.7556" stop-color="#79E2F2"/>
</linearGradient>
<linearGradient id="paint5_linear" x1="86.0342" y1="139.81" x2="97.4535" y2="139.81" gradientUnits="userSpaceOnUse">
<stop stop-color="#00B8D9"/>
<stop offset="0.4105" stop-color="#00BDDD"/>
<stop offset="0.7845" stop-color="#00C7E5"/>
</linearGradient>
<linearGradient id="paint6_linear" x1="33.1536" y1="166.821" x2="122.198" y2="77.7771" gradientUnits="userSpaceOnUse">
<stop stop-color="white"/>
<stop offset="1" stop-color="white" stop-opacity="0"/>
</linearGradient>
<linearGradient id="paint7_linear" x1="33.1529" y1="191.783" x2="144.259" y2="80.6768" gradientUnits="userSpaceOnUse">
<stop stop-color="white"/>
<stop offset="1" stop-color="white" stop-opacity="0"/>
</linearGradient>
<linearGradient id="paint8_linear" x1="49.1666" y1="132.814" x2="49.1666" y2="57.1689" gradientUnits="userSpaceOnUse">
<stop stop-color="#79E2F2"/>
<stop offset="0.1744" stop-color="#92EAF8"/>
<stop offset="0.3543" stop-color="#A5F0FC"/>
<stop offset="0.5436" stop-color="#AFF4FE"/>
<stop offset="0.7556" stop-color="#B3F5FF"/>
</linearGradient>
<linearGradient id="paint9_linear" x1="50.1651" y1="143.02" x2="45.0661" y2="134.188" gradientUnits="userSpaceOnUse">
<stop offset="0.2509" stop-color="#344563"/>
<stop offset="0.407" stop-color="#3D4E6A"/>
<stop offset="1" stop-color="#5E6C84"/>
</linearGradient>
<clipPath id="clip0">
<rect width="155.306" height="166.737" fill="white" transform="translate(0.136719)"/>
</clipPath>
</defs>
</svg>
