<svg width="241" height="163" viewBox="0 0 241 163" fill="none" xmlns="http://www.w3.org/2000/svg">
<rect width="241" height="163" fill="white" fill-opacity="0.01"/>
<g opacity="0.25">
<path opacity="0.25" d="M27.5684 137.573L81.5512 130.726L241.001 144.165L165.007 155.568L27.5684 137.573Z" fill="url(#paint0_linear)"/>
</g>
<path d="M165.833 0L165.807 0.00430318V0L165.777 0.00430318V0L165.751 0.00430318V0L165.725 0.00430318V0L165.699 0.00430318V0L165.674 0.00430318V0L165.648 0.00430318V0L165.618 0.00430318V0L165.592 0.00430318V0L165.566 0.00430318V0L165.54 0.00430318V0L165.514 0.00430318V0L165.489 0.00430318V0L165.458 0.00430318V0L165.433 0.00430318V0L165.407 0.00430318V0L165.381 0.00430318V0L165.355 0.00430318V0L165.325 0.00430318V0L165.299 0.00430318V0L165.273 0.00430318V0L165.248 0.00430318V0L165.222 0.00430318V0L165.196 0.00430318V0L165.166 0.00430318V0L165.14 0.00430318V0L165.114 0.00430318V0L165.089 0.00430318V0L165.063 0.00430318V0L165.037 0.00430318V0L165.007 0.00430318V0L164.981 0.00430318V0L164.955 0.00430318V0L164.929 0.00430318V0L164.904 0.00430318V0L164.878 0.00430318V0L164.848 0.00430318V0L164.822 0.00430318V0L164.796 0.00430318V0L164.77 0.00430318V0L164.744 0.00430318V0L164.719 0.00430318V0L164.688 0.00430318V0L164.663 0.00430318V0L164.637 0.00430318V0L164.611 0.00430318V0L164.585 0.00430318V0L164.559 0.00430318V0L164.529 0.00430318V0L164.504 0.00430318V0L164.478 0.00430318V0L164.452 0.00430318V0L164.426 0.00430318V0L164.4 0.00430318V0L164.37 0.00430318V0L164.344 0.00430318V0L164.319 0.00430318V0L164.293 0.00430318V0L164.267 0.00430318V0L164.241 0.00430318V0L164.211 0.00430318V0L164.185 0.00430318V0L164.159 0.00430318V0L164.134 0.00430318V0L164.108 0.00430318V0L164.082 0.00430318V0L164.052 0.00430318V0L164.026 0.00430318V0L164 0.00430318V0L163.974 0.00430318V0L163.949 0.00430318V0L163.923 0.00430318V0L163.893 0.00430318V0L163.867 0.00430318V0L163.841 0.00430318V0L163.815 0.00430318V0L163.79 0.00430318V0L163.764 0.00430318V0L163.734 0.00430318V0L163.708 0.00430318V0L0 21.4341V134.134L163.708 155.568V155.564L163.734 155.568V155.564L163.764 155.568V155.564L163.79 155.568V155.564L163.815 155.568V155.564L163.841 155.568V155.564L163.867 155.568V155.564L163.893 155.568V155.564L163.923 155.568V155.564L163.949 155.568V155.564L163.974 155.568V155.564L164 155.568V155.564L164.026 155.568V155.564L164.052 155.568V155.564L164.082 155.568V155.564L164.108 155.568V155.564L164.134 155.568V155.564L164.159 155.568V155.564L164.185 155.568V155.564L164.211 155.568V155.564L164.241 155.568V155.564L164.267 155.568V155.564L164.293 155.568V155.564L164.319 155.568V155.564L164.344 155.568V155.564L164.37 155.568V155.564L164.4 155.568V155.564L164.426 155.568V155.564L164.452 155.568V155.564L164.478 155.568V155.564L164.504 155.568V155.564L164.529 155.568V155.564L164.559 155.568V155.564L164.585 155.568V155.564L164.611 155.568V155.564L164.637 155.568V155.564L164.663 155.568V155.564L164.688 155.568V155.564L164.719 155.568V155.564L164.744 155.568V155.564L164.77 155.568V155.564L164.796 155.568V155.564L164.822 155.568V155.564L164.848 155.568V155.564L164.878 155.568V155.564L164.904 155.568V155.564L164.929 155.568V155.564L164.955 155.568V155.564L164.981 155.568V155.564L165.007 155.568V155.564L165.037 155.568V155.564L165.063 155.568V155.564L165.089 155.568V155.564L165.114 155.568V155.564L165.14 155.568V155.564L165.166 155.568V155.564L165.196 155.568V155.564L165.222 155.568V155.564L165.248 155.568V155.564L165.273 155.568V155.564L165.299 155.568V155.564L165.325 155.568V155.564L165.355 155.568V155.564L165.381 155.568V155.564L165.407 155.568V155.564L165.433 155.568V155.564L165.458 155.568V155.564L165.489 155.568V155.564L165.514 155.568V155.564L165.54 155.568V155.564L165.566 155.568V155.564L165.592 155.568V155.564L165.618 155.568V155.564L165.648 155.568V155.564L165.674 155.568V155.564L165.699 155.568V155.564L165.725 155.568V155.564L165.751 155.568V155.564L165.777 155.568V155.564L165.807 155.568V155.564L165.833 155.568V0Z" fill="#0065FF"/>
<path d="M165.036 155.568L1.32422 134.134V21.4341L165.036 0V155.568Z" fill="url(#paint1_linear)"/>
<path d="M165.007 155.568L1.29883 134.134V21.4341L165.007 0V155.568Z" fill="url(#paint2_linear)"/>
<path d="M164.981 155.568L1.27344 134.134V21.4341L164.981 0V155.568Z" fill="url(#paint3_linear)"/>
<path d="M164.956 155.568L1.24805 134.134V21.4341L164.956 0V155.568Z" fill="url(#paint4_linear)"/>
<path d="M164.928 155.568L1.2207 134.134V21.4341L164.928 0V155.568Z" fill="url(#paint5_linear)"/>
<path d="M164.903 155.568L1.19531 134.134V21.4341L164.903 0V155.568Z" fill="url(#paint6_linear)"/>
<path d="M164.878 155.568L1.16602 134.134V21.4341L164.878 0V155.568Z" fill="url(#paint7_linear)"/>
<path d="M164.848 155.568L1.14062 134.134V21.4341L164.848 0V155.568Z" fill="url(#paint8_linear)"/>
<path d="M164.821 155.568L1.11328 134.134V21.4341L164.821 0V155.568Z" fill="url(#paint9_linear)"/>
<path d="M164.796 155.568L1.08789 134.134V21.4341L164.796 0V155.568Z" fill="url(#paint10_linear)"/>
<path d="M164.77 155.568L1.0625 134.134V21.4341L164.77 0V155.568Z" fill="url(#paint11_linear)"/>
<path d="M164.745 155.568L1.03711 134.134V21.4341L164.745 0V155.568Z" fill="url(#paint12_linear)"/>
<path d="M164.718 155.568L1.00586 134.134V21.4341L164.718 0V155.568Z" fill="url(#paint13_linear)"/>
<path d="M164.688 155.568L0.980469 134.134V21.4341L164.688 0V155.568Z" fill="url(#paint14_linear)"/>
<path d="M164.663 155.568L0.955078 134.134V21.4341L164.663 0V155.568Z" fill="url(#paint15_linear)"/>
<path d="M164.637 155.568L0.929688 134.134V21.4341L164.637 0V155.568Z" fill="url(#paint16_linear)"/>
<path d="M164.61 155.568L0.902344 134.134V21.4341L164.61 0V155.568Z" fill="url(#paint17_linear)"/>
<path d="M164.585 155.568L0.876953 134.134V21.4341L164.585 0V155.568Z" fill="url(#paint18_linear)"/>
<path d="M164.56 155.568L0.847656 134.134V21.4341L164.56 0V155.568Z" fill="url(#paint19_linear)"/>
<path d="M164.53 155.568L0.822266 134.134V21.4341L164.53 0V155.568Z" fill="url(#paint20_linear)"/>
<path d="M164.503 155.568L0.794922 134.134V21.4341L164.503 0V155.568Z" fill="url(#paint21_linear)"/>
<path d="M164.477 155.568L0.769531 134.134V21.4341L164.477 0V155.568Z" fill="url(#paint22_linear)"/>
<path d="M164.452 155.568L0.744141 134.134V21.4341L164.452 0V155.568Z" fill="url(#paint23_linear)"/>
<path d="M164.426 155.568L0.71875 134.134V21.4341L164.426 0V155.568Z" fill="url(#paint24_linear)"/>
<path d="M164.4 155.568L0.6875 134.134V21.4341L164.4 0V155.568Z" fill="url(#paint25_linear)"/>
<path d="M164.37 155.568L0.662109 134.134V21.4341L164.37 0V155.568Z" fill="url(#paint26_linear)"/>
<path d="M164.344 155.568L0.636719 134.134V21.4341L164.344 0V155.568Z" fill="url(#paint27_linear)"/>
<path d="M164.319 155.568L0.611328 134.134V21.4341L164.319 0V155.568Z" fill="url(#paint28_linear)"/>
<path d="M164.294 155.568L0.585938 134.134V21.4341L164.294 0V155.568Z" fill="url(#paint29_linear)"/>
<path d="M164.266 155.568L0.558594 134.134V21.4341L164.266 0V155.568Z" fill="url(#paint30_linear)"/>
<path d="M164.241 155.568L0.529297 134.134V21.4341L164.241 0V155.568Z" fill="url(#paint31_linear)"/>
<path d="M164.212 155.568L0.503906 134.134V21.4341L164.212 0V155.568Z" fill="url(#paint32_linear)"/>
<path d="M164.184 155.568L0.476562 134.134V21.4341L164.184 0V155.568Z" fill="url(#paint33_linear)"/>
<path d="M164.159 155.568L0.451172 134.134V21.4341L164.159 0V155.568Z" fill="url(#paint34_linear)"/>
<path d="M164.134 155.568L0.425781 134.134V21.4341L164.134 0V155.568Z" fill="url(#paint35_linear)"/>
<path d="M164.108 155.568L0.400391 134.134V21.4341L164.108 0V155.568Z" fill="url(#paint36_linear)"/>
<path d="M164.081 155.568L0.369141 134.134V21.4341L164.081 0V155.568Z" fill="url(#paint37_linear)"/>
<path d="M164.052 155.568L0.34375 134.134V21.4341L164.052 0V155.568Z" fill="url(#paint38_linear)"/>
<path d="M164.026 155.568L0.318359 134.134V21.4341L164.026 0V155.568Z" fill="url(#paint39_linear)"/>
<path d="M164.001 155.568L0.292969 134.134V21.4341L164.001 0V155.568Z" fill="url(#paint40_linear)"/>
<path d="M163.975 155.568L0.267578 134.134V21.4341L163.975 0V155.568Z" fill="url(#paint41_linear)"/>
<path d="M163.948 155.568L0.240234 134.134V21.4341L163.948 0V155.568Z" fill="url(#paint42_linear)"/>
<path d="M163.923 155.568L0.210938 134.134V21.4341L163.923 0V155.568Z" fill="url(#paint43_linear)"/>
<path d="M163.893 155.568L0.185547 134.134V21.4341L163.893 0V155.568Z" fill="url(#paint44_linear)"/>
<path d="M163.866 155.568L0.158203 134.134V21.4341L163.866 0V155.568Z" fill="url(#paint45_linear)"/>
<path d="M163.841 155.568L0.132812 134.134V21.4341L163.841 0V155.568Z" fill="url(#paint46_linear)"/>
<path d="M163.815 155.568L0.107422 134.134V21.4341L163.815 0V155.568Z" fill="url(#paint47_linear)"/>
<path d="M163.79 155.568L0.0820312 134.134V21.4341L163.79 0V155.568Z" fill="url(#paint48_linear)"/>
<path d="M163.763 155.568L0.0507812 134.134V21.4341L163.763 0V155.568Z" fill="url(#paint49_linear)"/>
<path d="M163.733 155.568L0.0253906 134.134V21.4341L163.733 0V155.568Z" fill="url(#paint50_linear)"/>
<path d="M163.708 155.568L0 134.134V21.4341L163.708 0V155.568Z" fill="url(#paint51_linear)"/>
<path d="M165.941 0.00427246H163.713V155.573H165.941V0.00427246Z" fill="#0065FF"/>
<path d="M163.732 0.00427246L108.906 7.18197V129.788L163.706 137.327L163.732 0.00427246Z" fill="url(#paint52_linear)"/>
<path d="M147.727 122.907L159.216 123.811L160.579 117.227L149.026 116.517L147.727 122.907Z" fill="url(#paint53_linear)"/>
<path d="M149.186 115.725L160.743 116.44L162.116 109.821L150.489 109.296L149.186 115.725Z" fill="url(#paint54_linear)"/>
<path d="M146.281 130.055L157.697 131.139L159.052 124.598L147.567 123.699L146.281 130.055Z" fill="url(#paint55_linear)"/>
<path d="M126.307 59.3407C123.119 59.5129 120.564 62.1163 120.564 65.1586C120.564 68.201 123.119 70.5849 126.307 70.4817C129.533 70.3784 132.178 67.7707 132.178 64.6595C132.178 61.5483 129.533 59.1686 126.307 59.3407Z" fill="url(#paint56_linear)"/>
<path d="M126.307 37.799C129.533 37.5236 132.178 34.7782 132.178 31.667C132.178 28.5558 129.533 26.3139 126.307 26.6581C123.119 26.9981 120.564 29.7349 120.564 32.7815C120.564 35.8239 123.119 38.0701 126.307 37.799Z" fill="url(#paint57_linear)"/>
<path d="M152.119 101.241L163.707 101.572V100.647L152.283 100.436L152.119 101.241Z" fill="url(#paint58_linear)"/>
<path d="M108.906 99.6357L151.469 100.419L152.282 100.436L163.706 100.647V98.0091L108.906 96.9935V99.6357Z" fill="url(#paint59_linear)"/>
<path d="M163.708 54.7407L116.035 56.5523V77.0871L163.708 76.1146V51.3584V54.7407ZM126.307 70.4817C123.12 70.585 120.565 68.201 120.565 65.1587C120.565 62.1163 123.12 59.5129 126.307 59.3408C129.533 59.1687 132.178 61.5483 132.178 64.6595C132.178 67.7707 129.533 70.3784 126.307 70.4817Z" fill="url(#paint60_linear)"/>
<path d="M163.708 54.7407L116.035 56.5523V77.0871L163.708 76.1146V51.3584V54.7407ZM126.307 70.4817C123.12 70.585 120.565 68.201 120.565 65.1587C120.565 62.1163 123.12 59.5129 126.307 59.3408C129.533 59.1687 132.178 61.5483 132.178 64.6595C132.178 67.7707 129.533 70.3784 126.307 70.4817Z" fill="url(#paint61_linear)"/>
<path d="M116.039 44.951L163.712 41.4611V16.705L116.039 22.2776V44.951ZM126.307 26.6582C129.533 26.3139 132.178 28.5559 132.178 31.6671C132.178 34.7783 129.533 37.5237 126.307 37.7991C123.119 38.0702 120.564 35.8197 120.564 32.7773C120.564 29.735 123.119 26.9982 126.307 26.6582Z" fill="url(#paint62_linear)"/>
<path d="M116.039 44.951L163.712 41.4611V16.705L116.039 22.2776V44.951ZM126.307 26.6582C129.533 26.3139 132.178 28.5559 132.178 31.6671C132.178 34.7783 129.533 37.5237 126.307 37.7991C123.119 38.0702 120.564 35.8197 120.564 32.7773C120.564 29.735 123.119 26.9982 126.307 26.6582Z" fill="url(#paint63_linear)"/>
<path d="M47.6901 15.1902V85.2502C47.6901 85.616 47.3933 85.9129 47.0277 85.9129C46.662 85.9129 46.3652 85.616 46.3652 85.2502V15.3666L47.6901 15.1902Z" fill="#5E6C84"/>
<path d="M26.207 25.208L67.8448 20.3411V66.8111L26.207 67.6631V25.208Z" fill="#FFC400"/>
<path d="M67.0499 21.2319V66.0322L46.9966 66.441L27.0079 66.8498V25.9137L47.216 23.5513L67.0499 21.2319ZM68.6414 19.446L47.0267 21.972L25.4121 24.498V68.4764L47.0267 68.0332L68.6414 67.59V19.446Z" fill="white"/>
<path d="M109.265 91.1412L108.907 91.1757L82.9785 93.5252L163.708 93.5295V91.1412H109.265Z" fill="#FFC400"/>
<path d="M82.9771 93.5252H82.8438V96.5116L108.906 96.9936L163.706 98.0091V93.5295L82.9771 93.5252Z" fill="#FFD740"/>
<path d="M25.4414 118.57V74.5267L68.6406 74.6429V122.86L25.4414 118.57Z" fill="#00C7E5"/>
<path d="M26.238 75.3228L47.0182 75.3787L67.8413 75.4347V121.978L26.238 117.851V75.3228ZM24.6465 73.7263V119.293L69.4372 123.738V73.8511L47.0268 73.7909L24.6465 73.7263Z" fill="white"/>
<path d="M152.282 100.436L151.469 100.423L144.492 134.844L145.288 134.948L146.118 130.847L157.534 131.931L156.605 136.411L157.401 136.514L163.707 106.082V101.572L152.119 101.241L152.282 100.436ZM157.698 131.139L146.282 130.055L147.568 123.699L159.053 124.598L157.698 131.139ZM159.216 123.811L147.727 122.912L149.022 116.517L160.58 117.231L159.216 123.811ZM160.743 116.44L149.181 115.725L150.484 109.296L162.111 109.821L160.743 116.44ZM163.659 102.368L162.279 109.025L150.648 108.5L151.959 102.037L163.659 102.368Z" fill="url(#paint64_linear)"/>
<path d="M14.9818 136.097L0 134.134V21.4342L14.9818 19.4719V136.097Z" fill="#0065FF"/>
<path d="M92.8975 60.7437C93.4954 60.7695 94.0933 60.7996 94.6912 60.8254L94.6955 61.5182C94.6955 61.6473 94.7686 61.7635 94.8848 61.8237L95.4525 62.1164C95.302 62.3358 94.9794 62.736 94.4245 63.0114C94.1191 63.162 93.7191 63.36 93.2287 63.261C92.5147 63.1147 92.1405 62.4477 92.0759 62.3358C92.0028 62.2024 91.9555 62.0862 91.9297 62.0002C92.1405 61.9658 92.3512 61.927 92.5663 61.8926C92.7513 61.8625 92.8932 61.7076 92.9061 61.5182C92.9104 61.4193 92.9147 61.3203 92.9147 61.2127C92.919 61.0492 92.9104 60.89 92.8975 60.7437Z" fill="#A27F68"/>
<path d="M106.306 71.0024C106.121 70.8604 106.224 70.4645 106.345 70.245C106.388 70.1676 106.581 69.8405 106.968 69.7459C107.321 69.6598 107.429 69.8577 107.932 69.8448C108.422 69.8319 108.702 69.634 108.766 69.72C108.822 69.7975 108.663 70.0083 108.483 70.1504C108.143 70.4128 107.919 70.2579 107.51 70.4817C107.188 70.6624 107.214 70.8303 106.857 70.9637C106.736 71.011 106.461 71.1143 106.306 71.0024Z" fill="#A27F68"/>
<path d="M107.48 70.3526C107.548 70.3612 107.617 70.3741 107.682 70.3913C108.159 70.5161 108.508 70.5549 108.779 70.4989C109.067 70.443 109.394 70.3268 109.437 70.3741C109.536 70.4903 109.071 70.7958 109.071 70.8948C109.071 70.9938 109.183 71.0411 109.063 71.1573C108.942 71.2735 108.813 71.4284 108.624 71.5015C108.435 71.5747 107.875 71.6177 107.204 71.5188C106.8 71.4585 106.073 71.2261 106.047 70.8604C106.034 70.6194 106.34 70.4085 106.503 70.3096C106.813 70.3483 107.161 70.3225 107.48 70.3526Z" fill="#A27F68"/>
<path d="M91.0682 90.8874C91.0467 91.0638 91.0037 91.2575 90.9177 91.4597C90.6467 92.1224 90.109 92.5011 89.7434 92.6947C89.5627 92.7894 89.438 92.9615 89.4079 93.1638L89.3691 93.4133H90.1305C90.4574 93.3918 91.4682 93.0734 91.4682 93.0734L91.8554 92.8066L92.1651 92.9142L92.6425 92.7636L92.707 91.0638L91.0682 90.8874Z" fill="#091E42"/>
<path d="M95.8125 91.038V92.4968C96.0061 92.5957 96.2039 92.6947 96.3975 92.7937C96.7975 93.0002 97.1933 93.2068 97.5933 93.4134C97.8729 93.3101 98.1525 93.2111 98.4321 93.1078C98.4579 92.9959 98.4966 92.7722 98.4235 92.5097C98.3073 92.0966 97.9933 91.8814 97.9073 91.8298C97.8643 91.5544 97.817 91.2833 97.7739 91.0079C97.1158 91.0165 96.4663 91.0294 95.8125 91.038Z" fill="#091E42"/>
<path d="M96.7984 83.5805C96.7683 81.3945 96.7425 79.2042 96.7123 77.0182C96.9876 75.9768 97.3662 73.8855 96.2392 72.2675C96.1575 72.147 96.0628 72.0308 95.9596 71.9146C94.3423 71.7812 92.7249 71.6435 91.1076 71.5101C90.7463 73.3648 90.5441 74.6816 90.4065 75.8348C90.4065 75.8348 90.2215 77.3797 90.1312 78.9116C89.8516 83.6623 90.8065 90.4742 90.8968 91.0939C91.0474 91.1757 91.3012 91.2789 91.6281 91.3048C92.1442 91.3435 92.5357 91.1584 92.6991 91.0724C92.6217 88.1333 92.54 85.1985 92.4625 82.2595C92.6862 80.8696 92.8884 79.4237 93.0561 77.9262C93.1293 77.2721 93.1938 76.6266 93.254 75.9941C93.5766 78.0854 93.8605 79.7722 94.0541 80.8954C94.3724 82.75 94.5487 83.7269 94.9875 86.2528C95.3273 88.1979 95.6069 89.8374 95.809 91.0466C95.8736 91.1025 96.3897 91.5414 97.0608 91.4037C97.4264 91.3306 97.663 91.1197 97.7662 91.0164C97.4479 88.5335 97.121 86.0549 96.7984 83.5805Z" fill="#1DB9D4"/>
<path d="M96.6217 75.9553C95.9549 76.0371 95.2882 76.1188 94.6172 76.2006C94.8323 78.8729 95.1764 81.7517 95.6968 84.8027C96.0969 87.1393 96.5571 89.3382 97.0604 91.3994C97.426 91.3263 97.6626 91.1154 97.7658 91.0121C97.4432 88.5335 97.1163 86.0592 96.7937 83.5806C96.7636 81.3945 96.7378 79.2042 96.7077 77.0182C96.7163 76.9838 96.7249 76.9451 96.7378 76.9063L96.6217 75.9553Z" fill="url(#paint65_linear)"/>
<path d="M90.8789 81.9066L91.4037 91.266C91.4725 91.2789 91.5499 91.2919 91.6273 91.2962C92.1435 91.3349 92.5349 91.1499 92.6984 91.0638C92.621 88.1247 92.5392 85.1857 92.4618 82.2509C92.4833 82.1089 92.5048 81.9583 92.5263 81.8163L90.8789 81.9066Z" fill="url(#paint66_linear)"/>
<path d="M90.888 62.0131C91.3439 61.9614 91.7612 61.9528 92.1397 61.9657C92.3246 62.1206 92.7763 62.4563 93.4473 62.538C94.4194 62.6542 95.1249 62.1378 95.2797 62.0174C95.383 62.0432 95.5421 62.0862 95.74 62.1378C96.0239 62.211 96.0669 62.2153 96.1099 62.2325C97.1982 62.6628 97.0949 63.4589 97.0605 64.6552C96.8841 65.5503 96.7293 66.5529 96.639 67.6459C96.5314 68.911 96.5228 70.0729 96.5658 71.0971C96.6304 71.2132 96.7594 71.4929 96.6648 71.7813C96.6648 71.7813 96.5787 72.0567 96.2346 72.2632C95.7185 72.5773 93.7183 72.3751 91.103 71.7684C90.9267 71.6393 90.8923 71.5489 90.9009 71.4843C90.9181 71.3595 91.0987 71.3122 91.0901 71.2003C91.0858 71.1186 90.9869 71.1057 90.9568 71.0067C90.9181 70.869 91.0557 70.7184 91.0772 70.6926C91.4902 70.2063 91.0901 65.0855 91.0299 64.3023C91.0256 64.2679 91.0256 64.2507 91.0213 64.2206C90.9138 63.3772 89.7094 62.878 88.5996 62.5768C89.1889 62.3444 89.9632 62.112 90.888 62.0131Z" fill="#189CB3"/>
<path d="M89.5291 38.7286C89.4947 38.4962 89.099 38.3972 88.8452 38.3972C88.7549 38.3972 88.3807 38.4101 88.1097 38.7027C87.8645 38.9695 87.9849 39.1632 87.7312 39.5978C87.486 40.0238 87.1763 40.1744 87.2236 40.2734C87.2623 40.3595 87.5247 40.3207 87.7355 40.2304C88.1269 40.0582 88.1011 39.7871 88.4925 39.5376C88.8065 39.3396 88.9399 39.4429 89.228 39.1976C89.3313 39.1115 89.555 38.9179 89.5291 38.7286Z" fill="#A27F68"/>
<path d="M86.6562 65.2533L91.5212 64.4486L91.6287 62.0733C91.3448 62.0561 90.962 62.0474 90.506 62.0948C90.2307 62.1249 89.3317 62.2325 88.2736 62.7274C87.8692 62.9167 87.3359 63.2093 86.7724 63.6654C86.7337 64.1904 86.695 64.724 86.6562 65.2533Z" fill="#189CB3"/>
<path d="M95.8184 65.632C96.3431 66.7293 96.984 67.9213 97.7712 69.1649C98.3777 70.1245 98.9928 70.9895 99.5907 71.764C100.008 71.3939 100.425 71.0282 100.842 70.6581C100.335 69.2036 99.6423 67.5598 98.696 65.817C98.0422 64.6121 97.3626 63.5407 96.7045 62.6069C96.4077 63.6138 96.1109 64.6208 95.8184 65.632Z" fill="#189CB3"/>
<path d="M106.404 69.6942V71.2692C105.38 71.4757 104.201 71.6522 102.894 71.7425C101.681 71.8243 100.571 71.8157 99.5859 71.764C99.7064 71.1229 99.8311 70.4817 99.9516 69.8362L106.404 69.6942Z" fill="#189CB3"/>
<path d="M11.4496 29.7177C11.4496 32.3513 9.60001 34.6664 7.33747 34.8901C5.10073 35.1096 3.30273 33.1904 3.30273 30.6042C3.30273 28.018 5.10073 25.7115 7.33747 25.4404C9.60001 25.1693 11.4496 27.0842 11.4496 29.7177Z" fill="white"/>
<path d="M97.3155 38.3413L96.7864 41.7064C96.6573 42.5111 96.6875 43.3373 96.8638 44.1333L99.5909 56.2726H103.587L105.101 41.7064C105.084 41.2244 104.963 38.9523 103.239 37.6786C102.881 37.4161 102.516 37.2397 102.167 37.1149C100.546 37.5237 98.9328 37.9325 97.3155 38.3413Z" fill="#0065FF"/>
<path d="M100.679 56.2726H103.587L105.101 41.7064C105.092 41.3879 105.032 40.2777 104.49 39.1976L99.3281 39.615L100.679 56.2726Z" fill="url(#paint67_linear)"/>
<path d="M102.816 60.3865C102.885 60.6533 102.979 61.0707 103.053 61.5871C103.182 62.4994 103.272 63.1362 103.027 63.2653C102.739 63.4159 102.111 62.8135 101.784 62.366C101.526 62.0088 101.397 61.6645 101.332 61.4365C101.354 60.9115 101.371 60.3908 101.392 59.8658C101.573 59.5904 101.887 59.4441 102.184 59.4957C102.562 59.5603 102.855 59.9433 102.816 60.3865Z" fill="#344563"/>
<path d="M96.8923 27.3123C96.7891 27.9534 96.9139 28.4827 97.0085 28.7796C96.8149 28.9259 96.5009 29.2057 96.2557 29.6575C96.1654 29.8296 95.7697 30.5569 95.9632 31.3831C96.1267 32.0759 96.5396 32.1318 96.5052 32.6181C96.4708 33.1259 96.0063 33.2205 95.7353 33.9133C95.5288 34.434 95.5675 34.9547 95.6191 35.1699C96.0751 36.9772 103.22 37.3301 103.783 35.768C103.878 35.5098 103.951 34.7438 103.551 34.2619C103.349 34.0209 103.142 33.9865 103.086 33.7584C103 33.4013 103.435 33.1646 103.723 32.6568C104.102 31.9898 104.136 31.0216 103.723 30.303C103.263 29.4983 102.39 29.2573 102.157 29.2057C102.269 28.827 102.441 28.0223 102.153 27.1014C102.058 26.8002 101.645 25.4705 100.346 25.0144C100.17 24.9541 99.3614 24.6916 98.4925 25.0617C97.1934 25.6125 96.9311 27.0756 96.8923 27.3123Z" fill="#344563"/>
<path d="M98.2261 29.9458C98.2261 29.9458 98.6047 29.6919 99.3316 29.6919C100.059 29.6919 100.639 29.9974 100.639 29.9974L100.751 30.6601L98.6133 31.6757L97.8906 30.7591L98.2261 29.9458Z" fill="#0052CC"/>
<path d="M98.3644 30.1653C98.4547 30.0276 98.502 29.8641 98.5321 29.7048C98.5923 29.4079 98.6138 29.0981 98.5278 28.8055C98.8246 28.8829 99.1343 28.827 99.4397 28.8012C99.7838 28.771 100.128 28.771 100.472 28.7754C100.472 28.9991 100.468 29.2186 100.468 29.4423C100.468 29.6489 100.463 29.8554 100.532 30.0491C100.601 30.2427 100.747 30.4192 100.945 30.4665C100.722 30.5224 100.515 30.6429 100.296 30.7161C100.094 30.7892 99.8785 30.8194 99.6634 30.8452C99.4526 30.871 99.2375 30.8882 99.0268 30.8624C98.859 30.8409 98.6999 30.7892 98.5321 30.7634C98.4074 30.7462 98.2826 30.7376 98.1622 30.6946C98.0418 30.6515 97.8783 30.5353 98.0245 30.4321C98.1579 30.3503 98.274 30.303 98.3644 30.1653Z" fill="url(#paint68_linear)"/>
<path d="M102.132 30.7893C102.222 31.254 100.906 32.1232 99.5766 32.1534C98.1744 32.1835 96.8065 31.2798 96.8925 30.8323C96.957 30.4966 97.8431 30.4106 98.6432 30.3331C99.8046 30.2212 102.02 30.2212 102.132 30.7893Z" fill="#D4B696"/>
<path d="M89.2539 38.3413C90.226 38.3542 91.6197 38.2337 93.1209 37.6011C93.865 37.287 94.9404 36.8223 95.8609 35.7508C96.033 35.5528 96.2523 35.2043 96.6954 34.5158C97.8525 32.7084 97.8912 32.2394 97.7922 31.8865C97.7707 31.8177 97.6245 31.3314 97.2202 31.1722C96.8803 31.0388 96.5319 31.198 96.3986 31.2583C95.4738 31.6929 95.4738 32.7859 94.3984 34.4426C94.1876 34.7696 93.9984 35.0192 93.8822 35.1655C92.3595 35.7637 90.8325 36.3575 89.3098 36.9557C89.2883 37.4161 89.2711 37.8808 89.2539 38.3413Z" fill="#0052CC"/>
<path d="M100.643 29.9975C100.695 30.1997 100.734 30.4837 100.596 30.729C100.48 30.927 100.321 31.0044 100.119 31.1249C99.8993 31.254 99.6284 31.4993 99.409 32.0114C99.224 31.4003 98.9616 31.1722 98.7423 31.0862C98.553 31.0087 98.424 30.9915 98.3035 30.8581C98.0971 30.63 98.1487 30.2471 98.2304 29.9415C97.9121 30.0835 97.5465 30.2729 97.1679 30.5354C96.4969 30.9958 96.0195 31.5079 95.7012 31.9167C95.9162 31.779 96.1743 31.6413 96.2862 31.7316C96.4324 31.8478 96.2388 32.2394 96.17 32.7429C96.127 33.0742 96.1657 33.5476 96.5486 34.1759C96.8324 34.5674 97.4691 35.5701 97.4949 36.9772C97.5078 37.8077 97.3013 38.4704 97.1335 38.8792C99.0262 38.819 100.919 38.7587 102.816 38.6942C102.562 38.251 101.891 36.9471 102.183 35.3162C102.304 34.6363 102.558 34.0984 102.781 33.724C102.919 33.3023 103.044 32.7902 103.104 32.1964C103.138 31.8823 103.147 31.5939 103.143 31.3272C102.803 30.9011 102.463 30.6946 102.214 30.5827C101.977 30.4794 101.813 30.4579 101.345 30.2858C101.044 30.1739 100.803 30.0706 100.643 29.9975Z" fill="#0065FF"/>
<path d="M101.37 27.054C101.452 27.3854 101.405 27.7167 101.327 28.2847C101.271 28.6849 101.203 28.8657 101.138 28.9991C101.078 29.1196 100.897 29.4939 100.592 29.6575C100.007 29.9716 99.0819 29.4638 98.5916 28.8872C98.4539 28.728 97.8646 28.0309 98.0582 27.1315C98.2044 26.4473 98.798 25.6727 99.6712 25.6469C100.579 25.6211 101.22 26.4344 101.37 27.054Z" fill="#D4B696"/>
<path d="M96.6055 30.3503C96.6743 30.6257 97.027 30.7505 97.113 30.7806C97.6808 30.9829 98.4121 30.6903 98.7949 30.1524C99.1218 29.6919 99.2508 28.969 98.9799 28.6118C98.9282 28.543 98.8465 28.4655 98.8465 28.3493C98.8465 28.1385 99.1132 27.9836 99.3197 27.8631C100.49 27.2004 100.769 27.0799 100.971 26.7529C101.036 26.6496 101.186 26.4 101.126 26.1246C101.023 25.6642 100.404 25.4748 100.292 25.4404C99.5519 25.2166 98.696 25.548 98.1583 26.0557C97.1475 27.011 97.4098 28.444 97.4313 28.5645C97.4873 28.8442 97.5776 29.0637 97.6507 29.2143C96.9109 29.5112 96.5194 30.0017 96.6055 30.3503Z" fill="#344563"/>
<path d="M81.7441 60.4037L83.3787 66.1269L85.452 65.3609L83.7314 59.7668L81.7441 60.4037Z" fill="#189CB3"/>
<path d="M148.511 34.9505L88.373 39.8087V17.1396L148.511 9.38098V34.9505ZM97.6598 19.9453C93.9563 20.3799 90.9883 23.8913 90.9883 27.7943C90.9883 31.6973 93.9563 34.5804 97.6598 34.2318C101.406 33.879 104.478 30.3547 104.478 26.3656C104.478 22.3766 101.406 19.5064 97.6598 19.9453Z" fill="white"/>
<path d="M141.312 18.3316L108.561 22.0538V20.2379L141.312 16.3951V18.3316Z" fill="#0065FF"/>
<path d="M141.312 21.6407L108.561 25.1564V23.3404L141.312 19.7V21.6407Z" fill="#0065FF"/>
<path d="M131.306 25.9568L108.561 28.2547V26.4388L131.306 24.0548V25.9568Z" fill="#0065FF"/>
<path d="M141.281 69.5996L82.8457 70.9551V48.2859L141.281 44.0301V69.5996ZM91.8701 51.7715C88.3429 51.9867 85.5126 55.2614 85.5126 59.0869C85.5126 62.9124 88.3429 65.9117 91.8701 65.7826C95.4403 65.6492 98.3652 62.3702 98.3652 58.4586C98.3652 54.5471 95.4403 51.5563 91.8701 51.7715Z" fill="white"/>
<path d="M134.287 52.5633L102.461 54.3792V52.5633L134.287 50.6226V52.5633Z" fill="#0065FF"/>
<path d="M134.287 55.8724L102.461 57.4775V55.6616L134.287 53.9317V55.8724Z" fill="#0065FF"/>
<path d="M124.562 59.6076L102.461 60.5801V58.7641L124.562 57.7056V59.6076Z" fill="#0065FF"/>
<path d="M82.0499 59.3149C81.9208 59.302 81.852 59.1084 81.8219 59.0352C81.7187 58.7641 81.8176 58.4586 81.9638 58.2693C82.1015 58.0885 82.2176 58.0971 82.2821 57.9207C82.3424 57.7572 82.2907 57.6109 82.3596 57.5851C82.4112 57.5636 82.4929 57.6281 82.5359 57.6754C82.6564 57.8088 82.6478 58.0068 82.6262 58.1703C82.5617 58.635 82.3036 59.3451 82.0499 59.3149Z" fill="#A27F68"/>
<path d="M81.7657 59.6635C81.7184 59.4699 81.6667 59.2676 81.7141 59.0697C81.77 58.8373 81.9463 58.6566 82.1141 58.493C82.312 58.2994 82.5055 58.1101 82.7034 57.9164C82.755 57.8648 82.8195 57.8131 82.8883 57.8347C82.9615 57.8605 82.9529 58.024 82.9443 58.0972C82.9185 58.2779 82.8023 58.3984 82.7292 58.4629C82.9572 58.3295 83.2282 58.1961 83.297 58.2736C83.3099 58.2908 83.3271 58.3252 83.2798 58.4672C83.2368 58.5963 83.1421 58.8029 82.9443 59.018C83.0432 58.932 83.2927 58.7125 83.3916 58.7771C83.4002 58.7857 83.4432 58.8158 83.4303 58.9535C83.4002 59.2805 83.155 59.3967 82.8238 59.8873C82.712 60.0551 82.6991 60.1024 82.6044 60.1842C82.5829 60.2014 82.256 60.4897 82.0238 60.3864C81.8947 60.3262 81.8775 60.0981 81.7657 59.6635Z" fill="#A27F68"/>
<path d="M87.7539 39.9206L88.2099 40.4714C88.3131 40.5962 88.4679 40.6607 88.6314 40.6521L89.582 40.5833C89.7326 40.5703 89.8702 40.4929 89.9562 40.3724L90.481 39.6236L89.7498 39.714C89.7498 39.714 89.7283 39.3052 89.668 39.1847C89.6422 39.1374 89.539 39.047 89.4702 39.0944C89.4057 39.1417 89.3024 39.3655 89.3024 39.3655C89.3024 39.3655 89.3497 38.9911 89.2637 38.905C89.2035 38.8448 89.1347 38.8792 89.0744 38.9394C88.9884 39.0255 88.9583 39.3655 88.9583 39.3655C88.9583 39.3655 88.9067 39.0212 88.8465 38.961C88.782 38.8964 88.7045 38.9179 88.6314 38.9653C88.4679 39.0771 88.1668 39.6925 88.1668 39.6925L87.7539 39.9206Z" fill="#A27F68"/>
<path d="M105.818 38.5048L106.274 39.0556C106.378 39.1804 106.532 39.2449 106.696 39.2363L107.646 39.1675C107.797 39.1546 107.935 39.0771 108.021 38.9566L108.541 38.2079L107.81 38.2982C107.81 38.2982 107.788 37.8894 107.728 37.7689C107.702 37.7216 107.599 37.6312 107.53 37.6786C107.466 37.7259 107.363 37.9497 107.363 37.9497C107.363 37.9497 107.41 37.5753 107.324 37.4892C107.264 37.429 107.195 37.4634 107.135 37.5237C107.049 37.6097 107.018 37.9497 107.018 37.9497C107.018 37.9497 106.967 37.6054 106.907 37.5452C106.842 37.4806 106.765 37.5022 106.692 37.5495C106.528 37.6614 106.227 38.2767 106.227 38.2767L105.818 38.5048Z" fill="#A27F68"/>
<path d="M153.237 94.8377C153.233 94.8377 153.233 94.8377 153.228 94.8377L140.638 94.6871C140.298 94.6828 140.023 94.4031 140.027 94.0631C140.032 93.7232 140.311 93.4478 140.651 93.4521L153.241 93.6027C153.581 93.607 153.856 93.8867 153.852 94.2267C153.848 94.5666 153.573 94.8377 153.237 94.8377Z" fill="#42526E"/>
<path d="M151.681 102.338C151.677 102.338 151.668 102.338 151.664 102.338L139.151 101.981C138.811 101.972 138.54 101.688 138.553 101.344C138.562 101.004 138.85 100.72 139.19 100.746L151.703 101.103C152.042 101.112 152.313 101.396 152.301 101.74C152.292 102.071 152.017 102.338 151.681 102.338Z" fill="#42526E"/>
<path d="M150.136 109.796C150.127 109.796 150.119 109.796 150.106 109.796L137.666 109.236C137.326 109.219 137.06 108.931 137.077 108.591C137.094 108.251 137.387 107.988 137.722 108.001L150.162 108.56C150.502 108.578 150.768 108.866 150.751 109.206C150.738 109.533 150.467 109.796 150.136 109.796Z" fill="#42526E"/>
<path d="M148.6 117.21C148.587 117.21 148.574 117.21 148.561 117.21L136.195 116.448C135.855 116.427 135.597 116.134 135.618 115.794C135.64 115.454 135.924 115.192 136.272 115.218L148.639 115.979C148.979 116.001 149.237 116.293 149.215 116.633C149.194 116.96 148.923 117.21 148.6 117.21Z" fill="#42526E"/>
<path d="M147.074 124.59C147.057 124.59 147.04 124.59 147.027 124.59L134.738 123.626C134.398 123.6 134.144 123.303 134.17 122.963C134.196 122.623 134.497 122.369 134.832 122.395L147.121 123.359C147.461 123.385 147.715 123.682 147.689 124.022C147.663 124.34 147.392 124.59 147.074 124.59Z" fill="#42526E"/>
<path d="M145.551 131.927C145.53 131.927 145.512 131.927 145.491 131.922L133.275 130.761C132.935 130.73 132.686 130.425 132.72 130.085C132.754 129.745 133.06 129.495 133.395 129.53L145.611 130.692C145.951 130.722 146.201 131.027 146.166 131.367C146.136 131.686 145.865 131.927 145.551 131.927Z" fill="#42526E"/>
<path d="M144.037 139.225C144.016 139.225 143.99 139.225 143.969 139.221L131.826 137.865C131.486 137.826 131.241 137.521 131.279 137.181C131.318 136.841 131.628 136.6 131.963 136.634L144.106 137.99C144.446 138.029 144.691 138.334 144.653 138.674C144.618 138.988 144.351 139.225 144.037 139.225Z" fill="#42526E"/>
<path d="M130.582 144.35C130.543 144.35 130.5 144.346 130.457 144.337C130.122 144.268 129.907 143.941 129.976 143.61L141.112 88.6454C141.181 88.3098 141.508 88.0946 141.839 88.1635C142.175 88.2323 142.39 88.5594 142.321 88.8907L131.184 143.855C131.128 144.148 130.87 144.35 130.582 144.35Z" fill="#42526E"/>
<path d="M142.656 145.882C142.613 145.882 142.574 145.878 142.531 145.869C142.195 145.8 141.98 145.473 142.053 145.137L153.762 88.6411C153.831 88.3055 154.158 88.0903 154.493 88.1635C154.829 88.2323 155.044 88.5593 154.97 88.895L143.262 145.391C143.202 145.68 142.944 145.882 142.656 145.882Z" fill="#42526E"/>
<path d="M29.9375 58.2607L38.8759 48.0234L48.1884 57.5119L29.9375 58.2607Z" fill="white" stroke="#FFC400" stroke-width="1.3513" stroke-miterlimit="10"/>
<path d="M38.0371 57.9293L51.3027 42.9973L65.364 56.8148L38.0371 57.9293Z" fill="white" stroke="#FFC400" stroke-width="1.9183" stroke-miterlimit="10"/>
<path d="M41.9479 38.8964C41.9479 40.7339 40.5671 42.3261 38.8766 42.4508C37.1948 42.5756 35.8398 41.2072 35.8398 39.3913C35.8398 37.5796 37.1905 35.9875 38.8723 35.8412C40.5628 35.6906 41.9479 37.059 41.9479 38.8964Z" fill="white" stroke="#FFC400" stroke-width="1.3525" stroke-miterlimit="10"/>
<path d="M52.292 83.9076L46.9453 96.7956L61.9487 94.7946L52.292 83.9076Z" fill="white" stroke="#00C7E5" stroke-width="3.2835" stroke-miterlimit="10"/>
<path d="M42.3253 89.6437C42.3468 92.9357 39.8993 95.4874 36.8969 95.3454C33.9375 95.2077 31.5459 92.501 31.5158 89.2866C31.49 86.0721 33.8429 83.5074 36.8109 83.5633C39.8176 83.6236 42.3038 86.3475 42.3253 89.6437Z" fill="white" stroke="#00C7E5" stroke-width="3.2835" stroke-miterlimit="10"/>
<path d="M46.4378 115.196L36.209 109.258L40.7384 98.689L51.2037 104.464L46.4378 115.196Z" fill="white" stroke="#00C7E5" stroke-width="3.2835" stroke-miterlimit="10"/>
<path d="M136.789 125.683H72.1641V148.782H136.789V125.683Z" fill="url(#paint69_linear)"/>
<path d="M119.771 138.356H95.1113V140.834H119.771V138.356Z" fill="#0065FF"/>
<path d="M128.736 129.909H95.1113V132.387H128.736V129.909Z" fill="#0065FF"/>
<path d="M128.736 134.13H95.1113V136.609H128.736V134.13Z" fill="#0065FF"/>
<path d="M112.906 125.993C112.928 125.898 112.958 125.795 112.993 125.683H111.947C112.248 125.786 112.567 125.889 112.906 125.993Z" fill="url(#paint70_linear)"/>
<path opacity="0.6" d="M116.248 141.123C115.229 139.212 114.575 138.244 114.149 137.715C114.102 137.654 113.917 137.452 113.659 137.108C112.863 136.041 112.055 135.107 111.28 134.302C111.28 134.298 110.209 133.123 110.209 133.119C110.188 133.115 110.162 133.114 110.14 133.11C110.493 133.007 110.786 132.904 111.014 132.813C110.054 130.025 110.252 128.583 110.661 127.774C110.799 127.499 111.276 126.651 111.168 125.683H103.938C103.955 125.739 103.972 125.799 103.985 125.851C104.355 127.344 104.437 129.457 103.787 130.459C103.718 130.567 103.447 130.959 103.241 131.548C103.133 131.858 103.082 132.116 103.052 132.28C103.133 132.327 103.232 132.374 103.323 132.422C103.185 133.037 103.043 134.13 103.529 135.223C103.555 135.283 103.585 135.339 103.615 135.399C103.611 135.541 103.611 135.688 103.607 135.847C103.585 137.435 103.701 138.287 103.748 139.617C103.766 140.124 103.779 140.813 103.757 141.648C103.74 142.285 103.564 142.913 103.241 143.455C101.757 145.934 101.047 147.612 100.746 148.782H104.54C105.284 147.367 106.028 145.951 106.772 144.531C107.413 142.999 108.037 141.355 108.631 139.612C108.863 139.793 109.276 140.111 109.65 140.447C110.016 140.77 110.102 140.886 110.923 141.751C111.16 142.001 111.521 142.379 111.977 142.84C111.99 143.64 112.063 144.875 112.377 146.342C112.588 147.336 112.837 148.059 113.104 148.778H116.416C116.33 146.183 116.27 143.627 116.248 141.123Z" fill="url(#paint71_linear)"/>
<path d="M101.883 123.036C101.965 122.955 102.154 122.752 102.248 122.408C102.347 122.055 102.291 121.754 102.266 121.638C102.291 121.513 102.382 121.147 102.666 120.962C103.057 120.708 103.677 120.889 104.077 121.487C104.081 121.638 104.094 121.784 104.115 121.931C104.132 122.047 104.158 122.193 104.218 122.361C104.283 122.542 104.378 122.817 104.597 122.968C104.816 123.114 105.019 123.041 105.027 123.084C105.04 123.17 104.287 123.523 103.436 123.505C102.743 123.484 102.201 123.226 101.883 123.036Z" fill="#9C7761"/>
<path d="M106.167 124.237C105.922 123.389 103.913 123.329 102.726 123.295C101.165 123.247 100.382 123.221 99.642 123.523C98.7129 123.897 98.3 124.465 97.5645 125.679C98.8334 125.722 100.089 126.105 101.07 126.901C102.769 126.806 104.537 126.78 105.686 125.429C105.871 125.21 106.301 124.693 106.167 124.237Z" fill="url(#paint72_linear)"/>
<path d="M107.001 135.305C106.648 136.729 106.235 138.209 105.758 139.737C105.005 142.147 104.175 144.376 103.327 146.411C101.34 150.194 99.3484 153.976 97.3611 157.759C96.931 157.496 96.4965 157.229 96.0664 156.967C96.1309 156.816 96.1998 156.64 96.2729 156.442C96.3159 156.322 96.6256 155.478 96.8278 154.506C97.0944 153.223 97.1074 152.079 97.1117 151.894C97.1375 150.775 97.6837 148.86 99.7957 145.331C100.118 144.789 100.299 144.161 100.312 143.524C100.333 142.689 100.321 142.001 100.303 141.493C100.256 140.163 100.144 139.311 100.161 137.723C100.17 137.082 100.191 136.553 100.213 136.213C100.725 136.118 101.245 136.028 101.774 135.942C103.585 135.653 105.332 135.447 107.001 135.305Z" fill="url(#paint73_linear)"/>
<path d="M99.9124 134.164C102.196 134.444 104.485 134.724 106.769 135.004C106.769 135.008 107.84 136.183 107.84 136.187C108.614 136.992 109.423 137.921 110.219 138.993C110.477 139.341 110.662 139.539 110.709 139.599C111.087 140.068 111.647 140.882 112.477 142.388C112.696 142.788 112.812 143.231 112.817 143.687C112.847 146.342 112.911 149.049 113.019 151.816C113.092 153.783 113.187 155.719 113.298 157.625C113.135 157.72 112.756 157.905 112.253 157.892C111.892 157.884 111.617 157.776 111.453 157.703C111.242 155.71 110.847 154.161 110.537 153.129C109.935 151.136 109.371 150.228 108.941 148.232C108.627 146.764 108.554 145.529 108.541 144.729C108.089 144.264 107.724 143.885 107.487 143.64C106.661 142.775 106.58 142.659 106.214 142.336C105.792 141.962 105.311 141.592 105.104 141.437C104.945 141.312 104.769 141.179 104.545 141.019C102.966 139.879 102.394 139.707 101.211 138.571C100.575 137.96 100.295 137.577 100.093 137.121C99.5553 135.933 99.7661 134.745 99.9124 134.164Z" fill="url(#paint74_linear)"/>
<path d="M107.663 127.198C107.612 127.017 107.599 127.047 107.5 126.767C106.936 125.197 107.483 124.439 106.911 123.802C106.687 123.557 106.407 123.454 105.874 123.256C105.422 123.088 105.022 123.024 104.738 122.998C104.27 123.157 103.869 123.23 103.577 123.264C103.237 123.303 102.97 123.333 102.631 123.264C102.278 123.196 102.011 123.049 101.844 122.946C101.521 122.933 101.108 122.95 100.643 123.062C99.7186 123.286 99.0777 123.764 98.7422 124.061C99.0863 124.624 99.4304 125.188 99.7745 125.756C100.2 126.548 100.42 127.249 100.54 127.748C100.91 129.242 100.992 131.354 100.342 132.357C100.273 132.465 100.003 132.856 99.796 133.446C99.6885 133.756 99.6369 134.014 99.6068 134.177C100.261 134.552 101.19 134.986 102.368 135.214C104.734 135.679 106.678 135.059 107.569 134.711C106.609 131.922 106.807 130.481 107.216 129.672C107.371 129.349 107.973 128.312 107.663 127.198Z" fill="url(#paint75_linear)"/>
<path d="M117.88 126.057C118.103 126.135 118.176 126.143 118.215 126.143C118.495 126.152 118.706 126.006 118.787 125.941C118.899 125.855 118.968 125.756 119.007 125.691C119.26 125.687 119.514 125.679 119.772 125.674C119.682 125.601 119.549 125.498 119.364 125.416C119.235 125.356 119.067 125.296 118.224 125.244C117.742 125.214 117.604 125.222 117.45 125.313C117.424 125.33 117.14 125.494 117.161 125.666C117.183 125.812 117.415 125.894 117.88 126.057Z" fill="#9C7761"/>
<path d="M110.74 128.209C111.497 128.446 112.112 128.631 112.487 128.742C113.136 128.652 113.945 128.476 114.826 128.11C116.392 127.464 117.459 126.531 118.083 125.885C118.242 125.717 118.302 125.515 118.233 125.395C118.139 125.235 117.837 125.27 117.683 125.287C117.541 125.304 117.425 125.343 117.347 125.377C117.231 125.472 117.037 125.618 116.779 125.765C115.756 126.359 115.02 126.255 113.674 126.733C113.441 126.815 113.097 126.948 112.693 127.146C112.259 126.909 111.725 126.617 111.119 126.272C110.017 125.644 109.471 125.33 109.101 125.08C108.271 124.517 107.953 124.19 107.153 123.85C106.804 123.703 106.508 123.609 106.31 123.557C106.099 123.643 105.441 123.94 105.191 124.616C105.075 124.926 105.075 125.244 105.118 125.455C105.29 126.32 106.473 126.883 110.74 128.209Z" fill="#9C7761"/>
<path d="M110.03 126.539C110.211 126.268 110.4 126.053 110.572 125.885C110.43 125.816 110.206 125.709 109.944 125.567C108.163 124.616 107.862 124.013 106.649 123.574C106.013 123.342 105.187 123.041 104.632 123.467C104.219 123.785 104.068 124.431 104.184 124.943C104.236 125.158 104.357 125.451 104.817 125.877C105.428 126.445 106.06 126.711 107.079 127.081C107.742 127.322 108.542 127.598 109.458 127.882C109.54 127.533 109.699 127.043 110.03 126.539Z" fill="#FFC400"/>
<path d="M104.619 122.172C105.066 122.128 105.294 122.107 105.414 121.935C105.47 121.857 105.479 121.621 105.488 121.152C105.496 120.855 105.492 120.756 105.556 120.635C105.655 120.455 105.836 120.36 105.969 120.313C105.518 119.96 105.376 119.633 105.328 119.396C105.307 119.284 105.285 119.22 105.255 118.806C105.238 118.604 105.204 118.402 105.148 118.208C105.066 117.929 104.898 117.632 104.614 117.58C104.55 117.825 104.481 118.079 104.373 118.312C104.305 118.462 104.171 118.69 103.922 118.892C103.771 119.017 103.651 119.095 103.604 119.121C102.971 119.508 102.386 120.76 102.606 121.474C102.636 121.565 102.696 121.776 102.885 121.913C102.984 121.986 103.079 122.012 103.225 122.055C103.44 122.116 103.612 122.128 103.715 122.137C104.197 122.167 104.442 122.184 104.619 122.172Z" fill="#9C7761"/>
<path opacity="0.25" d="M107.392 163C117.876 163 126.374 161.854 126.374 160.44C126.374 159.026 117.876 157.879 107.392 157.879C96.9088 157.879 88.4102 159.026 88.4102 160.44C88.4102 161.854 96.9088 163 107.392 163Z" fill="url(#paint76_linear)"/>
<path d="M96.3544 156.451L95.1113 158.921C95.1113 158.921 97.6148 160.44 98.1051 160.44H100.346L100.17 160.121C99.9676 159.755 99.5848 159.523 99.1676 159.506H99.1504C98.6729 159.489 98.2471 159.196 98.0621 158.761C98.0148 158.65 97.9632 158.533 97.9202 158.43C97.804 158.159 97.8212 157.853 97.9675 157.595L98.2256 157.143L96.3544 156.451Z" fill="#253858"/>
<path d="M111.396 157.328L111.47 160.091H113.457H116.915C116.717 159.613 116.283 159.282 115.771 159.213L114.98 159.11C114.605 159.063 114.27 158.869 114.038 158.572L113.526 157.922V157.328H111.396Z" fill="#253858"/>
<path d="M100.274 124.719C101.022 125.386 102.394 125.584 103.203 124.977C104.003 124.375 104.024 123.153 104.024 123.088C104.024 122.795 103.999 122.576 103.874 122.193C103.68 121.586 103.353 120.975 103.371 120.321C103.375 120.072 103.444 119.826 103.577 119.615C103.779 119.288 104.158 119.082 104.433 118.824C104.747 118.527 105.031 118.195 105.272 117.838C105.117 117.645 104.954 117.464 104.777 117.287C104.777 117.287 104.609 117.132 104.45 117.025C103.796 116.569 102.695 116.685 102.459 116.711C101.908 116.771 101.564 116.805 101.177 117.029C100.945 117.163 100.755 117.33 100.605 117.507C100.119 118.071 100.067 118.772 100.041 119.095C99.8091 122.503 99.7058 124.215 100.274 124.719Z" fill="#172B4D"/>
<path d="M92.3481 61.3159C93.1267 61.1998 93.9053 61.0879 94.6881 60.9717C94.701 60.877 94.7225 60.7307 94.7569 60.5543C94.9462 59.6119 95.2301 59.3193 95.3118 58.8717C95.4409 58.1875 95.0881 57.215 94.2924 56.7933C93.6128 56.4318 92.7138 56.5179 92.1202 57.0386C91.7029 57.4044 91.5653 57.8734 91.5223 58.0757V58.7728C91.4793 58.8545 91.4104 58.9836 91.2986 59.1256C91.1524 59.3107 91.0491 59.3752 91.0663 59.4441C91.0792 59.5 91.1739 59.5646 91.5782 59.5732C91.6298 59.9906 91.6771 60.408 91.7287 60.8211C91.7632 61.1266 92.0384 61.3504 92.3481 61.3159Z" fill="#A27F68"/>
<path d="M91.6606 57.7529C91.8068 57.9638 92.2499 57.9551 92.5596 57.8691C93.0499 57.7357 93.1704 57.4388 93.4715 57.5033C93.6005 57.5334 93.7425 57.6238 93.8113 57.7529C93.8844 57.8863 93.8758 58.0584 93.8672 58.364C93.8629 58.4801 93.8543 58.5533 93.9016 58.6437C93.9618 58.7598 94.035 58.7426 94.0866 58.8416C94.1812 59.0137 94.0221 59.1902 94.1167 59.3149C94.1425 59.3494 94.1941 59.3881 94.3232 59.3967C94.3834 59.1902 94.4479 58.9836 94.5081 58.7814C94.6759 58.7986 94.7361 58.8545 94.7662 58.9018C94.8393 59.0309 94.6802 59.1945 94.5124 59.7022C94.4694 59.8227 94.4522 59.8873 94.4479 59.9432C94.4307 60.2703 94.7017 60.6575 94.9082 60.6532C95.2566 60.6489 95.6523 59.5818 95.6136 58.6135C95.6007 58.2349 95.5577 57.1806 94.7404 56.5953C94.1511 56.1736 93.4758 56.221 93.2607 56.2339C93.037 56.2511 92.5682 56.2898 92.1165 56.6169C91.9703 56.7244 91.5487 57.0343 91.4455 57.5679C91.4197 57.7056 91.4197 57.8261 91.424 57.9078C91.4584 57.7357 91.5057 57.5334 91.5574 57.5377C91.6004 57.542 91.5961 57.6625 91.6606 57.7529Z" fill="url(#paint77_linear)"/>
<defs>
<linearGradient id="paint0_linear" x1="132.964" y1="151.63" x2="135.473" y2="131.201" gradientUnits="userSpaceOnUse">
<stop stop-color="#091E42"/>
<stop offset="0.8805" stop-color="#091E42" stop-opacity="0"/>
</linearGradient>
<linearGradient id="paint1_linear" x1="83.1803" y1="155.566" x2="83.1803" y2="0" gradientUnits="userSpaceOnUse">
<stop offset="0.1453" stop-color="#00B8D9"/>
<stop offset="0.1842" stop-color="#1CC2DF"/>
<stop offset="0.2403" stop-color="#3DCDE6"/>
<stop offset="0.298" stop-color="#58D6EB"/>
<stop offset="0.3569" stop-color="#6ADDEF"/>
<stop offset="0.4179" stop-color="#75E1F1"/>
<stop offset="0.4843" stop-color="#79E2F2"/>
<stop offset="0.519" stop-color="#79E2F2"/>
</linearGradient>
<linearGradient id="paint2_linear" x1="83.1542" y1="155.566" x2="83.1542" y2="0" gradientUnits="userSpaceOnUse">
<stop offset="0.1453" stop-color="#00B8D9"/>
<stop offset="0.1842" stop-color="#1CC2DF"/>
<stop offset="0.2403" stop-color="#3DCDE6"/>
<stop offset="0.298" stop-color="#58D6EB"/>
<stop offset="0.3569" stop-color="#6ADDEF"/>
<stop offset="0.4179" stop-color="#75E1F1"/>
<stop offset="0.4843" stop-color="#79E2F2"/>
<stop offset="0.519" stop-color="#79E2F2"/>
</linearGradient>
<linearGradient id="paint3_linear" x1="83.1281" y1="155.566" x2="83.1281" y2="0" gradientUnits="userSpaceOnUse">
<stop offset="0.1453" stop-color="#00B8D9"/>
<stop offset="0.1842" stop-color="#1CC2DF"/>
<stop offset="0.2403" stop-color="#3DCDE6"/>
<stop offset="0.298" stop-color="#58D6EB"/>
<stop offset="0.3569" stop-color="#6ADDEF"/>
<stop offset="0.4179" stop-color="#75E1F1"/>
<stop offset="0.4843" stop-color="#79E2F2"/>
<stop offset="0.519" stop-color="#79E2F2"/>
</linearGradient>
<linearGradient id="paint4_linear" x1="83.102" y1="155.566" x2="83.102" y2="0" gradientUnits="userSpaceOnUse">
<stop offset="0.1453" stop-color="#00B8D9"/>
<stop offset="0.1842" stop-color="#1CC2DF"/>
<stop offset="0.2403" stop-color="#3DCDE6"/>
<stop offset="0.298" stop-color="#58D6EB"/>
<stop offset="0.3569" stop-color="#6ADDEF"/>
<stop offset="0.4179" stop-color="#75E1F1"/>
<stop offset="0.4843" stop-color="#79E2F2"/>
<stop offset="0.519" stop-color="#79E2F2"/>
</linearGradient>
<linearGradient id="paint5_linear" x1="83.0739" y1="155.566" x2="83.0739" y2="0" gradientUnits="userSpaceOnUse">
<stop offset="0.1453" stop-color="#00B8D9"/>
<stop offset="0.1842" stop-color="#1CC2DF"/>
<stop offset="0.2403" stop-color="#3DCDE6"/>
<stop offset="0.298" stop-color="#58D6EB"/>
<stop offset="0.3569" stop-color="#6ADDEF"/>
<stop offset="0.4179" stop-color="#75E1F1"/>
<stop offset="0.4843" stop-color="#79E2F2"/>
<stop offset="0.519" stop-color="#79E2F2"/>
</linearGradient>
<linearGradient id="paint6_linear" x1="83.0478" y1="155.566" x2="83.0478" y2="0" gradientUnits="userSpaceOnUse">
<stop offset="0.1453" stop-color="#00B8D9"/>
<stop offset="0.1842" stop-color="#1CC2DF"/>
<stop offset="0.2403" stop-color="#3DCDE6"/>
<stop offset="0.298" stop-color="#58D6EB"/>
<stop offset="0.3569" stop-color="#6ADDEF"/>
<stop offset="0.4179" stop-color="#75E1F1"/>
<stop offset="0.4843" stop-color="#79E2F2"/>
<stop offset="0.519" stop-color="#79E2F2"/>
</linearGradient>
<linearGradient id="paint7_linear" x1="83.0221" y1="155.566" x2="83.0221" y2="0" gradientUnits="userSpaceOnUse">
<stop offset="0.1453" stop-color="#00B8D9"/>
<stop offset="0.1842" stop-color="#1CC2DF"/>
<stop offset="0.2403" stop-color="#3DCDE6"/>
<stop offset="0.298" stop-color="#58D6EB"/>
<stop offset="0.3569" stop-color="#6ADDEF"/>
<stop offset="0.4179" stop-color="#75E1F1"/>
<stop offset="0.4843" stop-color="#79E2F2"/>
<stop offset="0.519" stop-color="#79E2F2"/>
</linearGradient>
<linearGradient id="paint8_linear" x1="82.996" y1="155.566" x2="82.996" y2="0" gradientUnits="userSpaceOnUse">
<stop offset="0.1453" stop-color="#00B8D9"/>
<stop offset="0.1842" stop-color="#1CC2DF"/>
<stop offset="0.2403" stop-color="#3DCDE6"/>
<stop offset="0.298" stop-color="#58D6EB"/>
<stop offset="0.3569" stop-color="#6ADDEF"/>
<stop offset="0.4179" stop-color="#75E1F1"/>
<stop offset="0.4843" stop-color="#79E2F2"/>
<stop offset="0.519" stop-color="#79E2F2"/>
</linearGradient>
<linearGradient id="paint9_linear" x1="82.9679" y1="155.566" x2="82.9679" y2="0" gradientUnits="userSpaceOnUse">
<stop offset="0.1453" stop-color="#00B8D9"/>
<stop offset="0.1842" stop-color="#1CC2DF"/>
<stop offset="0.2403" stop-color="#3DCDE6"/>
<stop offset="0.298" stop-color="#58D6EB"/>
<stop offset="0.3569" stop-color="#6ADDEF"/>
<stop offset="0.4179" stop-color="#75E1F1"/>
<stop offset="0.4843" stop-color="#79E2F2"/>
<stop offset="0.519" stop-color="#79E2F2"/>
</linearGradient>
<linearGradient id="paint10_linear" x1="82.9418" y1="155.566" x2="82.9418" y2="0" gradientUnits="userSpaceOnUse">
<stop offset="0.1453" stop-color="#00B8D9"/>
<stop offset="0.1842" stop-color="#1CC2DF"/>
<stop offset="0.2403" stop-color="#3DCDE6"/>
<stop offset="0.298" stop-color="#58D6EB"/>
<stop offset="0.3569" stop-color="#6ADDEF"/>
<stop offset="0.4179" stop-color="#75E1F1"/>
<stop offset="0.4843" stop-color="#79E2F2"/>
<stop offset="0.519" stop-color="#79E2F2"/>
</linearGradient>
<linearGradient id="paint11_linear" x1="82.9157" y1="155.566" x2="82.9157" y2="0" gradientUnits="userSpaceOnUse">
<stop offset="0.1453" stop-color="#00B8D9"/>
<stop offset="0.1842" stop-color="#1CC2DF"/>
<stop offset="0.2403" stop-color="#3DCDE6"/>
<stop offset="0.298" stop-color="#58D6EB"/>
<stop offset="0.3569" stop-color="#6ADDEF"/>
<stop offset="0.4179" stop-color="#75E1F1"/>
<stop offset="0.4843" stop-color="#79E2F2"/>
<stop offset="0.519" stop-color="#79E2F2"/>
</linearGradient>
<linearGradient id="paint12_linear" x1="82.8896" y1="155.566" x2="82.8896" y2="0" gradientUnits="userSpaceOnUse">
<stop offset="0.1453" stop-color="#00B8D9"/>
<stop offset="0.1842" stop-color="#1CC2DF"/>
<stop offset="0.2403" stop-color="#3DCDE6"/>
<stop offset="0.298" stop-color="#58D6EB"/>
<stop offset="0.3569" stop-color="#6ADDEF"/>
<stop offset="0.4179" stop-color="#75E1F1"/>
<stop offset="0.4843" stop-color="#79E2F2"/>
<stop offset="0.519" stop-color="#79E2F2"/>
</linearGradient>
<linearGradient id="paint13_linear" x1="82.8619" y1="155.566" x2="82.8619" y2="0" gradientUnits="userSpaceOnUse">
<stop offset="0.1453" stop-color="#00B8D9"/>
<stop offset="0.1842" stop-color="#1CC2DF"/>
<stop offset="0.2403" stop-color="#3DCDE6"/>
<stop offset="0.298" stop-color="#58D6EB"/>
<stop offset="0.3569" stop-color="#6ADDEF"/>
<stop offset="0.4179" stop-color="#75E1F1"/>
<stop offset="0.4843" stop-color="#79E2F2"/>
<stop offset="0.519" stop-color="#79E2F2"/>
</linearGradient>
<linearGradient id="paint14_linear" x1="82.8358" y1="155.566" x2="82.8358" y2="0" gradientUnits="userSpaceOnUse">
<stop offset="0.1453" stop-color="#00B8D9"/>
<stop offset="0.1842" stop-color="#1CC2DF"/>
<stop offset="0.2403" stop-color="#3DCDE6"/>
<stop offset="0.298" stop-color="#58D6EB"/>
<stop offset="0.3569" stop-color="#6ADDEF"/>
<stop offset="0.4179" stop-color="#75E1F1"/>
<stop offset="0.4843" stop-color="#79E2F2"/>
<stop offset="0.519" stop-color="#79E2F2"/>
</linearGradient>
<linearGradient id="paint15_linear" x1="82.8097" y1="155.566" x2="82.8097" y2="0" gradientUnits="userSpaceOnUse">
<stop offset="0.1453" stop-color="#00B8D9"/>
<stop offset="0.1842" stop-color="#1CC2DF"/>
<stop offset="0.2403" stop-color="#3DCDE6"/>
<stop offset="0.298" stop-color="#58D6EB"/>
<stop offset="0.3569" stop-color="#6ADDEF"/>
<stop offset="0.4179" stop-color="#75E1F1"/>
<stop offset="0.4843" stop-color="#79E2F2"/>
<stop offset="0.519" stop-color="#79E2F2"/>
</linearGradient>
<linearGradient id="paint16_linear" x1="82.7836" y1="155.566" x2="82.7836" y2="0" gradientUnits="userSpaceOnUse">
<stop offset="0.1453" stop-color="#00B8D9"/>
<stop offset="0.1842" stop-color="#1CC2DF"/>
<stop offset="0.2403" stop-color="#3DCDE6"/>
<stop offset="0.298" stop-color="#58D6EB"/>
<stop offset="0.3569" stop-color="#6ADDEF"/>
<stop offset="0.4179" stop-color="#75E1F1"/>
<stop offset="0.4843" stop-color="#79E2F2"/>
<stop offset="0.519" stop-color="#79E2F2"/>
</linearGradient>
<linearGradient id="paint17_linear" x1="82.7555" y1="155.566" x2="82.7555" y2="0" gradientUnits="userSpaceOnUse">
<stop offset="0.1453" stop-color="#00B8D9"/>
<stop offset="0.1842" stop-color="#1CC2DF"/>
<stop offset="0.2403" stop-color="#3DCDE6"/>
<stop offset="0.298" stop-color="#58D6EB"/>
<stop offset="0.3569" stop-color="#6ADDEF"/>
<stop offset="0.4179" stop-color="#75E1F1"/>
<stop offset="0.4843" stop-color="#79E2F2"/>
<stop offset="0.519" stop-color="#79E2F2"/>
</linearGradient>
<linearGradient id="paint18_linear" x1="82.7294" y1="155.566" x2="82.7294" y2="0" gradientUnits="userSpaceOnUse">
<stop offset="0.1453" stop-color="#00B8D9"/>
<stop offset="0.1842" stop-color="#1CC2DF"/>
<stop offset="0.2403" stop-color="#3DCDE6"/>
<stop offset="0.298" stop-color="#58D6EB"/>
<stop offset="0.3569" stop-color="#6ADDEF"/>
<stop offset="0.4179" stop-color="#75E1F1"/>
<stop offset="0.4843" stop-color="#79E2F2"/>
<stop offset="0.519" stop-color="#79E2F2"/>
</linearGradient>
<linearGradient id="paint19_linear" x1="82.7037" y1="155.566" x2="82.7037" y2="0" gradientUnits="userSpaceOnUse">
<stop offset="0.1453" stop-color="#00B8D9"/>
<stop offset="0.1842" stop-color="#1CC2DF"/>
<stop offset="0.2403" stop-color="#3DCDE6"/>
<stop offset="0.298" stop-color="#58D6EB"/>
<stop offset="0.3569" stop-color="#6ADDEF"/>
<stop offset="0.4179" stop-color="#75E1F1"/>
<stop offset="0.4843" stop-color="#79E2F2"/>
<stop offset="0.519" stop-color="#79E2F2"/>
</linearGradient>
<linearGradient id="paint20_linear" x1="82.6776" y1="155.566" x2="82.6776" y2="0" gradientUnits="userSpaceOnUse">
<stop offset="0.1453" stop-color="#00B8D9"/>
<stop offset="0.1842" stop-color="#1CC2DF"/>
<stop offset="0.2403" stop-color="#3DCDE6"/>
<stop offset="0.298" stop-color="#58D6EB"/>
<stop offset="0.3569" stop-color="#6ADDEF"/>
<stop offset="0.4179" stop-color="#75E1F1"/>
<stop offset="0.4843" stop-color="#79E2F2"/>
<stop offset="0.519" stop-color="#79E2F2"/>
</linearGradient>
<linearGradient id="paint21_linear" x1="82.6495" y1="155.566" x2="82.6495" y2="0" gradientUnits="userSpaceOnUse">
<stop offset="0.1453" stop-color="#00B8D9"/>
<stop offset="0.1842" stop-color="#1CC2DF"/>
<stop offset="0.2403" stop-color="#3DCDE6"/>
<stop offset="0.298" stop-color="#58D6EB"/>
<stop offset="0.3569" stop-color="#6ADDEF"/>
<stop offset="0.4179" stop-color="#75E1F1"/>
<stop offset="0.4843" stop-color="#79E2F2"/>
<stop offset="0.519" stop-color="#79E2F2"/>
</linearGradient>
<linearGradient id="paint22_linear" x1="82.6234" y1="155.566" x2="82.6234" y2="0" gradientUnits="userSpaceOnUse">
<stop offset="0.1453" stop-color="#00B8D9"/>
<stop offset="0.1842" stop-color="#1CC2DF"/>
<stop offset="0.2403" stop-color="#3DCDE6"/>
<stop offset="0.298" stop-color="#58D6EB"/>
<stop offset="0.3569" stop-color="#6ADDEF"/>
<stop offset="0.4179" stop-color="#75E1F1"/>
<stop offset="0.4843" stop-color="#79E2F2"/>
<stop offset="0.519" stop-color="#79E2F2"/>
</linearGradient>
<linearGradient id="paint23_linear" x1="82.5973" y1="155.566" x2="82.5973" y2="0" gradientUnits="userSpaceOnUse">
<stop offset="0.1453" stop-color="#00B8D9"/>
<stop offset="0.1842" stop-color="#1CC2DF"/>
<stop offset="0.2403" stop-color="#3DCDE6"/>
<stop offset="0.298" stop-color="#58D6EB"/>
<stop offset="0.3569" stop-color="#6ADDEF"/>
<stop offset="0.4179" stop-color="#75E1F1"/>
<stop offset="0.4843" stop-color="#79E2F2"/>
<stop offset="0.519" stop-color="#79E2F2"/>
</linearGradient>
<linearGradient id="paint24_linear" x1="82.5712" y1="155.566" x2="82.5712" y2="0" gradientUnits="userSpaceOnUse">
<stop offset="0.1453" stop-color="#00B8D9"/>
<stop offset="0.1842" stop-color="#1CC2DF"/>
<stop offset="0.2403" stop-color="#3DCDE6"/>
<stop offset="0.298" stop-color="#58D6EB"/>
<stop offset="0.3569" stop-color="#6ADDEF"/>
<stop offset="0.4179" stop-color="#75E1F1"/>
<stop offset="0.4843" stop-color="#79E2F2"/>
<stop offset="0.519" stop-color="#79E2F2"/>
</linearGradient>
<linearGradient id="paint25_linear" x1="82.5435" y1="155.566" x2="82.5435" y2="0" gradientUnits="userSpaceOnUse">
<stop offset="0.1453" stop-color="#00B8D9"/>
<stop offset="0.1842" stop-color="#1CC2DF"/>
<stop offset="0.2403" stop-color="#3DCDE6"/>
<stop offset="0.298" stop-color="#58D6EB"/>
<stop offset="0.3569" stop-color="#6ADDEF"/>
<stop offset="0.4179" stop-color="#75E1F1"/>
<stop offset="0.4843" stop-color="#79E2F2"/>
<stop offset="0.519" stop-color="#79E2F2"/>
</linearGradient>
<linearGradient id="paint26_linear" x1="82.5174" y1="155.566" x2="82.5174" y2="0" gradientUnits="userSpaceOnUse">
<stop offset="0.1453" stop-color="#00B8D9"/>
<stop offset="0.1842" stop-color="#1CC2DF"/>
<stop offset="0.2403" stop-color="#3DCDE6"/>
<stop offset="0.298" stop-color="#58D6EB"/>
<stop offset="0.3569" stop-color="#6ADDEF"/>
<stop offset="0.4179" stop-color="#75E1F1"/>
<stop offset="0.4843" stop-color="#79E2F2"/>
<stop offset="0.519" stop-color="#79E2F2"/>
</linearGradient>
<linearGradient id="paint27_linear" x1="82.4913" y1="155.566" x2="82.4913" y2="0" gradientUnits="userSpaceOnUse">
<stop offset="0.1453" stop-color="#00B8D9"/>
<stop offset="0.1842" stop-color="#1CC2DF"/>
<stop offset="0.2403" stop-color="#3DCDE6"/>
<stop offset="0.298" stop-color="#58D6EB"/>
<stop offset="0.3569" stop-color="#6ADDEF"/>
<stop offset="0.4179" stop-color="#75E1F1"/>
<stop offset="0.4843" stop-color="#79E2F2"/>
<stop offset="0.519" stop-color="#79E2F2"/>
</linearGradient>
<linearGradient id="paint28_linear" x1="82.4652" y1="155.566" x2="82.4652" y2="0" gradientUnits="userSpaceOnUse">
<stop offset="0.1453" stop-color="#00B8D9"/>
<stop offset="0.1842" stop-color="#1CC2DF"/>
<stop offset="0.2403" stop-color="#3DCDE6"/>
<stop offset="0.298" stop-color="#58D6EB"/>
<stop offset="0.3569" stop-color="#6ADDEF"/>
<stop offset="0.4179" stop-color="#75E1F1"/>
<stop offset="0.4843" stop-color="#79E2F2"/>
<stop offset="0.519" stop-color="#79E2F2"/>
</linearGradient>
<linearGradient id="paint29_linear" x1="82.4391" y1="155.566" x2="82.4391" y2="0" gradientUnits="userSpaceOnUse">
<stop offset="0.1453" stop-color="#00B8D9"/>
<stop offset="0.1842" stop-color="#1CC2DF"/>
<stop offset="0.2403" stop-color="#3DCDE6"/>
<stop offset="0.298" stop-color="#58D6EB"/>
<stop offset="0.3569" stop-color="#6ADDEF"/>
<stop offset="0.4179" stop-color="#75E1F1"/>
<stop offset="0.4843" stop-color="#79E2F2"/>
<stop offset="0.519" stop-color="#79E2F2"/>
</linearGradient>
<linearGradient id="paint30_linear" x1="82.411" y1="155.566" x2="82.411" y2="0" gradientUnits="userSpaceOnUse">
<stop offset="0.1453" stop-color="#00B8D9"/>
<stop offset="0.1842" stop-color="#1CC2DF"/>
<stop offset="0.2403" stop-color="#3DCDE6"/>
<stop offset="0.298" stop-color="#58D6EB"/>
<stop offset="0.3569" stop-color="#6ADDEF"/>
<stop offset="0.4179" stop-color="#75E1F1"/>
<stop offset="0.4843" stop-color="#79E2F2"/>
<stop offset="0.519" stop-color="#79E2F2"/>
</linearGradient>
<linearGradient id="paint31_linear" x1="82.3853" y1="155.566" x2="82.3853" y2="0" gradientUnits="userSpaceOnUse">
<stop offset="0.1453" stop-color="#00B8D9"/>
<stop offset="0.1842" stop-color="#1CC2DF"/>
<stop offset="0.2403" stop-color="#3DCDE6"/>
<stop offset="0.298" stop-color="#58D6EB"/>
<stop offset="0.3569" stop-color="#6ADDEF"/>
<stop offset="0.4179" stop-color="#75E1F1"/>
<stop offset="0.4843" stop-color="#79E2F2"/>
<stop offset="0.519" stop-color="#79E2F2"/>
</linearGradient>
<linearGradient id="paint32_linear" x1="82.3592" y1="155.566" x2="82.3592" y2="0" gradientUnits="userSpaceOnUse">
<stop offset="0.1453" stop-color="#00B8D9"/>
<stop offset="0.1842" stop-color="#1CC2DF"/>
<stop offset="0.2403" stop-color="#3DCDE6"/>
<stop offset="0.298" stop-color="#58D6EB"/>
<stop offset="0.3569" stop-color="#6ADDEF"/>
<stop offset="0.4179" stop-color="#75E1F1"/>
<stop offset="0.4843" stop-color="#79E2F2"/>
<stop offset="0.519" stop-color="#79E2F2"/>
</linearGradient>
<linearGradient id="paint33_linear" x1="82.3311" y1="155.566" x2="82.3311" y2="0" gradientUnits="userSpaceOnUse">
<stop offset="0.1453" stop-color="#00B8D9"/>
<stop offset="0.1842" stop-color="#1CC2DF"/>
<stop offset="0.2403" stop-color="#3DCDE6"/>
<stop offset="0.298" stop-color="#58D6EB"/>
<stop offset="0.3569" stop-color="#6ADDEF"/>
<stop offset="0.4179" stop-color="#75E1F1"/>
<stop offset="0.4843" stop-color="#79E2F2"/>
<stop offset="0.519" stop-color="#79E2F2"/>
</linearGradient>
<linearGradient id="paint34_linear" x1="82.305" y1="155.566" x2="82.305" y2="0" gradientUnits="userSpaceOnUse">
<stop offset="0.1453" stop-color="#00B8D9"/>
<stop offset="0.1842" stop-color="#1CC2DF"/>
<stop offset="0.2403" stop-color="#3DCDE6"/>
<stop offset="0.298" stop-color="#58D6EB"/>
<stop offset="0.3569" stop-color="#6ADDEF"/>
<stop offset="0.4179" stop-color="#75E1F1"/>
<stop offset="0.4843" stop-color="#79E2F2"/>
<stop offset="0.519" stop-color="#79E2F2"/>
</linearGradient>
<linearGradient id="paint35_linear" x1="82.2789" y1="155.566" x2="82.2789" y2="0" gradientUnits="userSpaceOnUse">
<stop offset="0.1453" stop-color="#00B8D9"/>
<stop offset="0.1842" stop-color="#1CC2DF"/>
<stop offset="0.2403" stop-color="#3DCDE6"/>
<stop offset="0.298" stop-color="#58D6EB"/>
<stop offset="0.3569" stop-color="#6ADDEF"/>
<stop offset="0.4179" stop-color="#75E1F1"/>
<stop offset="0.4843" stop-color="#79E2F2"/>
<stop offset="0.519" stop-color="#79E2F2"/>
</linearGradient>
<linearGradient id="paint36_linear" x1="82.2528" y1="155.566" x2="82.2528" y2="0" gradientUnits="userSpaceOnUse">
<stop offset="0.1453" stop-color="#00B8D9"/>
<stop offset="0.1842" stop-color="#1CC2DF"/>
<stop offset="0.2403" stop-color="#3DCDE6"/>
<stop offset="0.298" stop-color="#58D6EB"/>
<stop offset="0.3569" stop-color="#6ADDEF"/>
<stop offset="0.4179" stop-color="#75E1F1"/>
<stop offset="0.4843" stop-color="#79E2F2"/>
<stop offset="0.519" stop-color="#79E2F2"/>
</linearGradient>
<linearGradient id="paint37_linear" x1="82.2251" y1="155.566" x2="82.2251" y2="0" gradientUnits="userSpaceOnUse">
<stop offset="0.1453" stop-color="#00B8D9"/>
<stop offset="0.1842" stop-color="#1CC2DF"/>
<stop offset="0.2403" stop-color="#3DCDE6"/>
<stop offset="0.298" stop-color="#58D6EB"/>
<stop offset="0.3569" stop-color="#6ADDEF"/>
<stop offset="0.4179" stop-color="#75E1F1"/>
<stop offset="0.4843" stop-color="#79E2F2"/>
<stop offset="0.519" stop-color="#79E2F2"/>
</linearGradient>
<linearGradient id="paint38_linear" x1="82.199" y1="155.566" x2="82.199" y2="0" gradientUnits="userSpaceOnUse">
<stop offset="0.1453" stop-color="#00B8D9"/>
<stop offset="0.1842" stop-color="#1CC2DF"/>
<stop offset="0.2403" stop-color="#3DCDE6"/>
<stop offset="0.298" stop-color="#58D6EB"/>
<stop offset="0.3569" stop-color="#6ADDEF"/>
<stop offset="0.4179" stop-color="#75E1F1"/>
<stop offset="0.4843" stop-color="#79E2F2"/>
<stop offset="0.519" stop-color="#79E2F2"/>
</linearGradient>
<linearGradient id="paint39_linear" x1="82.1729" y1="155.566" x2="82.1729" y2="0" gradientUnits="userSpaceOnUse">
<stop offset="0.1453" stop-color="#00B8D9"/>
<stop offset="0.1842" stop-color="#1CC2DF"/>
<stop offset="0.2403" stop-color="#3DCDE6"/>
<stop offset="0.298" stop-color="#58D6EB"/>
<stop offset="0.3569" stop-color="#6ADDEF"/>
<stop offset="0.4179" stop-color="#75E1F1"/>
<stop offset="0.4843" stop-color="#79E2F2"/>
<stop offset="0.519" stop-color="#79E2F2"/>
</linearGradient>
<linearGradient id="paint40_linear" x1="82.1467" y1="155.566" x2="82.1467" y2="0" gradientUnits="userSpaceOnUse">
<stop offset="0.1453" stop-color="#00B8D9"/>
<stop offset="0.1842" stop-color="#1CC2DF"/>
<stop offset="0.2403" stop-color="#3DCDE6"/>
<stop offset="0.298" stop-color="#58D6EB"/>
<stop offset="0.3569" stop-color="#6ADDEF"/>
<stop offset="0.4179" stop-color="#75E1F1"/>
<stop offset="0.4843" stop-color="#79E2F2"/>
<stop offset="0.519" stop-color="#79E2F2"/>
</linearGradient>
<linearGradient id="paint41_linear" x1="82.1207" y1="155.566" x2="82.1207" y2="0" gradientUnits="userSpaceOnUse">
<stop offset="0.1453" stop-color="#00B8D9"/>
<stop offset="0.1842" stop-color="#1CC2DF"/>
<stop offset="0.2403" stop-color="#3DCDE6"/>
<stop offset="0.298" stop-color="#58D6EB"/>
<stop offset="0.3569" stop-color="#6ADDEF"/>
<stop offset="0.4179" stop-color="#75E1F1"/>
<stop offset="0.4843" stop-color="#79E2F2"/>
<stop offset="0.519" stop-color="#79E2F2"/>
</linearGradient>
<linearGradient id="paint42_linear" x1="82.0926" y1="155.566" x2="82.0926" y2="0" gradientUnits="userSpaceOnUse">
<stop offset="0.1453" stop-color="#00B8D9"/>
<stop offset="0.1842" stop-color="#1CC2DF"/>
<stop offset="0.2403" stop-color="#3DCDE6"/>
<stop offset="0.298" stop-color="#58D6EB"/>
<stop offset="0.3569" stop-color="#6ADDEF"/>
<stop offset="0.4179" stop-color="#75E1F1"/>
<stop offset="0.4843" stop-color="#79E2F2"/>
<stop offset="0.519" stop-color="#79E2F2"/>
</linearGradient>
<linearGradient id="paint43_linear" x1="82.0669" y1="155.566" x2="82.0669" y2="0" gradientUnits="userSpaceOnUse">
<stop offset="0.1453" stop-color="#00B8D9"/>
<stop offset="0.1842" stop-color="#1CC2DF"/>
<stop offset="0.2403" stop-color="#3DCDE6"/>
<stop offset="0.298" stop-color="#58D6EB"/>
<stop offset="0.3569" stop-color="#6ADDEF"/>
<stop offset="0.4179" stop-color="#75E1F1"/>
<stop offset="0.4843" stop-color="#79E2F2"/>
<stop offset="0.519" stop-color="#79E2F2"/>
</linearGradient>
<linearGradient id="paint44_linear" x1="82.0407" y1="155.566" x2="82.0407" y2="0" gradientUnits="userSpaceOnUse">
<stop offset="0.1453" stop-color="#00B8D9"/>
<stop offset="0.1842" stop-color="#1CC2DF"/>
<stop offset="0.2403" stop-color="#3DCDE6"/>
<stop offset="0.298" stop-color="#58D6EB"/>
<stop offset="0.3569" stop-color="#6ADDEF"/>
<stop offset="0.4179" stop-color="#75E1F1"/>
<stop offset="0.4843" stop-color="#79E2F2"/>
<stop offset="0.519" stop-color="#79E2F2"/>
</linearGradient>
<linearGradient id="paint45_linear" x1="82.0127" y1="155.566" x2="82.0127" y2="0" gradientUnits="userSpaceOnUse">
<stop offset="0.1453" stop-color="#00B8D9"/>
<stop offset="0.1842" stop-color="#1CC2DF"/>
<stop offset="0.2403" stop-color="#3DCDE6"/>
<stop offset="0.298" stop-color="#58D6EB"/>
<stop offset="0.3569" stop-color="#6ADDEF"/>
<stop offset="0.4179" stop-color="#75E1F1"/>
<stop offset="0.4843" stop-color="#79E2F2"/>
<stop offset="0.519" stop-color="#79E2F2"/>
</linearGradient>
<linearGradient id="paint46_linear" x1="81.9866" y1="155.566" x2="81.9866" y2="0" gradientUnits="userSpaceOnUse">
<stop offset="0.1453" stop-color="#00B8D9"/>
<stop offset="0.1842" stop-color="#1CC2DF"/>
<stop offset="0.2403" stop-color="#3DCDE6"/>
<stop offset="0.298" stop-color="#58D6EB"/>
<stop offset="0.3569" stop-color="#6ADDEF"/>
<stop offset="0.4179" stop-color="#75E1F1"/>
<stop offset="0.4843" stop-color="#79E2F2"/>
<stop offset="0.519" stop-color="#79E2F2"/>
</linearGradient>
<linearGradient id="paint47_linear" x1="81.9605" y1="155.566" x2="81.9605" y2="0" gradientUnits="userSpaceOnUse">
<stop offset="0.1453" stop-color="#00B8D9"/>
<stop offset="0.1842" stop-color="#1CC2DF"/>
<stop offset="0.2403" stop-color="#3DCDE6"/>
<stop offset="0.298" stop-color="#58D6EB"/>
<stop offset="0.3569" stop-color="#6ADDEF"/>
<stop offset="0.4179" stop-color="#75E1F1"/>
<stop offset="0.4843" stop-color="#79E2F2"/>
<stop offset="0.519" stop-color="#79E2F2"/>
</linearGradient>
<linearGradient id="paint48_linear" x1="81.9344" y1="155.566" x2="81.9344" y2="0" gradientUnits="userSpaceOnUse">
<stop offset="0.1453" stop-color="#00B8D9"/>
<stop offset="0.1842" stop-color="#1CC2DF"/>
<stop offset="0.2403" stop-color="#3DCDE6"/>
<stop offset="0.298" stop-color="#58D6EB"/>
<stop offset="0.3569" stop-color="#6ADDEF"/>
<stop offset="0.4179" stop-color="#75E1F1"/>
<stop offset="0.4843" stop-color="#79E2F2"/>
<stop offset="0.519" stop-color="#79E2F2"/>
</linearGradient>
<linearGradient id="paint49_linear" x1="81.9067" y1="155.566" x2="81.9067" y2="0" gradientUnits="userSpaceOnUse">
<stop offset="0.1453" stop-color="#00B8D9"/>
<stop offset="0.1842" stop-color="#1CC2DF"/>
<stop offset="0.2403" stop-color="#3DCDE6"/>
<stop offset="0.298" stop-color="#58D6EB"/>
<stop offset="0.3569" stop-color="#6ADDEF"/>
<stop offset="0.4179" stop-color="#75E1F1"/>
<stop offset="0.4843" stop-color="#79E2F2"/>
<stop offset="0.519" stop-color="#79E2F2"/>
</linearGradient>
<linearGradient id="paint50_linear" x1="81.8806" y1="155.566" x2="81.8806" y2="0" gradientUnits="userSpaceOnUse">
<stop offset="0.1453" stop-color="#00B8D9"/>
<stop offset="0.1842" stop-color="#1CC2DF"/>
<stop offset="0.2403" stop-color="#3DCDE6"/>
<stop offset="0.298" stop-color="#58D6EB"/>
<stop offset="0.3569" stop-color="#6ADDEF"/>
<stop offset="0.4179" stop-color="#75E1F1"/>
<stop offset="0.4843" stop-color="#79E2F2"/>
<stop offset="0.519" stop-color="#79E2F2"/>
</linearGradient>
<linearGradient id="paint51_linear" x1="81.8545" y1="155.566" x2="81.8545" y2="0" gradientUnits="userSpaceOnUse">
<stop offset="0.1453" stop-color="#00B8D9"/>
<stop offset="0.1842" stop-color="#1CC2DF"/>
<stop offset="0.2403" stop-color="#3DCDE6"/>
<stop offset="0.298" stop-color="#58D6EB"/>
<stop offset="0.3569" stop-color="#6ADDEF"/>
<stop offset="0.4179" stop-color="#75E1F1"/>
<stop offset="0.4843" stop-color="#79E2F2"/>
<stop offset="0.519" stop-color="#79E2F2"/>
</linearGradient>
<linearGradient id="paint52_linear" x1="1.32065" y1="-70.1588" x2="187.197" y2="115.642" gradientUnits="userSpaceOnUse">
<stop stop-color="#FFE380"/>
<stop offset="1" stop-color="#FFAB00"/>
</linearGradient>
<linearGradient id="paint53_linear" x1="75.0405" y1="40.9224" x2="168.013" y2="133.857" gradientUnits="userSpaceOnUse">
<stop stop-color="#FFE380"/>
<stop offset="1" stop-color="#FFAB00"/>
</linearGradient>
<linearGradient id="paint54_linear" x1="79.436" y1="36.5259" x2="172.408" y2="129.46" gradientUnits="userSpaceOnUse">
<stop stop-color="#FFE380"/>
<stop offset="1" stop-color="#FFAB00"/>
</linearGradient>
<linearGradient id="paint55_linear" x1="70.6687" y1="45.2958" x2="163.641" y2="138.23" gradientUnits="userSpaceOnUse">
<stop stop-color="#FFE380"/>
<stop offset="1" stop-color="#FFAB00"/>
</linearGradient>
<linearGradient id="paint56_linear" x1="88.7195" y1="27.2394" x2="181.691" y2="120.173" gradientUnits="userSpaceOnUse">
<stop stop-color="#FFE380"/>
<stop offset="1" stop-color="#FFAB00"/>
</linearGradient>
<linearGradient id="paint57_linear" x1="105.055" y1="10.8968" x2="198.027" y2="103.831" gradientUnits="userSpaceOnUse">
<stop stop-color="#FFE380"/>
<stop offset="1" stop-color="#FFAB00"/>
</linearGradient>
<linearGradient id="paint58_linear" x1="86.4796" y1="29.4803" x2="179.451" y2="122.415" gradientUnits="userSpaceOnUse">
<stop stop-color="#FFE380"/>
<stop offset="1" stop-color="#FFAB00"/>
</linearGradient>
<linearGradient id="paint59_linear" x1="67.6344" y1="34.481" x2="200.721" y2="159.07" gradientUnits="userSpaceOnUse">
<stop stop-color="#FF8B00"/>
<stop offset="1" stop-color="#FF8B00" stop-opacity="0"/>
</linearGradient>
<linearGradient id="paint60_linear" x1="95.8104" y1="20.1456" x2="188.783" y2="113.08" gradientUnits="userSpaceOnUse">
<stop stop-color="#FFE380"/>
<stop offset="1" stop-color="#FFAB00"/>
</linearGradient>
<linearGradient id="paint61_linear" x1="86.5548" y1="14.2718" x2="219.642" y2="138.861" gradientUnits="userSpaceOnUse">
<stop stop-color="#FF8B00"/>
<stop offset="1" stop-color="#FF8B00" stop-opacity="0"/>
</linearGradient>
<linearGradient id="paint62_linear" x1="112.502" y1="3.44679" x2="205.474" y2="96.381" gradientUnits="userSpaceOnUse">
<stop stop-color="#FFE380"/>
<stop offset="1" stop-color="#FFAB00"/>
</linearGradient>
<linearGradient id="paint63_linear" x1="103.211" y1="-3.52052" x2="236.298" y2="121.068" gradientUnits="userSpaceOnUse">
<stop stop-color="#FF8B00"/>
<stop offset="1" stop-color="#FF8B00" stop-opacity="0"/>
</linearGradient>
<linearGradient id="paint64_linear" x1="66.2808" y1="35.9274" x2="199.368" y2="160.516" gradientUnits="userSpaceOnUse">
<stop stop-color="#FF8B00"/>
<stop offset="1" stop-color="#FF8B00" stop-opacity="0"/>
</linearGradient>
<linearGradient id="paint65_linear" x1="96.1186" y1="83.7413" x2="97.9217" y2="83.3794" gradientUnits="userSpaceOnUse">
<stop stop-color="#00C7E5"/>
<stop offset="0.2085" stop-color="#00BCDC"/>
<stop offset="0.4311" stop-color="#00B8D9"/>
</linearGradient>
<linearGradient id="paint66_linear" x1="91.3189" y1="86.6084" x2="93.4647" y2="86.2241" gradientUnits="userSpaceOnUse">
<stop stop-color="#00C7E5"/>
<stop offset="0.2085" stop-color="#00BCDC"/>
<stop offset="0.4311" stop-color="#00B8D9"/>
</linearGradient>
<linearGradient id="paint67_linear" x1="95.0417" y1="54.3599" x2="108.284" y2="38.6455" gradientUnits="userSpaceOnUse">
<stop stop-color="#0049B0"/>
<stop offset="0.1372" stop-color="#004FC1"/>
<stop offset="0.4546" stop-color="#005BE3"/>
<stop offset="0.7173" stop-color="#0062F7"/>
<stop offset="0.8912" stop-color="#0065FF"/>
</linearGradient>
<linearGradient id="paint68_linear" x1="99.4584" y1="30.8792" x2="99.4584" y2="28.7755" gradientUnits="userSpaceOnUse">
<stop offset="0.1817" stop-color="#D4B696"/>
<stop offset="0.3716" stop-color="#D1B494"/>
<stop offset="1" stop-color="#998675"/>
</linearGradient>
<linearGradient id="paint69_linear" x1="72.1645" y1="137.234" x2="136.79" y2="137.234" gradientUnits="userSpaceOnUse">
<stop stop-color="#DFE1E5"/>
<stop offset="0.28" stop-color="#EEEFF1"/>
<stop offset="0.6525" stop-color="#FBFBFB"/>
<stop offset="1" stop-color="white"/>
</linearGradient>
<linearGradient id="paint70_linear" x1="99.5115" y1="125.839" x2="116.735" y2="125.839" gradientUnits="userSpaceOnUse">
<stop stop-color="#C1C7D0"/>
<stop offset="1" stop-color="#C1C7D0" stop-opacity="0.1"/>
</linearGradient>
<linearGradient id="paint71_linear" x1="99.5112" y1="137.234" x2="116.735" y2="137.234" gradientUnits="userSpaceOnUse">
<stop stop-color="#7A869A"/>
<stop offset="1" stop-color="#7A869A" stop-opacity="0.1"/>
</linearGradient>
<linearGradient id="paint72_linear" x1="101.409" y1="125.576" x2="99.7481" y2="127.273" gradientUnits="userSpaceOnUse">
<stop offset="0.2543" stop-color="#FFAB00"/>
<stop offset="0.4328" stop-color="#FFA903"/>
<stop offset="0.5784" stop-color="#FFA30D"/>
<stop offset="0.7123" stop-color="#FF991E"/>
<stop offset="0.7163" stop-color="#FF991F"/>
</linearGradient>
<linearGradient id="paint73_linear" x1="101.532" y1="157.766" x2="101.532" y2="135.307" gradientUnits="userSpaceOnUse">
<stop offset="0.2758" stop-color="#505F79"/>
<stop offset="0.626" stop-color="#344563"/>
<stop offset="1" stop-color="#344563"/>
</linearGradient>
<linearGradient id="paint74_linear" x1="99.7449" y1="146.029" x2="113.288" y2="146.029" gradientUnits="userSpaceOnUse">
<stop offset="0.1834" stop-color="#505F79"/>
<stop offset="0.4247" stop-color="#485773"/>
<stop offset="0.7643" stop-color="#344563"/>
<stop offset="1" stop-color="#344563"/>
</linearGradient>
<linearGradient id="paint75_linear" x1="99.6666" y1="128.885" x2="106.856" y2="129.351" gradientUnits="userSpaceOnUse">
<stop stop-color="#FFE380"/>
<stop offset="0.00471622" stop-color="#FFE27F"/>
<stop offset="0.1508" stop-color="#FFD258"/>
<stop offset="0.3016" stop-color="#FFC438"/>
<stop offset="0.458" stop-color="#FFB91F"/>
<stop offset="0.6211" stop-color="#FFB10E"/>
<stop offset="0.7954" stop-color="#FFAC03"/>
<stop offset="1" stop-color="#FFAB00"/>
</linearGradient>
<linearGradient id="paint76_linear" x1="88.4104" y1="160.44" x2="126.374" y2="160.44" gradientUnits="userSpaceOnUse">
<stop offset="0.1195" stop-color="#091E42" stop-opacity="0"/>
<stop offset="1" stop-color="#091E42"/>
</linearGradient>
<linearGradient id="paint77_linear" x1="93.5226" y1="60.6504" x2="93.5226" y2="56.2245" gradientUnits="userSpaceOnUse">
<stop stop-color="#253858" stop-opacity="0.1"/>
<stop offset="0.7192" stop-color="#253858"/>
</linearGradient>
</defs>
</svg>
