<svg width="239" height="182" viewBox="0 0 239 182" fill="none" xmlns="http://www.w3.org/2000/svg">
<path d="M137.008 26.4082H104.115V63.4956H137.008V26.4082Z" fill="url(#paint0_linear)"/>
<path d="M120.565 42.858C129.65 42.858 137.015 35.4931 137.015 26.4082C137.015 17.3232 129.65 9.95833 120.565 9.95833C111.48 9.95833 104.115 17.3232 104.115 26.4082C104.115 35.4931 111.48 42.858 120.565 42.858Z" fill="#57D9A3"/>
<path d="M117.224 32.8145L111.912 27.2235C111.851 27.1634 111.803 27.0919 111.77 27.0131C111.738 26.9342 111.721 26.8497 111.721 26.7643C111.721 26.6789 111.738 26.5944 111.77 26.5156C111.803 26.4368 111.851 26.3652 111.912 26.3051L113.323 24.968C113.383 24.9073 113.454 24.8592 113.533 24.8264C113.612 24.7935 113.697 24.7766 113.782 24.7766C113.867 24.7766 113.952 24.7935 114.031 24.8264C114.109 24.8592 114.181 24.9073 114.241 24.968L117.76 28.6782L126.929 19.9427C126.989 19.882 127.061 19.8339 127.14 19.801C127.219 19.7682 127.303 19.7513 127.388 19.7513C127.474 19.7513 127.558 19.7682 127.637 19.801C127.716 19.8339 127.788 19.882 127.848 19.9427L129.185 21.3459C129.245 21.406 129.294 21.4776 129.326 21.5564C129.359 21.6352 129.376 21.7197 129.376 21.8051C129.376 21.8905 129.359 21.975 129.326 22.0539C129.294 22.1327 129.245 22.2042 129.185 22.2643L118.164 32.7925C118.105 32.858 118.034 32.9107 117.954 32.9475C117.874 32.9843 117.787 33.0043 117.699 33.0064C117.611 33.0084 117.523 32.9925 117.442 32.9595C117.36 32.9265 117.286 32.8772 117.224 32.8145Z" fill="white"/>
<path d="M196.321 54.5471H44.8125V169.292H196.321V54.5471Z" fill="#4C9AFF"/>
<path d="M50.646 163.458V60.3806H78.8142V54.5471H44.8125V169.292H78.8142V163.458H50.646Z" fill="#B2D4FF"/>
<path d="M196.32 54.5471H162.318V60.3806H190.487V163.458H162.318V169.292H196.32V54.5471Z" fill="#B2D4FF"/>
<path d="M183.134 69.3217H58.0003C56.284 69.3217 54.8926 70.7131 54.8926 72.4295V91.9797C54.8926 93.6961 56.284 95.0875 58.0003 95.0875H183.134C184.85 95.0875 186.241 93.6961 186.241 91.9797V72.4295C186.241 70.7131 184.85 69.3217 183.134 69.3217Z" fill="url(#paint1_linear)"/>
<path d="M77.6705 74.6995H66.8338C65.8275 74.6995 65.0117 75.5152 65.0117 76.5215V87.3583C65.0117 88.3646 65.8275 89.1803 66.8338 89.1803H77.6705C78.6768 89.1803 79.4926 88.3646 79.4926 87.3583V76.5215C79.4926 75.5152 78.6768 74.6995 77.6705 74.6995Z" fill="#57D9A3"/>
<path d="M100.547 82.2082H148.853" stroke="#DFE1E5" stroke-width="4.05802" stroke-miterlimit="10"/>
<path d="M170.377 74.6262H165.344C161.347 74.6262 158.107 77.8662 158.107 81.8629V81.8703C158.107 85.867 161.347 89.107 165.344 89.107H170.377C174.374 89.107 177.614 85.867 177.614 81.8703V81.8629C177.614 77.8662 174.374 74.6262 170.377 74.6262Z" fill="#DFE1E5"/>
<path d="M183.134 99.0327H58.0003C56.284 99.0327 54.8926 100.424 54.8926 102.14V121.691C54.8926 123.407 56.284 124.798 58.0003 124.798H183.134C184.85 124.798 186.241 123.407 186.241 121.691V102.14C186.241 100.424 184.85 99.0327 183.134 99.0327Z" fill="url(#paint2_linear)"/>
<path d="M77.6705 104.418H66.8338C65.8275 104.418 65.0117 105.234 65.0117 106.24V117.077C65.0117 118.083 65.8275 118.899 66.8338 118.899H77.6705C78.6768 118.899 79.4926 118.083 79.4926 117.077V106.24C79.4926 105.234 78.6768 104.418 77.6705 104.418Z" fill="#57D9A3"/>
<path d="M69.2559 111.133L71.4893 113.374L75.2436 109.936" fill="#57D9A3"/>
<path d="M69.2559 111.133L71.4893 113.374L75.2436 109.936" stroke="white" stroke-width="4.05802" stroke-linecap="round" stroke-linejoin="round"/>
<path d="M100.547 111.919H148.853" stroke="#DFE1E5" stroke-width="4.05802" stroke-miterlimit="10"/>
<path d="M170.377 104.337H165.344C161.347 104.337 158.107 107.577 158.107 111.574V111.581C158.107 115.578 161.347 118.818 165.344 118.818H170.377C174.374 118.818 177.614 115.578 177.614 111.581V111.574C177.614 107.577 174.374 104.337 170.377 104.337Z" fill="#DFE1E5"/>
<path d="M183.134 128.751H58.0003C56.284 128.751 54.8926 130.143 54.8926 131.859V151.409C54.8926 153.126 56.284 154.517 58.0003 154.517H183.134C184.85 154.517 186.241 153.126 186.241 151.409V131.859C186.241 130.143 184.85 128.751 183.134 128.751Z" fill="url(#paint3_linear)"/>
<path d="M77.6705 134.129H66.8338C65.8275 134.129 65.0117 134.945 65.0117 135.951V146.788C65.0117 147.794 65.8275 148.61 66.8338 148.61H77.6705C78.6768 148.61 79.4926 147.794 79.4926 146.788V135.951C79.4926 134.945 78.6768 134.129 77.6705 134.129Z" fill="#57D9A3"/>
<path d="M69.2559 140.852L71.4893 143.085L75.2436 139.654" stroke="white" stroke-width="4.05802" stroke-linecap="round" stroke-linejoin="round"/>
<path d="M100.547 141.638H148.853" stroke="#DFE1E5" stroke-width="4.05802" stroke-miterlimit="10"/>
<path d="M170.377 134.056H165.344C161.347 134.056 158.107 137.296 158.107 141.292V141.3C158.107 145.297 161.347 148.537 165.344 148.537H170.377C174.374 148.537 177.614 145.297 177.614 141.3V141.292C177.614 137.296 174.374 134.056 170.377 134.056Z" fill="#DFE1E5"/>
<path d="M58.0372 69.3217H59.4331V95.0875H58.0372C57.1954 95.0875 56.3881 94.7531 55.7929 94.1579C55.1977 93.5627 54.8633 92.7554 54.8633 91.9136V72.4956C54.8633 71.6539 55.1977 70.8466 55.7929 70.2514C56.3881 69.6561 57.1954 69.3217 58.0372 69.3217Z" fill="#57D9A3"/>
<path d="M57.9122 99.0327H59.4697V124.798H57.9122C57.1113 124.798 56.3433 124.48 55.777 123.914C55.2107 123.348 54.8926 122.58 54.8926 121.779V102.052C54.8926 101.251 55.2107 100.483 55.777 99.9171C56.3433 99.3508 57.1113 99.0327 57.9122 99.0327Z" fill="#57D9A3"/>
<path d="M58.1032 128.751H59.4697V154.517H58.1032C57.2517 154.517 56.4351 154.179 55.8329 153.577C55.2308 152.975 54.8926 152.158 54.8926 151.306V131.962C54.8926 131.11 55.2308 130.294 55.8329 129.692C56.4351 129.09 57.2517 128.751 58.1032 128.751Z" fill="#57D9A3"/>
<path d="M69.2559 81.4222L71.4893 83.6557L75.2436 80.2246" stroke="white" stroke-width="4.05802" stroke-linecap="round" stroke-linejoin="round"/>
<defs>
<linearGradient id="paint0_linear" x1="120.565" y1="63.4956" x2="120.565" y2="26.4082" gradientUnits="userSpaceOnUse">
<stop stop-color="#ABF5D1" stop-opacity="0"/>
<stop offset="0.34" stop-color="#96F4CA" stop-opacity="0.25"/>
<stop offset="0.64" stop-color="#86F3C5" stop-opacity="0.44"/>
<stop offset="0.87" stop-color="#7DF2C1" stop-opacity="0.56"/>
<stop offset="1" stop-color="#79F2C0" stop-opacity="0.6"/>
</linearGradient>
<linearGradient id="paint1_linear" x1="82.1938" y1="120.574" x2="158.94" y2="43.8352" gradientUnits="userSpaceOnUse">
<stop stop-color="#DFE1E5"/>
<stop offset="0.11" stop-color="#E8E9ED"/>
<stop offset="0.31" stop-color="#F1F2F5"/>
<stop offset="0.58" stop-color="#F4F5F7"/>
</linearGradient>
<linearGradient id="paint2_linear" x1="6737.92" y1="5020.55" x2="7754.73" y2="-162.971" gradientUnits="userSpaceOnUse">
<stop stop-color="#DFE1E5"/>
<stop offset="0.11" stop-color="#E8E9ED"/>
<stop offset="0.31" stop-color="#F1F2F5"/>
<stop offset="0.58" stop-color="#F4F5F7"/>
</linearGradient>
<linearGradient id="paint3_linear" x1="6737.92" y1="6092.23" x2="7754.82" y2="908.751" gradientUnits="userSpaceOnUse">
<stop stop-color="#DFE1E5"/>
<stop offset="0.11" stop-color="#E8E9ED"/>
<stop offset="0.31" stop-color="#F1F2F5"/>
<stop offset="0.58" stop-color="#F4F5F7"/>
</linearGradient>
</defs>
</svg>
