<svg width="237" height="180" viewBox="0 0 237 180" fill="none" xmlns="http://www.w3.org/2000/svg">
<path d="M114.455 157.253C114.457 156.295 114.839 155.376 115.518 154.699C116.196 154.022 117.116 153.642 118.074 153.642H151.833C154.554 152.108 157.173 150.402 159.676 148.533H73.1328C85.0839 157.489 99.526 162.502 114.455 162.879V157.253Z" fill="#F4F5F7"/>
<path opacity="0.2" d="M114.455 157.253C114.457 156.295 114.839 155.376 115.518 154.699C116.196 154.022 117.116 153.642 118.074 153.642H151.833C154.554 152.108 157.173 150.402 159.676 148.533H73.1328C85.0839 157.489 99.526 162.502 114.455 162.879V157.253Z" fill="url(#paint0_radial)"/>
<path d="M159.948 32.9395H72.8814C60.1566 42.5387 50.9559 56.0696 46.707 71.4324H186.102C181.858 56.0729 172.665 42.5426 159.948 32.9395Z" fill="white"/>
<path opacity="0.2" d="M159.948 32.9395H72.8814C60.1566 42.5387 50.9559 56.0696 46.707 71.4324H186.102C181.858 56.0729 172.665 42.5426 159.948 32.9395Z" fill="url(#paint1_radial)"/>
<path d="M188.672 90.6271C188.677 84.142 187.81 77.6857 186.094 71.4316H46.7059C43.2457 84.0497 43.2598 97.3683 46.7467 109.979H186.053C187.797 103.676 188.678 97.1665 188.672 90.6271Z" fill="#EBECF0"/>
<path opacity="0.2" d="M188.672 90.6271C188.677 84.142 187.81 77.6857 186.094 71.4316H46.7059C43.2457 84.0497 43.2598 97.3683 46.7467 109.979H186.053C187.797 103.676 188.678 97.1665 188.672 90.6271Z" fill="url(#paint2_radial)"/>
<path d="M186.055 109.979H46.748C51.0408 125.394 60.3193 138.951 73.1333 148.534H159.676C172.488 138.951 181.764 125.393 186.055 109.979Z" fill="white"/>
<path opacity="0.2" d="M186.055 109.979H46.748C51.0408 125.394 60.3193 138.951 73.1333 148.534H159.676C172.488 138.951 181.764 125.393 186.055 109.979Z" fill="url(#paint3_radial)"/>
<path d="M116.401 18.3487C101.521 18.3282 87.0004 22.9219 74.8398 31.4971H157.968C145.805 22.9218 131.283 18.3282 116.401 18.3487Z" fill="#EBECF0"/>
<path opacity="0.2" d="M116.401 18.3487C101.521 18.3282 87.0004 22.9219 74.8398 31.4971H157.968C145.805 22.9218 131.283 18.3282 116.401 18.3487Z" fill="url(#paint4_radial)"/>
<path d="M114.455 157.254V162.88C115.135 162.88 115.754 162.88 116.401 162.88C128.813 162.899 141.018 159.707 151.833 153.615H118.074C117.597 153.615 117.125 153.709 116.684 153.893C116.244 154.076 115.844 154.344 115.508 154.682C115.171 155.021 114.905 155.422 114.725 155.863C114.544 156.305 114.452 156.777 114.455 157.254Z" fill="#F4F5F7"/>
<path d="M114.455 157.254V162.88C115.135 162.88 115.754 162.88 116.401 162.88C128.813 162.899 141.018 159.707 151.833 153.615H118.074C117.597 153.615 117.125 153.709 116.684 153.893C116.244 154.076 115.844 154.344 115.508 154.682C115.171 155.021 114.905 155.422 114.725 155.863C114.544 156.305 114.452 156.777 114.455 157.254Z" fill="url(#paint5_linear)"/>
<path opacity="0.2" d="M114.455 157.254V162.88C115.135 162.88 115.754 162.88 116.401 162.88C128.813 162.899 141.018 159.707 151.833 153.615H118.074C117.597 153.615 117.125 153.709 116.684 153.893C116.244 154.076 115.844 154.344 115.508 154.682C115.171 155.021 114.905 155.422 114.725 155.863C114.544 156.305 114.452 156.777 114.455 157.254Z" fill="url(#paint6_radial)"/>
<path d="M157.968 31.4971H74.8397C74.1595 31.9664 73.4793 32.4494 72.8535 32.9391H159.92C159.294 32.4494 158.635 31.9664 157.968 31.4971Z" fill="#DFE1E5"/>
<path opacity="0.2" d="M157.968 31.4971H74.8397C74.1595 31.9664 73.4793 32.4494 72.8535 32.9391H159.92C159.294 32.4494 158.635 31.9664 157.968 31.4971Z" fill="url(#paint7_radial)"/>
<path d="M135.766 115.095H58.6646C56.6698 115.095 55.0527 116.712 55.0527 118.707V140.392C55.0527 142.386 56.6698 144.004 58.6646 144.004H135.766C137.761 144.004 139.378 142.386 139.378 140.392V118.707C139.378 116.712 137.761 115.095 135.766 115.095Z" fill="url(#paint8_linear)"/>
<path d="M146.731 37.626H40.5982C38.6034 37.626 36.9863 39.2431 36.9863 41.2379V62.9229C36.9863 64.9177 38.6034 66.5348 40.5982 66.5348H146.731C148.726 66.5348 150.343 64.9177 150.343 62.9229V41.2379C150.343 39.2431 148.726 37.626 146.731 37.626Z" fill="url(#paint9_linear)"/>
<path d="M197.114 76.3633H103.028C101.033 76.3633 99.416 77.9804 99.416 79.9752V101.66C99.416 103.655 101.033 105.272 103.028 105.272H197.114C199.109 105.272 200.726 103.655 200.726 101.66V79.9752C200.726 77.9804 199.109 76.3633 197.114 76.3633Z" fill="url(#paint10_linear)"/>
<path d="M191.578 81.1797H191.571C189.576 81.1797 187.959 82.7968 187.959 84.7916V96.8449C187.959 98.8397 189.576 100.457 191.571 100.457H191.578C193.573 100.457 195.19 98.8397 195.19 96.8449V84.7916C195.19 82.7968 193.573 81.1797 191.578 81.1797Z" fill="#0065FF"/>
<path d="M111.632 12.3291H101.986L105.605 19.5665V168.933C105.605 169.253 105.732 169.559 105.958 169.785C106.183 170.01 106.49 170.137 106.809 170.137C107.128 170.137 107.435 170.01 107.66 169.785C107.886 169.559 108.013 169.253 108.013 168.933V19.5665L111.632 12.3291Z" fill="url(#paint11_linear)"/>
<defs>
<radialGradient id="paint0_radial" cx="0" cy="0" r="1" gradientUnits="userSpaceOnUse" gradientTransform="translate(116.401 90.6271) scale(72.2789)">
<stop offset="0.78" stop-color="#A5ADBA" stop-opacity="0"/>
<stop offset="0.81" stop-color="#A5ADBA" stop-opacity="0.03"/>
<stop offset="0.84" stop-color="#A5ADBA" stop-opacity="0.1"/>
<stop offset="0.88" stop-color="#A5ADBA" stop-opacity="0.23"/>
<stop offset="0.91" stop-color="#A5ADBA" stop-opacity="0.41"/>
<stop offset="0.95" stop-color="#A5ADBA" stop-opacity="0.63"/>
<stop offset="0.99" stop-color="#A5ADBA" stop-opacity="0.91"/>
<stop offset="1" stop-color="#A5ADBA"/>
</radialGradient>
<radialGradient id="paint1_radial" cx="0" cy="0" r="1" gradientUnits="userSpaceOnUse" gradientTransform="translate(116.401 90.6279) scale(72.2789)">
<stop offset="0.78" stop-color="#A5ADBA" stop-opacity="0"/>
<stop offset="0.81" stop-color="#A5ADBA" stop-opacity="0.03"/>
<stop offset="0.84" stop-color="#A5ADBA" stop-opacity="0.1"/>
<stop offset="0.88" stop-color="#A5ADBA" stop-opacity="0.23"/>
<stop offset="0.91" stop-color="#A5ADBA" stop-opacity="0.41"/>
<stop offset="0.95" stop-color="#A5ADBA" stop-opacity="0.63"/>
<stop offset="0.99" stop-color="#A5ADBA" stop-opacity="0.91"/>
<stop offset="1" stop-color="#A5ADBA"/>
</radialGradient>
<radialGradient id="paint2_radial" cx="0" cy="0" r="1" gradientUnits="userSpaceOnUse" gradientTransform="translate(116.4 90.6271) scale(72.2789)">
<stop offset="0.78" stop-color="#A5ADBA" stop-opacity="0"/>
<stop offset="0.81" stop-color="#A5ADBA" stop-opacity="0.03"/>
<stop offset="0.84" stop-color="#A5ADBA" stop-opacity="0.1"/>
<stop offset="0.88" stop-color="#A5ADBA" stop-opacity="0.23"/>
<stop offset="0.91" stop-color="#A5ADBA" stop-opacity="0.41"/>
<stop offset="0.95" stop-color="#A5ADBA" stop-opacity="0.63"/>
<stop offset="0.99" stop-color="#A5ADBA" stop-opacity="0.91"/>
<stop offset="1" stop-color="#A5ADBA"/>
</radialGradient>
<radialGradient id="paint3_radial" cx="0" cy="0" r="1" gradientUnits="userSpaceOnUse" gradientTransform="translate(116.401 90.6276) scale(72.2789)">
<stop offset="0.78" stop-color="#A5ADBA" stop-opacity="0"/>
<stop offset="0.81" stop-color="#A5ADBA" stop-opacity="0.03"/>
<stop offset="0.84" stop-color="#A5ADBA" stop-opacity="0.1"/>
<stop offset="0.88" stop-color="#A5ADBA" stop-opacity="0.23"/>
<stop offset="0.91" stop-color="#A5ADBA" stop-opacity="0.41"/>
<stop offset="0.95" stop-color="#A5ADBA" stop-opacity="0.63"/>
<stop offset="0.99" stop-color="#A5ADBA" stop-opacity="0.91"/>
<stop offset="1" stop-color="#A5ADBA"/>
</radialGradient>
<radialGradient id="paint4_radial" cx="0" cy="0" r="1" gradientUnits="userSpaceOnUse" gradientTransform="translate(9780.06 1532.13) scale(8834.04 1397.29)">
<stop offset="0.78" stop-color="#A5ADBA" stop-opacity="0"/>
<stop offset="0.81" stop-color="#A5ADBA" stop-opacity="0.03"/>
<stop offset="0.84" stop-color="#A5ADBA" stop-opacity="0.1"/>
<stop offset="0.88" stop-color="#A5ADBA" stop-opacity="0.23"/>
<stop offset="0.91" stop-color="#A5ADBA" stop-opacity="0.41"/>
<stop offset="0.95" stop-color="#A5ADBA" stop-opacity="0.63"/>
<stop offset="0.99" stop-color="#A5ADBA" stop-opacity="0.91"/>
<stop offset="1" stop-color="#A5ADBA"/>
</radialGradient>
<linearGradient id="paint5_linear" x1="114.455" y1="158.275" x2="259.013" y2="158.275" gradientUnits="userSpaceOnUse">
<stop stop-color="#0065FF"/>
<stop offset="1" stop-color="#4C9AFF"/>
</linearGradient>
<radialGradient id="paint6_radial" cx="0" cy="0" r="1" gradientUnits="userSpaceOnUse" gradientTransform="translate(116.401 90.6281) scale(72.2789 72.2787)">
<stop offset="0.78" stop-color="#A5ADBA" stop-opacity="0"/>
<stop offset="0.81" stop-color="#A5ADBA" stop-opacity="0.03"/>
<stop offset="0.84" stop-color="#A5ADBA" stop-opacity="0.1"/>
<stop offset="0.88" stop-color="#A5ADBA" stop-opacity="0.23"/>
<stop offset="0.91" stop-color="#A5ADBA" stop-opacity="0.41"/>
<stop offset="0.95" stop-color="#A5ADBA" stop-opacity="0.63"/>
<stop offset="0.99" stop-color="#A5ADBA" stop-opacity="0.91"/>
<stop offset="1" stop-color="#A5ADBA"/>
</radialGradient>
<radialGradient id="paint7_radial" cx="0" cy="0" r="1" gradientUnits="userSpaceOnUse" gradientTransform="translate(116.4 90.6276) scale(72.2789)">
<stop offset="0.78" stop-color="#A5ADBA" stop-opacity="0"/>
<stop offset="0.81" stop-color="#A5ADBA" stop-opacity="0.03"/>
<stop offset="0.84" stop-color="#A5ADBA" stop-opacity="0.1"/>
<stop offset="0.88" stop-color="#A5ADBA" stop-opacity="0.23"/>
<stop offset="0.91" stop-color="#A5ADBA" stop-opacity="0.41"/>
<stop offset="0.95" stop-color="#A5ADBA" stop-opacity="0.63"/>
<stop offset="0.99" stop-color="#A5ADBA" stop-opacity="0.91"/>
<stop offset="1" stop-color="#A5ADBA"/>
</radialGradient>
<linearGradient id="paint8_linear" x1="2294.73" y1="5096.95" x2="12748.6" y2="5096.95" gradientUnits="userSpaceOnUse">
<stop stop-color="#0065FF"/>
<stop offset="1" stop-color="#4C9AFF"/>
</linearGradient>
<linearGradient id="paint9_linear" x1="36.9863" y1="52.0872" x2="150.343" y2="52.0872" gradientUnits="userSpaceOnUse">
<stop stop-color="#2684FF"/>
<stop offset="1" stop-color="#4C9AFF"/>
</linearGradient>
<linearGradient id="paint10_linear" x1="9397.66" y1="3412.15" x2="24486.8" y2="3412.15" gradientUnits="userSpaceOnUse">
<stop stop-color="#0065FF"/>
<stop offset="1" stop-color="#4C9AFF"/>
</linearGradient>
<linearGradient id="paint11_linear" x1="106.809" y1="12.8325" x2="106.809" y2="99.8038" gradientUnits="userSpaceOnUse">
<stop stop-color="#FFAB00"/>
<stop offset="1" stop-color="#FF991F"/>
</linearGradient>
</defs>
</svg>
