<svg width="570" height="372" viewBox="0 0 570 372" fill="none" xmlns="http://www.w3.org/2000/svg">
<g clip-path="url(#clip0)">
<rect width="569.18" height="371.12" fill="white" fill-opacity="0.01"/>
<path opacity="0.1" d="M240.23 361.32C259.267 361.32 274.7 358.804 274.7 355.7C274.7 352.596 259.267 350.08 240.23 350.08C221.193 350.08 205.76 352.596 205.76 355.7C205.76 358.804 221.193 361.32 240.23 361.32Z" fill="#344563"/>
<path opacity="0.1" d="M42.5 363.52C64.6024 363.52 82.52 360.601 82.52 357C82.52 353.399 64.6024 350.48 42.5 350.48C20.3975 350.48 2.47998 353.399 2.47998 357C2.47998 360.601 20.3975 363.52 42.5 363.52Z" fill="#344563"/>
<path opacity="0.1" d="M405.28 371.12C430.978 371.12 451.81 367.722 451.81 363.53C451.81 359.338 430.978 355.94 405.28 355.94C379.582 355.94 358.75 359.338 358.75 363.53C358.75 367.722 379.582 371.12 405.28 371.12Z" fill="#344563"/>
<path opacity="0.05" d="M565.31 314.35H215.2L51.6201 340.63H494.75L565.88 322.06C568 321.74 569.45 319.76 569.13 317.64C568.85 315.75 567.22 314.35 565.31 314.35Z" fill="#344563"/>
<path d="M224.39 319.23H530.37C532.75 319.36 534.78 317.54 534.91 315.16C534.94 314.61 534.87 314.07 534.69 313.55L443.41 28.1C442.58 25.74 440.35 24.17 437.85 24.15H131.88C129.5 23.99 127.45 25.8 127.3 28.17C127.26 28.73 127.34 29.29 127.52 29.83L218.84 315.27C219.66 317.64 221.89 319.22 224.39 319.23Z" fill="url(#paint0_linear)"/>
<path d="M183.61 340.63H489.58C492.43 340.65 494.75 338.35 494.76 335.5C494.76 335.18 494.73 334.86 494.68 334.55L438.8 28.39C438.35 25.94 436.22 24.15 433.72 24.16H127.74C124.89 24.16 122.58 26.46 122.58 29.31C122.58 29.63 122.61 29.94 122.67 30.25L178.53 336.4C178.97 338.86 181.12 340.64 183.61 340.63Z" fill="#C1C7D0"/>
<path d="M445.66 340.63H139.53C136.8 340.64 134.54 338.51 134.37 335.78L115.76 29.64C115.58 26.8 117.74 24.35 120.58 24.17C120.69 24.16 120.8 24.16 120.91 24.16H427.04C429.77 24.16 432.03 26.28 432.2 29.01L450.82 335.16C451 338 448.84 340.45 446 340.63C445.88 340.63 445.77 340.63 445.66 340.63Z" fill="url(#paint1_linear)"/>
<path d="M401.67 340.63H95.5299C92.6799 340.64 90.3699 338.33 90.3599 335.48C90.3599 335.37 90.3599 335.26 90.3699 335.15L109.01 29.0001C109.17 26.2701 111.44 24.1501 114.17 24.1501H420.29C423.14 24.1401 425.45 26.4501 425.46 29.3001C425.46 29.4101 425.46 29.5201 425.45 29.6301L406.82 335.77C406.66 338.5 404.4 340.63 401.67 340.63Z" fill="url(#paint2_linear)"/>
<path d="M357.59 340.63H51.62C48.77 340.63 46.46 338.33 46.46 335.48C46.46 335.17 46.49 334.86 46.54 334.55L102.35 28.39C102.8 25.94 104.93 24.15 107.43 24.16H413.46C416.31 24.16 418.62 26.46 418.62 29.31C418.62 29.63 418.59 29.94 418.53 30.25L362.67 336.4C362.22 338.85 360.08 340.63 357.59 340.63Z" fill="url(#paint3_linear)"/>
<path d="M418.53 30.25C419 27.8 417.65 25.36 415.32 24.46L118.47 33.6C115.97 33.61 113.75 35.19 112.91 37.55L84.5599 126.15L47.6099 328.67H331.94C334.44 328.66 336.66 327.08 337.5 324.72L414.67 51.57L418.53 30.25Z" fill="url(#paint4_linear)"/>
<path d="M313.05 319.23H7.07008C4.69007 319.39 2.64008 317.58 2.49008 315.21C2.45008 314.65 2.53008 314.09 2.71008 313.55L94.0201 28.1C94.8501 25.74 97.0801 24.17 99.5801 24.15H405.57C407.95 23.99 410 25.8 410.15 28.17C410.19 28.73 410.11 29.29 409.93 29.83L318.61 315.27C317.79 317.64 315.56 319.22 313.05 319.23Z" fill="url(#paint5_linear)"/>
<path d="M405.57 24.1599H99.5898C97.0898 24.1699 94.8698 25.7499 94.0298 28.1099L80.5298 70.3499H396.99L409.94 29.87C410.71 27.62 409.51 25.1599 407.26 24.3899C406.72 24.1999 406.14 24.1199 405.57 24.1599Z" fill="#FF7143"/>
<path d="M342.41 54.5C346.828 54.5 350.41 50.9183 350.41 46.5C350.41 42.0817 346.828 38.5 342.41 38.5C337.992 38.5 334.41 42.0817 334.41 46.5C334.41 50.9183 337.992 54.5 342.41 54.5Z" fill="#0065FF"/>
<path d="M366.55 24.15H362.96C362.96 12.82 353.74 3.59 342.4 3.59C331.06 3.59 321.84 12.81 321.84 24.15H318.25C318.26 10.83 329.09 0 342.41 0C355.73 0 366.55 10.83 366.55 24.15Z" fill="#EBECF0"/>
<path d="M342.42 48.29C329.11 48.29 318.27 37.46 318.27 24.14H321.86C321.86 35.47 331.08 44.7 342.42 44.7V48.29Z" fill="url(#paint6_linear)"/>
<path d="M240.79 54.5C245.208 54.5 248.79 50.9183 248.79 46.5C248.79 42.0817 245.208 38.5 240.79 38.5C236.372 38.5 232.79 42.0817 232.79 46.5C232.79 50.9183 236.372 54.5 240.79 54.5Z" fill="#0065FF"/>
<path d="M264.94 24.15H261.35C261.35 12.82 252.13 3.59 240.79 3.59C229.46 3.59 220.23 12.81 220.23 24.15H216.64C216.65 10.83 227.48 0 240.8 0C254.11 0 264.94 10.83 264.94 24.15Z" fill="#EBECF0"/>
<path d="M240.79 48.29C227.48 48.29 216.64 37.46 216.64 24.14H220.23C220.23 35.47 229.45 44.7 240.79 44.7V48.29Z" fill="url(#paint7_linear)"/>
<path d="M139.18 54.5C143.598 54.5 147.18 50.9183 147.18 46.5C147.18 42.0817 143.598 38.5 139.18 38.5C134.762 38.5 131.18 42.0817 131.18 46.5C131.18 50.9183 134.762 54.5 139.18 54.5Z" fill="#0065FF"/>
<path d="M163.29 24.15H159.7C159.7 12.82 150.48 3.59 139.14 3.59C127.8 3.59 118.58 12.81 118.58 24.15H115C115 10.83 125.83 0 139.14 0C152.45 0 163.29 10.83 163.29 24.15Z" fill="#EBECF0"/>
<path d="M139.14 48.29C132.7 48.29 126.65 45.79 122.09 41.24C117.52 36.69 115 30.63 114.99 24.18L118.58 24.14C118.59 29.66 120.73 34.82 124.62 38.7C128.5 42.57 133.65 44.7 139.13 44.7C139.14 44.7 139.15 44.7 139.16 44.7L139.17 48.29C139.17 48.29 139.16 48.29 139.14 48.29Z" fill="url(#paint8_linear)"/>
<path d="M342.7 135.41L343.64 132.49H292.26L305.23 92.14H302.31L289.34 132.49H251.67L264.62 92.14H261.7L248.73 132.49H211.1L224.07 92.14H221.15L208.17 132.49H170.5L183.48 92.14H180.56L167.59 132.49H129.91L142.88 92.14H139.96L126.99 132.49H86.6398L85.6698 135.41H126.02L113.92 173.07H73.5898L72.6498 175.99H113L100.9 213.66H60.5398L59.5998 216.58H99.9498L87.8498 254.25H47.4898L46.5498 257.17H86.8998L73.9298 297.52H76.8498L89.8198 257.17H127.48L114.51 297.52H117.43L130.4 257.17H168.06L155.09 297.52H158.01L170.98 257.17H208.64L195.71 297.52H198.63L211.6 257.17H249.26L236.29 297.52H239.21L252.18 257.17H303.52L304.46 254.25H253.11L265.21 216.59H316.58L317.52 213.67H266.15L278.25 176.01H329.62L330.56 173.09H279.19L291.27 135.41H342.7ZM247.81 135.41L235.72 173.07H198.03L210.16 135.41H247.81ZM197.1 176H234.76L222.66 213.66H184.99L197.1 176ZM182.06 213.66H144.4L156.5 176H194.16L182.06 213.66ZM207.22 135.41L195.12 173.07H157.45L169.55 135.41H207.22ZM128.98 135.41H166.64L154.54 173.07H116.87L128.98 135.41ZM115.93 176H153.59L141.48 213.66H103.82L115.93 176ZM90.7598 254.25L102.86 216.59H140.52L128.42 254.25H90.7598ZM131.35 254.25L143.46 216.58H181.12L169.03 254.25H131.35ZM171.94 254.25L184.04 216.59H221.7L209.6 254.25H171.94ZM250.19 254.25H212.52L224.6 216.58H262.26L250.19 254.25ZM263.24 213.66H225.57L237.67 176H275.33L263.24 213.66ZM276.29 173.07H238.62L250.72 135.41H288.38L276.29 173.07Z" fill="url(#paint9_linear)"/>
<path opacity="0.7" d="M156.56 188.43L155.14 190.9C154.72 191.63 154.97 192.56 155.7 192.98C155.71 192.98 155.71 192.99 155.72 192.99L168.1 199.83C161.06 201.08 154.37 203.86 148.53 207.99C126.61 222.87 124.62 273.5 123.82 279.12C123.7 279.95 124.27 280.71 125.1 280.83C125.13 280.83 125.16 280.84 125.19 280.84L128.96 281.18C129.76 281.25 130.48 280.69 130.59 279.89C131.28 275.16 134.71 226.42 152.71 213.29C158.63 208.98 165.66 206.48 172.97 206.08L161.26 220.98C160.74 221.64 160.86 222.6 161.53 223.12L161.54 223.13L163.85 224.86C164.51 225.36 165.45 225.23 165.96 224.58L181.95 204.22C182.85 203.07 182.65 201.41 181.5 200.51C181.39 200.42 181.27 200.35 181.15 200.28L158.61 187.84C157.88 187.45 156.97 187.71 156.56 188.43Z" fill="url(#paint10_linear)"/>
<path opacity="0.7" d="M351.39 155.09L351.73 151.76C351.83 150.79 351.13 149.92 350.16 149.82C350.15 149.82 350.13 149.82 350.12 149.82L333.66 148.41C340.75 143.94 346.6 137.74 350.65 130.4C359.13 114.9 356.37 99.78 354.57 93.46C354.3 92.52 353.33 91.97 352.39 92.24C352.36 92.25 352.32 92.26 352.29 92.27L348.11 93.7C347.23 94.01 346.75 94.95 347 95.85C349.93 106.2 348.74 117.29 343.67 126.78C339.49 134.26 333.16 140.3 325.49 144.11L330.91 122.58C331.15 121.63 330.58 120.67 329.63 120.43C329.62 120.43 329.6 120.42 329.59 120.42L326.26 119.66C325.32 119.44 324.38 120.02 324.15 120.95L316.86 150.29C316.45 151.95 317.46 153.62 319.11 154.03C319.26 154.07 319.42 154.09 319.58 154.11L349.48 156.72C350.45 156.8 351.31 156.08 351.39 155.11C351.39 155.1 351.39 155.09 351.39 155.09Z" fill="url(#paint11_linear)"/>
<path d="M247.51 237.67C233.19 237.73 219.65 231.16 210.83 219.89C203.26 210.28 200.49 197.73 203.31 185.82C206.56 171.88 216.9 159.01 231.7 150.51C246.08 142.25 261.8 139.85 272.72 144.25C279.28 146.9 284.48 152.1 288.17 159.72L281.97 163.3C278.9 156.96 274.69 152.67 269.47 150.57C260.5 146.96 246.76 149.19 234.47 156.25C221.62 163.63 212.67 174.64 209.93 186.47C207.58 196.59 209.98 207.23 216.44 215.37C224.12 225.21 235.91 230.95 248.39 230.93C268.27 230.93 293.34 213.68 299.15 185.89C304.21 161.69 290.04 139.21 266.17 133.65L268.55 127.06C295.52 133.37 311.53 158.87 305.78 186.37C300.62 211.02 276.88 237.64 247.46 237.67H247.51Z" fill="#FF8F73"/>
<path d="M313.19 263.86L302.91 260.45C302.42 260.29 301.89 260.55 301.72 261.04L297.67 272.92C297.5 273.41 297.76 273.95 298.26 274.12L300.05 274.73C300.54 274.9 301.08 274.64 301.25 274.14L303.3 268.12L313.75 295.23C313.94 295.71 314.48 295.96 314.96 295.77L316.73 295.1C317.22 294.91 317.46 294.37 317.28 293.88L306.38 265.58L312 267.45C312.49 267.61 313.03 267.34 313.19 266.85L313.79 265.06C313.94 264.57 313.68 264.03 313.19 263.86Z" fill="#FF8F73"/>
<path d="M286.6 245.55L276.99 240.57C276.53 240.33 275.96 240.51 275.72 240.97L269.86 252.08C269.62 252.54 269.79 253.11 270.26 253.36L271.93 254.24C272.39 254.48 272.96 254.31 273.21 253.84L276.18 248.2L279.51 264.02C279.62 264.53 280.11 264.86 280.62 264.75L282.47 264.36C282.98 264.25 283.31 263.76 283.2 263.25L279.64 246.18L284.9 248.9C285.36 249.14 285.93 248.97 286.18 248.5L287.05 246.82C287.28 246.35 287.09 245.79 286.63 245.55C286.62 245.55 286.61 245.55 286.6 245.55Z" fill="#FFC400"/>
<path d="M311.71 222.3L300.92 223.28C300.4 223.33 300.02 223.78 300.06 224.3L301.1 236.81C301.14 237.33 301.6 237.72 302.12 237.68C302.12 237.68 302.12 237.68 302.13 237.68L304.01 237.52C304.53 237.48 304.92 237.02 304.88 236.5C304.88 236.5 304.88 236.5 304.88 236.49L304.35 230.14L315.64 241.7C316.01 242.07 316.61 242.07 316.97 241.7L318.33 240.38C318.7 240.01 318.7 239.41 318.33 239.05L306.1 226.57L312 226.04C312.52 225.99 312.9 225.54 312.86 225.02L312.69 223.14C312.63 222.64 312.21 222.28 311.71 222.3Z" fill="#FFC400"/>
<path d="M178.67 180.71L186.65 173.39C187.04 173.04 187.07 172.44 186.72 172.06L178.3 162.75C177.95 162.36 177.35 162.33 176.97 162.68L175.57 163.95C175.18 164.3 175.15 164.9 175.5 165.28L179.77 170L163.79 167.65C163.28 167.55 162.78 167.89 162.69 168.4C162.69 168.42 162.68 168.43 162.68 168.45L162.4 170.32C162.3 170.83 162.64 171.33 163.15 171.42C163.17 171.42 163.18 171.43 163.2 171.43L180.46 173.95L176.09 177.95C175.71 178.3 175.68 178.9 176.03 179.28L177.31 180.67C177.66 181.06 178.26 181.09 178.64 180.73C178.65 180.73 178.66 180.72 178.67 180.71Z" fill="#FF8F73"/>
<path d="M190.29 162.39L201.04 161.09C201.55 161.03 201.92 160.56 201.86 160.05L200.45 147.58C200.39 147.06 199.92 146.69 199.41 146.75L197.53 146.96C197.01 147.02 196.64 147.49 196.7 148L197.41 154.32L171.51 128.83C171.14 128.46 170.55 128.45 170.17 128.82L170.16 128.83L168.85 130.19C168.48 130.56 168.48 131.16 168.85 131.52L195.7 157.93L189.82 158.64C189.3 158.7 188.93 159.17 189 159.69L189.22 161.57C189.3 162.09 189.77 162.46 190.29 162.39Z" fill="#FFE380"/>
<path d="M204.6 247.18C203.94 247.52 203.2 247.69 202.45 247.67L197.89 247.55L194.81 251.51C194.33 252.13 193.73 252.63 193.03 252.99C191.85 253.62 190.45 253.65 189.24 253.08C188.05 252.5 187.22 251.37 187.02 250.07L186.19 245.39L182 243.89C180.4 243.28 179.34 241.75 179.34 240.03C179.29 238.19 180.17 236.45 181.69 235.41L185.74 232.63L186.23 227.74C186.41 225.91 187.51 224.29 189.15 223.45C190.65 222.62 192.5 222.82 193.8 223.94L197.13 226.91L201.58 225.39C203.17 224.8 204.95 225.28 206.03 226.59C207.11 228.01 207.31 229.9 206.55 231.51L204.6 236.13L206.89 240.08C207.56 241.29 207.68 242.72 207.22 244.03C206.79 245.37 205.85 246.51 204.6 247.18Z" fill="url(#paint12_linear)"/>
<path d="M205.13 244.25C204.47 244.59 203.73 244.76 202.98 244.74L198.42 244.62L195.34 248.58C194.86 249.2 194.26 249.7 193.56 250.06C192.38 250.69 190.98 250.72 189.77 250.15C188.58 249.57 187.75 248.44 187.55 247.14L186.72 242.46L182.53 240.96C180.93 240.35 179.87 238.82 179.87 237.1C179.82 235.26 180.7 233.52 182.22 232.48L186.27 229.7L186.76 224.81C186.94 222.98 188.04 221.36 189.68 220.52C191.18 219.69 193.03 219.89 194.33 221.01L197.66 223.98L202.11 222.46C203.7 221.87 205.48 222.35 206.56 223.66C207.64 225.08 207.84 226.97 207.08 228.58L205.09 233.19L207.38 237.14C208.05 238.35 208.17 239.78 207.71 241.09C207.3 242.42 206.37 243.56 205.13 244.25Z" fill="white"/>
<path d="M192.51 223.28L196.87 227.16L202.75 225.17C203.64 224.88 204.59 225.36 204.88 226.24C205.03 226.7 204.98 227.2 204.73 227.62L202.13 233.66L205.13 238.83C205.65 239.86 205.24 241.12 204.21 241.64C203.94 241.78 203.64 241.85 203.34 241.87L197.38 241.71L193.35 246.89C192.86 247.69 191.82 247.93 191.03 247.45C190.62 247.2 190.34 246.79 190.25 246.32L189.14 240.2L183.65 238.23C182.7 237.75 182.31 236.59 182.79 235.63C182.96 235.3 183.21 235.02 183.53 234.84L188.82 231.21L189.46 224.82C189.48 223.76 190.36 222.91 191.42 222.94C191.81 222.93 192.19 223.06 192.51 223.28Z" fill="#FFAB00"/>
<path d="M315.54 196.32C314.87 195.99 314.3 195.51 313.86 194.91L311.21 191.18L306.2 191.1C305.43 191.09 304.67 190.9 303.98 190.57C302.78 190 301.91 188.91 301.63 187.6C301.4 186.3 301.82 184.98 302.74 184.04L305.99 180.56L304.62 176.31C304.14 174.66 304.73 172.89 306.1 171.86C307.54 170.71 309.47 170.37 311.21 170.96L315.86 172.52L320.06 169.97C321.63 169.02 323.58 168.93 325.24 169.73C326.8 170.43 327.76 172.03 327.64 173.73L327.27 178.18L331.18 180.86C332.61 181.77 333.3 183.49 332.9 185.14C332.4 186.84 331.01 188.12 329.28 188.47L324.4 189.66L322.62 193.86C322.06 195.12 320.99 196.08 319.67 196.49C318.34 196.99 316.85 196.93 315.54 196.32Z" fill="url(#paint13_linear)"/>
<path d="M318.21 194.99C317.54 194.66 316.97 194.18 316.53 193.58L313.88 189.87L308.87 189.79C308.1 189.78 307.34 189.59 306.65 189.26C305.45 188.69 304.58 187.6 304.3 186.29C304.07 184.99 304.49 183.67 305.41 182.73L308.66 179.25L307.34 174.99C306.86 173.34 307.45 171.57 308.82 170.54C310.26 169.39 312.19 169.05 313.93 169.64L318.58 171.2L322.78 168.65C324.35 167.7 326.3 167.61 327.96 168.41C329.52 169.11 330.48 170.71 330.36 172.41L329.99 176.86L333.9 179.54C335.33 180.45 336.02 182.17 335.62 183.82C335.12 185.52 333.73 186.8 332 187.15L327.12 188.34L325.34 192.54C324.78 193.8 323.71 194.76 322.39 195.17C321.03 195.68 319.53 195.61 318.21 194.99Z" fill="white"/>
<path d="M327.36 172.28L326.88 178.09L332 181.59C332.77 182.12 332.96 183.17 332.43 183.94C332.16 184.34 331.72 184.6 331.24 184.66L324.86 186.22L322.54 191.78C322.03 192.82 320.78 193.24 319.74 192.73C319.47 192.6 319.23 192.4 319.04 192.17L315.57 187.31L309.01 187.21C308.08 187.3 307.25 186.62 307.16 185.7C307.11 185.22 307.27 184.75 307.6 184.39L311.85 179.83L310.12 174.27C309.69 172.89 311.23 171.62 312.75 172.14L318.83 174.17L324.32 170.84C325.19 170.22 326.39 170.43 327 171.29C327.21 171.58 327.33 171.92 327.36 172.28Z" fill="#2684FF"/>
<path d="M112.53 284.69L113.53 286.18L120.87 281.25L119.51 279.23C117.2 275.79 116.17 271.66 116.6 267.54V267.03C117.03 262.91 116 258.77 113.69 255.34L24.7698 123.07C20.5998 116.87 12.1898 115.22 5.98978 119.39C-0.210216 123.56 -1.86022 131.97 2.30978 138.17L90.9098 269.9C93.4398 273.66 97.3098 276.3 101.72 277.29C106.14 278.29 110 280.93 112.53 284.69Z" fill="#4C9AFF"/>
<path d="M57.6101 220.35C57.7501 213.06 58.5101 203.34 59.0901 195.9C59.6901 188.12 60.2001 181.58 60.4301 176.04L53.5201 165.76C53.5901 174.23 52.6201 186.7 51.9401 195.35C51.5001 201.05 51.1301 206.02 50.8301 210.34L57.6101 220.35Z" fill="#2684FF"/>
<path d="M27.8801 127.64C26.3801 166.96 29.8501 176.02 35.8701 177.2C41.2601 178.24 45.0301 171.84 49.0101 165.07C49.5501 164.15 50.2201 163.01 50.9101 161.9L46.5601 155.44C45.3301 157.2 44.1001 159.26 42.8301 161.44C41.3901 163.89 38.8801 168.16 37.2701 169.69C36.2601 167.71 34.3901 160.9 34.7601 137.9L27.8801 127.64Z" fill="#2684FF"/>
<path d="M72.8799 194.51C66.6999 210.27 62.5999 218.96 59.9399 223.8L64.3899 230.36C67.5899 225.36 71.7999 216.62 77.7299 201.74L72.8799 194.51Z" fill="#2684FF"/>
<path d="M120.74 291.21L122.96 287.98C123.27 287.53 123.27 286.94 122.96 286.49L119.88 281.91L114.65 285.43L118.53 291.2C118.93 291.81 119.75 291.99 120.36 291.59C120.51 291.49 120.64 291.36 120.74 291.21Z" fill="#0065FF"/>
<path d="M326.27 234.52L324.9 235.63L330.31 242.39L332.17 240.9C335.33 238.37 339.29 237.02 343.34 237.1H343.84C347.89 237.18 351.85 235.83 355.01 233.3L476.74 135.76C482.45 131.19 483.37 122.85 478.8 117.14C478.8 117.14 478.8 117.14 478.8 117.13C474.23 111.42 465.89 110.5 460.18 115.07C460.18 115.07 460.18 115.07 460.17 115.07L338.93 212.29C335.48 215.05 333.21 219.03 332.59 223.4C331.98 227.78 329.72 231.76 326.27 234.52Z" fill="#FFAB00"/>
<path d="M384.55 175.7C391.67 175.24 401.22 175.18 408.55 175.13C416.16 175.13 422.61 175.01 428.03 174.82L437.5 167.23C429.24 167.99 416.99 168.06 408.5 168.12C402.94 168.12 398.02 168.2 393.78 168.3L384.55 175.7Z" fill="#FFC400"/>
<path d="M472.57 139.14C434.08 140.9 425.52 145.03 424.88 151C424.3 156.35 430.85 159.49 437.78 162.83C438.72 163.29 439.88 163.84 441.03 164.42L446.98 159.65C445.16 158.54 443.05 157.56 440.82 156.49C438.31 155.29 433.94 153.16 432.32 151.76C434.18 150.65 440.67 148.23 463.13 146.7L472.57 139.14Z" fill="#FFC400"/>
<path d="M410.97 188.5C395.09 183.75 386.25 180.48 381.34 178.27L375.3 183.1C380.45 185.81 389.32 189.2 404.32 193.8L410.97 188.5Z" fill="#FFC400"/>
<path d="M320.6 243.1L323.93 245.03C324.39 245.3 324.97 245.25 325.39 244.92L329.61 241.59L325.74 236.74L320.43 241C319.88 241.46 319.81 242.27 320.26 242.82C320.36 242.93 320.47 243.03 320.6 243.1Z" fill="#FF991F"/>
<path d="M298.17 123.7C297.81 123.13 297.37 122.62 296.85 122.19C298.21 121.61 299.24 120.44 299.65 119.02L304.63 101.84C305.58 98.6 303.71 95.21 300.47 94.26C297.23 93.31 293.84 95.18 292.89 98.42C292.81 98.69 292.75 98.96 292.71 99.23L290.02 116.91C289.8 118.37 290.25 119.86 291.24 120.96C288.97 121.59 287.24 123.43 286.74 125.73C285.99 129.11 288.11 132.45 291.49 133.21L292.07 133.31C295.51 133.76 298.67 131.34 299.13 127.89C299.32 126.43 299 124.95 298.21 123.7H298.17Z" fill="url(#paint14_linear)"/>
<path d="M314.51 124.22C314.29 123.58 313.96 122.99 313.55 122.45C315.01 122.18 316.27 121.28 316.98 119.98L325.64 104.33C327.33 101.41 326.32 97.6701 323.4 95.9801C320.48 94.2901 316.74 95.3001 315.05 98.2201C314.88 98.5101 314.74 98.8101 314.63 99.1201L308.06 115.79C307.52 117.17 307.62 118.72 308.35 120.01C306 120.12 303.89 121.52 302.89 123.66C301.41 126.78 302.73 130.52 305.85 132.01L306.39 132.23C309.65 133.44 313.27 131.78 314.48 128.53C314.99 127.15 315.01 125.63 314.52 124.24L314.51 124.22Z" fill="url(#paint15_linear)"/>
<path d="M45.9098 195.93C46.0098 196.64 45.9098 197.35 45.6298 198.01C45.1698 199.12 43.7298 202.46 42.6198 202.26C42.0898 202.14 41.8498 201.22 41.8098 200.76C41.7198 199.85 42.8498 199.3 42.9198 198.34C42.9098 198.14 42.9398 197.95 43.0098 197.76C43.1098 197.18 43.1498 196.87 43.2898 196.84C43.4198 196.81 43.7998 197.42 44.1998 197.41C44.8898 197.41 45.2198 195.19 45.5998 195.26C45.7898 195.21 45.8698 195.74 45.9098 195.93Z" fill="#8C715D"/>
<path d="M39.4498 202.7C40.3498 203.54 42.6198 203.1 43.7198 201.76C44.3498 200.91 44.6098 199.83 44.4398 198.78C44.2998 197.67 43.8198 197.57 43.4498 196.43C42.6698 194.01 43.8398 191.98 43.2598 191.67C43.1198 191.61 42.8598 191.67 42.3398 192.13C42.2398 192 42.0898 191.93 41.9298 191.92C41.5598 191.92 41.3498 192.59 41.2498 192.89C40.5698 194.7 39.9998 196.56 39.5598 198.45C39.1298 201.01 38.9898 202.29 39.4498 202.7Z" fill="#8C715D"/>
<path d="M39.6299 195C39.4299 195.79 39.3699 196.61 39.4699 197.42C39.4699 200.38 39.0799 202.27 39.3099 202.27C39.5399 202.27 39.6499 201.69 39.7699 201.36C40.6799 198.69 42.0899 193.07 41.2699 192.8C40.8499 192.65 39.9899 193.86 39.6299 195Z" fill="#8C715D"/>
<path d="M30.2501 356.26L18.1401 353.68L19.7801 346.01L23.5001 347.89C23.5001 349.24 24.0101 350.54 24.9401 351.52C26.4701 353 28.5701 352.56 29.6701 354.21C30.0701 354.82 30.2701 355.54 30.2501 356.26Z" fill="#162B4C"/>
<path d="M17.878 352.752L17.7021 353.573L30.2376 356.258L30.4134 355.436L17.878 352.752Z" fill="#8893A5"/>
<path d="M82.3399 355.27H68.6499V346.56L73.0999 346.75C73.5599 349.62 74.6599 350.8 75.5199 351.33C77.4399 352.54 79.6999 351.56 81.2999 353.15C81.8499 353.73 82.2199 354.47 82.3399 355.27Z" fill="#162B4C"/>
<path d="M82.6299 354.34H68.3799V355.27H82.6299V354.34Z" fill="#8893A5"/>
<path d="M55.7599 249.59C54.5299 248.64 53.5999 247.34 53.0999 245.87C51.6999 241.7 53.9499 237.18 58.1199 235.78C60.4799 234.99 63.0799 235.34 65.1399 236.75C66.5099 236.14 68.1199 236.75 68.7399 238.13C69.2099 239.18 68.9699 240.4 68.1399 241.2C68.1399 241.46 68.0999 241.73 68.0199 241.98C67.3199 244.77 65.5999 247.21 63.2099 248.8L55.7599 249.59Z" fill="#27375C"/>
<path d="M60.7102 257.06C58.0602 257.99 55.1102 257.48 52.9302 255.7C54.6602 253.59 55.6902 251 55.8802 248.28L62.3702 249.39L60.7102 257.06Z" fill="#8C715D"/>
<path d="M68.1499 241.19C68.1199 242.15 68.1599 243.11 68.2699 244.06C68.3499 244.7 68.4399 245.17 68.4599 245.28C68.6699 246.39 68.9999 247.47 69.4399 248.51L67.8399 248.75L66.3399 253.74C64.1899 254.2 61.9699 254.22 59.8199 253.82C57.9999 253.46 56.1399 253.11 55.3699 251.7C55.1399 251.2 54.9699 250.67 54.8699 250.13C54.7799 249.8 54.6799 249.48 54.5599 249.16C54.4299 248.76 54.2199 248.2 53.9399 247.53C54.5599 247.9 55.2599 248.11 55.9699 248.15C56.6599 248.29 57.3799 248.14 57.9599 247.75C58.7599 246.99 58.1899 245.66 58.9199 245.3C59.2399 245.17 59.6199 245.21 59.8999 245.42C60.6899 246.02 60.3199 248 60.3199 248H61.7499C61.8399 247.11 62.1499 246.25 62.6499 245.5C63.4299 244.39 64.1299 244.39 64.6999 243.28C65.2699 242.17 64.8899 241.52 65.4299 241.06C65.9699 240.6 66.4999 240.55 68.1499 241.19Z" fill="#8C715D"/>
<path d="M86.2702 228.36C86.2202 229.03 86.3602 229.69 86.6702 230.28C87.1802 231.26 88.7402 234.34 89.7702 234.04C90.2602 233.9 90.4102 233.02 90.4302 232.58C90.4302 231.72 89.3202 231.29 89.2202 230.36C89.2002 230.18 89.1702 230 89.1102 229.83C88.9802 229.29 88.9202 229.02 88.8002 229C88.6802 228.98 88.3702 229.58 88.0002 229.59C87.3602 229.59 86.8902 227.61 86.5402 227.69C86.3802 227.7 86.2802 228.19 86.2702 228.36Z" fill="#8C715D"/>
<path d="M40.6099 276.45C39.3999 278.67 38.3199 281 37.2799 283.46C33.2899 292.62 30.6099 302.3 29.3199 312.21C27.8899 315.54 26.4999 319.03 25.1699 322.76C22.3099 330.91 20.1199 339.29 18.6299 347.8L25.1299 349.29L37.5899 315.49C38.2499 314.11 39.1999 312.04 40.3599 309.55C48.7499 291.38 49.5599 288.14 48.5999 284.85C48.0299 282.96 46.3899 279.57 40.6099 276.45Z" fill="#FF5630"/>
<path d="M93.2998 234.32C92.4698 235.23 90.1798 234.94 88.9798 233.69C88.2798 232.88 87.9498 231.82 88.0498 230.76C88.1298 229.65 88.5798 229.55 88.8698 228.34C89.4798 225.92 88.1698 223.89 88.7298 223.58C88.8598 223.5 89.1298 223.58 89.6698 223.98C89.7598 223.85 89.8998 223.77 90.0598 223.75C90.4298 223.75 90.6898 224.38 90.8198 224.67C91.6298 226.43 92.3198 228.24 92.8898 230.08C93.4498 232.61 93.7198 233.88 93.2998 234.32Z" fill="#8C715D"/>
<path d="M57.1001 280.2C61.5301 290.85 65.2701 301.78 68.3001 312.91C71.4501 324.45 73.8401 336.19 75.4501 348.04H67.9601C66.8801 343.28 65.6401 338.35 64.2401 333.26C62.3201 326.3 60.2401 319.76 58.1001 313.6C47.5701 303.46 40.5301 294.86 38.4801 290.58C37.6901 288.95 36.2601 286.07 37.2701 283.31C37.4101 282.87 37.8101 282.1 38.5901 280.43C39.3701 278.76 40.0701 277.42 40.5201 276.52C45.8401 278.56 51.4401 279.76 57.1301 280.09L57.1001 280.2Z" fill="#FF5630"/>
<path d="M66.29 256.23C60.8 255.74 55.57 253.63 51.27 250.17C47.91 247.33 45.24 243.76 43.49 239.72C41.73 235.94 40.72 231.86 40.49 227.71C41.48 222.52 42.35 217.05 43.08 211.29C43.43 208.56 43.72 205.89 43.97 203.27L38.41 200.24C37.2 204.55 36.19 209.13 35.15 213.96C34.04 219.36 33.16 224.54 32.48 229.43C33.17 236.33 35.17 243.03 38.39 249.17C40.28 252.75 42.57 256.11 45.23 259.17C44.47 261.76 43.57 264.52 42.46 267.38C41.11 270.83 39.58 274.21 37.87 277.49C43.32 282.66 50.98 284.8 58.32 283.18C59.25 280.89 60.15 278.42 61.01 275.77C62.11 272.42 63.02 269.01 63.73 265.56C66.67 265.88 69.64 265.8 72.55 265.32C75.66 264.8 80.87 263.93 85.23 260.04C88.86 256.85 90.08 253.17 91.61 248.76C93.34 243.76 94.16 238.49 94.03 233.2C93.33 232.88 92.57 232.73 91.81 232.76C90.79 232.79 89.8 233.13 88.98 233.74C87.69 240.92 84.99 247.78 81.03 253.91C76.52 256.34 71.33 257.19 66.28 256.33L66.29 256.23Z" fill="#FF7452"/>
<path opacity="0.2" d="M305.11 152.26H233.91V227.23H305.11V152.26Z" fill="url(#paint16_linear)"/>
<path d="M238.64 222.86L238.57 221.34L237.95 219.48V215.63C238.03 215.62 238.11 215.62 238.18 215.63C238.91 215.91 238.89 217.42 238.89 217.5L238.99 213.38C239.19 213.27 239.48 213.16 239.68 213.28C239.88 213.4 239.89 214.04 239.85 214.79C239.81 215.58 239.81 216.37 239.85 217.16L240.38 213.17C240.55 213.15 240.72 213.19 240.86 213.29C241.04 213.48 241.13 213.74 241.09 214C241.09 215.02 240.8 217.01 240.78 217.22L241.98 213.42C242.19 213.47 242.37 213.58 242.5 213.75C242.74 214.09 242.56 214.52 242.2 215.88C241.96 216.8 241.77 217.34 242.06 217.76C242.11 217.83 242.16 217.89 242.23 217.94C242.33 217.35 242.7 216.85 243.24 216.6C243.49 216.51 243.77 216.49 244.03 216.54C243.93 216.73 243.84 216.92 243.74 217.13C243.44 217.76 243.2 218.42 243.01 219.1L242.31 220.99V222.53L238.64 222.86Z" fill="#ECC19C"/>
<path d="M305.92 152.27C301.71 176.64 290.88 199.39 274.62 218.02H202.62C218.88 199.38 229.7 176.64 233.91 152.27H305.92Z" fill="url(#paint17_linear)"/>
<path d="M295.35 121.82C294.99 121.25 294.55 120.74 294.03 120.31C295.39 119.73 296.42 118.56 296.83 117.14L301.79 99.95C302.74 96.71 300.87 93.32 297.63 92.37C294.39 91.42 291 93.29 290.05 96.53C289.97 96.8 289.91 97.07 289.87 97.34L287.18 115.02C286.96 116.48 287.41 117.97 288.4 119.07C286.13 119.7 284.4 121.54 283.9 123.84C283.15 127.22 285.27 130.56 288.65 131.32L289.23 131.42C292.67 131.87 295.83 129.45 296.29 126C296.48 124.54 296.16 123.06 295.37 121.81L295.35 121.82Z" fill="white"/>
<path d="M294.5 116.46L299.46 99.27C300.02 97.31 298.89 95.26 296.92 94.69C296.85 94.67 296.77 94.65 296.7 94.63C294.7 94.2 292.73 95.46 292.3 97.46C292.28 97.54 292.27 97.61 292.26 97.69L289.57 115.37C289.37 116.69 290.23 117.94 291.54 118.23C292.84 118.51 294.13 117.74 294.5 116.46Z" fill="#0065FF"/>
<path d="M286.25 124.35C285.78 126.41 287.07 128.47 289.14 128.94C289.26 128.97 289.39 128.99 289.51 129.01C291.63 129.37 293.64 127.95 294 125.83C294.36 123.71 292.94 121.7 290.82 121.34C288.72 120.92 286.68 122.26 286.25 124.35Z" fill="#0065FF"/>
<path d="M312.86 121.72C312.7 121.06 312.45 120.44 312.09 119.86C313.57 119.74 314.91 118.97 315.76 117.76L325.99 103.08C327.93 100.32 327.26 96.5 324.5 94.56C321.74 92.62 317.92 93.29 315.98 96.05C315.82 96.28 315.68 96.52 315.55 96.76L307.31 112.64C306.63 113.96 306.58 115.5 307.17 116.86C304.82 116.73 302.58 117.91 301.37 119.93C299.58 122.88 300.51 126.73 303.46 128.53L303.97 128.81C307.09 130.34 310.86 129.06 312.39 125.94C313.04 124.62 313.2 123.12 312.86 121.7V121.72Z" fill="white"/>
<path d="M313.79 116.39L324.02 101.71C325.19 100.03 324.78 97.73 323.1 96.56C323.04 96.52 322.97 96.47 322.91 96.43C321.16 95.38 318.88 95.94 317.83 97.69C317.79 97.75 317.75 97.82 317.72 97.89L309.48 113.77C308.86 114.95 309.27 116.41 310.41 117.1C311.55 117.78 313.02 117.47 313.79 116.39Z" fill="#253858"/>
<path d="M303.43 121.15C302.32 122.95 302.87 125.31 304.67 126.43C304.78 126.5 304.9 126.56 305.02 126.62C306.91 127.65 309.27 126.94 310.3 125.05C311.33 123.16 310.62 120.8 308.73 119.77C306.88 118.7 304.51 119.31 303.43 121.15Z" fill="#253858"/>
<path d="M229.54 159.22C225.11 159.35 220.86 157.43 218.03 154.02C212.9 147.47 215.22 137.24 223.21 131.2C226.73 128.49 231.04 126.98 235.49 126.92C239.92 126.79 244.17 128.71 247 132.12C252.13 138.67 249.81 148.9 241.82 154.94C238.3 157.66 233.99 159.16 229.54 159.22Z" fill="url(#paint18_linear)"/>
<path d="M229.54 156C225.11 156.13 220.86 154.21 218.03 150.8C212.9 144.25 215.22 134.02 223.21 127.98C226.73 125.27 231.04 123.76 235.49 123.7C239.93 123.58 244.18 125.51 247.02 128.93C252.15 135.48 249.83 145.71 241.84 151.75C238.3 154.46 233.99 155.95 229.54 156Z" fill="white"/>
<path d="M240.28 149.74C233.61 154.77 224.72 154.43 220.45 148.97C216.18 143.51 218.1 135 224.77 129.95C231.44 124.9 240.33 125.26 244.6 130.72C248.87 136.18 246.94 144.71 240.28 149.74Z" fill="#FFC400"/>
<path d="M231.38 134.84C230.77 135.39 229.84 135.35 229.27 134.76C228.84 134.08 229.04 133.17 229.73 132.74C230.34 132.19 231.27 132.23 231.84 132.82C232.27 133.5 232.07 134.4 231.38 134.84Z" fill="#FF991F"/>
<path d="M239.05 144.13C238.44 144.68 237.51 144.64 236.94 144.05C236.51 143.37 236.71 142.46 237.4 142.03C238.01 141.48 238.94 141.52 239.51 142.11C239.94 142.79 239.74 143.69 239.05 144.13Z" fill="#FF991F"/>
<path d="M226.03 137.19C225.37 139.48 225.83 141.95 227.26 143.86C228.79 145.71 231.09 146.76 233.5 146.72L226.03 137.19Z" fill="#FF991F"/>
<path d="M417.57 271.5C418.86 273.95 420.12 276.53 421.3 279.28C425.71 289.44 428.66 300.17 430.08 311.16L440.42 350.63L434.66 352.27C431.13 339.42 426.51 326.89 420.86 314.83C420.08 313.22 419.32 311.56 417.79 308.25C408.53 288.1 407.58 284.51 408.65 280.87C409.35 278.71 411.16 274.95 417.57 271.5Z" fill="url(#paint19_linear)"/>
<path d="M360 223.64C360.84 224.55 363.13 224.26 364.32 223.01C365.01 222.2 365.35 221.15 365.25 220.09C365.18 218.98 364.73 218.87 364.43 217.68C363.83 215.25 365.13 213.23 364.57 212.92C364.44 212.84 364.17 212.86 363.63 213.32C363.54 213.19 363.4 213.11 363.24 213.09C362.87 213.09 362.61 213.71 362.5 214C361.69 215.77 361 217.59 360.43 219.45C359.86 221.94 359.58 223.2 360 223.64Z" fill="#926D5A"/>
<path d="M367.04 217.67C367.09 218.34 366.95 219.01 366.64 219.6C366.14 220.59 364.56 223.66 363.54 223.36C363.05 223.22 362.9 222.34 362.88 221.9C362.88 221.04 363.99 220.61 364.11 219.68C364.11 219.47 364.18 219.36 364.22 219.15C364.35 218.61 364.42 218.34 364.54 218.31C364.66 218.28 364.97 218.89 365.34 218.9C365.98 218.9 366.45 216.93 366.78 217C366.98 217.01 367.01 217.51 367.04 217.67Z" fill="#926D5A"/>
<path d="M360.72 215.96C360.46 216.73 360.35 217.55 360.39 218.36C360.23 221.32 359.67 223.14 359.89 223.19C360.11 223.25 360.28 222.63 360.41 222.31C361.52 219.71 363.32 214.21 362.51 213.87C362.11 213.72 361.16 214.86 360.72 215.96Z" fill="#926D5A"/>
<path d="M399.3 275.65C389.28 299.75 382.44 325.04 378.94 350.91L385.08 350.97C386.34 346 388.21 338.92 390.7 330.43C392.66 323.76 393.48 319.04 396.46 312.78C397.69 309.89 399.24 307.15 401.06 304.6C408.13 295.15 415.82 295.35 419.95 287.32C420.66 285.92 422.42 282.49 421.33 279.26C421.16 278.76 420.73 277.86 419.86 276.07C418.99 274.28 418.23 272.74 417.71 271.74C411.82 273.97 405.61 275.29 399.3 275.65Z" fill="url(#paint20_linear)"/>
<path d="M378.84 346.51C378.6 348.76 378.17 350.99 377.56 353.18C376.8 355.92 374.5 357.95 371.69 358.37L366.39 359.16V360.08L374.64 362.07C375.4 361.93 377.53 361.57 377.82 362.23C377.89 362.37 377.89 362.62 377.59 363.03C378.33 363.19 379.1 363.32 379.9 363.44C380.7 363.56 381.47 363.09 381.72 362.33C382.83 358.78 386 349.17 386.17 347.8L378.84 346.51Z" fill="#344563"/>
<path d="M433.38 349.08C433.77 349.86 434.49 351.93 435.2 354C436.21 357.03 435.3 360.37 432.9 362.47L430.07 364.95L430.49 365.68L437.8 363.15C438.31 362.67 439.77 361.35 440.32 361.71C440.44 361.79 440.55 361.98 440.53 362.44C441.53 362.05 442.56 361.62 443.61 361.12L443.87 360.5C443.76 360.18 443.63 359.78 443.48 359.31C442.15 355.13 440.31 347.91 439.66 346.51L433.38 349.08Z" fill="#344563"/>
<path d="M409.6 192.99L408.64 191.81C407.84 190.83 407.51 189.54 407.74 188.3L407.84 185.64C408.45 185.09 409.02 184.49 409.54 183.85C410.23 183.02 410.51 182.52 410.65 182.57C410.79 182.63 410.83 183.25 410.14 185.9C411.67 185.24 413.16 184.48 414.59 183.61C416.56 182.42 418.17 181.18 419.25 181.69C419.38 181.76 419.82 181.96 419.87 182.33C419.93 182.71 419.37 183.16 419.33 183.2C419.54 183.2 419.85 183.37 419.94 183.6C420.03 183.83 419.55 184.48 419.18 184.79C417.65 186.13 413.79 188.77 412.84 189.41L413.04 190.91L409.6 192.99Z" fill="#926D5A"/>
<path d="M389.1 249.07C394.78 247.12 400.34 244.86 405.77 242.3L406.54 241.66L406.72 241.5L406.91 241.33C410.32 238.3 413.09 231.48 413.09 231.48C414.58 227.81 415.87 224.05 416.97 220.24C415.77 217.23 414.82 214.13 414.11 210.97C412.71 204.68 412.9 200.7 410.09 195.57C409.42 194.34 408.64 193.18 407.78 192.08L413.23 189.53C415.15 191.6 416.89 193.83 418.43 196.2C422.12 201.88 424.65 208.24 425.87 214.91C426.18 224.01 424.2 233.05 420.11 241.18C418.08 245.17 415.55 248.88 412.57 252.23C412.56 254.64 412.77 257.04 413.2 259.41C414.07 264.07 415.78 268.54 418.25 272.59L397.75 279.14C399.47 275.38 399.42 272.85 398.8 271.37C397.42 268.04 393.74 267.46 392.38 263.47C391.95 262.17 391.82 260.78 392 259.42C389.42 259.65 378.56 260.33 369.09 252.75C355.46 241.84 357.42 224 357.56 222.91L364.86 224.64C364.54 228.44 364.94 232.27 366.05 235.92C369.43 245.64 380.36 251.69 389.1 249.07Z" fill="url(#paint21_linear)"/>
<path d="M392.02 231.62C392.3 231.71 392.59 231.77 392.88 231.81C393.71 231.91 394.51 232.19 395.23 232.62C396.46 233.48 395.65 235.14 396.72 237.55C397 238.17 397.2 238.82 397.32 239.5C397.38 239.82 397.41 240.14 397.43 240.47C397.43 241.26 397.96 242.86 399.76 246.35L398.65 246.04L395.26 244.74C392.83 243.12 392.28 242.86 392.27 241.71C392.27 240.32 392.27 237.9 392.17 237.81C391.38 237.05 390.36 236.9 391.15 235.96C391.59 235.43 391.94 235.05 392.05 234.94C392.38 234.52 392.63 233.75 392.02 231.62Z" fill="#926D5A"/>
<path d="M395.13 232.55C394.76 237.28 395.4 242.04 397 246.51L397.16 246.94C399.05 252.07 404.74 254.69 409.86 252.8C410.4 252.6 410.91 252.36 411.41 252.07L411.94 251.73L412.03 251.66C414.94 249.63 415.65 245.62 413.61 242.71C413.45 242.48 413.27 242.25 413.07 242.04C411.61 240.43 410.37 238.64 409.38 236.71C406.96 231.93 407.29 228.55 404.07 226.71C402 225.71 399.68 225.32 397.4 225.6C396.19 225.6 395.01 225.95 394 226.6C393.22 227.19 392.58 227.95 392.13 228.82C391.65 229.7 391.37 230.68 391.31 231.68C392.62 231.76 393.91 232.09 395.11 232.64L395.13 232.55Z" fill="#172B4D"/>
<path d="M266.17 222.17L266.68 220.1L268.05 217.74L269.16 212.49C269.05 212.47 268.94 212.47 268.83 212.49C267.72 212.66 267.36 214.71 267.34 214.84L268.35 209.18C268.11 208.98 267.74 208.74 267.44 208.85C267.14 208.96 266.94 209.83 266.8 210.86C266.65 211.95 266.43 213.04 266.16 214.11L266.55 208.55C266.33 208.47 266.09 208.47 265.87 208.55C265.57 208.76 265.38 209.1 265.36 209.46C265.08 210.87 264.9 213.66 264.88 213.91L264.3 208.35C264.01 208.36 263.72 208.47 263.5 208.66C263.08 209.07 263.21 209.69 263.31 211.66C263.38 212.98 263.5 213.78 262.98 214.27C262.9 214.35 262.8 214.42 262.7 214.47C262.74 213.64 262.36 212.85 261.7 212.35C261.37 212.15 260.98 212.04 260.59 212.05C260.67 212.33 260.75 212.63 260.82 212.94C261.05 213.89 261.2 214.86 261.26 215.83L261.69 218.61L261.3 220.72L266.17 222.17Z" fill="#F1DAD5"/>
<path d="M223.73 247.4H231.6C230.4 244.6 230.1 241.49 230.76 238.51L225.96 238.28C225.9 238.56 225.82 238.97 225.67 239.46C225.6 239.94 225.42 240.4 225.15 240.79C224.61 241.3 223.56 241 223.25 240.9L223.73 247.4Z" fill="url(#paint22_linear)"/>
<path d="M242.06 220.92C243.52 228.02 244.04 235.29 243.59 242.53C240.38 246.11 236.39 248.91 231.93 250.71C229.68 251.67 227.27 252.2 224.83 252.28C221.02 252.28 215.86 251.17 215.63 249.2C215.4 247.23 220.15 244.75 223.53 243.83C224.6 243.55 225.7 243.34 226.8 243.21C230.67 242.5 234.34 240.98 237.59 238.76L238.56 222.09L242.06 220.92Z" fill="#253858"/>
<path d="M221.15 275.87C221.47 274.49 221.98 273.16 222.66 271.91C223.26 272.09 223.86 272.25 224.47 272.37C225.15 272.5 225.68 272.56 225.96 272.59C227.56 272.82 230.62 273.19 238.85 273.81C239.41 274.52 239.92 275.26 240.39 276.03C241.91 278.45 243.01 281.11 243.66 283.89C248.95 305.56 252.92 327.54 255.56 349.69C254.73 350.82 253.64 351.73 252.38 352.34C251.74 352.6 251.77 353.06 250.57 353.18C249.9 350.57 248.83 346.61 247.24 341.85C245.11 335.3 244.04 333.27 243.03 329.29C241.81 324.37 241.34 319.29 241.64 314.23C240.08 311.4 238.47 308.54 236.83 305.65C235.07 302.49 233.36 299.36 231.7 296.25C232.02 301.34 232.22 306.64 232.26 312.14C232.34 322.9 231.82 333.67 230.69 344.37C230.19 344.75 229.6 345 228.98 345.09C228.36 345.18 227.72 345.11 227.13 344.89C226.17 344.63 225.31 344.11 224.63 343.38C223.23 333.91 223.1 324.29 224.25 314.78C222.75 310.56 221.63 306.2 220.92 301.78C220.92 301.78 218.39 291.35 219.81 282.02C220.07 280.49 220.88 277.03 221.15 275.87Z" fill="#344563"/>
<path d="M268.65 358.13L264.2 356.73C259.58 355.27 256.21 351.27 255.58 346.46C255.47 345.6 254.81 342.01 254.54 340.45C253.37 340.21 252.17 340.18 250.99 340.36C249.37 340.63 247.84 341.31 246.54 342.32C247.56 344.6 248.39 346.96 249 349.38C249.63 351.93 250.03 354.54 250.2 357.16C250.27 358.18 250.28 359.03 250.28 359.58H254.67L255.4 358.76L256.51 359.54H267.62L268.65 358.13Z" fill="#172B4D"/>
<path d="M224.02 337.89C226.42 336.32 229.53 336.32 231.93 337.89C231.67 339.04 231.48 340.2 231.37 341.37C231.14 343.96 231.01 345.44 231.93 346.24C232.7 346.82 233.71 346.99 234.63 346.71L235.19 346.93C232.9 349.72 231.18 351.84 230.14 353.27C229.74 353.86 229.18 354.32 228.53 354.59C227.77 354.93 226.89 354.89 226.17 354.47C225.69 354.11 225.37 353.57 225.28 352.97L224.02 337.89Z" fill="#172B4D"/>
<path d="M232.7 231.82C233.05 233.84 234.12 235.67 235.71 236.95L234.67 238.06L233.84 242.75C232.78 243.2 231.65 243.48 230.51 243.61C229.01 243.77 227.05 243.98 226.24 242.88C225.82 242.17 225.67 241.33 225.83 240.52C225.88 239.86 225.99 239.21 226.15 238.57C226.55 237.55 227.13 236.61 227.87 235.8C228.64 234.66 229.6 233.66 230.7 232.84C231.32 232.43 231.99 232.08 232.7 231.82Z" fill="#ECC19C"/>
<path d="M259.84 247.39C253.29 251.62 246.02 254.63 238.4 256.28C238.81 262.77 240.14 269.17 242.37 275.29C235.67 278.53 227.99 279.11 220.87 276.92C221.04 271.13 220.17 265.35 218.3 259.86C217.36 257.11 216.17 254.46 214.75 251.92C215.78 250.95 216.9 250.07 218.08 249.29C218.08 249.29 218.41 249.07 218.91 248.77C218.91 248.77 219.83 248.21 220.8 247.74C224.83 245.73 232.23 245.04 232.23 245.04C242.31 244.11 241.97 244.28 243.91 243.93C247.56 243.34 251.12 242.34 254.55 240.95L261.59 219.52L267.15 220.98C266.25 225.56 265.1 230.47 263.64 235.63C262.39 239.82 261.16 243.74 259.84 247.39Z" fill="#505F79"/>
<path d="M217.32 235.93C214.31 241.39 212.22 241.1 211.67 244.39C211.19 247.32 212.2 251.47 215.45 253.21C219.13 255.19 223.16 252.75 223.39 252.61C224.98 251.57 226.21 250.06 226.91 248.29C228.76 243.96 226.07 241.98 228.02 238.75C228.79 237.46 229.56 237.19 232.4 233.5C233.02 232.8 233.41 231.93 233.51 231C233.54 229.93 233.18 228.88 232.5 228.05C230.84 225.99 227.91 226.1 227.02 226.15C225.19 226.24 223.42 226.88 221.95 227.98C219.36 229.94 219.59 231.82 217.32 235.93Z" fill="#172B4D"/>
<g opacity="0.7">
<path opacity="0.7" d="M239.45 173L284.65 173.21" stroke="#0065FF" stroke-width="2.3634" stroke-miterlimit="10"/>
<path opacity="0.7" d="M236.36 180.51L281.55 180.72" stroke="#0065FF" stroke-width="2.3634" stroke-miterlimit="10"/>
<path opacity="0.7" d="M233.48 187.5L268.15 187.66" stroke="#0065FF" stroke-width="2.3634" stroke-miterlimit="10"/>
</g>
</g>
<defs>
<linearGradient id="paint0_linear" x1="127.283" y1="171.69" x2="534.923" y2="171.69" gradientUnits="userSpaceOnUse">
<stop stop-color="#FAFBFC"/>
<stop offset="0.07" stop-color="#F7F8F9"/>
<stop offset="0.36" stop-color="#EEEFF2"/>
<stop offset="0.8" stop-color="#EBECF0"/>
</linearGradient>
<linearGradient id="paint1_linear" x1="131.217" y1="334.461" x2="435.36" y2="30.329" gradientUnits="userSpaceOnUse">
<stop stop-color="#F7F8F9"/>
<stop offset="0.7" stop-color="#C1C7D0"/>
</linearGradient>
<linearGradient id="paint2_linear" x1="96.5282" y1="343.775" x2="419.294" y2="21.0199" gradientUnits="userSpaceOnUse">
<stop offset="0.47" stop-color="#CFD4DB"/>
<stop offset="1" stop-color="#F7F8F9"/>
</linearGradient>
<linearGradient id="paint3_linear" x1="232.535" y1="340.632" x2="232.535" y2="24.1578" gradientUnits="userSpaceOnUse">
<stop stop-color="#EBECF0"/>
<stop offset="0.1" stop-color="#EBECF0"/>
<stop offset="0.8" stop-color="#EBECF0"/>
</linearGradient>
<linearGradient id="paint4_linear" x1="50.7816" y1="355.556" x2="400.121" y2="6.21621" gradientUnits="userSpaceOnUse">
<stop offset="0.16" stop-color="#F0F2F5"/>
<stop offset="1" stop-color="white"/>
</linearGradient>
<linearGradient id="paint5_linear" x1="31.8909" y1="346.121" x2="380.751" y2="-2.73841" gradientUnits="userSpaceOnUse">
<stop offset="0.16" stop-color="#F0F2F5"/>
<stop offset="1" stop-color="white"/>
</linearGradient>
<linearGradient id="paint6_linear" x1="318.272" y1="36.2198" x2="342.418" y2="36.2198" gradientUnits="userSpaceOnUse">
<stop offset="0.37" stop-color="#E5E8EC"/>
<stop offset="0.52" stop-color="#E5E8EC" stop-opacity="0.99"/>
<stop offset="0.61" stop-color="#E4E7EB" stop-opacity="0.95"/>
<stop offset="0.68" stop-color="#E3E6EA" stop-opacity="0.89"/>
<stop offset="0.74" stop-color="#E1E4E9" stop-opacity="0.81"/>
<stop offset="0.8" stop-color="#DEE2E7" stop-opacity="0.7"/>
<stop offset="0.85" stop-color="#DBDFE5" stop-opacity="0.56"/>
<stop offset="0.91" stop-color="#D8DCE2" stop-opacity="0.4"/>
<stop offset="0.95" stop-color="#D4D8DF" stop-opacity="0.22"/>
<stop offset="1" stop-color="#CFD4DB" stop-opacity="0"/>
</linearGradient>
<linearGradient id="paint7_linear" x1="216.641" y1="36.2198" x2="240.787" y2="36.2198" gradientUnits="userSpaceOnUse">
<stop offset="0.37" stop-color="#E5E8EC"/>
<stop offset="0.52" stop-color="#E5E8EC" stop-opacity="0.99"/>
<stop offset="0.61" stop-color="#E4E7EB" stop-opacity="0.95"/>
<stop offset="0.68" stop-color="#E3E6EA" stop-opacity="0.89"/>
<stop offset="0.74" stop-color="#E1E4E9" stop-opacity="0.81"/>
<stop offset="0.8" stop-color="#DEE2E7" stop-opacity="0.7"/>
<stop offset="0.85" stop-color="#DBDFE5" stop-opacity="0.56"/>
<stop offset="0.91" stop-color="#D8DCE2" stop-opacity="0.4"/>
<stop offset="0.95" stop-color="#D4D8DF" stop-opacity="0.22"/>
<stop offset="1" stop-color="#CFD4DB" stop-opacity="0"/>
</linearGradient>
<linearGradient id="paint8_linear" x1="115.027" y1="36.2198" x2="139.178" y2="36.2198" gradientUnits="userSpaceOnUse">
<stop offset="0.37" stop-color="#E5E8EC"/>
<stop offset="0.52" stop-color="#E5E8EC" stop-opacity="0.99"/>
<stop offset="0.61" stop-color="#E4E7EB" stop-opacity="0.95"/>
<stop offset="0.68" stop-color="#E3E6EA" stop-opacity="0.89"/>
<stop offset="0.74" stop-color="#E1E4E9" stop-opacity="0.81"/>
<stop offset="0.8" stop-color="#DEE2E7" stop-opacity="0.7"/>
<stop offset="0.85" stop-color="#DBDFE5" stop-opacity="0.56"/>
<stop offset="0.91" stop-color="#D8DCE2" stop-opacity="0.4"/>
<stop offset="0.95" stop-color="#D4D8DF" stop-opacity="0.22"/>
<stop offset="1" stop-color="#CFD4DB" stop-opacity="0"/>
</linearGradient>
<linearGradient id="paint9_linear" x1="46.5498" y1="194.832" x2="343.64" y2="194.832" gradientUnits="userSpaceOnUse">
<stop stop-color="#FAFBFC"/>
<stop offset="0.07" stop-color="#F7F8F9"/>
<stop offset="0.36" stop-color="#EEEFF2"/>
<stop offset="0.8" stop-color="#EBECF0"/>
</linearGradient>
<linearGradient id="paint10_linear" x1="123.802" y1="234.423" x2="182.51" y2="234.423" gradientUnits="userSpaceOnUse">
<stop stop-color="#0065FF"/>
<stop offset="1" stop-color="#2684FF"/>
</linearGradient>
<linearGradient id="paint11_linear" x1="316.721" y1="124.443" x2="356.442" y2="124.443" gradientUnits="userSpaceOnUse">
<stop stop-color="#0065FF"/>
<stop offset="1" stop-color="#2684FF"/>
</linearGradient>
<linearGradient id="paint12_linear" x1="179.368" y1="239.882" x2="208.086" y2="235.711" gradientUnits="userSpaceOnUse">
<stop stop-color="#FAFBFC"/>
<stop offset="0.07" stop-color="#F7F8F9"/>
<stop offset="0.36" stop-color="#EEEFF2"/>
<stop offset="0.8" stop-color="#EBECF0"/>
</linearGradient>
<linearGradient id="paint13_linear" x1="306.2" y1="171.764" x2="326.796" y2="192.18" gradientUnits="userSpaceOnUse">
<stop stop-color="#FAFBFC"/>
<stop offset="0.07" stop-color="#F7F8F9"/>
<stop offset="0.36" stop-color="#EEEFF2"/>
<stop offset="0.8" stop-color="#EBECF0"/>
</linearGradient>
<linearGradient id="paint14_linear" x1="286.568" y1="113.684" x2="304.848" y2="113.684" gradientUnits="userSpaceOnUse">
<stop stop-color="#FAFBFC"/>
<stop offset="0.07" stop-color="#F7F8F9"/>
<stop offset="0.36" stop-color="#EEEFF2"/>
<stop offset="0.8" stop-color="#EBECF0"/>
</linearGradient>
<linearGradient id="paint15_linear" x1="305.397" y1="111.841" x2="323.224" y2="115.921" gradientUnits="userSpaceOnUse">
<stop stop-color="#FAFBFC"/>
<stop offset="0.07" stop-color="#F7F8F9"/>
<stop offset="0.36" stop-color="#EEEFF2"/>
<stop offset="0.8" stop-color="#EBECF0"/>
</linearGradient>
<linearGradient id="paint16_linear" x1="269.507" y1="227.231" x2="269.507" y2="152.263" gradientUnits="userSpaceOnUse">
<stop stop-color="#FAFBFC" stop-opacity="0"/>
<stop offset="0.46" stop-color="#7A869A"/>
</linearGradient>
<linearGradient id="paint17_linear" x1="254.269" y1="218.028" x2="254.269" y2="152.275" gradientUnits="userSpaceOnUse">
<stop stop-color="#0065FF"/>
<stop offset="0.02" stop-color="#0569FF"/>
<stop offset="0.15" stop-color="#1F7BFF"/>
<stop offset="0.3" stop-color="#3389FF"/>
<stop offset="0.46" stop-color="#4192FF"/>
<stop offset="0.66" stop-color="#4A98FF"/>
<stop offset="1" stop-color="#4C9AFF"/>
</linearGradient>
<linearGradient id="paint18_linear" x1="215.295" y1="143.072" x2="249.73" y2="143.072" gradientUnits="userSpaceOnUse">
<stop stop-color="#FAFBFC"/>
<stop offset="0.12" stop-color="#EBECEF"/>
<stop offset="0.26" stop-color="#E2E4E7"/>
<stop offset="0.46" stop-color="#DFE1E5"/>
</linearGradient>
<linearGradient id="paint19_linear" x1="419.513" y1="294.635" x2="434.695" y2="334.014" gradientUnits="userSpaceOnUse">
<stop offset="0.25" stop-color="#0065FF"/>
<stop offset="0.37" stop-color="#0065FF"/>
<stop offset="0.76" stop-color="#4C9AFF"/>
</linearGradient>
<linearGradient id="paint20_linear" x1="400.309" y1="350.957" x2="400.309" y2="271.722" gradientUnits="userSpaceOnUse">
<stop stop-color="#4C9AFF"/>
<stop offset="1" stop-color="#0065FF"/>
</linearGradient>
<linearGradient id="paint21_linear" x1="391.632" y1="279.146" x2="391.632" y2="189.541" gradientUnits="userSpaceOnUse">
<stop stop-color="#B2D4FF"/>
<stop offset="1" stop-color="#2684FF"/>
</linearGradient>
<linearGradient id="paint22_linear" x1="231.595" y1="242.841" x2="223.248" y2="242.841" gradientUnits="userSpaceOnUse">
<stop offset="0.38" stop-color="#F1DBCB"/>
<stop offset="1" stop-color="#EFC7B0"/>
</linearGradient>
<clipPath id="clip0">
<rect width="569.18" height="371.12" fill="white"/>
</clipPath>
</defs>
</svg>
