<svg width="229" height="183" viewBox="0 0 229 183" fill="none" xmlns="http://www.w3.org/2000/svg">
<g clip-path="url(#clip0)">
<rect width="228.4" height="182.6" fill="white" fill-opacity="0.01"/>
<path d="M125.4 10.6L114.8 0L104.3 10.6C87 28 61.8 35 38 29V110.8C38 125.4 45.5 138.9 57.8 146.7L114.8 182.6L171.8 146.7C184.1 138.9 191.6 125.4 191.6 110.8V29C167.8 35 142.6 28 125.4 10.6Z" fill="#FFAB00"/>
<path d="M16.3 90.3C16.1 91.5 16.1 93 16 94.4C16 95.8 16 97.2 16 98.6C16 101.4 16.1 104.2 16.4 106.9C16.7 109.7 17.1 112.4 17.8 115C18.5 117.6 19.5 120.2 20.7 122.6C23 127.6 26.1 132.3 29.5 136.6C31.2 138.8 33 140.8 35 142.8C36.9 144.7 39 146.6 41.1 148.3C49.7 155.1 59.9 159.8 70.5 162.6C75.8 164 81.3 164.9 86.7 165.4C89.4 165.7 92.2 165.8 94.9 165.8C96.3 165.8 97.6 165.8 99 165.7C100.3 165.6 101.7 165.5 102.8 165.4H102.9C104.8 165.1 106.6 166.4 106.9 168.3C107.2 170.2 105.9 172 104 172.3H103.9C102.2 172.5 100.7 172.5 99.2 172.6C97.7 172.6 96.2 172.6 94.8 172.5C91.9 172.4 88.9 172.1 86.1 171.8C80.3 171.1 74.6 169.9 69 168.2C57.8 164.9 47.1 159.5 38.1 152C35.9 150.1 33.7 148.1 31.7 146C29.7 143.9 27.9 141.6 26.1 139.3C22.7 134.6 19.6 129.6 17.3 124.2C16.1 121.5 15.1 118.8 14.4 115.9C13.7 113 13.3 110.1 13.1 107.2C12.9 104.3 12.9 101.4 13 98.6C13 97.2 13.1 95.7 13.2 94.3C13.3 92.8 13.4 91.5 13.6 89.9C13.7 89.2 14.4 88.6 15.2 88.8C15.9 88.8 16.4 89.5 16.3 90.3Z" fill="url(#paint0_linear)"/>
<path d="M26.9001 160.2C32.1001 161.3 37.1001 160.3 40.0001 159.4C41.4001 159 41.7001 157.5 40.6001 156.6C38.3001 154.6 34.2001 151.6 29.0001 150.5C24.3001 149.5 19.7001 150.3 16.8001 151.1C15.0001 151.6 14.6001 153.5 16.0001 154.7C18.3001 156.6 22.2001 159.2 26.9001 160.2Z" fill="#0052CC"/>
<path d="M14.6002 143.2C18.1002 145.4 21.9002 145.9 24.3002 146C25.4002 146.1 26.0002 145.1 25.5002 144.1C24.4002 142.1 22.2002 138.8 18.7002 136.6C15.6002 134.6 12.1002 134 9.70021 133.8C8.20021 133.7 7.50021 134.9 8.20021 136.2C9.40021 138.4 11.5002 141.3 14.6002 143.2Z" fill="#0052CC"/>
<path d="M5.7001 127.1C8.8001 129.7 12.6001 130.7 14.9001 131.2C16.0001 131.4 16.7001 130.5 16.3001 129.5C15.5001 127.3 13.7001 123.8 10.6001 121.2C7.7001 118.8 4.3001 117.8 2.0001 117.3C0.600096 117 -0.399904 118.1 0.200096 119.5C1.1001 121.6 2.8001 124.7 5.7001 127.1Z" fill="#0052CC"/>
<path d="M6.90014 87.3999C7.20014 89.6999 8.40014 91.6999 9.20014 92.6999C9.60014 93.1999 10.2001 93.0999 10.5001 92.4999C11.0001 91.1999 11.6001 89.0999 11.3001 86.6999C11.0001 84.5999 10.0001 82.7999 9.20014 81.6999C8.70014 80.9999 7.90014 81.1999 7.60014 81.9999C7.10014 83.1999 6.60014 85.1999 6.90014 87.3999Z" fill="#0052CC"/>
<path d="M4.2 99.0998C5.5 101.2 7.4 102.6 8.6 103.3C9.2 103.6 9.8 103.3 9.7 102.6C9.7 101.2 9.4 98.7998 8.1 96.6998C7 94.7998 5.2 93.4998 4 92.6998C3.2 92.1998 2.5 92.6998 2.5 93.5998C2.8 94.9998 3.1 97.1998 4.2 99.0998Z" fill="#0052CC"/>
<path d="M14.9 79.2999C14.4 81.4999 14.8 83.5999 15.1 84.8999C15.3 85.4999 15.9 85.5999 16.3 85.1999C17.2 84.2999 18.5 82.4999 19 80.2999C19.5 78.2999 19.2 76.3999 18.9 75.0999C18.7 74.2999 17.9 74.0999 17.4 74.6999C16.5 75.6999 15.4 77.2999 14.9 79.2999Z" fill="#99C1FF"/>
<path d="M27.2001 127.3C27.8001 131.3 29.9001 134.6 31.3001 136.5C32.0001 137.4 33.1001 137.2 33.5001 136.2C34.3001 134 35.4001 130.3 34.8001 126.2C34.3001 122.5 32.5001 119.5 31.1001 117.6C30.2001 116.4 28.8001 116.6 28.3001 118C27.5001 120.2 26.7001 123.6 27.2001 127.3Z" fill="#0065FF"/>
<path d="M3.60014 111.7C5.40014 114 7.90014 115.2 9.40014 115.9C10.1001 116.2 10.8001 115.7 10.6001 114.9C10.3001 113.3 9.60014 110.6 7.80014 108.3C6.10014 106.2 3.90014 105 2.40014 104.3C1.40014 103.9 0.600139 104.5 0.800139 105.6C1.20014 107.2 2.00014 109.6 3.60014 111.7Z" fill="#0052CC"/>
<path d="M20.9002 108.3C20.3002 111.8 21.0002 115.1 21.7002 117C22.0002 117.9 23.0002 118.1 23.6002 117.3C24.9002 115.8 26.8002 113 27.5002 109.5C28.1002 106.3 27.5002 103.3 26.9002 101.4C26.5002 100.2 25.3002 99.9999 24.5002 101C23.1002 102.5 21.5002 105.1 20.9002 108.3Z" fill="#0065FF"/>
<path d="M207.5 108.3C208.1 111.8 207.4 115.1 206.7 117C206.4 117.9 205.4 118.1 204.8 117.3C203.5 115.8 201.6 113 200.9 109.5C200.3 106.3 200.9 103.3 201.5 101.4C201.9 100.2 203.1 99.9999 203.9 101C205.3 102.5 206.9 105.1 207.5 108.3Z" fill="#3384FF"/>
<path d="M214.8 89.8C215 91.4 215.1 92.7 215.2 94.2C215.3 95.6 215.4 97.1 215.4 98.5C215.5 101.4 215.5 104.3 215.3 107.1C215.1 110 214.8 112.9 214 115.8C213.3 118.7 212.3 121.4 211.1 124.1C208.8 129.5 205.8 134.5 202.3 139.2C200.6 141.5 198.7 143.8 196.7 145.9C194.7 148 192.6 150.1 190.3 151.9C181.3 159.4 170.6 164.8 159.4 168.1C153.8 169.8 148.1 170.9 142.3 171.7C139.4 172.1 136.5 172.3 133.6 172.4C132.1 172.5 130.7 172.5 129.2 172.5C127.7 172.5 126.3 172.4 124.5 172.2C122.6 172 121.2 170.2 121.4 168.3C121.6 166.4 123.4 165 125.3 165.2H125.4H125.5C126.6 165.4 128 165.5 129.3 165.5C130.6 165.6 132 165.6 133.4 165.6C136.1 165.6 138.9 165.4 141.6 165.2C147.1 164.7 152.5 163.8 157.8 162.4C168.4 159.6 178.6 154.9 187.2 148.1C189.3 146.4 191.4 144.6 193.3 142.6C195.2 140.6 197 138.6 198.8 136.4C202.2 132.1 205.2 127.4 207.6 122.4C208.8 119.9 209.8 117.4 210.5 114.8C211.2 112.2 211.7 109.5 211.9 106.7C212.2 103.9 212.3 101.1 212.3 98.4C212.3 97 212.3 95.6 212.2 94.2C212.1 92.8 212.1 91.4 211.9 90.1V90C211.8 89.3 212.3 88.6 213.1 88.5C214 88.6 214.7 89.1 214.8 89.8Z" fill="url(#paint1_linear)"/>
<path d="M201.5 160.2C196.3 161.3 191.3 160.3 188.4 159.4C187 159 186.7 157.5 187.8 156.6C190.1 154.6 194.2 151.6 199.4 150.5C204.1 149.5 208.7 150.3 211.6 151.1C213.4 151.6 213.8 153.5 212.4 154.7C210.1 156.6 206.2 159.2 201.5 160.2Z" fill="#0065FF"/>
<path d="M213.8 143.2C210.3 145.4 206.5 145.9 204.1 146C203 146.1 202.4 145.1 202.9 144.1C204 142.1 206.2 138.8 209.7 136.6C212.8 134.6 216.3 134 218.7 133.8C220.2 133.7 220.9 134.9 220.2 136.2C219 138.4 216.9 141.3 213.8 143.2Z" fill="#0065FF"/>
<path d="M222.7 127.1C219.6 129.7 215.8 130.7 213.5 131.2C212.4 131.4 211.7 130.5 212.1 129.5C212.9 127.3 214.7 123.8 217.8 121.2C220.7 118.8 224.1 117.8 226.4 117.3C227.8 117 228.8 118.1 228.2 119.5C227.3 121.6 225.6 124.7 222.7 127.1Z" fill="#3384FF"/>
<path d="M221.5 87.4C221.2 89.7 220 91.7 219.2 92.7C218.8 93.2 218.2 93.1 217.9 92.5C217.4 91.2 216.8 89.1 217.1 86.7C217.4 84.6 218.4 82.8 219.2 81.7C219.7 81 220.5 81.1 220.8 81.9C221.3 83.2 221.8 85.2 221.5 87.4Z" fill="#66A3FF"/>
<path d="M208.4 95.2C209.6 97.4 209.8 99.7 209.8 101.1C209.8 101.8 209.2 102.1 208.6 101.8C207.4 101.1 205.5 99.6 204.3 97.5C203.2 95.5 202.9 93.4 202.9 92C202.9 91.1 203.7 90.7 204.4 91.2C205.6 91.8 207.3 93.2 208.4 95.2Z" fill="#66A3FF"/>
<path d="M224.2 99.0998C222.9 101.2 221 102.6 219.8 103.3C219.2 103.6 218.6 103.3 218.7 102.6C218.7 101.2 219 98.7998 220.3 96.6998C221.4 94.7998 223.2 93.4998 224.4 92.6998C225.2 92.1998 225.9 92.6998 225.9 93.5998C225.6 94.9998 225.3 97.1998 224.2 99.0998Z" fill="#66A3FF"/>
<path d="M209.7 86.7C210.7 88.5 210.9 90.4 210.9 91.5C210.9 92.1 210.4 92.3 209.9 92C208.9 91.4 207.4 90.2 206.4 88.5C205.5 86.9 205.3 85.1 205.2 84C205.2 83.3 205.8 82.9 206.4 83.3C207.4 84 208.8 85.1 209.7 86.7Z" fill="#99C1FF"/>
<path d="M213.5 79.2999C214 81.4999 213.6 83.5999 213.3 84.8999C213.1 85.4999 212.5 85.5999 212.1 85.1999C211.2 84.2999 209.9 82.4999 209.4 80.2999C208.9 78.2999 209.2 76.3999 209.5 75.0999C209.7 74.2999 210.5 74.0999 211 74.6999C211.9 75.6999 213 77.2999 213.5 79.2999Z" fill="#99C1FF"/>
<path d="M201.1 127.3C200.5 131.3 198.4 134.6 197 136.5C196.3 137.4 195.2 137.2 194.8 136.2C194 134 192.9 130.3 193.5 126.2C194 122.5 195.8 119.5 197.2 117.6C198.1 116.4 199.5 116.6 200 118C200.9 120.2 201.7 123.6 201.1 127.3Z" fill="#0065FF"/>
<path d="M224.8 111.7C223 114 220.5 115.2 219 115.9C218.3 116.2 217.6 115.7 217.8 114.9C218.1 113.3 218.8 110.6 220.6 108.3C222.3 106.2 224.5 105 226 104.3C227 103.9 227.8 104.5 227.6 105.6C227.1 107.2 226.4 109.6 224.8 111.7Z" fill="#3384FF"/>
<path d="M114.8 182.6L57.8 146.7C45.5 139 38 125.4 38 110.9V29C61.8 35 87 28 104.3 10.6L114.8 0" fill="#FFAB00"/>
<path d="M114.8 0L125.3 10.6C142.6 28 167.8 35 191.6 29V110.8C191.6 125.4 184.1 138.9 171.8 146.7L114.8 182.6V0Z" fill="url(#paint2_linear)"/>
<path d="M129.1 101.7C130 100.8 130.8 99.9 131.5 98.9C134.2 95.1 135.6 90.6 135.6 85.9C135.6 85.2 135.6 84.4999 135.5 83.6999C135.5 83.4999 135.5 83.2999 135.4 83C135.3 82.5 135.3 82 135.2 81.5C135.2 81.2 135.1 80.9999 135 80.6999C134.9 80.2999 134.8 79.8 134.7 79.4V79.3C134.6 79.1 134.6 78.8999 134.5 78.6999C134.3 78.1999 134.2 77.8 134 77.3C133.9 77.1 133.8 76.8999 133.8 76.6999C133.5 76.0999 133.2 75.5 132.9 74.9C132.8 74.7 132.7 74.5 132.5 74.3C132.3 73.9 132 73.4999 131.8 73.1999C131.6 72.9999 131.5 72.7 131.3 72.5C131.1 72.2 130.9 71.8999 130.6 71.5999C130.4 71.2999 130.2 71.1 130 70.9C129.8 70.6 129.5 70.3999 129.2 70.0999C129 69.8999 128.8 69.7 128.5 69.4C128.3 69.2 128.1 69 127.9 68.9L127.8 68.8C127.3 68.4 126.7 67.9 126.2 67.5L126.1 67.4C125.9 67.3 125.7 67.1 125.5 67C125.2 66.8 124.9 66.6 124.5 66.4C124.5 66.4 123 65.6 122.7 65.4C122.5 65.3 122.2 65.1999 122 65.0999C121.6 64.8999 121.2 64.7999 120.8 64.5999C120.6 64.4999 120.4 64.5 120.2 64.4L120 64.3C119.6 64.2 119.3 64.1 118.9 64C117 63.5 115.1 63.2 113.1 63.2C112.8 63.2 112.5 63.2 112.2 63.2C100.5 63.6 91 73.2 90.6 84.9C90.4 91.1 92.8 97.1 97.1 101.4L94.6 110.2C93.6 113.5 94.3 116.9 96.3 119.7C98.4 122.4 101.5 124 104.9 124H121.2C122.1 124 122.9 123.9 123.8 123.7C127.9 122.7 131 119.4 131.8 115.3C132.1 113.6 132 111.9 131.6 110.2L129.1 101.7Z" fill="#FF991F"/>
<path d="M102.3 99.7001C100.5 97.9001 97.6001 97.9001 95.8001 99.7001L52.6001 142.9C54.2001 144.3 55.9001 145.6 57.8001 146.8L60.3001 148.4L102.3 106.4C104.1 104.4 104.1 101.5 102.3 99.7001Z" fill="#FF991F"/>
<path d="M128.9 85.9001C128.9 77.0001 121.5 69.9001 112.6 70.2001C104.5 70.5001 97.8001 77.3001 97.5001 85.4001C97.3001 90.1001 99.3001 94.3001 102.4 97.3001C103.9 98.7001 104.5 100.8 104 102.7L101.2 112.4C100.5 115 102.4 117.5 105 117.5H121.3C124 117.5 125.9 114.9 125.1 112.4L122.3 102.8C121.7 100.8 122.4 98.8001 123.9 97.3001C127 94.4001 128.9 90.3001 128.9 85.9001Z" fill="#253858"/>
<path d="M125.2 112.3L122.4 102.7C121.8 100.7 122.5 98.7001 124 97.2001C127 94.3001 128.9 90.3001 128.9 85.8001C128.9 78.5001 124 72.4001 117.2 70.6001C110.7 72.3001 105.7 78.3001 105.5 85.2001C105.3 89.9001 107.3 94.1001 110.4 97.1001C111.9 98.5001 112.5 100.6 112 102.5L107.7 117.3H121.3C124 117.4 125.9 114.9 125.2 112.3Z" fill="#091E42"/>
<path opacity="0.6" d="M141.3 41.3999L143 46.4999H148.4C148.9 46.4999 149.1 47.0999 148.7 47.3999L144.3 50.5999L146 55.6999C146.1 56.0999 145.6 56.4999 145.3 56.1999L140.9 52.9999L136.5 56.1999C136.1 56.4999 135.6 56.0999 135.8 55.6999L137.5 50.5999L133.1 47.3999C132.7 47.0999 132.9 46.4999 133.4 46.4999H138.8L140.5 41.3999C140.5 40.8999 141.2 40.8999 141.3 41.3999Z" fill="#FF8B00"/>
<path opacity="0.6" d="M89.2999 41.3999L90.9999 46.4999H96.3999C96.8999 46.4999 97.0999 47.0999 96.6999 47.3999L92.2999 50.5999L93.9999 55.6999C94.0999 56.0999 93.5999 56.4999 93.2999 56.1999L88.8999 52.9999L84.4999 56.1999C84.0999 56.4999 83.5999 56.0999 83.7999 55.6999L85.4999 50.5999L80.9999 47.3999C80.5999 47.0999 80.7999 46.4999 81.2999 46.4999H86.6999L88.3999 41.3999C88.4999 40.8999 89.1999 40.8999 89.2999 41.3999Z" fill="#FF8B00"/>
<path opacity="0.6" d="M115.3 33.6999L117 38.7999H122.4C122.9 38.7999 123.1 39.3999 122.7 39.6999L118.3 42.8999L120 47.9999C120.1 48.3999 119.6 48.7999 119.3 48.4999L114.9 45.2999L110.5 48.4999C110.1 48.7999 109.6 48.3999 109.8 47.9999L111.5 42.8999L107.1 39.6999C106.7 39.3999 106.9 38.7999 107.4 38.7999H112.8L114.5 33.6999C114.5 33.2999 115.2 33.2999 115.3 33.6999Z" fill="#FF8B00"/>
<path d="M114.8 178.1L59.8 143.5C48.5 136.4 41.8 124.2 41.8 110.9V33.9L43 34C47 34.7 51 35 55 35C74.4 35 93.4001 27.1 107.1 13.3L114.9 5.5L122.7 13.3C136.3 27.1 155.3 35 174.7 35C178.7 35 182.7 34.7 186.7 34L187.9 33.8V110.8C187.9 124.1 181.2 136.3 169.9 143.4L114.8 178.1ZM43.9001 36.1V110.8C43.9001 123.4 50.3 135 61 141.7L114.9 175.7L168.8 141.7C179.5 135 185.9 123.4 185.9 110.8V36.1C182.2 36.7 178.5 36.9 174.8 36.9C154.9 36.9 135.4 28.8 121.3 14.6L114.9 8.2L108.5 14.6C94.4 28.9 74.9 37 55 37C51.3 37 47.6001 36.7 43.9001 36.1Z" fill="#FF8B00"/>
<path d="M60.7999 92H114.4C116.9 92 119 89.9 119 87.4C119 84.9 116.9 82.8 114.4 82.8H60.7999C58.2999 82.8 56.2 84.9 56.2 87.4C56.2 89.9 58.1999 92 60.7999 92Z" fill="#0065FF"/>
<path d="M102.6 87.4C102.6 84.9 100.5 82.8 98.0001 82.8H63.7001C61.2001 82.8 59.1001 84.9 59.1001 87.4C59.1001 89.9 61.2001 92 63.7001 92H98.0001C100.6 92 102.6 89.9 102.6 87.4Z" fill="#2684FF"/>
<path d="M39.1 113.7C24.6 113.7 12.8 101.9 12.8 87.4001C12.8 72.9001 24.6 61.1001 39.1 61.1001C53.6 61.1001 65.4001 72.9001 65.4001 87.4001C65.4001 101.9 53.6 113.7 39.1 113.7ZM39.1 70.3001C29.7 70.3001 22 78.0001 22 87.4001C22 96.8001 29.7 104.5 39.1 104.5C48.5 104.5 56.2001 96.8001 56.2001 87.4001C56.2001 77.9001 48.5 70.3001 39.1 70.3001Z" fill="#2684FF"/>
<path d="M187.9 139.3C185.9 144.2 182.2 147.8 179.9 149.7C178.8 150.6 177.4 150.1 177.2 148.6C176.8 145.6 176.6 140.5 178.6 135.6C180.4 131.1 183.6 127.8 186 125.8C187.5 124.6 189.2 125.3 189.4 127.2C189.7 130.2 189.7 134.8 187.9 139.3Z" fill="#0065FF"/>
<path d="M40.5 139.3C42.5 144.2 46.2 147.8 48.5 149.7C49.6 150.6 51 150.1 51.2 148.6C51.6 145.6 51.8 140.5 49.8 135.6C48 131.1 44.8 127.8 42.4 125.8C40.9 124.6 39.2 125.3 39 127.2C38.7 130.2 38.7 134.8 40.5 139.3Z" fill="#0065FF"/>
</g>
<defs>
<linearGradient id="paint0_linear" x1="102.388" y1="126.033" x2="14.0796" y2="135.175" gradientUnits="userSpaceOnUse">
<stop offset="0.000916773" stop-color="#0049B0"/>
<stop offset="0.2737" stop-color="#004AB3"/>
<stop offset="0.4834" stop-color="#004EBD"/>
<stop offset="0.6721" stop-color="#0053CD"/>
<stop offset="0.8472" stop-color="#005BE4"/>
<stop offset="1" stop-color="#0065FF"/>
</linearGradient>
<linearGradient id="paint1_linear" x1="125.998" y1="126.033" x2="214.307" y2="135.175" gradientUnits="userSpaceOnUse">
<stop offset="0.000916773" stop-color="#0065FF"/>
<stop offset="0.3624" stop-color="#0266FF"/>
<stop offset="0.5168" stop-color="#096BFF"/>
<stop offset="0.6317" stop-color="#1672FF"/>
<stop offset="0.727" stop-color="#277DFF"/>
<stop offset="0.8102" stop-color="#3F8BFF"/>
<stop offset="0.885" stop-color="#5B9CFF"/>
<stop offset="0.9519" stop-color="#7CB0FF"/>
<stop offset="1" stop-color="#99C1FF"/>
</linearGradient>
<linearGradient id="paint2_linear" x1="74.826" y1="142.627" x2="190.033" y2="27.4202" gradientUnits="userSpaceOnUse">
<stop stop-color="#FFAB00"/>
<stop offset="1" stop-color="#FFE380"/>
</linearGradient>
<clipPath id="clip0">
<rect width="228.4" height="182.6" fill="white"/>
</clipPath>
</defs>
</svg>
