<svg width="226" height="243" viewBox="0 0 226 243" fill="none" xmlns="http://www.w3.org/2000/svg">
<g clip-path="url(#clip0)">
<rect width="225.5" height="242.5" fill="white" fill-opacity="0.01"/>
<path d="M172.7 194.7C173.176 195.341 173.794 195.865 174.505 196.229C175.216 196.593 176.001 196.788 176.8 196.8L167.5 203.5C167.424 203.528 167.356 203.575 167.302 203.635C167.248 203.696 167.209 203.769 167.189 203.847C167.17 203.926 167.169 204.008 167.189 204.087C167.208 204.166 167.246 204.239 167.3 204.3L173 212.3C173.073 212.378 173.162 212.438 173.262 212.476C173.361 212.514 173.468 212.528 173.574 212.519C173.68 212.509 173.783 212.475 173.874 212.42C173.965 212.365 174.042 212.29 174.1 212.2C174.381 211.375 174.864 210.633 175.507 210.043C176.149 209.454 176.929 209.035 177.776 208.826C178.622 208.617 179.508 208.624 180.351 208.847C181.194 209.069 181.967 209.5 182.6 210.1C183.396 210.802 183.958 211.731 184.211 212.762C184.464 213.793 184.395 214.876 184.014 215.867C183.633 216.858 182.958 217.708 182.08 218.304C181.201 218.9 180.161 219.212 179.1 219.2C179.002 219.232 178.912 219.284 178.837 219.355C178.762 219.425 178.703 219.511 178.665 219.606C178.627 219.702 178.61 219.804 178.616 219.907C178.622 220.01 178.651 220.11 178.7 220.2L184.4 228.2C184.438 228.269 184.492 228.327 184.557 228.371C184.622 228.415 184.697 228.443 184.775 228.453C184.852 228.462 184.932 228.454 185.005 228.427C185.079 228.401 185.146 228.357 185.2 228.3L194.5 221.7C194.293 222.474 194.248 223.282 194.368 224.073C194.489 224.865 194.772 225.623 195.2 226.3C195.607 226.865 196.121 227.344 196.714 227.71C197.306 228.076 197.964 228.321 198.651 228.433C199.339 228.544 200.041 228.519 200.718 228.359C201.396 228.199 202.035 227.907 202.6 227.5C203.165 227.093 203.644 226.579 204.009 225.986C204.375 225.394 204.621 224.736 204.733 224.049C204.844 223.361 204.819 222.659 204.659 221.982C204.499 221.304 204.207 220.665 203.8 220.1C203.334 219.463 202.735 218.937 202.044 218.557C201.353 218.176 200.587 217.952 199.8 217.9L209.1 211.3C209.168 211.262 209.227 211.208 209.271 211.143C209.315 211.078 209.343 211.003 209.353 210.925C209.362 210.847 209.354 210.768 209.327 210.694C209.301 210.621 209.257 210.554 209.2 210.5L203.5 202.4C203.487 202.334 203.461 202.272 203.424 202.216C203.386 202.161 203.338 202.113 203.283 202.076C203.227 202.039 203.165 202.013 203.099 202C203.033 201.987 202.966 201.987 202.9 202C202.834 202.013 202.772 202.039 202.716 202.076C202.661 202.114 202.613 202.161 202.576 202.217C202.539 202.273 202.513 202.335 202.5 202.401C202.487 202.467 202.487 202.534 202.5 202.6C202.24 203.295 201.839 203.929 201.323 204.463C200.807 204.996 200.186 205.417 199.5 205.7C198.568 206.083 197.546 206.192 196.554 206.015C195.563 205.838 194.642 205.382 193.9 204.7C193.338 204.158 192.9 203.5 192.617 202.773C192.333 202.045 192.211 201.264 192.259 200.485C192.306 199.705 192.522 198.945 192.892 198.257C193.262 197.569 193.776 196.97 194.4 196.5C195.292 195.916 196.334 195.603 197.4 195.6C197.52 195.611 197.641 195.586 197.747 195.527C197.852 195.468 197.938 195.379 197.992 195.271C198.046 195.163 198.066 195.041 198.049 194.921C198.033 194.802 197.981 194.69 197.9 194.6L192.2 186.6C192.117 186.471 191.988 186.378 191.84 186.341C191.691 186.304 191.534 186.325 191.4 186.4L182 193.1C182.256 192.333 182.327 191.515 182.205 190.716C182.083 189.916 181.773 189.156 181.3 188.5C180.893 187.935 180.379 187.456 179.786 187.09C179.194 186.724 178.536 186.478 177.849 186.367C177.161 186.256 176.459 186.281 175.781 186.441C175.104 186.601 174.465 186.893 173.9 187.3C172.781 188.138 172.03 189.378 171.807 190.758C171.583 192.138 171.903 193.551 172.7 194.7Z" fill="#2684FF"/>
<path d="M86.9999 204.7L86.5999 201.9C86.5016 201.325 86.1887 200.81 85.7246 200.457C85.2605 200.104 84.6798 199.941 84.0999 200C83.6241 200.1 83.1281 200.023 82.7047 199.784C82.2814 199.545 81.9598 199.159 81.7999 198.7C81.0901 197.177 80.2184 195.736 79.1999 194.4C78.908 194.03 78.7492 193.572 78.7492 193.1C78.7492 192.628 78.908 192.17 79.1999 191.8C79.3733 191.565 79.498 191.297 79.5668 191.013C79.6355 190.729 79.647 190.434 79.6004 190.145C79.5539 189.856 79.4503 189.58 79.2957 189.332C79.141 189.084 78.9385 188.869 78.6999 188.7L76.4999 187C76.2645 186.827 75.9969 186.702 75.7128 186.633C75.4286 186.564 75.1336 186.553 74.845 186.6C74.5564 186.646 74.2799 186.75 74.0318 186.904C73.7837 187.059 73.5689 187.261 73.3999 187.5C73.1053 187.888 72.6901 188.168 72.2195 188.294C71.749 188.421 71.2496 188.388 70.7999 188.2C69.2216 187.602 67.5761 187.199 65.8999 187C65.4111 186.955 64.9534 186.741 64.6063 186.394C64.2592 186.047 64.0446 185.589 63.9999 185.1C63.9018 184.532 63.585 184.026 63.1176 183.689C62.6501 183.353 62.0693 183.213 61.4999 183.3L58.6999 183.7C58.1324 183.798 57.6259 184.115 57.2893 184.582C56.9528 185.05 56.813 185.631 56.8999 186.2C56.9615 186.672 56.8681 187.152 56.6336 187.567C56.3992 187.982 56.0364 188.309 55.5999 188.5C54.0654 189.187 52.6212 190.06 51.2999 191.1C50.9336 191.432 50.462 191.624 49.9682 191.642C49.4743 191.66 48.9898 191.504 48.5999 191.2C48.3765 191.008 48.1151 190.864 47.8327 190.78C47.5502 190.695 47.2531 190.671 46.9607 190.708C46.6683 190.746 46.3871 190.845 46.1354 190.999C45.8837 191.152 45.6672 191.357 45.4999 191.6L43.7999 193.9C43.4749 194.384 43.3458 194.973 43.4386 195.549C43.5314 196.124 43.8393 196.643 44.2999 197C44.6949 197.265 44.9824 197.663 45.1107 198.121C45.239 198.579 45.1997 199.068 44.9999 199.5C44.4017 201.078 43.9987 202.724 43.7999 204.4C43.7593 204.874 43.5591 205.32 43.2321 205.665C42.9052 206.01 42.4707 206.234 41.9999 206.3C41.7099 206.337 41.4301 206.431 41.1769 206.577C40.9238 206.723 40.7022 206.919 40.5253 207.151C40.3485 207.384 40.2197 207.65 40.1467 207.933C40.0736 208.216 40.0577 208.511 40.0999 208.8L40.4999 211.6C40.5983 212.175 40.9112 212.69 41.3753 213.043C41.8393 213.396 42.42 213.559 42.9999 213.5C43.4893 213.395 43.9999 213.469 44.4399 213.707C44.88 213.945 45.2204 214.333 45.3999 214.8C46.0332 216.362 46.9108 217.814 47.9999 219.1C48.2919 219.47 48.4507 219.928 48.4507 220.4C48.4507 220.872 48.2919 221.33 47.9999 221.7C47.6638 222.172 47.5183 222.754 47.5924 223.328C47.6666 223.903 47.955 224.429 48.3999 224.8L50.6999 226.5C50.9353 226.673 51.2029 226.798 51.4871 226.867C51.7712 226.936 52.0662 226.947 52.3549 226.9C52.6435 226.854 52.9199 226.75 53.168 226.596C53.4162 226.441 53.631 226.239 53.7999 226C54.0653 225.605 54.4627 225.318 54.9209 225.189C55.3791 225.061 55.8681 225.1 56.2999 225.3C57.8782 225.898 59.5238 226.301 61.1999 226.5C61.6888 226.545 62.1465 226.759 62.4936 227.106C62.8407 227.453 63.0552 227.911 63.0999 228.4C63.1479 228.691 63.2539 228.97 63.4117 229.219C63.5695 229.468 63.7758 229.683 64.0184 229.851C64.261 230.019 64.5348 230.136 64.8237 230.196C65.1126 230.256 65.4106 230.258 65.6999 230.2L68.3999 229.8C68.69 229.763 68.9697 229.669 69.2229 229.523C69.4761 229.377 69.6976 229.181 69.8745 228.949C70.0514 228.716 70.1802 228.45 70.2532 228.167C70.3262 227.884 70.3421 227.589 70.2999 227.3C70.2205 226.826 70.3063 226.339 70.5429 225.92C70.7796 225.501 71.1527 225.177 71.5999 225C73.1224 224.29 74.5641 223.418 75.8999 222.4C76.2501 222.076 76.7047 221.888 77.1815 221.869C77.6582 221.851 78.1259 222.004 78.4999 222.3H78.5999C78.8148 222.491 79.0681 222.633 79.3427 222.717C79.6173 222.8 79.9068 222.824 80.1914 222.786C80.4761 222.748 80.7492 222.65 80.9922 222.497C81.2353 222.344 81.4425 222.14 81.5999 221.9L83.2999 219.6C83.6249 219.116 83.7541 218.527 83.6613 217.951C83.5684 217.376 83.2606 216.857 82.7999 216.5C82.4049 216.235 82.1175 215.837 81.9892 215.379C81.8609 214.921 81.9001 214.432 82.0999 214C82.6982 212.422 83.1012 210.776 83.2999 209.1C83.3447 208.611 83.5592 208.153 83.9063 207.806C84.2534 207.459 84.7111 207.245 85.1999 207.2C85.7675 207.102 86.274 206.785 86.6105 206.318C86.9471 205.85 87.0869 205.269 86.9999 204.7ZM70.5999 205C70.9701 206.461 70.8789 208.001 70.339 209.408C69.799 210.815 68.8367 212.021 67.5842 212.859C66.3317 213.698 64.8504 214.128 63.3437 214.091C61.8369 214.053 60.3786 213.551 59.1689 212.652C57.9592 211.753 57.0575 210.501 56.5875 209.069C56.1175 207.637 56.1023 206.095 56.544 204.654C56.9857 203.213 57.8626 201.944 59.0543 201.021C60.2461 200.098 61.6942 199.567 63.1999 199.5C64.8779 199.426 66.5301 199.932 67.8781 200.934C69.2261 201.936 70.1874 203.372 70.5999 205Z" fill="#2684FF"/>
<path d="M86.6 201.9C86.5016 201.325 86.1888 200.81 85.7247 200.457C85.2606 200.104 84.6799 199.941 84.1 200C83.6241 200.1 83.1281 200.023 82.7048 199.784C82.2815 199.545 81.9598 199.159 81.8 198.7C81.0902 197.177 80.2185 195.736 79.2 194.4C78.908 194.03 78.7493 193.572 78.7493 193.1C78.7493 192.628 78.908 192.17 79.2 191.8C79.3734 191.565 79.4981 191.297 79.5669 191.013C79.6356 190.729 79.6471 190.434 79.6005 190.145C79.554 189.856 79.4504 189.58 79.2957 189.332C79.1411 189.084 78.9386 188.869 78.7 188.7L76.5 187C76.2646 186.827 75.997 186.702 75.7129 186.633C75.4287 186.564 75.1337 186.553 74.8451 186.6C74.5565 186.646 74.28 186.75 74.0319 186.904C73.7838 187.059 73.569 187.261 73.4 187.5C73.1054 187.888 72.6902 188.168 72.2196 188.294C71.749 188.421 71.2497 188.388 70.8 188.2C69.2217 187.602 67.5762 187.199 65.9 187C65.4112 186.955 64.9535 186.741 64.6064 186.394C64.2593 186.047 64.0447 185.589 64 185.1C63.9019 184.532 63.5851 184.026 63.1177 183.689C62.6502 183.353 62.0694 183.213 61.5 183.3L58.7 183.7C58.4072 183.707 58.1253 183.813 57.9 184C58.4829 189.407 59.8646 194.698 62 199.7L63.2 199.5C64.8821 199.406 66.5438 199.905 67.8959 200.91C69.248 201.915 70.2049 203.362 70.6 205C70.8881 206.147 70.893 207.348 70.6142 208.497C70.3355 209.647 69.7815 210.712 69 211.6C72.2365 215.838 76.0775 219.578 80.4 222.7C80.8856 222.592 81.3134 222.307 81.6 221.9L83.3 219.6C83.625 219.116 83.7542 218.527 83.6613 217.951C83.5685 217.376 83.2607 216.857 82.8 216.5C82.405 216.235 82.1176 215.837 81.9893 215.379C81.861 214.921 81.9002 214.432 82.1 214C82.6983 212.422 83.1013 210.776 83.3 209.1C83.3447 208.611 83.5593 208.153 83.9064 207.806C84.2535 207.459 84.7112 207.245 85.2 207.2C85.7676 207.102 86.2741 206.785 86.6106 206.318C86.9472 205.85 87.087 205.269 87 204.7L86.6 201.9Z" fill="#0065FF"/>
<path d="M122.4 228.5C152.72 228.5 177.3 203.92 177.3 173.6C177.3 143.28 152.72 118.7 122.4 118.7C92.0796 118.7 67.5 143.28 67.5 173.6C67.5 203.92 92.0796 228.5 122.4 228.5Z" fill="url(#paint0_linear)"/>
<path opacity="0.3" d="M161.7 211.9V209.5H158.2V204.6H148.8V209.5H143.3V204.6H133.9V209.5H128.4V204.6H119V209.5H115.5V228C117.787 228.316 120.092 228.483 122.4 228.5C129.727 228.496 136.979 227.024 143.728 224.174C150.478 221.323 156.588 217.149 161.7 211.9Z" fill="#00875A"/>
<path d="M115.9 196.5L94.6 175.2C94.3581 174.967 94.1656 174.687 94.0342 174.378C93.9027 174.069 93.835 173.736 93.835 173.4C93.835 173.064 93.9027 172.731 94.0342 172.422C94.1656 172.113 94.3581 171.833 94.6 171.6L102 164.2C102.233 163.958 102.513 163.766 102.822 163.634C103.131 163.503 103.464 163.435 103.8 163.435C104.136 163.435 104.469 163.503 104.778 163.634C105.087 163.766 105.367 163.958 105.6 164.2L117.7 176.4L144.5 149.7C144.733 149.458 145.013 149.266 145.322 149.134C145.631 149.003 145.964 148.935 146.3 148.935C146.636 148.935 146.969 149.003 147.278 149.134C147.587 149.266 147.867 149.458 148.1 149.7L155.5 157C155.742 157.233 155.934 157.513 156.066 157.822C156.197 158.131 156.265 158.464 156.265 158.8C156.265 159.136 156.197 159.469 156.066 159.778C155.934 160.087 155.742 160.367 155.5 160.6L119.5 196.5C119.267 196.742 118.987 196.934 118.678 197.066C118.369 197.197 118.036 197.265 117.7 197.265C117.364 197.265 117.031 197.197 116.722 197.066C116.413 196.934 116.133 196.742 115.9 196.5Z" fill="#E3FCEF"/>
<path d="M23.1999 28.5C22.0271 27.3475 20.5638 26.5344 18.9658 26.147C17.3678 25.7596 15.6947 25.8125 14.1243 26.2999C12.5539 26.7874 11.1449 27.6912 10.0471 28.9154C8.94927 30.1396 8.20368 31.6383 7.88954 33.2524C7.5754 34.8664 7.70445 36.5354 8.26299 38.0819C8.82152 39.6285 9.78866 40.9948 11.0616 42.0356C12.3345 43.0765 13.8657 43.753 15.4924 43.9932C17.1191 44.2335 18.7804 44.0285 20.2999 43.4C20.576 43.2528 20.8935 43.2024 21.2017 43.2568C21.5098 43.3112 21.7908 43.4672 21.9999 43.7C22.2812 43.9972 22.438 44.3908 22.438 44.8C22.438 45.2092 22.2812 45.6029 21.9999 45.9C21.627 46.2907 21.419 46.81 21.419 47.35C21.419 47.8901 21.627 48.4094 21.9999 48.8L24.0999 50.9L32.6999 42.3L30.5999 40.2C30.4219 40.006 30.2056 39.8511 29.9646 39.7452C29.7236 39.6392 29.4632 39.5845 29.1999 39.5845C28.9366 39.5845 28.6763 39.6392 28.4353 39.7452C28.1943 39.8511 27.9779 40.006 27.7999 40.2C27.4862 40.4881 27.0758 40.648 26.6499 40.648C26.224 40.648 25.8136 40.4881 25.4999 40.2C25.284 39.9595 25.1411 39.6625 25.0879 39.3437C25.0348 39.0249 25.0736 38.6975 25.1999 38.4C25.8684 36.7346 26.0353 34.91 25.6799 33.151C25.3246 31.392 24.4625 29.7753 23.1999 28.5Z" fill="url(#paint1_linear)"/>
<path d="M27.6 178.1C10.8634 160.264 1.72037 136.618 2.10453 112.162C2.48869 87.7059 12.3699 64.3584 29.6584 47.0569C46.947 29.7554 70.2871 19.8566 94.7426 19.4541C119.198 19.0515 142.851 28.1768 160.7 44.9L27.6 178.1Z" fill="url(#paint2_linear)"/>
<g opacity="0.4">
<g opacity="0.4">
<g opacity="0.4">
<path opacity="0.4" d="M144.1 61.6L127.4 78.2C109.2 60 46.9 27 28 44.5C55.8 17.5 116.6 34.1 144.1 61.6Z" fill="url(#paint3_linear)"/>
<path opacity="0.4" d="M28 44.5L27.6 44.9L28 44.5Z" fill="url(#paint4_linear)"/>
</g>
<path opacity="0.4" d="M28 44.5L27.6 44.9L28 44.5Z" fill="url(#paint5_linear)"/>
</g>
</g>
<path d="M19.2999 228.5V230.3C19.2999 231.679 19.8478 233.002 20.823 233.977C21.7982 234.952 23.1208 235.5 24.4999 235.5C30.9865 235.497 37.2223 238.006 41.8999 242.5H204.5C209.178 238.006 215.413 235.497 221.9 235.5C222.855 235.5 223.77 235.121 224.446 234.446C225.121 233.77 225.5 232.855 225.5 231.9V228.5H19.2999Z" fill="url(#paint6_linear)"/>
<path d="M19.2999 228.5H222C222.46 228.5 222.915 228.591 223.339 228.766C223.764 228.942 224.15 229.2 224.475 229.525C224.8 229.85 225.058 230.236 225.234 230.661C225.409 231.085 225.5 231.54 225.5 232C225.5 232.46 225.409 232.915 225.234 233.339C225.058 233.764 224.8 234.15 224.475 234.475C224.15 234.8 223.764 235.058 223.339 235.234C222.915 235.409 222.46 235.5 222 235.5H22.7999C21.8717 235.5 20.9814 235.131 20.3251 234.475C19.6687 233.818 19.2999 232.928 19.2999 232V228.5Z" fill="url(#paint7_linear)"/>
<path d="M157.589 38.6345L21.2592 174.965C19.9705 176.253 19.9705 178.343 21.2592 179.632L21.3017 179.674C22.5904 180.963 24.6798 180.963 25.9686 179.674L162.299 43.3438C163.587 42.0551 163.587 39.9656 162.299 38.6769L162.256 38.6345C160.968 37.3457 158.878 37.3457 157.589 38.6345Z" fill="url(#paint8_linear)"/>
<path d="M144 209.5H120.9V228.49H144V209.5Z" fill="#0052CC"/>
<path d="M167.1 209.5H144V228.49H167.1V209.5Z" fill="url(#paint9_linear)"/>
<path d="M133.9 204.6H124.4V209.52H133.9V204.6Z" fill="#2684FF"/>
<path d="M163.7 204.6H154.2V209.52H163.7V204.6Z" fill="#2684FF"/>
<path d="M148.8 204.6H139.3V209.52H148.8V204.6Z" fill="#2684FF"/>
<path d="M172.5 124.7C171.77 121.478 170.143 118.529 167.807 116.193C165.471 113.857 162.522 112.23 159.3 111.5C162.529 110.751 165.482 109.106 167.817 106.753C170.152 104.4 171.776 101.435 172.5 98.2C173.243 101.443 174.885 104.41 177.237 106.763C179.589 109.115 182.557 110.757 185.8 111.5C182.565 112.224 179.6 113.848 177.247 116.183C174.894 118.518 173.249 121.47 172.5 124.7Z" fill="#79F2C0"/>
<path d="M147.3 107.4C146.952 105.781 146.144 104.297 144.973 103.127C143.802 101.956 142.319 101.148 140.7 100.8C142.316 100.411 143.791 99.5771 144.957 98.393C146.124 97.2088 146.935 95.7217 147.3 94.1C147.694 95.7244 148.527 97.2089 149.709 98.3908C150.891 99.5727 152.376 100.406 154 100.8C152.378 101.165 150.891 101.976 149.707 103.143C148.523 104.309 147.689 105.784 147.3 107.4Z" fill="#79F2C0"/>
<path d="M142.9 13.3C146.148 12.568 149.121 10.9299 151.476 8.57569C153.83 6.22151 155.468 3.24787 156.2 0V0C156.943 3.24274 158.585 6.21046 160.937 8.56284C163.289 10.9152 166.257 12.557 169.5 13.3C166.265 14.0243 163.3 15.6476 160.947 17.9828C158.594 20.3181 156.949 23.2705 156.2 26.5C155.473 23.2601 153.835 20.2957 151.479 17.9567C149.122 15.6178 146.145 14.0019 142.9 13.3Z" fill="#79F2C0"/>
<path d="M23.7 148.4C25.3109 148 26.78 147.163 27.9447 145.981C29.1095 144.798 29.9246 143.317 30.2999 141.7C30.6647 143.322 31.4762 144.809 32.6427 145.993C33.8092 147.177 35.2839 148.011 36.9 148.4C35.2812 148.748 33.7974 149.556 32.6267 150.727C31.4559 151.897 30.648 153.381 30.2999 155C29.9405 153.386 29.1288 151.909 27.96 150.74C26.7911 149.571 25.3134 148.759 23.7 148.4Z" fill="url(#paint10_linear)"/>
<path d="M34.1 124.7C36.9276 124.086 39.5212 122.678 41.576 120.641C43.6308 118.603 45.0615 116.022 45.7 113.2C46.3082 116.02 47.7165 118.604 49.7561 120.644C51.7958 122.683 54.3803 124.092 57.2 124.7C54.3778 125.338 51.7965 126.769 49.7594 128.824C47.7223 130.879 46.314 133.472 45.7 136.3C45.0672 133.465 43.6403 130.868 41.5861 128.814C39.5319 126.76 36.9353 125.333 34.1 124.7Z" fill="url(#paint11_linear)"/>
</g>
<defs>
<linearGradient id="paint0_linear" x1="83.61" y1="212.42" x2="161.19" y2="134.85" gradientUnits="userSpaceOnUse">
<stop offset="0.24" stop-color="#36B37E"/>
<stop offset="0.51" stop-color="#54CF9B"/>
<stop offset="0.82" stop-color="#6FE9B6"/>
<stop offset="1" stop-color="#79F2C0"/>
</linearGradient>
<linearGradient id="paint1_linear" x1="20.2302" y1="50.9008" x2="20.2302" y2="25.9399" gradientUnits="userSpaceOnUse">
<stop stop-color="#A5ADBA"/>
<stop offset="0.26" stop-color="#AFB6C1"/>
<stop offset="0.7" stop-color="#CACED5"/>
<stop offset="1" stop-color="#DFE1E5"/>
</linearGradient>
<linearGradient id="paint2_linear" x1="80.3767" y1="178.109" x2="80.3767" y2="17.3839" gradientUnits="userSpaceOnUse">
<stop stop-color="#A5ADBA"/>
<stop offset="0.41" stop-color="#C5C9D2"/>
<stop offset="0.76" stop-color="#D8DBE0"/>
<stop offset="1" stop-color="#DFE1E5"/>
</linearGradient>
<linearGradient id="paint3_linear" x1="119.314" y1="86.3264" x2="52.7474" y2="19.7594" gradientUnits="userSpaceOnUse">
<stop stop-color="white"/>
<stop offset="0.02" stop-color="#FEFEFE" stop-opacity="0.97"/>
<stop offset="0.19" stop-color="#FAFAFB" stop-opacity="0.81"/>
<stop offset="0.33" stop-color="#F7F7F9" stop-opacity="0.7"/>
<stop offset="0.46" stop-color="#F5F6F8" stop-opacity="0.63"/>
<stop offset="0.54" stop-color="#F4F5F7" stop-opacity="0.6"/>
<stop offset="0.62" stop-color="#F4F5F7" stop-opacity="0.62"/>
<stop offset="0.71" stop-color="#F6F7F8" stop-opacity="0.67"/>
<stop offset="0.81" stop-color="#F8F9FA" stop-opacity="0.75"/>
<stop offset="0.91" stop-color="#FBFCFC" stop-opacity="0.87"/>
<stop offset="1" stop-color="white"/>
</linearGradient>
<linearGradient id="paint4_linear" x1="27.7794" y1="44.7273" x2="27.7723" y2="44.7202" gradientUnits="userSpaceOnUse">
<stop stop-color="white"/>
<stop offset="0.04" stop-color="white" stop-opacity="0.89"/>
<stop offset="0.15" stop-color="white" stop-opacity="0.62"/>
<stop offset="0.25" stop-color="white" stop-opacity="0.4"/>
<stop offset="0.34" stop-color="white" stop-opacity="0.23"/>
<stop offset="0.42" stop-color="white" stop-opacity="0.1"/>
<stop offset="0.49" stop-color="white" stop-opacity="0.03"/>
<stop offset="0.54" stop-color="white" stop-opacity="0"/>
<stop offset="0.59" stop-color="white" stop-opacity="0.02"/>
<stop offset="0.65" stop-color="white" stop-opacity="0.07"/>
<stop offset="0.71" stop-color="white" stop-opacity="0.16"/>
<stop offset="0.77" stop-color="white" stop-opacity="0.29"/>
<stop offset="0.84" stop-color="white" stop-opacity="0.46"/>
<stop offset="0.9" stop-color="white" stop-opacity="0.66"/>
<stop offset="0.97" stop-color="white" stop-opacity="0.89"/>
<stop offset="1" stop-color="white"/>
</linearGradient>
<linearGradient id="paint5_linear" x1="27.7794" y1="44.7273" x2="27.7723" y2="44.7202" gradientUnits="userSpaceOnUse">
<stop stop-color="white"/>
<stop offset="0.04" stop-color="white" stop-opacity="0.89"/>
<stop offset="0.15" stop-color="white" stop-opacity="0.62"/>
<stop offset="0.25" stop-color="white" stop-opacity="0.4"/>
<stop offset="0.34" stop-color="white" stop-opacity="0.23"/>
<stop offset="0.42" stop-color="white" stop-opacity="0.1"/>
<stop offset="0.49" stop-color="white" stop-opacity="0.03"/>
<stop offset="0.54" stop-color="white" stop-opacity="0"/>
<stop offset="0.59" stop-color="white" stop-opacity="0.02"/>
<stop offset="0.65" stop-color="white" stop-opacity="0.07"/>
<stop offset="0.71" stop-color="white" stop-opacity="0.16"/>
<stop offset="0.77" stop-color="white" stop-opacity="0.29"/>
<stop offset="0.84" stop-color="white" stop-opacity="0.46"/>
<stop offset="0.9" stop-color="white" stop-opacity="0.66"/>
<stop offset="0.97" stop-color="white" stop-opacity="0.89"/>
<stop offset="1" stop-color="white"/>
</linearGradient>
<linearGradient id="paint6_linear" x1="19.3299" y1="235.51" x2="225.47" y2="235.51" gradientUnits="userSpaceOnUse">
<stop offset="0.56" stop-color="#97A0AF"/>
<stop offset="0.66" stop-color="#A1A9B6"/>
<stop offset="0.82" stop-color="#BCC1CB"/>
<stop offset="1" stop-color="#DFE1E5"/>
</linearGradient>
<linearGradient id="paint7_linear" x1="19.3299" y1="232" x2="225.47" y2="232" gradientUnits="userSpaceOnUse">
<stop stop-color="#A5ADBA"/>
<stop offset="0.5" stop-color="#A7AFBB"/>
<stop offset="0.68" stop-color="#AEB5C0"/>
<stop offset="0.81" stop-color="#B9BFC9"/>
<stop offset="0.91" stop-color="#CACED6"/>
<stop offset="1" stop-color="#DFE1E5"/>
</linearGradient>
<linearGradient id="paint8_linear" x1="-257415" y1="235815" x2="-229296" y2="207696" gradientUnits="userSpaceOnUse">
<stop stop-color="#A5ADBA"/>
<stop offset="0.5" stop-color="#A7AFBB"/>
<stop offset="0.68" stop-color="#AEB5C0"/>
<stop offset="0.81" stop-color="#B9BFC9"/>
<stop offset="0.91" stop-color="#CACED6"/>
<stop offset="1" stop-color="#DFE1E5"/>
</linearGradient>
<linearGradient id="paint9_linear" x1="145.05" y1="229.51" x2="166.1" y2="208.46" gradientUnits="userSpaceOnUse">
<stop stop-color="#0065FF"/>
<stop offset="0.17" stop-color="#1272FF"/>
<stop offset="0.51" stop-color="#3288FF"/>
<stop offset="0.8" stop-color="#4595FF"/>
<stop offset="1" stop-color="#4C9AFF"/>
</linearGradient>
<linearGradient id="paint10_linear" x1="335.88" y1="2114.76" x2="511.044" y2="2114.76" gradientUnits="userSpaceOnUse">
<stop stop-color="white"/>
<stop offset="0.02" stop-color="#FEFEFE" stop-opacity="0.97"/>
<stop offset="0.19" stop-color="#FAFAFB" stop-opacity="0.81"/>
<stop offset="0.33" stop-color="#F7F7F9" stop-opacity="0.7"/>
<stop offset="0.46" stop-color="#F5F6F8" stop-opacity="0.63"/>
<stop offset="0.54" stop-color="#F4F5F7" stop-opacity="0.6"/>
<stop offset="0.62" stop-color="#F4F5F7" stop-opacity="0.62"/>
<stop offset="0.71" stop-color="#F6F7F8" stop-opacity="0.67"/>
<stop offset="0.81" stop-color="#F8F9FA" stop-opacity="0.75"/>
<stop offset="0.91" stop-color="#FBFCFC" stop-opacity="0.87"/>
<stop offset="1" stop-color="white"/>
</linearGradient>
<linearGradient id="paint11_linear" x1="822.965" y1="2994.69" x2="1355.19" y2="2994.69" gradientUnits="userSpaceOnUse">
<stop stop-color="white"/>
<stop offset="0.02" stop-color="#FEFEFE" stop-opacity="0.97"/>
<stop offset="0.19" stop-color="#FAFAFB" stop-opacity="0.81"/>
<stop offset="0.33" stop-color="#F7F7F9" stop-opacity="0.7"/>
<stop offset="0.46" stop-color="#F5F6F8" stop-opacity="0.63"/>
<stop offset="0.54" stop-color="#F4F5F7" stop-opacity="0.6"/>
<stop offset="0.62" stop-color="#F4F5F7" stop-opacity="0.62"/>
<stop offset="0.71" stop-color="#F6F7F8" stop-opacity="0.67"/>
<stop offset="0.81" stop-color="#F8F9FA" stop-opacity="0.75"/>
<stop offset="0.91" stop-color="#FBFCFC" stop-opacity="0.87"/>
<stop offset="1" stop-color="white"/>
</linearGradient>
<clipPath id="clip0">
<rect width="225.5" height="242.5" fill="white"/>
</clipPath>
</defs>
</svg>
