<svg width="167" height="180" viewBox="0 0 167 180" fill="none" xmlns="http://www.w3.org/2000/svg">
<g clip-path="url(#clip0)">
<rect width="166.108" height="180" fill="white" fill-opacity="0.01"/>
<path d="M101.463 155.47C101.602 155.567 102.138 155.914 102.679 155.74C102.937 155.655 103.107 155.482 103.335 155.242C103.636 154.93 103.825 154.617 103.937 154.401L105.056 154.648C105.141 154.667 105.238 154.636 105.284 154.559C105.357 154.443 105.307 154.297 105.188 154.247L104.142 153.826C104.061 153.795 103.972 153.791 103.891 153.822L102.883 154.177L101.455 154.71L101.463 155.47Z" fill="#72594B"/>
<path d="M104.746 154.432L105.275 154.679C105.371 154.725 105.426 154.833 105.399 154.937C105.371 155.053 105.256 155.13 105.136 155.107L103.766 154.853L102.963 155.254L103.075 154.606L103.912 154.22L104.746 154.432Z" fill="#72594B"/>
<path d="M105.268 155.497C105.225 155.601 105.109 155.652 105.005 155.617C104.739 155.497 104.469 155.374 104.202 155.254C103.801 155.239 103.399 155.219 102.998 155.204L103.098 154.775L104.341 154.779L105.171 155.219C105.268 155.273 105.31 155.393 105.268 155.497Z" fill="#72594B"/>
<path d="M104.572 155.972C104.514 156.034 104.422 156.038 104.356 155.987L103.781 155.54C103.557 155.486 103.337 155.432 103.113 155.378C103.152 155.266 103.194 155.15 103.233 155.038C103.522 155.103 103.816 155.173 104.105 155.239L104.572 155.756C104.63 155.818 104.63 155.914 104.572 155.972Z" fill="#72594B"/>
<path opacity="0.7" d="M148.793 23.0862L67.6035 26.3054V153.899L148.793 157.122V49.7197V23.0862Z" fill="url(#paint0_linear)"/>
<g opacity="0.6">
<path opacity="0.6" d="M166.107 50.623H136.799V51.8813H166.107V50.623Z" fill="url(#paint1_linear)"/>
</g>
<g opacity="0.6">
<path opacity="0.6" d="M166.107 53.9734H136.799V55.2317H166.107V53.9734Z" fill="url(#paint2_linear)"/>
</g>
<g opacity="0.6">
<path opacity="0.6" d="M159.063 57.3199H136.799V58.5782H159.063V57.3199Z" fill="url(#paint3_linear)"/>
</g>
<g opacity="0.6">
<path opacity="0.6" d="M92.3221 0H63.0137V1.25834H92.3221V0Z" fill="url(#paint4_linear)"/>
</g>
<g opacity="0.6">
<path opacity="0.6" d="M92.3221 3.3504H63.0137V4.60874H92.3221V3.3504Z" fill="url(#paint5_linear)"/>
</g>
<g opacity="0.6">
<path opacity="0.6" d="M85.2777 6.69696H63.0137V7.9553H85.2777V6.69696Z" fill="url(#paint6_linear)"/>
</g>
<path opacity="0.7" d="M155.119 29.2544L73.9297 25.5296V153.123L155.119 149.398V53.1281V29.2544Z" fill="url(#paint7_linear)"/>
<path d="M156.501 121.951L132.723 116.524C132.268 116.419 131.975 115.933 132.071 115.435L137.112 89.5156C137.209 89.0177 137.656 88.7011 138.112 88.8054L161.889 94.2324C162.345 94.3366 162.638 94.823 162.541 95.3209L157.5 121.24C157.404 121.734 156.956 122.055 156.501 121.951Z" fill="url(#paint8_linear)"/>
<path d="M134.568 114.435L139.023 91.5228L160.044 96.3168L155.59 119.233L134.568 114.435Z" fill="white"/>
<path d="M137.969 109.367L143.994 105.083L147.912 111.637L137.969 109.367Z" fill="#99C1FF"/>
<path d="M141.455 110.162L149.279 104.6L154.367 113.107L141.455 110.162Z" fill="#CCE0FF"/>
<path d="M146.527 99.2608C146.542 98.2164 145.777 97.3583 144.817 97.3443C143.858 97.3303 143.068 98.1657 143.053 99.2101C143.038 100.255 143.803 101.113 144.762 101.127C145.721 101.141 146.511 100.305 146.527 99.2608Z" fill="#99C1FF"/>
<path d="M51.8382 55.1777L31.9558 62.9168C31.5736 63.0635 31.1259 62.8551 30.9522 62.4498L21.8813 41.2047C21.7076 40.7956 21.8736 40.3478 22.2558 40.1973L42.1382 32.4581C42.5204 32.3115 42.9681 32.5199 43.1418 32.9252L52.2127 54.1702C52.3864 54.5794 52.2204 55.031 51.8382 55.1777Z" fill="url(#paint9_linear)"/>
<path d="M32.269 60.5005L24.248 41.7219L41.8262 34.8783L49.8471 53.6607L32.269 60.5005Z" fill="#FFFAE5"/>
<path d="M39.6838 49.4264H34.9824V54.1278H39.6838V49.4264Z" fill="#FFE380"/>
<path d="M38.9694 40.3556L37.3945 45.6861L43.3697 43.6481L38.9694 40.3556Z" fill="#FFE380"/>
<path d="M33.1367 47.2911C34.0722 46.3335 34.0197 44.765 33.0194 43.7878C32.0191 42.8106 30.4498 42.7946 29.5142 43.7523C28.5787 44.7099 28.6312 46.2784 29.6315 47.2556C30.6318 48.2329 32.2011 48.2488 33.1367 47.2911Z" fill="#FFE380"/>
<path opacity="0.7" d="M140.285 14.22L55.6328 25.5296V153.123L140.285 164.433V44.0688V14.22Z" fill="url(#paint10_linear)"/>
<path d="M105.597 12.0044L47.4043 25.5295V153.123L132.056 172.454V38.9582L105.597 12.0044Z" fill="url(#paint11_linear)"/>
<path d="M88.8727 101.913L88.8145 103.367L123.387 104.752L123.445 103.297L88.8727 101.913Z" fill="#FFC400"/>
<path d="M53.4645 100.494L53.4062 101.948L88.8159 103.366L88.8741 101.912L53.4645 100.494Z" fill="#B2D4FF"/>
<path d="M53.4712 104.469L53.3926 105.922L123.372 109.707L123.451 108.254L53.4712 104.469Z" fill="#FFC400"/>
<path d="M79.7512 110.22L79.6523 111.672L123.366 114.647L123.464 113.195L79.7512 110.22Z" fill="#B2D4FF"/>
<path d="M53.4915 108.443L53.3926 109.895L79.6644 111.685L79.7634 110.233L53.4915 108.443Z" fill="#FFC400"/>
<path d="M53.4922 112.418L53.373 113.869L105.882 118.184L106.001 116.733L53.4922 112.418Z" fill="#B2D4FF"/>
<path opacity="0.2" d="M47.4043 102.686L67.6149 107.669C68.9543 108.001 70.3747 107.804 71.5752 107.121C72.7756 106.437 74.1922 106.244 75.5355 106.573L76.0681 106.704L76.1685 106.291L78.2258 106.796C78.4999 106.866 78.7585 106.634 78.7199 106.353L78.5655 105.16C78.5423 104.994 78.4227 104.859 78.2606 104.82L76.6239 104.419L76.7089 104.079L75.9871 103.902C74.7596 103.6 73.6788 102.875 72.93 101.856L72.8374 101.732C72.0885 100.713 71.0078 99.9914 69.7803 99.6865L50.6582 94.9735L48.0836 94.3366C48.0836 94.3366 48.0836 94.3366 48.0836 94.3405L47.4043 94.1745V102.686Z" fill="#6C798F"/>
<path d="M84.8534 31.0261L53.4375 37.0322V32.0992L84.8534 25.545V31.0261Z" fill="#FFC400"/>
<path d="M94.7561 36.9116L52.7832 43.6804L53.0149 45.1169L94.9877 38.3482L94.7561 36.9116Z" fill="#B2D4FF"/>
<path d="M94.7755 41.4755L52.7969 47.6446L53.0085 49.0843L94.9871 42.9152L94.7755 41.4755Z" fill="#B2D4FF"/>
<path d="M84.9326 47.3353L52.8027 51.6104L52.9947 53.053L85.1245 48.7779L84.9326 47.3353Z" fill="#B2D4FF"/>
<path d="M68.194 84.8721V94.7226L53.4336 94.4833V85.1191L68.194 84.8721Z" fill="#DEEBFF" stroke="#B2D4FF" stroke-width="3.1142" stroke-miterlimit="10"/>
<path d="M68.194 75.0215V84.8721L53.4336 85.1191V75.7588L68.194 75.0215Z" fill="#DEEBFF" stroke="#B2D4FF" stroke-width="3.1142" stroke-miterlimit="10"/>
<path d="M68.194 65.171V75.0216L53.4336 75.7588V66.3985L68.194 65.171Z" fill="#DEEBFF" stroke="#B2D4FF" stroke-width="3.1142" stroke-miterlimit="10"/>
<path d="M68.194 55.3243V65.171L53.4336 66.3985V57.0381L68.194 55.3243Z" fill="#DEEBFF" stroke="#B2D4FF" stroke-width="3.1142" stroke-miterlimit="10"/>
<path d="M84.5749 53.4214V63.8123L68.1934 65.171V55.3243L84.5749 53.4214Z" fill="#DEEBFF" stroke="#B2D4FF" stroke-width="3.1142" stroke-miterlimit="10"/>
<path d="M102.868 51.2985V62.2954L84.5762 63.8124V53.4214L102.868 51.2985Z" fill="#DEEBFF" stroke="#B2D4FF" stroke-width="3.1142" stroke-miterlimit="10"/>
<path d="M123.417 48.9091V60.5893L102.867 62.2954V51.2984L123.417 48.9091Z" fill="#DEEBFF" stroke="#B2D4FF" stroke-width="3.1142" stroke-miterlimit="10"/>
<path d="M123.417 60.5893V95.6182L68.1934 94.7226V65.171L123.417 60.5893Z" stroke="#B2D4FF" stroke-width="3.1142" stroke-miterlimit="10"/>
<path d="M123.417 83.938L102.867 84.2854L84.5749 84.5942L68.1934 84.8721" stroke="#B2D4FF" stroke-width="3.1142" stroke-miterlimit="10"/>
<path d="M123.417 72.2617L102.867 73.2885L84.5749 74.2033L68.1934 75.0216" stroke="#B2D4FF" stroke-width="3.1142" stroke-miterlimit="10"/>
<path d="M102.867 95.2823V84.2854V73.2884V62.2954" stroke="#B2D4FF" stroke-width="3.1142" stroke-miterlimit="10"/>
<path d="M84.5762 94.9851V84.5942V74.2033V63.8123" stroke="#B2D4FF" stroke-width="3.1142" stroke-miterlimit="10"/>
<path opacity="0.2" d="M105.596 12.0044L113.744 51.7771L132.056 38.9582L105.596 12.0044Z" fill="url(#paint12_linear)"/>
<path d="M60.3878 15.4358L52.9999 17.084C52.0967 17.2847 51.3672 18.3424 51.3672 19.4424V26.5795C51.3672 27.6795 52.1006 28.4091 52.9999 28.2083L54.8257 27.803L56.196 29.845C56.4391 30.2078 56.9486 30.0958 57.1918 29.6211L58.5621 26.9693L60.3878 26.564C61.2911 26.3633 62.0206 25.3057 62.0206 24.2056V17.0647C62.0206 15.9646 61.2911 15.2351 60.3878 15.4358Z" fill="url(#paint13_linear)"/>
<path d="M59.6515 15.6018L52.2636 17.25C51.3604 17.4507 50.6309 18.5084 50.6309 19.6084V26.7454C50.6309 27.8455 51.3642 28.575 52.2636 28.3743L54.0894 27.969L55.4596 30.0109C55.7028 30.3738 56.2123 30.2618 56.4555 29.7871L57.8258 27.1353L59.6515 26.73C60.5547 26.5293 61.2843 25.4717 61.2843 24.3716V17.2269C61.2881 16.1268 60.5547 15.3972 59.6515 15.6018Z" fill="url(#paint14_linear)"/>
<path d="M118.268 86.5859L110.683 87.0954C109.757 87.1572 109.004 88.099 109.004 89.1991V96.3361C109.004 97.4361 109.757 98.2776 110.683 98.2159L112.555 98.0885L113.964 100.339C114.215 100.74 114.736 100.706 114.987 100.269L116.396 97.8299L118.268 97.7025C119.194 97.6407 119.947 96.6989 119.947 95.5988V88.4618C119.947 87.3656 119.194 86.5241 118.268 86.5859Z" fill="url(#paint15_linear)"/>
<path d="M117.516 86.6361L109.931 87.1456C109.005 87.2073 108.252 88.1492 108.252 89.2492V96.3862C108.252 97.4863 109.005 98.3278 109.931 98.266L111.803 98.1386L113.212 100.389C113.463 100.79 113.984 100.756 114.235 100.32L115.644 97.88L117.516 97.7527C118.442 97.6909 119.195 96.7491 119.195 95.649V88.512C119.191 87.4158 118.442 86.5743 117.516 86.6361Z" fill="url(#paint16_linear)"/>
<path opacity="0.2" d="M105.705 160.187L127.548 164.406V134.233L105.705 132.04V160.187Z" fill="#6C798F"/>
<path d="M53.9431 144.604L71.583 148.009C71.969 148.082 72.3241 147.789 72.3241 147.395V120.727C72.3241 120.407 72.0809 120.136 71.7605 120.106L54.1207 118.338C53.754 118.299 53.4336 118.589 53.4336 118.959V143.991C53.4375 144.292 53.6498 144.547 53.9431 144.604ZM55.0509 120.31L70.7106 121.881V138.938V145.944L65.2025 144.882L55.5643 143.022L55.0509 142.922V120.31Z" fill="#FAFBFC"/>
<path d="M74.5388 148.58L95.1354 152.556C95.5214 152.629 95.8765 152.336 95.8765 151.942V123.089C95.8765 122.769 95.6333 122.499 95.313 122.468L74.7164 120.403C74.3497 120.364 74.0293 120.654 74.0293 121.024V147.966C74.0332 148.268 74.2455 148.522 74.5388 148.58ZM75.6466 133.611V122.379L94.2631 124.247V136.499V150.495L77.6654 147.291L75.6466 146.901V133.611Z" fill="#FAFBFC"/>
<path d="M61.5895 136.518L66.9123 143.033L70.7105 138.938V121.881L55.0508 120.31V142.922L55.5642 143.022L61.5895 136.518Z" fill="#FAFBFC"/>
<path d="M61.5895 136.518L66.9123 143.033L70.7105 138.938V121.881L55.0508 120.31V142.922L55.5642 143.022L61.5895 136.518Z" fill="url(#paint17_linear)"/>
<path d="M82.8993 141.64L91.175 132.712L94.2629 136.491V124.243L75.6465 122.375V133.611L76.017 133.21L82.8993 141.64Z" fill="#FAFBFC"/>
<path d="M82.8993 141.64L91.175 132.712L94.2629 136.491V124.243L75.6465 122.375V133.611L76.017 133.21L82.8993 141.64Z" fill="url(#paint18_linear)"/>
<path d="M55.5645 143.022L65.2027 144.882L55.5645 143.022Z" fill="#253858"/>
<path d="M66.9126 143.033L61.5898 136.518L55.5645 143.022L65.2027 144.882L66.9126 143.033Z" fill="#253858"/>
<path d="M77.6652 147.287L75.6465 146.897L77.6652 147.287Z" fill="#42526E"/>
<path d="M82.8993 141.64L76.017 133.21L75.6465 133.611V146.897L77.6652 147.287L82.8993 141.64Z" fill="#42526E"/>
<path d="M65.2012 144.882L70.7093 145.944L65.2012 144.882Z" fill="#42526E"/>
<path d="M65.2012 144.882L70.7093 145.944V138.938L66.9111 143.033L65.2012 144.882Z" fill="#42526E"/>
<path d="M77.666 147.287L94.2637 150.491L77.666 147.287Z" fill="#5E6C84"/>
<path d="M82.9001 141.64L77.666 147.287L94.2637 150.491V136.491L91.1758 132.712L82.9001 141.64Z" fill="#5E6C84"/>
<path d="M98.0313 146.052C98.1819 146.025 98.7377 145.905 98.9654 145.454C99.0735 145.238 99.0696 145.021 99.0619 144.724C99.0542 144.338 98.9731 144.025 98.9075 143.817L99.7683 143.261C99.8339 143.219 99.8725 143.138 99.8571 143.061C99.83 142.941 99.7065 142.883 99.5984 142.925L98.6759 143.323C98.6064 143.354 98.5485 143.408 98.5177 143.477L98.1085 144.338L97.5488 145.573L98.0313 146.052Z" fill="#E4B69D"/>
<path d="M99.436 143.327L99.9223 143.149C100.011 143.115 100.115 143.153 100.166 143.234C100.223 143.327 100.196 143.446 100.108 143.504L99.0848 144.211L98.8339 144.971L98.498 144.493L98.7798 143.724L99.436 143.327Z" fill="#E4B69D"/>
<path d="M100.435 143.667C100.474 143.759 100.435 143.863 100.346 143.91C100.103 144.002 99.8562 144.095 99.6131 144.188C99.3506 144.431 99.0881 144.674 98.8256 144.917L98.6172 144.585L99.4007 143.805L100.2 143.555C100.296 143.528 100.4 143.574 100.435 143.667Z" fill="#E4B69D"/>
<path d="M100.303 144.404C100.307 144.477 100.253 144.539 100.18 144.55L99.535 144.632C99.3613 144.736 99.1876 144.844 99.014 144.952C98.9676 144.855 98.9213 144.759 98.875 144.662C99.0989 144.52 99.3266 144.381 99.5505 144.238L100.172 144.269C100.241 144.269 100.299 144.33 100.303 144.404Z" fill="#72594B"/>
<path d="M88.0488 153.799C89.5542 153.239 91.1599 152.706 92.8621 152.224C93.4643 152.054 94.0549 151.896 94.6416 151.749C94.9619 151.027 95.2321 150.445 95.4136 150.051C95.9462 148.908 96.2357 148.356 96.9035 146.959C97.193 146.349 97.4246 145.855 97.5712 145.539C97.8569 145.678 98.1425 145.816 98.4281 145.955C98.2236 147.33 97.8183 149.047 96.9961 150.892C96.6217 151.738 96.2126 152.486 95.8111 153.139C95.263 153.529 93.5878 154.698 92.0284 155.285C91.7428 155.393 91.3027 155.54 90.7353 155.574C90.2528 155.605 89.643 155.64 89.064 155.285C88.238 154.775 88.072 153.934 88.0488 153.799Z" fill="url(#paint19_linear)"/>
<path d="M102.179 125.672L97.2118 153.772C97.123 154.274 97.4511 154.756 97.9529 154.853L120.811 159.342C121.325 159.442 121.823 159.102 121.911 158.585L127.261 128.327C127.358 127.791 126.976 127.289 126.431 127.235L103.195 124.903C102.708 124.853 102.264 125.189 102.179 125.672ZM120.514 157.35L119.727 157.196L98.9371 153.112L100.435 144.635L103.584 126.818L125.52 129.018L120.514 157.35Z" fill="#FAFBFC"/>
<path d="M100.439 144.639L104.701 151.159L111.695 144.909L119.728 157.199L120.515 157.354L125.525 129.026L103.589 126.826L100.439 144.639ZM114.814 132.658C116.126 132.658 116.972 133.87 116.709 135.364C116.447 136.858 115.169 138.07 113.857 138.07C112.544 138.07 111.699 136.858 111.961 135.364C112.224 133.87 113.501 132.658 114.814 132.658Z" fill="#FAFBFC"/>
<path d="M100.439 144.639L104.701 151.159L111.695 144.909L119.728 157.199L120.515 157.354L125.525 129.026L103.589 126.826L100.439 144.639ZM114.814 132.658C116.126 132.658 116.972 133.87 116.709 135.364C116.447 136.858 115.169 138.07 113.857 138.07C112.544 138.07 111.699 136.858 111.961 135.364C112.224 133.87 113.501 132.658 114.814 132.658Z" fill="url(#paint20_linear)"/>
<path d="M119.727 157.196L98.9414 153.116L119.727 157.196Z" fill="#5E6C84"/>
<path d="M104.7 151.155L100.439 144.639L98.9414 153.116L119.727 157.196L111.695 144.906L104.7 151.155Z" fill="#5E6C84"/>
<path d="M113.856 138.073C115.169 138.073 116.442 136.861 116.709 135.368C116.971 133.874 116.126 132.662 114.813 132.662C113.501 132.662 112.227 133.874 111.961 135.368C111.695 136.861 112.544 138.073 113.856 138.073Z" fill="#FAFBFC"/>
<path d="M113.856 138.073C115.169 138.073 116.442 136.861 116.709 135.368C116.971 133.874 116.126 132.662 114.813 132.662C113.501 132.662 112.227 133.874 111.961 135.368C111.695 136.861 112.544 138.073 113.856 138.073Z" fill="url(#paint21_linear)"/>
<path d="M113.856 138.073C115.169 138.073 116.442 136.861 116.709 135.368C116.971 133.874 116.126 132.662 114.813 132.662C113.501 132.662 112.227 133.874 111.961 135.368C111.695 136.861 112.544 138.073 113.856 138.073Z" fill="url(#paint22_linear)"/>
<path opacity="0.2" d="M31.4314 167.517C48.7905 167.517 62.8628 166.34 62.8628 164.888C62.8628 163.437 48.7905 162.26 31.4314 162.26C14.0723 162.26 0 163.437 0 164.888C0 166.34 14.0723 167.517 31.4314 167.517Z" fill="url(#paint23_linear)"/>
<path d="M48.6252 164.417C48.3473 164.417 48.0848 164.248 47.9806 163.974L33.1546 124.892C33.0195 124.537 33.197 124.139 33.556 124.004C33.9111 123.869 34.3087 124.047 34.4438 124.402L49.2698 163.483C49.4049 163.838 49.2273 164.236 48.8683 164.371C48.7911 164.402 48.7062 164.417 48.6252 164.417Z" fill="#2684FF"/>
<path d="M61.5138 164.417C61.2359 164.417 60.9735 164.248 60.8692 163.974L46.0433 124.892C45.9082 124.537 46.0857 124.139 46.4447 124.004C46.7998 123.869 47.1974 124.047 47.3325 124.402L62.1585 163.483C62.2935 163.838 62.116 164.236 61.757 164.371C61.6798 164.402 61.5949 164.417 61.5138 164.417Z" fill="#2684FF"/>
<path d="M48.589 130.35H35.7007C35.3225 130.35 35.0137 130.041 35.0137 129.663C35.0137 129.284 35.3225 128.976 35.7007 128.976H48.589C48.9673 128.976 49.2761 129.284 49.2761 129.663C49.2761 130.041 48.9673 130.35 48.589 130.35Z" fill="#2684FF"/>
<path d="M50.7277 135.989H37.8394C37.4611 135.989 37.1523 135.68 37.1523 135.302C37.1523 134.924 37.4611 134.615 37.8394 134.615H50.7277C51.106 134.615 51.4148 134.924 51.4148 135.302C51.4148 135.68 51.1098 135.989 50.7277 135.989Z" fill="#2684FF"/>
<path d="M52.8664 141.628H39.9781C39.5998 141.628 39.291 141.32 39.291 140.941C39.291 140.563 39.5998 140.254 39.9781 140.254H52.8664C53.2447 140.254 53.5534 140.563 53.5534 140.941C53.5534 141.32 53.2485 141.628 52.8664 141.628Z" fill="#2684FF"/>
<path d="M55.009 147.268H42.1207C41.7424 147.268 41.4336 146.959 41.4336 146.581C41.4336 146.203 41.7424 145.894 42.1207 145.894H55.009C55.3872 145.894 55.696 146.203 55.696 146.581C55.696 146.959 55.3872 147.268 55.009 147.268Z" fill="#2684FF"/>
<path d="M57.1457 152.907H44.2574C43.8791 152.907 43.5703 152.598 43.5703 152.22C43.5703 151.842 43.8791 151.533 44.2574 151.533H57.1457C57.524 151.533 57.8327 151.842 57.8327 152.22C57.8327 152.598 57.524 152.907 57.1457 152.907Z" fill="#2684FF"/>
<path d="M59.2844 158.543H46.3961C46.0178 158.543 45.709 158.234 45.709 157.856C45.709 157.477 46.0178 157.169 46.3961 157.169H59.2844C59.6626 157.169 59.9714 157.477 59.9714 157.856C59.9714 158.234 59.6665 158.543 59.2844 158.543Z" fill="#2684FF"/>
<path d="M27.4222 164.417C27.3411 164.417 27.2601 164.402 27.179 164.371C26.8239 164.236 26.6463 163.838 26.7776 163.483L41.6035 124.402C41.7386 124.047 42.1362 123.869 42.4913 124.004C42.8464 124.139 43.024 124.537 42.8928 124.892L28.0668 163.974C27.9587 164.248 27.7001 164.417 27.4222 164.417Z" fill="#4C9AFF"/>
<path d="M14.5335 164.417C14.4524 164.417 14.3714 164.402 14.2903 164.371C13.9352 164.236 13.7577 163.838 13.8889 163.483L28.7149 124.402C28.85 124.047 29.2475 123.869 29.6027 124.004C29.9578 124.139 30.1353 124.537 30.0041 124.892L15.1742 163.974C15.07 164.248 14.8114 164.417 14.5335 164.417Z" fill="#4C9AFF"/>
<path d="M47.7321 125.193H28.5521C27.7145 125.193 27.0352 124.514 27.0352 123.676C27.0352 122.838 27.7145 122.159 28.5521 122.159H47.7321C48.5697 122.159 49.249 122.838 49.249 123.676C49.249 124.514 48.5697 125.193 47.7321 125.193Z" fill="#B2D4FF"/>
<path d="M47.732 125.193H44.0072C43.1696 125.193 42.4902 124.514 42.4902 123.676C42.4902 122.838 43.1696 122.159 44.0072 122.159H47.732C48.5696 122.159 49.249 122.838 49.249 123.676C49.249 124.514 48.5696 125.193 47.732 125.193Z" fill="#4C9AFF"/>
<path d="M40.3449 130.35H27.4566C27.0783 130.35 26.7695 130.041 26.7695 129.663C26.7695 129.284 27.0783 128.976 27.4566 128.976H40.3449C40.7232 128.976 41.032 129.284 41.032 129.663C41.032 130.041 40.7232 130.35 40.3449 130.35Z" fill="#4C9AFF"/>
<path d="M38.2062 135.989H25.3179C24.9397 135.989 24.6309 135.68 24.6309 135.302C24.6309 134.924 24.9397 134.615 25.3179 134.615H38.2062C38.5845 134.615 38.8933 134.924 38.8933 135.302C38.8933 135.68 38.5845 135.989 38.2062 135.989Z" fill="#4C9AFF"/>
<path d="M36.0695 141.628H23.1773C22.799 141.628 22.4902 141.32 22.4902 140.941C22.4902 140.563 22.799 140.254 23.1773 140.254H36.0656C36.4439 140.254 36.7527 140.563 36.7527 140.941C36.7527 141.32 36.4477 141.628 36.0695 141.628Z" fill="#4C9AFF"/>
<path d="M33.9269 147.268H21.0386C20.6604 147.268 20.3516 146.959 20.3516 146.581C20.3516 146.203 20.6604 145.894 21.0386 145.894H33.9269C34.3052 145.894 34.614 146.203 34.614 146.581C34.614 146.959 34.3091 147.268 33.9269 147.268Z" fill="#4C9AFF"/>
<path d="M31.7883 152.907H18.9C18.5217 152.907 18.2129 152.598 18.2129 152.22C18.2129 151.842 18.5217 151.533 18.9 151.533H31.7883C32.1665 151.533 32.4753 151.842 32.4753 152.22C32.4753 152.598 32.1704 152.907 31.7883 152.907Z" fill="#4C9AFF"/>
<path d="M29.6496 158.543H16.7613C16.383 158.543 16.0742 158.234 16.0742 157.856C16.0742 157.477 16.383 157.169 16.7613 157.169H29.6496C30.0279 157.169 30.3366 157.477 30.3366 157.856C30.3366 158.234 30.0279 158.543 29.6496 158.543Z" fill="#4C9AFF"/>
<path d="M45.123 89.1605C47.0916 89.5503 49.0602 89.944 51.0287 90.3339C53.3099 90.5384 55.5912 90.7392 57.8724 90.9437C57.8685 91.2873 57.8608 91.6308 57.8569 91.9743C55.8922 92.1442 53.6882 92.2291 51.2873 92.1596C48.6472 92.0824 46.2501 91.8277 44.1465 91.4957C44.4707 90.716 44.795 89.9363 45.123 89.1605Z" fill="#00C7E5"/>
<path d="M75.7979 105.484L76.2379 105.812L77.8552 103.651L77.2608 103.207C76.2495 102.45 75.5354 101.362 75.242 100.13L75.2073 99.9799C74.9139 98.7485 74.1999 97.6639 73.1886 96.9035L34.2573 67.7803C32.4316 66.4139 29.8416 66.7883 28.4752 68.6141C27.1087 70.4398 27.4832 73.0298 29.3089 74.3963L68.078 103.404C69.1858 104.23 70.5638 104.604 71.9379 104.446C73.3121 104.284 74.6939 104.658 75.7979 105.484Z" fill="#4C9AFF"/>
<path d="M53.4921 92.4877C52.7973 90.3725 52.0369 87.4969 51.4502 85.2928C50.8442 83 50.3154 81.0585 49.8367 79.4373L46.8105 77.1715C47.6829 79.6033 48.6633 83.2934 49.3388 85.8525C49.7866 87.5393 50.1803 89.0099 50.5392 90.2799L53.4921 92.4877Z" fill="#0065FF"/>
<path d="M35.5938 68.7762C39.1256 80.2518 41.0401 82.5137 42.8929 82.2435C44.5526 82.0003 44.9888 79.777 45.452 77.4263C45.5138 77.1059 45.591 76.7122 45.6797 76.3223L43.7768 74.898C43.5992 75.5311 43.4564 76.249 43.3059 77.0017C43.1399 77.8509 42.8465 79.337 42.5416 79.9391C42.0514 79.4721 40.8239 77.6965 38.6122 71.0342L35.5938 68.7762Z" fill="#0065FF"/>
<path d="M55.2935 83.5173C55.1005 88.678 54.7994 91.6038 54.5215 93.2559L56.4514 94.6995C56.8683 92.9355 57.2003 89.9942 57.4203 85.1076L55.2935 83.5173Z" fill="#0065FF"/>
<path d="M78.8197 106.526L79.1401 105.368C79.1864 105.21 79.1247 105.036 78.9934 104.936L77.6463 103.929L76.4922 105.469L78.1906 106.739C78.4183 106.912 78.7425 106.8 78.8197 106.526Z" fill="#0065FF"/>
<path d="M32.61 118.851C32.3823 118.924 32.0735 119.052 31.7492 119.276C31.4211 119.496 31.1896 119.735 31.0352 119.92C31.0853 120.059 31.1432 120.202 31.2089 120.345C31.5717 121.132 32.0658 121.723 32.5174 122.144C33.0886 122.147 33.6599 122.151 34.2312 122.155C34.2389 122.105 34.2389 122.055 34.2312 122.016C34.1578 121.576 33.382 121.41 33.3357 121.402C33.2546 121.229 33.1272 120.901 33.1311 120.468C33.1311 120.044 33.2585 119.719 33.3395 119.55C33.0964 119.318 32.8532 119.083 32.61 118.851Z" fill="#344563"/>
<path d="M39.3031 94.8539C41.1748 94.8539 42.6921 93.3366 42.6921 91.4649C42.6921 89.5932 41.1748 88.0758 39.3031 88.0758C37.4314 88.0758 35.9141 89.5932 35.9141 91.4649C35.9141 93.3366 37.4314 94.8539 39.3031 94.8539Z" fill="#253858"/>
<path d="M40.3103 96.4056C41.4528 95.4483 44.1007 95.8961 44.8997 97.2586C45.7335 98.6791 44.5292 101.041 43.0933 103.817C42.6957 104.581 42.0897 105.7 39.3569 110.062C37.8399 112.482 37.5273 112.93 36.57 114.489C35.1959 116.724 34.1344 118.565 33.4628 119.754C32.9726 119.523 32.4824 119.295 31.9883 119.063C32.7024 117.392 33.2273 116.014 33.5709 115.076C34.2965 113.092 34.5937 112.023 35.3734 110.328C35.8868 109.213 36.3732 108.337 36.6935 107.785C36.9985 106.881 37.3034 105.963 37.6006 105.033C38.1796 103.222 38.72 101.439 39.2179 99.6942C39.1832 99.3044 39.1793 98.6521 39.4302 97.911C39.5229 97.6253 39.7853 96.8417 40.3103 96.4056Z" fill="#00B8D9"/>
<path d="M43.1434 120.055C43.0777 120.295 43.016 120.549 42.962 120.823C42.8925 121.19 42.8462 121.538 42.823 121.854C42.8114 122.016 42.9388 122.155 43.1009 122.155C44.282 122.151 45.4632 122.144 46.6443 122.14C46.6559 121.997 46.6443 121.808 46.5285 121.669C46.3857 121.503 46.1734 121.514 45.9225 121.472C45.9225 121.472 45.1891 121.352 44.6063 120.781C44.4635 120.642 44.2627 120.403 44.1122 120.021C43.788 120.032 43.4637 120.044 43.1434 120.055Z" fill="#344563"/>
<path d="M42.4446 94.9619C42.5565 94.9311 43.7763 94.63 44.7528 95.3016C45.6213 95.896 46.0266 97.0617 45.9687 101.427C45.9378 103.6 45.8027 105.955 45.4244 109.487C45.1388 112.142 45.0037 112.764 44.7914 115.126C44.5946 117.319 44.4981 119.117 44.4479 120.31C43.8612 120.345 43.2706 120.38 42.6839 120.41C42.2979 118.218 42.0431 116.365 41.8772 114.941C41.7035 113.478 41.634 112.59 41.7575 111.498C41.9042 110.213 42.294 108.912 42.3326 108.784C42.4176 108.506 42.5025 108.248 42.5835 108.016C42.4755 107.426 42.2979 106.507 42.0431 105.388C41.7305 103.994 41.4526 102.767 41.0048 101.227C40.2521 98.6366 39.9433 98.3664 40.1286 97.5172C40.3564 96.4866 41.1669 95.2978 42.4446 94.9619Z" fill="#00C7E5"/>
<path d="M46.1918 85.6248C46.3114 85.9761 46.5585 86.694 46.2574 87.5432C46.1725 87.7825 45.8907 88.4696 45.2499 88.8208C45.1496 88.8749 44.9257 88.9984 44.6015 89.037C44.4973 89.0486 44.1576 89.091 43.9762 88.9907C43.2775 88.6124 44.0688 85.6364 45.0763 84.8914C45.331 84.7061 45.5047 84.7254 45.5472 84.7332C45.9061 84.7988 46.0837 85.3199 46.1918 85.6248Z" fill="#253858"/>
<path d="M39.3027 98.1734C39.6771 98.4629 41.1671 99.5591 43.3093 99.4317C45.1274 99.3237 46.3432 98.4011 46.7485 98.0653C46.5941 97.826 46.3741 97.4477 46.2004 96.9498C46.0808 96.5986 45.6446 95.209 46.1309 93.6843C46.3625 92.9548 46.5903 92.8737 46.6019 92.3102C46.6057 92.0554 46.5594 91.9396 46.2236 90.716C45.9765 89.8205 45.9688 89.7626 45.8839 89.6468C45.8029 89.5349 45.4169 89.0601 43.9848 88.9906C42.3907 88.9096 41.0165 89.4461 40.1326 89.9093C40.233 90.9901 40.3874 91.8586 40.5109 92.4684C40.7849 93.8233 41.0281 94.3984 40.7618 95.2013C40.6344 95.5834 40.5263 95.6143 40.0979 96.4249C39.7119 97.1505 39.4571 97.7642 39.3027 98.1734Z" fill="#79E2F2"/>
<path d="M46.118 86.7442C46.1025 86.7712 46.0601 86.8021 45.979 86.8677C45.9095 86.9217 45.8478 86.9603 45.8015 86.9873C45.8015 87.107 45.7976 87.2344 45.7899 87.3656C45.7744 87.6204 45.7436 87.852 45.705 88.0643C45.5274 88.1106 45.2804 88.1646 44.9793 88.1955C44.6705 88.2264 44.2034 88.2727 43.6553 88.1415C43.4315 88.0874 43.1034 88.0102 42.81 87.8056C42.2156 87.3888 41.6945 86.3852 42.0882 85.4318C42.4974 84.4436 43.8097 84.0191 44.6203 84.3742C44.7245 84.4205 45.2533 84.6521 45.4734 85.1616C45.5699 85.3816 45.5197 85.4086 45.6741 85.783C45.7127 85.8718 45.759 85.9876 45.8362 86.1343C46.0253 86.4817 46.1759 86.6245 46.118 86.7442Z" fill="#CEA28B"/>
<path d="M42.6914 87.1842C42.7879 87.3463 42.95 87.6783 42.9732 88.1299C43.0002 88.6162 42.8535 88.9829 42.7725 89.1566C43.1006 89.3728 43.4364 89.6044 43.776 89.8398C44.2624 90.1834 44.7256 90.523 45.1695 90.8627C44.9726 90.3609 44.7796 89.863 44.5828 89.3612C44.5789 89.1991 44.5866 89.0215 44.6021 88.8324C44.6252 88.5931 44.66 88.3769 44.7024 88.1878C44.0308 87.852 43.363 87.5162 42.6914 87.1842Z" fill="#CEA28B"/>
<path d="M40.1664 78.6654C40.2783 78.5727 40.6875 78.206 40.6682 77.7158C40.6566 77.4804 40.5485 77.3028 40.4019 77.0558C40.2089 76.7354 39.9927 76.5076 39.8383 76.3648L40.2976 75.4886C40.3324 75.4192 40.3285 75.3342 40.2745 75.2802C40.1973 75.1914 40.0622 75.203 39.9927 75.2918L39.406 76.0638C39.3597 76.1217 39.3404 76.195 39.3442 76.2683L39.5334 78.4955L40.1664 78.6654Z" fill="#E4B69D"/>
<path d="M40.0463 75.7009L40.3706 75.3188C40.4323 75.2493 40.5327 75.23 40.6137 75.2725C40.7064 75.3227 40.7411 75.4346 40.6948 75.5272L40.1699 76.608L40.3204 77.3684L39.807 77.1291L39.6758 76.3455L40.0463 75.7009Z" fill="#E4B69D"/>
<path d="M41.0533 75.5079C41.1267 75.5658 41.146 75.6739 41.0919 75.755C40.9298 75.9518 40.7716 76.1448 40.6095 76.3417C40.5052 76.6698 40.401 77.0017 40.2968 77.3298L39.9648 77.1484L40.2505 76.1178L40.8063 75.5272C40.8681 75.4539 40.9761 75.4462 41.0533 75.5079Z" fill="#E4B69D"/>
<path d="M41.2898 76.1911C41.3284 76.2529 41.313 76.3301 41.2551 76.3726L40.7533 76.7508C40.6568 76.9245 40.5603 77.0944 40.4676 77.2681C40.3827 77.2102 40.2978 77.1484 40.2129 77.0905C40.3364 76.8628 40.4561 76.635 40.5796 76.4112L41.1161 76.141C41.174 76.1062 41.2551 76.1294 41.2898 76.1911Z" fill="#E4B69D"/>
<path d="M39.8072 77.6193C39.7493 77.6193 39.5293 78.0014 39.4907 77.9513L38.8886 76.5733C38.823 76.4884 38.8384 76.3687 38.9195 76.3031C39.0044 76.2375 39.124 76.2529 39.1897 76.334L39.9578 77.3067C40.0234 77.3916 40.008 77.5112 39.9269 77.5768C39.8922 77.6077 39.8497 77.6193 39.8072 77.6193Z" fill="#E4B69D"/>
<path d="M44.8301 86.1729C44.6333 86.4161 44.529 86.2964 44.3399 86.5126C43.9385 86.9642 44.3438 87.5432 43.9693 87.96C43.7918 88.1607 43.6142 88.0218 43.4676 88.2148C43.2553 88.5004 43.5949 88.8208 43.4676 89.3149C43.3711 89.6854 43.0507 90.0251 42.6956 90.1216C42.2671 90.2412 42.0741 89.9324 41.7537 90.0521C41.2944 90.2258 41.4913 90.9746 41.0397 91.4224C40.4452 92.013 39.0634 92.0631 38.1602 91.3297C37.2569 90.5964 37.2106 89.3921 37.4075 88.651C37.6005 87.9137 38.1293 87.2768 38.7237 86.9294C39.3374 86.5705 39.708 86.7055 40.2986 86.2153C40.5649 85.9953 40.5919 85.9953 41.0705 85.2581C41.2906 84.9145 41.6881 84.3047 42.3134 83.9573C43.0314 83.5597 43.7648 83.6601 44.0736 83.6987C44.4596 83.7527 45.1968 83.8492 45.4477 84.3548C45.4709 84.4012 45.6368 84.7563 45.4902 85.0419C45.4438 85.1346 45.3975 85.1461 45.3087 85.2426C44.9884 85.5746 45.0849 85.8602 44.8301 86.1729Z" fill="#253858"/>
<path d="M42.6909 90.8936C42.2432 88.9366 41.7954 86.9796 41.3477 85.0226C41.0813 82.7491 40.8112 80.4756 40.5448 78.1983C40.2013 78.2137 39.8577 78.2292 39.5181 78.2446C39.4061 80.2132 39.383 82.4172 39.5219 84.8142C39.6763 87.4505 39.9967 89.8398 40.3904 91.9358C41.1547 91.5884 41.9228 91.241 42.6909 90.8936Z" fill="#79E2F2"/>
<path opacity="0.2" d="M81.8568 180C91.0554 180 98.5123 179.056 98.5123 177.892C98.5123 176.729 91.0554 175.785 81.8568 175.785C72.6581 175.785 65.2012 176.729 65.2012 177.892C65.2012 179.056 72.6581 180 81.8568 180Z" fill="url(#paint24_linear)"/>
<path d="M87.0266 153.679C88.1394 153.679 89.0415 152.777 89.0415 151.664C89.0415 150.552 88.1394 149.649 87.0266 149.649C85.9138 149.649 85.0117 150.552 85.0117 151.664C85.0117 152.777 85.9138 153.679 87.0266 153.679Z" fill="#253858"/>
<path d="M77.7559 176.881C80.3073 177.124 84.1054 177.368 86.6569 177.611C86.8653 177.599 87.811 177.518 88.39 176.765C88.776 176.267 88.8146 175.715 88.8377 175.357C88.8918 174.573 88.637 173.851 88.5019 173.477C88.4672 173.376 88.4363 173.295 88.4131 173.241C87.4674 170.875 87.0197 170.038 86.5372 168.779C85.7652 166.764 86.0547 166.845 85.5413 165.807C84.9971 164.707 84.0128 163.383 82.0983 162.179C81.8551 162.518 81.5424 163.02 81.2568 163.669C81.0407 164.159 80.7782 164.757 80.7048 165.529C80.6662 165.934 80.6701 166.479 80.9249 167.448C81.0522 167.934 81.4614 169.354 82.7159 171.319C83.152 172.002 83.7812 172.89 84.6458 173.855C83.677 173.623 82.6541 173.407 81.5772 173.218C80.7589 173.071 78.7131 172.952 77.9489 172.855C77.8832 174.195 77.8176 175.538 77.7559 176.881Z" fill="url(#paint25_linear)"/>
<path d="M82.2903 161.924C82.0008 162.275 81.6225 162.804 81.2944 163.503C80.8698 164.414 80.3371 165.56 80.6884 166.892C80.7463 167.116 80.9933 168.424 82.2015 169.034C82.5643 169.215 82.8885 169.374 83.2745 169.516C83.2745 169.516 84.0349 169.794 84.9266 169.941C86.7871 170.25 89.5662 169.899 89.7476 169.875C89.1648 170.377 88.5549 170.945 87.9373 171.589C87.1113 172.446 86.4127 173.284 85.826 174.063C87.0688 174.828 88.3117 175.592 89.5546 176.36C90.427 175.434 91.3341 174.392 92.2489 173.23C93.3104 171.879 94.2213 170.57 94.9971 169.343C95.0628 169.119 95.194 168.575 94.9856 167.961C94.6111 166.865 93.4956 166.517 93.376 166.483C92.0057 166.116 90.6354 165.749 89.2651 165.386C88.25 165.12 87.231 164.854 86.2158 164.587C85.4863 164.178 84.7104 163.7 83.9114 163.144C83.3247 162.738 82.7843 162.325 82.2903 161.924Z" fill="#FFAB00"/>
<path d="M88.9959 161.241C88.5211 161.716 88.054 162.186 87.6449 162.696C87.2666 163.171 86.8343 163.811 86.4599 164.653C85.7419 164.441 84.8812 164.12 83.9548 163.63C83.1635 163.213 82.5073 162.765 81.9785 162.356C82.4649 161.507 82.82 160.781 83.0593 160.249C83.5456 159.172 83.6653 158.693 84.1092 157.832C84.5415 156.987 84.9931 156.335 85.3289 155.899C85.3289 155.899 86.263 154.513 86.9347 153.996C86.9578 153.976 87.3979 153.641 87.3979 153.641L89.4552 155.547C89.6405 155.717 89.7717 155.933 89.8412 156.177C89.8721 156.62 89.9454 157.307 90.1616 158.126C90.37 158.929 90.5167 159.11 90.4511 159.508C90.3623 160.013 90.0496 160.187 88.9959 161.241Z" fill="url(#paint26_linear)"/>
<path d="M89.3766 156.092C89.3766 156.003 89.365 155.891 89.3342 155.764C89.2956 155.609 89.2415 155.486 89.1914 155.397C89.1836 155.057 89.2261 154.521 89.5001 153.957C89.5928 153.772 89.6931 153.614 89.7935 153.478L88.3769 152.579L87.3965 153.641L87.8906 154.227C88.2071 154.606 88.4657 155.03 88.705 155.459C88.7475 155.536 88.8015 155.613 88.8671 155.694C89.0485 155.914 89.2531 156.03 89.3766 156.092Z" fill="#CEA28B"/>
<path d="M93.0447 178.576C93.0447 178.576 92.7591 178.004 91.9717 177.707C91.2344 177.429 90.8214 177.765 89.9027 177.418C89.648 177.321 89.0381 177.09 89.0034 176.684C88.9841 176.472 89.1346 176.283 89.2504 176.171C88.6444 175.797 88.0384 175.422 87.4324 175.048C87.4324 175.048 86.9615 175.6 86.7067 176.711C86.4481 177.823 86.5485 178.912 86.5485 178.912L93.0447 178.576Z" fill="#253858"/>
<path d="M77.8943 173.882C77.655 173.797 77.3192 173.708 76.91 173.685C76.4275 173.658 76.03 173.731 75.7598 173.805C75.8871 175.098 76.0145 176.391 76.1458 177.684C76.1458 177.727 76.138 178.02 76.3696 178.232C76.5472 178.394 76.7518 178.41 76.8097 178.414C77.408 178.36 78.0062 178.302 78.6007 178.248C78.5582 178.167 78.481 178.039 78.3536 177.916C77.9445 177.518 77.5083 177.622 77.3153 177.271C77.2111 177.082 77.2343 176.87 77.2458 176.796C77.269 176.588 77.3616 176.445 77.435 176.329C77.5006 176.229 77.6125 176.074 77.7978 175.932C77.8325 175.248 77.8634 174.565 77.8943 173.882Z" fill="#253858"/>
<path d="M88.4123 152.656L90.1222 153.737C90.3577 153.884 90.6394 153.938 90.9135 153.88C91.149 153.83 91.3612 153.698 91.5156 153.513L92.1564 152.73L92.3996 152.907C92.4922 152.977 92.6235 152.907 92.6196 152.791L92.5926 152.016L92.7315 151.603C92.9091 151.074 92.9708 150.51 92.9168 149.954C92.8435 149.221 92.4498 148.553 91.8437 148.132C91.1798 147.673 90.3384 147.557 89.5741 147.82L89.4236 147.874C89.2576 147.932 89.1032 148.024 88.9681 148.14C88.2463 148.785 87.9606 149.784 88.227 150.715L88.3852 151.259L88.4123 152.656Z" fill="#E4B69D"/>
<path d="M101.463 155.47C101.602 155.567 102.138 155.914 102.679 155.74C102.937 155.655 103.107 155.482 103.335 155.242C103.636 154.93 103.825 154.617 103.937 154.401L105.056 154.648C105.141 154.667 105.238 154.636 105.284 154.559C105.357 154.443 105.307 154.297 105.188 154.247L104.142 153.826C104.061 153.795 103.972 153.791 103.891 153.822L102.883 154.177L101.455 154.71L101.463 155.47Z" fill="#E4B69D"/>
<path d="M104.748 154.432L105.277 154.679C105.373 154.725 105.427 154.833 105.4 154.937C105.373 155.053 105.258 155.13 105.138 155.107L103.768 154.853L102.965 155.254L103.077 154.606L103.914 154.22L104.748 154.432Z" fill="#E4B69D"/>
<path d="M105.27 155.497C105.227 155.601 105.111 155.652 105.007 155.617C104.741 155.497 104.471 155.374 104.204 155.254C103.803 155.239 103.401 155.219 103 155.204L103.1 154.775L104.343 154.779L105.173 155.219C105.27 155.273 105.312 155.393 105.27 155.497Z" fill="#E4B69D"/>
<path d="M104.574 155.972C104.516 156.034 104.424 156.038 104.358 155.987L103.783 155.54C103.559 155.486 103.339 155.432 103.115 155.378C103.154 155.266 103.196 155.15 103.235 155.038C103.524 155.103 103.818 155.173 104.107 155.239L104.574 155.756C104.632 155.818 104.632 155.914 104.574 155.972Z" fill="#E4B69D"/>
<path d="M87.3936 153.652C89.0302 154.405 90.7247 155.262 92.4616 156.238C93.0754 156.582 93.6698 156.929 94.2488 157.277C95.0748 156.96 95.7542 156.713 96.2135 156.547C97.5452 156.068 98.2129 155.864 99.8573 155.285C100.571 155.034 101.15 154.826 101.517 154.694C101.633 155.03 101.749 155.37 101.864 155.706C100.606 156.632 98.9193 157.666 96.8002 158.477C95.8314 158.848 94.9127 159.114 94.0712 159.311C93.7007 159.249 92.948 159.114 92.0795 158.898C91.4117 158.732 90.4583 158.481 89.3698 157.998C88.5863 157.651 87.5016 157.076 86.3359 156.13C86.6833 155.304 87.0384 154.478 87.3936 153.652Z" fill="url(#paint27_linear)"/>
<path d="M87.852 149.325C87.7516 149.981 88.099 150.321 88.2186 151.649C88.2611 152.1 88.2572 152.475 88.2495 152.718C88.7552 152.39 89.0755 152.027 89.257 151.784C89.4461 151.529 89.5773 151.355 89.6777 151.074C89.8861 150.487 89.7395 150.039 90.029 149.869C90.056 149.854 90.1718 149.784 90.276 149.827C90.5616 149.943 90.2683 150.692 90.6002 151.004C90.9283 151.313 91.6656 151.012 92.0477 150.858C92.4877 150.68 92.9278 150.502 93.0744 150.089C93.2366 149.638 92.9509 149.171 92.8235 148.958C92.2445 148.005 90.7199 146.998 89.311 147.6C88.6317 147.885 87.9716 148.549 87.852 149.325Z" fill="#253858"/>
<path d="M101.562 37.3757L132.056 38.9582L105.596 12.0044L101.562 37.3757Z" fill="url(#paint28_linear)"/>
</g>
<defs>
<linearGradient id="paint0_linear" x1="56.8087" y1="143.104" x2="162.811" y2="37.1018" gradientUnits="userSpaceOnUse">
<stop stop-color="#4C9AFF"/>
<stop offset="0.2415" stop-color="#4F9CFF" stop-opacity="0.7585"/>
<stop offset="0.4317" stop-color="#59A1FF" stop-opacity="0.5683"/>
<stop offset="0.6043" stop-color="#6AABFF" stop-opacity="0.3957"/>
<stop offset="0.7666" stop-color="#81B8FF" stop-opacity="0.2334"/>
<stop offset="0.9202" stop-color="#9FC9FF" stop-opacity="0.0798"/>
<stop offset="1" stop-color="#B2D4FF" stop-opacity="0"/>
</linearGradient>
<linearGradient id="paint1_linear" x1="136.801" y1="51.2522" x2="166.108" y2="51.2522" gradientUnits="userSpaceOnUse">
<stop stop-color="#4C9AFF"/>
<stop offset="0.208" stop-color="#4F9CFE" stop-opacity="0.792"/>
<stop offset="0.3719" stop-color="#59A0FD" stop-opacity="0.6281"/>
<stop offset="0.5207" stop-color="#6AA8FA" stop-opacity="0.4793"/>
<stop offset="0.6606" stop-color="#81B4F6" stop-opacity="0.3394"/>
<stop offset="0.7942" stop-color="#A0C2F0" stop-opacity="0.2058"/>
<stop offset="0.9214" stop-color="#C4D4EA" stop-opacity="0.0786"/>
<stop offset="1" stop-color="#DFE1E5" stop-opacity="0"/>
</linearGradient>
<linearGradient id="paint2_linear" x1="136.801" y1="54.6014" x2="166.108" y2="54.6014" gradientUnits="userSpaceOnUse">
<stop stop-color="#4C9AFF"/>
<stop offset="0.208" stop-color="#4F9CFE" stop-opacity="0.792"/>
<stop offset="0.3719" stop-color="#59A0FD" stop-opacity="0.6281"/>
<stop offset="0.5207" stop-color="#6AA8FA" stop-opacity="0.4793"/>
<stop offset="0.6606" stop-color="#81B4F6" stop-opacity="0.3394"/>
<stop offset="0.7942" stop-color="#A0C2F0" stop-opacity="0.2058"/>
<stop offset="0.9214" stop-color="#C4D4EA" stop-opacity="0.0786"/>
<stop offset="1" stop-color="#DFE1E5" stop-opacity="0"/>
</linearGradient>
<linearGradient id="paint3_linear" x1="136.801" y1="57.9502" x2="159.063" y2="57.9502" gradientUnits="userSpaceOnUse">
<stop stop-color="#4C9AFF"/>
<stop offset="0.208" stop-color="#4F9CFE" stop-opacity="0.792"/>
<stop offset="0.3719" stop-color="#59A0FD" stop-opacity="0.6281"/>
<stop offset="0.5207" stop-color="#6AA8FA" stop-opacity="0.4793"/>
<stop offset="0.6606" stop-color="#81B4F6" stop-opacity="0.3394"/>
<stop offset="0.7942" stop-color="#A0C2F0" stop-opacity="0.2058"/>
<stop offset="0.9214" stop-color="#C4D4EA" stop-opacity="0.0786"/>
<stop offset="1" stop-color="#DFE1E5" stop-opacity="0"/>
</linearGradient>
<linearGradient id="paint4_linear" x1="63.0129" y1="0.628358" x2="92.3199" y2="0.628358" gradientUnits="userSpaceOnUse">
<stop stop-color="#4C9AFF"/>
<stop offset="0.208" stop-color="#4F9CFE" stop-opacity="0.792"/>
<stop offset="0.3719" stop-color="#59A0FD" stop-opacity="0.6281"/>
<stop offset="0.5207" stop-color="#6AA8FA" stop-opacity="0.4793"/>
<stop offset="0.6606" stop-color="#81B4F6" stop-opacity="0.3394"/>
<stop offset="0.7942" stop-color="#A0C2F0" stop-opacity="0.2058"/>
<stop offset="0.9214" stop-color="#C4D4EA" stop-opacity="0.0786"/>
<stop offset="1" stop-color="#DFE1E5" stop-opacity="0"/>
</linearGradient>
<linearGradient id="paint5_linear" x1="63.0129" y1="3.97714" x2="92.3199" y2="3.97714" gradientUnits="userSpaceOnUse">
<stop stop-color="#4C9AFF"/>
<stop offset="0.208" stop-color="#4F9CFE" stop-opacity="0.792"/>
<stop offset="0.3719" stop-color="#59A0FD" stop-opacity="0.6281"/>
<stop offset="0.5207" stop-color="#6AA8FA" stop-opacity="0.4793"/>
<stop offset="0.6606" stop-color="#81B4F6" stop-opacity="0.3394"/>
<stop offset="0.7942" stop-color="#A0C2F0" stop-opacity="0.2058"/>
<stop offset="0.9214" stop-color="#C4D4EA" stop-opacity="0.0786"/>
<stop offset="1" stop-color="#DFE1E5" stop-opacity="0"/>
</linearGradient>
<linearGradient id="paint6_linear" x1="63.0129" y1="7.32632" x2="85.2758" y2="7.32632" gradientUnits="userSpaceOnUse">
<stop stop-color="#4C9AFF"/>
<stop offset="0.208" stop-color="#4F9CFE" stop-opacity="0.792"/>
<stop offset="0.3719" stop-color="#59A0FD" stop-opacity="0.6281"/>
<stop offset="0.5207" stop-color="#6AA8FA" stop-opacity="0.4793"/>
<stop offset="0.6606" stop-color="#81B4F6" stop-opacity="0.3394"/>
<stop offset="0.7942" stop-color="#A0C2F0" stop-opacity="0.2058"/>
<stop offset="0.9214" stop-color="#C4D4EA" stop-opacity="0.0786"/>
<stop offset="1" stop-color="#DFE1E5" stop-opacity="0"/>
</linearGradient>
<linearGradient id="paint7_linear" x1="61.3963" y1="140.591" x2="163.925" y2="38.0622" gradientUnits="userSpaceOnUse">
<stop stop-color="#2684FF"/>
<stop offset="0.3613" stop-color="#2986FF" stop-opacity="0.6387"/>
<stop offset="0.6457" stop-color="#338CFF" stop-opacity="0.3543"/>
<stop offset="0.9031" stop-color="#4495FF" stop-opacity="0.0969"/>
<stop offset="1" stop-color="#4C9AFF" stop-opacity="0"/>
</linearGradient>
<linearGradient id="paint8_linear" x1="148.792" y1="122.65" x2="145.788" y2="88.0954" gradientUnits="userSpaceOnUse">
<stop stop-color="#99C1FF"/>
<stop offset="0.7911" stop-color="#66A3FF"/>
</linearGradient>
<linearGradient id="paint9_linear" x1="26.5616" y1="58.1979" x2="47.5057" y2="37.2524" gradientUnits="userSpaceOnUse">
<stop offset="0.2089" stop-color="#FFC400"/>
<stop offset="1" stop-color="#FFE380"/>
</linearGradient>
<linearGradient id="paint10_linear" x1="47.7242" y1="145.215" x2="159.501" y2="33.4378" gradientUnits="userSpaceOnUse">
<stop stop-color="#4C9AFF"/>
<stop offset="0.208" stop-color="#4F9CFE" stop-opacity="0.792"/>
<stop offset="0.3719" stop-color="#59A0FD" stop-opacity="0.6281"/>
<stop offset="0.5207" stop-color="#6AA8FA" stop-opacity="0.4793"/>
<stop offset="0.6606" stop-color="#81B4F6" stop-opacity="0.3394"/>
<stop offset="0.7942" stop-color="#A0C2F0" stop-opacity="0.2058"/>
<stop offset="0.9214" stop-color="#C4D4EA" stop-opacity="0.0786"/>
<stop offset="1" stop-color="#DFE1E5" stop-opacity="0"/>
</linearGradient>
<linearGradient id="paint11_linear" x1="41.4999" y1="147.22" x2="141.158" y2="47.5623" gradientUnits="userSpaceOnUse">
<stop stop-color="#DEEBFF"/>
<stop offset="0.6383" stop-color="#EBF1FA"/>
<stop offset="1" stop-color="#F4F5F7"/>
</linearGradient>
<linearGradient id="paint12_linear" x1="105.597" y1="31.8904" x2="132.054" y2="31.8904" gradientUnits="userSpaceOnUse">
<stop stop-color="#6E7C93" stop-opacity="0"/>
<stop offset="1" stop-color="#6C798F"/>
</linearGradient>
<linearGradient id="paint13_linear" x1="56.6953" y1="30.0528" x2="55.8971" y2="15.6696" gradientUnits="userSpaceOnUse">
<stop offset="0.2629" stop-color="#FF991F"/>
<stop offset="0.6568" stop-color="#FFC400"/>
<stop offset="0.7051" stop-color="#FFC607"/>
<stop offset="0.7745" stop-color="#FFCA1A"/>
<stop offset="0.8568" stop-color="#FFD239"/>
<stop offset="0.9483" stop-color="#FFDC64"/>
<stop offset="1" stop-color="#FFE380"/>
</linearGradient>
<linearGradient id="paint14_linear" x1="51.0194" y1="27.9908" x2="60.5571" y2="15.72" gradientUnits="userSpaceOnUse">
<stop offset="0.321" stop-color="#FF991F"/>
<stop offset="0.766" stop-color="#FFC400"/>
</linearGradient>
<linearGradient id="paint15_linear" x1="114.474" y1="100.626" x2="115.848" y2="86.3303" gradientUnits="userSpaceOnUse">
<stop offset="0.2629" stop-color="#FF991F"/>
<stop offset="0.6568" stop-color="#FFC400"/>
<stop offset="0.7051" stop-color="#FFC607"/>
<stop offset="0.7745" stop-color="#FFCA1A"/>
<stop offset="0.8568" stop-color="#FFD239"/>
<stop offset="0.9483" stop-color="#FFDC64"/>
<stop offset="1" stop-color="#FFE380"/>
</linearGradient>
<linearGradient id="paint16_linear" x1="108.651" y1="97.6867" x2="118.446" y2="86.8905" gradientUnits="userSpaceOnUse">
<stop offset="0.321" stop-color="#FF991F"/>
<stop offset="0.766" stop-color="#FFC400"/>
</linearGradient>
<linearGradient id="paint17_linear" x1="52.3911" y1="140.263" x2="96.0805" y2="96.5733" gradientUnits="userSpaceOnUse">
<stop stop-color="#00C7E5"/>
<stop offset="0.1228" stop-color="#2FD3EC"/>
<stop offset="0.286" stop-color="#67E2F4"/>
<stop offset="0.4263" stop-color="#90ECFA"/>
<stop offset="0.5367" stop-color="#AAF3FE"/>
<stop offset="0.6033" stop-color="#B3F5FF"/>
</linearGradient>
<linearGradient id="paint18_linear" x1="62.4042" y1="151.985" x2="105.758" y2="108.631" gradientUnits="userSpaceOnUse">
<stop stop-color="#00C7E5"/>
<stop offset="0.1228" stop-color="#2FD3EC"/>
<stop offset="0.286" stop-color="#67E2F4"/>
<stop offset="0.4263" stop-color="#90ECFA"/>
<stop offset="0.5367" stop-color="#AAF3FE"/>
<stop offset="0.6033" stop-color="#B3F5FF"/>
</linearGradient>
<linearGradient id="paint19_linear" x1="93.0683" y1="145.72" x2="93.5576" y2="155.383" gradientUnits="userSpaceOnUse">
<stop stop-color="#FFE380"/>
<stop offset="1" stop-color="#FFAB00"/>
</linearGradient>
<linearGradient id="paint20_linear" x1="74.8723" y1="172.528" x2="126.697" y2="130.467" gradientUnits="userSpaceOnUse">
<stop stop-color="#00C7E5"/>
<stop offset="0.1228" stop-color="#2FD3EC"/>
<stop offset="0.286" stop-color="#67E2F4"/>
<stop offset="0.4263" stop-color="#90ECFA"/>
<stop offset="0.5367" stop-color="#AAF3FE"/>
<stop offset="0.6033" stop-color="#B3F5FF"/>
</linearGradient>
<linearGradient id="paint21_linear" x1="72.8146" y1="169.359" x2="124.52" y2="127.394" gradientUnits="userSpaceOnUse">
<stop stop-color="#00C7E5"/>
<stop offset="0.1228" stop-color="#2FD3EC"/>
<stop offset="0.286" stop-color="#67E2F4"/>
<stop offset="0.4263" stop-color="#90ECFA"/>
<stop offset="0.5367" stop-color="#AAF3FE"/>
<stop offset="0.6033" stop-color="#B3F5FF"/>
</linearGradient>
<linearGradient id="paint22_linear" x1="111.964" y1="135.371" x2="116.521" y2="136.306" gradientUnits="userSpaceOnUse">
<stop stop-color="#FF991F"/>
<stop offset="0.766" stop-color="#FFC400"/>
</linearGradient>
<linearGradient id="paint23_linear" x1="0" y1="164.888" x2="62.8627" y2="164.888" gradientUnits="userSpaceOnUse">
<stop stop-color="#091E42" stop-opacity="0"/>
<stop offset="1" stop-color="#091E42"/>
</linearGradient>
<linearGradient id="paint24_linear" x1="65.2005" y1="177.891" x2="98.5145" y2="177.891" gradientUnits="userSpaceOnUse">
<stop stop-color="#091E42" stop-opacity="0"/>
<stop offset="1" stop-color="#091E42"/>
</linearGradient>
<linearGradient id="paint25_linear" x1="88.259" y1="169.49" x2="77.0897" y2="170.532" gradientUnits="userSpaceOnUse">
<stop stop-color="#FFC400"/>
<stop offset="0.452" stop-color="#FF991F"/>
</linearGradient>
<linearGradient id="paint26_linear" x1="89.1183" y1="160.049" x2="85.1247" y2="158.176" gradientUnits="userSpaceOnUse">
<stop stop-color="#FFC400"/>
<stop offset="0.3539" stop-color="#FFB500"/>
<stop offset="0.7017" stop-color="#FFAB00"/>
</linearGradient>
<linearGradient id="paint27_linear" x1="86.3442" y1="156.581" x2="101.869" y2="156.084" gradientUnits="userSpaceOnUse">
<stop stop-color="#FFAB00"/>
<stop offset="0.7262" stop-color="#FFE380"/>
</linearGradient>
<linearGradient id="paint28_linear" x1="101.562" y1="25.4802" x2="132.054" y2="25.4802" gradientUnits="userSpaceOnUse">
<stop offset="0.0346" stop-color="white"/>
<stop offset="0.3965" stop-color="#F7F7F8"/>
<stop offset="0.9604" stop-color="#E1E3E6"/>
<stop offset="1" stop-color="#DFE1E5"/>
</linearGradient>
<clipPath id="clip0">
<rect width="166.108" height="180" fill="white"/>
</clipPath>
</defs>
</svg>
