<svg width="168" height="170" viewBox="0 0 168 170" fill="none" xmlns="http://www.w3.org/2000/svg">
<g clip-path="url(#clip0)">
<rect width="168" height="170" fill="white" fill-opacity="0.01"/>
<path d="M64.3692 84.68C65.9559 84.68 67.2423 83.3904 67.2423 81.7997C67.2423 80.209 65.9559 78.9194 64.3692 78.9194C62.7824 78.9194 61.4961 80.209 61.4961 81.7997C61.4961 83.3904 62.7824 84.68 64.3692 84.68Z" fill="#48CC8C"/>
<path d="M98.9746 20.3474C100.561 20.3474 101.848 19.0579 101.848 17.4672C101.848 15.8765 100.561 14.5869 98.9746 14.5869C97.3879 14.5869 96.1016 15.8765 96.1016 17.4672C96.1016 19.0579 97.3879 20.3474 98.9746 20.3474Z" fill="#48CC8C"/>
<path d="M137.262 112.865C138.849 112.865 140.135 111.575 140.135 109.984C140.135 108.394 138.849 107.104 137.262 107.104C135.675 107.104 134.389 108.394 134.389 109.984C134.389 111.575 135.675 112.865 137.262 112.865Z" fill="#0065FF"/>
<path d="M65.3785 75.9858C66.2282 75.9858 66.9171 75.2952 66.9171 74.4433C66.9171 73.5915 66.2282 72.9009 65.3785 72.9009C64.5287 72.9009 63.8398 73.5915 63.8398 74.4433C63.8398 75.2952 64.5287 75.9858 65.3785 75.9858Z" fill="#48CC8C"/>
<path d="M103.998 83.3417C104.847 83.3417 105.536 82.6512 105.536 81.7993C105.536 80.9474 104.847 80.2568 103.998 80.2568C103.148 80.2568 102.459 80.9474 102.459 81.7993C102.459 82.6512 103.148 83.3417 103.998 83.3417Z" fill="#0065FF"/>
<path d="M57.8179 80.4619C58.6677 80.4619 59.3565 79.7713 59.3565 78.9194C59.3565 78.0675 58.6677 77.377 57.8179 77.377C56.9682 77.377 56.2793 78.0675 56.2793 78.9194C56.2793 79.7713 56.9682 80.4619 57.8179 80.4619Z" fill="#48CC8C"/>
<path d="M102.46 11.8393C103.31 11.8393 103.999 11.1487 103.999 10.2969C103.999 9.44498 103.31 8.75439 102.46 8.75439C101.611 8.75439 100.922 9.44498 100.922 10.2969C100.922 11.1487 101.611 11.8393 102.46 11.8393Z" fill="#48CC8C"/>
<path d="M110.932 79.9309C112.518 79.9309 113.805 78.6414 113.805 77.0507C113.805 75.4599 112.518 74.1704 110.932 74.1704C109.345 74.1704 108.059 75.4599 108.059 77.0507C108.059 78.6414 109.345 79.9309 110.932 79.9309Z" fill="#0065FF"/>
<path d="M162.48 52.8378C163.33 52.8378 164.019 52.1473 164.019 51.2954C164.019 50.4435 163.33 49.7529 162.48 49.7529C161.63 49.7529 160.941 50.4435 160.941 51.2954C160.941 52.1473 161.63 52.8378 162.48 52.8378Z" fill="#FFAB00"/>
<path d="M165.127 46.4178C166.714 46.4178 168 45.1282 168 43.5375C168 41.9468 166.714 40.6572 165.127 40.6572C163.54 40.6572 162.254 41.9468 162.254 43.5375C162.254 45.1282 163.54 46.4178 165.127 46.4178Z" fill="#FFAB00"/>
<path d="M48.6304 135.403C49.4802 135.403 50.169 134.712 50.169 133.86C50.169 133.008 49.4802 132.318 48.6304 132.318C47.7807 132.318 47.0918 133.008 47.0918 133.86C47.0918 134.712 47.7807 135.403 48.6304 135.403Z" fill="#FFAB00"/>
<path d="M43.754 130.021C45.3407 130.021 46.627 128.732 46.627 127.141C46.627 125.55 45.3407 124.261 43.754 124.261C42.1672 124.261 40.8809 125.55 40.8809 127.141C40.8809 128.732 42.1672 130.021 43.754 130.021Z" fill="#FFAB00"/>
<path d="M136.218 104.356C137.068 104.356 137.757 103.666 137.757 102.814C137.757 101.962 137.068 101.271 136.218 101.271C135.369 101.271 134.68 101.962 134.68 102.814C134.68 103.666 135.369 104.356 136.218 104.356Z" fill="#0065FF"/>
<path d="M107.481 38.084C108.766 36.3521 113.011 31.0691 119.782 30.1065C126.405 29.1628 131.467 32.9185 133.149 34.1692C138.068 37.8225 137.78 40.7331 142.377 44.1212C147.583 47.9603 154.917 47.9035 155.272 47.9906H155.268C155.268 47.9906 82.1823 47.5738 75.2793 47.5321C76.7914 47.1038 79.2752 46.308 82.2087 44.8943C90.0379 41.1273 92.2834 37.2086 97.5911 36.2346C99.7157 35.8443 103.05 35.7912 107.481 38.084Z" fill="url(#paint0_linear)"/>
<path d="M118.121 5.43224L114.426 39.9868L114.7 40.0163L118.396 5.46174L118.121 5.43224Z" fill="#64E6A4"/>
<path d="M109.382 39.7438C109.31 39.7438 109.25 39.6908 109.246 39.6187L106.758 11.8735C106.751 11.7977 106.808 11.7294 106.883 11.7219C106.955 11.7143 107.027 11.7711 107.034 11.8469L109.522 39.5922C109.53 39.668 109.473 39.7362 109.397 39.7438C109.39 39.7438 109.386 39.7438 109.382 39.7438Z" fill="#64E6A4"/>
<path d="M119.717 40.8506C119.702 40.8506 119.69 40.8468 119.675 40.843C119.603 40.8202 119.562 40.7407 119.584 40.6686L127.788 14.3862C127.81 14.3142 127.886 14.2725 127.962 14.2953C128.033 14.318 128.075 14.3976 128.052 14.4696L119.849 40.752C119.83 40.8127 119.777 40.8506 119.717 40.8506Z" fill="#64E6A4"/>
<path d="M115.236 33.7179C116.805 33.8846 118.332 33.9869 119.542 34.0021C121.126 34.0211 121.614 33.8884 121.757 33.8278C121.636 33.7406 121.224 33.5284 119.841 33.229C118.627 32.9675 117.036 32.7249 115.361 32.5468C113.792 32.3801 112.265 32.2777 111.055 32.2626C109.471 32.2436 108.983 32.3763 108.84 32.4369C108.961 32.5241 109.373 32.7363 110.756 33.0357C111.974 33.2934 113.565 33.536 115.236 33.7179Z" fill="#008364"/>
<path d="M121.966 33.8469C122.012 33.43 119.063 32.7706 115.381 32.3765C113.74 32.2021 112.232 32.1074 111.06 32.0922C109.601 32.0771 108.659 32.1832 108.633 32.4144C108.633 32.4257 108.633 32.4333 108.637 32.4447L109.238 39.6188C109.189 40.085 111.525 40.7179 114.455 41.0324C117.384 41.347 119.8 41.2257 119.849 40.7596L121.955 33.8735C121.962 33.8659 121.966 33.8583 121.966 33.8469ZM108.845 32.4371C108.988 32.3765 109.476 32.2438 111.06 32.2628C112.266 32.2779 113.797 32.3765 115.366 32.547C117.04 32.7251 118.628 32.9677 119.845 33.2292C121.229 33.5248 121.641 33.7408 121.762 33.828C121.618 33.8886 121.131 34.0213 119.547 34.0023C118.341 33.9872 116.81 33.8886 115.241 33.7181C113.566 33.54 111.978 33.2974 110.761 33.0359C109.378 32.7365 108.965 32.5243 108.845 32.4371Z" fill="#2DB07C"/>
<path d="M117.661 22.0871C123.745 22.0871 128.677 17.1427 128.677 11.0435C128.677 4.94436 123.745 0 117.661 0C111.577 0 106.645 4.94436 106.645 11.0435C106.645 17.1427 111.577 22.0871 117.661 22.0871Z" fill="url(#paint1_linear)"/>
<path d="M115.46 16.6565L111.317 12.0897C111.143 11.9002 111.158 11.6046 111.347 11.4303L113.173 9.76658C113.362 9.59224 113.657 9.6074 113.831 9.79689L116.008 12.1959L122.132 6.63997C122.325 6.46564 122.62 6.4808 122.79 6.67408L124.446 8.50836C124.62 8.70164 124.605 8.99724 124.412 9.16778L116.118 16.6906C115.929 16.8611 115.634 16.846 115.46 16.6565Z" fill="white"/>
<path opacity="0.4" d="M117.551 16.7662C114.254 13.2644 116.035 8.69007 112.78 4.81308C112.213 4.1347 111.434 3.42222 110.357 2.78174C108.376 4.544 107.015 7.02255 106.708 9.8687C106.058 15.9324 110.44 21.3784 116.488 22.0264C119.112 22.3069 121.618 21.6399 123.671 20.3021C123.928 20.1315 124.155 19.9686 124.355 19.817C124.404 19.7791 124.457 19.7412 124.507 19.6995C122.329 19.5062 119.532 18.8695 117.551 16.7662Z" fill="url(#paint2_linear)"/>
<path d="M118.516 29.4085C118.448 29.2873 118.383 29.1925 118.334 29.1281C117.072 28.9841 116.622 28.9159 116.387 28.8742C116.346 28.8666 116.27 28.859 116.172 28.8363C116.058 28.8135 115.972 28.787 115.915 28.7681C115.854 28.8363 115.786 28.9159 115.726 29.0068C115.673 29.0864 115.631 29.1584 115.597 29.2228C115.525 29.3706 115.344 29.7307 115.268 29.924C114.917 30.8221 114.883 32.3949 114.883 32.3949C114.89 32.7019 114.898 33.0165 114.898 33.3386C114.898 33.475 114.89 33.6001 114.89 33.7327C115.302 33.782 115.726 33.8275 116.161 33.8616C116.263 33.2514 116.365 32.6413 116.463 32.0387C116.716 32.5048 116.977 33.0733 117.193 33.7403C117.215 33.8085 117.23 33.8692 117.249 33.9336C117.831 33.9639 118.391 33.9791 118.935 33.9866C118.95 33.5622 118.962 32.4631 118.807 30.3901C118.792 30.2309 118.758 29.8444 118.516 29.4085Z" fill="#2DB07C"/>
<path d="M123.762 27.4418L123.807 27.0022C123.818 26.9112 123.849 26.8241 123.898 26.7483C123.924 26.7217 123.962 26.6763 123.996 26.6156C124.053 26.5133 124.06 26.4375 124.091 26.4375C124.121 26.4375 124.14 26.5247 124.144 26.5285C124.162 26.6118 124.14 26.6876 124.128 26.7142C124.106 26.7862 124.083 26.8961 124.094 27.0552L123.762 27.4418Z" fill="#A27F68"/>
<path d="M123.782 27.5743C123.703 27.453 123.771 27.2143 123.896 27.0627C123.941 27.0096 124.024 26.9793 124.134 26.8656C124.168 26.8277 124.194 26.7974 124.213 26.7746C124.251 26.6723 124.289 26.5662 124.323 26.4639C124.372 26.6155 124.406 26.7329 124.425 26.8163C124.451 26.9186 124.44 26.9755 124.451 27.1157C124.455 27.165 124.455 27.1688 124.455 27.1877C124.447 27.2521 124.413 27.2976 124.383 27.3279C124.092 27.6236 124.005 27.7069 123.998 27.7069H123.983C123.979 27.7031 123.839 27.6614 123.782 27.5743Z" fill="#A27F68"/>
<path d="M118.133 24.7018C118.152 24.808 118.043 24.8724 118.009 25.1074C117.986 25.2665 118.016 25.4068 118.046 25.5053C117.396 25.6796 116.863 25.6417 116.754 25.4105C116.704 25.312 116.727 25.168 116.754 24.9899C116.784 24.789 116.806 24.6223 116.905 24.5124C117.196 24.1826 118.084 24.4176 118.133 24.7018Z" fill="#72594B"/>
<path d="M115.669 26.2444C115.616 25.8389 115.862 25.4523 116.255 25.3462C116.259 25.3462 116.263 25.3424 116.266 25.3424C117.896 24.9142 119.272 25.7555 119.415 25.8465C119.911 26.1572 120.24 26.5287 120.463 26.7788C120.814 27.1691 121.052 27.5443 121.215 27.821C121.65 27.7641 122.126 27.6845 122.629 27.5671C123.041 27.4723 123.423 27.3624 123.774 27.2525C123.857 27.3662 123.944 27.4913 124.028 27.6277C124.073 27.7035 124.118 27.7793 124.16 27.8513C123.831 28.0408 123.559 28.181 123.374 28.2758C121.899 29.0261 121.287 29.0603 120.89 28.9958C120.754 28.9731 120.663 28.9466 120.644 28.9314C120.353 28.6813 120.054 28.4046 119.748 28.109C119.412 27.7831 118.985 27.3245 118.958 27.5064C118.92 27.7755 118.761 27.9536 118.697 28.037C118.535 28.253 118.402 28.651 118.572 29.4468C117.839 29.5075 117.306 29.4506 116.992 29.3862C116.304 29.2497 116.157 29.1815 115.586 28.9996C115.646 28.7343 115.703 28.4236 115.737 28.0711C115.779 27.5974 115.756 27.2373 115.733 26.9038C115.722 26.7106 115.699 26.4908 115.669 26.2444Z" fill="url(#paint3_linear)"/>
<path d="M118.004 22.9775C118.167 23.1746 118.322 23.5536 118.386 23.7469C118.394 23.781 118.398 23.7961 118.458 23.8416C118.522 23.8833 118.609 23.9098 118.587 23.9553C118.564 24.0008 118.458 24.0576 118.443 24.0993L118.462 24.8004L118.175 24.88L117.199 25.1453C117.214 25.1074 117.657 24.2092 117.66 24.1562C117.664 24.1031 117.664 23.9894 117.728 23.9667C117.793 23.9439 117.952 23.4096 117.989 23.3376C118.027 23.2656 118.023 23.2466 118.016 23.1443C118.008 23.042 118.004 22.9775 118.004 22.9775Z" fill="#72594B"/>
<path d="M116.252 24.5845C116.346 24.7058 116.558 24.9749 116.906 25.0014C117.291 25.0317 117.692 24.7475 117.734 24.4708C117.752 24.3458 117.696 24.251 117.749 24.035C117.775 23.9289 117.828 23.7849 117.889 23.7849C117.949 23.7849 117.972 23.9441 118.013 23.9403C118.055 23.9365 118.07 23.7697 118.081 23.6712C118.127 23.2467 118.217 23.2354 118.202 23.0648C118.168 22.7351 117.836 22.5267 117.794 22.5001C117.382 22.2462 116.909 22.4357 116.834 22.466C116.271 22.6934 115.957 23.3301 115.991 23.8796C115.998 23.9782 116.021 24.2927 116.252 24.5845Z" fill="#243759"/>
<path d="M115.514 23.5497C115.586 23.6407 115.744 23.8415 116.005 23.8643C116.296 23.887 116.595 23.6748 116.629 23.4663C116.644 23.3716 116.602 23.3034 116.64 23.1404C116.659 23.0608 116.701 22.9509 116.746 22.9547C116.792 22.9547 116.81 23.076 116.841 23.0722C116.871 23.0684 116.882 22.9433 116.89 22.8713C116.924 22.553 116.992 22.5454 116.981 22.4166C116.954 22.1702 116.705 22.011 116.674 21.9921C116.364 21.8026 116.009 21.9428 115.952 21.9694C115.529 22.1399 115.291 22.6174 115.321 23.0305C115.325 23.0949 115.344 23.3299 115.514 23.5497Z" fill="#243759"/>
<path d="M161.013 139.867C159.04 139.64 156.212 139.003 153.702 137.002C150.791 134.679 150.591 132.341 148.012 130.609C146.867 129.839 145.154 129.131 142.542 129.135C142.652 128.517 142.727 127.888 142.739 127.24C142.867 120.46 137.492 114.862 130.729 114.733C123.965 114.604 118.382 119.993 118.253 126.773C118.249 126.944 118.265 127.107 118.268 127.278C117.603 127.008 116.881 126.849 116.117 126.834C112.764 126.77 109.993 129.442 109.929 132.803C109.865 136.165 112.53 138.943 115.883 139.007L138.584 139.443C146.065 139.583 153.539 139.727 161.013 139.867Z" fill="url(#paint4_linear)"/>
<path d="M66.0659 152.211C64.2929 149.816 58.4182 142.516 49.0655 141.182C39.9095 139.875 32.9158 145.071 30.5833 146.799C23.7824 151.851 24.1831 155.872 17.8283 160.556C10.6304 165.865 0.491449 165.786 0 165.903H0.00378038C0.00378038 165.903 101.034 165.327 110.576 165.27C108.486 164.675 105.053 163.576 100.997 161.625C90.1734 156.417 87.0697 151.002 79.7357 149.653C76.7984 149.114 72.1939 149.042 66.0659 152.211Z" fill="url(#paint5_linear)"/>
<path d="M32.1974 109.094C33.4827 107.362 37.7281 102.079 44.4987 101.116C51.1219 100.173 56.1839 103.928 57.8661 105.179C62.7844 108.832 62.4971 111.743 67.094 115.131C72.2996 118.97 79.6335 118.913 79.9889 119H79.9851C79.9851 119 6.89907 118.584 -0.00390625 118.542C1.50825 118.114 3.99195 117.318 6.92553 115.904C14.7547 112.137 17.0002 108.218 22.3079 107.244C24.4362 106.854 27.7668 106.801 32.1974 109.094Z" fill="url(#paint6_linear)"/>
<path d="M143.302 165.501C143.884 164.713 145.816 162.318 148.886 161.878C151.895 161.45 154.193 163.155 154.957 163.724C157.191 165.384 157.059 166.703 159.15 168.245C161.512 169.988 164.847 169.962 165.005 170.004C165.005 170.004 131.814 169.814 128.68 169.795C129.368 169.602 130.494 169.238 131.825 168.598C135.382 166.888 136.399 165.107 138.811 164.664C139.775 164.482 141.287 164.459 143.302 165.501Z" fill="url(#paint7_linear)"/>
<path d="M36.4545 66.098C37.0367 65.3097 38.9685 62.9146 42.0382 62.475C45.0473 62.0467 47.3458 63.7521 48.1094 64.3206C50.3436 65.9805 50.2113 67.2994 52.3019 68.8419C54.6646 70.5852 57.9989 70.5586 58.1577 70.6003C58.1577 70.6003 24.966 70.4108 21.832 70.3919C22.5201 70.1986 23.6466 69.8348 24.9773 69.1943C28.5346 67.4851 29.5516 65.7039 31.9634 65.2605C32.9312 65.0824 34.4434 65.0558 36.4545 66.098Z" fill="url(#paint8_linear)"/>
<path d="M107.82 88.2383H107.808H107.797H107.786H107.774H107.763H107.752H107.74H107.729H107.718H107.706H107.695H107.684H107.672H107.661H107.65H107.638H107.627H107.616H107.604H107.593H107.581H107.57H107.559H107.547H107.536H107.525H107.513H107.502H107.491H107.479H107.468H107.457H107.445H107.434H107.423H107.415H107.404H107.392H107.381H107.37H107.358H107.347H107.336H107.324H107.313H107.302H107.29H107.279H107.268H107.256H107.245H107.234H107.222H107.211H107.2H107.188H107.177H107.166H107.154H107.143H107.132H107.12H107.109H107.098H107.086H107.075H107.064H107.052H107.041H107.03H107.018H107.007H106.996H106.984H106.973H106.962H106.95H106.943H106.931H106.92H106.909H106.897H106.886H106.875H106.863H106.852H106.841H106.829H106.818H106.807H106.795H106.784H106.772H106.761H106.75H106.738H106.727H106.716H106.704H106.693H106.682H106.67H106.659H106.648H106.636H106.625H106.614H106.602H106.591H106.58H106.568H106.557H106.546H106.534H106.523H106.515H106.504H106.493H106.481H106.47H36.2193L35.1797 88.947L66.3413 159.567L67.8875 160.017H138.138H138.15H138.161H138.172H138.184H138.195H138.206H138.218H138.229H138.24H138.252H138.263H138.274H138.286H138.293H138.305H138.316H138.327H138.339H138.35H138.361H138.373H138.384H138.395H138.407H138.418H138.429H138.441H138.452H138.463H138.475H138.486H138.497H138.509H138.52H138.531H138.543H138.554H138.565H138.577H138.588H138.599H138.611H138.622H138.634H138.645H138.656H138.668H138.679H138.69H138.702H138.713H138.724H138.736H138.747H138.758H138.766H138.777H138.789H138.8H138.811H138.823H138.834H138.845H138.857H138.868H138.879H138.891H138.902H138.913H138.925H138.936H138.947H138.959H138.97H138.981H138.993H139.004H139.015H139.027H139.038H139.049H139.061H139.072H139.083H139.095H139.106H139.117H139.129H139.14H139.151H139.163H139.174H139.185H139.193H139.204H139.216H139.227H139.238H139.25H139.261H139.272H139.284H139.295H139.306H139.318H139.329H139.34H139.352H139.363H139.374H139.386H139.397H139.408H139.42H139.431H139.443H139.454H139.465H139.477H139.488L107.82 88.2383Z" fill="#48CC8C"/>
<path d="M139.489 160.017H67.8889L36.2207 88.2383H107.821L139.489 160.017Z" fill="url(#paint9_linear)"/>
<path d="M107.821 88.2383H36.2207L38.9199 94.3551H110.516L107.821 88.2383Z" fill="url(#paint10_linear)"/>
<path d="M43.3793 92.3673C43.8451 91.8029 43.5839 90.8154 42.7957 90.1616C42.0076 89.5077 40.991 89.4352 40.5251 89.9996C40.0593 90.564 40.3206 91.5515 41.1087 92.2053C41.8969 92.8591 42.9134 92.9317 43.3793 92.3673Z" fill="#DEEBFF"/>
<path d="M48.7035 92.3687C49.1694 91.8044 48.9081 90.8168 48.1199 90.163C47.3318 89.5092 46.3152 89.4367 45.8494 90.0011C45.3835 90.5654 45.6448 91.553 46.4329 92.2068C47.2211 92.8606 48.2377 92.9331 48.7035 92.3687Z" fill="#FFC400"/>
<path d="M54.0297 92.3673C54.4955 91.8029 54.2343 90.8154 53.4461 90.1616C52.658 89.5077 51.6414 89.4352 51.1755 89.9996C50.7097 90.564 50.971 91.5515 51.7591 92.2053C52.5473 92.8591 53.5638 92.9317 54.0297 92.3673Z" fill="#48CC8C"/>
<path d="M75.1401 126.769C72.2292 124.446 72.0288 122.108 69.4506 120.376C68.3052 119.607 66.5927 118.898 63.9804 118.902C64.09 118.284 64.1656 117.655 64.177 117.007C64.3055 110.227 58.9298 104.629 52.1667 104.5C49.2899 104.444 46.6247 105.395 44.5039 107.021L54.2459 129.096L60.0299 129.206C67.5037 129.35 74.9775 129.494 82.4513 129.635C80.4742 129.407 77.6465 128.77 75.1401 126.769Z" fill="url(#paint11_linear)"/>
<path d="M132.987 145.283C132.265 145.127 131.441 145.036 130.499 145.036C130.609 144.419 130.684 143.79 130.696 143.141C130.824 136.361 125.449 130.764 118.686 130.635C111.922 130.506 106.339 135.895 106.21 142.675C106.207 142.846 106.222 143.009 106.225 143.179C105.56 142.91 104.838 142.751 104.074 142.736C100.721 142.672 97.9502 145.343 97.8859 148.705C97.8216 152.066 100.487 154.844 103.84 154.909L126.541 155.345C130.197 155.413 133.852 155.485 137.512 155.553L132.987 145.283Z" fill="url(#paint12_linear)"/>
<path d="M96.2986 151.532L96.1739 151.638C95.8752 151.892 95.6749 152.24 95.5993 152.627L95.036 155.579L93.1836 157.539L94.7411 157.827L96.1852 156.155L96.2986 151.532Z" fill="#008364"/>
<path d="M97.3767 148.621C97.3465 148.58 97.3238 148.557 97.2973 148.5C97.1991 148.28 97.252 147.951 97.4183 147.867C97.5506 147.799 97.6414 147.939 97.9551 147.954C98.1555 147.962 98.1895 147.909 98.3785 147.898C98.7982 147.867 99.1422 148.095 99.2215 148.151C99.5504 148.383 99.6752 148.69 99.7243 148.811C99.8793 149.201 99.9436 149.834 99.6223 150.194C99.4484 150.391 99.3009 150.346 99.059 150.619C98.8057 150.907 98.8511 151.077 98.7188 151.119C98.3445 151.233 97.6262 149.993 97.475 149.376C97.4448 149.258 97.5733 148.883 97.3767 148.621Z" fill="#253858"/>
<path d="M96.8994 151.585C96.9183 151.532 97.0091 151.482 97.3417 151.509C97.3909 151.429 97.4514 151.301 97.4854 151.138C97.5308 150.903 97.4741 150.778 97.493 150.687C97.5308 150.512 97.8596 150.338 99.0883 150.308C99.0013 150.433 98.8161 150.743 98.8161 151.168C98.8161 151.392 98.8652 151.573 98.9144 151.695C99.0958 151.733 99.1374 151.782 99.1412 151.816C99.1601 151.945 98.7254 152.131 98.3511 152.191C98.1772 152.221 97.8634 152.267 97.5119 152.131C97.1792 151.998 96.8503 151.717 96.8994 151.585Z" fill="url(#paint13_linear)"/>
<path d="M103.914 146.529C103.834 146.545 103.755 146.552 103.675 146.533C103.596 146.51 103.524 146.45 103.502 146.366C103.479 146.275 103.517 146.177 103.486 146.09C103.475 146.052 103.449 146.018 103.43 145.98C103.373 145.874 103.369 145.741 103.392 145.624C103.415 145.506 103.464 145.396 103.505 145.283C103.611 145.006 103.687 144.714 103.759 144.422C103.774 144.362 103.789 144.297 103.83 144.256C103.872 144.21 103.944 144.195 103.985 144.24C104.053 144.312 104.016 144.483 104.11 144.502C104.171 144.513 104.216 144.426 104.276 144.434C104.329 144.441 104.356 144.517 104.356 144.578C104.36 144.638 104.356 144.706 104.397 144.748C104.424 144.775 104.443 144.767 104.473 144.79C104.492 144.805 104.534 144.847 104.537 144.968C104.545 145.154 104.454 145.29 104.42 145.472C104.371 145.73 104.5 145.764 104.447 146.063C104.424 146.188 104.401 146.336 104.28 146.427C104.19 146.495 104.027 146.507 103.914 146.529Z" fill="#A27F68"/>
<path d="M96.9192 149.512L96.6621 149.785C96.6621 149.785 96.8247 149.94 96.9116 149.982C96.8927 150.02 96.8662 150.077 96.8587 150.149C96.8511 150.232 96.87 150.289 96.8851 150.346C96.9456 150.596 96.8473 150.683 96.9192 150.804C96.9456 150.854 97.0061 150.918 97.1536 150.952C97.3955 150.979 97.5959 150.982 97.7357 150.986C98.2877 150.994 98.6052 150.998 98.7942 150.808C98.8358 150.77 98.9265 150.664 99.0097 150.55C99.0778 150.463 99.1269 150.387 99.1609 150.338C99.1269 150.319 99.0815 150.285 99.0589 150.232C98.9908 150.08 99.1685 149.936 99.1005 149.777C99.074 149.717 99.0173 149.66 98.953 149.656C98.8736 149.652 98.7905 149.743 98.7527 149.883C98.7413 150.111 98.5674 150.251 98.4389 150.232C98.3519 150.217 98.2763 150.13 98.2423 150.024C98.5674 149.413 98.6203 148.906 98.4275 148.762C98.3217 148.686 98.2083 148.724 98.0986 148.754C97.9058 148.803 97.5883 148.83 97.4673 148.629C97.4068 148.527 97.4295 148.383 97.3917 148.375C97.3804 148.371 97.3615 148.386 97.3048 148.496C97.2367 148.621 97.1989 148.72 97.1989 148.72C97.1725 148.792 97.1347 148.906 97.0893 149.05C96.9872 149.353 96.991 149.406 96.9192 149.512Z" fill="#A27F68"/>
<path d="M104.604 147.299C104.578 146.988 104.54 146.556 104.483 146.04C104.385 145.843 104.177 145.726 103.961 145.741C103.738 145.756 103.542 145.915 103.481 146.135C103.538 146.738 103.126 149.751 102.839 150.531C102.101 151.062 100.767 151.828 99.2397 151.593C99.1036 151.574 98.975 151.543 98.8465 151.509C98.8276 151.528 98.4685 151.884 97.9921 151.763C97.6481 151.676 97.478 151.403 97.444 151.346C97.41 151.342 97.3533 151.339 97.289 151.335C97.1983 151.331 97.1227 151.331 97.066 151.331C97.066 151.331 97.013 151.331 96.9677 151.335C96.8127 151.342 96.4195 151.46 96.3023 151.528C96.0112 151.691 96.0263 152.282 95.9696 153.374C95.9092 154.48 95.8562 154.632 95.8487 155.538C95.8449 155.89 95.8524 156.182 95.86 156.394C96.0982 156.588 96.446 156.826 96.911 156.997C97.856 157.342 98.7029 157.19 99.0733 157.099C99.4703 156.614 99.5761 156.205 99.5988 155.917C99.6328 155.515 99.5043 155.326 99.6442 154.954C99.7689 154.621 99.9504 154.568 100.052 154.249C100.151 153.938 100.086 153.639 100.015 153.431C100.752 153.302 102.003 152.968 103.209 152.021C103.651 151.672 104.003 151.308 104.279 150.979C104.362 150.88 104.411 150.763 104.434 150.634C104.619 149.429 104.706 148.485 104.604 147.299Z" fill="#2DB07C"/>
<path d="M98.9263 157.8C98.9414 157.611 98.9679 157.327 99.0095 156.97C98.6617 156.974 98.2685 156.951 97.8375 156.895C97.1004 156.792 96.4766 156.599 95.9927 156.406C94.6469 156.944 93.3011 157.482 91.9553 158.02C91.891 158.767 91.8305 159.4 91.7852 159.892C92.2539 159.93 92.7416 159.957 93.2406 159.98C93.4296 159.945 93.6035 159.915 93.7434 159.889C95.5202 159.566 96.3859 159.422 97.8867 159.131C98.2307 159.062 98.5105 159.009 98.6844 158.975C98.7259 158.865 98.7864 158.702 98.8318 158.494C98.8885 158.259 98.8998 158.1 98.9263 157.8Z" fill="#A27F68"/>
<path d="M98.927 157.8C98.9421 157.611 98.9686 157.327 99.0101 156.97C98.6623 156.974 98.2692 156.951 97.8382 156.891C97.101 156.788 96.4773 156.595 95.9934 156.402C94.6476 156.94 93.3018 157.478 91.956 158.016C91.9219 158.388 91.8917 158.733 91.8652 159.043C91.8728 159.055 91.8766 159.062 91.8841 159.07C92.058 159.373 92.1828 159.661 92.2735 159.919C92.6742 159.945 93.0825 159.968 93.4984 159.983C94.9614 159.699 96.4244 159.411 97.8874 159.123C97.9441 159.112 98.6283 158.979 98.685 158.968C98.7266 158.858 98.7871 158.695 98.8325 158.486C98.8892 158.259 98.9005 158.1 98.927 157.8Z" fill="url(#paint14_linear)"/>
<path d="M99.1523 156.986C98.0976 156.834 97.0391 156.686 95.9844 156.535C96.0146 157.209 96.0449 157.891 96.0713 158.577C96.0902 159.059 96.1016 159.532 96.1167 160.01C97.0353 159.987 97.9124 159.942 98.7403 159.87C98.7932 159.851 98.8499 159.832 98.9066 159.813C98.952 159.354 98.9973 158.9 99.0352 158.437C99.0805 157.948 99.1183 157.467 99.1523 156.986Z" fill="url(#paint15_linear)"/>
<path d="M65.1742 127.668C65.2422 127.998 65.3103 128.327 65.3745 128.665C65.3934 128.763 65.4123 128.862 65.4312 128.956C65.522 128.676 65.6278 128.464 65.6996 128.331C65.9113 127.933 66.0852 127.781 66.3536 127.331C66.486 127.107 66.5805 126.917 66.6334 126.804C66.7884 126.88 66.8905 126.895 66.9547 126.88C66.9661 126.876 66.9887 126.876 67.019 126.872C67.1097 126.864 67.1853 126.872 67.2345 126.88C67.0303 127.634 66.8035 128.244 66.6258 128.683C66.0172 130.169 65.6845 130.298 65.5106 130.317C65.3783 130.332 65.0645 130.309 64.868 130.101C64.7924 130.021 64.7621 129.934 64.7394 129.892C64.4219 129.335 64.3349 128.809 64.3047 128.49C64.5958 128.21 64.8869 127.941 65.1742 127.668Z" fill="#E4B69D"/>
<path d="M66.5742 126.906C66.6082 126.796 66.6347 126.705 66.6536 126.644C66.7065 126.451 66.7179 126.379 66.767 126.277C66.8124 126.186 66.8653 126.121 66.9031 126.084L67.0997 125.894H67.6214L67.731 126.084V126.527V126.569C67.731 126.747 67.5987 126.898 67.4248 126.921L67.0354 126.974C66.8804 126.948 66.7254 126.925 66.5742 126.906Z" fill="#E4B69D"/>
<path d="M59.9051 127.698C59.6518 128.57 59.6065 129.263 59.614 129.737C59.6178 130.093 59.6518 130.313 59.6632 130.965C59.6745 131.62 59.6481 132.087 59.6405 132.303C59.6178 132.905 59.6292 133.826 59.7917 135.175C60.0223 135.213 60.2567 135.251 60.4873 135.289C60.544 134.338 60.5705 133.337 60.5591 132.295C60.5554 131.95 60.544 131.613 60.5327 131.279C60.6423 130.635 60.7293 129.926 60.786 129.168C60.8275 128.604 60.8427 128.066 60.8427 127.562C60.5327 127.607 60.2189 127.652 59.9051 127.698Z" fill="#EFC7B0"/>
<path d="M60.7097 127.592C60.5661 127.22 60.3506 126.97 60.2145 126.83C59.878 127.126 59.6172 128.729 59.6172 128.729C59.6172 128.729 60.2145 129.244 60.8647 129.161C61.0159 129.066 60.7815 128.63 60.9365 128.535C60.9592 128.327 60.895 128.066 60.7097 127.592Z" fill="#FFAB00"/>
<path d="M61.0284 125.125C61.0019 125.534 60.9679 126.068 60.9414 126.69C62.1095 126.675 63.2815 126.66 64.4496 126.644C64.2719 126.478 63.9922 126.167 63.8258 125.693C63.5083 124.776 63.8788 123.965 63.9695 123.783C64.0867 123.794 64.2039 123.81 64.3211 123.821C64.3437 123.692 64.3778 123.434 64.287 123.131C64.2606 123.036 64.1774 122.79 63.9808 122.57C63.5688 122.116 62.8543 122.021 62.3137 122.195C61.8978 122.332 61.6408 122.601 61.5576 122.699C61.2287 123.078 61.138 123.514 61.0284 125.125Z" fill="#243759"/>
<path d="M61.0505 141.97C61.0581 141.19 61.0694 140.045 61.077 138.65C61.0845 137.187 61.0883 136.456 61.0845 136.354C61.0089 134.773 60.733 132.697 60.9371 131.829C60.99 131.601 61.1942 130.961 61.2584 130.756C61.2773 130.696 61.3114 130.593 61.3718 130.464C61.4286 130.339 61.4928 130.233 61.5495 130.146C61.61 130.169 61.7083 130.207 61.8331 130.245C61.9389 130.275 62.0221 130.29 62.0674 130.301C62.3207 130.358 62.8008 130.457 64.1051 130.665C64.1542 130.745 64.2336 130.874 64.3243 131.033C64.3243 131.033 64.6494 131.62 64.8914 132.329C65.1031 132.958 65.4169 134.891 65.3904 137.521C65.4811 138.624 65.5378 139.795 65.5529 141.034C65.5567 141.534 65.5567 142.023 65.5454 142.501L64.5663 142.508C64.381 140.803 64.0899 138.935 63.6325 136.949C63.383 135.865 63.1108 134.838 62.8197 133.875C62.6496 135.675 62.4871 137.487 62.3321 139.31C62.2565 140.216 62.1808 141.114 62.109 142.012L61.0505 141.97Z" fill="#FF991F"/>
<path d="M64.3509 126.178C64.3433 126.178 64.3395 126.174 64.332 126.174C63.7195 126.046 63.4209 125.955 63.3566 125.875C63.1752 125.644 63.4625 125.295 63.2886 125.117C63.1752 125 62.9408 125.041 62.748 125.098C62.4115 124.905 62.2603 124.928 62.1809 124.981C61.9239 125.155 62.2679 125.803 61.9541 126.11C61.7046 126.353 61.2132 126.22 61.1943 126.345C61.1829 126.402 61.2812 126.47 61.3644 126.515C61.6517 126.845 62.1583 127.512 62.4078 128.501C62.6081 129.301 62.559 129.979 62.4947 130.389C62.6951 130.48 63.092 130.627 63.5948 130.582C63.867 130.555 64.09 130.483 64.245 130.415C64.2072 130.108 64.1808 129.669 64.2564 129.146C64.3017 128.816 64.3395 128.566 64.4378 128.426C64.177 127.74 64.3698 126.94 64.3509 126.178Z" fill="#E4B69D"/>
<path d="M64.2227 123.81C64.2 123.889 64.1811 123.969 64.1585 124.048C64.1698 124.064 64.1887 124.086 64.2152 124.113C64.2983 124.2 64.355 124.238 64.3475 124.283C64.3475 124.291 64.3437 124.299 64.3361 124.302C64.2908 124.355 64.1396 124.39 64.1055 124.435C64.1018 124.45 63.9883 124.928 63.9846 124.943C63.9846 124.947 63.9543 125.072 63.9279 125.174C63.9052 125.269 63.8296 125.341 63.7351 125.356C63.512 125.39 63.2928 125.42 63.0886 125.371C62.8391 125.314 62.5027 125.216 62.1133 125.049C62.1473 124.973 62.204 124.856 62.3023 124.738C62.4951 124.511 62.669 124.477 62.8467 124.318C62.9601 124.215 63.1037 124.037 63.1831 123.704C63.5309 123.745 63.8749 123.776 64.2227 123.81Z" fill="#EFC7B0"/>
<path d="M64.8306 126.394C64.6378 126.565 64.3883 126.818 64.1577 127.171C63.9346 127.52 63.8061 127.846 63.7305 128.088C63.7721 128.126 63.8174 128.175 63.8628 128.232C63.9989 128.41 64.0556 128.592 64.0783 128.713C64.4941 128.516 64.944 128.266 65.3598 128.069C65.3371 127.853 65.2691 127.664 65.201 127.402C65.1027 126.997 64.9629 126.659 64.8306 126.394Z" fill="#FFAB00"/>
<path d="M64.8304 126.387C64.8077 126.371 64.7737 126.349 64.7321 126.322C64.5733 126.227 64.3692 126.129 63.8588 125.992C63.7303 125.958 63.5602 125.913 63.356 125.871C63.3447 125.996 63.322 126.144 63.2766 126.303C63.1859 126.625 63.0423 126.868 62.9251 127.035C62.6113 126.72 62.4374 126.269 62.0291 125.924C61.4318 126.011 60.9933 126.254 60.7854 126.371C60.5359 126.512 60.3242 126.667 60.1465 126.826C60.2675 126.947 60.4829 127.194 60.6115 127.569C60.7476 127.959 60.7249 128.293 60.6984 128.467C60.6644 128.808 60.6984 129.073 60.7362 129.244C60.8043 129.57 60.9101 129.729 61.0689 130.176C61.1747 130.476 61.239 130.722 61.2768 130.874C62.2597 130.866 63.2388 130.855 64.2217 130.847C64.2784 130.612 64.3427 130.415 64.3994 130.256C64.5582 129.809 64.6073 129.669 64.7056 129.308C64.7737 129.051 64.8077 128.922 64.8266 128.759C64.8531 128.497 64.8228 128.395 64.8115 127.929C64.8077 127.793 64.8077 127.649 64.8115 127.36C64.8077 127.095 64.8153 126.765 64.8304 126.387Z" fill="#FFC400"/>
<path d="M67.5683 126.049C67.5608 126.045 67.5494 126.045 67.5456 126.045C67.5078 126.053 66.9597 126.265 66.9937 126.405C66.9975 126.417 67.0164 126.485 67.0164 126.485C67.0391 126.531 67.058 126.531 67.0618 126.557C67.0693 126.603 67.0202 126.629 67.0315 126.667C67.0391 126.697 67.0655 126.693 67.0769 126.728C67.0882 126.758 67.0731 126.781 67.0693 126.8C67.0504 126.872 67.1185 126.963 67.1525 126.993C67.2924 127.103 67.7384 126.891 67.7611 126.663C67.7687 126.595 67.7384 126.531 67.7611 126.375C67.7687 126.307 67.78 126.296 67.7687 126.269C67.7384 126.182 67.5834 126.114 67.5759 126.072C67.5797 126.068 67.5759 126.053 67.5683 126.049Z" fill="#E4B69D"/>
<path d="M64.703 145.552C64.6917 145.552 64.6841 145.552 64.6728 145.552C64.5329 145.536 64.4346 145.408 64.4535 145.271L69.1147 106.092C69.1298 105.956 69.2584 105.857 69.3945 105.872C69.5343 105.887 69.6326 106.016 69.6137 106.153L64.9525 145.332C64.9412 145.457 64.8315 145.552 64.703 145.552Z" fill="#FFC400"/>
<path d="M71.2342 145.715C71.2077 145.715 71.1813 145.711 71.1548 145.703C71.0225 145.658 70.9507 145.517 70.996 145.385L81.0292 114.968C81.0745 114.835 81.2144 114.763 81.3467 114.809C81.479 114.854 81.5508 114.994 81.5055 115.127L71.4724 145.544C71.4383 145.65 71.34 145.715 71.2342 145.715Z" fill="#FFC400"/>
<path d="M71.2305 145.502L73.907 137.108C73.9675 136.6 70.3837 135.755 65.904 135.217C63.5866 134.94 61.4809 134.8 59.9801 134.8C58.5814 134.8 57.7081 134.921 57.6816 135.167L57.8291 137.21L61.3599 145.214C62.3164 145.423 63.4392 145.612 64.6527 145.756C68.2176 146.181 71.1625 146.067 71.2305 145.502Z" fill="url(#paint16_linear)"/>
<path d="M55.6514 111.36C55.5115 111.371 55.4094 111.492 55.4208 111.633L57.4433 136.342L58.0633 137.748L55.9236 111.591C55.9122 111.455 55.795 111.352 55.6514 111.36Z" fill="#FFAB00"/>
<path d="M103.014 135.327C102.855 135.327 102.722 135.198 102.719 135.035L102.129 99.3429C102.125 99.1799 102.258 99.0472 102.42 99.0435C102.594 99.0548 102.715 99.1723 102.719 99.3353L103.308 135.028C103.312 135.191 103.18 135.323 103.017 135.327H103.014Z" fill="#0057D8"/>
<path d="M116.496 137.718C116.462 137.718 116.424 137.711 116.39 137.699C116.239 137.643 116.163 137.472 116.22 137.317L128.839 104.364C128.896 104.213 129.07 104.137 129.221 104.194C129.372 104.251 129.448 104.421 129.391 104.576L116.772 137.529C116.727 137.646 116.613 137.718 116.496 137.718Z" fill="#0065FF"/>
<path d="M109.78 136.366C109.765 136.366 109.746 136.366 109.728 136.362C109.569 136.332 109.459 136.18 109.489 136.021L116.982 93.5407C117.009 93.3815 117.164 93.2716 117.322 93.3019C117.481 93.3322 117.591 93.4838 117.561 93.643L110.068 136.123C110.045 136.263 109.92 136.366 109.78 136.366Z" fill="#0065FF"/>
<path d="M116.276 113.369C124.168 113.369 130.566 106.955 130.566 99.0433C130.566 91.1315 124.168 84.7178 116.276 84.7178C108.384 84.7178 101.986 91.1315 101.986 99.0433C101.986 106.955 108.384 113.369 116.276 113.369Z" fill="url(#paint17_linear)"/>
<path d="M114.473 108.548C113.327 108.313 112.586 107.191 112.821 106.039C113.055 104.891 114.174 104.148 115.323 104.383C116.469 104.618 117.21 105.74 116.975 106.892C116.741 108.044 115.622 108.783 114.473 108.548Z" fill="white"/>
<path d="M115.693 102.575C114.532 102.337 113.769 101.222 113.961 100.051L115.285 92.0206C115.515 90.6108 116.872 89.6747 118.271 89.9628C119.67 90.2508 120.551 91.6454 120.21 93.0325L118.275 100.934C117.991 102.094 116.853 102.814 115.693 102.575Z" fill="white"/>
<path opacity="0.4" d="M120.994 107.646C115.785 103.36 117.459 96.6708 112.242 91.8501C110.968 90.6715 109.124 89.4663 106.379 88.7046C104.266 90.7359 102.75 93.4343 102.202 96.5457C100.826 104.338 106.012 111.769 113.785 113.149C118.159 113.926 122.419 112.618 125.553 109.939C123.965 109.511 122.393 108.798 120.994 107.646Z" fill="url(#paint18_linear)"/>
<path d="M105.899 120.297C106.163 119.952 106.046 119.444 105.653 119.247C105.388 119.114 105.071 119.164 104.867 119.372C104.602 119.641 104.062 119.925 103.517 121.335C103.332 121.82 103.196 122.279 103.094 122.688C103.105 123.041 103.109 123.548 103.109 123.548C103.116 124.291 103.132 124.265 103.135 124.773C103.135 125.023 103.135 125.39 103.116 125.841C103.158 125.86 103.23 125.898 103.317 125.94C103.729 124.636 104.145 123.332 104.557 122.029L105.899 120.297Z" fill="#D4B696"/>
<path d="M116.484 137.466C116.589 136.874 113.655 135.86 109.932 135.2C106.209 134.54 103.106 134.484 103.001 135.076C102.897 135.667 105.831 136.682 109.554 137.342C113.277 138.002 116.38 138.057 116.484 137.466Z" fill="#0065FF" stroke="#0065FF" stroke-width="0.5769" stroke-miterlimit="10"/>
<path d="M102.859 125.8L103.007 135.073L116.488 137.465L119.799 128.801L102.859 125.8Z" fill="#0065FF" stroke="#0065FF" stroke-width="0.5769" stroke-miterlimit="10" stroke-linecap="round"/>
<path d="M118.378 128.971C116.767 128.971 114.076 128.664 111.18 128.149C108.923 127.747 106.817 127.274 105.252 126.807C102.98 126.133 102.969 125.814 102.969 125.814C102.969 125.814 103.037 125.625 104.281 125.625C105.891 125.625 108.583 125.932 111.478 126.447C113.735 126.849 115.841 127.323 117.406 127.789C119.678 128.464 119.689 128.782 119.689 128.782C119.689 128.786 119.621 128.971 118.378 128.971Z" fill="#0049B0"/>
<path d="M104.281 125.735C105.884 125.735 108.568 126.042 111.46 126.554C116.212 127.395 119.092 128.335 119.538 128.748C119.425 128.79 119.123 128.858 118.378 128.858C116.775 128.858 114.091 128.551 111.199 128.039C106.447 127.198 103.566 126.258 103.12 125.845C103.237 125.807 103.536 125.735 104.281 125.735ZM104.281 125.519C103.415 125.519 102.893 125.61 102.863 125.799C102.769 126.33 106.485 127.433 111.161 128.259C114.163 128.79 116.828 129.081 118.378 129.081C119.243 129.081 119.765 128.991 119.795 128.801C119.89 128.27 116.174 127.168 111.497 126.341C108.5 125.807 105.831 125.519 104.281 125.519Z" fill="#0065FF"/>
<path d="M108.503 126.599C108.689 126.554 108.878 126.493 109.067 126.41L111.974 125.322C112.091 125.356 112.235 125.428 112.352 125.576C112.613 125.902 112.492 126.296 112.48 126.327L112.416 126.618C112.431 126.656 112.446 126.698 112.465 126.736C112.741 127.376 113.051 127.922 113.365 128.392C113.909 128.472 114.435 128.544 114.938 128.604L113.35 124.367C113.153 123.84 112.567 123.552 111.989 123.617C110.9 123.651 109.656 123.825 108.205 124.185C107.347 124.398 106.579 124.655 105.903 124.921C105.895 125.519 106.114 125.868 106.224 126.008C106.67 126.588 107.555 126.827 108.503 126.599Z" fill="url(#paint19_linear)"/>
<path d="M112.354 125.58C112.237 125.432 112.093 125.36 111.976 125.326L109.069 126.413C108.88 126.497 108.691 126.557 108.506 126.603C109.277 126.588 110.048 126.573 110.816 126.557C110.642 126.959 110.46 127.501 110.351 128.153C110.407 128.164 110.464 128.179 110.521 128.191C110.748 128.24 111.194 128.323 112.006 128.483L112.419 126.629L112.483 126.338C112.494 126.303 112.615 125.906 112.354 125.58Z" fill="#0065FF"/>
<path d="M107.081 115.522C107.402 115.37 108.041 115.787 108.366 116.219C108.498 116.393 108.737 116.712 108.74 117.132C108.74 117.432 108.619 117.727 108.797 117.977C108.846 118.049 108.895 118.076 108.926 118.171C108.986 118.345 108.929 118.557 108.82 118.69C108.771 118.75 108.653 118.864 108.018 118.917C107.981 118.921 107.943 118.925 107.901 118.925C107.489 118.951 107.122 118.667 107.043 118.265C106.631 116.211 106.82 115.647 107.081 115.522Z" fill="#091E42"/>
<path d="M106.109 117.932L105.871 118.842L106.495 119.926L107.916 119.808L107.897 118.929C107.735 118.94 107.618 118.906 107.546 118.88C107.432 118.838 107.398 118.796 107.383 118.773C107.338 118.709 107.338 118.637 107.338 118.588C107.338 118.383 107.364 118.186 107.379 118.057C106.956 118.019 106.533 117.978 106.109 117.932Z" fill="#CE9E79"/>
<path d="M108.431 121.593L109.255 122.313C109.448 122.483 109.69 122.59 109.947 122.616L111.814 122.821L111.716 123.374L109.61 123.385C109.35 123.385 109.093 123.306 108.877 123.154L108 122.536L108.431 121.593Z" fill="#CE9E79"/>
<path d="M107.921 121.631C107.936 121.749 107.986 122.021 108.16 122.272C108.296 122.465 108.443 122.556 108.526 122.597C108.689 122.385 108.787 122.26 108.95 122.052C108.821 121.847 108.73 121.453 108.689 121.051C108.662 120.809 108.704 120.775 108.689 120.433C108.67 120.005 108.655 119.634 108.42 119.327C108.345 119.225 108.19 119.065 107.906 118.952C107.914 119.842 107.918 120.737 107.921 121.631Z" fill="#0065FF"/>
<path d="M104.337 121.423C104.416 122.59 104.511 123.981 104.651 125.588C105.728 125.557 107.184 125.319 108.431 124.341C108.548 124.25 108.658 124.155 108.764 124.057C108.892 124.03 109.021 124.003 109.149 123.977C108.972 123.723 108.771 123.367 108.647 122.908C108.59 122.692 108.514 122.416 108.537 122.052C108.575 121.461 108.828 121.404 108.821 120.941C108.817 120.831 108.839 120.665 108.382 119.793C108.269 119.577 108.11 119.285 107.906 118.944C107.777 118.914 107.649 118.883 107.52 118.857C107.679 119.369 107.69 119.676 107.55 119.774C107.342 119.922 106.798 119.596 105.913 118.792C105.736 118.823 105.127 118.952 104.681 119.501C104.023 120.32 104.311 121.332 104.337 121.423Z" fill="#0057D8"/>
<path d="M107.705 115.882C107.853 116.17 107.943 116.678 107.966 116.935C107.966 116.981 107.966 117 108.03 117.072C108.094 117.144 108.197 117.197 108.159 117.25C108.117 117.303 107.973 117.341 107.943 117.39L107.777 118.262L107.399 118.281L106.121 118.341C106.151 118.3 106.941 117.311 106.96 117.246C106.979 117.182 107.009 117.042 107.096 117.03C107.183 117.019 107.524 116.401 107.588 116.325C107.652 116.249 107.652 116.219 107.671 116.094C107.694 115.961 107.705 115.882 107.705 115.882Z" fill="#D4B696"/>
<path d="M107.724 115.7C107.701 116.174 107.523 116.446 107.361 116.693C107.24 116.875 106.782 117.568 106.903 118.345C106.968 118.762 106.635 119.141 106.215 119.141C105.97 119.141 105.747 119.141 105.535 119.08C105.368 119.031 105.089 118.951 104.869 118.735C104.469 118.353 104.491 117.765 104.503 117.436C104.507 117.318 104.537 116.719 104.945 116.128C105.043 115.988 105.149 115.867 105.225 115.795C105.641 115.385 106.911 114.938 107.724 115.7Z" fill="#091E42"/>
<path d="M105.732 119.247C105.467 119.114 105.104 119.175 104.798 119.372C103.921 119.937 103.615 120.759 103.388 121.267C103.259 121.563 103.157 121.851 103.07 122.142C103.482 122.389 104.208 122.749 104.601 122.923C104.601 122.919 104.601 122.919 104.605 122.916C104.73 122.465 104.919 122.033 105.161 121.631L105.974 120.293C106.242 119.952 106.125 119.444 105.732 119.247Z" fill="#0065FF"/>
<path d="M68.8662 123.598C76.3658 123.598 82.4453 117.503 82.4453 109.985C82.4453 102.466 76.3658 96.3716 68.8662 96.3716C61.3667 96.3716 55.2871 102.466 55.2871 109.985C55.2871 117.503 61.3667 123.598 68.8662 123.598Z" fill="url(#paint20_linear)"/>
<path opacity="0.4" d="M67.9745 119.118C63.0222 115.04 64.6138 108.685 59.6539 104.099C59.0755 103.565 58.3686 103.019 57.5066 102.519C56.3914 104.224 55.6391 106.206 55.3821 108.366C54.4937 115.832 59.8127 122.605 67.2562 123.495C70.2616 123.855 73.1499 123.2 75.592 121.801C73.0931 121.665 70.2805 121.02 67.9745 119.118Z" fill="#FF8B00"/>
<path d="M74.0195 97.3872L76.2235 107.73C76.2348 108.351 78.8433 108.825 82.4082 108.923C82.0112 103.788 78.7261 99.32 74.0195 97.3872Z" fill="#FF8B00"/>
<path d="M71.2528 116.309L63.5597 106.456C63.4765 106.35 63.4954 106.191 63.6013 106.107L66.1341 104.121C66.24 104.038 66.3988 104.057 66.4819 104.163L74.175 114.017C74.2582 114.123 74.2393 114.282 74.1334 114.365L71.6006 116.351C71.4947 116.435 71.3359 116.416 71.2528 116.309Z" fill="white"/>
<path d="M64.7496 115.514L62.7687 112.974C62.6855 112.868 62.7044 112.709 62.8103 112.626L72.6393 104.917C72.7451 104.834 72.9039 104.853 72.9871 104.959L74.968 107.498C75.0511 107.604 75.0322 107.763 74.9264 107.847L65.0974 115.555C64.9878 115.639 64.8328 115.62 64.7496 115.514Z" fill="white"/>
<path d="M140.633 77.1193C140.621 77.1193 140.614 77.1193 140.602 77.1193C140.463 77.1041 140.364 76.9752 140.383 76.8388L145.044 37.6596C145.06 37.5194 145.188 37.4209 145.324 37.4398C145.464 37.455 145.562 37.5838 145.543 37.7203L140.882 76.8994C140.867 77.0245 140.757 77.1193 140.633 77.1193Z" fill="#FFC400"/>
<path d="M134.244 75.7399C134.116 75.7399 134.006 75.6414 133.995 75.5087L131.349 43.2005C131.337 43.0603 131.439 42.939 131.579 42.9276C131.719 42.9163 131.84 43.0186 131.851 43.1588L134.498 75.467C134.509 75.6072 134.407 75.7285 134.267 75.7399C134.259 75.7399 134.252 75.7399 134.244 75.7399Z" fill="#FFAB00"/>
<path d="M147.166 77.2824C147.139 77.2824 147.113 77.2786 147.086 77.2711C146.954 77.2256 146.882 77.0854 146.928 76.9527L156.961 46.5356C157.006 46.403 157.146 46.331 157.278 46.3764C157.411 46.4219 157.482 46.5621 157.437 46.6948L147.404 77.1119C147.37 77.218 147.272 77.2824 147.166 77.2824Z" fill="#FFC400"/>
<path d="M147.164 77.0648C147.231 76.4995 144.393 75.6955 140.825 75.269C137.257 74.8425 134.31 74.955 134.243 75.5203C134.176 76.0857 137.014 76.8897 140.582 77.3162C144.15 77.7427 147.097 77.6301 147.164 77.0648Z" fill="#FFAB00" stroke="#FFAB00" stroke-width="0.5481" stroke-miterlimit="10"/>
<path d="M133.609 66.7354L134.241 75.5277L147.158 77.0702L149.839 68.6757L133.609 66.7354Z" fill="#FFAB00" stroke="#FFAB00" stroke-width="0.5481" stroke-miterlimit="10" stroke-linecap="round"/>
<path d="M147.538 68.9373C145.973 68.9373 143.871 68.7895 141.625 68.5204C139.463 68.2627 137.44 67.9216 135.932 67.5654C133.739 67.0461 133.713 66.7468 133.713 66.743C133.713 66.7392 133.804 66.4663 135.909 66.4663C137.474 66.4663 139.576 66.6141 141.822 66.8832C147.08 67.5123 149.768 68.3726 149.734 68.6568C149.734 68.6644 149.643 68.9373 147.538 68.9373Z" fill="#FF991F"/>
<path d="M135.909 66.3677V66.5761C137.47 66.5761 139.564 66.7239 141.806 66.993C146.358 67.5387 149.144 68.274 149.586 68.6416C149.439 68.706 148.97 68.8349 147.537 68.8349C145.976 68.8349 143.881 68.687 141.64 68.418C137.088 67.8722 134.302 67.137 133.86 66.7694C134.007 66.705 134.476 66.5761 135.909 66.5761V66.3677ZM135.909 66.3677C134.51 66.3677 133.637 66.489 133.61 66.7353C133.55 67.2431 137.133 68.0883 141.613 68.6264C143.931 68.9031 146.036 69.0433 147.537 69.0433C148.936 69.0433 149.809 68.922 149.836 68.6757C149.896 68.1678 146.312 67.3227 141.832 66.7846C139.515 66.5079 137.409 66.3677 135.909 66.3677Z" fill="#FFAB00"/>
<path d="M144.796 55.1646C152.295 55.1646 158.375 49.0698 158.375 41.5515C158.375 34.0332 152.295 27.9385 144.796 27.9385C137.296 27.9385 131.217 34.0332 131.217 41.5515C131.217 49.0698 137.296 55.1646 144.796 55.1646Z" fill="url(#paint21_linear)"/>
<path opacity="0.4" d="M146.418 50.7913C141.466 46.7135 143.057 40.358 138.098 35.7723C137.134 34.8817 135.822 33.9721 134.015 33.271C132.582 35.147 131.61 37.4171 131.312 39.9335C130.423 47.3994 135.742 54.1719 143.186 55.0625C146.305 55.4339 149.299 54.7138 151.794 53.2055C149.945 52.8568 148.055 52.1405 146.418 50.7913Z" fill="#FF8B00"/>
<path d="M147.182 47.8768L139.489 38.0233C139.406 37.9172 139.425 37.758 139.531 37.6746L142.064 35.6887C142.17 35.6054 142.328 35.6243 142.412 35.7304L150.105 45.584C150.188 45.6901 150.169 45.8493 150.063 45.9326L147.53 47.9185C147.424 48.0019 147.269 47.9829 147.182 47.8768Z" fill="white"/>
<path d="M140.679 47.081L138.698 44.5418C138.615 44.4357 138.634 44.2765 138.74 44.1931L148.569 36.4846C148.675 36.4013 148.834 36.4202 148.917 36.5263L150.898 39.0655C150.981 39.1716 150.962 39.3308 150.856 39.4142L141.027 47.1227C140.917 47.206 140.762 47.1871 140.679 47.081Z" fill="white"/>
<path d="M85.7174 49.082L85.2676 49.0908L86.3714 105.536L86.8212 105.528L85.7174 49.082Z" fill="#36B37E"/>
<path d="M78.1601 106.183C78.0581 106.183 77.9635 106.111 77.9409 106.005L68.2631 61.8004C68.2366 61.6792 68.3122 61.5579 68.4332 61.5314C68.5542 61.501 68.6751 61.5806 68.7016 61.7019L78.3794 105.906C78.4058 106.028 78.3302 106.149 78.2093 106.175C78.1941 106.183 78.1752 106.183 78.1601 106.183Z" fill="#36B37E"/>
<path d="M95.0472 105.842C95.0359 105.842 95.0208 105.842 95.0094 105.838C94.8884 105.815 94.8053 105.698 94.828 105.577L102.68 61.5314C102.702 61.4101 102.82 61.3267 102.941 61.3494C103.062 61.3722 103.145 61.4897 103.122 61.6109L95.2703 105.656C95.2514 105.766 95.1568 105.842 95.0472 105.842Z" fill="#2DB07C"/>
<path d="M86.3962 95.2645C88.9593 95.2152 91.443 95.0636 93.3899 94.8362C95.9455 94.5406 96.7053 94.2299 96.9246 94.101C96.7129 93.9873 96.0022 93.7258 93.715 93.5325C91.7039 93.362 89.0916 93.2976 86.3584 93.3506C83.7953 93.3999 81.3116 93.5515 79.3647 93.7789C76.8092 94.0745 76.0456 94.3853 75.8301 94.5141C76.0418 94.6278 76.7525 94.8893 79.0396 95.0826C81.0508 95.2531 83.663 95.3176 86.3962 95.2645Z" fill="#008364"/>
<path d="M97.269 94.0897C97.2539 93.4075 92.3696 92.9528 86.3551 93.0702C83.6748 93.1233 81.2251 93.2825 79.3349 93.4985C76.976 93.7714 75.4827 94.139 75.4903 94.5179C75.4903 94.5331 75.494 94.5521 75.5016 94.5672L77.9399 106.009C77.9551 106.767 81.8489 107.309 86.6348 107.214C91.4208 107.119 95.2919 106.426 95.2768 105.668L97.2652 94.139C97.2652 94.1238 97.269 94.1087 97.269 94.0897ZM75.8305 94.5142C76.046 94.3853 76.8058 94.0745 79.3652 93.7789C81.312 93.5553 83.7958 93.4 86.3589 93.3507C89.0921 93.2976 91.7043 93.3621 93.7155 93.5326C96.0026 93.7259 96.7133 93.9874 96.925 94.1011C96.7095 94.2299 95.9497 94.5407 93.3904 94.8363C91.4435 95.0599 88.956 95.2153 86.3967 95.2645C83.6634 95.3176 81.0512 95.2532 79.04 95.0826C76.7529 94.8894 76.0422 94.6279 75.8305 94.5142Z" fill="url(#paint22_linear)"/>
<path opacity="0.4" d="M96.9254 94.0972C96.7099 94.226 95.95 94.5368 93.3907 94.8324C93.3264 94.84 93.2584 94.8475 93.1941 94.8551C91.5459 96.6477 90.4836 98.9974 90.3248 101.616C90.2114 103.5 90.5819 105.304 91.3266 106.899C93.7083 106.607 95.2809 106.149 95.2695 105.667L97.258 94.1388C97.2618 94.1237 97.2656 94.1047 97.2656 94.0896C97.258 93.7978 96.3621 93.5476 94.8726 93.3657C94.763 93.4453 94.6571 93.5249 94.5513 93.6083C96.1844 93.7902 96.7439 93.9986 96.9254 94.0972Z" fill="url(#paint23_linear)"/>
<path d="M85.6717 76.1677C95.5556 76.1677 103.568 68.1352 103.568 58.2267C103.568 48.3181 95.5556 40.2856 85.6717 40.2856C75.7878 40.2856 67.7754 48.3181 67.7754 58.2267C67.7754 68.1352 75.7878 76.1677 85.6717 76.1677Z" fill="url(#paint24_linear)"/>
<path d="M83.2713 67.7204L75.6576 61.2133C75.3401 60.9404 75.3023 60.4629 75.5745 60.1407L78.1754 57.0823C78.4476 56.764 78.9239 56.7261 79.2452 56.999L83.2411 60.4174L91.9775 50.2076C92.2497 49.8893 92.7298 49.8514 93.0474 50.1242L96.0906 52.7392C96.4081 53.0121 96.4459 53.4934 96.1737 53.8117L84.3449 67.637C84.069 67.9516 83.5889 67.9895 83.2713 67.7204Z" fill="white"/>
<path opacity="0.4" d="M86.6622 67.4739C80.6325 62.5092 82.568 54.7666 76.5307 49.1842C75.476 48.2102 74.0773 47.2173 72.206 46.4062C69.3707 49.6503 67.6847 53.9253 67.7792 58.5792C67.972 68.4858 76.1414 76.361 86.0233 76.1639C90.3102 76.0806 94.2153 74.4888 97.2472 71.908C97.6215 71.582 97.9541 71.2751 98.2415 70.9908C98.3171 70.915 98.3927 70.843 98.4645 70.7672C94.9261 70.9075 90.2838 70.4565 86.6622 67.4739Z" fill="url(#paint25_linear)"/>
<path d="M82.6089 90.8423C82.2838 90.6301 81.8831 90.3155 81.505 89.8607C80.7489 88.9474 80.5108 87.9772 80.4238 87.4656C80.5675 86.7531 80.972 85.3205 82.2044 84.5701C82.7601 84.2328 83.6447 83.9372 83.8829 84.2063C84.1324 84.4868 83.3574 85.4759 83.1911 85.7033C82.6694 86.3135 82.1439 86.9236 81.6222 87.53C81.7848 87.7725 81.9511 88.0454 82.1137 88.3524C82.3821 88.8678 82.5711 89.3567 82.6996 89.7811C82.6694 90.1336 82.6391 90.4898 82.6089 90.8423Z" fill="#926D5A"/>
<path d="M86.3972 95.2651C87.4784 95.2423 88.5407 95.2044 89.5576 95.1476C89.0813 93.2792 88.6881 91.9679 88.5369 91.5889C88.3479 91.119 88.1589 90.7249 87.9056 90.308C87.3953 89.4704 86.8206 88.8754 86.4199 88.5078C85.1875 88.7996 83.9513 89.0914 82.7189 89.3833C82.4241 90.2625 82.1443 91.21 81.8948 92.2332C81.6415 93.2754 81.4563 94.2759 81.3164 95.2234C82.8701 95.284 84.6053 95.2992 86.3972 95.2651Z" fill="url(#paint26_linear)"/>
<path d="M81.5808 87.6892C81.6337 87.6892 81.6828 87.693 81.7357 87.6967C81.6979 87.6399 81.6601 87.5831 81.6261 87.53C82.1478 86.9198 82.6733 86.3097 83.195 85.7033C83.3613 85.4759 84.1363 84.4906 83.8868 84.2063C83.6486 83.9372 82.764 84.2328 82.2083 84.5701C80.9721 85.3205 80.5676 86.7531 80.4277 87.4656C80.4504 87.5982 80.4844 87.765 80.5336 87.9545C80.8171 87.7877 81.1687 87.6892 81.5808 87.6892Z" fill="#2DB07C"/>
<path d="M93.3836 81.0758C93.2928 81.0076 93.2437 81.0189 93.2248 80.9697C93.1908 80.8939 93.2664 80.7877 93.4289 80.6058C93.6709 80.333 93.8297 80.1548 94.1207 79.954C94.2001 79.9009 94.306 79.8289 94.4421 79.7607C94.5404 79.7114 94.8693 79.5523 94.9411 79.6167C94.9789 79.6546 94.9676 79.738 94.8844 79.7796C94.805 79.8213 94.8655 79.7834 94.737 79.8517C94.6765 79.882 94.3287 80.1283 94.4156 80.2117C94.4307 80.2268 94.4496 80.2306 94.4648 80.2458C94.4837 80.2648 94.4837 80.2837 94.4874 80.3026C94.5063 80.3519 94.5479 80.3671 94.5706 80.3898C94.6462 80.458 94.582 80.6437 94.5744 80.6665C94.5026 80.8749 94.2795 80.9545 94.2417 80.9659C94.2039 81.0455 94.117 81.1857 93.9544 81.2842C93.8675 81.3373 93.7427 81.4093 93.6331 81.3676C93.5272 81.3183 93.5499 81.197 93.3836 81.0758Z" fill="#926D5A"/>
<path d="M83.3537 80.4959C83.6448 80.151 84.4236 80.1055 84.8394 80.4163C84.8545 80.4277 84.8734 80.4428 84.9528 80.5224C85.535 81.0833 86.0151 81.5343 85.9849 82.08C85.9773 82.1975 85.9584 82.2923 85.9357 82.3605C86.034 82.387 86.1739 82.4401 86.2835 82.5651C86.5406 82.857 86.4612 83.361 86.2419 83.6604C85.9131 84.1076 85.2326 84.1644 84.8319 83.9333C84.7222 83.8726 84.6164 83.7779 84.6164 83.7779C84.5408 83.6983 84.4311 83.5732 84.3102 83.4141C83.7053 82.6296 82.8547 81.0871 83.3537 80.4959Z" fill="#172B4D"/>
<path d="M84.2753 80.3823C84.5777 80.5908 84.9482 81.0455 85.1107 81.2881C85.1372 81.3336 85.1447 81.3525 85.2468 81.3866C85.3527 81.4207 85.4812 81.4169 85.4699 81.4927C85.4585 81.5685 85.3338 81.686 85.33 81.7505L85.5795 82.5198C85.6135 82.6297 85.5719 82.751 85.4736 82.8116L85.2771 82.9329L84.0371 83.6946C84.1467 83.2171 84.2299 82.6979 84.2753 82.1408C84.2828 82.0423 84.2904 81.9475 84.2942 81.8528C84.3622 81.7618 84.4908 81.5685 84.5286 81.2919C84.5361 81.2464 84.5626 81.0114 84.4643 80.731C84.4076 80.5756 84.332 80.4581 84.2753 80.3823Z" fill="#926D5A"/>
<path d="M85.0514 84.3275L83.4598 84.4715C83.4787 84.2366 83.4863 83.9561 83.456 83.6378C83.4258 83.3194 83.3691 83.0428 83.3086 82.8154C83.8378 82.7661 84.3709 82.7207 84.9001 82.6714L85.0514 84.3275Z" fill="#926D5A"/>
<path d="M81.7402 84.9186C81.831 84.839 81.9217 84.7632 82.0086 84.6837C82.0086 84.6837 82.3451 84.4108 82.7798 84.2516C83.5548 83.9674 85.1275 83.9181 86.1708 83.8499C86.8437 83.8044 87.3125 83.7741 87.9401 83.668C88.8814 83.5088 89.6337 83.2738 90.1289 83.0957C90.3368 82.9365 90.6203 82.7243 90.9606 82.4742C91.8792 81.8034 92.2459 81.5836 92.8432 81.0871C93.0549 80.9128 93.3271 80.674 93.6295 80.3784C93.6711 80.4732 93.7165 80.5944 93.7467 80.7384C93.7883 80.9469 93.7807 81.125 93.7656 81.2539C92.8243 82.7395 91.7658 83.5429 91.108 83.956C90.3633 84.4259 89.6185 84.7178 89.0931 84.9224C88.2009 85.2749 87.4184 85.4871 86.8286 85.6197C86.9269 85.7562 87.0479 85.9646 87.1159 86.2413C87.2142 86.6316 87.1197 86.8287 87.0592 87.3896C86.9572 88.3029 87.0554 89.1708 87.0554 89.1708C87.0554 89.1708 86.4808 89.527 84.8099 89.527C83.8005 89.527 83.5737 89.4702 82.7194 89.3717C82.7534 88.6175 82.708 87.5601 82.3413 86.3739C82.1674 85.813 81.9557 85.3241 81.7402 84.9186Z" fill="#926D5A"/>
<path d="M89.6754 84.6911C89.6754 84.2098 89.6754 83.7285 89.6754 83.251C89.2179 83.395 88.632 83.5542 87.944 83.6679C87.3202 83.774 86.8476 83.8043 86.1747 83.8498C85.1314 83.918 83.5587 83.9673 82.7837 84.2515C82.349 84.4107 82.0125 84.6835 82.0125 84.6835C81.9218 84.7631 81.8311 84.8389 81.7441 84.9185C81.9558 85.324 82.1713 85.8129 82.349 86.3814C82.7157 87.5676 82.7611 88.625 82.727 89.3791C83.5814 89.4777 83.8082 89.5345 84.8176 89.5345C86.4885 89.5345 87.0631 89.1783 87.0631 89.1783C87.0631 89.1783 86.9648 88.3104 87.0669 87.3971C87.1274 86.8362 87.2219 86.6391 87.1236 86.2487C87.0556 85.9721 86.9308 85.7636 86.8363 85.6272C87.4223 85.4946 88.2086 85.2823 89.1008 84.9299C89.2557 84.8654 89.4523 84.7859 89.6754 84.6911Z" fill="url(#paint27_linear)"/>
<path d="M84.0824 80.3746C84.2714 80.765 84.2487 81.0644 84.226 81.3296C84.1844 81.8261 84.4226 82.0383 84.5851 82.8569C84.6986 83.4254 84.7553 83.7096 84.6456 83.937C84.313 84.6116 82.8235 84.9072 82.3396 84.263C82.0712 83.9029 82.2073 83.3724 82.2602 83.1904C82.1468 82.9441 81.9843 82.4969 82.041 81.9474C82.0599 81.7844 82.0939 81.6404 82.1203 81.557C82.2753 81.0378 83.0995 80.1207 84.0824 80.3746Z" fill="#172B4D"/>
<path d="M140.32 63.252C139.965 64.8664 139.609 66.4809 139.258 68.0953C139.851 68.1787 140.445 68.2621 141.042 68.3455C141.254 67.2464 141.363 66.9016 141.413 66.9091C141.466 66.9167 141.481 67.2692 141.413 68.3644C142.074 68.444 142.736 68.5236 143.394 68.6032C143.499 67.4056 143.56 66.1436 143.567 64.8209C143.567 64.4533 143.567 64.0895 143.56 63.7295C142.479 63.5741 141.401 63.4111 140.32 63.252Z" fill="#0057D8"/>
<path d="M141.145 58.8106C141.153 58.7727 141.225 58.7273 141.285 58.7121C141.327 58.7045 141.349 58.7121 141.41 58.7083C141.41 58.7083 141.485 58.7045 141.561 58.6704C141.663 58.6287 141.727 58.3862 141.697 58.0868C142.094 58.0603 142.491 58.0299 142.888 58.0034C142.827 58.1815 142.729 58.515 142.793 58.6704C142.797 58.6818 142.805 58.6894 142.805 58.6894C142.824 58.7197 142.85 58.7614 142.895 58.8031C143.001 58.9016 143.096 58.8978 143.103 58.9357C143.115 59.0001 142.805 59.1669 142.423 59.2086C141.754 59.2768 141.122 58.9319 141.145 58.8106Z" fill="#9C7761"/>
<path d="M141.277 60.4173C141.081 60.584 140.476 60.1596 140.071 59.8791C139.64 59.5759 138.813 58.9772 138.291 57.8629C138.257 57.7947 138.17 57.5977 138.083 57.3324C137.875 56.6995 137.833 56.1575 137.788 55.4905C137.777 55.3313 137.765 55.1153 137.758 54.8576C137.811 54.8349 137.875 54.8084 137.958 54.7932C138.147 54.7629 138.306 54.8121 138.385 54.8425C138.593 55.7103 138.767 56.4456 138.971 57.3134C139.058 57.4044 139.198 57.5522 139.38 57.7303C140.279 58.6058 140.676 58.7157 141.028 59.2993C141.255 59.6821 141.455 60.2657 141.277 60.4173Z" fill="#B08874"/>
<path d="M141.571 56.8776C141.481 56.817 141.344 56.7374 141.254 56.5668C141.125 56.3319 141.102 55.9529 141.299 55.8089C141.394 55.7369 141.518 55.7482 141.605 55.752C141.798 55.7634 141.934 55.8544 141.995 55.8998C142.063 55.8847 142.161 55.8619 142.278 55.8544C142.482 55.8392 142.83 55.8051 143.121 56.0135C143.495 56.2826 143.556 56.7336 143.556 56.7639C143.598 57.1808 143.352 57.4953 143.099 57.8213C142.981 57.9729 142.921 58.0487 142.853 58.0638C142.524 58.1434 142.361 57.4044 141.571 56.8776Z" fill="#C1C7D0"/>
<path d="M143.084 57.2642C143.148 57.287 143.144 57.5674 143.042 57.7948C142.872 58.1738 142.464 58.3102 142.309 58.3595C142.157 58.4088 142.014 58.4542 141.847 58.3974C141.658 58.333 141.56 58.1776 141.519 58.1132C141.417 57.954 141.401 57.7721 141.364 57.4007C141.348 57.2605 141.341 57.1581 141.345 57.0103C141.348 56.7905 141.379 56.6086 141.405 56.4722C141.515 56.5442 141.689 56.6427 141.919 56.7071C142.362 56.8284 142.672 56.7223 142.77 56.8928C142.857 57.0444 142.698 57.2718 142.819 57.3741C142.853 57.4045 142.898 57.4083 142.925 57.412C142.982 57.3287 143.046 57.2491 143.084 57.2642Z" fill="#B08874"/>
<path d="M140.049 58.189C139.909 58.314 139.769 58.4429 139.625 58.5793C139.444 58.7537 139.27 58.9242 139.107 59.0947C139.27 59.2425 139.433 59.3903 139.606 59.5381C139.848 59.7504 140.09 59.9474 140.329 60.1369C140.434 60.1218 140.597 60.0801 140.771 59.9778C140.862 59.9247 141.19 59.7314 141.289 59.3828C141.33 59.2312 141.3 59.144 141.383 58.8977C141.421 58.7878 141.444 58.7574 141.44 58.7271C141.44 58.7271 141.44 58.7158 141.436 58.7082C141.402 58.5983 140.873 58.4997 140.741 58.4694C140.567 58.4391 140.328 58.3633 140.049 58.189Z" fill="#0065FF"/>
<path d="M140.83 58.621C140.573 58.602 140.29 58.8976 140.169 59.1364C139.987 59.4926 140.203 59.6632 140.282 60.5273C140.312 60.857 140.297 61.3572 140.274 62.3577C140.271 62.5434 140.267 62.6382 140.263 62.7519C140.24 63.2484 140.176 63.8888 140.01 64.6392C140.713 64.7605 141.529 64.8439 142.437 64.8363C142.853 64.8325 143.25 64.8098 143.616 64.7719C143.639 64.3739 143.681 63.813 143.741 63.1422C143.756 62.9679 143.794 62.5548 143.836 62.1948C143.907 61.5998 144.028 60.7736 144.259 59.7693C144.263 59.6935 144.259 59.5836 144.206 59.4699C144.134 59.3145 144.002 59.2198 143.654 59.0644C143.461 58.9772 143.2 58.8673 142.879 58.7688C142.611 59.0796 142.214 59.2084 141.877 59.0947C141.613 59.0038 141.473 58.7953 141.427 58.7157C141.363 58.7081 141.265 58.6968 141.14 58.674C140.906 58.6286 140.868 58.6248 140.83 58.621Z" fill="#0065FF"/>
<path d="M137.383 54.312C137.507 54.509 137.632 54.7061 137.757 54.9032C137.965 54.8842 138.173 54.8615 138.381 54.8425L138.49 54.2513C138.49 54.2513 138.585 53.6487 138.468 53.5009C138.449 53.4744 138.4 53.4782 138.366 53.5085C138.313 53.5502 138.286 53.7511 138.286 53.7511L138.199 53.9595C138.199 53.9595 138.154 53.2281 138.131 53.0158C138.127 52.9779 137.984 52.9779 137.98 53.0158C137.954 53.1826 137.931 53.7776 137.931 53.7776C137.931 53.7776 137.848 53.1561 137.791 52.9931C137.78 52.9552 137.644 52.9779 137.64 53.0158C137.61 53.1826 137.715 53.8572 137.715 53.8572C137.715 53.8572 137.594 53.338 137.526 53.1599C137.511 53.1258 137.379 53.1485 137.383 53.1826C137.398 53.3873 137.496 53.9785 137.496 53.9785C137.496 53.9785 137.417 53.5919 137.356 53.3948C137.349 53.3683 137.254 53.4251 137.258 53.4517C137.277 53.6563 137.383 54.312 137.383 54.312Z" fill="#B08874"/>
<path d="M144.706 60.6445C144.781 60.925 144.853 61.213 144.921 61.5086C145.057 62.0847 145.167 62.6456 145.258 63.1799C145.205 63.54 145.14 63.9151 145.061 64.3055C144.895 65.1089 144.69 65.8366 144.467 66.4884C144.275 66.4695 144.086 66.4467 143.893 66.4278C143.953 65.9844 144.01 65.5372 144.063 65.0862C144.135 64.4836 144.199 63.8924 144.26 63.305C144.188 62.9563 144.108 62.6039 144.025 62.2476C143.912 61.7549 143.791 61.2812 143.666 60.8189C144.014 60.7582 144.358 60.7014 144.706 60.6445Z" fill="#B08874"/>
<path d="M143.515 61.6188C143.651 61.4975 143.874 61.3269 144.184 61.2019C144.517 61.0654 144.812 61.0351 145.001 61.0313C144.872 60.7092 144.752 60.4325 144.653 60.2127C144.377 59.5988 144.249 59.3941 144.011 59.2842C143.973 59.2691 143.977 59.2729 143.708 59.2046C142.979 59.0265 142.948 58.9886 142.895 59.0265C142.604 59.216 143.062 60.4439 143.239 60.9404C143.33 61.1943 143.436 61.4444 143.436 61.4444C143.47 61.5089 143.493 61.5695 143.515 61.6188Z" fill="#0065FF"/>
<path d="M144.044 66.3369L143.576 66.6136C143.504 66.6553 143.451 66.7235 143.424 66.8031L143.205 67.4966L143.579 67.561C143.734 67.5876 143.886 67.5156 143.965 67.3791L144.199 66.9698L144.468 66.4658L144.044 66.3369Z" fill="#B08874"/>
<path d="M84.0352 158.547L84.1902 160.017H99.1075L99.1567 159.843L84.0352 158.547Z" fill="#48CC8C"/>
<path d="M81.5407 135.073C81.397 135.088 81.295 135.217 81.3101 135.361L83.9337 160.018H84.4554L81.828 135.308C81.8091 135.164 81.6806 135.058 81.5407 135.073Z" fill="#48CC8C"/>
<path d="M94.186 128.843C94.0461 128.835 93.9176 128.937 93.9063 129.081L91.2676 160.018H91.7893L94.4242 129.127C94.4317 128.983 94.3259 128.858 94.186 128.843Z" fill="#48CC8C"/>
<path d="M105.497 137.476C105.361 137.434 105.217 137.518 105.176 137.654L98.8359 160.014H99.3765L105.675 137.794C105.712 137.658 105.633 137.514 105.497 137.476Z" fill="#48CC8C"/>
<path d="M93.713 146.609C100.676 146.609 106.321 140.95 106.321 133.97C106.321 126.99 100.676 121.331 93.713 121.331C86.7501 121.331 81.1055 126.99 81.1055 133.97C81.1055 140.95 86.7501 146.609 93.713 146.609Z" fill="#48CC8C"/>
<path d="M91.0998 140.25L86.1966 134.971C85.9925 134.751 86.0038 134.406 86.2231 134.197L88.3326 132.227C88.5518 132.022 88.8958 132.033 89.1038 132.253L91.6782 135.027L98.7588 128.456C98.9781 128.251 99.3259 128.263 99.53 128.486L101.488 130.608C101.692 130.828 101.681 131.177 101.458 131.382L91.8672 140.28C91.6479 140.481 91.3039 140.47 91.0998 140.25Z" fill="white"/>
<path opacity="0.4" d="M97.3264 146.083C96.1544 145.654 95.0128 145.044 93.9694 144.188C88.8318 139.958 90.4839 133.364 85.3388 128.608C84.7528 128.066 84.0459 127.52 83.184 127.012C82.0612 128.718 81.3354 130.715 81.1501 132.894C80.5566 139.848 85.7017 145.969 92.6387 146.564C94.268 146.708 95.8482 146.526 97.3264 146.083Z" fill="url(#paint28_linear)"/>
</g>
<defs>
<linearGradient id="paint0_linear" x1="75.2815" y1="38.9739" x2="155.273" y2="38.9739" gradientUnits="userSpaceOnUse">
<stop stop-color="#78F0B7"/>
<stop offset="1" stop-color="#78F0B7" stop-opacity="0"/>
</linearGradient>
<linearGradient id="paint1_linear" x1="106.726" y1="9.65335" x2="128.584" y2="12.425" gradientUnits="userSpaceOnUse">
<stop stop-color="#48CC8C"/>
<stop offset="1" stop-color="#78F0B7"/>
</linearGradient>
<linearGradient id="paint2_linear" x1="103.224" y1="11.1068" x2="125.234" y2="13.8977" gradientUnits="userSpaceOnUse">
<stop stop-color="#36B37E"/>
<stop offset="1" stop-color="#36B37E" stop-opacity="0.1"/>
</linearGradient>
<linearGradient id="paint3_linear" x1="116.197" y1="29.7749" x2="122.023" y2="25.0946" gradientUnits="userSpaceOnUse">
<stop stop-color="#48CC8C"/>
<stop offset="1" stop-color="#78F0B7"/>
</linearGradient>
<linearGradient id="paint4_linear" x1="161.013" y1="127.3" x2="109.933" y2="127.3" gradientUnits="userSpaceOnUse">
<stop stop-color="#78F0B7"/>
<stop offset="1" stop-color="#78F0B7" stop-opacity="0"/>
</linearGradient>
<linearGradient id="paint5_linear" x1="0" y1="153.439" x2="110.576" y2="153.439" gradientUnits="userSpaceOnUse">
<stop stop-color="#78F0B7"/>
<stop offset="1" stop-color="#78F0B7" stop-opacity="0"/>
</linearGradient>
<linearGradient id="paint6_linear" x1="-0.000125872" y1="109.983" x2="79.9915" y2="109.983" gradientUnits="userSpaceOnUse">
<stop stop-color="#78F0B7" stop-opacity="0"/>
<stop offset="1" stop-color="#78F0B7"/>
</linearGradient>
<linearGradient id="paint7_linear" x1="128.679" y1="165.905" x2="165.005" y2="165.905" gradientUnits="userSpaceOnUse">
<stop stop-color="#78F0B7" stop-opacity="0"/>
<stop offset="1" stop-color="#78F0B7"/>
</linearGradient>
<linearGradient id="paint8_linear" x1="21.8331" y1="66.5024" x2="58.1592" y2="66.5024" gradientUnits="userSpaceOnUse">
<stop stop-color="#78F0B7" stop-opacity="0"/>
<stop offset="1" stop-color="#78F0B7"/>
</linearGradient>
<linearGradient id="paint9_linear" x1="87.8549" y1="160.016" x2="87.8549" y2="88.2389" gradientUnits="userSpaceOnUse">
<stop stop-color="#B2D4FF"/>
<stop offset="1" stop-color="#DEEBFF"/>
</linearGradient>
<linearGradient id="paint10_linear" x1="35.2742" y1="91.2973" x2="112.941" y2="91.2973" gradientUnits="userSpaceOnUse">
<stop stop-color="#0065FF"/>
<stop offset="1" stop-color="#4C9AFF"/>
</linearGradient>
<linearGradient id="paint11_linear" x1="82.4503" y1="117.064" x2="31.3703" y2="117.064" gradientUnits="userSpaceOnUse">
<stop stop-color="#CCE0FF"/>
<stop offset="1" stop-color="#CCE0FF" stop-opacity="0"/>
</linearGradient>
<linearGradient id="paint12_linear" x1="148.97" y1="143.091" x2="97.89" y2="143.091" gradientUnits="userSpaceOnUse">
<stop stop-color="#CCE0FF"/>
<stop offset="1" stop-color="#CCE0FF" stop-opacity="0"/>
</linearGradient>
<linearGradient id="paint13_linear" x1="97.953" y1="152.223" x2="98.1531" y2="150.211" gradientUnits="userSpaceOnUse">
<stop stop-color="#A27F68"/>
<stop offset="0.1271" stop-color="#9D785D"/>
<stop offset="0.4131" stop-color="#936C49"/>
<stop offset="0.701" stop-color="#8E643D"/>
<stop offset="0.9918" stop-color="#8C6239"/>
</linearGradient>
<linearGradient id="paint14_linear" x1="91.868" y1="158.196" x2="99.0104" y2="158.196" gradientUnits="userSpaceOnUse">
<stop stop-color="#64E6A4"/>
<stop offset="1" stop-color="#2DB07C"/>
</linearGradient>
<linearGradient id="paint15_linear" x1="95.7981" y1="158.246" x2="99.0182" y2="158.564" gradientUnits="userSpaceOnUse">
<stop stop-color="#48CC8C"/>
<stop offset="1" stop-color="#78F0B7"/>
</linearGradient>
<linearGradient id="paint16_linear" x1="57.6805" y1="140.407" x2="73.9093" y2="140.407" gradientUnits="userSpaceOnUse">
<stop stop-color="#FF991F"/>
<stop offset="1" stop-color="#FFC400"/>
</linearGradient>
<linearGradient id="paint17_linear" x1="101.981" y1="99.0425" x2="130.568" y2="99.0425" gradientUnits="userSpaceOnUse">
<stop stop-color="#0057D8"/>
<stop offset="1" stop-color="#3384FF"/>
</linearGradient>
<linearGradient id="paint18_linear" x1="100.063" y1="101.039" x2="131.196" y2="101.039" gradientUnits="userSpaceOnUse">
<stop stop-color="#0747A6"/>
<stop offset="1" stop-color="#0747A6" stop-opacity="0.1"/>
</linearGradient>
<linearGradient id="paint19_linear" x1="105.907" y1="126.109" x2="114.941" y2="126.109" gradientUnits="userSpaceOnUse">
<stop stop-color="#0065FF"/>
<stop offset="1" stop-color="#66A3FF"/>
</linearGradient>
<linearGradient id="paint20_linear" x1="55.2869" y1="109.983" x2="82.448" y2="109.983" gradientUnits="userSpaceOnUse">
<stop stop-color="#FF991F"/>
<stop offset="1" stop-color="#FFC400"/>
</linearGradient>
<linearGradient id="paint21_linear" x1="131.217" y1="41.5498" x2="158.378" y2="41.5498" gradientUnits="userSpaceOnUse">
<stop stop-color="#FF991F"/>
<stop offset="1" stop-color="#FFC400"/>
</linearGradient>
<linearGradient id="paint22_linear" x1="75.4892" y1="100.139" x2="97.2685" y2="100.139" gradientUnits="userSpaceOnUse">
<stop stop-color="#2DB07C"/>
<stop offset="1" stop-color="#64E6A4"/>
</linearGradient>
<linearGradient id="paint23_linear" x1="90.3095" y1="100.135" x2="97.2689" y2="100.135" gradientUnits="userSpaceOnUse">
<stop stop-color="#36B37E"/>
<stop offset="1" stop-color="#36B37E" stop-opacity="0.1"/>
</linearGradient>
<linearGradient id="paint24_linear" x1="73.0174" y1="70.9126" x2="98.3915" y2="45.6017" gradientUnits="userSpaceOnUse">
<stop stop-color="#48CC8C"/>
<stop offset="0.7124" stop-color="#78F0B7"/>
<stop offset="0.7622" stop-color="#83F2BD"/>
<stop offset="0.8513" stop-color="#A2F6CD"/>
<stop offset="0.9683" stop-color="#D3FDE6"/>
<stop offset="1" stop-color="#E2FFEE"/>
</linearGradient>
<linearGradient id="paint25_linear" x1="62.4277" y1="61.2874" x2="98.4719" y2="61.2874" gradientUnits="userSpaceOnUse">
<stop stop-color="#36B37E"/>
<stop offset="1" stop-color="#36B37E" stop-opacity="0.1"/>
</linearGradient>
<linearGradient id="paint26_linear" x1="81.0452" y1="91.8934" x2="89.961" y2="91.8934" gradientUnits="userSpaceOnUse">
<stop stop-color="#008364"/>
<stop offset="0.4516" stop-color="#028565"/>
<stop offset="0.6687" stop-color="#0A8D69"/>
<stop offset="0.8351" stop-color="#179A70"/>
<stop offset="0.9758" stop-color="#29AC7A"/>
<stop offset="1" stop-color="#2DB07C"/>
</linearGradient>
<linearGradient id="paint27_linear" x1="81.7411" y1="86.393" x2="89.675" y2="86.393" gradientUnits="userSpaceOnUse">
<stop stop-color="#36B37E"/>
<stop offset="1" stop-color="#79F2C0"/>
</linearGradient>
<linearGradient id="paint28_linear" x1="73.3253" y1="136.813" x2="104.029" y2="136.813" gradientUnits="userSpaceOnUse">
<stop stop-color="#36B37E"/>
<stop offset="1" stop-color="#36B37E" stop-opacity="0.1"/>
</linearGradient>
<clipPath id="clip0">
<rect width="168" height="170" fill="white"/>
</clipPath>
</defs>
</svg>
