<svg width="171" height="160" viewBox="0 0 171 160" fill="none" xmlns="http://www.w3.org/2000/svg">
<g clip-path="url(#clip0)">
<rect width="169.603" height="160" transform="translate(0.826172)" fill="white" fill-opacity="0.01"/>
<path opacity="0.7" d="M82.2 149.384C82.2 148.759 82.6848 148.274 83.308 148.274C83.9313 148.274 84.4161 148.759 84.4161 149.384C84.4161 150.008 83.9313 150.494 83.308 150.494C82.6848 150.494 82.2 150.008 82.2 149.384ZM76.6597 150.216C76.0364 150.147 75.6209 149.661 75.6901 149.037C75.7594 148.412 76.2442 147.996 76.8674 148.066C77.4907 148.135 77.9062 148.621 77.837 149.245C77.7677 149.8 77.283 150.216 76.7289 150.216H76.6597ZM88.7098 149.176C88.6406 148.551 89.1254 148.066 89.6794 147.996C90.3027 147.927 90.7875 148.412 90.8567 148.968C90.926 149.592 90.4412 150.078 89.8872 150.147C89.8179 150.147 89.8179 150.147 89.7486 150.147C89.2639 150.216 88.7791 149.8 88.7098 149.176ZM70.0806 149.314C69.4573 149.176 69.111 148.621 69.1803 148.066C69.3188 147.51 69.8728 147.094 70.4268 147.164C71.0501 147.302 71.3964 147.857 71.3271 148.412C71.2579 148.968 70.7731 149.314 70.2191 149.314C70.1498 149.314 70.0806 149.314 70.0806 149.314ZM95.2197 148.412C95.0812 147.788 95.4967 147.233 96.12 147.164C96.7433 147.025 97.2973 147.441 97.3666 148.066C97.5051 148.69 97.0895 149.245 96.4663 149.314C96.397 149.314 96.3278 149.314 96.2585 149.314C95.7737 149.314 95.3582 148.898 95.2197 148.412ZM63.5707 147.788C63.0167 147.649 62.6704 147.025 62.8089 146.4C62.9474 145.845 63.5707 145.498 64.194 145.637C64.748 145.776 65.0943 146.4 64.9558 147.025C64.8173 147.51 64.4018 147.788 63.917 147.788C63.7785 147.788 63.64 147.788 63.5707 147.788ZM101.66 147.025C101.522 146.47 101.799 145.845 102.422 145.637C102.976 145.498 103.599 145.776 103.738 146.4C103.876 146.955 103.599 147.58 102.976 147.788C102.907 147.788 102.768 147.857 102.699 147.857C102.214 147.788 101.799 147.441 101.66 147.025ZM57.2686 145.637C56.7146 145.429 56.4376 144.804 56.6453 144.249C56.8531 143.694 57.4764 143.417 58.0304 143.625C58.5844 143.833 58.8615 144.458 58.6537 145.013C58.5152 145.429 58.0997 145.706 57.6149 145.706C57.5456 145.706 57.4071 145.706 57.2686 145.637ZM107.893 145.013C107.685 144.458 107.962 143.833 108.516 143.625C109.07 143.417 109.694 143.694 109.901 144.249C110.109 144.804 109.832 145.429 109.278 145.637C109.14 145.706 109.001 145.706 108.863 145.706C108.447 145.706 108.032 145.429 107.893 145.013ZM51.1743 143C50.6202 142.723 50.4125 142.098 50.6895 141.543C50.9665 140.988 51.5898 140.78 52.1438 141.058C52.6979 141.335 52.9056 141.96 52.6286 142.515C52.4209 142.862 52.0746 143.139 51.6591 143.139C51.5205 143.07 51.3128 143.07 51.1743 143ZM113.918 142.445C113.641 141.89 113.849 141.266 114.403 140.988C114.957 140.711 115.58 140.919 115.857 141.474C116.134 142.029 115.927 142.654 115.373 142.931C115.234 143 115.026 143.07 114.888 143.07C114.472 143.07 114.057 142.862 113.918 142.445ZM45.357 139.739C44.8722 139.393 44.6644 138.768 45.0107 138.213C45.357 137.727 45.9802 137.519 46.5343 137.866C47.0191 138.213 47.2268 138.837 46.8805 139.393C46.6728 139.739 46.3265 139.948 45.9802 139.948C45.7725 139.878 45.5647 139.809 45.357 139.739ZM119.666 139.323C119.32 138.837 119.528 138.144 120.013 137.797C120.497 137.45 121.19 137.658 121.536 138.144C121.882 138.629 121.675 139.323 121.19 139.67C120.982 139.809 120.774 139.809 120.636 139.809C120.22 139.878 119.874 139.67 119.666 139.323ZM39.8859 135.993C39.4011 135.646 39.3319 134.952 39.6782 134.466C40.0244 133.981 40.717 133.911 41.2017 134.258C41.6865 134.605 41.7558 135.299 41.4095 135.785C41.2017 136.062 40.8555 136.201 40.5092 136.201C40.3014 136.201 40.0937 136.131 39.8859 135.993ZM125.137 135.715C124.791 135.229 124.86 134.536 125.345 134.189C125.83 133.842 126.522 133.911 126.869 134.397C127.215 134.883 127.146 135.576 126.661 135.923C126.453 136.062 126.245 136.131 126.038 136.131C125.691 136.131 125.345 135.993 125.137 135.715ZM34.7611 131.691C34.3456 131.275 34.2764 130.581 34.6919 130.164C35.1074 129.748 35.7999 129.679 36.2155 130.095C36.631 130.511 36.7002 131.205 36.2847 131.621C36.077 131.899 35.7999 131.968 35.4537 131.968C35.2459 131.968 34.9689 131.899 34.7611 131.691ZM130.193 131.552C129.777 131.136 129.847 130.442 130.262 130.026C130.678 129.609 131.37 129.679 131.786 130.095C132.201 130.511 132.132 131.205 131.716 131.621C131.509 131.83 131.232 131.899 130.955 131.899C130.747 131.968 130.47 131.83 130.193 131.552ZM30.0519 126.973C29.6364 126.556 29.7056 125.863 30.1211 125.446C30.5367 125.03 31.2292 125.099 31.6447 125.516C32.0602 125.932 31.991 126.626 31.5755 127.042C31.3677 127.25 31.0907 127.32 30.8137 127.32C30.5367 127.32 30.2596 127.25 30.0519 126.973ZM134.902 126.973C134.487 126.556 134.417 125.863 134.833 125.446C135.248 125.03 135.941 124.961 136.356 125.377C136.772 125.793 136.841 126.487 136.426 126.903C136.218 127.111 135.941 127.25 135.595 127.25C135.387 127.32 135.11 127.181 134.902 126.973ZM25.8274 121.908C25.4811 121.422 25.5504 120.728 26.0352 120.381C26.5199 120.034 27.2125 120.104 27.5587 120.589C27.905 121.075 27.8358 121.769 27.351 122.116C27.1432 122.255 26.9355 122.324 26.7277 122.324C26.3122 122.324 26.0352 122.185 25.8274 121.908ZM139.196 122.046C138.711 121.7 138.642 121.006 138.988 120.52C139.334 120.034 140.027 119.965 140.512 120.312C140.996 120.659 141.066 121.353 140.719 121.838C140.512 122.116 140.165 122.255 139.819 122.255C139.611 122.255 139.404 122.185 139.196 122.046ZM22.0184 116.357C21.6722 115.871 21.8799 115.177 22.3647 114.83C22.8495 114.484 23.542 114.692 23.8883 115.177C24.2346 115.663 24.0268 116.357 23.542 116.704C23.3343 116.843 23.1957 116.843 22.988 116.843C22.5725 116.912 22.2262 116.704 22.0184 116.357ZM143.005 116.704C142.52 116.357 142.312 115.732 142.659 115.177C143.005 114.692 143.628 114.484 144.182 114.83C144.667 115.177 144.875 115.802 144.528 116.357C144.321 116.704 143.974 116.843 143.628 116.843C143.351 116.843 143.143 116.773 143.005 116.704ZM18.7635 110.598C18.4865 110.043 18.6943 109.419 19.2483 109.141C19.8023 108.863 20.4256 109.072 20.7026 109.627C20.9796 110.182 20.7719 110.806 20.2178 111.084C20.0793 111.153 19.8716 111.223 19.7331 111.223C19.3868 111.153 18.9713 110.945 18.7635 110.598ZM146.26 111.014C145.706 110.737 145.498 110.112 145.775 109.557C146.052 109.002 146.675 108.794 147.229 109.072C147.783 109.349 147.991 109.974 147.714 110.529C147.506 110.876 147.16 111.153 146.745 111.153C146.606 111.084 146.398 111.084 146.26 111.014ZM16.0626 104.492C15.8548 103.937 16.1319 103.313 16.6859 103.105C17.2399 102.896 17.8632 103.174 18.1402 103.729C18.348 104.284 18.071 104.909 17.5169 105.117C17.3784 105.186 17.2399 105.186 17.1014 105.186C16.6859 105.186 16.2704 104.909 16.0626 104.492ZM149.03 105.047C148.476 104.839 148.199 104.215 148.407 103.66C148.614 103.105 149.238 102.827 149.792 103.035C150.346 103.243 150.623 103.868 150.415 104.423C150.276 104.839 149.861 105.117 149.376 105.117C149.238 105.117 149.099 105.047 149.03 105.047ZM13.985 98.1783C13.8465 97.6232 14.1235 96.9987 14.7468 96.7906C15.3008 96.6518 15.9241 96.9294 16.0626 97.5538C16.2011 98.1089 15.9241 98.7334 15.3008 98.9415C15.2316 98.9415 15.0931 99.0109 15.0238 99.0109C14.539 98.9415 14.1235 98.664 13.985 98.1783ZM151.177 98.8721C150.623 98.7334 150.276 98.1089 150.415 97.4844C150.553 96.9294 151.177 96.5824 151.8 96.7212C152.354 96.86 152.7 97.4844 152.562 98.1089C152.423 98.5946 152.008 98.8721 151.523 98.8721C151.385 98.8721 151.246 98.8721 151.177 98.8721ZM12.4614 91.6562C12.3229 91.1011 12.7384 90.4766 13.3617 90.4072C13.985 90.2685 14.539 90.6848 14.6083 91.3092C14.7468 91.9337 14.3313 92.4888 13.708 92.5582C13.6387 92.5582 13.5695 92.5582 13.5002 92.5582C13.0154 92.5582 12.5307 92.2112 12.4614 91.6562ZM152.77 92.4888C152.146 92.35 151.8 91.7949 151.869 91.2399C152.008 90.6154 152.562 90.2685 153.116 90.3379C153.739 90.4072 154.085 91.0317 154.016 91.5868C153.878 92.1418 153.462 92.4888 152.908 92.4888C152.908 92.4888 152.839 92.4888 152.77 92.4888ZM11.5611 85.0647C11.4919 84.4402 11.9766 83.9545 12.5307 83.8851C13.1539 83.8157 13.6387 84.232 13.708 84.8565C13.7772 85.481 13.2925 85.9667 12.7384 86.036H12.6692C12.0459 86.036 11.5611 85.6197 11.5611 85.0647ZM153.739 85.9667C153.116 85.8973 152.7 85.3422 152.77 84.7871C152.839 84.1627 153.324 83.7464 153.947 83.8157C154.57 83.8851 154.986 84.4402 154.916 84.9953C154.847 85.5503 154.362 85.9667 153.808 85.9667C153.808 85.9667 153.808 85.9667 153.739 85.9667ZM11.2148 78.4038C11.2148 77.7793 11.6996 77.2936 12.3229 77.2936C12.9462 77.2936 13.431 77.7793 13.431 78.4038C13.431 79.0282 12.9462 79.5139 12.3229 79.5139C11.6996 79.5139 11.2148 79.0282 11.2148 78.4038ZM153.047 78.3344V78.265V78.1956C153.047 77.5712 153.531 77.0855 154.155 77.0855C154.778 77.0855 155.263 77.5712 155.263 78.1956V78.265V78.3344C155.263 78.9588 154.778 79.4445 154.155 79.4445C153.531 79.4445 153.047 78.9588 153.047 78.3344ZM12.5307 72.9918C11.9074 72.9224 11.4919 72.4367 11.5611 71.8123C11.6304 71.1878 12.1151 70.7715 12.7384 70.8409C13.3617 70.9103 13.7772 71.396 13.708 72.0204C13.6387 72.5755 13.1539 72.9918 12.5999 72.9918H12.5307ZM152.77 71.7429C152.7 71.1184 153.116 70.6327 153.739 70.5634C154.362 70.494 154.847 70.9103 154.916 71.5347C154.986 72.1592 154.501 72.6449 153.947 72.7143C153.878 72.7143 153.878 72.7143 153.808 72.7143C153.254 72.7143 152.839 72.298 152.77 71.7429ZM13.2925 66.4697C12.6692 66.3309 12.3229 65.7758 12.3922 65.2208C12.5307 64.5963 13.0847 64.2494 13.6387 64.3188C14.1928 64.4575 14.6083 65.0126 14.539 65.5677C14.4698 66.1228 13.985 66.4697 13.5002 66.4697C13.431 66.4697 13.3617 66.4697 13.2925 66.4697ZM151.869 65.3595C151.731 64.7351 152.146 64.18 152.77 64.1106C153.393 63.9719 153.947 64.3882 154.016 64.9432C154.155 65.5677 153.739 66.1228 153.116 66.1922C153.047 66.1922 152.977 66.1922 152.908 66.1922C152.423 66.1922 151.939 65.8452 151.869 65.3595ZM14.6775 60.017C14.1235 59.8782 13.7772 59.2537 13.9157 58.6293C14.0542 58.0742 14.6775 57.7273 15.3008 57.866C15.8548 58.0048 16.2011 58.6293 16.0626 59.2537C15.9241 59.7394 15.5086 60.017 15.0238 60.017C14.8853 60.0863 14.7468 60.0863 14.6775 60.017ZM150.346 59.0456C150.207 58.4905 150.484 57.866 151.107 57.6579C151.662 57.5191 152.285 57.7967 152.423 58.4211C152.562 58.9762 152.285 59.6006 151.662 59.8088C151.523 59.8088 151.454 59.8782 151.385 59.8782C150.969 59.8088 150.484 59.5313 150.346 59.0456ZM16.6859 53.7724C16.1319 53.5642 15.8548 52.9398 16.0626 52.3847C16.2704 51.8296 16.8937 51.5521 17.4477 51.7602C18.0017 51.9684 18.2787 52.5928 18.071 53.1479C17.9325 53.5642 17.5169 53.8418 17.0322 53.8418C16.8937 53.8418 16.7551 53.8418 16.6859 53.7724ZM148.337 52.9398C148.13 52.3847 148.407 51.7602 148.961 51.5521C149.515 51.3439 150.138 51.6215 150.346 52.1765C150.553 52.7316 150.276 53.3561 149.722 53.5642C149.584 53.6336 149.445 53.6336 149.307 53.6336C148.891 53.6336 148.476 53.3561 148.337 52.9398ZM19.179 47.736C18.625 47.4584 18.4172 46.834 18.6943 46.2789C18.9713 45.7238 19.5946 45.5157 20.1486 45.7932C20.7026 46.0707 20.9104 46.6952 20.6334 47.2503C20.4256 47.6666 20.0793 47.8747 19.6638 47.8747C19.5253 47.8747 19.3868 47.8053 19.179 47.736ZM145.706 47.0421C145.429 46.487 145.636 45.8626 146.19 45.585C146.745 45.3075 147.368 45.5157 147.645 46.0707C147.922 46.6258 147.714 47.2503 147.16 47.5278C147.022 47.5972 146.814 47.6666 146.675 47.6666C146.26 47.5972 145.913 47.389 145.706 47.0421ZM22.2955 41.9771C21.8107 41.6301 21.6029 41.0057 21.9492 40.4506C22.2955 39.9649 22.9187 39.7568 23.4728 40.1037C23.9575 40.4506 24.1653 41.0751 23.819 41.6301C23.6113 41.9771 23.265 42.1852 22.9187 42.1852C22.711 42.1158 22.5032 42.0464 22.2955 41.9771ZM142.52 41.422C142.174 40.9363 142.382 40.2425 142.866 39.8955C143.351 39.5486 144.044 39.7568 144.39 40.2425C144.736 40.7281 144.528 41.422 144.044 41.7689C143.836 41.9077 143.697 41.9077 143.49 41.9077C143.074 41.9077 142.728 41.6995 142.52 41.422ZM25.8966 36.4957C25.4119 36.1488 25.3426 35.4549 25.6889 34.9693C26.0352 34.4836 26.7277 34.4142 27.2125 34.7611C27.6972 35.108 27.7665 35.8019 27.4202 36.2876C27.2125 36.5651 26.8662 36.7039 26.5199 36.7039C26.3122 36.7039 26.1044 36.6345 25.8966 36.4957ZM138.85 36.0794C138.503 35.5937 138.573 34.8999 139.057 34.5529C139.542 34.206 140.235 34.2754 140.581 34.7611C140.927 35.2468 140.858 35.9406 140.373 36.2876C140.165 36.4263 139.958 36.4957 139.681 36.4957C139.404 36.4957 139.127 36.3569 138.85 36.0794ZM30.0519 31.3613C29.6364 30.945 29.5671 30.2511 29.9826 29.8348C30.3981 29.3491 31.0907 29.3491 31.5062 29.7654C31.9217 30.1817 31.991 30.8756 31.5755 31.2919C31.3677 31.5 31.0907 31.6388 30.7444 31.6388C30.4674 31.6388 30.2596 31.5694 30.0519 31.3613ZM134.764 31.0837C134.348 30.6674 134.417 29.9736 134.833 29.5573C135.248 29.141 135.941 29.2104 136.356 29.6267C136.772 30.043 136.703 30.7368 136.287 31.1531C136.079 31.3613 135.802 31.4307 135.525 31.4307C135.248 31.5 134.971 31.3613 134.764 31.0837ZM34.5534 26.6432C34.1378 26.1575 34.1378 25.4636 34.6226 25.1167C35.0381 24.7004 35.7307 24.7698 36.1462 25.1861C36.5617 25.6024 36.5617 26.2962 36.077 26.7125C35.8692 26.9207 35.5922 26.9901 35.3152 26.9901C35.1074 26.9901 34.7611 26.8513 34.5534 26.6432ZM130.193 26.5738C129.777 26.1575 129.708 25.4636 130.124 25.0473C130.539 24.631 131.232 24.5616 131.647 24.9779C132.063 25.3942 132.132 26.0881 131.716 26.5044C131.509 26.7125 131.232 26.8513 130.885 26.8513C130.678 26.8513 130.401 26.7125 130.193 26.5738ZM39.5396 22.3413C39.1934 21.8556 39.2626 21.1618 39.7474 20.8149C40.2322 20.468 40.9247 20.5373 41.271 21.023C41.6173 21.5087 41.548 22.2026 41.0632 22.5495C40.8555 22.6882 40.6477 22.7576 40.3707 22.7576C40.0937 22.827 39.7474 22.6189 39.5396 22.3413ZM125.207 22.4107C124.722 22.0638 124.653 21.3699 124.999 20.8843C125.345 20.3986 126.038 20.3292 126.522 20.6761C127.007 21.023 127.076 21.7169 126.73 22.2026C126.522 22.4801 126.176 22.6189 125.83 22.6189C125.622 22.6189 125.414 22.5495 125.207 22.4107ZM44.8722 18.5252C44.5259 18.0395 44.7337 17.3457 45.2185 16.9987C45.7032 16.6518 46.3958 16.86 46.742 17.3457C47.0883 17.8314 46.8805 18.5252 46.3958 18.8721C46.188 19.0109 46.0495 19.0109 45.8417 19.0109C45.4262 19.0803 45.0799 18.8721 44.8722 18.5252ZM119.874 18.8027C119.389 18.4558 119.181 17.8314 119.528 17.2763C119.874 16.7212 120.497 16.5824 121.051 16.9294C121.536 17.2763 121.744 17.9007 121.398 18.4558C121.19 18.8027 120.844 19.0109 120.497 19.0109C120.29 18.9415 120.082 18.8721 119.874 18.8027ZM50.551 15.2641C50.274 14.7091 50.4817 14.0846 51.0358 13.8071C51.5898 13.5295 52.2131 13.7377 52.4901 14.2928C52.7671 14.8478 52.5594 15.4723 52.0053 15.7498C51.8668 15.8192 51.6591 15.8886 51.5205 15.8886C51.105 15.8886 50.7588 15.6111 50.551 15.2641ZM114.264 15.6111C113.71 15.3335 113.503 14.7091 113.78 14.154C114.057 13.5989 114.68 13.3908 115.234 13.6683C115.788 13.9458 115.996 14.5703 115.719 15.1254C115.511 15.5417 115.165 15.7498 114.749 15.7498C114.541 15.7498 114.403 15.7498 114.264 15.6111ZM56.5068 12.4888C56.2991 11.9337 56.5761 11.3092 57.1301 11.1011C57.6841 10.8929 58.3074 11.1705 58.5152 11.7255C58.7229 12.2806 58.4459 12.9051 57.8919 13.1132C57.7534 13.1826 57.6149 13.1826 57.4764 13.1826C57.0609 13.1826 56.6453 12.9745 56.5068 12.4888ZM108.309 13.0438C107.755 12.8357 107.478 12.2112 107.685 11.6562C107.893 11.1011 108.516 10.8235 109.07 11.0317C109.624 11.2399 109.901 11.8643 109.694 12.4194C109.555 12.8357 109.14 13.1132 108.655 13.1132C108.586 13.1132 108.447 13.1132 108.309 13.0438ZM62.6704 10.3379C62.5319 9.78278 62.8089 9.15833 63.4322 8.95017C63.9862 8.8114 64.6095 9.08894 64.8173 9.7134C64.9558 10.2685 64.6788 10.8929 64.0555 11.1011C63.9862 11.1011 63.8477 11.1705 63.7785 11.1705C63.2244 11.1011 62.8089 10.8235 62.6704 10.3379ZM102.214 11.0317C101.66 10.8929 101.314 10.2685 101.453 9.7134C101.591 9.15833 102.214 8.8114 102.838 8.95017C103.392 9.08894 103.738 9.7134 103.599 10.2685C103.461 10.7542 103.045 11.0317 102.561 11.0317C102.422 11.0317 102.353 11.0317 102.214 11.0317ZM69.0418 8.67264C68.9033 8.11756 69.3188 7.4931 69.9421 7.42372C70.5653 7.28495 71.1194 7.70126 71.1886 8.32572C71.3271 8.95017 70.9116 9.50525 70.2883 9.57463C70.2191 9.57463 70.1498 9.57463 70.0806 9.57463C69.5958 9.57463 69.111 9.22771 69.0418 8.67264ZM95.9122 9.50525C95.2889 9.36648 94.9427 8.8114 95.0119 8.25633C95.1504 7.63187 95.7045 7.28495 96.2585 7.35434C96.8818 7.42372 97.2281 8.04818 97.1588 8.60325C97.0895 9.15833 96.6048 9.50525 96.12 9.50525C96.0507 9.57463 95.9815 9.57463 95.9122 9.50525ZM75.4824 7.70126C75.4131 7.0768 75.8979 6.59111 76.4519 6.52173C77.0752 6.45234 77.56 6.93803 77.6292 7.49311C77.6985 8.11756 77.2137 8.60325 76.6597 8.67264H76.5904C76.0364 8.67264 75.5516 8.25633 75.4824 7.70126ZM89.5409 8.67264C88.9176 8.60325 88.5021 8.11756 88.5713 7.49311C88.6406 6.86865 89.1254 6.45234 89.7486 6.52173C90.3719 6.59111 90.7875 7.0768 90.7182 7.70126C90.6489 8.25633 90.1642 8.67264 89.6101 8.67264C89.6101 8.67264 89.6101 8.67264 89.5409 8.67264ZM81.9922 7.28495C81.9922 6.66049 82.477 6.1748 83.1003 6.1748C83.7236 6.1748 84.2083 6.66049 84.2083 7.28495C84.2083 7.90941 83.7236 8.3951 83.1003 8.3951C82.477 8.3951 81.9922 7.90941 81.9922 7.28495Z" fill="#C1C7D0"/>
<path d="M78.3216 90.8242H43.4177C27.8356 90.8242 15.1621 103.522 15.1621 119.133C15.1621 134.744 27.8356 147.442 43.4177 147.442H45.0105C52.6284 147.442 59.4153 152.368 61.4929 159.723C61.4929 159.792 61.4929 159.862 61.5621 159.931C61.6314 160.07 61.7699 160.07 61.8392 159.931C61.8392 159.862 61.8392 159.792 61.9084 159.723C63.986 152.437 70.7729 147.442 78.3908 147.442C93.9729 147.442 106.646 134.744 106.646 119.133C106.577 103.522 93.9037 90.8242 78.3216 90.8242Z" fill="url(#paint0_linear)"/>
<path d="M56.1592 128.014L55.2589 131.968H47.918L54.4971 109.904H64.5389L71.0487 131.968H63.6386L62.7383 128.014C61.561 128.152 60.4529 128.291 59.3448 128.291C58.3753 128.222 57.2672 128.152 56.1592 128.014ZM61.6995 123.226L59.4833 113.235L57.2672 123.295C58.029 123.365 58.7216 123.365 59.4141 123.365C60.1759 123.365 60.9377 123.365 61.6995 123.226Z" fill="#B3F5FF"/>
<path opacity="0.15" d="M78.3207 90.8242H50.6191C54.0126 106.991 68.2789 119.133 85.4538 119.133H87.4622C94.5953 119.133 101.105 122.602 105.053 128.153C106.022 125.308 106.507 122.255 106.507 119.133C106.576 103.522 93.9028 90.8242 78.3207 90.8242Z" fill="#091E42"/>
<path d="M134.831 42.3936H90.9246C71.2565 42.3936 55.3281 58.3519 55.3281 78.057C55.3281 97.7622 71.2565 113.721 90.9246 113.721H92.9329C102.49 113.721 111.077 119.965 113.64 129.193C113.64 129.263 113.709 129.332 113.709 129.401C113.778 129.54 113.986 129.54 114.055 129.401C114.055 129.332 114.125 129.263 114.125 129.193C116.687 119.965 125.274 113.721 134.831 113.721C154.5 113.721 170.428 97.7622 170.428 78.057C170.428 58.3519 154.5 42.3936 134.831 42.3936Z" fill="url(#paint1_linear)"/>
<path opacity="0.2" d="M86.078 47.1808C86.078 45.6544 85.9395 44.1973 85.7318 42.7402C69.8034 45.0299 57.2685 58.0048 55.5371 74.1713C56.9222 73.8244 58.3073 73.6162 59.7616 73.6162C74.3049 73.6162 86.078 61.8209 86.078 47.1808Z" fill="#172B4D"/>
<path d="M65.1635 14.2236H32.6142C18.0709 14.2236 6.22852 26.0883 6.22852 40.659C6.22852 55.2297 18.0709 67.0944 32.6142 67.0944H34.1378C41.2017 67.0944 47.573 71.7432 49.5121 78.5428C49.5121 78.6122 49.5121 78.6816 49.5814 78.6816C49.5814 78.8203 49.7892 78.8203 49.7892 78.6816C49.7892 78.6122 49.7892 78.5428 49.8584 78.5428C51.7975 71.7432 58.1689 67.0944 65.2327 67.0944C79.776 67.0944 91.6184 55.2297 91.6184 40.659C91.5492 26.0189 79.776 14.2236 65.1635 14.2236Z" fill="url(#paint2_linear)"/>
<path d="M105.469 23.0356C111.818 23.0356 116.965 17.8789 116.965 11.5178C116.965 5.15669 111.818 0 105.469 0C99.1197 0 93.9727 5.15669 93.9727 11.5178C93.9727 17.8789 99.1197 23.0356 105.469 23.0356Z" fill="#79E2F2"/>
<path d="M99.6519 17.4852C98.9593 17.4852 98.5438 16.7914 98.8901 16.2363C99.2364 15.5425 99.4441 14.7793 99.4441 13.9466V9.64483C99.4441 6.45315 102.145 3.67778 105.538 3.6084C107.27 3.6084 108.863 4.30224 110.04 5.48177C111.148 6.59192 111.633 8.11837 111.633 9.57544V13.8773C111.633 14.7099 111.841 15.4731 112.187 16.1669C112.533 16.722 112.048 17.4159 111.425 17.4159H99.6519V17.4852Z" fill="#00B8D9"/>
<path d="M100.759 19.4966C99.9973 19.8436 99.2355 20.1905 98.543 20.6762C100.482 22.1332 102.837 23.0352 105.468 23.0352C107.961 23.0352 110.247 22.2026 112.186 20.8843C111.424 20.3292 110.801 19.7742 110.247 19.566C109.07 19.0803 108.239 17.9008 108.239 16.6519C108.239 15.7499 108.654 14.8479 109.347 14.2928C110.732 13.1133 111.563 11.3787 111.493 9.43592C111.355 6.31363 108.862 3.8158 105.745 3.60765C102.283 3.46888 99.4433 6.17486 99.4433 9.64407C99.4433 11.5174 100.274 13.1133 101.59 14.2234C102.283 14.8479 102.698 15.6805 102.698 16.6519C102.767 17.8314 101.936 19.0109 100.759 19.4966Z" fill="#00B8D9"/>
<path d="M131.508 142.584C137.857 142.584 143.004 137.428 143.004 131.067C143.004 124.706 137.857 119.549 131.508 119.549C125.159 119.549 120.012 124.706 120.012 131.067C120.012 137.428 125.159 142.584 131.508 142.584Z" fill="#FFE380"/>
<path d="M136.91 136.757H125.899C125.552 136.757 125.275 136.479 125.275 136.132V134.953C125.275 134.814 125.275 129.194 125.275 129.055C125.275 128.639 125.345 126.488 127.076 124.684C128.184 123.574 129.708 122.88 131.439 122.88C134.832 122.88 137.603 125.655 137.603 129.055V136.132C137.603 136.479 137.326 136.757 136.91 136.757Z" fill="#FFC400"/>
<path d="M126.73 139.324C126.038 139.601 125.414 140.018 124.791 140.434C126.661 141.752 128.946 142.585 131.439 142.585C133.933 142.585 136.218 141.822 138.088 140.503C137.464 140.087 136.772 139.671 136.079 139.393C134.971 138.907 134.279 137.728 134.279 136.479C134.279 135.577 134.694 134.675 135.318 134.051C136.564 132.94 137.326 131.275 137.326 129.471C137.326 126.071 134.625 123.296 131.439 123.435C128.184 123.296 125.553 126.002 125.553 129.471C125.553 131.345 126.315 132.94 127.561 134.051C128.254 134.675 128.6 135.508 128.6 136.479C128.6 137.659 127.838 138.838 126.73 139.324Z" fill="#FFC400"/>
<path d="M35.1074 42.0468C35.1074 34.6921 39.6089 29.4883 47.5731 29.4883C55.5373 29.4883 59.9695 34.6227 59.9695 40.6591C59.9695 44.4059 57.8227 46.7649 54.637 47.9445H60.108V54.1891H47.6424C39.6089 54.2584 35.1074 49.4709 35.1074 42.0468ZM42.5176 42.0468C42.5176 45.4466 43.9719 48.0139 47.5731 48.0139C51.1743 48.0139 52.6286 45.4466 52.6286 42.0468C52.6286 38.8551 51.1743 36.1492 47.5731 36.1492C43.9719 36.1492 42.5176 38.8551 42.5176 42.0468Z" fill="#FFF0B2"/>
<path d="M136.078 98.1791H122.712L119.458 95.1956C116.687 97.4159 112.948 98.8036 107.892 98.8036C98.0581 98.8036 93.5566 94.2242 93.5566 88.049C93.5566 83.1228 96.7423 79.7229 101.175 77.7802C99.0969 75.3517 97.5041 72.5764 97.5041 68.8296C97.5041 62.3769 101.729 58.2832 111.078 58.2832C118.834 58.2832 123.613 61.5443 123.613 68.1358C123.613 73.4783 119.873 76.8782 114.679 77.9883L121.327 84.2329C123.405 80.9718 124.513 77.5026 124.513 73.2008H134.693C134.486 81.0412 131.646 85.2043 126.383 88.951L136.148 98.1097V98.1791H136.078ZM113.917 89.853L106.853 83.2615C106.23 82.6371 105.607 82.082 104.914 81.4575C104.083 82.3595 103.529 83.6084 103.529 85.3431C103.529 88.3266 105.815 90.6163 109.624 90.6163C110.87 90.6163 112.324 90.3387 113.917 89.853ZM111.147 74.5191C113.086 73.1314 114.056 71.3274 114.056 69.2459C114.056 67.0256 112.948 66.0542 111.147 66.0542C109.208 66.0542 108.1 67.1644 108.1 69.2459C108.1 71.0499 109.069 72.507 111.147 74.5191Z" fill="#B2D4FF"/>
<path d="M12.3223 99.7748C18.6714 99.7748 23.8184 94.6181 23.8184 88.257C23.8184 81.8959 18.6714 76.7393 12.3223 76.7393C5.97317 76.7393 0.826172 81.8959 0.826172 88.257C0.826172 94.6181 5.97317 99.7748 12.3223 99.7748Z" fill="#4C9AFF"/>
<path d="M7.40468 96.0972C6.64289 96.4441 5.8811 96.7911 5.25781 97.2768C7.19692 98.8032 9.69006 99.7746 12.391 99.7746C14.8841 99.7746 17.1695 98.942 19.0393 97.6237C18.2083 96.9992 17.5157 96.3748 16.8925 96.1666C15.7151 95.6809 14.8841 94.5014 14.8841 93.2525C14.8841 92.3505 15.2996 91.4485 15.9922 90.8934C17.3772 89.7139 18.2083 87.9793 18.139 86.0365C18.0005 82.9142 15.5074 80.4164 12.391 80.2082C8.92826 80.0695 6.08886 82.7755 6.08886 86.2447C6.08886 88.118 6.9199 89.7139 8.23573 90.824C8.92826 91.4485 9.34379 92.2811 9.34379 93.2525C9.34379 94.432 8.58199 95.6115 7.40468 96.0972Z" fill="#0065FF"/>
</g>
<defs>
<linearGradient id="paint0_linear" x1="32.1848" y1="147.89" x2="89.673" y2="90.51" gradientUnits="userSpaceOnUse">
<stop offset="0.1621" stop-color="#00C7E5"/>
<stop offset="0.2799" stop-color="#20CFEA"/>
<stop offset="0.5306" stop-color="#5FDFF3"/>
<stop offset="0.7429" stop-color="#8CEBF9"/>
<stop offset="0.9058" stop-color="#A9F2FD"/>
<stop offset="1" stop-color="#B3F5FF"/>
</linearGradient>
<linearGradient id="paint1_linear" x1="76.7077" y1="114.272" x2="149.139" y2="41.9765" gradientUnits="userSpaceOnUse">
<stop offset="0.1621" stop-color="#0052CC"/>
<stop offset="0.2494" stop-color="#0059E0"/>
<stop offset="0.3605" stop-color="#0060F1"/>
<stop offset="0.4795" stop-color="#0064FC"/>
<stop offset="0.6191" stop-color="#0065FF"/>
<stop offset="0.6661" stop-color="#0568FF"/>
<stop offset="0.7245" stop-color="#1572FF"/>
<stop offset="0.7889" stop-color="#2E82FF"/>
<stop offset="0.8577" stop-color="#5198FF"/>
<stop offset="0.929" stop-color="#7EB4FF"/>
<stop offset="1" stop-color="#B2D4FF"/>
</linearGradient>
<linearGradient id="paint2_linear" x1="22.1311" y1="67.4669" x2="75.8104" y2="13.8885" gradientUnits="userSpaceOnUse">
<stop offset="0.1621" stop-color="#FF991F"/>
<stop offset="0.2094" stop-color="#FF9E1B"/>
<stop offset="0.4934" stop-color="#FFBA07"/>
<stop offset="0.6593" stop-color="#FFC400"/>
<stop offset="0.8113" stop-color="#FFD340"/>
<stop offset="0.9372" stop-color="#FFDF6E"/>
<stop offset="1" stop-color="#FFE380"/>
</linearGradient>
<clipPath id="clip0">
<rect width="169.603" height="160" fill="white" transform="translate(0.826172)"/>
</clipPath>
</defs>
</svg>
