<svg width="546" height="495" viewBox="0 0 546 495" fill="none" xmlns="http://www.w3.org/2000/svg">
<g clip-path="url(#clip0)">
<rect width="545.36" height="494.5" transform="translate(0 0.140625)" fill="white" fill-opacity="0.01"/>
<path opacity="0.25" d="M54.5801 494.632C75.0256 494.632 91.6001 491.211 91.6001 486.992C91.6001 482.772 75.0256 479.352 54.5801 479.352C34.1345 479.352 17.5601 482.772 17.5601 486.992C17.5601 491.211 34.1345 494.632 54.5801 494.632Z" fill="url(#paint0_linear)"/>
<path d="M98.7101 172.331L97.2801 168.791C99.5501 167.881 100.25 167.071 100.3 166.741C100.38 166.281 99.4001 165.271 98.7501 164.601C97.5101 163.321 95.8001 161.551 96.5001 159.281C97.0201 157.581 98.5301 156.921 99.5301 156.491C99.8401 156.351 100.37 156.121 100.49 155.991C100.46 155.511 98.9801 153.971 98.3501 153.301C96.8701 151.771 95.2001 150.031 96.3401 148.121C97.1801 146.711 98.8301 146.751 99.9201 146.781C100.34 146.791 101.22 146.811 101.43 146.671C101.43 146.661 101.81 145.861 100.56 142.941L104.07 141.441C104.66 142.841 106.47 147.091 104.07 149.421C103.17 150.291 102.04 150.531 101.03 150.591C101.05 150.611 101.07 150.631 101.08 150.651C102.8 152.431 104.93 154.651 104.07 157.241C103.51 158.911 102.02 159.551 101.03 159.981C100.7 160.121 100.21 160.341 100.09 160.461C100.21 160.621 101 161.441 101.48 161.931C102.73 163.231 104.44 165.001 104.04 167.361C103.73 169.401 101.98 171.021 98.7101 172.331Z" fill="#0065FF"/>
<path d="M465.15 63.0603L144.78 93.5303C140.66 93.9203 137.34 98.4803 137.34 103.7V325.66C137.34 330.89 140.66 335.47 144.78 335.89L245.47 346.31V409.78L325.21 420.31L324.67 354.51L465.15 369.04C471.77 369.72 477.17 364.86 477.17 358.17V74.0303C477.18 67.3403 471.77 62.4303 465.15 63.0603Z" fill="url(#paint1_linear)"/>
<path d="M148.01 307.549V106.889L460.03 80.6895V332.509L148.01 307.549Z" fill="#B2D4FF"/>
<path d="M260.11 111.619L192.15 116.599V296.939L260.11 301.659V111.619Z" fill="white"/>
<path d="M443.58 314.369L271.41 302.439V185.579L443.58 182.539V314.369Z" fill="white"/>
<path d="M289.97 285.12V203.82L425.02 201.43V294.48L289.97 285.12Z" fill="#DEEBFF"/>
<path d="M443.58 164.45L271.41 169.54V110.79L443.58 98.1699V164.45Z" fill="white"/>
<path d="M309.9 137.97C309.9 145.59 304.41 151.99 297.7 152.27C291.05 152.55 285.71 146.7 285.71 139.21C285.71 131.72 291.05 125.33 297.7 124.92C304.41 124.52 309.9 130.35 309.9 137.97Z" fill="#DEEBFF"/>
<path d="M377.8 120.221L385.67 134.291L377.8 149.171L362.32 149.811L354.71 135.881L362.32 121.171L377.8 120.221Z" fill="#DEEBFF"/>
<path d="M330.49 122.91L345.29 150.3L316 151.52L330.49 122.91Z" fill="#B2D4FF"/>
<path d="M426.39 147.15L397.78 148.34V118.76L426.39 117V147.15Z" fill="#B2D4FF"/>
<path d="M244.89 315.301L325.38 321.741V209.701C325.38 186.981 306.58 168.761 283.87 169.471C262.15 170.151 244.89 187.961 244.89 209.701V315.301Z" fill="#0065FF"/>
<g opacity="0.15">
<path opacity="0.15" d="M254.71 183.371C257.72 195.421 263.74 207.281 273 215.061C284.95 225.101 292.23 219.811 304.31 229.631C324.77 246.261 320.19 275.181 325.39 285.401V209.701C325.39 186.981 306.59 168.761 283.88 169.471C272.2 169.841 261.82 175.161 254.71 183.371Z" fill="#091E42"/>
</g>
<path d="M325.38 321.741V298.041L245.26 315.331L325.38 321.741Z" fill="#0049B0"/>
<path d="M244.89 315.301L325.38 321.741L172.59 490.931L81.3999 475.291L244.89 315.301Z" fill="url(#paint2_linear)"/>
<path d="M178.59 306.31C177.49 306.1 176.61 304.2 177.01 302.68C177.35 301.35 178.57 300.69 178.81 300.56C179.7 300.08 180 300.38 181.06 300.04C183.22 299.34 184.15 297.37 184.65 297.65C184.77 297.72 184.88 297.93 184.8 298.57C184.92 298.59 185.09 298.63 185.17 298.76C185.34 299.04 184.99 299.54 184.82 299.77C183.11 302.15 182.26 303.34 181.62 303.97C179.97 305.6 179.14 306.41 178.59 306.31Z" fill="#D4B696"/>
<path d="M179.81 298.05C179.03 298.45 178.62 299.12 178.52 299.28C178 300.14 176.39 302.82 177.12 303.46C177.47 303.77 178.21 303.47 178.55 303.26C179.22 302.86 179.03 301.82 179.68 301.24C179.82 301.11 179.89 301.04 180.04 300.89C180.39 300.53 180.57 300.35 180.53 300.24C180.46 300.02 179.87 300.18 179.69 299.9C179.36 299.42 180.69 298.12 180.46 297.87C180.36 297.77 179.95 297.98 179.81 298.05Z" fill="#D4B696"/>
<path d="M184.15 302.08C183.7 302.69 183.29 302.9 182.47 303.48C180.27 305.01 179.15 306.32 179 306.18C178.91 306.1 179.24 305.62 179.43 305.36C180.9 303.27 184.27 299.25 184.91 299.71C185.21 299.93 184.79 301.21 184.15 302.08Z" fill="#D4B696"/>
<path d="M176.92 304.051L177.99 308.491L181.52 307.831L181.07 304.051H176.92Z" fill="#D4B696"/>
<path d="M130.77 294.64C131.85 294.96 133.49 293.66 133.83 292.13C134.13 290.79 133.35 289.65 133.19 289.42C132.62 288.59 132.21 288.72 131.42 287.93C129.82 286.32 129.88 284.15 129.31 284.17C129.17 284.18 128.98 284.31 128.76 284.92C128.65 284.88 128.48 284.84 128.35 284.92C128.07 285.09 128.15 285.7 128.2 285.98C128.64 288.88 128.86 290.32 129.14 291.18C129.86 293.38 130.24 294.48 130.77 294.64Z" fill="#D4B696"/>
<path d="M133.44 286.721C133.95 287.431 134.02 288.211 134.03 288.401C134.1 289.401 134.32 292.521 133.38 292.761C132.93 292.881 132.4 292.271 132.19 291.931C131.78 291.271 132.42 290.431 132.1 289.621C132.03 289.441 132 289.341 131.94 289.151C131.79 288.671 131.71 288.431 131.79 288.351C131.96 288.191 132.4 288.591 132.69 288.431C133.2 288.151 132.61 286.391 132.93 286.271C133.09 286.231 133.35 286.601 133.44 286.721Z" fill="#D4B696"/>
<path d="M127.74 288.341C127.86 289.091 128.13 289.471 128.6 290.351C129.86 292.711 130.27 294.391 130.47 294.341C130.58 294.311 130.51 293.731 130.46 293.411C130.1 290.881 128.93 285.761 128.15 285.881C127.77 285.941 127.57 287.281 127.74 288.341Z" fill="#D4B696"/>
<path d="M129.76 292.999L128.55 296.359L132.41 296.949L133.83 292.119L129.76 292.999Z" fill="#D4B696"/>
<path d="M142.06 362.17C141.64 363.94 141.08 366.6 140.67 369.86C140.15 373.97 140.02 377.72 140.38 387.79C140.52 391.64 140.73 396.58 141.07 402.33C140.92 404.72 140.79 407.16 140.71 409.63C140.37 419.17 140.58 428.23 141.17 436.74C142.96 436.76 144.76 436.79 146.55 436.81C147.03 428.8 147.69 420.58 148.54 412.18C148.85 409.12 149.18 406.09 149.53 403.09C149.76 401.17 150.15 398.09 150.68 394.31C153.11 377.01 154.75 372.51 152.06 368.21C150.98 366.5 148.48 363.64 142.06 362.17Z" fill="url(#paint3_linear)"/>
<path d="M159.02 361.41C165.35 369.52 172.06 379.06 178.6 390.07C185.42 401.55 190.74 412.44 194.91 422.21C193.13 422.72 191.35 423.23 189.56 423.74C187.71 421.26 185.39 418.15 182.72 414.56C177.76 407.88 176.56 406.21 175.15 403.73C172.93 399.8 171.6 396.31 170.83 393.97C167.92 392.42 165.36 391.04 163.25 389.9C155.36 385.64 148.55 381.88 143.81 376.56C142 374.53 140.53 372.32 140.66 369.85C140.69 369.38 140.85 368.48 141.17 366.71C141.5 364.89 141.8 363.4 142 362.41C144.07 362.61 146.38 362.71 148.9 362.64C152.77 362.52 156.17 362.02 159.02 361.41Z" fill="url(#paint4_linear)"/>
<path d="M193.94 418.34C194.6 420.01 195.48 421.91 196.67 423.9C197.99 426.11 200.49 427.33 203.04 427.02C204.65 426.83 206.25 426.63 207.86 426.44C208 426.89 207.97 426.79 208.12 427.24C205.88 428.48 203.64 429.72 201.39 430.96C200.7 431.02 198.75 431.21 198.65 431.87C198.63 432.01 198.69 432.22 199.05 432.51C198.43 432.82 197.79 433.13 197.13 433.43C196.46 433.73 195.67 433.5 195.27 432.89C193.4 430.07 188.36 422.43 187.87 421.28C189.89 420.3 191.91 419.32 193.94 418.34Z" fill="#253858"/>
<path d="M146.94 433.72C146.79 434.5 146.63 436.48 146.53 438.46C146.38 441.35 147.97 444.05 150.58 445.3C151.6 445.79 152.63 446.29 153.65 446.78C153.54 447.19 153.56 447.11 153.46 447.52C151.13 447.37 148.8 447.22 146.46 447.07C145.9 446.77 144.31 445.97 143.91 446.42C143.82 446.52 143.77 446.71 143.9 447.11C142.93 447.01 141.93 446.88 140.89 446.7C140.75 446.53 140.65 446.4 140.52 446.22C140.54 445.91 140.56 445.53 140.58 445.09C140.74 441.12 140.61 434.37 140.83 432.99C142.86 433.23 144.9 433.47 146.94 433.72Z" fill="#253858"/>
<path d="M161.51 335.741C152.39 335.031 145.81 334.071 145.35 333.871C144.94 333.691 144.52 333.491 144.52 333.491C144.39 333.431 144.27 333.371 144.12 333.301C140.76 331.661 132.91 327.021 130.26 317.311C127.27 306.341 133.17 297.591 134.02 296.361C132.05 296.031 130.08 295.711 128.1 295.381C126.5 298.081 121.83 306.731 123.69 317.641C125.36 327.391 131.34 333.641 134.03 336.451C136.75 339.291 139.4 341.251 141.31 342.501C142.01 344.651 142.68 347.391 142.95 350.601C143.4 355.941 142.55 360.371 141.72 363.321C148.13 363.531 154.54 363.731 160.95 363.941C158.54 361.071 158.24 358.941 158.42 357.501C158.83 354.281 161.9 352.871 162.13 349.051C162.22 347.521 161.82 346.241 161.49 345.431C163.79 345.011 173.44 342.991 179.89 334.081C189.16 321.271 183.16 306.171 182.77 305.251C180.78 306.341 178.8 307.431 176.81 308.521C177.6 310.171 178.72 315.291 178.49 318.661C177.88 328.031 169.78 335.921 161.51 335.741Z" fill="#0065FF"/>
<path d="M154.77 321.199C154.63 321.299 154.41 321.409 154.07 321.569C153.13 322.009 152.56 322.429 152.22 322.839C151.35 323.889 152.46 325.149 152.11 327.509C152.07 327.749 151.96 328.439 152.05 329.349C152.09 329.809 152.17 330.139 152.19 330.219C152.34 330.919 152.3 332.439 151.56 335.909C151.87 335.729 152.18 335.539 152.49 335.359C153.37 334.709 154.26 334.059 155.14 333.409C156.88 331.399 157.29 331.049 157.02 330.039C156.69 328.829 156.12 326.709 156.17 326.609C156.68 325.749 157.53 325.379 156.62 324.749C156.1 324.389 155.71 324.139 155.58 324.069C155.17 323.869 154.75 323.209 154.77 321.199Z" fill="#D4B696"/>
<path d="M152.28 322.771C153.26 325.501 154.43 329.951 154.01 335.411C154 335.551 153.99 335.691 153.97 335.831C153.46 341.351 148.11 345.241 142.77 343.741C142.59 343.691 142.4 343.631 142.22 343.571C142.19 343.561 142.16 343.551 142.13 343.541C138.8 342.401 137.33 338.541 138.91 335.391C139.97 333.271 140.53 331.391 140.85 329.841C141.82 325.081 140.71 322.221 143.07 319.801C144.87 317.961 147.68 317.401 148.61 317.211C150.41 316.851 151.36 317.081 151.82 317.271C152.92 317.701 153.63 318.361 153.97 318.731C154.8 319.591 155.19 320.501 155.38 321.031C154.98 321.171 154.54 321.351 154.08 321.591C153.33 321.961 152.73 322.391 152.28 322.771Z" fill="#172B4D"/>
<path opacity="0.15" d="M173.972 445.706C193.452 440.25 208.127 431.844 206.751 426.93C205.375 422.016 188.467 422.456 168.988 427.912C149.508 433.368 134.833 441.774 136.209 446.688C137.585 451.602 154.492 451.162 173.972 445.706Z" fill="#091E42"/>
<path d="M93.6398 206.602H89.5498V213.322H93.6398V206.602Z" fill="#48CC8C"/>
<path d="M153.29 59.6406H149.2V66.3606H153.29V59.6406Z" fill="#48CC8C"/>
<path d="M72.2748 98.0435L69.3828 100.936L74.1345 105.687L77.0266 102.795L72.2748 98.0435Z" fill="#165ECC"/>
<path d="M403.914 49.8052L401.021 52.6973L405.773 57.449L408.665 54.5569L403.914 49.8052Z" fill="#48CC8C"/>
<path d="M231.74 0.140625H227.65V6.86062H231.74V0.140625Z" fill="#FFC400"/>
<path d="M507.99 146.336L505.098 149.229L509.85 153.98L512.742 151.088L507.99 146.336Z" fill="#165ECC"/>
<path d="M519.421 98.0454L516.529 100.938L521.281 105.689L524.173 102.797L519.421 98.0454Z" fill="#48CC8C"/>
<path d="M56.3071 160.824L53.415 157.932L48.6633 162.683L51.5554 165.575L56.3071 160.824Z" fill="#FFC400"/>
<path d="M256.037 45.8354L253.145 42.9434L248.393 47.6951L251.285 50.5871L256.037 45.8354Z" fill="#165ECC"/>
<path d="M353.384 20.3178L350.492 17.4258L345.74 22.1775L348.632 25.0695L353.384 20.3178Z" fill="#165ECC"/>
<path d="M545.356 156.998L542.464 154.105L537.713 158.857L540.605 161.749L545.356 156.998Z" fill="#FFC400"/>
<path d="M287.12 36.6009L285.69 33.0609C287.96 32.1509 288.66 31.3409 288.71 31.0109C288.79 30.5509 287.81 29.5409 287.16 28.8709C285.92 27.5909 284.21 25.8209 284.91 23.5509C285.43 21.8509 286.94 21.1909 287.94 20.7609C288.25 20.6209 288.78 20.3909 288.9 20.2609C288.87 19.7809 287.39 18.2409 286.76 17.5709C285.28 16.0409 283.61 14.3009 284.75 12.3909C285.59 10.9809 287.24 11.0209 288.33 11.0509C288.75 11.0609 289.63 11.0809 289.84 10.9409C289.84 10.9309 290.22 10.1309 288.97 7.21094L292.48 5.71094C293.07 7.11094 294.88 11.3609 292.48 13.6909C291.58 14.5609 290.45 14.8009 289.44 14.8609C289.46 14.8809 289.48 14.9009 289.49 14.9209C291.21 16.7009 293.34 18.9209 292.48 21.5109C291.92 23.1809 290.43 23.8209 289.44 24.2509C289.11 24.3909 288.62 24.6109 288.5 24.7309C288.62 24.8909 289.41 25.7109 289.89 26.2009C291.14 27.5009 292.85 29.2709 292.45 31.6309C292.14 33.6609 290.39 35.2909 287.12 36.6009Z" fill="#0065FF"/>
<path d="M510.44 237.57L509.01 234.03C511.28 233.12 511.98 232.31 512.03 231.98C512.11 231.52 511.13 230.51 510.48 229.84C509.24 228.56 507.53 226.79 508.23 224.52C508.75 222.82 510.26 222.16 511.26 221.73C511.57 221.59 512.1 221.36 512.22 221.23C512.19 220.75 510.71 219.21 510.08 218.54C508.6 217.01 506.93 215.27 508.07 213.36C508.91 211.95 510.56 211.99 511.65 212.02C512.07 212.03 512.95 212.05 513.16 211.91C513.16 211.9 513.54 211.1 512.29 208.18L515.8 206.68C516.39 208.08 518.2 212.33 515.8 214.66C514.9 215.53 513.77 215.77 512.76 215.83C512.78 215.85 512.8 215.87 512.81 215.89C514.53 217.67 516.66 219.89 515.8 222.48C515.24 224.15 513.75 224.79 512.76 225.22C512.43 225.36 511.94 225.58 511.82 225.7C511.94 225.86 512.73 226.68 513.21 227.17C514.46 228.47 516.17 230.24 515.77 232.6C515.46 234.63 513.71 236.25 510.44 237.57Z" fill="#0065FF"/>
<path d="M212.77 286.64C211.11 285.56 209.04 283.94 207.09 281.59C203.19 276.89 201.97 271.91 201.53 269.29C202.26 265.64 204.35 258.29 210.7 254.43C213.55 252.7 218.12 251.17 219.33 252.55C220.61 254 216.63 259.06 215.77 260.23C213.08 263.36 210.39 266.49 207.7 269.61C208.54 270.85 209.4 272.25 210.22 273.82C211.61 276.47 212.57 278.98 213.23 281.15C213.08 282.99 212.92 284.81 212.77 286.64Z" fill="#F1DAD5"/>
<path opacity="0.15" d="M236.9 372.421C250.641 372.421 261.78 368.285 261.78 363.181C261.78 358.078 250.641 353.941 236.9 353.941C223.159 353.941 212.02 358.078 212.02 363.181C212.02 368.285 223.159 372.421 236.9 372.421Z" fill="#091E42"/>
<path d="M214.14 278.201C214.27 277.691 214.46 277.121 214.71 276.501C215.01 275.781 215.35 275.151 215.68 274.631C216.08 274.741 216.72 274.901 217.52 275.041C218.21 275.161 218.75 275.211 219.03 275.241C220.66 275.451 223.77 275.781 232.14 276.341C232.54 276.781 233.11 277.451 233.71 278.301C235.89 281.371 236.69 284.171 237.03 285.381C242.71 306.101 243.84 314.211 243.84 314.211C243.84 314.211 246.12 329.601 248.36 347.051C248.28 347.091 246.55 348.271 244.72 348.911C244.06 349.141 243.13 349.401 241.91 349.501C240.44 347.141 238.78 343.921 237.58 339.891C235.68 333.511 235.79 327.951 236.16 324.431C235.54 321.321 234.44 316.901 232.41 311.831C231.22 308.861 227.51 299.621 225.63 299.981C223.84 300.321 225.23 309.161 225.39 325.671C225.47 334.561 225.43 341.841 225.38 346.691C224.85 346.971 223.34 347.681 221.43 347.091C219.52 346.501 218.88 345.721 218.88 345.721C218.49 343.921 217.96 341.171 217.57 337.781C217.41 336.331 217.33 335.151 217.24 333.481C217.08 330.681 216.9 326.751 216.8 321.831C215.98 311.971 215.76 308.591 215.75 307.641C215.75 307.411 215.73 306.411 215.55 305.101C215.51 304.811 215.46 304.531 215.37 304.071C214.77 301.081 212.12 288.331 212.82 283.711C213.17 281.391 213.71 279.481 214.14 278.201Z" fill="#F0D0B4"/>
<path d="M248.52 346.352C247.92 346.902 246.58 347.992 244.42 348.582C242.8 349.022 241.39 349.012 240.55 348.942C241.38 351.942 242.18 354.342 242.76 355.982C244 359.482 245.08 361.892 245.39 365.622C245.46 366.422 245.47 367.082 245.47 367.522L249.65 367.502C249.88 367.292 250.12 367.072 250.35 366.862C250.72 367.062 251.09 367.262 251.46 367.472H262.1C262.77 367.472 263.24 366.942 263.03 366.422L258.79 365.322C254.38 364.172 251.17 361.042 250.56 357.272C250.15 354.752 249.68 351.972 249.28 349.982C249.04 348.752 248.78 347.542 248.52 346.352Z" fill="#172B4D"/>
<path d="M218.41 345.131C219.23 345.441 220.54 345.811 222.17 345.821C224.01 345.831 225.45 345.371 226.31 345.021C226.24 349.191 226.18 353.351 226.11 357.521L228.26 357.611C229.01 357.641 229.42 358.351 228.98 358.871C227.99 359.911 227 360.941 226.01 361.981C225.82 362.571 225.27 363.951 223.92 364.791C223.64 364.971 223.16 365.261 222.47 365.351C221.57 365.461 220.78 365.171 220.42 364.941C219.23 364.211 219.28 362.331 219.19 359.021C219.13 356.591 218.95 354.161 218.85 351.731C218.79 350.191 218.67 347.911 218.41 345.131Z" fill="#172B4D"/>
<path d="M268.21 236.501C267.74 236.161 267.5 236.201 267.39 235.951C267.22 235.561 267.6 235.021 268.44 234.081C269.68 232.681 270.51 231.761 272.01 230.731C272.42 230.451 272.97 230.101 273.67 229.751C274.17 229.501 275.87 228.681 276.23 229.011C276.43 229.201 276.36 229.631 275.94 229.851C275.52 230.061 275.85 229.871 275.18 230.211C274.87 230.371 273.07 231.631 273.52 232.061C273.59 232.131 273.7 232.161 273.77 232.231C273.87 232.331 273.86 232.431 273.9 232.531C273.99 232.781 274.21 232.861 274.33 232.981C274.71 233.341 274.39 234.291 274.35 234.401C273.97 235.471 272.84 235.871 272.65 235.931C272.45 236.341 272.02 237.061 271.18 237.561C270.73 237.831 270.08 238.211 269.52 237.981C268.94 237.741 269.05 237.111 268.21 236.501Z" fill="#F1DAD5"/>
<path d="M213.34 278.381C212.15 282.991 211.03 287.811 210 292.821C208.09 302.151 206.75 311.021 205.82 319.321C207.21 320.041 209.32 321.031 212.01 321.871C226.17 326.321 238.51 321.181 240.69 320.231C242.92 319.261 246.06 317.651 249.48 315.001C246.28 301.701 243.46 292.051 242.51 289.681C241.59 287.391 240.66 285.451 239.42 283.421C236.92 279.331 234.11 276.421 232.15 274.621L213.34 278.381Z" fill="url(#paint5_linear)"/>
<path d="M216.6 233.521C218.11 231.741 222.11 231.521 224.24 233.111C224.31 233.161 224.41 233.241 224.83 233.651C227.82 236.541 230.29 238.841 230.15 241.651C230.12 242.241 230.01 242.741 229.9 243.091C230.41 243.221 231.13 243.501 231.68 244.141C233 245.651 232.59 248.231 231.46 249.771C229.77 252.071 226.26 252.361 224.2 251.181C223.64 250.861 223.09 250.381 223.09 250.381C222.71 249.971 222.14 249.331 221.51 248.511C218.4 244.481 214.03 236.551 216.6 233.521Z" fill="#172B4D"/>
<path d="M221.34 232.941C222.9 234.011 224.79 236.351 225.64 237.591C225.77 237.821 225.81 237.931 226.35 238.101C226.89 238.271 227.56 238.261 227.5 238.651C227.44 239.041 226.8 239.641 226.78 239.971L228.07 243.921C228.25 244.491 228.03 245.111 227.52 245.421L226.5 246.051L220.12 249.951C220.68 247.491 221.11 244.831 221.35 241.981C221.39 241.481 221.42 240.991 221.45 240.501C221.8 240.041 222.47 239.051 222.65 237.621C222.68 237.381 222.82 236.181 222.32 234.741C222.02 233.921 221.63 233.321 221.34 232.941Z" fill="#F1DAD5"/>
<path d="M225.32 253.192L217.13 253.932C217.23 252.732 217.26 251.282 217.12 249.652C216.97 248.022 216.68 246.592 216.36 245.422C219.09 245.172 221.82 244.932 224.55 244.682L225.32 253.192Z" fill="#F1DAD5"/>
<path d="M208.29 256.221C208.75 255.821 209.21 255.421 209.68 255.021C209.68 255.021 211.4 253.621 213.65 252.801C217.63 251.341 225.73 251.091 231.1 250.741C234.56 250.511 236.98 250.351 240.2 249.811C245.05 249.001 248.92 247.791 251.45 246.881C252.52 246.071 253.98 244.971 255.74 243.681C260.47 240.231 262.36 239.101 265.42 236.571C266.51 235.671 267.9 234.461 269.47 232.941C269.69 233.421 269.92 234.041 270.07 234.791C270.28 235.861 270.25 236.781 270.17 237.431C265.32 245.061 259.87 249.191 256.5 251.311C252.67 253.711 248.83 255.221 246.13 256.281C241.54 258.081 237.51 259.181 234.49 259.861C234.99 260.561 235.62 261.631 235.98 263.041C236.48 265.041 236 266.061 235.68 268.931C235.16 273.621 235.66 278.081 235.66 278.081C235.66 278.081 232.7 279.921 224.1 279.921C218.9 279.921 217.74 279.621 213.34 279.121C213.52 275.251 213.28 269.821 211.4 263.731C210.5 260.821 209.39 258.311 208.29 256.221Z" fill="#F1DAD5"/>
<path d="M207.47 270.44C207.74 270.44 208 270.46 208.27 270.48C208.08 270.19 207.89 269.9 207.7 269.62C210.39 266.49 213.08 263.36 215.77 260.24C216.63 259.07 220.61 254.01 219.33 252.56C218.11 251.18 213.55 252.7 210.7 254.44C204.35 258.3 202.26 265.64 201.53 269.3C201.65 269.99 201.82 270.84 202.07 271.81C203.55 270.95 205.35 270.44 207.47 270.44Z" fill="#2DB07C"/>
<path d="M249.12 255.07C249.12 252.6 249.12 250.14 249.11 247.67C246.75 248.42 243.74 249.22 240.19 249.82C236.97 250.36 234.56 250.52 231.09 250.75C225.72 251.1 217.62 251.35 213.64 252.81C211.39 253.63 209.67 255.03 209.67 255.03C209.21 255.43 208.75 255.83 208.28 256.23C209.38 258.32 210.48 260.83 211.38 263.74C213.27 269.83 213.5 275.25 213.32 279.13C217.72 279.63 218.88 279.93 224.08 279.93C232.67 279.93 235.64 278.09 235.64 278.09C235.64 278.09 235.14 273.63 235.66 268.94C235.98 266.07 236.46 265.05 235.96 263.05C235.61 261.64 234.97 260.57 234.47 259.87C237.49 259.19 241.52 258.09 246.11 256.29C246.96 255.95 247.98 255.55 249.12 255.07Z" fill="url(#paint6_linear)"/>
<path d="M220.35 232.901C221.32 234.891 221.21 236.431 221.09 237.801C220.87 240.351 222.1 241.441 222.94 245.631C223.52 248.551 223.81 250.011 223.24 251.171C221.53 254.641 213.86 256.141 211.37 252.831C209.98 250.981 210.68 248.261 210.97 247.331C210.38 246.061 209.55 243.781 209.84 240.961C209.93 240.121 210.11 239.381 210.24 238.951C211.05 236.311 215.29 231.611 220.35 232.901Z" fill="#172B4D"/>
<path d="M6.89014 422.201L7.28014 427.741L12.7901 426.521L12.3701 422.201H6.89014Z" fill="#B5917C"/>
<path d="M78.5201 394.441C78.0401 396.031 78.0301 396.391 78.0401 396.651C78.0601 396.961 78.1001 397.751 78.5501 398.331C79.6001 399.681 82.5101 399.451 84.2301 398.231C84.9501 397.721 85.3401 397.121 85.9101 396.241C86.6601 395.091 86.5801 394.721 86.4901 394.541C86.3401 394.231 85.9601 394.101 85.7101 394.041C86.3901 393.311 86.4601 392.881 86.3601 392.621C86.1801 392.121 85.2501 391.751 85.2501 391.751C85.3001 391.601 85.6401 390.621 85.2601 390.321C85.1301 390.221 84.9601 390.231 84.2401 390.381C82.9001 390.661 82.9401 390.741 82.7001 390.711C81.8801 390.581 81.7701 389.641 81.0501 389.621C80.6301 389.611 80.3001 389.931 80.0801 390.151C79.5801 390.641 79.5601 391.111 79.1901 392.401C78.9201 393.351 78.9201 393.141 78.5201 394.441Z" fill="#B5917C"/>
<path d="M13.3604 427.191C12.2704 425.881 11.9604 425.671 11.7404 425.541C11.4604 425.381 10.7604 424.971 10.0104 425.031C8.26037 425.171 6.81037 427.801 6.89037 429.971C6.92037 430.881 7.22037 431.551 7.65037 432.541C8.21037 433.831 8.58037 433.971 8.79037 434.001C9.14037 434.041 9.46037 433.801 9.65037 433.611C9.89037 434.601 10.2204 434.901 10.5004 434.971C11.0304 435.091 11.8704 434.511 11.8704 434.511C11.9704 434.641 12.6204 435.481 13.0904 435.321C13.2504 435.271 13.3404 435.111 13.6204 434.411C14.1404 433.101 14.0404 433.091 14.2104 432.901C14.7804 432.271 15.6604 432.701 16.0704 432.101C16.3204 431.741 16.2204 431.281 16.1604 430.971C16.0104 430.271 15.6304 429.981 14.7304 428.931C14.0704 428.141 14.2504 428.261 13.3604 427.191Z" fill="#B5917C"/>
<path d="M39.6399 419.921C50.0699 430.841 51.2599 438.791 50.5599 443.861C49.7599 449.701 46.3199 452.711 38.5399 464.971C33.9999 472.121 30.6299 478.241 28.4499 482.401C26.7799 481.431 25.1099 480.461 23.4399 479.491C25.4399 473.721 25.7299 469.691 25.5899 467.021C25.5399 466.001 25.3399 463.571 26.2699 460.651C26.3799 460.291 26.6399 459.551 28.1699 456.701C30.4299 452.501 32.4699 449.291 33.6699 447.501C34.5699 446.161 35.3199 445.051 35.8499 444.291C34.8499 442.471 32.7499 438.681 30.0399 433.691C25.8799 426.051 23.8099 422.141 24.2399 417.241C24.3599 415.861 24.6399 414.741 24.8499 414.021C26.5499 415.331 29.0799 416.971 32.4099 418.231C35.1999 419.271 37.7099 419.721 39.6399 419.921Z" fill="url(#paint7_linear)"/>
<path d="M38.9603 392.461C40.4003 395.671 41.4603 398.361 44.1203 401.181C47.4303 404.691 51.1103 406.331 53.2003 407.071C56.1203 407.431 60.1003 407.581 64.6803 406.731C72.6703 405.251 78.3103 401.491 81.2503 399.191C80.1603 397.681 79.0703 396.181 77.9803 394.671C75.0003 395.411 71.7103 396.071 68.1303 396.581C63.2403 397.271 58.7503 397.521 54.7803 397.531C50.9903 391.871 48.3503 387.601 46.5403 384.551C45.1703 382.251 43.5303 379.301 40.4603 378.711C39.7603 378.581 37.9503 378.231 36.8503 379.161C34.0703 381.521 37.9503 390.201 38.9603 392.461Z" fill="#FFC400"/>
<path d="M30.5199 395.291L28.9199 422.201L46.1899 419.791C47.8999 414.991 47.5999 411.901 46.9499 409.931C46.7699 409.391 46.5299 408.821 46.3499 407.861C45.7299 404.451 47.0199 401.641 47.3399 400.861C48.3399 398.431 48.8199 393.961 46.6599 385.041C46.3899 383.851 45.9499 382.931 45.5199 382.251C42.6599 377.701 36.5199 377.461 35.6299 377.441C35.5499 378.721 35.4799 379.991 35.3999 381.271C33.4499 381.311 31.8299 382.791 31.6299 384.731L30.5199 395.291Z" fill="#FFC400"/>
<path d="M37.7703 378.481C38.8203 378.511 39.6803 378.781 40.3803 379.211C42.6803 380.631 43.4103 384.501 43.5903 386.091C44.6403 395.021 43.9703 413.721 43.9303 414.761C37.3903 415.421 30.8403 416.091 24.3003 416.751C24.7403 406.011 25.1703 395.281 25.6103 384.541L28.1803 381.391C29.8103 379.391 32.1603 378.291 34.6303 378.371C34.6303 378.381 37.7603 378.481 37.7703 378.481Z" fill="#FFE380"/>
<path d="M31.7901 373.212C31.4901 373.762 32.3401 374.852 31.9901 376.832C31.8901 377.392 31.7301 377.832 31.6401 378.062C32.6001 378.662 34.4501 379.642 36.9601 379.842C38.5701 379.972 39.9101 379.752 40.8301 379.512C41.4001 376.352 41.6901 374.772 41.6901 374.772C41.6901 374.772 41.6701 374.872 41.6401 375.052C34.0901 372.462 32.1301 372.582 31.7901 373.212Z" fill="#9C7761"/>
<path d="M40.9603 358.432C41.3703 359.312 41.7703 360.282 42.1503 361.352C42.6603 362.822 43.0203 364.202 43.2803 365.432C43.4103 365.642 43.6303 365.992 43.9503 366.422C44.9103 367.702 45.8503 368.432 45.6503 368.792C45.6303 368.822 44.7003 369.312 44.5503 369.472C44.2303 369.802 44.7503 372.952 44.2103 374.302C43.4303 376.262 35.0603 379.152 32.1803 374.662C31.7703 374.032 30.8803 373.202 30.2803 371.782C30.5703 371.722 30.9903 371.612 31.4103 371.342C32.3703 370.732 32.7803 369.792 32.9403 369.442C33.6703 367.802 35.5003 363.662 38.1203 361.922C38.4503 361.702 39.1303 361.292 39.8003 360.492C40.4503 359.692 40.7803 358.912 40.9603 358.432Z" fill="#B5917C"/>
<path d="M38.4399 362.011C39.3599 366.381 39.1199 367.621 38.6499 367.821C38.4199 367.921 38.2299 367.741 36.7199 367.141C34.9299 366.431 34.6699 366.461 34.5299 366.581C34.0999 366.931 34.5899 368.211 34.8099 368.721C33.8999 369.801 32.9899 370.881 32.0799 371.961C32.1699 372.381 32.2699 373.141 31.8899 373.851C31.8399 373.941 31.7899 374.021 31.7299 374.101C31.4199 373.881 30.8399 373.461 30.1899 372.861C27.7299 370.581 24.5799 365.981 26.0899 362.391C26.2699 361.961 26.6499 361.231 27.5099 360.471C27.5099 360.471 27.7799 360.221 28.0999 359.991C30.5299 358.221 37.4499 357.521 40.2499 355.951C40.4699 355.831 41.0899 355.461 41.5899 355.691C42.0999 355.931 42.2299 356.701 42.2699 357.191C42.0599 357.841 41.6799 358.751 40.9899 359.691C40.0999 360.881 39.0999 361.611 38.4399 362.011Z" fill="#253858"/>
<path d="M85.58 428.612C84.84 426.922 83.59 426.172 81.96 424.772C80.16 423.222 77.79 420.762 75.56 416.932C72.63 413.172 68.1 411.382 63.67 411.782C63.35 411.802 63.11 411.832 62.96 411.852L24.23 417.251L24.35 418.092C24.53 419.392 24.9 420.621 25.44 421.751C26.63 424.271 28.35 425.711 29.28 426.471C32.63 429.211 36.51 430.062 38.89 430.392C45.74 431.342 50.5 429.412 58.3 427.332C59.95 426.892 61.89 426.401 64.09 425.911C65.67 428.161 67.25 430.342 68.82 432.432C69.99 433.942 72.21 436.822 74.37 438.072C75.1 438.492 77.47 439.692 81.62 438.672L84.96 436.062C85.88 434.002 86.71 431.152 85.58 428.612Z" fill="url(#paint8_linear)"/>
<path d="M103.53 441.401C101.25 444.111 96.3801 450.081 94.6501 449.681C94.5801 449.661 94.13 449.531 93.85 449.761C93.59 449.981 93.6401 450.401 93.6201 450.631C93.5901 451.151 93.1601 451.861 91.4101 452.691C91.3601 452.741 91.06 453.021 90.6 453.021C90.32 453.021 90.04 452.921 89.84 452.701L86.77 449.411C86.1 448.691 86.1901 447.511 86.9801 446.781C87.3501 446.471 87.8901 445.971 88.4001 445.241C89.6701 443.441 89.45 442.111 90.38 441.591C91.24 441.111 92 441.941 93.52 442.281C94.14 442.241 94.8 442.151 95.49 442.011C98.75 441.331 101.12 439.641 102.57 438.361C103.28 438.921 103.98 439.471 104.69 440.031C104.46 440.311 104.04 440.791 103.53 441.401Z" fill="#505F79"/>
<path d="M76.1899 439.241L87.6099 450.331L94.1699 444.131L85.7799 429.521L76.1899 439.241Z" fill="#505F79"/>
<path d="M40.2503 489.361C36.7103 489.321 29.0003 489.341 28.2203 487.751C28.1903 487.691 28.0003 487.251 27.6503 487.191C27.3103 487.131 27.0203 487.431 26.8303 487.571C26.4103 487.871 25.5903 488.001 23.8303 487.171C23.7603 487.161 23.3603 487.111 23.0603 486.751C22.8803 486.531 22.7803 486.251 22.8203 485.961L23.4103 481.501C23.5403 480.531 24.5103 479.851 25.5703 479.991C26.0403 480.081 26.7803 480.181 27.6603 480.111C29.8603 479.941 30.7503 478.931 31.7303 479.321C32.6503 479.681 32.4903 480.791 33.1903 482.181C33.6203 482.631 34.1003 483.091 34.6503 483.531C37.2503 485.611 40.0603 486.381 41.9603 486.681C41.9803 487.581 42.0003 488.481 42.0103 489.381C41.6903 489.381 41.0503 489.371 40.2503 489.361Z" fill="#505F79"/>
<path d="M24.56 466.861L23.25 482.731L32.2 483.861L38.16 468.101L24.56 466.861Z" fill="#505F79"/>
<path d="M23.99 391.432C23.37 397.682 22.47 399.992 22.23 404.432C22.07 407.342 22.19 411.522 23.51 416.692C24.05 417.052 24.65 417.372 25.29 417.662C30.04 419.722 34.93 418.052 36.96 417.212C37.2 415.942 37.43 414.652 37.65 413.352C39.51 402.062 39.99 391.332 39.57 381.372C39.6 379.182 37.81 377.412 35.63 377.452L29.6 377.562C26.91 377.612 24.68 379.662 24.4 382.332C24.42 384.422 24.37 387.592 23.99 391.432Z" fill="#FFC400"/>
<path d="M34.6301 378.38C34.2102 377.06 22.5301 376.37 11.4701 384.2C9.06015 385.91 0.690149 391.75 0.0301488 400.59C0.0201488 400.73 0.0101488 400.88 0.0101488 401.06C-0.0398512 403.24 0.260149 405.31 1.17015 408.18C2.46015 412.24 3.28015 412.72 3.70015 415.77C3.85015 416.86 3.77015 416.97 3.91015 418.01C4.31015 421.11 5.45015 423.48 6.36015 425.02C6.37015 425.02 9.78015 424.71 9.79015 424.71C11.1101 424.58 12.4301 424.45 13.2201 424.4C12.9001 419.4 12.4601 414.23 11.8801 408.91C11.5301 405.66 11.1301 402.48 10.7101 399.38C15.9601 396.67 20.0701 394.64 22.5701 393.41C29.0301 390.25 33.4401 388.26 33.4401 385.44C33.4401 384.06 32.3601 382.86 32.9701 380.96C33.5102 379.26 34.7701 378.82 34.6301 378.38Z" fill="#FFC400"/>
<path d="M171.09 104.951V309.391L148.01 307.551V106.891L171.09 104.951Z" fill="#0065FF"/>
<path d="M166.46 122.84C166.46 127.19 163.32 130.85 159.49 131.01C155.69 131.17 152.64 127.83 152.64 123.55C152.64 119.27 155.69 115.62 159.49 115.39C163.32 115.16 166.46 118.49 166.46 122.84Z" fill="white"/>
</g>
<defs>
<linearGradient id="paint0_linear" x1="17.5554" y1="486.996" x2="91.6014" y2="486.996" gradientUnits="userSpaceOnUse">
<stop stop-color="#091E42"/>
<stop offset="1" stop-color="#091E42" stop-opacity="0"/>
</linearGradient>
<linearGradient id="paint1_linear" x1="137.344" y1="241.66" x2="477.175" y2="241.66" gradientUnits="userSpaceOnUse">
<stop stop-color="#FF991F"/>
<stop offset="1" stop-color="#FFC400"/>
</linearGradient>
<linearGradient id="paint2_linear" x1="203.392" y1="490.933" x2="203.392" y2="315.298" gradientUnits="userSpaceOnUse">
<stop stop-color="#4C9AFF" stop-opacity="0.6"/>
<stop offset="0.2333" stop-color="#358AFF" stop-opacity="0.7399"/>
<stop offset="0.6674" stop-color="#0065FF"/>
</linearGradient>
<linearGradient id="paint3_linear" x1="146.809" y1="436.82" x2="146.809" y2="362.168" gradientUnits="userSpaceOnUse">
<stop stop-color="#4C9AFF"/>
<stop offset="1" stop-color="#0065FF"/>
</linearGradient>
<linearGradient id="paint4_linear" x1="140.662" y1="392.576" x2="194.912" y2="392.576" gradientUnits="userSpaceOnUse">
<stop stop-color="#0052CC"/>
<stop offset="1" stop-color="#2684FF"/>
</linearGradient>
<linearGradient id="paint5_linear" x1="205.823" y1="299.145" x2="249.483" y2="299.145" gradientUnits="userSpaceOnUse">
<stop stop-color="#00875A"/>
<stop offset="0.3797" stop-color="#02895C"/>
<stop offset="0.5623" stop-color="#0A9062"/>
<stop offset="0.7027" stop-color="#179C6D"/>
<stop offset="0.8217" stop-color="#29AE7D"/>
<stop offset="0.9259" stop-color="#41C490"/>
<stop offset="1" stop-color="#57D9A3"/>
</linearGradient>
<linearGradient id="paint6_linear" x1="208.294" y1="263.792" x2="249.116" y2="263.792" gradientUnits="userSpaceOnUse">
<stop stop-color="#36B37E"/>
<stop offset="1" stop-color="#79F2C0"/>
</linearGradient>
<linearGradient id="paint7_linear" x1="19.2252" y1="449.249" x2="51.3562" y2="444.769" gradientUnits="userSpaceOnUse">
<stop offset="0.3455" stop-color="#FFAB00"/>
<stop offset="1" stop-color="#FFC400"/>
</linearGradient>
<linearGradient id="paint8_linear" x1="69.6369" y1="406.755" x2="51.0866" y2="431.317" gradientUnits="userSpaceOnUse">
<stop stop-color="#FFC400"/>
<stop offset="0.5644" stop-color="#FF991F"/>
</linearGradient>
<clipPath id="clip0">
<rect width="545.36" height="494.5" fill="white" transform="translate(0 0.140625)"/>
</clipPath>
</defs>
</svg>
