<svg width="226" height="222" viewBox="0 0 226 222" fill="none" xmlns="http://www.w3.org/2000/svg">
<path d="M208.55 0H42.9199C39.6062 0 36.9199 2.68629 36.9199 6V63.51C36.9199 66.8237 39.6062 69.51 42.9199 69.51H208.55C211.864 69.51 214.55 66.8237 214.55 63.51V6C214.55 2.68629 211.864 0 208.55 0Z" fill="url(#paint0_linear)"/>
<path d="M191.11 65.0899C197.986 65.0899 203.56 59.5159 203.56 52.6399C203.56 45.764 197.986 40.1899 191.11 40.1899C184.234 40.1899 178.66 45.764 178.66 52.6399C178.66 59.5159 184.234 65.0899 191.11 65.0899Z" fill="white"/>
<path d="M208.55 151.85H42.9199C39.6062 151.85 36.9199 154.536 36.9199 157.85V215.36C36.9199 218.674 39.6062 221.36 42.9199 221.36H208.55C211.864 221.36 214.55 218.674 214.55 215.36V157.85C214.55 154.536 211.864 151.85 208.55 151.85Z" fill="#C1C7D0"/>
<path d="M47.46 209.33H91.1" stroke="white" stroke-width="2" stroke-miterlimit="10"/>
<path d="M47.46 171.37H162.56" stroke="white" stroke-width="2" stroke-miterlimit="10"/>
<path d="M47.46 188.85H111.1" stroke="white" stroke-width="2" stroke-miterlimit="10"/>
<path d="M47.46 179.93H162.56" stroke="white" stroke-width="2" stroke-miterlimit="10"/>
<path d="M47.46 162.8H162.56" stroke="white" stroke-width="2" stroke-miterlimit="10"/>
<path d="M191.11 214.79C197.986 214.79 203.56 209.216 203.56 202.34C203.56 195.464 197.986 189.89 191.11 189.89C184.234 189.89 178.66 195.464 178.66 202.34C178.66 209.216 184.234 214.79 191.11 214.79Z" fill="white"/>
<g style="mix-blend-mode:multiply">
<path d="M208.56 151.85H42.9199C41.3286 151.85 39.8025 152.482 38.6773 153.607C37.5521 154.733 36.9199 156.259 36.9199 157.85V163.85H151.29C160.722 169.108 171.733 170.789 182.303 168.584C192.874 166.38 202.296 160.439 208.84 151.85H208.56Z" fill="#DFE1E5"/>
</g>
<path d="M185.04 58.1801V50.3901C185.04 50.1089 184.928 49.8393 184.73 49.6405C184.531 49.4418 184.261 49.3301 183.98 49.3301H171.18C170.899 49.3301 170.629 49.4418 170.43 49.6405C170.232 49.8393 170.12 50.1089 170.12 50.3901V58.1801C170.121 58.3196 170.095 58.4581 170.042 58.5873C169.989 58.7165 169.911 58.8339 169.813 58.9326C169.714 59.0313 169.596 59.1093 169.467 59.1621C169.338 59.2149 169.2 59.2414 169.06 59.2401C168.78 59.2427 168.512 59.3552 168.313 59.5534C168.115 59.7517 168.003 60.0198 168 60.3001V62.3001H187.16V60.3001C187.157 60.0198 187.045 59.7517 186.847 59.5534C186.648 59.3552 186.38 59.2427 186.1 59.2401C185.96 59.2414 185.822 59.2149 185.693 59.1621C185.564 59.1093 185.446 59.0313 185.347 58.9326C185.249 58.8339 185.171 58.7165 185.118 58.5873C185.065 58.4581 185.039 58.3196 185.04 58.1801Z" fill="url(#paint1_linear)"/>
<path d="M171.63 75.45H6C2.68629 75.45 0 78.1362 0 81.45V138.96C0 142.274 2.68629 144.96 6 144.96H171.63C174.944 144.96 177.63 142.274 177.63 138.96V81.45C177.63 78.1362 174.944 75.45 171.63 75.45Z" fill="#0065FF"/>
<path d="M171.63 75.45H150.77C144.631 78.4779 139.265 82.8694 135.084 88.2887C130.902 93.7081 128.015 100.012 126.643 106.718C125.27 113.424 125.45 120.356 127.167 126.982C128.884 133.608 132.094 139.754 136.55 144.95H171.64C173.231 144.95 174.757 144.318 175.883 143.193C177.008 142.067 177.64 140.541 177.64 138.95V81.45C177.64 80.6612 177.485 79.8802 177.182 79.1516C176.88 78.4229 176.437 77.7611 175.879 77.2038C175.321 76.6465 174.658 76.2047 173.929 75.9038C173.2 75.6029 172.419 75.4486 171.63 75.45Z" fill="#0052CC"/>
<path d="M137.631 73.3347L144.83 66.1364C145.221 65.7444 145.753 65.5242 146.307 65.5242C146.862 65.5242 147.393 65.7444 147.785 66.1364L151.229 69.58L141.046 79.7623L137.603 76.3187C137.406 76.1223 137.251 75.8886 137.146 75.6314C137.041 75.3742 136.988 75.0986 136.991 74.8208C136.993 74.5429 137.051 74.2684 137.161 74.0132C137.271 73.7581 137.431 73.5274 137.631 73.3347Z" fill="#DE350B"/>
<path d="M210.159 66.136L217.343 73.3202C217.741 73.7178 217.964 74.257 217.964 74.8193C217.964 75.3816 217.741 75.9208 217.343 76.3184L213.807 79.8539L203.625 69.6716L207.161 66.136C207.558 65.7385 208.097 65.5151 208.66 65.5151C209.222 65.5151 209.761 65.7384 210.159 66.136Z" fill="#FF7452"/>
<path d="M177.63 150.64C202.433 150.64 222.54 130.533 222.54 105.73C222.54 80.927 202.433 60.8201 177.63 60.8201C152.827 60.8201 132.72 80.927 132.72 105.73C132.72 130.533 152.827 150.64 177.63 150.64Z" fill="url(#paint2_linear)"/>
<path d="M213.907 117.748C220.549 97.7116 209.691 76.0848 189.654 69.4429C169.618 62.8011 147.991 73.6593 141.35 93.6955C134.708 113.732 145.566 135.358 165.602 142C185.638 148.642 207.265 137.784 213.907 117.748Z" fill="#DFE1E5"/>
<path d="M181.54 70.18C175.817 69.2668 169.961 69.6693 164.416 71.357C158.871 73.0446 153.784 75.973 149.54 79.92C142.843 87.1818 139.22 96.7562 139.432 106.632C139.645 116.509 143.676 125.918 150.679 132.885C157.683 139.853 167.113 143.835 176.99 143.996C186.868 144.157 196.423 140.485 203.65 133.75C208.328 128.669 211.541 122.413 212.945 115.651C214.349 108.888 213.892 101.871 211.623 95.3469C209.354 88.8231 205.358 83.0371 200.06 78.6052C194.763 74.1732 188.362 71.2614 181.54 70.18Z" fill="url(#paint3_linear)"/>
<path d="M176.77 137.27L176.9 133.27L176.74 137.27C175.97 137.27 175.25 137.2 174.55 137.13L175.33 129.13C175.86 129.13 176.4 129.22 176.94 129.23V133.23L176.77 137.27ZM186.77 135.94L184.45 128.28C184.98 128.12 185.52 127.94 186.04 127.74L188.9 135.21C188.19 135.47 187.48 135.72 186.77 135.94ZM164.77 134.54C164.08 134.23 163.4 133.9 162.77 133.54L166.56 126.54C167.05 126.8 167.56 127.05 168.07 127.28L164.77 134.54ZM197.62 130.14L192.55 123.95C192.98 123.6 193.41 123.22 193.81 122.84L199.31 128.65C198.77 129.18 198.19 129.67 197.61 130.18L197.62 130.14ZM154.77 127.42C154.25 126.87 153.77 126.31 153.28 125.73L159.46 120.65C159.82 121.09 160.19 121.51 160.57 121.92L154.77 127.42ZM205.47 120.65L198.47 116.86C198.73 116.37 198.98 115.86 199.21 115.35L206.51 118.63C206.12 119.31 205.77 119.99 205.43 120.65H205.47ZM148.2 117.02C147.93 116.32 147.69 115.6 147.47 114.89L155.12 112.56C155.29 113.1 155.47 113.63 155.67 114.14L148.2 117.02ZM209.07 108.87L201.07 108.08C201.07 107.54 201.16 107 201.18 106.45L206.18 106.56L209.18 106.67C209.15 107.42 209.1 108.18 209.03 108.87H209.07ZM154.12 105L146.12 104.89V104.73C146.12 104.01 146.19 103.26 146.27 102.51L154.22 103.32C154.14 103.88 154.1 104.44 154.08 105H154.12ZM200.23 98.9399C200.07 98.4099 199.89 97.8699 199.69 97.3499L207.16 94.4999C207.43 95.1999 207.68 95.9199 207.89 96.6299L200.23 98.9399ZM156.23 96.0599L148.94 92.7599C149.25 92.0799 149.58 91.3999 149.94 90.7599L156.94 94.5699C156.63 95.0399 156.38 95.5499 156.15 96.0599H156.23ZM195.95 90.8299C195.6 90.3999 195.22 89.9799 194.84 89.5699L200.66 84.0799C201.17 84.6299 201.66 85.1999 202.15 85.7799L195.95 90.8299ZM161.58 88.5799L156.09 82.7499C156.64 82.2399 157.21 81.7499 157.79 81.2699L162.84 87.4699C162.33 87.8199 161.9 88.1799 161.5 88.5799H161.58ZM188.77 84.9799C188.28 84.7099 187.77 84.4599 187.27 84.2299L190.56 76.9399C191.24 77.2499 191.92 77.5799 192.56 77.9399L188.77 84.9799ZM169.27 83.6999L166.43 76.1799C167.13 75.9199 167.85 75.6699 168.56 75.4599L170.87 83.1799C170.33 83.3266 169.8 83.4999 169.28 83.6999H169.27ZM180 82.2899C179.47 82.2299 178.94 82.1999 178.4 82.1799H178.23L178.44 78.1799V74.1799H178.56C179.29 74.1799 180.04 74.2499 180.77 74.3299L180 82.2899Z" fill="#344563"/>
<path d="M186 74.9099L177.5 105.97" stroke="#FF5630" stroke-width="2" stroke-miterlimit="10"/>
<path d="M177.5 109.04C179.206 109.04 180.59 107.657 180.59 105.95C180.59 104.244 179.206 102.86 177.5 102.86C175.793 102.86 174.41 104.244 174.41 105.95C174.41 107.657 175.793 109.04 177.5 109.04Z" fill="#F4F5F7" stroke="#FF5630" stroke-width="2" stroke-miterlimit="10"/>
<path d="M19.8501 105.74H119.94" stroke="#B2D4FF" stroke-width="2" stroke-miterlimit="10"/>
<path d="M19.8501 123.22H63.4801" stroke="#B2D4FF" stroke-width="2" stroke-miterlimit="10"/>
<path d="M19.8501 114.3H119.94" stroke="#B2D4FF" stroke-width="2" stroke-miterlimit="10"/>
<path d="M19.8501 97.1699H119.94" stroke="#B2D4FF" stroke-width="2" stroke-miterlimit="10"/>
<path d="M47.46 21.5701H162.56" stroke="white" stroke-width="2" stroke-miterlimit="10"/>
<path d="M47.46 39.0601H111.1" stroke="white" stroke-width="2" stroke-miterlimit="10"/>
<path d="M47.46 56.6001H91.1" stroke="white" stroke-width="2" stroke-miterlimit="10"/>
<path d="M47.46 30.1399H162.56" stroke="white" stroke-width="2" stroke-miterlimit="10"/>
<path d="M47.46 13.01H162.56" stroke="white" stroke-width="2" stroke-miterlimit="10"/>
<defs>
<linearGradient id="paint0_linear" x1="36.9199" y1="34.75" x2="214.56" y2="34.75" gradientUnits="userSpaceOnUse">
<stop stop-color="#C1C7D0"/>
<stop offset="1" stop-color="#EBECF0"/>
</linearGradient>
<linearGradient id="paint1_linear" x1="168" y1="55.8301" x2="187.16" y2="55.8301" gradientUnits="userSpaceOnUse">
<stop stop-color="#DE350B"/>
<stop offset="1" stop-color="#FF7452"/>
</linearGradient>
<linearGradient id="paint2_linear" x1="209.38" y1="73.9701" x2="145.87" y2="137.48" gradientUnits="userSpaceOnUse">
<stop offset="0.19" stop-color="#FF7452"/>
<stop offset="1" stop-color="#DE350B"/>
</linearGradient>
<linearGradient id="paint3_linear" x1="137.26" y1="106.8" x2="213.7" y2="106.8" gradientUnits="userSpaceOnUse">
<stop stop-color="#DFE1E5"/>
<stop offset="1" stop-color="white"/>
</linearGradient>
</defs>
</svg>
