<svg width="257" height="169" viewBox="0 0 257 169" fill="none" xmlns="http://www.w3.org/2000/svg">
<g clip-path="url(#clip0)">
<rect width="257" height="168.7" fill="white" fill-opacity="0.01"/>
<path d="M202.486 32.8729L202.578 32.736C202.806 32.3251 203.217 32.0511 203.673 31.9598C203.902 31.9142 204.13 31.8685 204.404 31.8229C204.45 31.7772 204.632 31.6859 204.723 31.4576C204.815 31.2293 204.769 31.0467 204.769 30.9554C204.678 30.7728 204.632 30.5445 204.541 30.3618L205.865 29.7227L206.778 31.6859L204.267 32.736L202.486 32.8729Z" fill="#344563"/>
<path d="M174.408 144.64C154.273 136.559 148.475 128.158 134.823 126.058C129.345 125.236 120.761 125.099 109.393 130.03C106.106 126.332 95.148 114.963 77.7529 112.909C60.723 110.9 47.6653 118.935 43.3279 121.629C30.6811 129.482 31.4116 135.691 19.5866 142.996C13.4686 146.786 6.16362 148.84 0 149.936H190.798C186.78 148.932 181.073 147.288 174.408 144.64Z" fill="url(#paint0_linear)"/>
<path opacity="0.1" d="M75.606 168.655C82.4646 168.655 88.0246 167.572 88.0246 166.235C88.0246 164.899 82.4646 163.815 75.606 163.815C68.7475 163.815 63.1875 164.899 63.1875 166.235C63.1875 167.572 68.7475 168.655 75.606 168.655Z" fill="url(#paint1_linear)"/>
<path d="M252.799 119.529C249.923 122.679 247.275 122.953 246.955 125.327C246.544 128.158 250.06 129.025 250.699 132.13C251.931 138.522 239.148 145.051 237.732 145.736C231.295 148.977 222.848 150.895 221.524 148.977C220.292 147.197 226.866 144.32 226.547 139.207C226.181 133.317 217.187 130.989 218.146 126.56C218.694 124.094 221.57 124.505 223.488 121.446C227.186 115.557 219.972 108.48 223.305 105.421C225.405 103.503 228.692 105.786 231.295 103.777C234.582 101.266 230.793 96.6093 233.486 90.8109C235.632 86.291 241.248 82.1362 245.311 83.1407C248.599 83.9625 250.379 88.0259 250.836 90.674C251.658 95.5592 248.279 97.4768 249.877 100.901C251.292 103.869 254.26 103.138 256.041 106.152C258.323 110.124 255.995 116.013 252.799 119.529Z" fill="#FFC400"/>
<path d="M220.84 131.491C221.433 131.993 222.027 132.541 222.666 133.043L219.196 124.962C218.876 125.19 218.648 125.464 218.42 125.829L220.84 131.491Z" fill="#FF991F"/>
<path d="M242.754 95.742L246.315 83.5518C245.995 83.4148 245.676 83.2778 245.356 83.1865L241.795 95.3311L237.64 85.6976C237.366 85.9259 237.092 86.1542 236.818 86.4281L241.338 96.9291L238.234 107.567L232.572 94.3723C232.481 95.2398 232.481 96.1073 232.527 96.9291L237.777 109.165L232.481 127.291L223.578 106.563L222.619 106.974L232.024 128.889L227.504 144.275L226.317 141.49C226.18 141.946 225.952 142.357 225.724 142.814L227.048 145.873L225.906 149.708C226.272 149.662 226.637 149.617 227.048 149.525L227.915 146.512L248.643 128.934C248.415 128.66 248.141 128.432 247.958 128.158L228.463 144.686L232.892 129.528L256.953 109.119C256.907 108.708 256.861 108.298 256.77 107.932L233.485 127.702L238.736 109.85L249.693 100.445C249.556 100.034 249.465 99.6685 249.465 99.2576L239.192 107.978L242.251 97.5683L250.789 90.3089C250.698 89.9437 250.607 89.5784 250.515 89.1675L242.754 95.742Z" fill="#FF991F"/>
<path d="M252.799 119.529C249.923 122.679 247.275 122.953 246.955 125.327C246.544 128.158 250.06 129.025 250.699 132.13C251.931 138.522 239.148 145.051 237.732 145.736C231.295 148.977 222.848 150.895 221.524 148.977C220.292 147.197 226.866 144.32 226.547 139.207C226.181 133.317 217.187 130.989 218.146 126.56C218.694 124.094 221.57 124.505 223.488 121.446C227.186 115.557 219.972 108.48 223.305 105.421C225.405 103.503 228.692 105.786 231.295 103.777C234.582 101.266 230.793 96.6093 233.486 90.8109C235.632 86.291 241.248 82.1362 245.311 83.1407C248.599 83.9625 250.379 88.0259 250.836 90.674C251.658 95.5592 248.279 97.4768 249.877 100.901C251.292 103.869 254.26 103.138 256.041 106.152C258.323 110.124 255.995 116.013 252.799 119.529Z" fill="url(#paint2_linear)"/>
<path d="M146.603 149.57C146.557 149.57 146.512 149.57 146.512 149.57C146.238 149.525 146.055 149.205 146.101 148.931L161.578 77.2507C161.624 76.9768 161.944 76.7485 162.217 76.8398C162.491 76.8854 162.674 77.205 162.628 77.479L147.151 149.16C147.105 149.388 146.877 149.57 146.603 149.57Z" fill="#0065FF"/>
<g opacity="0.4">
<path opacity="0.5" d="M77.4785 7.53357L72.7302 11.3231L68.2559 7.53357C68.2559 7.53357 70.9952 7.16832 72.8672 9.26851C74.7391 7.03135 77.4785 7.53357 77.4785 7.53357Z" fill="#00A3BF"/>
<path opacity="0.5" d="M89.623 12.4639L84.8747 16.2534L80.4004 12.4639C80.4004 12.4639 83.1398 12.0986 85.0117 14.1988C86.838 11.916 89.623 12.4639 89.623 12.4639Z" fill="#00A3BF"/>
</g>
<path d="M19.496 50.9986C19.1764 50.9073 18.8568 50.816 18.5828 50.7247L21.1852 42.7804C21.3222 42.8261 21.5048 42.8718 21.6418 42.9174L19.496 50.9986ZM29.1295 50.7247L26.5727 42.7804C26.7097 42.7348 26.8923 42.6891 27.0293 42.5978L30.0426 50.4051C29.7686 50.4964 29.4491 50.6334 29.1295 50.7247ZM10.6386 45.2915C10.456 45.0633 10.2277 44.7893 10.0451 44.5154L16.8022 39.5845C16.8935 39.7215 16.9848 39.8584 17.1218 39.9954L10.6386 45.2915ZM37.6672 44.5154L30.9557 39.5845C31.047 39.4475 31.1383 39.3106 31.2297 39.1736L38.2607 43.6936C38.0781 44.0132 37.8955 44.2871 37.6672 44.5154ZM6.80347 35.4298C6.80347 35.1102 6.75781 34.7906 6.75781 34.471V34.4253H15.1129V34.471C15.1129 34.6536 15.1129 34.7906 15.1129 34.9732L6.80347 35.4298ZM32.5993 34.471C32.5993 34.2884 32.5993 34.1057 32.5993 33.9688L40.9545 33.5122C40.9545 33.8318 41.0001 34.1514 41.0001 34.4253L32.5993 34.471ZM16.5283 29.7227L9.54285 25.1571C9.72548 24.8831 9.90811 24.6092 10.0907 24.3353L16.8022 29.2661C16.7109 29.4488 16.6196 29.5857 16.5283 29.7227ZM30.9557 29.3575C30.8644 29.2205 30.7731 29.0835 30.6361 28.9466L37.1193 23.6504C37.3476 23.9243 37.5302 24.1526 37.7129 24.4266L30.9557 29.3575ZM20.7287 26.2985L17.7154 18.4912C18.0349 18.3543 18.3089 18.263 18.6285 18.1716L21.1852 26.1159C21.0483 26.2072 20.8656 26.2528 20.7287 26.2985ZM26.6184 26.1615C26.4814 26.1159 26.2988 26.0702 26.1618 26.0245L28.262 17.9434C28.5816 18.0347 28.9012 18.126 29.1751 18.2173L26.6184 26.1615Z" fill="url(#paint3_linear)"/>
<path d="M23.879 40.9083C27.4343 40.9083 30.3165 38.0261 30.3165 34.4708C30.3165 30.9154 27.4343 28.0332 23.879 28.0332C20.3236 28.0332 17.4414 30.9154 17.4414 34.4708C17.4414 38.0261 20.3236 40.9083 23.879 40.9083Z" fill="url(#paint4_linear)"/>
<path d="M222.712 117.977H163.267C162.491 117.977 161.852 117.337 161.852 116.561V34.471C161.852 33.6949 162.491 33.0557 163.267 33.0557H222.712C223.488 33.0557 224.127 33.6949 224.127 34.471V116.561C224.127 117.337 223.488 117.977 222.712 117.977Z" fill="#F0F2F5"/>
<path d="M153.725 81.3602H94.2806C93.5044 81.3602 92.8652 80.721 92.8652 79.9448V34.471C92.8652 33.6949 93.5044 33.0557 94.2806 33.0557H153.725C154.501 33.0557 155.141 33.6949 155.141 34.471V79.9448C155.141 80.721 154.501 81.3602 153.725 81.3602Z" fill="#F0F2F5"/>
<path d="M103.503 78.4375C98.9832 78.4375 95.0111 78.8941 92.8652 79.6246V79.9898C92.8652 80.766 93.5044 81.4052 94.2806 81.4052H115.693C115.876 81.2682 115.967 81.0856 115.967 80.9029C115.967 79.5333 110.397 78.4375 103.503 78.4375Z" fill="url(#paint5_linear)"/>
<path d="M174.912 65.7909C175.14 66.0192 174.592 67.0693 175.917 65.5627C176.008 65.4713 176.419 65.1517 176.464 64.6495C176.51 64.1017 176.008 63.919 176.145 63.4168C176.19 63.1429 176.373 63.0515 176.373 62.732C176.373 62.5037 176.236 62.2754 176.145 62.2754C176.008 62.2754 176.008 62.595 175.734 63.0972C175.506 63.6451 175.369 63.5994 175.232 64.056C175.186 64.2386 175.14 64.3756 175.003 64.7408C174.912 64.9691 174.912 64.9691 174.912 65.0604C174.821 65.2431 174.729 65.654 174.912 65.7909Z" fill="#A27F68"/>
<path d="M161.945 72.1371C161.991 71.3609 162.904 70.95 164.228 70.4021C167.607 68.9868 169.068 68.9411 170.803 68.165C171.944 67.6627 173.496 66.6583 175.003 64.6494C175.277 65.106 175.551 65.5169 175.871 65.9734C174.181 67.891 172.583 69.2151 171.396 70.0825C169.844 71.1783 168.337 71.9544 167.789 72.274C165.415 73.4611 164.274 73.6437 163.543 74.3286C163.498 74.3742 163.406 74.4655 163.224 74.4655C162.63 74.4199 161.9 73.0045 161.945 72.1371Z" fill="#2DB07C"/>
<path d="M175.413 63.8731L176.737 62.4577C176.828 62.4121 176.965 62.4121 177.056 62.5034C177.056 62.6403 177.011 62.7317 177.102 62.7773C177.148 62.823 177.193 62.7317 177.285 62.7773C177.422 62.823 177.376 63.0969 177.376 63.1882C177.376 63.2795 177.33 63.3709 177.33 63.4622L177.422 63.7818C177.467 63.8731 177.422 64.01 177.33 64.0557L177.285 64.5123C177.33 64.6492 176.828 65.0601 176.828 65.1058L176.052 65.471C176.006 65.5167 176.006 65.5167 175.961 65.5167C175.824 65.5624 175.687 65.471 175.641 65.3797L175.367 64.147C175.367 64.01 175.367 63.9187 175.413 63.8731Z" fill="#A27F68"/>
<path d="M174.912 65.7909C175.14 66.0192 174.592 67.0693 175.917 65.5627C176.008 65.4713 176.419 65.1517 176.464 64.6495C176.51 64.1017 176.008 63.919 176.145 63.4168C176.19 63.1429 176.373 63.0515 176.373 62.732C176.373 62.5037 176.236 62.2754 176.145 62.2754C176.008 62.2754 176.008 62.595 175.734 63.0972C175.506 63.6451 175.369 63.5994 175.232 64.056C175.186 64.2386 175.14 64.3756 175.003 64.7408C174.912 64.9691 174.912 64.9691 174.912 65.0604C174.821 65.2431 174.729 65.654 174.912 65.7909Z" fill="#A27F68"/>
<path d="M161.945 72.1371C161.991 71.3609 162.904 70.95 164.228 70.4021C167.607 68.9868 169.068 68.9411 170.803 68.165C171.944 67.6627 173.496 66.6583 175.003 64.6494C175.277 65.106 175.551 65.5169 175.871 65.9734C174.181 67.891 172.583 69.2151 171.396 70.0825C169.844 71.1783 168.337 71.9544 167.789 72.274C165.415 73.4611 164.274 73.6437 163.543 74.3286C163.498 74.3742 163.406 74.4655 163.224 74.4655C162.63 74.4199 161.9 73.0045 161.945 72.1371Z" fill="url(#paint6_linear)"/>
<path d="M84.7389 149.936H25.2943C24.5181 149.936 23.8789 149.297 23.8789 148.521V34.471C23.8789 33.6949 24.5181 33.0557 25.2943 33.0557H84.7389C85.5151 33.0557 86.1543 33.6949 86.1543 34.471V148.521C86.1543 149.297 85.5151 149.936 84.7389 149.936Z" fill="#F0F2F5"/>
<path d="M77.0233 141.17C77.069 141.125 77.069 141.079 77.1146 141.033C77.5255 140.348 77.5255 139.344 77.1146 138.613C76.6581 137.792 75.7449 137.518 75.5167 137.472C75.608 137.061 75.7906 136.239 75.5167 135.28C75.4253 134.961 74.9688 133.591 73.6447 133.135C73.4621 133.089 72.6403 132.815 71.7272 133.18C70.4031 133.774 70.1292 135.28 70.0835 135.509C69.9922 136.148 70.1292 136.696 70.2205 137.015C70.0379 137.152 69.6726 137.472 69.4443 137.929C69.353 138.111 68.9421 138.842 69.1248 139.709C69.1248 139.755 69.1248 139.755 69.1704 139.8C68.6225 140.303 68.8052 141.079 68.3029 142.312C68.166 142.586 68.0747 142.814 67.9833 142.951C66.6136 143.681 65.2896 144.412 63.9199 145.142C64.0112 145.462 64.1482 145.827 64.2395 146.147C65.1983 145.964 66.568 145.599 67.892 144.868C68.2116 144.686 68.6682 144.457 69.0334 144.138C69.353 144.457 69.9009 144.731 70.5858 144.914C70.5858 145.142 70.5858 145.416 70.5858 145.69C70.5858 146.329 70.5401 146.877 70.4488 147.288C70.4488 147.288 70.4488 147.288 70.4488 147.334C70.4031 147.471 70.4031 147.562 70.3575 147.699C70.1749 148.201 70.0379 149.069 69.9466 149.48C69.9009 149.662 69.9009 149.845 69.9009 150.028H77.2516C77.2059 149.251 77.0233 148.384 76.6581 147.516C76.7037 147.516 76.795 147.516 76.8407 147.516C76.6581 147.151 76.2015 146.238 76.1102 145.097C76.7037 144.914 77.069 144.686 77.2059 144.366C77.2973 144.092 77.3886 143.316 76.9777 142.814C76.8863 142.677 76.795 142.631 76.7037 142.586C76.7494 142.54 76.7494 142.449 76.795 142.403C76.8864 141.946 76.9777 141.581 77.0233 141.17Z" fill="url(#paint7_linear)"/>
<path d="M86.1529 122.77H33.1458C32.3697 122.77 31.7305 122.131 31.7305 121.355V78.9857C31.7305 78.2095 32.3697 77.5703 33.1458 77.5703H84.0527C85.1941 77.5703 86.1529 78.5291 86.1529 79.6705V122.77Z" fill="url(#paint8_linear)"/>
<path d="M196.689 33.4213L196.781 33.2843C197.009 32.8734 197.42 32.5994 197.877 32.5081L198.607 32.3712C198.881 32.3255 199.064 32.0972 199.109 31.8233L199.201 31.0015L200.662 30.9102L200.753 33.056L196.689 33.4213Z" fill="#344563"/>
<path d="M201.209 3.88086C201.894 3.88086 202.579 3.88086 203.264 3.92652C203.218 4.06349 203.218 4.20045 203.218 4.38308C203.218 4.56571 203.264 4.70268 203.264 4.83964C203.264 4.8853 203.309 4.93096 203.355 4.93096L203.948 5.02227C203.903 5.15924 203.766 5.43318 203.538 5.66146C203.309 5.9354 203.035 6.02671 202.807 6.11802C202.487 6.25499 202.031 6.43762 201.529 6.34631C200.707 6.25499 200.25 5.57015 200.113 5.43318C200.205 5.38752 200.342 5.34187 200.479 5.29621C200.752 5.15924 201.072 4.97661 201.163 4.65702C201.209 4.52005 201.163 4.38308 201.163 4.06348C201.209 3.97217 201.209 3.92652 201.209 3.88086Z" fill="#ECC19C"/>
<path d="M201.118 4.47481C201.392 4.47481 201.758 4.52046 202.443 4.42915C202.762 4.38349 203.036 4.33784 203.219 4.29218C203.219 4.20087 203.264 4.0639 203.31 3.88127C203.493 2.96814 203.812 2.64855 203.858 2.23764C203.995 1.55279 203.63 0.594009 202.808 0.183102C202.123 -0.18215 201.164 -0.0908369 200.571 0.411384C200.16 0.776635 200.023 1.2332 199.977 1.41583C199.977 1.64411 200.023 1.82673 200.023 2.05502C199.977 2.19198 199.886 2.32895 199.84 2.51158C199.794 2.69421 199.703 2.83117 199.703 3.0138C199.84 3.05946 199.977 3.05946 200.068 3.10511C200.114 3.28774 200.114 3.47036 200.16 3.65299C200.16 3.78996 200.205 3.88127 200.205 3.92693C200.205 4.0639 200.251 4.15521 200.251 4.15521C200.251 4.42915 200.845 4.47481 201.118 4.47481Z" fill="#ECC19C"/>
<path d="M202.808 0.228024C202.123 -0.137228 201.164 -0.045915 200.571 0.456306C200.342 0.684588 200.16 0.91287 200.068 1.0955V1.14115C200.205 1.46075 200.616 1.55206 201.529 1.68903C201.94 1.73469 202.306 1.826 202.579 1.87165C202.579 1.96297 202.534 2.09994 202.534 2.23691C202.488 2.5565 202.534 2.64781 202.579 2.69347C202.625 2.73913 202.671 2.78478 202.808 2.78478C202.853 2.60216 202.945 2.37388 202.99 2.19125C203.173 2.19125 203.219 2.28256 203.264 2.32822C203.356 2.46519 203.173 2.60216 202.99 3.10438C202.945 3.24135 202.945 3.287 202.945 3.33266C202.945 3.56094 203.082 3.83488 203.264 3.97185C203.264 3.97185 203.264 3.97185 203.264 3.92619C203.447 3.01307 203.767 2.69347 203.812 2.28256C203.995 1.59772 203.63 0.638931 202.808 0.228024Z" fill="url(#paint9_linear)"/>
<path d="M191.165 9.77133C191.256 9.95396 191.53 10.5475 191.85 10.5018C192.032 10.4562 192.169 10.2279 192.169 9.99961C192.169 9.68002 191.941 9.49739 191.85 9.40608C191.576 9.1778 191.165 8.99517 191.028 9.13214C190.891 9.22345 191.073 9.58871 191.165 9.77133Z" fill="#DFB28B"/>
<path d="M196.781 33.2381L200.753 32.8271V33.0098L196.689 33.4207L196.781 33.2381Z" fill="#7A8599"/>
<path d="M197.967 32.4629L197.83 32.5085C197.373 32.5999 196.962 32.8738 196.734 33.2847L196.643 33.4217L197.921 33.2847V32.4629H197.967Z" fill="#7A8599"/>
<path d="M202.625 32.6907L204.223 32.5081L206.689 31.458L206.78 31.6406L204.269 32.6907L202.488 32.8734L202.625 32.6907Z" fill="#969FAE"/>
<path d="M205.502 30.9551C205.654 30.9551 205.776 30.8325 205.776 30.6812C205.776 30.5299 205.654 30.4072 205.502 30.4072C205.351 30.4072 205.229 30.5299 205.229 30.6812C205.229 30.8325 205.351 30.9551 205.502 30.9551Z" fill="#969FAE"/>
<path d="M203.812 31.9141C203.767 31.9141 203.721 31.9141 203.675 31.9597C203.219 32.051 202.808 32.325 202.58 32.7359L202.488 32.8728L203.767 32.7359V31.9141H203.812Z" fill="#969FAE"/>
<path d="M193.811 6.25536C193.857 6.89455 192.533 7.35111 192.35 7.39677C192.213 7.44242 191.757 7.57939 191.574 7.39677C191.528 7.35111 191.528 7.35111 191.483 7.16848C191.346 6.80323 191.346 6.80323 191.346 6.71192C191.346 6.52929 191.437 6.52929 191.528 6.2097C191.574 5.98142 191.528 5.89011 191.574 5.75314C191.711 5.4792 192.168 5.43354 192.259 5.43354C192.898 5.38788 193.766 5.75314 193.811 6.25536Z" fill="#DFB28B"/>
<path d="M199.246 15.0205C199.201 15.9793 199.155 17.0294 199.201 18.1252C199.246 18.7643 199.292 19.4035 199.338 19.9971C199.52 22.0059 200.114 23.9692 201.027 25.7498C202.123 27.4391 203.218 29.1283 204.314 30.8176C205.09 30.6807 205.866 30.5437 206.643 30.3611C206.003 28.6718 205.273 26.9368 204.451 25.1106C203.903 23.9692 203.401 22.8734 202.853 21.869C203.081 19.5405 203.31 17.212 203.538 14.8379C202.077 14.9292 200.662 14.9749 199.246 15.0205Z" fill="url(#paint10_linear)"/>
<path d="M204.862 18.1713C204.04 18.9931 202.807 20.4541 200.89 23.0109C200.981 25.7959 201.072 28.581 201.209 31.366L198.561 31.4573C198.424 30.042 198.287 28.6266 198.196 27.2113C198.013 25.385 197.831 23.6044 197.648 21.8238C197.602 21.5955 197.648 21.3216 197.785 21.139C198.333 20.0889 198.972 18.9475 199.794 17.7604C200.57 16.6646 201.3 15.7515 202.031 14.9297H206.049C206.094 15.3406 206.14 16.0254 205.866 16.7559C205.547 17.4864 205.044 17.9887 204.862 18.1713Z" fill="url(#paint11_linear)"/>
<path d="M195.502 7.16882C195.868 7.03185 196.279 6.84923 196.644 6.71226C197.603 6.39266 198.607 6.11872 199.566 5.79913C200.57 5.38822 201.529 5.6165 201.986 6.21004C202.214 6.52963 202.26 6.89488 202.26 7.16882C202.168 7.94498 201.529 8.49286 200.799 8.31023L196.279 8.49286C195.776 8.35589 195.457 7.67104 195.502 7.16882Z" fill="#ECC19C"/>
<path d="M192.945 5.66211C194.269 5.9817 195.547 6.34696 196.871 6.66655C197.465 6.66655 197.602 6.84918 197.647 6.94049C197.875 7.39705 197.236 8.4015 196.506 8.49281C196.369 8.49281 196.232 8.49281 196.141 8.44715C194.953 7.80796 193.812 7.21443 192.625 6.57524L192.945 5.66211Z" fill="#ECC19C"/>
<path d="M206.185 15.3408C203.766 15.2952 201.3 15.2952 198.88 15.2495C198.88 13.9255 198.88 12.8297 198.835 12.0536C198.835 10.6382 198.835 10.0447 198.789 8.85761C198.789 7.62488 198.789 6.62044 198.789 5.98125C199.2 5.84428 199.611 5.66166 200.022 5.43338C200.296 5.29641 200.615 5.15944 200.844 5.02247C200.889 5.15944 201.072 5.616 201.528 5.75297C202.122 5.98125 202.898 5.616 203.309 4.83984C203.766 4.83984 204.496 4.8855 205.272 5.29641C205.638 5.47903 206.094 5.84428 206.231 6.11822C206.368 6.34651 206.551 8.26408 206.459 9.90771C206.368 11.0491 206.185 12.0079 205.957 12.7841C206.048 13.6515 206.094 14.519 206.185 15.3408Z" fill="#97A0AF"/>
<path d="M192.762 42.2327H192.031V7.89903C192.031 7.21418 192.214 6.57499 192.533 6.02712C193.081 5.11399 194.131 4.52045 195.182 4.42914C195.227 4.42914 196.643 4.29217 197.875 5.29661C200.295 7.21418 199.519 11.8711 198.195 14.5192C197.647 15.5693 196.916 16.5737 196.049 17.3956L195.547 16.8477C196.369 16.0715 197.053 15.1584 197.556 14.154C198.743 11.7798 199.565 7.48812 197.464 5.84449C196.46 5.02267 195.318 5.15964 195.273 5.15964C194.451 5.25096 193.584 5.75318 193.173 6.43802C192.899 6.84893 192.762 7.35115 192.762 7.89903V42.2327Z" fill="#0065FF"/>
<path d="M193.083 10.6844L192.9 9.40598L198.653 8.4472C199.429 8.35589 200.114 8.76679 200.205 9.45164C200.205 9.4973 200.251 9.99952 199.886 10.4104C199.566 10.7757 199.11 10.7757 199.018 10.7757C197.009 10.73 195.046 10.6844 193.083 10.6844Z" fill="#ECC19C"/>
<path d="M197.831 10.2732C197.74 10.0449 197.786 9.77095 198.014 9.45135C198.562 8.49257 199.247 8.3556 200.981 7.25984C200.981 7.25984 202.853 6.07278 203.995 5.70752C204.086 5.66187 204.269 5.61621 204.497 5.61621C204.725 5.61621 205.045 5.61621 205.319 5.70752C205.501 5.75318 205.912 5.93581 206.095 6.2554C206.46 6.84893 206.004 7.76206 205.501 8.26428C205.273 8.49257 205.045 8.62954 204.36 8.94913C201.849 10.1362 201.484 10.2275 201.073 10.3645C200.708 10.4558 200.205 10.6384 199.52 10.7297C198.699 10.821 198.014 10.6384 197.831 10.2732Z" fill="#ECC19C"/>
<path d="M193.356 9.31358C193.584 9.95277 193.447 10.5006 193.173 10.6376C192.899 10.7746 192.534 10.592 192.443 10.5006C191.986 10.2724 191.849 9.86146 191.804 9.72449C191.621 9.67883 191.027 9.45055 191.027 9.13096C191.027 9.03964 191.119 8.99399 191.256 8.67439C191.347 8.49177 191.347 8.40045 191.438 8.3548C191.53 8.30914 191.621 8.3548 191.712 8.26349C191.803 8.21783 191.803 8.12652 191.849 8.12652C192.032 7.98955 192.534 8.30914 192.854 8.58308C192.899 8.76571 193.128 8.99399 193.356 9.31358Z" fill="#ECC19C"/>
<path d="M191.849 7.44246C192.031 7.48812 192.214 7.3968 192.26 7.30549C192.26 7.30549 192.26 7.21418 192.214 7.12287C192.214 7.12287 192.397 7.03155 192.442 6.89458C192.488 6.75761 192.442 6.62065 192.305 6.52933C192.351 6.48368 192.579 6.39236 192.533 6.25539C192.533 6.07277 192.168 5.9358 191.94 6.02711C191.575 6.20974 191.849 7.35115 191.849 7.44246Z" fill="#DFB28B"/>
<path d="M206.096 6.20886C205.913 5.88926 205.502 5.70664 205.32 5.66098C205 5.56967 204.726 5.52401 204.498 5.56967C204.27 5.56967 204.087 5.61533 203.996 5.66098C203.311 5.88926 202.352 6.39148 201.713 6.80239C202.489 7.53289 202.9 8.49168 203.037 9.54178C203.402 9.35915 203.813 9.17653 204.361 8.94824C205.046 8.62865 205.274 8.53734 205.502 8.2634C206.005 7.71552 206.461 6.80239 206.096 6.20886Z" fill="#A5ADBA"/>
<path d="M233.897 144.548C227.733 138.75 227.231 134.412 221.798 132.13C216.136 129.755 210.292 132.084 209.836 132.267C204.585 134.458 205.087 137.7 200.613 139.252C194.404 141.352 191.619 135.554 184.77 137.426C179.611 138.841 179.931 140.667 173.402 143.133C162.81 147.105 158.792 141.261 147.378 145.416C144.136 146.603 138.475 149.251 137.014 149.936H241.247C238.964 148.657 236.408 146.922 233.897 144.548Z" fill="url(#paint12_linear)"/>
<path opacity="0.8" d="M230.199 140.485C227.185 136.695 225.907 133.819 221.844 132.13C216.182 129.755 210.338 132.084 209.882 132.267C205.59 134.093 205.133 136.558 202.668 138.248C204.631 140.713 206.686 142.722 208.01 144C210.293 146.192 212.575 148.383 214.813 149.89H225.451C227.825 147.744 229.514 144.183 230.199 140.485Z" fill="url(#paint13_linear)"/>
<path d="M72.0914 146.877C72.0914 146.877 72.0458 147.197 71.9088 147.562C71.7262 148.064 71.5892 148.932 71.4979 149.342C71.4066 149.982 71.3609 150.758 71.4066 151.58C71.4522 152.036 71.4979 152.447 71.5436 152.812L74.3742 165.368C75.3787 165.368 76.3831 165.368 77.3876 165.368C77.7528 162.674 77.8898 160.483 77.9355 159.022C77.9811 157.972 77.9811 157.606 78.0268 156.693C78.255 153.817 78.666 153.634 78.7573 151.625C78.8029 150.347 78.8486 148.703 77.9355 146.968C77.6615 146.42 77.3419 145.964 77.0223 145.599C75.3787 146.055 72.0914 146.877 72.0914 146.877Z" fill="#FF991F"/>
<path d="M77.936 159.067C77.9816 158.017 77.9816 157.652 78.0273 156.739C78.2555 153.863 78.6665 153.68 78.7578 151.671C78.8034 150.393 78.8491 148.749 77.936 147.014C77.799 146.695 77.6164 146.466 77.4337 146.192L74.5117 146.421L76.064 165.459C76.4749 165.459 76.9315 165.459 77.3424 165.459C77.7533 162.72 77.8903 160.574 77.936 159.067Z" fill="url(#paint14_linear)"/>
<path d="M71.6348 135.509C71.5434 136.148 71.6804 136.696 71.7717 137.015C71.5891 137.152 71.2238 137.472 70.9956 137.929C70.9043 138.111 70.4933 138.842 70.676 139.709C70.8586 140.44 71.2695 140.485 71.2238 140.988C71.1782 141.535 70.7216 141.627 70.4477 142.312C70.2194 142.859 70.2651 143.407 70.3107 143.59C70.7673 145.462 78.1636 145.827 78.7571 144.229C78.8485 143.955 78.9398 143.179 78.5289 142.677C78.3006 142.449 78.118 142.403 78.0723 142.175C77.981 141.809 78.4376 141.581 78.7115 141.033C79.1224 140.348 79.1224 139.344 78.7115 138.613C78.2549 137.792 77.3418 137.518 77.1135 137.472C77.2048 137.061 77.3875 136.239 77.1135 135.28C77.0222 134.961 76.5656 133.591 75.2416 133.135C75.059 133.089 74.2372 132.815 73.324 133.18C71.9087 133.728 71.6804 135.235 71.6348 135.509Z" fill="#243759"/>
<path d="M73.14 138.431C73.2313 138.294 73.277 138.111 73.3226 137.974C73.3683 137.655 73.4139 137.335 73.3226 137.061C73.6422 137.153 73.9618 137.107 74.2814 137.061C74.6467 137.016 75.0119 137.016 75.3315 137.016C75.3315 137.244 75.3315 137.472 75.3315 137.7C75.3315 137.929 75.3315 138.111 75.3772 138.34C75.4228 138.568 75.6055 138.705 75.7881 138.751C75.5598 138.796 75.3315 138.933 75.1032 139.025C74.8749 139.116 74.6923 139.116 74.464 139.161C74.2358 139.207 74.0075 139.207 73.8248 139.161C73.6422 139.161 73.5053 139.07 73.3226 139.07C73.1857 139.07 73.0487 139.025 72.9574 138.979C72.8204 138.933 72.6834 138.796 72.8204 138.705C72.9117 138.659 73.0487 138.568 73.14 138.431Z" fill="url(#paint15_linear)"/>
<path d="M77.0213 139.07C77.1126 139.572 75.7429 140.44 74.3732 140.486C72.9122 140.531 71.4969 139.572 71.5882 139.116C71.6338 138.751 72.5926 138.659 73.4144 138.614C74.6472 138.522 76.93 138.522 77.0213 139.07Z" fill="#D3B595"/>
<path d="M65.7903 146.102C66.7491 145.919 68.1188 145.554 69.4428 144.823C70.082 144.458 71.0408 143.91 71.6343 142.951C71.7713 142.769 71.8626 142.495 72.1365 141.901C72.7757 140.394 72.6844 140.029 72.5018 139.801C72.4561 139.755 72.1822 139.436 71.7256 139.39C71.3604 139.344 71.0408 139.527 70.9495 139.618C70.1277 140.121 70.4473 140.897 69.8537 142.312C69.7168 142.586 69.6254 142.814 69.5341 142.951C68.1644 143.682 66.8404 144.412 65.4707 145.143C65.562 145.462 65.6533 145.782 65.7903 146.102Z" fill="#FFAB00"/>
<path d="M79.7619 144.549C79.1227 144.183 78.1639 143.636 77.5704 142.677C77.4334 142.494 77.3421 142.22 77.0681 141.627C76.4289 140.12 76.5203 139.755 76.7029 139.527C76.7485 139.481 77.0225 139.161 77.479 139.116C77.8443 139.07 78.1639 139.253 78.2552 139.344C79.077 139.846 78.7574 140.622 79.351 142.038C79.4879 142.312 79.5792 142.54 79.6706 142.677C80.6293 143.179 80.8576 143.316 81.7707 143.818L79.7619 144.549Z" fill="#FFAB00"/>
<path d="M76.1086 138.431C76.1543 138.66 76.1999 138.934 76.063 139.208C75.926 139.436 75.789 139.481 75.5608 139.618C75.3325 139.755 75.0585 139.984 74.8302 140.532C74.6476 139.892 74.3737 139.664 74.1454 139.573C73.9628 139.481 73.8258 139.481 73.6888 139.345C73.4606 139.116 73.5062 138.705 73.5975 138.386C73.141 138.614 72.7757 138.797 72.5018 138.979C72.1822 139.208 71.7256 139.527 71.3147 140.075C71.269 140.166 71.2234 140.212 71.1777 140.258C71.3147 140.303 71.3604 140.349 71.406 140.349C71.4973 140.44 71.543 140.623 71.4973 141.262C71.4517 141.582 71.269 141.856 71.9082 142.723C72.1822 143.134 72.1365 144.184 72.1822 145.645C72.1822 146.513 72.0909 147.152 71.9082 147.608C73.8715 147.563 76.4282 147.471 78.3914 147.426C78.1175 146.969 77.4327 145.599 77.7523 143.956C77.8892 143.271 78.1632 142.677 78.3914 142.312C78.5284 141.901 78.6654 141.353 78.711 140.714C78.7567 140.395 78.7567 140.075 78.7567 139.801C78.3914 139.345 78.0719 139.162 77.7979 139.025C77.5696 138.934 77.387 138.888 76.8848 138.705C76.5195 138.614 76.2913 138.477 76.1086 138.431Z" fill="#FFAB00"/>
<path d="M76.2452 135.235C76.3365 135.555 76.2908 135.92 76.1995 136.514C76.1539 136.924 76.0626 137.107 76.0169 137.244C75.9712 137.381 75.7886 137.746 75.469 137.929C74.8755 138.249 73.9167 137.746 73.4145 137.153C73.2775 136.97 72.684 136.285 72.8666 135.327C73.0036 134.596 73.6428 133.82 74.5559 133.774C75.4234 133.729 76.1082 134.596 76.2452 135.235Z" fill="#D3B595"/>
<path d="M71.3134 139.115C71.4047 139.435 71.7699 139.572 71.8156 139.618C72.4091 139.846 73.1396 139.526 73.5505 138.887C73.8701 138.385 74.0071 137.563 73.7332 137.152C73.6875 137.061 73.5962 136.969 73.5962 136.832C73.5962 136.604 73.8701 136.422 74.0984 136.285C75.2855 135.554 75.6051 135.417 75.7877 135.052C75.8334 134.915 76.016 134.641 75.9247 134.321C75.8334 133.819 75.1942 133.591 75.0572 133.545C74.281 133.271 73.4136 133.682 72.8657 134.23C71.8156 135.326 72.0895 136.924 72.1352 137.061C72.1808 137.38 72.2722 137.609 72.3635 137.791C71.633 138.156 71.2221 138.704 71.3134 139.115Z" fill="#243759"/>
<path d="M80.2193 69.7632H29.7232C28.5818 69.7632 27.623 68.8045 27.623 67.6631V44.3326C27.623 43.1912 28.5818 42.2324 29.7232 42.2324H80.2193C81.3607 42.2324 82.3195 43.1912 82.3195 44.3326V67.6631C82.3195 68.8045 81.3607 69.7632 80.2193 69.7632Z" fill="white"/>
<path d="M58.5765 51.5918H31V52.6419H58.5765V51.5918Z" fill="#DFE2E5"/>
<path d="M58.5765 55.4727H31V56.5228H58.5765V55.4727Z" fill="#DFE2E5"/>
<path d="M49.3539 59.3535H31V60.4036H49.3539V59.3535Z" fill="#DFE2E5"/>
<path d="M44.4242 47.8024H33.4666C32.5535 47.8024 31.7773 47.0262 31.7773 46.1131V45.9305C31.7773 45.0174 32.5535 44.2412 33.4666 44.2412H44.4242C45.3373 44.2412 46.1135 45.0174 46.1135 45.9305V46.1131C46.1135 47.0262 45.3373 47.8024 44.4242 47.8024Z" fill="#FF8B00"/>
<path d="M60.3597 47.8024H49.4022C48.4891 47.8024 47.7129 47.0262 47.7129 46.1131V45.9305C47.7129 45.0174 48.4891 44.2412 49.4022 44.2412H60.3597C61.2729 44.2412 62.049 45.0174 62.049 45.9305V46.1131C62.049 47.0262 61.2729 47.8024 60.3597 47.8024Z" fill="#0065FF"/>
<path d="M218.237 69.7632H167.741C166.599 69.7632 165.641 68.8045 165.641 67.6631V44.3326C165.641 43.1912 166.599 42.2324 167.741 42.2324H218.237C219.378 42.2324 220.337 43.1912 220.337 44.3326V67.6631C220.337 68.8045 219.424 69.7632 218.237 69.7632Z" fill="white"/>
<path d="M196.594 51.5918H169.018V52.6419H196.594V51.5918Z" fill="#DFE2E5"/>
<path d="M196.594 55.4727H169.018V56.5228H196.594V55.4727Z" fill="#DFE2E5"/>
<path d="M187.371 59.3535H169.018V60.4036H187.371V59.3535Z" fill="#DFE2E5"/>
<path d="M182.444 47.8024H171.486C170.573 47.8024 169.797 47.0262 169.797 46.1131V45.9305C169.797 45.0174 170.573 44.2412 171.486 44.2412H182.444C183.357 44.2412 184.133 45.0174 184.133 45.9305V46.1131C184.133 47.0262 183.357 47.8024 182.444 47.8024Z" fill="#FFC400"/>
<path d="M198.377 47.8024H187.42C186.507 47.8024 185.73 47.0262 185.73 46.1131V45.9305C185.73 45.0174 186.507 44.2412 187.42 44.2412H198.377C199.29 44.2412 200.067 45.0174 200.067 45.9305V46.1131C200.067 47.0262 199.29 47.8024 198.377 47.8024Z" fill="#0065FF"/>
<path d="M218.237 101.358H167.741C166.599 101.358 165.641 100.399 165.641 99.2578V75.9273C165.641 74.7859 166.599 73.8271 167.741 73.8271H218.237C219.378 73.8271 220.337 74.7859 220.337 75.9273V99.2578C220.337 100.445 219.424 101.358 218.237 101.358Z" fill="white"/>
<path d="M196.594 83.2314H169.018V84.2815H196.594V83.2314Z" fill="#DFE2E5"/>
<path d="M196.594 87.1123H169.018V88.1624H196.594V87.1123Z" fill="#DFE2E5"/>
<path d="M187.371 90.9932H169.018V92.0433H187.371V90.9932Z" fill="#DFE2E5"/>
<path d="M182.444 79.443H171.486C170.573 79.443 169.797 78.6669 169.797 77.7538V77.5711C169.797 76.658 170.573 75.8818 171.486 75.8818H182.444C183.357 75.8818 184.133 76.658 184.133 77.5711V77.7538C184.133 78.6669 183.357 79.443 182.444 79.443Z" fill="#3DC7DC"/>
<path d="M198.377 79.443H187.42C186.507 79.443 185.73 78.6669 185.73 77.7538V77.5711C185.73 76.658 186.507 75.8818 187.42 75.8818H198.377C199.29 75.8818 200.067 76.658 200.067 77.5711V77.7538C200.067 78.6669 199.29 79.443 198.377 79.443Z" fill="#0065FF"/>
<path d="M149.251 69.7632H98.7096C97.5682 69.7632 96.6094 68.8045 96.6094 67.6631V44.3326C96.6094 43.1912 97.5682 42.2324 98.7096 42.2324H149.251C150.393 42.2324 151.351 43.1912 151.351 44.3326V67.6631C151.351 68.8045 150.393 69.7632 149.251 69.7632Z" fill="white"/>
<path d="M127.61 51.5918H100.033V52.6419H127.61V51.5918Z" fill="#DFE2E5"/>
<path d="M127.61 55.4727H100.033V56.5228H127.61V55.4727Z" fill="#DFE2E5"/>
<path d="M118.387 59.3535H100.033V60.4036H118.387V59.3535Z" fill="#DFE2E5"/>
<path d="M113.411 47.8024H102.453C101.54 47.8024 100.764 47.0262 100.764 46.1131V45.9305C100.764 45.0174 101.54 44.2412 102.453 44.2412H113.411C114.324 44.2412 115.1 45.0174 115.1 45.9305V46.1131C115.1 47.0262 114.369 47.8024 113.411 47.8024Z" fill="#3DC7DC"/>
<path d="M87.8423 119.072H37.3463C36.2049 119.072 35.2461 118.113 35.2461 116.972V70.2652C35.2461 69.1238 36.2049 68.165 37.3463 68.165H87.8423C88.9837 68.165 89.9425 69.1238 89.9425 70.2652V116.972C89.9425 118.159 89.0294 119.072 87.8423 119.072Z" fill="white"/>
<path d="M35.2461 70.265V101.22H72.3191L72.9126 99.0285L74.4193 99.4395L73.9171 101.174H89.9425V70.2193C89.9425 69.0779 88.9837 68.1191 87.8423 68.1191H37.3463C36.2049 68.1191 35.2461 69.0779 35.2461 70.265Z" fill="url(#paint16_linear)"/>
<path d="M72.9119 99.0293L72.3184 101.175H73.9163L74.4186 99.4402L72.9119 99.0293Z" fill="#3DC7DC"/>
<path d="M66.9769 104.872H39.4004V105.922H66.9769V104.872Z" fill="#DFE2E5"/>
<path d="M57.7543 108.799H39.4004V109.849H57.7543V108.799Z" fill="#DFE2E5"/>
<path d="M84.463 116.469H80.08C78.5276 116.469 77.2949 115.19 77.2949 113.684V109.301C77.2949 107.748 78.5733 106.516 80.08 106.516H84.463C86.0153 106.516 87.248 107.794 87.248 109.301V113.684C87.2937 115.236 86.0153 116.469 84.463 116.469Z" fill="#6BD5E5"/>
<path d="M82.2272 126.788C82.2272 125.92 81.5423 125.235 80.6748 125.235H28.9918C28.1243 125.235 27.4395 125.92 27.4395 126.788V144.548C27.4395 145.415 28.1243 146.1 28.9918 146.1H80.6748C81.5423 146.1 82.2272 145.415 82.2272 144.548V126.788ZM80.1726 141.443C80.1726 142.859 79.0312 144 77.6159 144H70.2195C68.8042 144 67.6628 142.859 67.6628 141.443V134.047C67.6628 132.632 68.8042 131.49 70.2195 131.49H77.5702C78.9855 131.49 80.127 132.632 80.127 134.047V141.443H80.1726Z" fill="white"/>
<path d="M76.977 164.728C77.2509 164.865 77.6618 165.139 78.1184 165.505C78.9402 166.098 79.4881 166.555 79.3968 166.829C79.3055 167.148 78.3467 167.194 77.7075 167.102C77.2053 167.011 76.84 166.874 76.6117 166.737C76.2008 166.326 75.8356 165.87 75.4247 165.459C75.3333 165.094 75.4703 164.728 75.7443 164.546C76.1095 164.272 76.6574 164.317 76.977 164.728Z" fill="#344563"/>
<path d="M74.375 164.728C74.1011 164.865 73.6902 165.139 73.2336 165.505C72.4118 166.098 71.8639 166.555 71.9552 166.829C72.0465 167.148 73.0053 167.194 73.6445 167.102C74.1467 167.011 74.512 166.874 74.7403 166.737C75.1512 166.326 75.5164 165.87 75.9273 165.459C76.0187 165.094 75.8817 164.728 75.6077 164.546C75.2425 164.272 74.6946 164.317 74.375 164.728Z" fill="#344563"/>
<path d="M58.5765 134.002H31V135.052H58.5765V134.002Z" fill="#DFE2E5"/>
<path d="M58.5765 137.883H31V138.933H58.5765V137.883Z" fill="#DFE2E5"/>
<path d="M49.3539 141.763H31V142.813H49.3539V141.763Z" fill="#DFE2E5"/>
<path d="M96.8814 62.7775C97.8396 62.7775 98.6164 62.0008 98.6164 61.0426C98.6164 60.0844 97.8396 59.3076 96.8814 59.3076C95.9232 59.3076 95.1465 60.0844 95.1465 61.0426C95.1465 62.0008 95.9232 62.7775 96.8814 62.7775Z" fill="#253858"/>
<path d="M100.582 71.1324C100.673 72.1368 100.719 73.4609 100.445 74.9675C100.308 75.7437 100.125 76.4285 99.8968 77.0221L99.0293 76.9308C99.0293 76.6568 99.0293 76.2003 98.9837 75.6067C98.8924 74.511 98.7554 74.1001 98.7097 73.2782C98.7097 72.8673 98.7097 72.2738 98.8011 71.4976C98.5728 70.9954 98.3445 70.5388 98.0706 70.0366C97.3401 68.4843 96.7465 67.0233 96.2443 65.5623C96.1986 65.4253 96.29 65.2427 96.4269 65.1971L98.1162 64.6035L100.582 71.1324Z" fill="#FFC400"/>
<path d="M108.526 80.2193C106.334 80.6302 104.188 81.0411 101.997 81.452C101.814 81.452 100.992 81.452 100.444 80.8585C100.079 80.4476 99.9879 79.991 99.9422 79.6714C99.8509 78.9866 99.9879 78.3474 100.079 78.0278C100.079 77.9365 100.125 77.8452 100.125 77.7995C100.764 75.6993 101.084 74.9232 101.358 73.8274C101.86 72.0468 101.632 72.1381 101.997 71.1794C102.362 70.1749 103.138 68.9878 104.69 67.8008C104.919 68.0747 105.238 68.4856 105.512 69.0335C105.741 69.4444 106.015 69.9466 106.151 70.5858C106.197 70.9511 106.243 71.4076 106.106 72.2751C106.015 72.686 105.786 73.9644 104.873 75.745C104.554 76.3842 104.097 77.1603 103.412 78.0735C104.234 77.7995 105.101 77.5256 106.015 77.2973C106.699 77.1147 107.384 76.9321 108.023 76.7951C108.206 77.9365 108.343 79.0779 108.526 80.2193Z" fill="url(#paint17_linear)"/>
<path d="M104.644 67.8457C104.873 68.1196 105.192 68.5305 105.512 69.0784C105.877 69.7633 106.379 70.6764 106.151 71.7265C106.105 71.9091 105.968 72.9592 105.055 73.5071C104.781 73.6441 104.507 73.8267 104.233 73.918C104.233 73.918 103.64 74.1463 102.955 74.3289C101.494 74.6485 99.2568 74.4659 99.1198 74.4659C99.622 74.8311 100.124 75.2877 100.626 75.7443C101.311 76.3835 101.905 77.0226 102.407 77.6162C101.448 78.2554 100.49 78.9402 99.5307 79.5794C98.8002 78.8946 98.0241 78.0727 97.2479 77.2053C96.3348 76.2008 95.5586 75.1964 94.9194 74.2376C94.8738 74.055 94.7368 73.6441 94.8738 73.1418C95.102 72.2744 96.0152 71.9548 96.1065 71.9091C97.1566 71.5439 98.2523 71.2243 99.3024 70.859C100.079 70.5851 100.9 70.3568 101.677 70.0829C102.224 69.7176 102.818 69.3067 103.457 68.8501C103.868 68.5305 104.279 68.1653 104.644 67.8457Z" fill="#FFAB00"/>
<path d="M97.3839 68.9417L101.584 70.1744C102.041 69.9005 102.543 69.5809 103.091 69.2156C103.73 68.7591 104.232 68.3025 104.689 67.8459C103.319 66.4306 102.132 65.5175 101.356 64.9239C100.763 64.4674 100.443 64.2847 99.7124 63.8282C99.7124 63.8282 98.4797 63.052 97.7948 62.8694C97.7492 62.8694 97.2926 62.7324 97.2926 62.7324L96.3338 64.9696C96.2425 65.1522 96.1969 65.3805 96.2425 65.6088L96.5621 68.0286C96.6078 68.3482 96.7904 68.6678 97.1556 68.8504C97.247 68.8504 97.2926 68.896 97.3839 68.9417Z" fill="url(#paint18_linear)"/>
<path d="M96.5628 65.381C96.5171 65.2897 96.5171 65.1984 96.4715 65.1071C96.4258 64.9701 96.4258 64.8331 96.4715 64.7875C96.3802 64.5135 96.1519 64.1026 95.741 63.7374C95.604 63.6004 95.467 63.5091 95.3301 63.4634L96.1519 62.2764L97.2933 62.7786L97.1107 63.4178C96.9737 63.8287 96.928 64.2396 96.8824 64.6962C96.8824 64.7875 96.8824 64.8331 96.8367 64.9244C96.7911 65.1071 96.6541 65.2897 96.5628 65.381Z" fill="#72594B"/>
<path d="M96.8359 81.4965C96.8359 81.4965 97.0186 81.0399 97.6578 80.766C98.2513 80.5377 98.5709 80.766 99.3014 80.4464C99.484 80.3551 99.9862 80.1724 99.9862 79.8072C99.9862 79.6246 99.8493 79.4876 99.7579 79.3963C100.215 79.0767 100.671 78.7571 101.173 78.4375C101.173 78.4375 101.584 78.8484 101.812 79.7159C102.041 80.5834 102.041 81.4508 102.041 81.4508L96.8359 81.4965Z" fill="#253858"/>
<path d="M108.16 77.6619C108.343 77.5706 108.662 77.4793 108.982 77.4337C109.393 77.388 109.758 77.388 109.986 77.4337C109.986 78.5751 109.986 79.6708 109.986 80.8122C109.986 80.8579 110.032 81.0862 109.849 81.3145C109.712 81.4514 109.53 81.4971 109.484 81.4971C108.982 81.4971 108.434 81.4971 107.932 81.4971C107.977 81.4058 108.023 81.3144 108.114 81.1775C108.434 80.8122 108.799 80.8579 108.936 80.5383C109.027 80.3557 108.982 80.173 108.982 80.1274C108.936 79.9448 108.845 79.8534 108.799 79.7621C108.753 79.6708 108.616 79.5795 108.434 79.4425C108.297 78.849 108.251 78.2555 108.16 77.6619Z" fill="#253858"/>
<path d="M96.1517 62.3217L95.1929 63.7827C95.0559 63.9653 94.8733 64.1023 94.5994 64.148C94.4167 64.1936 94.1884 64.148 94.0058 64.0566L93.2297 63.6457L93.0927 63.9197C93.047 64.011 92.9101 64.011 92.8644 63.9197L92.6361 63.2805L92.3622 63.0065C92.0426 62.6413 91.7687 62.2304 91.6317 61.7738C91.4491 61.1803 91.4947 60.4954 91.86 59.9476C92.2252 59.354 92.8644 58.9431 93.5493 58.8975H93.6862C93.8232 58.8975 94.0058 58.8975 94.1428 58.9431C94.9189 59.2171 95.5125 59.9019 95.6495 60.7237L95.6951 61.2259L96.1517 62.3217Z" fill="#72594B"/>
<path d="M97.9327 62.5039L96.0151 65.3803L93.4583 68.3936C93.0474 68.3479 92.4082 68.3023 91.6321 68.3023C90.1711 68.3023 89.5319 68.5306 88.0709 68.5306C87.3404 68.5306 86.7468 68.4849 86.3359 68.4392C86.3816 68.7588 86.3816 69.0784 86.4272 69.398C87.66 69.5807 88.9384 69.7176 90.1711 69.9003C90.1711 69.9003 92.4082 70.3568 94.0062 69.7633C95.8325 69.0784 97.0195 67.7087 97.9327 66.7043C98.2523 66.3391 98.5262 65.9738 98.6632 65.7455C98.7545 65.6085 99.1654 64.9237 98.9828 64.0562C98.8001 63.0518 98.024 62.5952 97.9327 62.5039Z" fill="url(#paint19_linear)"/>
<path d="M86.4263 69.2609C86.2894 69.3522 85.7415 69.7174 85.1936 69.5348C84.9197 69.4435 84.7827 69.2609 84.5088 69.0326C84.1892 68.713 84.0066 68.3934 83.9152 68.2108L82.7738 68.4847C82.6825 68.4847 82.5912 68.4847 82.5456 68.3934C82.4542 68.2564 82.4999 68.1195 82.6369 68.0738L83.687 67.6173C83.7783 67.5716 83.8696 67.5716 83.9152 67.6173L84.9197 67.9825L86.335 68.4847L86.4263 69.2609Z" fill="#72594B"/>
<path d="M83.0943 68.2561L82.592 68.5301C82.5007 68.5757 82.4551 68.667 82.4551 68.804C82.5007 68.941 82.5921 68.9866 82.729 68.9866L84.0987 68.7127L84.9205 69.1236L84.7836 68.4844L83.9617 68.1191L83.0943 68.2561Z" fill="#72594B"/>
<path d="M82.5933 69.3518C82.6389 69.4432 82.7759 69.4888 82.8672 69.4888C83.1412 69.3518 83.4151 69.2605 83.689 69.1236C84.1 69.1236 84.5109 69.0779 84.8761 69.0779L84.7848 68.667H83.5521L82.7303 69.1236C82.5933 69.1236 82.5476 69.2605 82.5933 69.3518Z" fill="#72594B"/>
<path d="M83.278 69.8094C83.3237 69.855 83.415 69.855 83.5063 69.8094L84.0999 69.3528C84.3281 69.3071 84.5564 69.2158 84.7847 69.1702C84.739 69.0789 84.6934 68.9419 84.6477 68.8506C84.3738 68.9419 84.0542 68.9876 83.7803 69.0789L83.3237 69.6267C83.2324 69.6724 83.2324 69.7637 83.278 69.8094Z" fill="#72594B"/>
<path d="M95.4209 59.4906C95.7405 59.9929 95.5579 60.3581 95.9232 61.4539C96.0601 61.8191 96.1971 62.1387 96.2884 62.3213C95.7862 62.23 95.3753 62.0474 95.147 61.9561C94.9187 61.8191 94.7361 61.7278 94.5535 61.5452C94.1882 61.1343 94.1426 60.769 93.8686 60.7234C93.823 60.7234 93.7316 60.7234 93.6403 60.769C93.4577 60.9516 93.9599 61.4539 93.7773 61.8191C93.6403 62.1844 92.9555 62.1844 92.5902 62.23C92.1793 62.23 91.7684 62.2757 91.4945 62.0017C91.2205 61.6821 91.2662 61.2256 91.3119 60.9973C91.4488 60.0385 92.2706 58.7145 93.5947 58.7145C94.3252 58.6232 95.0557 58.8971 95.4209 59.4906Z" fill="#253858"/>
<path d="M200.797 117.52C200.751 117.657 200.706 117.794 200.66 117.976H222.712C223.488 117.976 224.128 117.337 224.128 116.561V67.4802C222.484 66.2475 220.384 65.5626 218.512 65.4713C212.85 65.1974 207.965 70.4022 207.143 75.1048C206.322 79.9901 210.385 83.0947 208.559 86.7015C206.915 89.8518 203.171 88.5278 201.528 91.4042C198.88 95.9698 206.961 101.631 205.226 109.804C204.358 113.73 202.212 113.137 200.797 117.52Z" fill="url(#paint20_linear)"/>
<path d="M184.452 106.882C180.48 104.599 179.43 99.2114 182.672 95.6046C183.311 94.9197 184.041 94.3262 184.909 93.9153C187.146 92.8652 189.611 92.9565 191.666 94.0979C192.853 92.0434 194.953 90.6737 197.419 90.4911C198.377 90.3998 199.336 90.5367 200.249 90.8107C202.669 91.6325 204.404 93.5044 205.089 95.8785C205.591 97.7504 205.363 99.7593 204.404 101.449L197.601 113.365C197.373 113.776 196.825 113.913 196.414 113.685L184.452 106.882Z" fill="#C1C7D0"/>
<path d="M185.868 105.558C182.215 103.457 180.937 98.8005 183.037 95.1937C184.407 92.8195 186.918 91.3585 189.657 91.3585C190.844 91.3585 192.031 91.6325 193.127 92.1803C194.497 89.9888 196.962 88.6191 199.565 88.6191C200.889 88.6191 202.167 88.9844 203.354 89.6236C205.135 90.628 206.367 92.2716 206.915 94.2349C207.463 96.1981 207.189 98.2526 206.185 100.033L198.788 112.954L185.868 105.558Z" fill="#F7F8F9"/>
<path d="M202.532 91.0391C199.655 89.3955 195.957 90.3999 194.268 93.2763C194.04 93.6872 193.857 94.0981 193.72 94.5547C193.4 94.2351 193.035 93.9611 192.624 93.7328C189.748 92.0892 186.05 93.0936 184.36 95.97C182.717 98.8464 183.721 102.545 186.598 104.234L191.848 107.247L198.149 110.854L201.755 104.553L203.536 101.403L204.723 99.3029C206.458 96.3809 205.408 92.6827 202.532 91.0391Z" fill="#FF7143"/>
<path d="M198.33 104.097C194.724 103.23 193.765 100.171 189.975 98.8922C188.651 98.4357 186.551 98.0704 183.583 98.8009C183.538 100.947 184.633 103.093 186.642 104.234L191.893 107.247L198.193 110.854L201.8 104.554L202.029 104.143C200.933 104.325 199.654 104.371 198.33 104.097Z" fill="url(#paint21_linear)"/>
<path d="M210.933 109.758C210.111 113.73 207.965 113.182 206.55 117.52C203.719 126.24 209.882 135.463 212.531 139.389C216.229 144.868 219.79 150.164 224.675 149.981C230.474 149.753 235.815 141.809 236.318 135.006C236.728 129.573 233.806 127.61 235.359 122.998C237.048 117.931 242.162 117.839 242.481 113.913C242.801 110.26 238.555 109.667 237.322 104.508C235.907 98.6179 240.701 95.9698 238.92 91.0846C237.368 86.8385 233.35 87.6147 231.798 83.323C230.017 78.4377 234.491 75.4244 232.619 70.8588C231.295 67.6172 227.506 65.6083 224.219 65.4713C218.557 65.1974 213.672 70.4022 212.85 75.1048C212.028 79.99 216.092 83.0947 214.265 86.7015C212.622 89.8518 208.878 88.5278 207.234 91.4042C204.586 95.9241 212.622 101.631 210.933 109.758Z" fill="url(#paint22_linear)"/>
<path d="M224.674 80.8569V65.5164C224.537 65.5164 224.355 65.4707 224.218 65.4707C224.035 65.4707 223.807 65.4707 223.624 65.4707V80.6286L215.041 70.2646C214.812 70.5386 214.63 70.8582 214.401 71.1778L223.624 82.2723V97.5672L214.356 86.3813C214.31 86.4727 214.265 86.564 214.219 86.6553C214.082 86.9292 213.945 87.1575 213.762 87.3401L223.578 99.2108V124.824L210.886 109.529C210.886 109.62 210.84 109.666 210.84 109.757C210.749 110.123 210.658 110.488 210.566 110.762L223.67 126.468V148.337L206.686 127.792C206.959 128.751 207.279 129.709 207.644 130.622L223.67 149.981C224.035 150.026 224.355 150.026 224.72 150.026C224.811 150.026 224.902 150.026 225.039 149.981L236.362 132.768C236.317 132.22 236.225 131.718 236.134 131.216L224.72 148.565V126.924L238.097 106.561C237.915 106.196 237.778 105.831 237.595 105.374L224.674 125.007V99.6674L233.623 86.0161C233.349 85.7878 233.121 85.5595 232.892 85.2399L224.674 97.7498V82.7288L232.573 70.7669C232.436 70.4016 232.253 70.0363 232.025 69.7168L224.674 80.8569Z" fill="#48CC8C"/>
<path d="M162.673 150.027C162.628 150.027 162.582 150.027 162.582 150.027C162.308 149.981 162.125 149.661 162.171 149.387L177.74 77.2958C177.786 77.0219 178.105 76.8393 178.379 76.8849C178.653 76.9306 178.836 77.2502 178.79 77.5241L163.221 149.616C163.13 149.844 162.902 150.027 162.673 150.027Z" fill="#0065FF"/>
<path d="M176.689 84.8741H160.618C160.299 84.8741 160.07 84.6458 160.07 84.3262C160.07 84.0066 160.299 83.7783 160.618 83.7783H176.689C177.009 83.7783 177.237 84.0066 177.237 84.3262C177.237 84.6458 177.009 84.8741 176.689 84.8741Z" fill="#0065FF"/>
<path d="M174.864 93.1836H158.884C158.564 93.1836 158.336 92.9554 158.336 92.6358C158.336 92.3162 158.564 92.0879 158.884 92.0879H174.864C175.183 92.0879 175.411 92.3162 175.411 92.6358C175.411 92.9554 175.137 93.1836 174.864 93.1836Z" fill="#0065FF"/>
<path d="M173.037 101.493H157.103C156.783 101.493 156.555 101.265 156.555 100.945C156.555 100.626 156.783 100.397 157.103 100.397H173.037C173.356 100.397 173.585 100.626 173.585 100.945C173.585 101.265 173.311 101.493 173.037 101.493Z" fill="#0065FF"/>
<path d="M171.165 109.803H155.276C154.957 109.803 154.729 109.574 154.729 109.255C154.729 108.935 154.957 108.707 155.276 108.707H171.165C171.484 108.707 171.713 108.935 171.713 109.255C171.713 109.574 171.484 109.803 171.165 109.803Z" fill="#0065FF"/>
<path d="M169.339 118.157H153.542C153.222 118.157 152.994 117.929 152.994 117.609C152.994 117.29 153.222 117.062 153.542 117.062H169.339C169.659 117.062 169.887 117.29 169.887 117.609C169.887 117.929 169.659 118.157 169.339 118.157Z" fill="#0065FF"/>
<path d="M167.512 126.467H151.761C151.441 126.467 151.213 126.239 151.213 125.919C151.213 125.599 151.441 125.371 151.761 125.371H167.512C167.832 125.371 168.06 125.599 168.06 125.919C168.06 126.239 167.786 126.467 167.512 126.467Z" fill="#0065FF"/>
<path d="M165.642 134.776H149.981C149.662 134.776 149.434 134.548 149.434 134.229C149.434 133.909 149.662 133.681 149.981 133.681H165.642C165.961 133.681 166.19 133.909 166.19 134.229C166.19 134.548 165.961 134.776 165.642 134.776Z" fill="#0065FF"/>
<path d="M163.815 143.087H148.2C147.881 143.087 147.652 142.859 147.652 142.539C147.652 142.219 147.881 141.991 148.2 141.991H163.815C164.134 141.991 164.363 142.219 164.363 142.539C164.363 142.859 164.134 143.087 163.815 143.087Z" fill="#0065FF"/>
<path d="M161.028 79.6699C160.983 79.7612 160.937 79.8982 160.846 80.0352C160.755 80.2178 160.572 80.6744 160.389 81.2679C160.389 81.2679 160.161 81.9984 160.115 82.8659C160.024 83.916 160.161 86.4727 160.8 89.76C160.618 90.9927 160.435 92.2254 160.252 93.4125C160.252 93.4125 159.796 96.8824 160.663 98.6173C160.755 98.8 160.983 99.2109 161.257 99.2109C161.531 99.2109 161.85 99.2109 162.124 99.1652C162.444 99.1196 162.626 98.8456 162.718 98.5717C163.083 97.2476 163.585 91.7689 163.631 89.897C163.677 88.162 163.996 82.0897 163.266 81.0396C162.992 80.6744 162.489 79.9895 161.028 79.6699Z" fill="#00875A"/>
<path d="M164.543 70.0358C164.269 69.7619 163.995 69.5336 163.721 69.2597C163.675 69.1683 163.493 68.4835 162.808 68.1182C162.716 68.0726 162.306 67.89 161.849 67.9813C161.118 68.1182 160.616 68.8944 160.525 69.5792C160.342 70.812 161.529 71.5881 161.666 71.6794C161.849 71.8164 162.579 72.273 163.447 72.0904C164.04 71.9534 164.406 71.5425 164.543 71.4055C164.451 71.0403 164.314 70.675 164.223 70.3554C164.314 70.2641 164.451 70.1728 164.543 70.0358Z" fill="#A27F68"/>
<path d="M161.941 70.2184C162.169 70.1728 162.215 69.7619 162.352 69.2597C162.626 68.3922 163.128 68.2096 162.991 67.9813C162.809 67.616 161.485 67.5704 160.754 68.3009C160.206 68.8488 160.115 69.6706 160.252 70.2641C160.434 70.9033 160.891 71.2685 161.028 71.3598C161.256 71.5425 161.485 71.6338 161.622 71.7251C161.667 71.4512 161.622 71.2685 161.622 71.1316C161.485 70.7663 161.211 70.6293 161.256 70.3554C161.256 70.3098 161.302 70.2184 161.348 70.1728C161.53 70.0815 161.759 70.2641 161.941 70.2184Z" fill="#42526E"/>
<path d="M177.556 69.1696C177.327 69.2152 177.053 68.8956 176.917 68.6217C176.871 68.5304 176.734 68.1651 176.917 67.7542C177.099 67.389 177.327 67.4346 177.647 66.9781C177.967 66.5672 178.012 66.1562 178.104 66.1562C178.195 66.1562 178.286 66.4302 178.286 66.7041C178.286 67.1607 178.012 67.252 177.921 67.7542C177.875 68.1651 178.012 68.2564 177.875 68.6674C177.875 68.8043 177.738 69.1239 177.556 69.1696Z" fill="#A27F68"/>
<path d="M177.145 67.5711C177.145 67.5711 178.606 67.0232 178.789 66.7036C178.971 66.3384 178.971 66.0645 179.108 66.0645C179.291 66.0645 179.245 66.658 179.291 66.7493C179.382 66.795 179.473 66.7493 179.519 66.9319C179.565 67.1146 179.565 67.3428 179.519 67.5255C179.473 67.7081 178.88 68.5756 178.56 68.7582C178.241 68.9408 177.602 69.3517 177.191 69.3061C176.78 69.2604 176.962 67.8907 176.962 67.8907L177.145 67.5711Z" fill="#A27F68"/>
<path d="M167.282 72.4106C167.374 72.8672 169.748 73.9629 168.652 74.7847C167.967 75.2869 166.826 76.611 166.506 77.3871C166.232 78.0263 166.141 78.2546 166.095 78.5285C165.958 79.396 165.319 80.0809 164.497 80.2635C162.534 80.6287 160.16 81.0853 160.388 79.8069C160.662 78.3003 160.845 74.4195 161.941 72.3649C162.489 71.4061 164.178 72.1823 167.282 72.4106Z" fill="#48CC8C"/>
<path d="M162.581 74.0999C162.992 72.4563 166.461 72.8672 170.616 71.4975C173.493 70.5387 175.593 69.0777 176.871 68.0732C177.191 68.4841 177.556 68.8951 177.876 69.2603C175.593 71.8171 173.401 73.0954 171.895 73.7803C168.973 75.1043 165.137 75.7892 164.042 76.611C163.996 76.6566 163.859 76.748 163.676 76.748C163.037 76.7023 162.307 75.0587 162.581 74.0999Z" fill="#48CC8C"/>
<path d="M166.235 83.0949H162.034C161.121 83.0949 160.391 82.3644 160.391 81.4512V79.9902H163.861C165.185 79.9902 166.28 81.086 166.28 82.41V83.0949H166.235Z" fill="#008364"/>
<path d="M164.363 101.449C163.496 101.494 161.67 101.631 161.441 101.266C161.441 101.266 161.396 101.129 161.304 101.129C161.213 101.129 161.167 101.22 161.122 101.22C161.03 101.312 160.848 101.357 160.391 101.175C160.391 101.175 160.254 101.175 160.209 101.083C160.163 101.038 160.117 100.946 160.117 100.901L160.163 99.8051C160.163 99.5768 160.391 99.3942 160.665 99.3942C160.802 99.3942 160.939 99.4398 161.167 99.3942C161.67 99.3029 161.898 99.0746 162.126 99.1202C162.354 99.2115 162.354 99.4398 162.537 99.7594C162.628 99.8507 162.765 99.942 162.902 100.079C163.541 100.536 164.272 100.673 164.728 100.718C164.728 100.946 164.774 101.129 164.774 101.357C164.728 101.449 164.546 101.449 164.363 101.449Z" fill="#243759"/>
<path d="M160.208 96.335L160.162 100.17L162.354 100.261C162.719 98.983 163.038 97.7046 163.404 96.4263C162.308 96.4263 161.258 96.3806 160.208 96.335Z" fill="#243759"/>
<path d="M172.534 93.2757C171.712 93.4127 169.886 93.7323 169.612 93.367C169.612 93.367 169.521 93.2757 169.475 93.2757C169.384 93.2757 169.338 93.367 169.292 93.4127C169.201 93.504 169.018 93.5496 168.562 93.4583C168.562 93.4583 168.425 93.4583 168.379 93.4127C168.333 93.367 168.288 93.3213 168.288 93.23L168.242 92.1343C168.242 91.906 168.425 91.6777 168.699 91.6777C168.836 91.6777 168.973 91.6777 169.201 91.632C169.703 91.4951 169.886 91.2211 170.114 91.2668C170.342 91.3124 170.342 91.5864 170.571 91.906C170.708 91.9973 170.845 92.0886 170.982 92.1799C171.666 92.5908 172.397 92.6365 172.854 92.6365C172.899 92.8648 172.945 93.0474 172.99 93.2757C172.899 93.1844 172.762 93.23 172.534 93.2757Z" fill="#243759"/>
<path d="M164.957 79.9902L169.979 82.9579C170.162 83.2775 170.162 83.6884 170.299 84.0537C170.892 86.0169 170.755 87.7975 170.801 88.4823C170.801 88.4823 168.244 89.8064 168.244 88.528C168.244 86.2452 167.422 86.8387 167.057 84.9211C163.907 84.5102 160.848 85.4234 160.117 84.4646C160.117 84.4646 160.254 80.2642 160.345 80.0359C160.345 79.9902 164.226 79.9902 164.957 79.9902Z" fill="url(#paint23_linear)"/>
<path d="M167.924 88.5737L168.243 92.3632L170.435 92.2719L171.211 88.2998L167.924 88.5737Z" fill="#243759"/>
<path d="M44.4222 131.08H33.4647C32.5516 131.08 31.7754 130.304 31.7754 129.39V129.208C31.7754 128.295 32.5516 127.519 33.4647 127.519H44.4222C45.3353 127.519 46.1115 128.295 46.1115 129.208V129.39C46.1115 130.304 45.3353 131.08 44.4222 131.08Z" fill="#FF7143"/>
<path d="M129.435 56.1569C128.157 56.1569 127.107 55.1525 127.016 53.8741L126.65 48.304L121.857 45.4733C121.035 45.0167 120.624 44.1493 120.669 43.1905C120.761 42.2773 121.309 41.4555 122.176 41.1359L127.381 39.0814L128.614 33.6483C128.842 32.5525 129.846 31.7764 130.988 31.7764C131.718 31.7764 132.403 32.096 132.86 32.6438L136.421 36.9355L141.991 36.4333C142.082 36.4333 142.128 36.4333 142.219 36.4333C143.087 36.4333 143.909 36.9355 144.32 37.666C144.73 38.4422 144.73 39.401 144.228 40.1315L141.261 44.8798L143.452 49.9933C143.772 50.7238 143.68 51.5913 143.269 52.2761C142.813 52.9609 142.082 53.3719 141.261 53.3719C141.078 53.3719 140.85 53.3262 140.667 53.2805L135.234 51.9108L131.033 55.609C130.577 55.9743 129.983 56.1569 129.435 56.1569Z" fill="#E5E8EC"/>
<path d="M130.988 55.153C129.71 55.153 128.66 54.1486 128.568 52.8702L128.203 47.3001L123.409 44.4694C122.587 44.0128 122.177 43.1454 122.222 42.1866C122.313 41.2734 122.861 40.4516 123.729 40.132L128.934 38.0775L130.166 32.6444C130.395 31.5486 131.399 30.7725 132.541 30.7725C133.271 30.7725 133.956 31.0921 134.412 31.6399L137.974 35.9316L143.544 35.4294C143.635 35.4294 143.681 35.4294 143.772 35.4294C144.639 35.4294 145.461 35.9316 145.872 36.6621C146.283 37.4383 146.283 38.3971 145.781 39.1276L142.813 43.8759L145.005 48.9894C145.324 49.7199 145.233 50.5874 144.822 51.2722C144.366 51.957 143.635 52.3679 142.813 52.3679C142.631 52.3679 142.402 52.3223 142.22 52.2766L136.787 50.9069L132.586 54.6051C132.13 54.9247 131.582 55.153 130.988 55.153Z" fill="#F7F8F9"/>
<path d="M60.3578 131.08H49.4002C48.4871 131.08 47.7109 130.304 47.7109 129.39V129.208C47.7109 128.295 48.4871 127.519 49.4002 127.519H60.3578C61.2709 127.519 62.047 128.295 62.047 129.208V129.39C62.047 130.304 61.2709 131.08 60.3578 131.08Z" fill="#0065FF"/>
<path d="M133.134 32.5536L136.969 37.1193C137.152 37.3476 137.426 37.4389 137.7 37.4389L143.635 36.891C144.365 36.8453 144.822 37.6215 144.457 38.215L141.306 43.2372C141.17 43.4655 141.124 43.7851 141.261 44.0134L143.635 49.4922C143.909 50.1314 143.315 50.8619 142.631 50.6792L136.878 49.2182C136.604 49.1269 136.33 49.2182 136.102 49.4009L131.627 53.3273C131.079 53.7839 130.258 53.4643 130.212 52.7338L129.801 46.7984C129.801 46.5245 129.618 46.2506 129.39 46.1136L124.277 43.0546C123.683 42.6894 123.729 41.7762 124.414 41.5023L129.938 39.2651C130.212 39.1738 130.395 38.9455 130.44 38.6716L131.764 32.8732C131.81 32.234 132.677 32.0058 133.134 32.5536Z" fill="url(#paint24_linear)"/>
<path opacity="0.7" d="M136.558 49.2181C134.824 47.8484 133.499 46.1591 133.454 44.1959C133.408 42.5522 134.321 41.6848 134.687 40.2238C135.189 38.4432 134.869 35.9321 132.221 32.3252C131.947 32.4165 131.719 32.6448 131.628 32.9644L130.304 38.7627C130.258 39.0367 130.03 39.265 129.801 39.3563L124.277 41.5478C123.638 41.8217 123.546 42.7349 124.14 43.1001L129.253 46.1591C129.482 46.2961 129.664 46.57 129.664 46.8439L130.075 52.7793C130.121 53.5098 130.988 53.8294 131.491 53.3728L135.965 49.4464C136.148 49.3094 136.376 49.2181 136.558 49.2181Z" fill="#FFAB00"/>
<path d="M46.1139 36.2969H27.623V38.8993H46.1139V36.2969Z" fill="#DFE2E5"/>
<path d="M115.557 36.2969H97.0664V38.8993H115.557V36.2969Z" fill="#DFE2E5"/>
<path d="M144.867 66.9775H140.484C138.932 66.9775 137.699 65.6991 137.699 64.1925V59.8095C137.699 58.2571 138.978 57.0244 140.484 57.0244H144.867C146.42 57.0244 147.652 58.3028 147.652 59.8095V64.1925C147.698 65.7448 146.42 66.9775 144.867 66.9775Z" fill="#DFE2E5"/>
<path d="M214.358 66.9775H209.974C208.422 66.9775 207.189 65.6991 207.189 64.1925V59.8095C207.189 58.2571 208.468 57.0244 209.974 57.0244H214.358C215.91 57.0244 217.143 58.3028 217.143 59.8095V64.1925C217.143 65.7448 215.91 66.9775 214.358 66.9775Z" fill="#DFE2E5"/>
<path d="M43.9219 98.1614L55.1077 86.9756L66.2935 98.1614H43.9219Z" fill="#9CE3EE"/>
<path d="M51.8652 98.1611L67.6624 82.3184L83.5051 98.1611H51.8652Z" fill="#0065FF"/>
<path d="M55.108 80.218C56.6714 80.218 57.9387 78.9507 57.9387 77.3873C57.9387 75.824 56.6714 74.5566 55.108 74.5566C53.5447 74.5566 52.2773 75.824 52.2773 77.3873C52.2773 78.9507 53.5447 80.218 55.108 80.218Z" fill="white"/>
<path d="M44.4677 82.6836H41.1348V84.2359H44.4677V82.6836Z" fill="#3DC7DC"/>
<path d="M39.3995 97.0172L36.7012 98.9736L37.6124 100.23L40.3107 98.274L39.3995 97.0172Z" fill="#1DB9D4"/>
<path d="M85.843 88.8069L84.9551 92.0195L86.4513 92.4331L87.3392 89.2205L85.843 88.8069Z" fill="#3DC7DC"/>
<path d="M88.4896 72.3224L85.4297 73.6436L86.045 75.0687L89.105 73.7476L88.4896 72.3224Z" fill="#3DC7DC"/>
<path d="M67.532 74.2153L66.541 75.4102L69.1064 77.5379L70.0974 76.3431L67.532 74.2153Z" fill="#3DC7DC"/>
<path d="M38.1053 69.4155L36.6895 70.0518L38.0556 73.0917L39.4715 72.4554L38.1053 69.4155Z" fill="#3DC7DC"/>
</g>
<defs>
<linearGradient id="paint0_linear" x1="-0.0456564" y1="131.263" x2="190.731" y2="131.263" gradientUnits="userSpaceOnUse">
<stop stop-color="#008364"/>
<stop offset="1" stop-color="#64E6A4"/>
</linearGradient>
<linearGradient id="paint1_linear" x1="63.1681" y1="166.256" x2="88.0383" y2="166.256" gradientUnits="userSpaceOnUse">
<stop stop-color="#091E42"/>
<stop offset="1" stop-color="#091E42" stop-opacity="0.1"/>
</linearGradient>
<linearGradient id="paint2_linear" x1="237.502" y1="149.768" x2="237.502" y2="83.0474" gradientUnits="userSpaceOnUse">
<stop stop-color="#FFC400"/>
<stop offset="1" stop-color="#FFF0B2"/>
</linearGradient>
<linearGradient id="paint3_linear" x1="6.78069" y1="34.4652" x2="40.9693" y2="34.4652" gradientUnits="userSpaceOnUse">
<stop stop-color="#FF991F"/>
<stop offset="1" stop-color="#FFC400"/>
</linearGradient>
<linearGradient id="paint4_linear" x1="17.4592" y1="34.4603" x2="30.2907" y2="34.4603" gradientUnits="userSpaceOnUse">
<stop stop-color="#FFAB00"/>
<stop offset="1" stop-color="#FFD740"/>
</linearGradient>
<linearGradient id="paint5_linear" x1="91.0845" y1="79.903" x2="115.955" y2="79.903" gradientUnits="userSpaceOnUse">
<stop stop-color="#CFD4DB"/>
<stop offset="1" stop-color="#CFD4DB" stop-opacity="0.1"/>
</linearGradient>
<linearGradient id="paint6_linear" x1="161.951" y1="69.5272" x2="175.858" y2="69.5272" gradientUnits="userSpaceOnUse">
<stop stop-color="#00875A"/>
<stop offset="1" stop-color="#57D9A3"/>
</linearGradient>
<linearGradient id="paint7_linear" x1="63.8669" y1="141.447" x2="77.425" y2="141.447" gradientUnits="userSpaceOnUse">
<stop stop-color="#CFD4DB"/>
<stop offset="1" stop-color="#CFD4DB" stop-opacity="0.1"/>
</linearGradient>
<linearGradient id="paint8_linear" x1="31.7357" y1="100.192" x2="86.1366" y2="100.192" gradientUnits="userSpaceOnUse">
<stop stop-color="#CFD4DB"/>
<stop offset="1" stop-color="#CFD4DB" stop-opacity="0.1"/>
</linearGradient>
<linearGradient id="paint9_linear" x1="201.978" y1="3.99052" x2="201.978" y2="-0.344965" gradientUnits="userSpaceOnUse">
<stop stop-color="#243858" stop-opacity="0.1"/>
<stop offset="0.1017" stop-color="#243858" stop-opacity="0.2272"/>
<stop offset="0.7192" stop-color="#243858"/>
</linearGradient>
<linearGradient id="paint10_linear" x1="199.191" y1="22.8802" x2="206.662" y2="22.8802" gradientUnits="userSpaceOnUse">
<stop stop-color="#253858"/>
<stop offset="1" stop-color="#344563"/>
</linearGradient>
<linearGradient id="paint11_linear" x1="197.609" y1="23.1793" x2="206.072" y2="23.1793" gradientUnits="userSpaceOnUse">
<stop stop-color="#505F79"/>
<stop offset="1" stop-color="#344563"/>
</linearGradient>
<linearGradient id="paint12_linear" x1="136.648" y1="140.5" x2="244.794" y2="140.5" gradientUnits="userSpaceOnUse">
<stop stop-color="#2DB07C"/>
<stop offset="1" stop-color="#64E6A4"/>
</linearGradient>
<linearGradient id="paint13_linear" x1="192.473" y1="140.5" x2="231.961" y2="140.5" gradientUnits="userSpaceOnUse">
<stop stop-color="#36B37E"/>
<stop offset="0.8537" stop-color="#36B37E" stop-opacity="0.2317"/>
<stop offset="1" stop-color="#36B37E" stop-opacity="0.1"/>
</linearGradient>
<linearGradient id="paint14_linear" x1="75.0901" y1="156.273" x2="78.8978" y2="154.75" gradientUnits="userSpaceOnUse">
<stop stop-color="#FF8B00"/>
<stop offset="0.3527" stop-color="#FF8F00"/>
<stop offset="0.7084" stop-color="#FF9B00"/>
<stop offset="1" stop-color="#FFAB00"/>
</linearGradient>
<linearGradient id="paint15_linear" x1="74.27" y1="139.185" x2="74.27" y2="137.011" gradientUnits="userSpaceOnUse">
<stop offset="0.1817" stop-color="#D3B595"/>
<stop offset="0.3716" stop-color="#D0B393"/>
<stop offset="1" stop-color="#988575"/>
</linearGradient>
<linearGradient id="paint16_linear" x1="37.1761" y1="110.708" x2="87.7514" y2="60.1329" gradientUnits="userSpaceOnUse">
<stop stop-color="#3DC7DC"/>
<stop offset="1" stop-color="#9CE3EE"/>
</linearGradient>
<linearGradient id="paint17_linear" x1="99.8986" y1="74.655" x2="108.516" y2="74.655" gradientUnits="userSpaceOnUse">
<stop stop-color="#FFC400"/>
<stop offset="0.452" stop-color="#FF991F"/>
</linearGradient>
<linearGradient id="paint18_linear" x1="98.1985" y1="68.4788" x2="100.792" y2="65.5011" gradientUnits="userSpaceOnUse">
<stop stop-color="#FFE380"/>
<stop offset="0.3008" stop-color="#FFCE50"/>
<stop offset="0.6127" stop-color="#FFBB25"/>
<stop offset="0.8564" stop-color="#FFAF0A"/>
<stop offset="1" stop-color="#FFAB00"/>
</linearGradient>
<linearGradient id="paint19_linear" x1="88.2159" y1="64.2261" x2="97.5536" y2="68.3634" gradientUnits="userSpaceOnUse">
<stop stop-color="#FFE380"/>
<stop offset="1" stop-color="#FFAB00"/>
</linearGradient>
<linearGradient id="paint20_linear" x1="212.401" y1="149.999" x2="212.401" y2="65.468" gradientUnits="userSpaceOnUse">
<stop stop-color="#DFE1E5"/>
<stop offset="1" stop-color="#DFE1E5" stop-opacity="0.1"/>
</linearGradient>
<linearGradient id="paint21_linear" x1="182.893" y1="106.981" x2="204.068" y2="101.204" gradientUnits="userSpaceOnUse">
<stop stop-color="#FF5630"/>
<stop offset="1" stop-color="#FF5630" stop-opacity="0.1"/>
</linearGradient>
<linearGradient id="paint22_linear" x1="205.816" y1="107.734" x2="242.526" y2="107.734" gradientUnits="userSpaceOnUse">
<stop stop-color="#48CC8C"/>
<stop offset="1" stop-color="#78F0B7"/>
</linearGradient>
<linearGradient id="paint23_linear" x1="169.901" y1="82.1179" x2="157.72" y2="88.078" gradientUnits="userSpaceOnUse">
<stop stop-color="#57D9A3"/>
<stop offset="0.1243" stop-color="#49CB97"/>
<stop offset="0.5075" stop-color="#21A676"/>
<stop offset="0.8128" stop-color="#098F62"/>
<stop offset="1" stop-color="#00875A"/>
</linearGradient>
<linearGradient id="paint24_linear" x1="124.301" y1="44.7073" x2="145.079" y2="39.6928" gradientUnits="userSpaceOnUse">
<stop stop-color="#FFAB00"/>
<stop offset="1" stop-color="#FFD740"/>
</linearGradient>
<clipPath id="clip0">
<rect width="257" height="168.7" fill="white"/>
</clipPath>
</defs>
</svg>
