<svg width="58" height="43" viewBox="0 0 58 43" fill="none"
    xmlns="http://www.w3.org/2000/svg">
    <g clip-path="url(#clip0)">
        <path fill-rule="evenodd" clip-rule="evenodd" d="M30.4236 29.7648C34.8453 29.7648 38.4298 26.1521 38.4298 21.6956C38.4298 17.2391 34.8453 13.6263 30.4236 13.6263C26.0019 13.6263 22.4174 17.2391 22.4174 21.6956C22.4174 26.1521 26.0019 29.7648 30.4236 29.7648Z" fill="#D8D8D8"/>
        <mask id="mask0" mask-type="alpha" maskUnits="userSpaceOnUse" x="22" y="13" width="17" height="17">
            <path fill-rule="evenodd" clip-rule="evenodd" d="M30.4236 29.7648C34.8453 29.7648 38.4298 26.1521 38.4298 21.6956C38.4298 17.2391 34.8453 13.6263 30.4236 13.6263C26.0019 13.6263 22.4174 17.2391 22.4174 21.6956C22.4174 26.1521 26.0019 29.7648 30.4236 29.7648Z" fill="white"/>
        </mask>
        <g mask="url(#mask0)">
        </g>
    </g>
    <path d="M0.408569 1.46814H47.4674V37.3493H0.408569V1.46814Z" fill="#EBECF0"/>
    <path d="M13.913 35.6992H38.8746" stroke="#0065FF" stroke-width="2"/>
    <path d="M13.913 33.637H38.8746" stroke="#0065FF" stroke-width="2"/>
    <path d="M13.913 7.24194H36.0101" stroke="#0065FF" stroke-width="2"/>
    <path d="M13.913 9.30396H29.872" stroke="#0065FF" stroke-width="2"/>
    <path d="M13.913 12.1912H39.2838V30.338H13.913V12.1912Z" fill="#FAFBFC"/>
    <rect x="0.408569" y="1.46814" width="47.0588" height="3.71185" fill="#EBECF0"/>
    <path d="M0.408813 5.17969H6.54692V37.349H0.408813V5.17969Z" fill="#0065FF"/>
    <g style="mix-blend-mode:multiply">
        <path d="M47.4676 8.57935C34.1149 7.38509 26.458 8.76048 21.8894 10.313C20.9899 10.6176 19.8318 11.0594 17.9287 11.577C11.0536 13.4519 4.68987 13.5554 0.408813 13.3564V5.17969H47.4676V8.57935Z" fill="url(#paint0_linear)"/>
    </g>
    <path d="M3.47895 4.76734C4.04395 4.76734 4.50197 4.30571 4.50197 3.73627C4.50197 3.16683 4.04395 2.7052 3.47895 2.7052C2.91395 2.7052 2.45593 3.16683 2.45593 3.73627C2.45593 4.30571 2.91395 4.76734 3.47895 4.76734Z" fill="#344563"/>
    <path d="M6.34235 4.76734C6.90735 4.76734 7.36537 4.30571 7.36537 3.73627C7.36537 3.16683 6.90735 2.7052 6.34235 2.7052C5.77736 2.7052 5.31934 3.16683 5.31934 3.73627C5.31934 4.30571 5.77736 4.76734 6.34235 4.76734Z" fill="#A5ADBA"/>
    <path d="M10.0255 4.76734C10.5905 4.76734 11.0485 4.30571 11.0485 3.73627C11.0485 3.16683 10.5905 2.7052 10.0255 2.7052C9.46046 2.7052 9.00244 3.16683 9.00244 3.73627C9.00244 4.30571 9.46046 4.76734 10.0255 4.76734Z" fill="#0065FF"/>
    <path d="M28.6439 19.2018L36.0097 27.8628H21.2782L28.6439 19.2018Z" fill="#253858"/>
    <path d="M21.4838 22.0896L26.1897 27.0387H16.778L21.4838 22.0896Z" fill="#0065FF"/>
    <path d="M21.2784 20.4398C21.9564 20.4398 22.506 19.8858 22.506 19.2025C22.506 18.5192 21.9564 17.9652 21.2784 17.9652C20.6004 17.9652 20.0508 18.5192 20.0508 19.2025C20.0508 19.8858 20.6004 20.4398 21.2784 20.4398Z" fill="#FFAB00"/>
    <g style="mix-blend-mode:multiply" opacity="0.319293">
        <path fill-rule="evenodd" clip-rule="evenodd" d="M35.0237 35.1901C40.4925 34.324 44.2037 29.0624 43.3129 23.438C42.4221 17.8137 37.2666 13.9565 31.7978 14.8226C26.329 15.6888 22.6178 20.9504 23.5086 26.5747C24.3994 32.1991 29.5549 36.0563 35.0237 35.1901Z" fill="#D8D8D8" stroke="#979797" stroke-width="4"/>
        <g style="mix-blend-mode:multiply">
            <path d="M43.0247 30.4295L53.9411 38.4263" stroke="#979797" stroke-width="7" stroke-linecap="round"/>
        </g>
    </g>
    <path d="M44.4468 28.09L42.7546 27.0375L41.3291 29.4544L43.0213 30.507C43.4534 30.7757 43.8023 31.1647 44.0277 31.6289C44.253 32.0931 44.602 32.4821 45.034 32.7508L51.8993 37.021C52.3989 37.3317 52.9981 37.4259 53.5653 37.2829C54.1325 37.1398 54.6211 36.7713 54.9236 36.2583C55.2262 35.7453 55.3179 35.1299 55.1786 34.5474C55.0393 33.965 54.6804 33.4632 54.1808 33.1525L47.3156 28.8824C46.8836 28.6137 46.3862 28.4763 45.8812 28.4862C45.3762 28.4961 44.8789 28.3588 44.4468 28.09Z" fill="#CFD4DB"/>
    <path d="M44.7717 27.9811L44.2523 27.6568C43.9377 27.4603 43.5604 27.4008 43.2033 27.4912C42.8461 27.5816 42.5385 27.8146 42.348 28.1389C41.9513 28.8142 42.1607 29.6931 42.8156 30.1021L43.3351 30.4265C43.7705 30.6984 44.1221 31.092 44.3493 31.5617C44.5764 32.0313 44.928 32.4249 45.3634 32.6968L52.2822 37.0172C52.7856 37.3316 53.3896 37.4269 53.9612 37.2822C54.5327 37.1374 55.0251 36.7645 55.33 36.2455C55.6349 35.7265 55.7274 35.1038 55.587 34.5145C55.4466 33.9252 55.0849 33.4175 54.5815 33.1032L47.6629 28.7829C47.2275 28.511 46.7262 28.372 46.2173 28.382C45.7084 28.392 45.2071 28.253 44.7717 27.9811Z" fill="#253858"/>
    <g style="mix-blend-mode:multiply">
        <path d="M46.2393 28.3022C45.7409 28.3011 45.2522 28.1746 44.8256 27.9362L44.2955 27.6393C43.9745 27.4595 43.5894 27.4049 43.225 27.4877C42.8605 27.5705 42.5465 27.7837 42.3521 28.0806C41.9473 28.6987 42.1609 29.5033 42.8294 29.8777L43.3595 30.1746C43.7849 30.4134 44.1321 30.7546 44.364 31.1618C45.1425 30.3021 45.7748 29.3379 46.2393 28.3022H46.2393Z" fill="#8777D9"/>
    </g>
    <path d="M36.1895 34.1399C31.8498 35.2137 27.2955 33.5477 24.6501 29.9187C22.0048 26.2897 21.7894 21.4124 24.1045 17.561C25.6165 15.03 28.0705 13.2137 30.9196 12.5169H30.9197C33.765 11.8046 36.7748 12.2688 39.2784 13.8061C43.1006 16.1388 45.152 20.5619 44.4758 25.0128C43.7997 29.4638 40.5292 33.066 36.1895 34.1399Z" fill="#253858"/>
    <path d="M25.8268 18.6254C23.3099 22.911 24.6382 28.4893 28.7937 31.085C32.9491 33.6808 38.3581 32.3109 40.8751 28.0253C43.392 23.7397 42.0637 18.1614 37.9082 15.5657C33.7527 12.9699 28.3437 14.3398 25.8268 18.6254Z" fill="#CCE0FF"/>
    <path d="M35.4482 31.7286C39.3958 30.745 42.1654 27.1487 42.1488 23.0279C41.8651 23.1769 41.5732 23.3095 41.2747 23.4249C38.5761 24.4633 36.1725 23.7925 35.0024 23.4477C31.4913 22.4131 30.7422 20.4203 28.2931 19.1654C27.5305 18.7777 26.7136 18.5116 25.8711 18.3762C25.8562 18.4005 25.8402 18.4238 25.8256 18.4483C23.9822 21.5333 24.1537 25.4403 26.26 28.3473C28.3663 31.2543 31.9927 32.5888 35.4482 31.7286Z" fill="url(#paint1_linear)"/>
    <g clip-path="url(#clip1)">
        <path fill-rule="evenodd" clip-rule="evenodd" d="M33.5555 32.3988C38.5275 32.3988 42.5581 28.3365 42.5581 23.3254C42.5581 18.3143 38.5275 14.252 33.5555 14.252C28.5836 14.252 24.553 18.3143 24.553 23.3254C24.553 28.3365 28.5836 32.3988 33.5555 32.3988Z" fill="white"/>
        <mask id="mask1" mask-type="alpha" maskUnits="userSpaceOnUse" x="24" y="14" width="19" height="19">
            <path fill-rule="evenodd" clip-rule="evenodd" d="M33.5555 32.3988C38.5275 32.3988 42.5581 28.3365 42.5581 23.3254C42.5581 18.3143 38.5275 14.252 33.5555 14.252C28.5836 14.252 24.553 18.3143 24.553 23.3254C24.553 28.3365 28.5836 32.3988 33.5555 32.3988Z" fill="white"/>
        </mask>
        <g mask="url(#mask1)">
            <path d="M10.7343 0.575562H11.4374V-5.06116H10.7382L9.23818 -3.98303V-3.24084L10.6718 -4.27991H10.7343V0.575562ZM15.0155 0.708374C16.2812 0.708374 17.0077 -0.361938 17.0077 -2.23303C17.0077 -4.10022 16.2694 -5.19397 15.0155 -5.19397C13.7538 -5.19397 13.0155 -4.10413 13.0155 -2.24475C13.0155 -0.369751 13.746 0.708374 15.0155 0.708374ZM15.0155 0.0950928C14.1835 0.0950928 13.7226 -0.736938 13.7226 -2.24475C13.7226 -3.73303 14.1913 -4.57678 15.0155 -4.57678C15.8397 -4.57678 16.3007 -3.74084 16.3007 -2.24475C16.3007 -0.733032 15.8476 0.0950928 15.0155 0.0950928ZM19.5077 0.575562H20.2108V-5.06116H19.5116L18.0116 -3.98303V-3.24084L19.4452 -4.27991H19.5077V0.575562ZM23.789 0.708374C25.0546 0.708374 25.7812 -0.361938 25.7812 -2.23303C25.7812 -4.10022 25.0429 -5.19397 23.789 -5.19397C22.5272 -5.19397 21.789 -4.10413 21.789 -2.24475C21.789 -0.369751 22.5194 0.708374 23.789 0.708374ZM23.789 0.0950928C22.9569 0.0950928 22.496 -0.736938 22.496 -2.24475C22.496 -3.73303 22.9647 -4.57678 23.789 -4.57678C24.6132 -4.57678 25.0741 -3.74084 25.0741 -2.24475C25.0741 -0.733032 24.621 0.0950928 23.789 0.0950928ZM28.2812 0.575562H28.9843V-5.06116H28.2851L26.7851 -3.98303V-3.24084L28.2187 -4.27991H28.2812V0.575562ZM32.5624 0.708374C33.828 0.708374 34.5546 -0.361938 34.5546 -2.23303C34.5546 -4.10022 33.8163 -5.19397 32.5624 -5.19397C31.3007 -5.19397 30.5624 -4.10413 30.5624 -2.24475C30.5624 -0.369751 31.2929 0.708374 32.5624 0.708374ZM32.5624 0.0950928C31.7304 0.0950928 31.2694 -0.736938 31.2694 -2.24475C31.2694 -3.73303 31.7382 -4.57678 32.5624 -4.57678C33.3866 -4.57678 33.8476 -3.74084 33.8476 -2.24475C33.8476 -0.733032 33.3944 0.0950928 32.5624 0.0950928ZM37.0546 0.575562H37.7577V-5.06116H37.0585L35.5585 -3.98303V-3.24084L36.9921 -4.27991H37.0546V0.575562ZM41.3358 0.708374C42.6015 0.708374 43.328 -0.361938 43.328 -2.23303C43.328 -4.10022 42.5897 -5.19397 41.3358 -5.19397C40.0741 -5.19397 39.3358 -4.10413 39.3358 -2.24475C39.3358 -0.369751 40.0663 0.708374 41.3358 0.708374ZM41.3358 0.0950928C40.5038 0.0950928 40.0429 -0.736938 40.0429 -2.24475C40.0429 -3.73303 40.5116 -4.57678 41.3358 -4.57678C42.1601 -4.57678 42.621 -3.74084 42.621 -2.24475C42.621 -0.733032 42.1679 0.0950928 41.3358 0.0950928ZM45.828 0.575562H46.5312V-5.06116H45.8319L44.3319 -3.98303V-3.24084L45.7655 -4.27991H45.828V0.575562ZM50.1093 0.708374C51.3749 0.708374 52.1015 -0.361938 52.1015 -2.23303C52.1015 -4.10022 51.3632 -5.19397 50.1093 -5.19397C48.8476 -5.19397 48.1093 -4.10413 48.1093 -2.24475C48.1093 -0.369751 48.8397 0.708374 50.1093 0.708374ZM50.1093 0.0950928C49.2772 0.0950928 48.8163 -0.736938 48.8163 -2.24475C48.8163 -3.73303 49.2851 -4.57678 50.1093 -4.57678C50.9335 -4.57678 51.3944 -3.74084 51.3944 -2.24475C51.3944 -0.733032 50.9413 0.0950928 50.1093 0.0950928ZM26.414 10.5756H27.1171V4.93884H26.4179L24.9179 6.01697V6.75916L26.3515 5.72009H26.414V10.5756ZM30.6952 10.7084C31.9608 10.7084 32.6874 9.63806 32.6874 7.76697C32.6874 5.89978 31.9491 4.80603 30.6952 4.80603C29.4335 4.80603 28.6952 5.89587 28.6952 7.75525C28.6952 9.63025 29.4257 10.7084 30.6952 10.7084ZM30.6952 10.0951C29.8632 10.0951 29.4022 9.26306 29.4022 7.75525C29.4022 6.26697 29.871 5.42322 30.6952 5.42322C31.5194 5.42322 31.9804 6.25916 31.9804 7.75525C31.9804 9.26697 31.5272 10.0951 30.6952 10.0951ZM35.1874 10.5756H35.8905V4.93884H35.1913L33.6913 6.01697V6.75916L35.1249 5.72009H35.1874V10.5756ZM11.3866 20.5756H12.0897V14.9388H11.3905L9.89053 16.017V16.7592L11.3241 15.7201H11.3866V20.5756ZM15.121 20.5756H15.8241V14.9388H15.1249L13.6249 16.017V16.7592L15.0585 15.7201H15.121V20.5756ZM19.4022 20.7084C20.6679 20.7084 21.3944 19.6381 21.3944 17.767C21.3944 15.8998 20.6562 14.806 19.4022 14.806C18.1405 14.806 17.4022 15.8959 17.4022 17.7552C17.4022 19.6302 18.1327 20.7084 19.4022 20.7084ZM19.4022 20.0951C18.5702 20.0951 18.1093 19.2631 18.1093 17.7552C18.1093 16.267 18.578 15.4232 19.4022 15.4232C20.2265 15.4232 20.6874 16.2592 20.6874 17.7552C20.6874 19.267 20.2343 20.0951 19.4022 20.0951ZM23.8944 20.5756H24.5976V14.9388H23.8983L22.3983 16.017V16.7592L23.8319 15.7201H23.8944V20.5756ZM28.1757 20.7084C29.4413 20.7084 30.1679 19.6381 30.1679 17.767C30.1679 15.8998 29.4296 14.806 28.1757 14.806C26.914 14.806 26.1757 15.8959 26.1757 17.7552C26.1757 19.6302 26.9062 20.7084 28.1757 20.7084ZM28.1757 20.0951C27.3437 20.0951 26.8827 19.2631 26.8827 17.7552C26.8827 16.267 27.3515 15.4232 28.1757 15.4232C28.9999 15.4232 29.4608 16.2592 29.4608 17.7552C29.4608 19.267 29.0077 20.0951 28.1757 20.0951ZM33.2147 20.7084C34.4804 20.7084 35.2069 19.6381 35.2069 17.767C35.2069 15.8998 34.4687 14.806 33.2147 14.806C31.953 14.806 31.2147 15.8959 31.2147 17.7552C31.2147 19.6302 31.9452 20.7084 33.2147 20.7084ZM33.2147 20.0951C32.3827 20.0951 31.9218 19.2631 31.9218 17.7552C31.9218 16.267 32.3905 15.4232 33.2147 15.4232C34.039 15.4232 34.4999 16.2592 34.4999 17.7552C34.4999 19.267 34.0468 20.0951 33.2147 20.0951ZM37.7069 20.5756H38.4101V14.9388H37.7108L36.2108 16.017V16.7592L37.6444 15.7201H37.7069V20.5756ZM41.4413 20.5756H42.1444V14.9388H41.4452L39.9452 16.017V16.7592L41.3788 15.7201H41.4413V20.5756ZM45.1757 20.5756H45.8788V14.9388H45.1796L43.6796 16.017V16.7592L45.1132 15.7201H45.1757V20.5756ZM49.4569 20.7084C50.7226 20.7084 51.4491 19.6381 51.4491 17.767C51.4491 15.8998 50.7108 14.806 49.4569 14.806C48.1952 14.806 47.4569 15.8959 47.4569 17.7552C47.4569 19.6302 48.1874 20.7084 49.4569 20.7084ZM49.4569 20.0951C48.6249 20.0951 48.164 19.2631 48.164 17.7552C48.164 16.267 48.6327 15.4232 49.4569 15.4232C50.2812 15.4232 50.7421 16.2592 50.7421 17.7552C50.7421 19.267 50.289 20.0951 49.4569 20.0951ZM15.7733 30.5756H16.4765V24.9388H15.7772L14.2772 26.017V26.7592L15.7108 25.7201H15.7733V30.5756ZM19.5077 30.5756H20.2108V24.9388H19.5116L18.0116 26.017V26.7592L19.4452 25.7201H19.5077V30.5756ZM23.789 30.7084C25.0546 30.7084 25.7812 29.6381 25.7812 27.767C25.7812 25.8998 25.0429 24.806 23.789 24.806C22.5272 24.806 21.789 25.8959 21.789 27.7552C21.789 29.6302 22.5194 30.7084 23.789 30.7084ZM23.789 30.0951C22.9569 30.0951 22.496 29.2631 22.496 27.7552C22.496 26.267 22.9647 25.4232 23.789 25.4232C24.6132 25.4232 25.0741 26.2592 25.0741 27.7552C25.0741 29.267 24.621 30.0951 23.789 30.0951ZM28.828 30.7084C30.0937 30.7084 30.8202 29.6381 30.8202 27.767C30.8202 25.8998 30.0819 24.806 28.828 24.806C27.5663 24.806 26.828 25.8959 26.828 27.7552C26.828 29.6302 27.5585 30.7084 28.828 30.7084ZM28.828 30.0951C27.996 30.0951 27.5351 29.2631 27.5351 27.7552C27.5351 26.267 28.0038 25.4232 28.828 25.4232C29.6522 25.4232 30.1132 26.2592 30.1132 27.7552C30.1132 29.267 29.6601 30.0951 28.828 30.0951ZM33.3202 30.5756H34.0233V24.9388H33.3241L31.8241 26.017V26.7592L33.2577 25.7201H33.3202V30.5756ZM37.0546 30.5756H37.7577V24.9388H37.0585L35.5585 26.017V26.7592L36.9921 25.7201H37.0546V30.5756ZM41.3358 30.7084C42.6015 30.7084 43.328 29.6381 43.328 27.767C43.328 25.8998 42.5897 24.806 41.3358 24.806C40.0741 24.806 39.3358 25.8959 39.3358 27.7552C39.3358 29.6302 40.0663 30.7084 41.3358 30.7084ZM41.3358 30.0951C40.5038 30.0951 40.0429 29.2631 40.0429 27.7552C40.0429 26.267 40.5116 25.4232 41.3358 25.4232C42.1601 25.4232 42.621 26.2592 42.621 27.7552C42.621 29.267 42.1679 30.0951 41.3358 30.0951ZM45.828 30.5756H46.5312V24.9388H45.8319L44.3319 26.017V26.7592L45.7655 25.7201H45.828V30.5756ZM12.039 40.5756H12.7421V34.9388H12.0429L10.5429 36.017V36.7592L11.9765 35.7201H12.039V40.5756ZM15.7733 40.5756H16.4765V34.9388H15.7772L14.2772 36.017V36.7592L15.7108 35.7201H15.7733V40.5756ZM19.5077 40.5756H20.2108V34.9388H19.5116L18.0116 36.017V36.7592L19.4452 35.7201H19.5077V40.5756ZM23.2421 40.5756H23.9452V34.9388H23.246L21.746 36.017V36.7592L23.1796 35.7201H23.2421V40.5756ZM26.9765 40.5756H27.6796V34.9388H26.9804L25.4804 36.017V36.7592L26.914 35.7201H26.9765V40.5756ZM30.7108 40.5756H31.414V34.9388H30.7147L29.2147 36.017V36.7592L30.6483 35.7201H30.7108V40.5756ZM34.9921 40.7084C36.2577 40.7084 36.9843 39.6381 36.9843 37.767C36.9843 35.8998 36.246 34.806 34.9921 34.806C33.7304 34.806 32.9921 35.8959 32.9921 37.7552C32.9921 39.6302 33.7226 40.7084 34.9921 40.7084ZM34.9921 40.0951C34.1601 40.0951 33.6991 39.2631 33.6991 37.7552C33.6991 36.267 34.1679 35.4232 34.9921 35.4232C35.8163 35.4232 36.2772 36.2592 36.2772 37.7552C36.2772 39.267 35.8241 40.0951 34.9921 40.0951ZM40.0312 40.7084C41.2968 40.7084 42.0233 39.6381 42.0233 37.767C42.0233 35.8998 41.2851 34.806 40.0312 34.806C38.7694 34.806 38.0312 35.8959 38.0312 37.7552C38.0312 39.6302 38.7616 40.7084 40.0312 40.7084ZM40.0312 40.0951C39.1991 40.0951 38.7382 39.2631 38.7382 37.7552C38.7382 36.267 39.2069 35.4232 40.0312 35.4232C40.8554 35.4232 41.3163 36.2592 41.3163 37.7552C41.3163 39.267 40.8632 40.0951 40.0312 40.0951ZM44.5233 40.5756H45.2265V34.9388H44.5272L43.0272 36.017V36.7592L44.4608 35.7201H44.5233V40.5756ZM48.8046 40.7084C50.0702 40.7084 50.7968 39.6381 50.7968 37.767C50.7968 35.8998 50.0585 34.806 48.8046 34.806C47.5429 34.806 46.8046 35.8959 46.8046 37.7552C46.8046 39.6302 47.5351 40.7084 48.8046 40.7084ZM48.8046 40.0951C47.9726 40.0951 47.5116 39.2631 47.5116 37.7552C47.5116 36.267 47.9804 35.4232 48.8046 35.4232C49.6288 35.4232 50.0897 36.2592 50.0897 37.7552C50.0897 39.267 49.6366 40.0951 48.8046 40.0951ZM11.2812 50.7084C12.5468 50.7084 13.2733 49.6381 13.2733 47.767C13.2733 45.8998 12.5351 44.806 11.2812 44.806C10.0194 44.806 9.28115 45.8959 9.28115 47.7552C9.28115 49.6302 10.0116 50.7084 11.2812 50.7084ZM11.2812 50.0951C10.4491 50.0951 9.98818 49.2631 9.98818 47.7552C9.98818 46.267 10.4569 45.4232 11.2812 45.4232C12.1054 45.4232 12.5663 46.2592 12.5663 47.7552C12.5663 49.267 12.1132 50.0951 11.2812 50.0951ZM15.7733 50.5756H16.4765V44.9388H15.7772L14.2772 46.017V46.7592L15.7108 45.7201H15.7733V50.5756ZM20.0546 50.7084C21.3202 50.7084 22.0468 49.6381 22.0468 47.767C22.0468 45.8998 21.3085 44.806 20.0546 44.806C18.7929 44.806 18.0546 45.8959 18.0546 47.7552C18.0546 49.6302 18.7851 50.7084 20.0546 50.7084ZM20.0546 50.0951C19.2226 50.0951 18.7616 49.2631 18.7616 47.7552C18.7616 46.267 19.2304 45.4232 20.0546 45.4232C20.8788 45.4232 21.3397 46.2592 21.3397 47.7552C21.3397 49.267 20.8866 50.0951 20.0546 50.0951ZM25.0937 50.7084C26.3593 50.7084 27.0858 49.6381 27.0858 47.767C27.0858 45.8998 26.3476 44.806 25.0937 44.806C23.8319 44.806 23.0937 45.8959 23.0937 47.7552C23.0937 49.6302 23.8241 50.7084 25.0937 50.7084ZM25.0937 50.0951C24.2616 50.0951 23.8007 49.2631 23.8007 47.7552C23.8007 46.267 24.2694 45.4232 25.0937 45.4232C25.9179 45.4232 26.3788 46.2592 26.3788 47.7552C26.3788 49.267 25.9257 50.0951 25.0937 50.0951ZM29.5858 50.5756H30.289V44.9388H29.5897L28.0897 46.017V46.7592L29.5233 45.7201H29.5858V50.5756ZM33.8671 50.7084C35.1327 50.7084 35.8593 49.6381 35.8593 47.767C35.8593 45.8998 35.121 44.806 33.8671 44.806C32.6054 44.806 31.8671 45.8959 31.8671 47.7552C31.8671 49.6302 32.5976 50.7084 33.8671 50.7084ZM33.8671 50.0951C33.0351 50.0951 32.5741 49.2631 32.5741 47.7552C32.5741 46.267 33.0429 45.4232 33.8671 45.4232C34.6913 45.4232 35.1522 46.2592 35.1522 47.7552C35.1522 49.267 34.6991 50.0951 33.8671 50.0951ZM38.3593 50.5756H39.0624V44.9388H38.3632L36.8632 46.017V46.7592L38.2968 45.7201H38.3593V50.5756ZM42.6405 50.7084C43.9062 50.7084 44.6327 49.6381 44.6327 47.767C44.6327 45.8998 43.8944 44.806 42.6405 44.806C41.3788 44.806 40.6405 45.8959 40.6405 47.7552C40.6405 49.6302 41.371 50.7084 42.6405 50.7084ZM42.6405 50.0951C41.8085 50.0951 41.3476 49.2631 41.3476 47.7552C41.3476 46.267 41.8163 45.4232 42.6405 45.4232C43.4647 45.4232 43.9257 46.2592 43.9257 47.7552C43.9257 49.267 43.4726 50.0951 42.6405 50.0951ZM47.1327 50.5756H47.8358V44.9388H47.1366L45.6366 46.017V46.7592L47.0702 45.7201H47.1327V50.5756ZM50.8671 50.5756H51.5702V44.9388H50.871L49.371 46.017V46.7592L50.8046 45.7201H50.8671V50.5756ZM28.1757 60.7084C29.4413 60.7084 30.1679 59.6381 30.1679 57.767C30.1679 55.8998 29.4296 54.806 28.1757 54.806C26.914 54.806 26.1757 55.8959 26.1757 57.7552C26.1757 59.6302 26.9062 60.7084 28.1757 60.7084ZM28.1757 60.0951C27.3437 60.0951 26.8827 59.2631 26.8827 57.7552C26.8827 56.267 27.3515 55.4232 28.1757 55.4232C28.9999 55.4232 29.4608 56.2592 29.4608 57.7552C29.4608 59.267 29.0077 60.0951 28.1757 60.0951ZM33.2147 60.7084C34.4804 60.7084 35.2069 59.6381 35.2069 57.767C35.2069 55.8998 34.4687 54.806 33.2147 54.806C31.953 54.806 31.2147 55.8959 31.2147 57.7552C31.2147 59.6302 31.9452 60.7084 33.2147 60.7084ZM33.2147 60.0951C32.3827 60.0951 31.9218 59.2631 31.9218 57.7552C31.9218 56.267 32.3905 55.4232 33.2147 55.4232C34.039 55.4232 34.4999 56.2592 34.4999 57.7552C34.4999 59.267 34.0468 60.0951 33.2147 60.0951ZM11.9491 70.5756H12.6522V64.9388H11.953L10.453 66.017V66.7592L11.8866 65.7201H11.9491V70.5756ZM15.6835 70.5756H16.3866V64.9388H15.6874L14.1874 66.017V66.7592L15.621 65.7201H15.6835V70.5756ZM19.4179 70.5756H20.121V64.9388H19.4218L17.9218 66.017V66.7592L19.3554 65.7201H19.4179V70.5756ZM23.6991 70.7084C24.9647 70.7084 25.6913 69.6381 25.6913 67.767C25.6913 65.8998 24.953 64.806 23.6991 64.806C22.4374 64.806 21.6991 65.8959 21.6991 67.7552C21.6991 69.6302 22.4296 70.7084 23.6991 70.7084ZM23.6991 70.0951C22.8671 70.0951 22.4062 69.2631 22.4062 67.7552C22.4062 66.267 22.8749 65.4232 23.6991 65.4232C24.5233 65.4232 24.9843 66.2592 24.9843 67.7552C24.9843 69.267 24.5312 70.0951 23.6991 70.0951ZM28.7382 70.7084C30.0038 70.7084 30.7304 69.6381 30.7304 67.767C30.7304 65.8998 29.9921 64.806 28.7382 64.806C27.4765 64.806 26.7382 65.8959 26.7382 67.7552C26.7382 69.6302 27.4687 70.7084 28.7382 70.7084ZM28.7382 70.0951C27.9062 70.0951 27.4452 69.2631 27.4452 67.7552C27.4452 66.267 27.914 65.4232 28.7382 65.4232C29.5624 65.4232 30.0233 66.2592 30.0233 67.7552C30.0233 69.267 29.5702 70.0951 28.7382 70.0951ZM33.7772 70.7084C35.0429 70.7084 35.7694 69.6381 35.7694 67.767C35.7694 65.8998 35.0312 64.806 33.7772 64.806C32.5155 64.806 31.7772 65.8959 31.7772 67.7552C31.7772 69.6302 32.5077 70.7084 33.7772 70.7084ZM33.7772 70.0951C32.9452 70.0951 32.4843 69.2631 32.4843 67.7552C32.4843 66.267 32.953 65.4232 33.7772 65.4232C34.6015 65.4232 35.0624 66.2592 35.0624 67.7552C35.0624 69.267 34.6093 70.0951 33.7772 70.0951ZM38.8163 70.7084C40.0819 70.7084 40.8085 69.6381 40.8085 67.767C40.8085 65.8998 40.0702 64.806 38.8163 64.806C37.5546 64.806 36.8163 65.8959 36.8163 67.7552C36.8163 69.6302 37.5468 70.7084 38.8163 70.7084ZM38.8163 70.0951C37.9843 70.0951 37.5233 69.2631 37.5233 67.7552C37.5233 66.267 37.9921 65.4232 38.8163 65.4232C39.6405 65.4232 40.1015 66.2592 40.1015 67.7552C40.1015 69.267 39.6483 70.0951 38.8163 70.0951ZM43.8554 70.7084C45.121 70.7084 45.8476 69.6381 45.8476 67.767C45.8476 65.8998 45.1093 64.806 43.8554 64.806C42.5937 64.806 41.8554 65.8959 41.8554 67.7552C41.8554 69.6302 42.5858 70.7084 43.8554 70.7084ZM43.8554 70.0951C43.0233 70.0951 42.5624 69.2631 42.5624 67.7552C42.5624 66.267 43.0312 65.4232 43.8554 65.4232C44.6796 65.4232 45.1405 66.2592 45.1405 67.7552C45.1405 69.267 44.6874 70.0951 43.8554 70.0951ZM48.8944 70.7084C50.1601 70.7084 50.8866 69.6381 50.8866 67.767C50.8866 65.8998 50.1483 64.806 48.8944 64.806C47.6327 64.806 46.8944 65.8959 46.8944 67.7552C46.8944 69.6302 47.6249 70.7084 48.8944 70.7084ZM48.8944 70.0951C48.0624 70.0951 47.6015 69.2631 47.6015 67.7552C47.6015 66.267 48.0702 65.4232 48.8944 65.4232C49.7187 65.4232 50.1796 66.2592 50.1796 67.7552C50.1796 69.267 49.7265 70.0951 48.8944 70.0951ZM10.7343 80.5756H11.4374V74.9388H10.7382L9.23818 76.017V76.7592L10.6718 75.7201H10.7343V80.5756ZM15.0155 80.7084C16.2812 80.7084 17.0077 79.6381 17.0077 77.767C17.0077 75.8998 16.2694 74.806 15.0155 74.806C13.7538 74.806 13.0155 75.8959 13.0155 77.7552C13.0155 79.6302 13.746 80.7084 15.0155 80.7084ZM15.0155 80.0951C14.1835 80.0951 13.7226 79.2631 13.7226 77.7552C13.7226 76.267 14.1913 75.4232 15.0155 75.4232C15.8397 75.4232 16.3007 76.2592 16.3007 77.7552C16.3007 79.267 15.8476 80.0951 15.0155 80.0951ZM19.5077 80.5756H20.2108V74.9388H19.5116L18.0116 76.017V76.7592L19.4452 75.7201H19.5077V80.5756ZM23.789 80.7084C25.0546 80.7084 25.7812 79.6381 25.7812 77.767C25.7812 75.8998 25.0429 74.806 23.789 74.806C22.5272 74.806 21.789 75.8959 21.789 77.7552C21.789 79.6302 22.5194 80.7084 23.789 80.7084ZM23.789 80.0951C22.9569 80.0951 22.496 79.2631 22.496 77.7552C22.496 76.267 22.9647 75.4232 23.789 75.4232C24.6132 75.4232 25.0741 76.2592 25.0741 77.7552C25.0741 79.267 24.621 80.0951 23.789 80.0951ZM28.2812 80.5756H28.9843V74.9388H28.2851L26.7851 76.017V76.7592L28.2187 75.7201H28.2812V80.5756ZM32.5624 80.7084C33.828 80.7084 34.5546 79.6381 34.5546 77.767C34.5546 75.8998 33.8163 74.806 32.5624 74.806C31.3007 74.806 30.5624 75.8959 30.5624 77.7552C30.5624 79.6302 31.2929 80.7084 32.5624 80.7084ZM32.5624 80.0951C31.7304 80.0951 31.2694 79.2631 31.2694 77.7552C31.2694 76.267 31.7382 75.4232 32.5624 75.4232C33.3866 75.4232 33.8476 76.2592 33.8476 77.7552C33.8476 79.267 33.3944 80.0951 32.5624 80.0951ZM37.6015 80.7084C38.8671 80.7084 39.5937 79.6381 39.5937 77.767C39.5937 75.8998 38.8554 74.806 37.6015 74.806C36.3397 74.806 35.6015 75.8959 35.6015 77.7552C35.6015 79.6302 36.3319 80.7084 37.6015 80.7084ZM37.6015 80.0951C36.7694 80.0951 36.3085 79.2631 36.3085 77.7552C36.3085 76.267 36.7772 75.4232 37.6015 75.4232C38.4257 75.4232 38.8866 76.2592 38.8866 77.7552C38.8866 79.267 38.4335 80.0951 37.6015 80.0951ZM42.6405 80.7084C43.9062 80.7084 44.6327 79.6381 44.6327 77.767C44.6327 75.8998 43.8944 74.806 42.6405 74.806C41.3788 74.806 40.6405 75.8959 40.6405 77.7552C40.6405 79.6302 41.371 80.7084 42.6405 80.7084ZM42.6405 80.0951C41.8085 80.0951 41.3476 79.2631 41.3476 77.7552C41.3476 76.267 41.8163 75.4232 42.6405 75.4232C43.4647 75.4232 43.9257 76.2592 43.9257 77.7552C43.9257 79.267 43.4726 80.0951 42.6405 80.0951ZM47.1327 80.5756H47.8358V74.9388H47.1366L45.6366 76.017V76.7592L47.0702 75.7201H47.1327V80.5756ZM50.8671 80.5756H51.5702V74.9388H50.871L49.371 76.017V76.7592L50.8046 75.7201H50.8671V80.5756ZM32.5937 86.3646H31.8749L30.7226 89.8334H30.6601L29.5077 86.3646H28.789L30.3476 90.5756H31.0351L32.5937 86.3646Z" fill="#808080"/>
        </g>
    </g>
    <rect opacity="0.01" x="0.5" y="0.5" width="55" height="39.7891" stroke="#979797"/>
    <defs>
        <linearGradient id="paint0_linear" x1="0.408813" y1="13.4281" x2="47.4676" y2="13.4281" gradientUnits="userSpaceOnUse">
            <stop stop-color="#EBECF0" stop-opacity="0.1"/>
            <stop offset="1" stop-color="#EBECF0"/>
        </linearGradient>
        <linearGradient id="paint1_linear" x1="22.586" y1="39.0678" x2="49.0473" y2="28.0572" gradientUnits="userSpaceOnUse">
            <stop stop-color="white"/>
            <stop offset="0.6908" stop-color="white" stop-opacity="0.1"/>
        </linearGradient>
        <clipPath id="clip0">
            <rect width="16.4706" height="16.6002" fill="white" transform="translate(22.4174 13.6263)"/>
        </clipPath>
        <clipPath id="clip1">
            <rect width="18.0392" height="18.1812" fill="white" transform="translate(24.553 14.252)"/>
        </clipPath>
    </defs>
</svg>