<svg width="66" height="57" viewBox="0 0 66 57" fill="none"
    xmlns="http://www.w3.org/2000/svg">
    <rect width="61.4483" height="54" fill="white"/>
    <path fill-rule="evenodd" clip-rule="evenodd" d="M10.7167 18.2119C13.1012 18.6688 15.3938 17.0481 15.8375 14.592C16.0506 13.4124 15.8 12.1938 15.1407 11.2045C14.4815 10.2152 13.4677 9.53624 12.3224 9.31697C9.93787 8.86043 7.64548 10.4814 7.20211 12.9375C6.75873 15.3937 8.33225 17.755 10.7167 18.2119ZM14.247 13.0286L10.7199 15.8385V15.8392C10.6387 15.9035 10.5223 15.888 10.4597 15.8045L8.95214 13.8085C8.92182 13.7684 8.9082 13.7176 8.91429 13.6672C8.92038 13.6169 8.94567 13.571 8.98458 13.5399L9.76091 12.9203C9.79978 12.8891 9.84911 12.8751 9.89803 12.8813C9.94694 12.8876 9.99143 12.9137 10.0217 12.9538L10.813 13.9997L13.4184 11.9245C13.4573 11.8933 13.5067 11.8794 13.5556 11.8858C13.6046 11.8922 13.649 11.9183 13.6792 11.9585L14.2801 12.76C14.3103 12.8001 14.3238 12.851 14.3176 12.9014C14.3114 12.9518 14.286 12.9976 14.247 13.0286Z" fill="#0065FF"/>
    <path fill-rule="evenodd" clip-rule="evenodd" d="M10.7167 39.6973C13.1012 40.1541 15.3938 38.5335 15.8375 36.0774C16.0506 34.8977 15.8 33.6792 15.1407 32.6899C14.4815 31.7006 13.4677 31.0216 12.3224 30.8023C9.93787 30.3458 7.64548 31.9667 7.20211 34.4229C6.75873 36.879 8.33225 39.2404 10.7167 39.6973ZM14.247 34.514L10.7199 37.3239V37.3245C10.6387 37.3889 10.5223 37.3733 10.4597 37.2899L8.95214 35.2938C8.92182 35.2538 8.9082 35.203 8.91429 35.1526C8.92038 35.1022 8.94567 35.0564 8.98458 35.0252L9.76091 34.4057C9.79978 34.3745 9.84911 34.3604 9.89803 34.3667C9.94694 34.373 9.99143 34.399 10.0217 34.4391L10.813 35.4851L13.4184 33.4098C13.4573 33.3787 13.5067 33.3648 13.5556 33.3711C13.6046 33.3775 13.649 33.4037 13.6792 33.4439L14.2801 34.2454C14.3103 34.2855 14.3238 34.3364 14.3176 34.3867C14.3114 34.4371 14.286 34.4829 14.247 34.514Z" fill="#0065FF"/>
    <path d="M11.3362 29.2422C13.8958 29.4499 16.1384 27.534 16.3453 24.9628C16.5521 22.3916 14.6448 20.1388 12.0852 19.931C9.52558 19.7233 7.28292 21.6392 7.07608 24.2104C6.86924 26.7816 8.77654 29.0344 11.3362 29.2422Z" fill="#FF5230"/>
    <path d="M13.8233 25.719L12.7298 24.6769L13.767 23.578C13.7991 23.5438 13.7977 23.4899 13.7639 23.4574L12.9526 22.6886C12.9185 22.6563 12.865 22.6577 12.8326 22.6917L11.7955 23.7906L10.702 22.7485C10.668 22.7162 10.6144 22.7176 10.582 22.7516L9.82137 23.5604C9.78923 23.5945 9.79059 23.6484 9.82443 23.6809L10.9179 24.723L9.88079 25.8219C9.84865 25.8561 9.85001 25.9099 9.88385 25.9424L10.6887 26.7068C10.7227 26.7391 10.7763 26.7377 10.8086 26.7037L11.8458 25.6048L12.9393 26.6469C12.9733 26.6792 13.0269 26.6779 13.0592 26.6438L13.8198 25.836C13.8515 25.8041 13.8531 25.7528 13.8233 25.719Z" fill="white"/>
    <rect opacity="0.203351" x="20.3679" y="23.052" width="31.5737" height="3.06934" fill="#B3BAC5"/>
    <rect opacity="0.203351" x="20.3679" y="12.8208" width="31.5737" height="3.06934" fill="#B3BAC5"/>
    <rect opacity="0.203351" x="20.3679" y="33.2832" width="31.5737" height="3.06934" fill="#B3BAC5"/>
    <rect x="20.3679" y="33.2832" width="22.9164" height="3.06934" fill="#6C798F"/>
    <rect x="20.3679" y="23.052" width="12.2221" height="3.06934" fill="#C1C7D0"/>
    <rect x="20.3679" y="12.8208" width="30.0459" height="3.06934" fill="#505F79"/>
    <rect opacity="0.01" x="2.68091" y="7.94824" width="61.492" height="43.6897" stroke="#979797"/>
    <g style="mix-blend-mode:multiply" opacity="0.429688">
        <path d="M43.9019 51.6627C52.8014 51.6627 60.016 44.3799 60.016 35.396C60.016 26.4122 52.8014 19.1294 43.9019 19.1294C35.0024 19.1294 27.7878 26.4122 27.7878 35.396C27.7878 44.3799 35.0024 51.6627 43.9019 51.6627Z" fill="#A5ADBA"/>
    </g>
    <path d="M42.623 49.5971C51.6638 49.5971 58.9928 42.1986 58.9928 33.0722C58.9928 23.9458 51.6638 16.5474 42.623 16.5474C33.5822 16.5474 26.2532 23.9458 26.2532 33.0722C26.2532 42.1986 33.5822 49.5971 42.623 49.5971Z" fill="#344563"/>
    <path d="M44.8128 19.3055C50.3284 20.1997 54.7673 24.36 56.0597 29.8464C57.352 35.3328 55.2434 41.0649 50.717 44.3698C46.1906 47.6748 40.1378 47.9016 35.3811 44.9447C30.6243 41.9878 28.1004 36.4293 28.9862 30.8613C30.2037 23.2632 37.2837 18.0937 44.8128 19.3055Z" fill="white"/>
    <path d="M44.7893 19.3033C39.9187 18.5246 35.0016 20.396 31.8804 24.2165C32.8745 24.1715 33.8704 24.2405 34.8488 24.4219C41.9161 25.7821 45.031 30.9141 52.686 32.9383C53.9102 33.2628 55.1603 33.4804 56.4221 33.5886C56.7249 26.5657 51.7263 20.4272 44.7893 19.3033Z" fill="url(#paint0_linear)"/>
    <path fill-rule="evenodd" clip-rule="evenodd" d="M32.0633 25.4519C35.0132 21.0361 40.3076 18.8489 45.4779 19.9101C50.6481 20.9714 54.6759 25.0721 55.6831 30.3001C56.6904 35.5282 54.4787 40.854 50.0793 43.7941C45.68 46.7342 39.9594 46.7096 35.5851 43.7319C29.6194 39.6609 28.0439 31.4833 32.0633 25.4519Z" stroke="#253858" stroke-width="8.371" stroke-dasharray="1 22"/>
    <path d="M42.4912 33.298L51.887 28.0405" stroke="#344563" stroke-width="2"/>
    <g style="mix-blend-mode:multiply">
        <path fill-rule="evenodd" clip-rule="evenodd" d="M42.623 33.0723L42.3673 47.2733C42.3673 47.2733 31.8803 45.7241 29.8341 37.7199L42.623 33.0723Z" fill="#97A0AF"/>
    </g>
    <path d="M39.0421 39.2691L42.623 33.0723" stroke="#172B4D" stroke-width="3" stroke-linecap="round"/>
    <path d="M42.623 34.1052C43.188 34.1052 43.6461 33.6428 43.6461 33.0724C43.6461 32.502 43.188 32.0396 42.623 32.0396C42.0579 32.0396 41.5999 32.502 41.5999 33.0724C41.5999 33.6428 42.0579 34.1052 42.623 34.1052Z" fill="#B3BAC5" stroke="#344563" stroke-width="2"/>
    <defs>
        <linearGradient id="paint0_linear" x1="47.132" y1="10.6604" x2="26.8973" y2="37.0312" gradientUnits="userSpaceOnUse">
            <stop offset="0.1824" stop-color="#ECEEF1"/>
            <stop offset="1" stop-color="white"/>
        </linearGradient>
    </defs>
</svg>