<svg width="53" height="42" viewBox="0 0 53 42" fill="none"
    xmlns="http://www.w3.org/2000/svg">
    <path d="M0 0H52.628V35.6955H0V0Z" fill="url(#paint0_linear)" fill-opacity="0.5"/>
    <path style="mix-blend-mode:multiply" d="M52.628 7.89072C37.6951 6.56555 29.132 8.09171 24.0227 9.81443C23.0168 10.1523 21.7217 10.6427 19.5933 11.2169C11.9045 13.2974 4.7877 13.4123 0 13.1914V4.11841H52.628V7.89072Z" fill="url(#paint1_linear)"/>
    <path d="M0 0H52.628V4.11871H0V0Z" fill="#EBECF0"/>
    <path d="M3.43217 3.2037C4.06404 3.2037 4.57626 2.69148 4.57626 2.05961C4.57626 1.42775 4.06404 0.915527 3.43217 0.915527C2.80031 0.915527 2.28809 1.42775 2.28809 2.05961C2.28809 2.69148 2.80031 3.2037 3.43217 3.2037Z" fill="#FF8B00"/>
    <path d="M7.09355 3.2037C7.72541 3.2037 8.23764 2.69148 8.23764 2.05961C8.23764 1.42775 7.72541 0.915527 7.09355 0.915527C6.46169 0.915527 5.94946 1.42775 5.94946 2.05961C5.94946 2.69148 6.46169 3.2037 7.09355 3.2037Z" fill="#FFC400"/>
    <path d="M10.7542 3.2037C11.3861 3.2037 11.8983 2.69148 11.8983 2.05961C11.8983 1.42775 11.3861 0.915527 10.7542 0.915527C10.1223 0.915527 9.61011 1.42775 9.61011 2.05961C9.61011 2.69148 10.1223 3.2037 10.7542 3.2037Z" fill="#0065FF"/>
    <path opacity="0.381864" fill-rule="evenodd" clip-rule="evenodd" d="M15.5596 27.0006H43.9329V29.7464H15.5596V27.0006Z" fill="#B1B1B1"/>
    <path opacity="0.381864" fill-rule="evenodd" clip-rule="evenodd" d="M10.9834 27.0006H13.7292V29.7464H10.9834V27.0006Z" fill="#6A6A6A"/>
    <path opacity="0.381864" fill-rule="evenodd" clip-rule="evenodd" d="M10.9834 14.644H13.7292V17.3899H10.9834V14.644Z" fill="#6A6A6A"/>
    <path opacity="0.381864" fill-rule="evenodd" clip-rule="evenodd" d="M10.9834 9.15308H13.7292V11.8989H10.9834V9.15308Z" fill="#6A6A6A"/>
    <path d="M38.4413 9.15308H15.5596V11.8989H38.4413V9.15308Z" fill="#0065FF"/>
    <path d="M43.9328 9.15308H26.0851V11.8989H43.9328V9.15308Z" fill="#8F8F8F"/>
    <path d="M43.9329 14.644H15.5596V17.3899H43.9329V14.644Z" fill="#B0B0B0"/>
    <path d="M10.0679 22.4238H46.9075" stroke="#C7C7C7" stroke-width="2" stroke-linecap="round" stroke-dasharray="2 4"/>
    <path d="M40.6779 42C46.2099 42 50.6945 37.5154 50.6945 31.9833C50.6945 26.4513 46.2099 21.9667 40.6779 21.9667C35.1459 21.9667 30.6613 26.4513 30.6613 31.9833C30.6613 37.5154 35.1459 42 40.6779 42Z" fill="#CDD2D9"/>
    <path d="M39.7631 40.6268C45.2951 40.6268 49.7797 36.1422 49.7797 30.6101C49.7797 25.0781 45.2951 20.5935 39.7631 20.5935C34.2311 20.5935 29.7465 25.0781 29.7465 30.6101C29.7465 36.1422 34.2311 40.6268 39.7631 40.6268Z" fill="#344563"/>
    <path d="M40.7293 25.6274H38.8988V35.2378H40.7293V25.6274Z" fill="white"/>
    <path d="M44.6194 31.3481V29.5176H35.0091V31.3481H44.6194Z" fill="white"/>
    <defs>
        <linearGradient id="paint0_linear" x1="3.19468" y1="27.3748" x2="38.3185" y2="-4.08759" gradientUnits="userSpaceOnUse">
            <stop stop-color="#C1C7D0"/>
            <stop offset="1" stop-color="#FAFBFC"/>
        </linearGradient>
        <linearGradient id="paint1_linear" x1="9.64448" y1="9.12923" x2="25.1432" y2="-6.72778" gradientUnits="userSpaceOnUse">
            <stop stop-color="#797A80" stop-opacity="0.1"/>
            <stop offset="1" stop-color="#EBECF0"/>
        </linearGradient>
    </defs>
</svg>