<svg xmlns="http://www.w3.org/2000/svg" xmlns:xlink="http://www.w3.org/1999/xlink" viewBox="0 0 247.42 187.86"><defs><style>.cls-1,.cls-11,.cls-2,.cls-7,.cls-8{fill:none;stroke-miterlimit:10;}.cls-1,.cls-2{stroke:#dfe1e5;stroke-width:3.84px;}.cls-2{stroke-dasharray:11.59 11.59;}.cls-3{fill:url(#linear-gradient);}.cls-4{fill:url(#linear-gradient-2);}.cls-12,.cls-5{fill:#dfe1e5;}.cls-5,.cls-8{fill-rule:evenodd;}.cls-6{fill:url(#linear-gradient-3);}.cls-7{stroke:#b3bac5;}.cls-7,.cls-8{stroke-width:7.9px;}.cls-8{stroke:#2684ff;}.cls-9{fill:#b3bac5;}.cls-10{fill:#2684ff;}.cls-11{stroke:#c1c7d0;stroke-width:3.12px;}</style><linearGradient id="linear-gradient" x1="62.44" y1="152.36" x2="186.52" y2="28.28" gradientTransform="translate(-22.03 -7.53)" gradientUnits="userSpaceOnUse"><stop offset="0" stop-color="#4c9aff"/><stop offset="1" stop-color="#b2d4ff"/></linearGradient><linearGradient id="linear-gradient-2" x1="54.1" y1="157.76" x2="178.18" y2="33.68" gradientTransform="translate(16.81 9.83)" xlink:href="#linear-gradient"/><linearGradient id="linear-gradient-3" x1="52.17" y1="159.48" x2="176.25" y2="35.4" gradientUnits="userSpaceOnUse"><stop offset="0" stop-color="#dfe1e5"/><stop offset="1" stop-color="#f4f5f7"/></linearGradient></defs><g id="Layer_2" data-name="Layer 2"><g id="Layer_1-2" data-name="Layer 1"><line class="cls-1" x1="236.6" y1="109.39" x2="236.6" y2="103"/><polyline class="cls-1" points="236.6 91.88 236.6 85.49 230.2 85.49"/><line class="cls-2" x1="218.61" y1="85.49" x2="201.21" y2="85.49"/><line class="cls-1" x1="195.42" y1="85.49" x2="189.02" y2="85.49"/><line class="cls-1" x1="15.47" y1="113.08" x2="15.47" y2="119.48"/><polyline class="cls-1" points="15.47 130.6 15.47 136.99 21.86 136.99"/><line class="cls-2" x1="33.46" y1="136.99" x2="50.85" y2="136.99"/><line class="cls-1" x1="56.65" y1="136.99" x2="63.04" y2="136.99"/><rect class="cls-3" x="44.22" y="9.9" width="116.44" height="145.78" rx="12" transform="translate(-17.96 29.39) rotate(-15.02)"/><rect class="cls-4" x="74.72" y="32.66" width="116.44" height="145.78" rx="12" transform="translate(29.66 -29.16) rotate(14.08)"/><path class="cls-5" d="M18.37,76a1.91,1.91,0,0,0-1.91-1.91h-2A1.9,1.9,0,0,0,12.57,76v2.32a11.79,11.79,0,0,0-3,1.24L7.93,77.94a1.9,1.9,0,0,0-2.7,0l-1.4,1.4a1.9,1.9,0,0,0,0,2.7l1.64,1.64a12,12,0,0,0-1.24,3H1.91A1.91,1.91,0,0,0,0,88.59v2a1.92,1.92,0,0,0,1.91,1.91H4.23a11.94,11.94,0,0,0,1.24,3L3.83,97.11a1.91,1.91,0,0,0,0,2.71l1.4,1.4a1.92,1.92,0,0,0,2.7,0l1.65-1.65a11.46,11.46,0,0,0,3,1.25v2.32a1.91,1.91,0,0,0,1.91,1.91h2a1.92,1.92,0,0,0,1.91-1.91v-2.32a11.61,11.61,0,0,0,3-1.25L23,101.22a1.92,1.92,0,0,0,2.7,0l1.4-1.4a1.93,1.93,0,0,0,0-2.71l-1.64-1.64a11.94,11.94,0,0,0,1.24-3H29a1.92,1.92,0,0,0,1.91-1.91v-2A1.91,1.91,0,0,0,29,86.68H26.71a12,12,0,0,0-1.24-3L27.11,82a1.92,1.92,0,0,0,0-2.7l-1.4-1.4a1.9,1.9,0,0,0-2.7,0l-1.65,1.64a11.94,11.94,0,0,0-3-1.24Zm-2.9,8.46a5.1,5.1,0,1,1-5.1,5.1A5.1,5.1,0,0,1,15.47,84.48Z"/><rect class="cls-6" x="55.99" y="24.55" width="116.44" height="145.78" rx="12"/><circle class="cls-7" cx="114.21" cy="69.01" r="25.57"/><path class="cls-8" d="M139.78,69a25.57,25.57,0,1,1-25.57-25.57"/><circle class="cls-9" cx="74.77" cy="115.13" r="5.03"/><circle class="cls-10" cx="74.77" cy="132.58" r="5.03"/><circle class="cls-10" cx="74.77" cy="150.03" r="5.03"/><line class="cls-11" x1="88.64" y1="115.13" x2="152.83" y2="115.13"/><line class="cls-11" x1="88.64" y1="132.58" x2="152.83" y2="132.58"/><line class="cls-11" x1="88.64" y1="150.03" x2="152.83" y2="150.03"/><path class="cls-12" d="M245.35,120.68A10.82,10.82,0,1,0,243,135.8,10.81,10.81,0,0,0,245.35,120.68Zm-2.75,4.58-7.09,7.08a.5.5,0,0,1-.71,0l-4.21-4.21a.5.5,0,0,1,0-.71L232,126a.5.5,0,0,1,.71,0l2.41,2.41,5.28-5.29a.51.51,0,0,1,.71,0l1.45,1.46A.5.5,0,0,1,242.6,125.26Z"/></g></g></svg>