<svg width="509" height="401" viewBox="0 0 509 401" fill="none" xmlns="http://www.w3.org/2000/svg">
<g clip-path="url(#clip0)">
<path d="M0.370117 0H508.1V400.38H0.370117V0Z" fill="white" fill-opacity="0.01"/>
<path d="M408 341.58L477.8 374.3" stroke="url(#paint0_linear)" stroke-width="2.9701" stroke-miterlimit="10" stroke-linecap="round"/>
<path d="M437.93 328.141L506.61 360.341" stroke="url(#paint1_linear)" stroke-width="2.9701" stroke-miterlimit="10" stroke-linecap="round"/>
<path d="M98.8856 276.443L97.4927 274.871L86.2218 284.86L87.6147 286.432L98.8856 276.443Z" fill="#C1C7D0"/>
<path d="M84.4802 287.15L86.2002 285.53L87.1502 286.53L85.4302 288.15C86.3502 288.69 87.5602 288.6 88.3702 287.82C89.3602 286.88 89.4102 285.32 88.4702 284.32C87.5302 283.33 85.9702 283.28 84.9702 284.22C84.1602 285 83.9902 286.2 84.4802 287.15Z" fill="#C1C7D0"/>
<path d="M101.21 273.81L99.49 275.43L98.54 274.43L100.26 272.81C99.34 272.27 98.13 272.37 97.32 273.14C96.33 274.08 96.28 275.64 97.22 276.64C98.16 277.63 99.72 277.68 100.72 276.74C101.54 275.95 101.7 274.76 101.21 273.81Z" fill="#C1C7D0"/>
<path d="M60.06 241.71C62.838 241.71 65.09 239.458 65.09 236.68C65.09 233.902 62.838 231.65 60.06 231.65C57.282 231.65 55.03 233.902 55.03 236.68C55.03 239.458 57.282 241.71 60.06 241.71Z" fill="#253858"/>
<path d="M37.2501 312.23C57.6184 312.23 74.1301 309.266 74.1301 305.61C74.1301 301.954 57.6184 298.99 37.2501 298.99C16.8819 298.99 0.370117 301.954 0.370117 305.61C0.370117 309.266 16.8819 312.23 37.2501 312.23Z" fill="url(#paint2_linear)"/>
<path d="M47.7801 270.85C47.4101 274.21 47.3001 278.63 48.2001 283.67C48.6601 286.24 49.3101 288.53 49.9901 290.5L52.8601 290.23C52.8501 289.25 52.8701 287.71 53.0101 285.83C53.2801 282.2 53.7501 280.79 53.8701 278C53.9301 276.62 53.9201 274.58 53.5301 272.06C54.3401 270.44 55.1401 268.78 55.9201 267.08C58.3101 261.92 60.3601 256.89 62.1301 252.04C62.3101 251.55 62.0501 251.01 61.5601 250.83L55.8801 248.82L47.7801 270.85Z" fill="#FFC400"/>
<path d="M21.1301 301.439C28.4301 302.829 35.7401 304.219 43.0401 305.609C43.6501 305.629 46.4001 305.659 48.2801 303.639C49.5201 302.299 49.7801 300.719 49.9501 299.689C50.3201 297.439 49.7701 295.289 49.4901 294.159C49.4101 293.859 49.3401 293.619 49.3001 293.449C47.2101 286.359 46.1401 283.819 45.0901 280.049C43.4101 274.019 44.2201 274.329 43.0101 271.189C41.7301 267.859 39.2401 263.769 34.0401 259.779C33.2501 260.699 32.2001 262.059 31.2101 263.859C30.4601 265.219 29.5401 266.869 29.1201 269.089C28.9001 270.249 28.7601 271.819 29.2401 274.689C29.4801 276.129 30.2701 280.339 33.3701 286.359C34.4401 288.449 36.0201 291.179 38.2601 294.199C35.5301 293.269 32.6301 292.369 29.5701 291.529C27.2401 290.889 24.9801 290.329 22.7901 289.829C22.2201 293.709 21.6701 297.569 21.1301 301.439Z" fill="url(#paint3_linear)"/>
<path d="M34.0701 259.811C33.2501 260.711 32.1701 262.061 31.2001 263.881C29.9401 266.241 28.3601 269.221 29.1201 272.821C29.2501 273.431 29.7201 276.941 32.8501 278.731C33.7901 279.261 34.6301 279.731 35.6401 280.161C35.6401 280.161 37.6201 281.001 39.9801 281.521C44.8901 282.601 52.3301 282.051 52.8201 282.021C51.2001 283.271 49.5001 284.701 47.7701 286.331C45.4601 288.491 43.4801 290.631 41.8101 292.621C45.0101 294.831 48.2101 297.041 51.4201 299.251C53.8701 296.901 56.4301 294.261 59.0201 291.301C62.0401 287.851 64.6401 284.491 66.8801 281.341C67.0901 280.751 67.5101 279.331 67.0401 277.661C66.2001 274.691 63.2801 273.611 62.9601 273.501C59.3701 272.341 55.7701 271.171 52.1801 270.011C49.5101 269.161 46.8401 268.311 44.1801 267.461C42.3001 266.271 40.3001 264.891 38.2501 263.291C36.7101 262.111 35.3301 260.941 34.0701 259.811Z" fill="#FFAB00"/>
<path d="M58.56 263.44L44.43 267.65C42.86 266.75 41.17 265.66 39.41 264.36C37.31 262.81 35.53 261.25 34.04 259.79C38.65 255.1 42.56 251.91 45.18 249.93C47.12 248.47 48.31 247.72 50.68 246.23C50.68 246.23 54.78 243.65 57.18 243.06C57.26 243.04 58.82 242.66 58.82 242.66L62.04 250.13C62.33 250.8 62.43 251.53 62.32 252.25L61.17 260.39C61.02 261.54 60.33 262.59 59.24 263.17C59.02 263.28 58.79 263.37 58.56 263.44Z" fill="#344563"/>
<path d="M61.1901 251.48C61.2901 251.24 61.4001 250.93 61.4601 250.56C61.5401 250.11 61.5401 249.71 61.5101 249.42C61.8901 248.51 62.6301 247.14 64.0201 245.96C64.4801 245.57 64.9401 245.27 65.3601 245.03L62.6501 240.98L58.8101 242.65C59.2901 244.29 59.7701 245.94 60.2501 247.58C60.1601 247.98 60.0201 248.83 60.3101 249.83C60.5301 250.63 60.9301 251.18 61.1901 251.48Z" fill="#72594B"/>
<path d="M60.3701 305.609C60.3701 305.609 59.6901 304.049 57.6401 303.149C55.7101 302.309 54.5701 303.139 52.1801 302.099C51.5101 301.809 49.9301 301.109 49.8901 300.019C49.8701 299.449 50.2901 298.969 50.6101 298.679C49.0501 297.599 47.4901 296.519 45.9301 295.439C45.9301 295.439 44.6101 296.849 43.7701 299.769C42.9301 302.689 43.0401 305.599 43.0401 305.599L60.3701 305.609Z" fill="#253858"/>
<path d="M22.3502 292.81C21.6802 292.5 20.7302 292.15 19.5602 291.97C18.1702 291.76 17.0002 291.87 16.2102 292.01C16.2302 295.78 16.2502 299.55 16.2702 303.32C16.2502 303.45 16.1602 304.29 16.7702 304.96C17.2302 305.48 17.8202 305.58 18.0002 305.6C19.7402 305.6 21.4802 305.6 23.2202 305.6C23.1202 305.36 22.9302 304.97 22.6002 304.58C21.5302 303.32 20.2402 303.5 19.7702 302.44C19.5202 301.87 19.6502 301.26 19.6902 301.04C19.8202 300.45 20.1102 300.06 20.3602 299.74C20.5702 299.46 20.9402 299.06 21.5202 298.69C21.7902 296.74 22.0702 294.77 22.3502 292.81Z" fill="#253858"/>
<path d="M62.6501 241.239L65.9202 246.109C66.3702 246.779 67.0602 247.249 67.8502 247.409C68.5402 247.549 69.2501 247.459 69.8801 247.139L72.5001 245.819L72.9401 246.579C73.1101 246.869 73.5401 246.839 73.6601 246.529L74.5001 244.429L75.3601 243.489C76.4501 242.289 77.2802 240.879 77.7802 239.329C78.4502 237.289 78.1901 235.069 77.0701 233.239C75.8501 231.239 73.7501 229.939 71.4101 229.749L70.9501 229.709C70.4401 229.669 69.9201 229.729 69.4301 229.889C66.7601 230.759 64.8301 233.079 64.4401 235.859L64.2201 237.489L62.6501 241.239Z" fill="#72594B"/>
<path d="M58.81 242.66L60.79 254.07L64.5601 266.79C65.8501 267.2 67.8601 267.89 70.2301 268.96C74.68 270.96 76.3701 272.55 80.8001 274.56C83.0201 275.57 84.94 276.24 86.29 276.67C85.75 277.62 85.2101 278.57 84.6701 279.53C80.6001 278.32 76.53 277.1 72.47 275.89C72.47 275.89 64.96 274.21 60.88 270.19C56.24 265.63 54.3601 259.76 53.0701 255.44C52.5901 253.84 52.2801 252.49 52.0901 251.55C52.0101 251 51.6601 248.36 53.4101 245.88C55.3401 243.14 58.32 242.72 58.81 242.66Z" fill="url(#paint4_linear)"/>
<path d="M84.9202 279.08C85.2102 279.57 86.3602 281.39 88.2602 281.61C89.1702 281.72 89.9302 281.42 90.9702 281.01C92.3302 280.48 93.3402 279.79 93.9902 279.28L97.0702 281.6C97.3102 281.78 97.6402 281.81 97.8902 281.65C98.2802 281.4 98.3302 280.88 98.0302 280.56L95.4202 277.8C95.2202 277.59 94.9502 277.46 94.6702 277.43L91.0802 277.1L85.9702 276.73L84.9202 279.08Z" fill="#72594B"/>
<path d="M96.41 280.519L97.68 282.009C97.92 282.289 97.9201 282.689 97.7001 282.979C97.4501 283.299 96.99 283.359 96.66 283.129L92.82 280.419L89.8 280.519L91.05 278.699H94.15L96.41 280.519Z" fill="#72594B"/>
<path d="M96.5102 284.51C96.2302 284.76 95.8102 284.76 95.5302 284.51C94.8802 283.76 94.2302 283.02 93.5802 282.27C92.3802 281.66 91.1702 281.04 89.9702 280.43L90.8802 279.26L94.6702 281.02L96.6002 283.53C96.8302 283.83 96.7902 284.26 96.5102 284.51Z" fill="#72594B"/>
<path d="M93.7301 284.99C93.4701 285.09 93.1801 284.99 93.0501 284.74L91.9201 282.56C91.3201 282.08 90.7101 281.6 90.1101 281.12C90.3901 280.83 90.6701 280.54 90.9601 280.25C91.7601 280.86 92.5501 281.48 93.3501 282.09L94.0501 284.33C94.1201 284.6 93.9901 284.89 93.7301 284.99Z" fill="#72594B"/>
<path d="M65.0701 231.74C64.0301 233.36 64.5601 234.67 63.3201 238.34C62.9001 239.59 62.4501 240.57 62.1501 241.21C63.8801 240.94 65.1502 240.34 65.9202 239.91C66.7202 239.46 67.2801 239.15 67.8701 238.52C69.1101 237.21 69.2501 235.85 70.2101 235.73C70.3001 235.72 70.6902 235.67 70.9202 235.91C71.5402 236.55 69.8801 238.19 70.4001 239.41C70.9101 240.61 73.2201 240.68 74.4101 240.72C75.7901 240.76 77.1601 240.81 78.0401 239.88C79.0001 238.87 78.7901 237.3 78.7001 236.58C78.2801 233.37 75.4201 228.91 70.9701 228.85C68.8401 228.83 66.3001 229.83 65.0701 231.74Z" fill="#253858"/>
<path d="M62.2002 236.2C62.4502 231.28 66.6402 227.5 71.5602 227.75C76.4802 228 80.2602 232.19 80.0102 237.11L62.2002 236.2Z" fill="url(#paint5_linear)"/>
<path d="M80.7419 236.674L61.5469 235.689L61.4598 237.387L80.6549 238.371L80.7419 236.674Z" fill="#FF991F"/>
<path d="M283.18 400.381L72.8901 301.791L283.18 203.211L493.46 301.791L283.18 400.381Z" fill="#36B37E"/>
<path d="M283.18 400.32L72.8901 301.73L283.18 203.15L493.46 301.73L283.18 400.32Z" fill="#36B37E"/>
<path d="M283.18 400.26L72.8901 301.67L283.18 203.09L493.46 301.67L283.18 400.26Z" fill="#36B37E"/>
<path d="M283.18 400.201L72.8901 301.611L283.18 203.031L493.46 301.611L283.18 400.201Z" fill="#36B37E"/>
<path d="M283.18 400.141L72.8901 301.551L283.18 202.971L493.46 301.551L283.18 400.141Z" fill="#36B37E"/>
<path d="M283.18 400.08L72.8901 301.49L283.18 202.9L493.46 301.49L283.18 400.08Z" fill="#36B37E"/>
<path d="M283.18 400.01L72.8901 301.43L283.18 202.84L493.46 301.43L283.18 400.01Z" fill="#36B37E"/>
<path d="M283.18 399.951L72.8901 301.371L283.18 202.781L493.46 301.371L283.18 399.951Z" fill="#36B37E"/>
<path d="M283.18 399.891L72.8901 301.311L283.18 202.721L493.46 301.311L283.18 399.891Z" fill="#36B37E"/>
<path d="M283.18 399.83L72.8901 301.25L283.18 202.66L493.46 301.25L283.18 399.83Z" fill="#36B37E"/>
<path d="M283.18 399.77L72.8901 301.19L283.18 202.6L493.46 301.19L283.18 399.77Z" fill="#36B37E"/>
<path d="M283.18 399.711L72.8901 301.131L283.18 202.541L493.46 301.131L283.18 399.711Z" fill="#36B37E"/>
<path d="M283.18 399.65L72.8901 301.06L283.18 202.48L493.46 301.06L283.18 399.65Z" fill="#36B37E"/>
<path d="M283.18 399.59L72.8901 301L283.18 202.42L493.46 301L283.18 399.59Z" fill="#36B37E"/>
<path d="M283.18 399.531L72.8901 300.941L283.18 202.361L493.46 300.941L283.18 399.531Z" fill="#36B37E"/>
<path d="M283.18 399.471L72.8901 300.881L283.18 202.301L493.46 300.881L283.18 399.471Z" fill="#36B37E"/>
<path d="M283.18 399.41L72.8901 300.82L283.18 202.24L493.46 300.82L283.18 399.41Z" fill="#36B37E"/>
<path d="M283.18 399.35L72.8901 300.76L283.18 202.18L493.46 300.76L283.18 399.35Z" fill="#36B37E"/>
<path d="M283.18 399.291L72.8901 300.701L283.18 202.111L493.46 300.701L283.18 399.291Z" fill="#36B37E"/>
<path d="M283.18 399.221L72.8901 300.641L283.18 202.051L493.46 300.641L283.18 399.221Z" fill="#36B37E"/>
<path d="M283.18 399.16L72.8901 300.58L283.18 201.99L493.46 300.58L283.18 399.16Z" fill="#36B37E"/>
<path d="M283.18 399.1L72.8901 300.52L283.18 201.93L493.46 300.52L283.18 399.1Z" fill="#36B37E"/>
<path d="M283.18 399.041L72.8901 300.461L283.18 201.871L493.46 300.461L283.18 399.041Z" fill="#36B37E"/>
<path d="M283.18 398.981L72.8901 300.401L283.18 201.811L493.46 300.401L283.18 398.981Z" fill="#36B37E"/>
<path d="M283.18 398.92L72.8901 300.34L283.18 201.75L493.46 300.34L283.18 398.92Z" fill="#36B37E"/>
<path d="M283.18 398.859L72.8901 300.269L283.18 201.689L493.46 300.269L283.18 398.859Z" fill="#36B37E"/>
<path d="M283.18 398.801L72.8901 300.211L283.18 201.631L493.46 300.211L283.18 398.801Z" fill="#36B37E"/>
<path d="M283.18 398.74L72.8901 300.15L283.18 201.57L493.46 300.15L283.18 398.74Z" fill="#36B37E"/>
<path d="M283.18 398.68L72.8901 300.09L283.18 201.51L493.46 300.09L283.18 398.68Z" fill="#36B37E"/>
<path d="M283.18 398.621L72.8901 300.031L283.18 201.451L493.46 300.031L283.18 398.621Z" fill="#36B37E"/>
<path d="M283.18 398.561L72.8901 299.971L283.18 201.391L493.46 299.971L283.18 398.561Z" fill="#36B37E"/>
<path d="M283.18 398.5L72.8901 299.91L283.18 201.32L493.46 299.91L283.18 398.5Z" fill="#36B37E"/>
<path d="M283.18 398.43L72.8901 299.85L283.18 201.26L493.46 299.85L283.18 398.43Z" fill="#36B37E"/>
<path d="M283.18 398.371L72.8901 299.791L283.18 201.201L493.46 299.791L283.18 398.371Z" fill="#36B37E"/>
<path d="M283.18 398.311L72.8901 299.731L283.18 201.141L493.46 299.731L283.18 398.311Z" fill="#36B37E"/>
<path d="M283.18 398.25L72.8901 299.67L283.18 201.08L493.46 299.67L283.18 398.25Z" fill="#36B37E"/>
<path d="M283.18 398.19L72.8901 299.61L283.18 201.02L493.46 299.61L283.18 398.19Z" fill="#36B37E"/>
<path d="M283.18 398.131L72.8901 299.551L283.18 200.961L493.46 299.551L283.18 398.131Z" fill="#36B37E"/>
<path d="M283.18 398.07L72.8901 299.48L283.18 200.9L493.46 299.48L283.18 398.07Z" fill="#36B37E"/>
<path d="M283.18 398.01L72.8901 299.42L283.18 200.84L493.46 299.42L283.18 398.01Z" fill="#36B37E"/>
<path d="M283.18 397.951L72.8901 299.361L283.18 200.781L493.46 299.361L283.18 397.951Z" fill="#36B37E"/>
<path d="M283.18 397.891L72.8901 299.301L283.18 200.721L493.46 299.301L283.18 397.891Z" fill="#36B37E"/>
<path d="M283.18 397.83L72.8901 299.24L283.18 200.66L493.46 299.24L283.18 397.83Z" fill="#36B37E"/>
<path d="M283.18 397.77L72.8901 299.18L283.18 200.6L493.46 299.18L283.18 397.77Z" fill="#36B37E"/>
<path d="M283.18 397.711L72.8901 299.121L283.18 200.531L493.46 299.121L283.18 397.711Z" fill="#36B37E"/>
<path d="M283.18 397.641L72.8901 299.061L283.18 200.471L493.46 299.061L283.18 397.641Z" fill="#36B37E"/>
<path d="M283.18 397.58L72.8901 299L283.18 200.41L493.46 299L283.18 397.58Z" fill="#36B37E"/>
<path d="M283.18 397.52L72.8901 298.94L283.18 200.35L493.46 298.94L283.18 397.52Z" fill="#36B37E"/>
<path d="M283.18 397.461L72.8901 298.881L283.18 200.291L493.46 298.881L283.18 397.461Z" fill="#36B37E"/>
<path d="M283.18 397.4L72.8901 298.82L283.18 200.23L493.46 298.82L283.18 397.4Z" fill="#36B37E"/>
<path d="M283.18 397.34L72.8901 298.76L283.18 200.17L493.46 298.76L283.18 397.34Z" fill="#36B37E"/>
<path d="M283.18 397.281L72.8901 298.691L283.18 200.111L493.46 298.691L283.18 397.281Z" fill="#36B37E"/>
<path d="M283.18 397.221L72.8901 298.631L283.18 200.051L493.46 298.631L283.18 397.221Z" fill="#36B37E"/>
<path d="M283.18 397.16L72.8901 298.57L283.18 199.99L493.46 298.57L283.18 397.16Z" fill="#36B37E"/>
<path d="M283.18 397.1L72.8901 298.51L283.18 199.93L493.46 298.51L283.18 397.1Z" fill="#36B37E"/>
<path d="M283.18 397.041L72.8901 298.451L283.18 199.871L493.46 298.451L283.18 397.041Z" fill="#36B37E"/>
<path d="M283.18 396.981L72.8901 298.391L283.18 199.811L493.46 298.391L283.18 396.981Z" fill="#36B37E"/>
<path d="M283.18 396.92L72.8901 298.33L283.18 199.74L493.46 298.33L283.18 396.92Z" fill="#36B37E"/>
<path d="M283.18 396.85L72.8901 298.27L283.18 199.68L493.46 298.27L283.18 396.85Z" fill="#36B37E"/>
<path d="M283.18 396.791L72.8901 298.211L283.18 199.621L493.46 298.211L283.18 396.791Z" fill="#36B37E"/>
<path d="M283.18 396.731L72.8901 298.151L283.18 199.561L493.46 298.151L283.18 396.731Z" fill="#36B37E"/>
<path d="M283.18 396.67L72.8901 298.09L283.18 199.5L493.46 298.09L283.18 396.67Z" fill="#36B37E"/>
<path d="M283.18 396.609L72.8901 298.029L283.18 199.439L493.46 298.029L283.18 396.609Z" fill="#36B37E"/>
<path d="M283.18 396.551L72.8901 297.971L283.18 199.381L493.46 297.971L283.18 396.551Z" fill="#36B37E"/>
<path d="M283.18 396.49L72.8901 297.9L283.18 199.32L493.46 297.9L283.18 396.49Z" fill="#36B37E"/>
<path d="M283.18 396.43L72.8901 297.84L283.18 199.26L493.46 297.84L283.18 396.43Z" fill="#36B37E"/>
<path d="M283.18 396.371L72.8901 297.781L283.18 199.201L493.46 297.781L283.18 396.371Z" fill="#36B37E"/>
<path d="M283.18 396.311L72.8901 297.721L283.18 199.141L493.46 297.721L283.18 396.311Z" fill="#36B37E"/>
<path d="M283.18 396.25L72.8901 297.66L283.18 199.08L493.46 297.66L283.18 396.25Z" fill="#36B37E"/>
<path d="M283.18 396.19L72.8901 297.6L283.18 199.02L493.46 297.6L283.18 396.19Z" fill="#36B37E"/>
<path d="M283.18 396.131L72.8901 297.541L283.18 198.951L493.46 297.541L283.18 396.131Z" fill="#36B37E"/>
<path d="M283.18 396.061L72.8901 297.481L283.18 198.891L493.46 297.481L283.18 396.061Z" fill="#36B37E"/>
<path d="M283.18 396L72.8901 297.42L283.18 198.83L493.46 297.42L283.18 396Z" fill="#36B37E"/>
<path d="M283.18 395.94L72.8901 297.36L283.18 198.77L493.46 297.36L283.18 395.94Z" fill="#36B37E"/>
<path d="M283.18 395.881L72.8901 297.301L283.18 198.711L493.46 297.301L283.18 395.881Z" fill="#36B37E"/>
<path d="M283.18 395.82L72.8901 297.24L283.18 198.65L493.46 297.24L283.18 395.82Z" fill="#36B37E"/>
<path d="M283.18 395.82L72.8901 297.24L283.18 198.65L493.46 297.24L283.18 395.82Z" fill="url(#paint6_linear)"/>
<path d="M456.36 314.629L459.64 313.089C459.57 312.489 459.2 311.939 458.61 311.659L427.43 297.039L458.61 282.419C459.08 282.199 459.41 281.799 459.56 281.349L455.94 279.649L423.13 295.029L392.57 280.699L424.27 265.839C424.6 265.689 424.86 265.449 425.04 265.159L421.09 263.309L388.28 278.689L357.72 264.359L389.93 249.259C390.11 249.169 390.27 249.059 390.41 248.929L386.23 246.969L353.42 262.349L322.86 248.019L355.59 232.679C355.61 232.669 355.64 232.649 355.66 232.639L351.38 230.629L318.57 246.009L288.01 231.679L320.82 216.299L316.53 214.289L283.72 229.669L250.37 214.029L246.09 216.039C246.13 216.059 246.16 216.079 246.19 216.099L279.43 231.679L248.87 246.009L215.51 230.369L211.35 232.319C211.49 232.459 211.66 232.589 211.85 232.679L244.58 248.019L214.02 262.349L180.66 246.709L176.73 248.549C176.91 248.849 177.18 249.099 177.51 249.259L209.72 264.359L179.16 278.689L145.8 263.049L142.21 264.729C142.36 265.199 142.69 265.609 143.17 265.839L174.87 280.699L144.31 295.029L110.95 279.389L107.79 280.869C107.83 281.519 108.2 282.129 108.83 282.419L140.01 297.039L108.83 311.659C108.07 312.019 107.68 312.829 107.81 313.609L110.53 314.879L144.31 299.039L174.87 313.369L143.17 328.229C142.57 328.509 142.2 329.079 142.14 329.689L145.39 331.209L179.17 315.369L209.73 329.699L177.52 344.799C177.07 345.009 176.74 345.389 176.58 345.829L180.25 347.549L214.03 331.709L244.59 346.039L211.86 361.379C211.55 361.529 211.3 361.749 211.12 362.019L215.1 363.889L248.88 348.049L279.44 362.379L246.2 377.959C246.03 378.039 245.89 378.139 245.76 378.259L249.95 380.229L283.73 364.389L316.95 379.969L321.24 377.959L288.02 362.379L318.58 348.049L351.8 363.629L356.01 361.659C355.89 361.549 355.75 361.459 355.6 361.389L322.87 346.049L353.43 331.719L386.65 347.299L390.65 345.429C390.47 345.169 390.23 344.959 389.93 344.819L357.72 329.719L388.28 315.389L421.5 330.969L425.19 329.239C425.03 328.819 424.71 328.449 424.26 328.239L392.56 313.379L423.12 299.049L456.36 314.629ZM383.99 280.699L353.43 295.029L322.87 280.699L353.43 266.369L383.99 280.699ZM279.43 297.039L248.87 311.369L218.31 297.039L248.87 282.709L279.43 297.039ZM253.17 280.699L283.73 266.369L314.29 280.699L283.73 295.029L253.17 280.699ZM283.73 299.049L314.29 313.379L283.73 327.709L253.17 313.379L283.73 299.049ZM288.02 297.039L318.58 282.709L349.14 297.039L318.58 311.369L288.02 297.039ZM349.14 264.359L318.58 278.689L288.02 264.359L318.58 250.029L349.14 264.359ZM283.73 233.699L314.29 248.029L283.73 262.359L253.17 248.029L283.73 233.699ZM248.88 250.039L279.44 264.369L248.88 278.699L218.32 264.369L248.88 250.039ZM214.03 266.369L244.59 280.699L214.03 295.029L183.47 280.699L214.03 266.369ZM148.62 297.039L179.18 282.709L209.74 297.039L179.18 311.369L148.62 297.039ZM183.47 313.379L214.03 299.049L244.59 313.379L214.03 327.709L183.47 313.379ZM218.32 329.719L248.88 315.389L279.44 329.719L248.88 344.049L218.32 329.719ZM283.73 360.379L253.17 346.049L283.73 331.719L314.29 346.049L283.73 360.379ZM318.58 344.039L288.02 329.709L318.58 315.379L349.14 329.709L318.58 344.039ZM353.43 327.709L322.87 313.379L353.43 299.049L383.99 313.379L353.43 327.709ZM388.28 311.369L357.72 297.039L388.28 282.709L418.84 297.039L388.28 311.369Z" fill="#36B37E"/>
<path opacity="0.5" d="M141.51 265.06L283.73 331.73L425.39 265.33L283.18 198.65L141.51 265.06Z" fill="#00875A"/>
<path d="M283.18 303.272L72.8901 204.692L283.18 106.102L493.46 204.692L283.18 303.272Z" fill="#0065FF"/>
<path d="M283.18 303.211L72.8901 204.631L283.18 106.041L493.46 204.631L283.18 303.211Z" fill="#0065FF"/>
<path d="M283.18 303.15L72.8901 204.57L283.18 105.98L493.46 204.57L283.18 303.15Z" fill="#0065FF"/>
<path d="M283.18 303.09L72.8901 204.51L283.18 105.92L493.46 204.51L283.18 303.09Z" fill="#0065FF"/>
<path d="M283.18 303.031L72.8901 204.451L283.18 105.861L493.46 204.451L283.18 303.031Z" fill="#0065FF"/>
<path d="M283.18 302.971L72.8901 204.391L283.18 105.801L493.46 204.391L283.18 302.971Z" fill="#0065FF"/>
<path d="M283.18 302.91L72.8901 204.32L283.18 105.74L493.46 204.32L283.18 302.91Z" fill="#0065FF"/>
<path d="M283.18 302.852L72.8901 204.262L283.18 105.682L493.46 204.262L283.18 302.852Z" fill="#0065FF"/>
<path d="M283.18 302.791L72.8901 204.201L283.18 105.621L493.46 204.201L283.18 302.791Z" fill="#0065FF"/>
<path d="M283.18 302.731L72.8901 204.141L283.18 105.561L493.46 204.141L283.18 302.731Z" fill="#0065FF"/>
<path d="M283.18 302.67L72.8901 204.08L283.18 105.5L493.46 204.08L283.18 302.67Z" fill="#0065FF"/>
<path d="M283.18 302.611L72.8901 204.021L283.18 105.441L493.46 204.021L283.18 302.611Z" fill="#0065FF"/>
<path d="M283.18 302.551L72.8901 203.961L283.18 105.371L493.46 203.961L283.18 302.551Z" fill="#0065FF"/>
<path d="M283.18 302.481L72.8901 203.901L283.18 105.311L493.46 203.901L283.18 302.481Z" fill="#0065FF"/>
<path d="M283.18 302.42L72.8901 203.84L283.18 105.25L493.46 203.84L283.18 302.42Z" fill="#0065FF"/>
<path d="M283.18 302.361L72.8901 203.781L283.18 105.191L493.46 203.781L283.18 302.361Z" fill="#0065FF"/>
<path d="M283.18 302.301L72.8901 203.721L283.18 105.131L493.46 203.721L283.18 302.301Z" fill="#0065FF"/>
<path d="M283.18 302.24L72.8901 203.66L283.18 105.07L493.46 203.66L283.18 302.24Z" fill="#0065FF"/>
<path d="M283.18 302.182L72.8901 203.602L283.18 105.012L493.46 203.602L283.18 302.182Z" fill="#0065FF"/>
<path d="M283.18 302.121L72.8901 203.531L283.18 104.951L493.46 203.531L283.18 302.121Z" fill="#0065FF"/>
<path d="M283.18 302.061L72.8901 203.471L283.18 104.891L493.46 203.471L283.18 302.061Z" fill="#0065FF"/>
<path d="M283.18 302L72.8901 203.41L283.18 104.83L493.46 203.41L283.18 302Z" fill="#0065FF"/>
<path d="M283.18 301.941L72.8901 203.351L283.18 104.771L493.46 203.351L283.18 301.941Z" fill="#0065FF"/>
<path d="M283.18 301.881L72.8901 203.291L283.18 104.711L493.46 203.291L283.18 301.881Z" fill="#0065FF"/>
<path d="M283.18 301.82L72.8901 203.23L283.18 104.65L493.46 203.23L283.18 301.82Z" fill="#0065FF"/>
<path d="M283.18 301.76L72.8901 203.17L283.18 104.58L493.46 203.17L283.18 301.76Z" fill="#0065FF"/>
<path d="M283.18 301.691L72.8901 203.111L283.18 104.521L493.46 203.111L283.18 301.691Z" fill="#0065FF"/>
<path d="M283.18 301.631L72.8901 203.051L283.18 104.461L493.46 203.051L283.18 301.631Z" fill="#0065FF"/>
<path d="M283.18 301.57L72.8901 202.99L283.18 104.4L493.46 202.99L283.18 301.57Z" fill="#0065FF"/>
<path d="M283.18 301.51L72.8901 202.93L283.18 104.34L493.46 202.93L283.18 301.51Z" fill="#0065FF"/>
<path d="M283.18 301.451L72.8901 202.871L283.18 104.281L493.46 202.871L283.18 301.451Z" fill="#0065FF"/>
<path d="M283.18 301.391L72.8901 202.811L283.18 104.221L493.46 202.811L283.18 301.391Z" fill="#0065FF"/>
<path d="M283.18 301.33L72.8901 202.74L283.18 104.16L493.46 202.74L283.18 301.33Z" fill="#0065FF"/>
<path d="M283.18 301.272L72.8901 202.682L283.18 104.102L493.46 202.682L283.18 301.272Z" fill="#0065FF"/>
<path d="M283.18 301.211L72.8901 202.621L283.18 104.041L493.46 202.621L283.18 301.211Z" fill="#0065FF"/>
<path d="M283.18 301.15L72.8901 202.56L283.18 103.98L493.46 202.56L283.18 301.15Z" fill="#0065FF"/>
<path d="M283.18 301.09L72.8901 202.5L283.18 103.92L493.46 202.5L283.18 301.09Z" fill="#0065FF"/>
<path d="M283.18 301.031L72.8901 202.441L283.18 103.861L493.46 202.441L283.18 301.031Z" fill="#0065FF"/>
<path d="M283.18 300.971L72.8901 202.381L283.18 103.791L493.46 202.381L283.18 300.971Z" fill="#0065FF"/>
<path d="M283.18 300.9L72.8901 202.32L283.18 103.73L493.46 202.32L283.18 300.9Z" fill="#0065FF"/>
<path d="M283.18 300.84L72.8901 202.26L283.18 103.67L493.46 202.26L283.18 300.84Z" fill="#0065FF"/>
<path d="M283.18 300.781L72.8901 202.201L283.18 103.611L493.46 202.201L283.18 300.781Z" fill="#0065FF"/>
<path d="M283.18 300.721L72.8901 202.141L283.18 103.551L493.46 202.141L283.18 300.721Z" fill="#0065FF"/>
<path d="M283.18 300.66L72.8901 202.08L283.18 103.49L493.46 202.08L283.18 300.66Z" fill="#0065FF"/>
<path d="M283.18 300.602L72.8901 202.022L283.18 103.432L493.46 202.022L283.18 300.602Z" fill="#0065FF"/>
<path d="M283.18 300.541L72.8901 201.951L283.18 103.371L493.46 201.951L283.18 300.541Z" fill="#0065FF"/>
<path d="M283.18 300.481L72.8901 201.891L283.18 103.311L493.46 201.891L283.18 300.481Z" fill="#0065FF"/>
<path d="M283.18 300.42L72.8901 201.83L283.18 103.25L493.46 201.83L283.18 300.42Z" fill="#0065FF"/>
<path d="M283.18 300.361L72.8901 201.771L283.18 103.191L493.46 201.771L283.18 300.361Z" fill="#0065FF"/>
<path d="M283.18 300.301L72.8901 201.711L283.18 103.131L493.46 201.711L283.18 300.301Z" fill="#0065FF"/>
<path d="M283.18 300.24L72.8901 201.65L283.18 103.07L493.46 201.65L283.18 300.24Z" fill="#0065FF"/>
<path d="M283.18 300.18L72.8901 201.59L283.18 103L493.46 201.59L283.18 300.18Z" fill="#0065FF"/>
<path d="M283.18 300.111L72.8901 201.531L283.18 102.941L493.46 201.531L283.18 300.111Z" fill="#0065FF"/>
<path d="M283.18 300.051L72.8901 201.471L283.18 102.881L493.46 201.471L283.18 300.051Z" fill="#0065FF"/>
<path d="M283.18 299.99L72.8901 201.41L283.18 102.82L493.46 201.41L283.18 299.99Z" fill="#0065FF"/>
<path d="M283.18 299.932L72.8901 201.352L283.18 102.762L493.46 201.352L283.18 299.932Z" fill="#0065FF"/>
<path d="M283.18 299.871L72.8901 201.291L283.18 102.701L493.46 201.291L283.18 299.871Z" fill="#0065FF"/>
<path d="M283.18 299.811L72.8901 201.231L283.18 102.641L493.46 201.231L283.18 299.811Z" fill="#0065FF"/>
<path d="M283.18 299.75L72.8901 201.16L283.18 102.58L493.46 201.16L283.18 299.75Z" fill="#0065FF"/>
<path d="M283.18 299.691L72.8901 201.101L283.18 102.521L493.46 201.101L283.18 299.691Z" fill="#0065FF"/>
<path d="M283.18 299.631L72.8901 201.041L283.18 102.461L493.46 201.041L283.18 299.631Z" fill="#0065FF"/>
<path d="M283.18 299.57L72.8901 200.98L283.18 102.4L493.46 200.98L283.18 299.57Z" fill="#0065FF"/>
<path d="M283.18 299.51L72.8901 200.92L283.18 102.34L493.46 200.92L283.18 299.51Z" fill="#0065FF"/>
<path d="M283.18 299.451L72.8901 200.861L283.18 102.281L493.46 200.861L283.18 299.451Z" fill="#0065FF"/>
<path d="M283.18 299.391L72.8901 200.801L283.18 102.211L493.46 200.801L283.18 299.391Z" fill="#0065FF"/>
<path d="M283.18 299.32L72.8901 200.74L283.18 102.15L493.46 200.74L283.18 299.32Z" fill="#0065FF"/>
<path d="M283.18 299.26L72.8901 200.68L283.18 102.09L493.46 200.68L283.18 299.26Z" fill="#0065FF"/>
<path d="M283.18 299.201L72.8901 200.621L283.18 102.031L493.46 200.621L283.18 299.201Z" fill="#0065FF"/>
<path d="M283.18 299.141L72.8901 200.561L283.18 101.971L493.46 200.561L283.18 299.141Z" fill="#0065FF"/>
<path d="M283.18 299.08L72.8901 200.5L283.18 101.91L493.46 200.5L283.18 299.08Z" fill="#0065FF"/>
<path d="M283.18 299.022L72.8901 200.442L283.18 101.852L493.46 200.442L283.18 299.022Z" fill="#0065FF"/>
<path d="M283.18 298.961L72.8901 200.371L283.18 101.791L493.46 200.371L283.18 298.961Z" fill="#0065FF"/>
<path d="M283.18 298.9L72.8901 200.31L283.18 101.73L493.46 200.31L283.18 298.9Z" fill="#0065FF"/>
<path d="M283.18 298.84L72.8901 200.25L283.18 101.67L493.46 200.25L283.18 298.84Z" fill="#0065FF"/>
<path d="M283.18 298.781L72.8901 200.191L283.18 101.611L493.46 200.191L283.18 298.781Z" fill="#0065FF"/>
<path d="M283.18 298.721L72.8901 200.131L283.18 101.551L493.46 200.131L283.18 298.721Z" fill="#0065FF"/>
<path d="M283.18 298.721L72.8901 200.131L283.18 101.551L493.46 200.131L283.18 298.721Z" fill="url(#paint7_linear)"/>
<path d="M355 232.701L262.99 275.831" stroke="#79F2C0" stroke-width="3.6459" stroke-miterlimit="10" stroke-linecap="round"/>
<path d="M327.01 226.902L242.81 266.372" stroke="#0065FF" stroke-width="3.6459" stroke-miterlimit="10" stroke-linecap="round"/>
<path d="M369.52 206.961L335.44 222.941" stroke="#FFC400" stroke-width="3.6459" stroke-miterlimit="10" stroke-linecap="round"/>
<path d="M359.7 192.641L222.62 256.911" stroke="#0065FF" stroke-width="3.6459" stroke-miterlimit="10" stroke-linecap="round"/>
<path d="M360.31 153.771L331.16 167.441" stroke="#0065FF" stroke-width="3.6459" stroke-miterlimit="10" stroke-linecap="round"/>
<path d="M232.29 233.451L202.44 247.441" stroke="#57D9A3" stroke-width="3.6459" stroke-miterlimit="10" stroke-linecap="round"/>
<path d="M293.84 204.602L241.23 229.262" stroke="#0065FF" stroke-width="3.6459" stroke-miterlimit="10" stroke-linecap="round"/>
<path d="M320.82 173.021L182.26 237.981" stroke="#0065FF" stroke-width="3.6459" stroke-miterlimit="10" stroke-linecap="round"/>
<path d="M277 174.641L162.07 228.521" stroke="#0065FF" stroke-width="3.6459" stroke-miterlimit="10" stroke-linecap="round"/>
<path d="M259.78 163.791L141.89 219.061" stroke="#0065FF" stroke-width="3.6459" stroke-miterlimit="10" stroke-linecap="round"/>
<path d="M149.34 196.641L121.71 209.591" stroke="#57D9A3" stroke-width="3.6459" stroke-miterlimit="10" stroke-linecap="round"/>
<path d="M186.8 179.082L159.43 191.912" stroke="#FFC400" stroke-width="3.6459" stroke-miterlimit="10" stroke-linecap="round"/>
<path opacity="0.5" d="M147.26 165.271L284.83 229.771L420.75 166.051L283.18 101.551L147.26 165.271Z" fill="#0052CC"/>
<path d="M283.18 201.731L72.8901 103.141L283.18 4.56055L493.46 103.141L283.18 201.731Z" fill="#0065FF"/>
<path d="M283.18 201.67L72.8901 103.08L283.18 4.5L493.46 103.08L283.18 201.67Z" fill="#0065FF"/>
<path d="M283.18 201.609L72.8901 103.019L283.18 4.43945L493.46 103.019L283.18 201.609Z" fill="#0065FF"/>
<path d="M283.18 201.551L72.8901 102.961L283.18 4.38086L493.46 102.961L283.18 201.551Z" fill="#0065FF"/>
<path d="M283.18 201.491L72.8901 102.901L283.18 4.31055L493.46 102.901L283.18 201.491Z" fill="#0065FF"/>
<path d="M283.18 201.42L72.8901 102.84L283.18 4.25L493.46 102.84L283.18 201.42Z" fill="#0065FF"/>
<path d="M283.18 201.359L72.8901 102.779L283.18 4.18945L493.46 102.779L283.18 201.359Z" fill="#0065FF"/>
<path d="M283.18 201.301L72.8901 102.721L283.18 4.13086L493.46 102.721L283.18 201.301Z" fill="#0065FF"/>
<path d="M283.18 201.24L72.8901 102.66L283.18 4.07031L493.46 102.66L283.18 201.24Z" fill="#0065FF"/>
<path d="M283.18 201.18L72.8901 102.6L283.18 4.00977L493.46 102.6L283.18 201.18Z" fill="#0065FF"/>
<path d="M283.18 201.119L72.8901 102.539L283.18 3.94922L493.46 102.539L283.18 201.119Z" fill="#0065FF"/>
<path d="M283.18 201.061L72.8901 102.471L283.18 3.89062L493.46 102.471L283.18 201.061Z" fill="#0065FF"/>
<path d="M283.18 201L72.8901 102.41L283.18 3.83008L493.46 102.41L283.18 201Z" fill="#0065FF"/>
<path d="M283.18 200.94L72.8901 102.35L283.18 3.76953L493.46 102.35L283.18 200.94Z" fill="#0065FF"/>
<path d="M283.18 200.881L72.8901 102.291L283.18 3.71094L493.46 102.291L283.18 200.881Z" fill="#0065FF"/>
<path d="M283.18 200.82L72.8901 102.23L283.18 3.65039L493.46 102.23L283.18 200.82Z" fill="#0065FF"/>
<path d="M283.18 200.76L72.8901 102.17L283.18 3.58984L493.46 102.17L283.18 200.76Z" fill="#0065FF"/>
<path d="M283.18 200.7L72.8901 102.11L283.18 3.51953L493.46 102.11L283.18 200.7Z" fill="#0065FF"/>
<path d="M283.18 200.631L72.8901 102.051L283.18 3.46094L493.46 102.051L283.18 200.631Z" fill="#0065FF"/>
<path d="M283.18 200.57L72.8901 101.99L283.18 3.40039L493.46 101.99L283.18 200.57Z" fill="#0065FF"/>
<path d="M283.18 200.51L72.8901 101.93L283.18 3.33984L493.46 101.93L283.18 200.51Z" fill="#0065FF"/>
<path d="M283.18 200.449L72.8901 101.869L283.18 3.2793L493.46 101.869L283.18 200.449Z" fill="#0065FF"/>
<path d="M283.18 200.391L72.8901 101.811L283.18 3.2207L493.46 101.811L283.18 200.391Z" fill="#0065FF"/>
<path d="M283.18 200.33L72.8901 101.75L283.18 3.16016L493.46 101.75L283.18 200.33Z" fill="#0065FF"/>
<path d="M283.18 200.27L72.8901 101.68L283.18 3.09961L493.46 101.68L283.18 200.27Z" fill="#0065FF"/>
<path d="M283.18 200.209L72.8901 101.619L283.18 3.03906L493.46 101.619L283.18 200.209Z" fill="#0065FF"/>
<path d="M283.18 200.15L72.8901 101.56L283.18 2.98047L493.46 101.56L283.18 200.15Z" fill="#0065FF"/>
<path d="M283.18 200.09L72.8901 101.5L283.18 2.91992L493.46 101.5L283.18 200.09Z" fill="#0065FF"/>
<path d="M283.18 200.029L72.8901 101.439L283.18 2.85938L493.46 101.439L283.18 200.029Z" fill="#0065FF"/>
<path d="M283.18 199.971L72.8901 101.381L283.18 2.80078L493.46 101.381L283.18 199.971Z" fill="#0065FF"/>
<path d="M283.18 199.91L72.8901 101.32L283.18 2.73047L493.46 101.32L283.18 199.91Z" fill="#0065FF"/>
<path d="M283.18 199.84L72.8901 101.26L283.18 2.66992L493.46 101.26L283.18 199.84Z" fill="#0065FF"/>
<path d="M283.18 199.779L72.8901 101.199L283.18 2.60938L493.46 101.199L283.18 199.779Z" fill="#0065FF"/>
<path d="M283.18 199.721L72.8901 101.141L283.18 2.55078L493.46 101.141L283.18 199.721Z" fill="#0065FF"/>
<path d="M283.18 199.66L72.8901 101.08L283.18 2.49023L493.46 101.08L283.18 199.66Z" fill="#0065FF"/>
<path d="M283.18 199.6L72.8901 101.02L283.18 2.42969L493.46 101.02L283.18 199.6Z" fill="#0065FF"/>
<path d="M283.18 199.539L72.8901 100.959L283.18 2.36914L493.46 100.959L283.18 199.539Z" fill="#0065FF"/>
<path d="M283.18 199.481L72.8901 100.891L283.18 2.31055L493.46 100.891L283.18 199.481Z" fill="#0065FF"/>
<path d="M283.18 199.42L72.8901 100.83L283.18 2.25L493.46 100.83L283.18 199.42Z" fill="#0065FF"/>
<path d="M283.18 199.359L72.8901 100.769L283.18 2.18945L493.46 100.769L283.18 199.359Z" fill="#0065FF"/>
<path d="M283.18 199.301L72.8901 100.711L283.18 2.13086L493.46 100.711L283.18 199.301Z" fill="#0065FF"/>
<path d="M283.18 199.24L72.8901 100.65L283.18 2.07031L493.46 100.65L283.18 199.24Z" fill="#0065FF"/>
<path d="M283.18 199.18L72.8901 100.59L283.18 2.00977L493.46 100.59L283.18 199.18Z" fill="#0065FF"/>
<path d="M283.18 199.119L72.8901 100.529L283.18 1.93945L493.46 100.529L283.18 199.119Z" fill="#0065FF"/>
<path d="M283.18 199.051L72.8901 100.471L283.18 1.88086L493.46 100.471L283.18 199.051Z" fill="#0065FF"/>
<path d="M283.18 198.99L72.8901 100.41L283.18 1.82031L493.46 100.41L283.18 198.99Z" fill="#0065FF"/>
<path d="M283.18 198.93L72.8901 100.35L283.18 1.75977L493.46 100.35L283.18 198.93Z" fill="#0065FF"/>
<path d="M283.18 198.869L72.8901 100.289L283.18 1.69922L493.46 100.289L283.18 198.869Z" fill="#0065FF"/>
<path d="M283.18 198.811L72.8901 100.231L283.18 1.64062L493.46 100.231L283.18 198.811Z" fill="#0065FF"/>
<path d="M283.18 198.75L72.8901 100.17L283.18 1.58008L493.46 100.17L283.18 198.75Z" fill="#0065FF"/>
<path d="M283.18 198.69L72.8901 100.1L283.18 1.51953L493.46 100.1L283.18 198.69Z" fill="#0065FF"/>
<path d="M283.18 198.631L72.8901 100.041L283.18 1.46094L493.46 100.041L283.18 198.631Z" fill="#0065FF"/>
<path d="M283.18 198.57L72.8901 99.9804L283.18 1.40039L493.46 99.9804L283.18 198.57Z" fill="#0065FF"/>
<path d="M283.18 198.51L72.8901 99.9198L283.18 1.33984L493.46 99.9198L283.18 198.51Z" fill="#0065FF"/>
<path d="M283.18 198.449L72.8901 99.8593L283.18 1.2793L493.46 99.8593L283.18 198.449Z" fill="#0065FF"/>
<path d="M283.18 198.391L72.8901 99.8007L283.18 1.2207L493.46 99.8007L283.18 198.391Z" fill="#0065FF"/>
<path d="M283.18 198.33L72.8901 99.7404L283.18 1.15039L493.46 99.7404L283.18 198.33Z" fill="#0065FF"/>
<path d="M283.18 198.26L72.8901 99.6798L283.18 1.08984L493.46 99.6798L283.18 198.26Z" fill="#0065FF"/>
<path d="M283.18 198.199L72.8901 99.6193L283.18 1.0293L493.46 99.6193L283.18 198.199Z" fill="#0065FF"/>
<path d="M283.18 198.141L72.8901 99.5607L283.18 0.970703L493.46 99.5607L283.18 198.141Z" fill="#0065FF"/>
<path d="M283.18 198.08L72.8901 99.5002L283.18 0.910156L493.46 99.5002L283.18 198.08Z" fill="#0065FF"/>
<path d="M283.18 198.02L72.8901 99.4396L283.18 0.849609L493.46 99.4396L283.18 198.02Z" fill="#0065FF"/>
<path d="M283.18 197.959L72.8901 99.3791L283.18 0.789062L493.46 99.3791L283.18 197.959Z" fill="#0065FF"/>
<path d="M283.18 197.9L72.8901 99.3105L283.18 0.730469L493.46 99.3105L283.18 197.9Z" fill="#0065FF"/>
<path d="M283.18 197.84L72.8901 99.2499L283.18 0.669922L493.46 99.2499L283.18 197.84Z" fill="#0065FF"/>
<path d="M283.18 197.779L72.8901 99.1894L283.18 0.609375L493.46 99.1894L283.18 197.779Z" fill="#0065FF"/>
<path d="M283.18 197.721L72.8901 99.1308L283.18 0.550781L493.46 99.1308L283.18 197.721Z" fill="#0065FF"/>
<path d="M283.18 197.66L72.8901 99.0702L283.18 0.490234L493.46 99.0702L283.18 197.66Z" fill="#0065FF"/>
<path d="M283.18 197.6L72.8901 99.0097L283.18 0.429688L493.46 99.0097L283.18 197.6Z" fill="#0065FF"/>
<path d="M283.18 197.539L72.8901 98.9494L283.18 0.359375L493.46 98.9494L283.18 197.539Z" fill="#0065FF"/>
<path d="M283.18 197.471L72.8901 98.8908L283.18 0.300781L493.46 98.8908L283.18 197.471Z" fill="#0065FF"/>
<path d="M283.18 197.41L72.8901 98.8302L283.18 0.240234L493.46 98.8302L283.18 197.41Z" fill="#0065FF"/>
<path d="M283.18 197.35L72.8901 98.7697L283.18 0.179688L493.46 98.7697L283.18 197.35Z" fill="#0065FF"/>
<path d="M283.18 197.289L72.8901 98.7091L283.18 0.119141L493.46 98.7091L283.18 197.289Z" fill="#0065FF"/>
<path d="M283.18 197.231L72.8901 98.6506L283.18 0.0605469L493.46 98.6506L283.18 197.231Z" fill="#0065FF"/>
<path d="M283.18 197.17L72.8901 98.59L283.18 0L493.46 98.59L283.18 197.17Z" fill="#0065FF"/>
<path d="M283.18 197.17L72.8901 98.59L283.18 0L493.46 98.59L283.18 197.17Z" fill="url(#paint8_linear)"/>
<path d="M212.64 114.999L140.23 81.0594L212.64 47.1094L285.04 81.0594L212.64 114.999Z" fill="white"/>
<path d="M222.96 42.2699L285.04 13.1699" stroke="#B3BAC5" stroke-width="3.6459" stroke-miterlimit="10"/>
<path d="M234.04 47.1098L296.11 18.0098" stroke="#B3BAC5" stroke-width="3.6459" stroke-miterlimit="10"/>
<path d="M245.11 51.9496L307.19 22.8496" stroke="#B3BAC5" stroke-width="3.6459" stroke-miterlimit="10"/>
<path d="M256.19 56.7894L294.45 38.8594" stroke="#B3BAC5" stroke-width="3.6459" stroke-miterlimit="10"/>
<path d="M304.86 84.0609L366.94 54.9609" stroke="#FFC400" stroke-width="3.6459" stroke-miterlimit="10"/>
<path d="M315.94 88.9008L378.01 59.8008" stroke="#FFC400" stroke-width="3.6459" stroke-miterlimit="10"/>
<path d="M327.01 93.7506L389.09 64.6406" stroke="#B3BAC5" stroke-width="3.6459" stroke-miterlimit="10"/>
<path d="M338.09 98.5897L367.76 84.6797" stroke="#B3BAC5" stroke-width="3.6459" stroke-miterlimit="10"/>
<path d="M320.82 179.641L110.54 81.0605L72.8901 98.5905L283.18 197.171L320.82 179.641Z" fill="#0065FF"/>
<path d="M297.17 156.23L224.72 122.39L297.07 88.3398L369.52 122.18L297.17 156.23Z" fill="white"/>
<path d="M259.78 126.529C265.088 126.529 269.39 124.497 269.39 121.989C269.39 119.482 265.088 117.449 259.78 117.449C254.473 117.449 250.17 119.482 250.17 121.989C250.17 124.497 254.473 126.529 259.78 126.529Z" fill="#FFC400"/>
<path d="M239.49 82.7095C246.465 82.7095 252.12 80.0367 252.12 76.7395C252.12 73.4424 246.465 70.7695 239.49 70.7695C232.515 70.7695 226.86 73.4424 226.86 76.7395C226.86 80.0367 232.515 82.7095 239.49 82.7095Z" fill="#0065FF"/>
<path d="M288.89 142.39L290.16 121.18L328.01 123.9L288.89 142.39Z" fill="#4F6079"/>
<path d="M309.1 132.799L310.01 117.449L337.41 119.409L309.1 132.799Z" fill="#4F6079"/>
<path d="M188.05 83.9203L188.96 68.5703L216.36 70.5403L188.05 83.9203Z" fill="#FFC400"/>
<path d="M212.28 102.779L192.36 93.4394L212.28 84.1094L232.2 93.4394L212.28 102.779Z" fill="#57D9A3"/>
<path d="M423.72 232.931L452.14 219.611" stroke="#344563" stroke-width="3.2521" stroke-miterlimit="10" stroke-linecap="round"/>
<path d="M430 249.271L458.42 235.951" stroke="#344563" stroke-width="3.2521" stroke-miterlimit="10" stroke-linecap="round"/>
<path d="M436.27 265.611L464.7 252.291" stroke="#344563" stroke-width="3.2521" stroke-miterlimit="10" stroke-linecap="round"/>
<path d="M442.55 281.951L470.97 268.631" stroke="#344563" stroke-width="3.2521" stroke-miterlimit="10" stroke-linecap="round"/>
<path d="M448.83 298.291L477.25 284.971" stroke="#344563" stroke-width="3.2521" stroke-miterlimit="10" stroke-linecap="round"/>
<path d="M455.1 314.631L483.52 301.301" stroke="#344563" stroke-width="3.2521" stroke-miterlimit="10" stroke-linecap="round"/>
<path d="M461.38 330.971L489.8 317.641" stroke="#344563" stroke-width="3.2521" stroke-miterlimit="10" stroke-linecap="round"/>
<path d="M467.66 347.31L496.08 333.98" stroke="#344563" stroke-width="3.2521" stroke-miterlimit="10" stroke-linecap="round"/>
<path d="M473.93 363.652L502.35 350.322" stroke="#344563" stroke-width="3.2521" stroke-miterlimit="10" stroke-linecap="round"/>
<path d="M454.76 277.461C455.3 277.881 456.51 278.691 458.36 279.021C459.75 279.271 460.93 279.161 461.63 279.041C461.16 281.621 460.66 283.691 460.29 285.101C459.51 288.121 458.78 290.221 458.8 293.371C458.8 294.051 458.84 294.601 458.87 294.961L455.36 295.251C455.15 295.091 454.94 294.931 454.73 294.761C454.44 294.961 454.14 295.151 453.85 295.351L444.94 296.131C444.38 296.181 443.95 295.771 444.08 295.321L447.55 294.091C451.16 292.811 453.62 289.941 453.85 286.741C454 284.601 454.2 282.241 454.39 280.541C454.5 279.501 454.63 278.471 454.76 277.461Z" fill="#172B4D"/>
<path d="M418.88 220.33L477.87 373.98" stroke="#344563" stroke-width="3.2521" stroke-miterlimit="10" stroke-linecap="round"/>
<path d="M447.69 208L506.15 360.28" stroke="#344563" stroke-width="3.2521" stroke-miterlimit="10" stroke-linecap="round"/>
<path d="M415.71 199.38L435.98 180.84" stroke="#0065FF" stroke-width="3.8831" stroke-miterlimit="10" stroke-linecap="round"/>
<path d="M466.41 196.032C466.22 196.682 466.86 197.152 466.9 198.622C466.93 199.632 466.66 200.472 466.41 201.042C470.31 202.542 473.62 202.672 474.47 201.322C474.83 200.752 474.8 199.852 474.75 198.722C474.7 197.452 474.66 196.422 474.13 195.682C472.56 193.462 466.91 194.312 466.41 196.032Z" fill="#72594B"/>
<path d="M479.09 225.622C478.93 225.192 478.73 224.712 478.45 224.202C478.13 223.592 477.77 223.052 477.44 222.602C477.09 222.672 476.53 222.772 475.81 222.852C475.19 222.912 474.71 222.932 474.45 222.942C472.98 223.032 470.13 223.152 462.24 223.202C461.9 223.562 461.42 224.112 460.93 224.812C459.15 227.342 458.68 229.702 458.5 230.712C455.4 247.672 455.25 254.092 455.25 254.092C455.17 256.582 455.11 259.092 455.05 261.612C454.92 266.942 454.83 272.232 454.77 277.472C455.48 277.962 456.7 278.682 458.37 279.032C459.54 279.282 460.39 279.462 461.19 279.112C461.94 278.792 462.66 278.002 463.67 272.962C464.34 269.632 464.67 267.972 464.69 265.642C464.72 262.782 464.31 260.392 463.89 258.652C464.51 256.712 465.28 254.622 466.25 252.432C468.01 248.462 470.01 245.132 471.89 242.442C472.22 248.972 472.6 255.552 473.01 262.202C473.31 267.032 473.63 271.832 473.97 276.602C474.24 276.822 475.4 277.702 477.06 277.582C478.3 277.492 479.14 276.892 479.46 276.642C480.37 274.092 481.55 269.612 480.73 264.202C480.4 262.042 479.83 260.192 479.23 258.692C480.53 253.492 481.12 249.032 481.41 245.672C481.41 245.672 482.25 235.942 480.68 230.182C480.32 228.922 479.44 226.582 479.09 225.622Z" fill="#57D9A3"/>
<path d="M430.42 192.371C431.18 189.541 426.21 185.801 425.1 186.461C425.02 186.511 424.74 186.801 424.17 187.401C423.81 187.781 423.74 187.861 423.57 188.011C423.08 188.421 422.62 188.581 422.44 188.661C421.17 189.211 420.37 191.561 420.84 191.961C421.15 192.221 421.77 191.431 422.88 191.471C423.84 191.511 424.62 192.151 425.19 192.801C425.66 193.301 426.12 193.791 426.59 194.291C426.83 194.361 428.09 194.711 429.22 193.981C429.26 193.951 430.15 193.361 430.42 192.371Z" fill="#72594B"/>
<path d="M480.08 203.38C479.29 202.18 477.82 201.38 477.55 201.23C476.58 200.71 475.72 200.54 475.29 200.45C466.52 198.79 458.58 199.1 458.58 199.1C455.21 199.23 450.91 199.48 445.9 199.99C440.5 196.51 436.46 193.92 434.43 192.45C433.77 191.97 432.1 190.73 430.52 191.22C430.21 191.32 429.97 191.46 429.82 191.57C429.19 192.26 428.56 192.95 427.93 193.64C427.67 193.97 427.36 194.46 427.3 195.09C427.13 196.96 430.52 199.06 435.8 202.56C441.92 206.62 442.31 207.22 444.53 207.85C446.63 208.45 447.46 208.25 451.9 208.77C455.42 209.18 458.25 209.7 460.07 210.06C459.77 210.68 459.41 211.62 459.44 212.76C459.48 214.3 460.2 214.98 460.69 216.21C462.04 219.62 459.54 221.89 460.88 223.66C461.36 224.29 462.79 224.47 465.64 224.8C466.82 224.94 468.74 225.13 474.45 225.18C477.43 225.2 477.95 225.16 478.45 224.69C479.56 223.65 478.97 222.02 478.98 218.38C478.98 217.69 479.01 217.06 479.05 216.44C479.2 214.2 479.5 212.82 479.79 211.19C480.55 206.86 480.92 204.66 480.08 203.38Z" fill="#36B37E"/>
<path d="M468.35 185.48C467.21 186.6 466 188.81 465.48 189.97C465.41 190.18 465.39 190.27 464.97 190.5C464.55 190.72 463.99 190.82 464.1 191.13C464.21 191.44 464.82 191.85 464.89 192.12L464.3 196.43L466.03 197.11L471.89 199.39C471.82 199.16 469.68 193.31 469.69 192.98C469.71 192.64 469.77 191.95 469.39 191.77C469.01 191.59 468.38 188.18 468.2 187.72C468.02 187.26 468.06 187.13 468.17 186.51C468.28 185.87 468.35 185.48 468.35 185.48Z" fill="#72594B"/>
<path d="M478.13 196.57C477.47 197.25 475.99 198.78 473.8 198.7C471.39 198.62 469.12 196.62 469.03 194.87C468.99 194.09 469.4 193.55 469.22 192.17C469.13 191.51 468.89 190.57 468.53 190.54C468.16 190.51 467.9 191.47 467.65 191.42C467.39 191.37 467.42 190.33 467.42 189.73C467.42 187.09 466.87 186.95 467.09 185.9C467.51 183.9 469.7 182.83 469.98 182.7C472.7 181.42 475.49 182.9 475.94 183.14C479.27 184.91 480.8 189.06 480.21 192.42C480.1 192.99 479.73 194.92 478.13 196.57Z" fill="#344563"/>
<path d="M483.36 190.691C482.86 191.201 481.75 192.351 480.11 192.291C478.3 192.231 476.59 190.731 476.53 189.421C476.5 188.831 476.81 188.431 476.67 187.391C476.6 186.891 476.42 186.191 476.15 186.161C475.87 186.141 475.68 186.861 475.49 186.821C475.3 186.781 475.32 186.001 475.32 185.551C475.32 183.571 474.9 183.461 475.07 182.681C475.39 181.181 477.03 180.371 477.24 180.281C479.28 179.321 481.38 180.431 481.72 180.611C484.22 181.941 485.37 185.051 484.92 187.581C484.84 188.001 484.57 189.441 483.36 190.691Z" fill="#344563"/>
<path d="M473.73 273.32C473.76 274.49 473.79 275.65 473.82 276.82C473.87 277.46 474 279.94 472.28 282.19C469.94 285.24 466.2 285.21 465.8 285.2V286.36L475.47 288.32C475.85 288.4 476.25 288.4 476.64 288.34L476.78 288.32C477.32 288.08 477.87 287.83 478.41 287.59C478.58 286.03 478.77 284.46 478.98 282.87C479.4 279.59 479.88 276.41 480.4 273.32C479.88 273.62 478.64 274.25 476.96 274.23C475.4 274.18 474.25 273.62 473.73 273.32Z" fill="#172B4D"/>
</g>
<defs>
<linearGradient id="paint0_linear" x1="406.518" y1="357.941" x2="479.281" y2="357.941" gradientUnits="userSpaceOnUse">
<stop stop-color="#C1C7D0" stop-opacity="0.1"/>
<stop offset="1" stop-color="#C1C7D0"/>
</linearGradient>
<linearGradient id="paint1_linear" x1="436.448" y1="344.238" x2="508.097" y2="344.238" gradientUnits="userSpaceOnUse">
<stop stop-color="#C1C7D0" stop-opacity="0.1"/>
<stop offset="1" stop-color="#C1C7D0"/>
</linearGradient>
<linearGradient id="paint2_linear" x1="0.370117" y1="305.608" x2="74.1303" y2="305.608" gradientUnits="userSpaceOnUse">
<stop stop-color="#E5E8EC" stop-opacity="0.1"/>
<stop offset="1" stop-color="#E5E8EC"/>
</linearGradient>
<linearGradient id="paint3_linear" x1="50.065" y1="282.695" x2="21.1258" y2="282.695" gradientUnits="userSpaceOnUse">
<stop stop-color="#FFC400"/>
<stop offset="0.452" stop-color="#FF991F"/>
</linearGradient>
<linearGradient id="paint4_linear" x1="86.2928" y1="261.089" x2="51.9962" y2="261.089" gradientUnits="userSpaceOnUse">
<stop stop-color="#FFE380"/>
<stop offset="1" stop-color="#FFAB00"/>
</linearGradient>
<linearGradient id="paint5_linear" x1="62.203" y1="232.428" x2="80.0211" y2="232.428" gradientUnits="userSpaceOnUse">
<stop offset="0.548" stop-color="#FF991F"/>
<stop offset="1" stop-color="#FFC400"/>
</linearGradient>
<linearGradient id="paint6_linear" x1="72.8935" y1="297.237" x2="493.458" y2="297.237" gradientUnits="userSpaceOnUse">
<stop stop-color="#36B37E"/>
<stop offset="1" stop-color="#79F2C0"/>
</linearGradient>
<linearGradient id="paint7_linear" x1="72.8935" y1="200.132" x2="493.458" y2="200.132" gradientUnits="userSpaceOnUse">
<stop stop-color="#2684FF"/>
<stop offset="1" stop-color="#B2D4FF"/>
</linearGradient>
<linearGradient id="paint8_linear" x1="178.035" y1="203.727" x2="388.317" y2="-6.55579" gradientUnits="userSpaceOnUse">
<stop stop-color="#C1C7D0"/>
<stop offset="0.3622" stop-color="#DCDFE5"/>
<stop offset="0.7511" stop-color="#F2F4F6"/>
<stop offset="1" stop-color="#FAFBFC"/>
</linearGradient>
<clipPath id="clip0">
<path d="M0.370117 0H508.1V400.38H0.370117V0Z" fill="white"/>
</clipPath>
</defs>
</svg>
