<svg width="24" height="24" viewBox="0 0 24 24" fill="none" xmlns="http://www.w3.org/2000/svg">
<path d="M1.44 14.728H5.752C6.016 14.728 6.192 14.552 6.192 14.288V6.852C6.192 6.5 6.5 6.192 6.852 6.192H22.56C22.824 6.192 23 6.016 23 5.752V4.08C23 2.364 21.636 1 19.92 1H4.08C2.364 1 1 2.364 1 4.08V14.288C1 14.552 1.176 14.728 1.44 14.728ZM12 15.08C13.716 15.08 15.08 13.716 15.08 12C15.08 10.284 13.716 8.92 12 8.92C10.284 8.92 8.92 10.284 8.92 12C8.92 13.716 10.284 15.08 12 15.08ZM4.08 23H19.92C21.636 23 23 21.636 23 19.92V9.712C23 9.448 22.824 9.272 22.56 9.272H18.248C17.984 9.272 17.808 9.448 17.808 9.712V17.148C17.808 17.5 17.5 17.808 17.148 17.808H1.44C1.176 17.808 1 17.984 1 18.248V19.92C1 21.636 2.364 23 4.08 23Z" fill="#3737AF"/>
</svg>
