<svg width="24" height="24" viewBox="0 0 24 24" fill="none" xmlns="http://www.w3.org/2000/svg">
<g clip-path="url(#clip0)">
<path fill-rule="evenodd" clip-rule="evenodd" d="M20.0933 11.5669C20.0933 16.3212 16.3252 20.1756 11.6759 20.1756C7.02662 20.1756 3.26221 16.3212 3.26221 11.5669C3.26221 6.81265 7.03037 2.95825 11.6759 2.95825C16.3214 2.95825 20.0933 6.81265 20.0933 11.5669Z" fill="#D33833"/>
<path d="M3.60356 13.6966C3.60356 13.6966 2.99616 4.72048 11.2674 4.46177L10.69 3.49817L6.20191 4.99793L4.92711 6.47146L3.80228 8.62362L3.16113 11.1245L3.35235 12.793" fill="#EF3D3A"/>
<path d="M5.91329 5.69538C4.43603 7.2064 3.52117 9.29107 3.52117 11.6007C3.52117 13.9104 4.43603 15.995 5.91329 17.506C7.39056 19.0171 9.4265 19.9469 11.6761 19.9469C13.9258 19.9469 15.9617 19.0133 17.439 17.506C18.9163 15.995 19.8311 13.9104 19.8311 11.6007C19.8311 9.29107 18.9163 7.2064 17.439 5.69538C15.9617 4.18437 13.9258 3.25452 11.6761 3.25452C9.4265 3.25452 7.39056 4.18437 5.91329 5.69538ZM5.53835 17.8697C3.9711 16.265 3 14.0453 3 11.6007C3 9.15609 3.9711 6.93644 5.53835 5.33169C7.10561 3.72694 9.28027 2.7296 11.6761 2.73335C14.072 2.7371 16.2467 3.72694 17.8139 5.33169C19.3812 6.93644 20.3523 9.15609 20.3523 11.6007C20.3523 14.0453 19.3812 16.265 17.8139 17.8697C16.2429 19.4745 14.072 20.4681 11.6761 20.4681C9.28027 20.4681 7.10936 19.4745 5.53835 17.8697Z" fill="#231F20"/>
<path fill-rule="evenodd" clip-rule="evenodd" d="M15.219 11.6119L13.9442 11.8031L12.212 11.9981L11.0909 12.0319L9.99985 11.9981L9.16748 11.7431L8.42885 10.9408L7.85144 9.30603L7.72396 8.95358L6.95533 8.69862L6.5054 7.95999L6.1792 6.90265L6.53164 5.9728L7.36401 5.68409L8.03891 6.00654L8.36136 6.71143L8.74755 6.64769L8.87503 6.48647L8.74755 5.74783L8.7138 4.81798L8.90502 3.54318L8.89752 2.81204L9.48243 1.87469L10.5098 1.13605L12.302 0.359924L14.2892 0.648629L16.0214 1.89718L16.8238 3.17199L17.3375 4.10184L17.4649 6.41148L17.0787 8.39867L16.3739 10.1609L15.699 11.0907" fill="#F0D6B7"/>
<path fill-rule="evenodd" clip-rule="evenodd" d="M14.1282 17.161L9.54268 17.3522V18.1209L9.92887 20.813L9.73765 21.0379L6.5319 19.9468L6.30694 19.5606L5.98449 15.9387L5.2496 13.7641L5.08838 13.2504L7.65298 11.4882L8.45535 11.1657L9.16024 12.0318L9.76765 12.5755L10.4725 12.8005L10.7912 12.8979L11.1774 14.5664L11.4661 14.9189L12.2048 14.6639L11.6911 15.6575L14.4807 16.9736L14.1282 17.161Z" fill="#335061"/>
<path fill-rule="evenodd" clip-rule="evenodd" d="M6.53227 5.97279L7.36464 5.68408L8.03953 6.00653L8.36198 6.71142L8.74817 6.64768L8.84565 6.26149L8.65443 5.52286L8.84565 3.76063L8.68443 2.79703L9.26184 2.12214L10.5104 1.12855L10.1579 0.648621L8.39572 1.51474L7.65709 2.09214L7.23716 2.98825L6.59601 3.85437L6.40479 4.88171L6.53227 5.97279Z" fill="#6D6B6D"/>
<path fill-rule="evenodd" clip-rule="evenodd" d="M7.84456 2.95827C7.84456 2.95827 8.32449 1.77345 10.2479 1.19604C12.1714 0.618632 10.3454 0.779857 10.3454 0.779857L8.26075 1.58223L7.45837 2.38461L7.10593 3.02576L7.84456 2.95827ZM6.88471 5.74783C6.88471 5.74783 6.20982 3.50193 8.77816 3.18323L8.68068 2.79704L6.91845 3.21323L6.40479 4.88172L6.53227 5.9728L6.88471 5.74783Z" fill="#DCD9D8"/>
<path fill-rule="evenodd" clip-rule="evenodd" d="M7.90771 8.72862L8.32765 8.32368C8.33515 8.44741 8.42888 8.54865 8.54886 8.57114C8.58261 8.79611 8.67634 10.817 10.0486 11.9044C10.1761 12.0056 9.02129 11.7431 9.02129 11.7431L7.99395 10.1384L7.90771 8.72862ZM13.8018 8.11746C13.8018 8.11746 13.8768 7.14637 14.1392 7.22135C14.4017 7.29634 14.4017 7.5588 14.4017 7.5588C14.4017 7.5588 13.7643 7.97124 13.8018 8.11746Z" fill="#F7E4CD"/>
<path d="M16.4716 4.55933C16.4716 4.55933 15.9429 4.67181 15.8942 5.13674C15.8454 5.60166 16.4716 5.23422 16.5691 5.20048L16.4716 4.55933ZM12.5984 4.59307C12.5984 4.59307 11.8936 4.69056 11.8936 5.13674C11.8936 5.58292 12.6959 5.55292 12.9209 5.3617" fill="#F7E4CD"/>
<path fill-rule="evenodd" clip-rule="evenodd" d="M8.23018 6.67769C8.23018 6.67769 7.01162 5.93906 6.88414 6.64395C6.75666 7.34884 6.46796 7.86251 7.07536 8.60114L6.65918 8.47366L6.27299 7.48007L6.14551 6.51647L6.88414 5.74784L7.71651 5.81158L8.19644 6.19777L8.23018 6.67769ZM8.80759 4.65676C8.80759 4.65676 9.35126 1.8372 12.1108 1.28229C14.3792 0.832356 15.5715 1.37977 16.0215 1.88969C16.0215 1.88969 14.0005 -0.513683 12.0771 0.221202C10.1536 0.956087 8.74385 2.32087 8.77385 3.17949L8.80759 4.65676ZM16.2427 2.21964C16.2427 2.21964 15.3128 2.18589 15.2791 3.02201C15.2828 3.112 15.3053 3.19824 15.3428 3.27697C15.3428 3.27697 16.0815 2.4446 16.5276 2.89078L16.2427 2.21964ZM12.1746 3.36321C12.1746 3.36321 12.0133 2.08466 10.9223 2.82704C10.2174 3.30697 10.2811 3.98186 10.4086 4.10184C10.5361 4.22183 10.5023 4.48803 10.5998 4.31181C10.6973 4.13559 10.6636 3.55818 11.0197 3.39696C11.3759 3.23573 11.9496 3.05576 12.1746 3.35571" fill="#F7E4CD"/>
<path fill-rule="evenodd" clip-rule="evenodd" d="M9.16009 12.0319L6.14556 13.3779C6.14556 13.3779 7.39411 18.3459 6.75296 19.8869L6.30303 19.7257L6.26929 17.8322L5.43692 14.2478L5.08447 13.2542L8.23398 11.1395L9.16384 12.0356L9.16009 12.0319ZM9.47129 14.7802L9.89872 15.3014V17.2248H9.38505L9.32131 15.7251C9.32131 15.5638 9.38505 14.9864 9.38505 14.9864L9.47129 14.7802ZM9.47879 17.5135L8.03526 17.5773L8.45145 17.866L9.47879 18.0272" fill="#49728B"/>
<path fill-rule="evenodd" clip-rule="evenodd" d="M14.4165 17.191L15.6013 17.1573L15.89 20.1081L14.6715 20.2693L14.4165 17.191Z" fill="#335061"/>
<path fill-rule="evenodd" clip-rule="evenodd" d="M14.7393 17.1911L16.5352 17.0936L17.2739 15.1364C17.2739 15.0389 17.915 12.4443 17.915 12.4443L16.4715 10.937L16.1828 10.6821L15.4142 11.4507V14.4315L14.7393 17.1911Z" fill="#335061"/>
<path fill-rule="evenodd" clip-rule="evenodd" d="M15.5415 16.9661L14.4204 17.191L14.5816 18.0871C14.9978 18.2784 15.7027 17.7647 15.7027 17.7647L15.5415 16.9661ZM15.5715 11.3569L17.8174 13.0254L17.8811 12.2568L16.1826 10.6858L15.5715 11.3569Z" fill="#49728B"/>
<path fill-rule="evenodd" clip-rule="evenodd" d="M10.5923 23.5088L9.92867 20.8168L9.59872 18.8296L9.54248 17.356L12.5458 17.1948H14.4167L14.248 20.5693L14.5367 23.1676L14.503 23.6476L12.0658 23.8388L10.5923 23.5163" fill="white"/>
<path fill-rule="evenodd" clip-rule="evenodd" d="M14.0006 17.1611C14.0006 17.1611 13.8394 20.4943 14.3231 22.8602C14.3231 22.8602 13.3595 23.4676 11.9497 23.6288L14.6418 23.5313L14.9642 23.3401L14.578 18.0834L14.4806 16.9623" fill="#DCD9D8"/>
<path fill-rule="evenodd" clip-rule="evenodd" d="M15.9467 19.8531L17.1952 19.5007L19.5686 19.3732L19.921 18.2821L19.2799 16.3887L18.5413 16.2912L17.5139 16.6136L16.5353 17.0973L16.0142 16.9998L15.6055 17.1611" fill="white"/>
<path fill-rule="evenodd" clip-rule="evenodd" d="M15.9238 19.212C15.9238 19.212 16.7562 18.8258 16.8874 18.8595L16.535 17.0973L16.9512 16.9361L17.2399 18.7958L19.1971 18.8933C19.1971 18.8933 19.5833 18.1547 19.4858 17.3935L19.8382 18.4209L19.872 18.9983L19.3583 19.7669L18.7809 19.8944L17.8173 19.8606L17.4948 19.4445L16.3738 19.6057L16.0213 19.7332" fill="#DCD9D8"/>
<path d="M14.6647 16.9361L13.9598 15.1401L13.2212 14.0828C13.2212 14.0828 13.3824 13.6329 13.6074 13.6329H14.346L15.0509 13.8878L14.9872 15.0726L14.6647 16.9361Z" fill="white"/>
<path fill-rule="evenodd" clip-rule="evenodd" d="M14.8032 16.3287C14.8032 16.3287 13.9071 14.5965 13.9071 14.3415C13.9071 14.3415 14.0683 13.9553 14.2933 14.0528C14.5182 14.1503 14.9982 14.4052 14.9982 14.4052V13.7978L13.9071 13.5729L13.1685 13.6704L14.417 16.6211L14.672 16.6549" fill="#DCD9D8"/>
<path d="M10.8811 12.0956L9.99253 11.9981L9.16016 11.7432V12.0319L9.56884 12.4818L10.8436 13.0592" fill="white"/>
<path fill-rule="evenodd" clip-rule="evenodd" d="M9.44887 12.1893C9.44887 12.1893 10.4425 12.6055 10.7649 12.5118L10.7987 12.898L9.90255 12.7068L9.35889 12.3206L9.44887 12.1893Z" fill="#DCD9D8"/>
<path fill-rule="evenodd" clip-rule="evenodd" d="M15.943 13.7416C15.3993 13.7266 14.9081 13.6629 14.4769 13.5391C14.5069 13.3629 14.4507 13.1904 14.4957 13.063C14.6157 12.9767 14.8181 12.9767 14.9981 12.958C14.8406 12.8792 14.6194 12.8492 14.4394 12.8942C14.4357 12.7705 14.3794 12.6955 14.3457 12.6018C14.6532 12.4931 15.373 11.7769 15.778 12.0131C15.9729 12.1256 16.0554 12.7705 16.0704 13.0817C16.0854 13.3404 16.0517 13.6029 15.943 13.7416Z" fill="#D33833"/>
<path d="M15.943 13.7416C15.3993 13.7266 14.9081 13.6629 14.4769 13.5391C14.5069 13.3629 14.4507 13.1904 14.4957 13.063C14.6157 12.9767 14.8181 12.9767 14.9981 12.958C14.8406 12.8792 14.6194 12.8492 14.4394 12.8942C14.4357 12.7705 14.3794 12.6955 14.3457 12.6018C14.6532 12.4931 15.373 11.7769 15.778 12.0131C15.9729 12.1256 16.0554 12.7705 16.0704 13.0817C16.0854 13.3404 16.0517 13.6029 15.943 13.7416Z" stroke="#D33833" stroke-width="0.514" stroke-miterlimit="8"/>
<path fill-rule="evenodd" clip-rule="evenodd" d="M13.3408 12.853L13.337 12.9768C13.1683 13.0893 12.8946 13.0855 12.7071 13.1792C12.9808 13.1905 13.1983 13.258 13.3858 13.3517L13.3745 13.6629C13.0633 13.8766 12.7784 14.1953 12.4109 14.394C12.2384 14.4878 11.631 14.7315 11.4436 14.6903C11.3386 14.6678 11.3311 14.5365 11.2898 14.4128C11.1999 14.1503 10.9974 13.7342 10.9786 13.3405C10.9561 12.8418 10.9074 12.0094 11.4398 12.1144C11.8823 12.2081 12.3097 12.3656 12.7071 12.5793C12.9171 12.6918 13.0333 12.8305 13.3408 12.853Z" fill="#D33833"/>
<path d="M13.3408 12.853L13.337 12.9768C13.1683 13.0893 12.8946 13.0855 12.7071 13.1792C12.9808 13.1905 13.1983 13.258 13.3858 13.3517L13.3745 13.6629C13.0633 13.8766 12.7784 14.1953 12.4109 14.394C12.2384 14.4878 11.631 14.7315 11.4436 14.6903C11.3386 14.6678 11.3311 14.5365 11.2898 14.4128C11.1999 14.1503 10.9974 13.7342 10.9786 13.3405C10.9561 12.8418 10.9074 12.0094 11.4398 12.1144C11.8823 12.2081 12.3097 12.3656 12.7071 12.5793C12.9171 12.6918 13.0333 12.8305 13.3408 12.853Z" stroke="#D33833" stroke-width="0.514" stroke-miterlimit="8"/>
<path fill-rule="evenodd" clip-rule="evenodd" d="M13.6518 13.4454C13.6031 13.1755 13.5506 13.0967 13.5693 12.8605C14.293 12.3806 14.4279 13.6891 13.6518 13.4454Z" fill="#D33833"/>
<path d="M13.6518 13.4454C13.6031 13.1755 13.5506 13.0967 13.5693 12.8605C14.293 12.3806 14.4279 13.6891 13.6518 13.4454Z" stroke="#D33833" stroke-width="0.514" stroke-miterlimit="8"/>
<path fill-rule="evenodd" clip-rule="evenodd" d="M14.6982 13.6666C14.6982 13.6666 14.4732 13.3442 14.6344 13.2504C14.7957 13.1567 14.9569 13.2504 15.0506 13.0892C15.1481 12.928 15.0506 12.8342 15.0844 12.6393C15.1181 12.4443 15.2756 12.4143 15.4368 12.3843C15.598 12.3543 16.0442 12.2868 16.1117 12.4481L15.9205 11.8706L15.5343 11.7432L14.3157 12.4481L14.2482 12.7967V13.5016L14.6982 13.6666ZM11.3237 14.7239L11.2 13.2242C11.125 12.478 11.3799 12.6093 12.0248 12.6093C12.1223 12.6093 12.6247 12.7255 12.6697 12.8005C12.846 13.1567 12.3698 13.078 12.8722 13.3479C13.2884 13.5766 14.027 13.2092 13.8583 12.703C13.7646 12.5905 13.3671 12.6693 13.2246 12.5943L12.4748 12.2043C12.1561 12.0394 11.4212 11.7994 11.08 12.0281C10.2176 12.613 11.1325 14.0753 11.4399 14.6865" fill="#EF3D3A"/>
<path fill-rule="evenodd" clip-rule="evenodd" d="M12.1745 3.36321C11.3009 3.16074 10.866 3.73065 10.5998 4.31931C10.3636 4.26307 10.4498 3.94062 10.5248 3.77564C10.6748 3.34446 11.3122 2.77455 11.8258 2.84954C12.0471 2.88328 12.347 3.08575 12.1783 3.36321H12.1745ZM16.4301 4.35305H16.4714C16.6701 4.76174 16.8463 5.19667 17.09 5.55286C16.9213 5.9428 15.8265 6.284 15.8415 5.58661C16.0777 5.48163 16.4864 5.56411 16.7001 5.43288C16.5801 5.09919 16.4039 4.81423 16.4301 4.3418V4.35305ZM12.6207 4.36805C12.8082 4.713 12.8682 5.07294 13.1344 5.33165C13.2544 5.44788 13.4868 5.59036 13.3706 5.91656C13.2881 6.04029 13.1719 6.14152 13.0331 6.19776C12.617 6.32149 11.6459 6.22401 11.9833 5.70284C12.3283 5.71784 12.7894 5.92781 13.0481 5.6766C12.8494 5.36164 12.497 4.73549 12.6282 4.36805H12.6207ZM16.2839 7.8625C15.6577 8.26369 14.9566 8.70237 13.9293 8.60114C13.708 8.40992 13.6256 7.98623 13.8393 7.70503C13.9518 7.89625 13.8805 8.24869 14.1917 8.30118C14.7729 8.40242 15.4515 7.94499 15.8715 7.78377C16.1302 7.34508 15.849 7.18386 15.6165 6.90265C15.1366 6.32524 14.4954 5.60911 14.5179 4.74299C14.7129 4.60426 14.7279 4.95671 14.7579 5.02045C15.0091 5.60536 15.639 6.35524 16.0964 6.85766C16.2089 6.98139 16.3964 7.10137 16.4151 7.18011C16.4714 7.42007 16.2576 7.70503 16.2839 7.8625ZM8.00893 7.43507C7.81396 7.32259 7.76522 6.82767 7.5365 6.81642C7.20656 6.79767 7.26655 7.45757 7.26655 7.84376C7.03783 7.63754 7.00034 7.00389 7.16531 6.67769C6.97409 6.58395 6.8916 6.77892 6.78662 6.85016C6.9216 5.86782 8.2264 6.40023 8.00893 7.43507ZM16.6738 8.26369C16.3739 8.8186 15.9689 9.42976 15.1141 9.44851C15.0953 9.26853 15.0841 8.99483 15.1141 8.88984C15.7702 8.82235 16.1714 8.49241 16.6738 8.26369ZM12.572 8.62363C13.1194 8.91234 14.1205 8.94233 14.8629 8.91984C14.9041 9.08106 14.9004 9.28353 14.9041 9.48225C13.948 9.53099 12.8232 9.29478 12.5795 8.62363H12.572ZM12.4745 9.15605C12.8532 10.1047 14.1505 9.99592 15.2453 9.96967C15.1966 10.0934 15.0916 10.2396 14.9641 10.2921C14.6116 10.4421 13.6443 10.5433 13.1606 10.2846C12.8532 10.1197 12.6545 9.74846 12.4857 9.53099C12.407 9.42601 11.9946 9.15605 12.4745 9.15605Z" fill="#231F20"/>
<path fill-rule="evenodd" clip-rule="evenodd" d="M16.2317 14.3977L14.8369 16.6061C15.0581 15.9575 15.1519 14.8739 15.1856 14.0453C15.6468 13.8278 16.0405 14.094 16.2317 14.3977Z" fill="#81B0C4"/>
<path fill-rule="evenodd" clip-rule="evenodd" d="M18.6164 17.1236C18.1214 17.2211 17.7727 17.7048 17.2891 17.6748C17.5515 17.2998 18.0164 17.1498 18.6164 17.1236ZM18.8338 17.9035C18.4289 17.9447 17.9527 18.0122 17.544 17.9785C17.739 17.6785 18.4851 17.7835 18.8338 17.9035ZM18.9725 18.5709C18.5189 18.5821 17.9527 18.5709 17.5215 18.5371C17.7765 18.2597 18.6801 18.4321 18.9725 18.5709Z" fill="#231F20"/>
<path fill-rule="evenodd" clip-rule="evenodd" d="M15.3733 20.4043C15.437 20.9742 15.6657 21.5553 15.6357 22.1777C15.3845 22.264 15.2383 22.3352 14.9046 22.3352L14.8296 20.4868C14.9946 20.498 15.2383 20.3668 15.3733 20.4118" fill="#DCD9D8"/>
<path fill-rule="evenodd" clip-rule="evenodd" d="M14.6421 11.9907C14.4134 12.1406 14.2184 12.3244 14.0009 12.4856C13.5135 12.5081 13.2511 12.4518 12.8911 12.1744C12.8986 12.1519 12.9324 12.1631 12.9324 12.1331C13.4535 12.3656 14.1172 12.0394 14.6421 11.9907Z" fill="#F0D6B7"/>
<path fill-rule="evenodd" clip-rule="evenodd" d="M11.9087 15.5375C12.0512 14.9189 12.6136 14.5964 13.1198 14.2552C13.6447 14.9226 13.9634 15.7775 14.3158 16.6061C13.4872 16.3549 12.6398 15.9462 11.9087 15.5375Z" fill="#81B0C4"/>
<path fill-rule="evenodd" clip-rule="evenodd" d="M14.8333 20.4868C14.8108 20.993 14.882 21.8066 14.9083 22.3353C15.2457 22.3353 15.3882 22.2603 15.6394 22.1778C15.6694 21.5517 15.4407 20.9742 15.3769 20.4043C15.2457 20.3706 14.9982 20.4981 14.8333 20.4793V20.4868ZM9.58783 17.6073C9.80905 19.6469 10.1315 21.3567 10.7202 23.1714C12.0287 23.5688 13.6072 23.6026 14.7658 23.2464C14.5521 22.2265 14.6458 20.9855 14.5221 19.8944L14.3496 17.416C12.9473 17.1236 10.9676 17.3486 9.58783 17.6073ZM14.687 17.431C14.6758 18.3084 14.7245 19.1708 14.792 20.0519L15.6694 19.8982C15.5682 19.0545 15.5794 18.1022 15.3732 17.3561C15.137 17.3561 14.927 17.3486 14.687 17.431ZM16.3968 17.2886C16.2355 17.2511 16.0518 17.2886 15.8981 17.2886L16.1981 19.542C16.438 19.5495 16.5655 19.437 16.7642 19.3995C16.7755 18.7396 16.708 17.8322 16.3893 17.2886H16.3968ZM18.9801 19.6507C19.4825 19.5307 19.7937 18.9158 19.655 18.2859C19.5613 17.8622 19.3926 17.0674 19.2163 16.7936C19.0851 16.5949 18.7252 16.3325 18.4402 16.5162C17.9753 16.8161 17.1542 16.9024 16.813 17.2623C16.9817 17.8285 17.0379 18.6084 17.1054 19.3282C17.6866 19.3657 18.4027 19.167 18.8901 19.377C18.5527 19.4857 18.114 19.4857 17.8215 19.647C18.0578 19.7632 18.6164 19.7407 18.9801 19.6507ZM14.3271 16.6062C13.9746 15.7776 13.6559 14.9227 13.131 14.2553C12.6211 14.5965 12.0624 14.9189 11.92 15.5376C12.6474 15.95 13.4947 16.355 14.3271 16.6062ZM15.1932 14.0453C15.1595 14.8739 15.0657 15.9575 14.8445 16.6062C15.3694 15.935 15.7931 15.1552 16.2393 14.3978C16.0481 14.0941 15.6544 13.8316 15.1932 14.0453ZM14.2184 13.6966C14.0196 13.6741 13.8509 13.9253 13.5922 13.8166L13.4197 14.0191C13.9934 14.709 14.2446 15.6876 14.6945 16.4974C14.9307 15.7176 14.9045 14.8664 14.957 14.0153C14.627 14.0341 14.4471 13.7191 14.2184 13.6966ZM13.5847 12.8643C13.5622 13.1005 13.6185 13.1792 13.6672 13.4492C14.4433 13.6891 14.3083 12.3843 13.5847 12.8643ZM12.7261 12.5793C12.3287 12.3656 11.9012 12.2081 11.4588 12.1144C10.9226 12.0131 10.9751 12.8455 10.9976 13.3404C11.0164 13.7341 11.2188 14.1503 11.3088 14.4128C11.3501 14.5365 11.3613 14.664 11.4625 14.6902C11.6463 14.7315 12.2537 14.4915 12.4299 14.394C12.7973 14.1953 13.0823 13.8691 13.3935 13.6629L13.4047 13.3517C13.2173 13.2579 12.9998 13.1905 12.7261 13.1792C12.9136 13.0855 13.1873 13.0855 13.356 12.9767L13.3597 12.853C13.0448 12.8305 12.9286 12.6918 12.7261 12.5793ZM9.53159 11.9981C9.25414 12.2794 10.3115 12.6655 10.6452 12.6843C10.6414 12.5043 10.7464 12.3393 10.7277 12.2081C10.3265 12.1406 9.80155 12.1894 9.53159 11.9981ZM12.9511 12.1331C12.9511 12.1594 12.9136 12.1519 12.9098 12.1744C13.266 12.4518 13.5322 12.5118 14.0196 12.4856L14.6608 11.9906C14.1321 12.0356 13.4722 12.3618 12.9511 12.1331ZM16.0893 13.0855C16.0743 12.7705 15.9918 12.1294 15.7969 12.0169C15.3919 11.7807 14.6683 12.4968 14.3646 12.6055C14.3983 12.703 14.4546 12.778 14.4583 12.898C14.6383 12.853 14.8595 12.883 15.017 12.9617C14.837 12.9805 14.642 12.9805 14.5146 13.0667C14.4696 13.1942 14.5258 13.3667 14.4958 13.5429C14.927 13.6629 15.4182 13.7304 15.9618 13.7454C16.0631 13.6066 16.1006 13.3442 16.0893 13.0855ZM9.06292 12.2719C8.97668 12.2081 8.38427 11.4432 8.31303 11.4732C7.24445 11.8932 6.24711 12.6205 5.3585 13.3104C6.20961 15.1327 6.55081 17.3711 6.6108 19.5232C7.58565 19.9769 8.44051 20.6368 9.76031 20.7043L9.38162 17.6373C9.04792 17.4985 8.57174 17.6448 8.26429 17.5923C8.26054 17.2173 8.74047 17.4273 8.77796 17.1761C8.80796 16.9849 8.5155 16.9699 8.60924 16.6699C8.85295 16.7599 8.98043 16.9549 9.23914 17.0261C9.47535 16.5087 9.23539 15.5938 9.26913 15.1514C9.27663 15.0689 9.31038 14.7015 9.49035 14.7652C9.65157 14.8215 9.48285 15.7476 9.49785 16.1562C9.51285 16.5349 9.45286 16.9061 9.60658 17.1348C10.8851 16.9624 12.1824 16.8499 13.5622 16.8124C13.2585 16.6812 12.8986 16.5574 12.5011 16.3362C12.2874 16.2162 11.6088 15.965 11.5488 15.7588C11.4513 15.4326 11.8075 15.2601 11.8675 14.9827C11.2226 15.3351 11.0988 14.6452 10.9451 14.1578C10.8064 13.7154 10.7277 13.3854 10.6939 13.1305C10.139 12.8643 9.54659 12.6055 9.06667 12.2569L9.06292 12.2719ZM15.5232 11.567C16.4118 11.1358 16.573 13.1792 16.2243 13.8354C16.2768 14.0303 16.4643 14.1053 16.5392 14.2815L14.987 16.8799C15.3619 16.6437 15.9018 16.8386 16.3368 16.6549C16.498 16.5912 16.6142 16.22 16.738 15.9238C17.0754 15.1064 17.4279 14.0791 17.5853 13.2992C17.6191 13.123 17.7166 12.7368 17.6978 12.5756C17.6603 12.2943 17.2741 12.0844 17.0792 11.9007L16.1231 10.9933C15.9693 11.2183 15.6431 11.3682 15.5194 11.552L15.5232 11.567ZM7.01574 3.68194C6.59205 4.14687 6.68204 5.02049 6.73078 5.64289C7.49566 5.16296 8.51175 5.68038 8.50425 6.5015C8.8717 6.49026 8.63923 6.04408 8.57549 5.75537C8.35803 4.81427 8.93919 3.79443 8.60174 2.93206C7.94559 2.98455 7.40568 3.25076 7.01574 3.68194ZM10.0453 0.978617C9.08541 1.24858 7.85561 1.94597 7.46192 2.80833C7.76562 2.76334 7.97934 2.60961 8.27929 2.58337C8.39177 2.57587 8.54175 2.63211 8.67298 2.59836C8.93169 2.53462 9.1529 1.94972 9.35162 1.73225C9.54284 1.51853 9.77531 1.42855 9.93278 1.23733C10.034 1.18858 10.184 1.19233 10.1877 1.03861C10.1427 0.989866 10.0978 0.96362 10.0378 0.96362L10.0453 0.978617ZM15.0395 1.23358C14.0459 0.674915 12.3587 0.251231 11.3013 0.779898C10.4465 1.20733 9.29163 1.91222 8.89794 2.80458C9.26539 3.66695 8.78921 4.45807 8.75921 5.33169C8.74422 5.79661 8.97668 6.2053 8.99543 6.71147C8.86795 6.91769 8.48551 6.94393 8.2193 6.92894C8.12931 6.47901 7.97184 5.97659 7.51066 5.92409C6.85826 5.85286 6.37834 6.39277 6.34834 6.95893C6.3146 7.62258 6.85826 8.72491 7.63064 8.64992C7.93059 8.61992 8.00183 8.31997 8.32803 8.32372C8.50425 8.67616 8.05432 8.7849 8.00933 9.03611C7.99808 9.09985 8.04683 9.35481 8.07682 9.47479C8.21555 10.0559 8.5305 10.8058 8.83795 11.2483C9.22789 11.8069 9.99652 11.8932 10.8251 11.9494C10.9714 11.6307 11.515 11.6569 11.8712 11.7394C11.4475 11.5707 11.0501 11.162 10.7239 10.8021C10.349 10.3896 9.96653 9.94347 9.94778 9.40355C10.6564 10.3896 11.2451 11.2483 12.5349 11.6832C13.5135 12.0094 14.6533 11.5332 15.4032 11.0046C15.7144 10.7871 15.9018 10.4384 16.1231 10.1197C16.9517 8.91988 17.3379 7.22514 17.2554 5.5754C17.2216 4.89675 17.2216 4.21811 16.9929 3.76068C16.753 3.28076 15.9468 2.85332 15.4744 3.28826C15.3882 2.82333 15.8681 2.53462 16.4305 2.70335C16.0331 2.18218 15.6094 1.55603 15.0395 1.23358ZM16.8917 16.5799C17.6678 16.1937 19.1226 15.5376 19.61 16.5799C19.79 16.9624 20 17.6148 20.0937 18.0085C20.2249 18.5671 19.9437 19.7444 19.3776 19.9319C18.8714 20.0969 18.2752 20.0894 17.6641 19.9657C17.5928 19.9057 17.5103 19.8007 17.4541 19.6919C17.0154 19.6732 16.6067 19.7144 16.2618 19.8944C16.2955 20.2169 16.0743 20.2694 15.8719 20.3368C15.7181 20.9405 16.1756 21.7241 16.0668 22.2753C15.9881 22.6652 15.5082 22.7252 15.1557 22.8002C15.1445 23.0252 15.1707 23.1976 15.197 23.3814C15.1145 23.6776 14.7545 23.85 14.4096 23.8913C13.2773 24.0263 11.56 24.09 10.4727 23.6963C10.169 22.9502 9.92903 22.0466 9.67782 21.1955C8.61674 21.3079 7.75812 20.738 6.94825 20.3631C6.66704 20.2319 6.27335 20.1606 6.17587 19.9394C6.07463 19.7219 6.11588 19.3095 6.08963 18.9196C6.02589 17.9222 5.96965 16.9586 5.71469 15.935C5.59471 15.4776 5.38849 15.0727 5.24601 14.6302C5.11478 14.2215 4.88232 13.7154 4.81858 13.3067C4.72859 12.703 5.2985 12.6693 5.6622 12.4068C6.22461 12.0019 6.66704 11.7769 7.2782 11.4095C7.45817 11.3008 8.00558 11.0345 8.06557 10.8996C8.1893 10.6484 7.85561 10.2959 7.76562 10.1009C7.62314 9.78974 7.5519 9.52728 7.52941 9.21983C7.01574 9.13734 6.62955 8.83364 6.39333 8.49244C6.00714 7.92253 5.73719 6.8727 6.07088 6.07407C6.09713 6.01033 6.22086 5.8866 6.24711 5.78912C6.2846 5.5979 6.17587 5.34668 6.16837 5.14422C6.13462 4.10563 6.34459 3.20952 7.04573 2.89457C7.33069 1.76974 8.34678 1.3873 9.30663 0.824891C9.66657 0.614924 10.0603 0.479945 10.4689 0.329969C11.9312 -0.209947 14.1771 -0.108713 15.3919 0.809894C15.9056 1.19983 16.7305 2.02095 17.0229 2.61711C17.7991 4.18812 17.7466 6.81271 17.2029 8.72491C17.1317 8.97987 17.0229 9.35856 16.8767 9.66601C16.7717 9.87973 16.453 10.3109 16.4905 10.5021C16.5317 10.6971 17.2216 11.222 17.3716 11.3682C17.6378 11.627 18.144 11.9681 18.1852 12.2906C18.2302 12.6355 18.0315 13.108 17.934 13.4417L16.8992 16.5762" fill="#231F20"/>
<path fill-rule="evenodd" clip-rule="evenodd" d="M11.7024 8.87484C11.7437 8.8186 11.9762 8.73237 12.3023 8.88984C12.3023 8.88984 11.9162 8.95358 11.9499 9.59473L11.7887 9.56099C11.7887 9.56099 11.6237 8.97983 11.7024 8.87484Z" fill="#F7E4CD"/>
<path fill-rule="evenodd" clip-rule="evenodd" d="M14.5146 14.3865C14.5146 14.484 14.4358 14.5627 14.3383 14.5627C14.2408 14.5627 14.1621 14.484 14.1621 14.3865C14.1621 14.289 14.2408 14.2103 14.3383 14.2103C14.4358 14.2103 14.5146 14.289 14.5146 14.3865ZM14.6908 15.2114C14.6908 15.3088 14.612 15.3876 14.5146 15.3876C14.4171 15.3876 14.3383 15.3088 14.3383 15.2114C14.3383 15.1139 14.4171 15.0351 14.5146 15.0351C14.612 15.0351 14.6908 15.1139 14.6908 15.2114Z" fill="#1D1919"/>
</g>
<defs>
<clipPath id="clip0">
<rect width="17.356" height="24" fill="white" transform="translate(3)"/>
</clipPath>
</defs>
</svg>
