<svg width="24" height="24" viewBox="0 0 24 24" fill="none" xmlns="http://www.w3.org/2000/svg">
<g clip-path="url(#clip0)">
<path d="M22.9998 12.7442C23.001 12.5722 22.9121 12.412 22.7654 12.3221H22.7629L22.7537 12.317L15.1305 7.80441C15.0976 7.78217 15.0634 7.76184 15.0281 7.74353C14.7338 7.59167 14.3842 7.59167 14.0898 7.74353C14.0546 7.76185 14.0204 7.78217 13.9875 7.80441L6.36432 12.317L6.35512 12.3221C6.12213 12.467 6.0507 12.7733 6.19559 13.0063C6.23828 13.075 6.29708 13.1322 6.36688 13.1729L13.9901 17.6855C14.0231 17.7075 14.0573 17.7279 14.0924 17.7464C14.3867 17.8982 14.7364 17.8982 15.0307 17.7464C15.0659 17.7279 15.1 17.7076 15.1331 17.6855L22.7563 13.1729C22.9085 13.0841 23.0015 12.9205 22.9998 12.7442Z" fill="#0A2767"/>
<path d="M7.25299 9.73121H12.2557V14.3169H7.25299V9.73121ZM21.9766 5.06976V2.97209C21.9886 2.44762 21.5735 2.01257 21.049 2H8.067C7.54253 2.01257 7.1274 2.44762 7.13941 2.97209V5.06976L14.8138 7.11627L21.9766 5.06976Z" fill="#0364B8"/>
<path d="M7.13965 5.06976H12.256V9.67441H7.13965V5.06976Z" fill="#0078D4"/>
<path d="M17.3721 5.06976H12.2559V9.67441L17.3721 14.2791H21.9767V9.67441L17.3721 5.06976Z" fill="#28A8EA"/>
<path d="M12.2559 9.67444H17.3721V14.2791H12.2559V9.67444Z" fill="#0078D4"/>
<path d="M12.2559 14.2791H17.3721V18.8837H12.2559V14.2791Z" fill="#0364B8"/>
<path d="M7.25293 14.3169H12.2557V18.4856H7.25293V14.3169Z" fill="#14447D"/>
<path d="M17.3721 14.2791H21.9767V18.8837H17.3721V14.2791Z" fill="#0078D4"/>
<path d="M22.7656 13.1448L22.7559 13.1499L15.1326 17.4373C15.0994 17.4578 15.0656 17.4772 15.0303 17.4946C14.9008 17.5563 14.7602 17.5911 14.6169 17.597L14.2004 17.3534C14.1652 17.3358 14.1311 17.3161 14.0981 17.2946L6.37253 12.8854H6.36895L6.11621 12.7442V21.4234C6.12015 22.0025 6.59263 22.4687 7.17169 22.4651H21.9608C21.9695 22.4651 21.9772 22.461 21.9864 22.461C22.1087 22.4532 22.2293 22.428 22.3445 22.3863C22.3943 22.3652 22.4424 22.3402 22.4883 22.3116C22.5226 22.2921 22.5814 22.2497 22.5814 22.2497C22.8435 22.0557 22.9986 21.7495 22.9999 21.4234V12.7442C22.9997 12.9102 22.9102 13.0633 22.7656 13.1448Z" fill="url(#paint0_linear)"/>
<path opacity="0.5" d="M22.5905 12.7099V13.242L14.6194 18.7302L6.36682 12.889C6.36682 12.8862 6.36452 12.8839 6.3617 12.8839L5.60449 12.4285V12.0448L5.91659 12.0397L6.57658 12.4183L6.59192 12.4234L6.6482 12.4592C6.6482 12.4592 14.4045 16.8848 14.4249 16.895L14.7217 17.069C14.7473 17.0587 14.7728 17.0485 14.8035 17.0383C14.8189 17.028 22.5035 12.7048 22.5035 12.7048L22.5905 12.7099Z" fill="#0A2767"/>
<path d="M22.7656 13.1448L22.7559 13.1504L15.1326 17.4379C15.0994 17.4583 15.0656 17.4778 15.0303 17.4952C14.7342 17.6398 14.388 17.6398 14.092 17.4952C14.0569 17.4778 14.0227 17.4587 13.9896 17.4379L6.36639 13.1504L6.35719 13.1448C6.21001 13.065 6.11774 12.9116 6.11621 12.7442V21.4235C6.11988 22.0024 6.59219 22.4688 7.17114 22.4651C7.17115 22.4651 7.17116 22.4651 7.17119 22.4651H21.9449C22.5239 22.4688 22.9962 22.0025 22.9999 21.4235C22.9999 21.4235 22.9999 21.4235 22.9999 21.4235V12.7442C22.9997 12.9102 22.9102 13.0633 22.7656 13.1448Z" fill="#1490DF"/>
<path opacity="0.1" d="M15.2436 17.3744L15.1295 17.4383C15.0964 17.4594 15.0622 17.4787 15.0271 17.4962C14.9014 17.5579 14.7648 17.594 14.625 17.6026L17.5254 21.0325L22.5849 22.2517C22.7235 22.147 22.8338 22.0093 22.9057 21.8511L15.2436 17.3744Z" fill="black"/>
<path opacity="0.05" d="M15.7603 17.0838L15.1295 17.4384C15.0964 17.4594 15.0622 17.4787 15.0271 17.4962C14.9014 17.5579 14.7648 17.594 14.625 17.6026L15.9839 21.3492L22.5864 22.2502C22.8465 22.0549 22.9997 21.7487 22.9998 21.4234V21.3114L15.7603 17.0838Z" fill="black"/>
<path d="M7.18551 22.4652H21.9434C22.1705 22.4663 22.392 22.3946 22.5753 22.2605L14.1999 17.3545C14.1647 17.3369 14.1306 17.3172 14.0976 17.2957L6.37202 12.8864H6.36844L6.11621 12.7442V21.3938C6.11563 21.985 6.59437 22.4646 7.18551 22.4652C7.1855 22.4652 7.1855 22.4652 7.18551 22.4652Z" fill="#28A8EA"/>
<path opacity="0.1" d="M13.279 7.03083V17.9438C13.2781 18.3265 13.0454 18.6704 12.6906 18.8136C12.5807 18.8608 12.4623 18.8852 12.3427 18.8853H6.11621V6.60464H7.13947V6.09302H12.3427C12.8596 6.09498 13.2779 6.51395 13.279 7.03083Z" fill="black"/>
<path opacity="0.2" d="M12.7674 7.54246V18.4554C12.7687 18.579 12.7425 18.7013 12.6907 18.8136C12.5486 19.1638 12.2091 19.3935 11.8311 19.3953H6.11621V6.60466H11.8311C11.9796 6.60317 12.1259 6.6402 12.2558 6.7121C12.5694 6.87011 12.7673 7.19129 12.7674 7.54246Z" fill="black"/>
<path opacity="0.2" d="M12.7674 7.54247V17.4322C12.7649 17.9489 12.3477 18.3676 11.8311 18.3721H6.11621V6.60466H11.8311C11.9795 6.60317 12.1258 6.6402 12.2557 6.71211C12.5694 6.87011 12.7673 7.19129 12.7674 7.54247Z" fill="black"/>
<path opacity="0.2" d="M12.2558 7.54249V17.4322C12.2552 17.9497 11.837 18.3696 11.3195 18.3721H6.11621V6.60468H11.3195C11.8369 6.60495 12.2561 7.0246 12.2558 7.54198C12.2558 7.54215 12.2558 7.54232 12.2558 7.54249Z" fill="black"/>
<path d="M1.93782 6.60468H11.318C11.836 6.60468 12.2559 7.02455 12.2559 7.54249V16.9227C12.2559 17.4406 11.836 17.8605 11.318 17.8605H1.93782C1.41987 17.8605 1 17.4406 1 16.9227V7.54249C1 7.02455 1.41988 6.60468 1.93782 6.60468Z" fill="url(#paint1_linear)"/>
<path d="M3.93078 10.5381C4.16192 10.0456 4.535 9.6335 5.00213 9.35468C5.51945 9.0585 6.10846 8.91085 6.70432 8.92797C7.25658 8.91599 7.80152 9.05599 8.27962 9.33267C8.72914 9.60074 9.09118 9.99353 9.3218 10.4634C9.57296 10.9811 9.69813 11.5509 9.68711 12.1262C9.69928 12.7274 9.5705 13.3232 9.31106 13.8657C9.07495 14.3524 8.70142 14.7592 8.23665 15.0358C7.74011 15.321 7.17494 15.4647 6.60251 15.4513C6.03845 15.4649 5.4815 15.3233 4.99241 15.042C4.539 14.7735 4.17242 14.3803 3.93642 13.9092C3.68377 13.399 3.55711 12.8356 3.56702 12.2664C3.5565 11.6702 3.68085 11.0794 3.93078 10.5381ZM5.07273 13.3162C5.19597 13.6276 5.40495 13.8976 5.67543 14.0949C5.95093 14.2875 6.28081 14.3868 6.61682 14.3784C6.97465 14.3925 7.32737 14.2898 7.62166 14.0857C7.88871 13.889 8.0922 13.6182 8.20696 13.307C8.33524 12.9595 8.39854 12.5913 8.3937 12.2208C8.39767 11.8468 8.33816 11.4749 8.2177 11.1208C8.11131 10.8011 7.91437 10.5193 7.65082 10.3094C7.36391 10.0956 7.01214 9.98723 6.65468 10.0024C6.31139 9.99351 5.97411 10.0936 5.69129 10.2884C5.41623 10.4866 5.20329 10.759 5.07734 11.0738C4.79793 11.7952 4.79648 12.5948 5.07324 13.3173L5.07273 13.3162Z" fill="white"/>
<path d="M17.3721 5.06976H21.9767V9.67441H17.3721V5.06976Z" fill="#50D9FF"/>
</g>
<defs>
<linearGradient id="paint0_linear" x1="14.5581" y1="12.7442" x2="14.5581" y2="22.4651" gradientUnits="userSpaceOnUse">
<stop stop-color="#35B8F1"/>
<stop offset="1" stop-color="#28A8EA"/>
</linearGradient>
<linearGradient id="paint1_linear" x1="2.95537" y1="5.87189" x2="10.3004" y2="18.5933" gradientUnits="userSpaceOnUse">
<stop stop-color="#1784D9"/>
<stop offset="0.5" stop-color="#107AD5"/>
<stop offset="1" stop-color="#0A63C9"/>
</linearGradient>
<clipPath id="clip0">
<rect width="22" height="20.4651" fill="white" transform="translate(1 2)"/>
</clipPath>
</defs>
</svg>
