<svg width="24" height="24" viewBox="0 0 24 24" fill="none" xmlns="http://www.w3.org/2000/svg">
<path fill-rule="evenodd" clip-rule="evenodd" d="M19.7741 4.22588C24.0651 8.51682 24.0651 15.4909 19.7741 19.7818C15.4832 24.0727 8.50914 24.0727 4.2182 19.7818C-0.0727336 15.4909 -0.0727336 8.51682 4.2182 4.22588C8.50914 -0.0752938 15.4729 -0.0752938 19.7741 4.22588ZM17.0091 5.29093L14.9404 7.35959C13.1483 6.21261 10.8338 6.21261 9.04166 7.35959L6.973 5.29093C9.94286 3.06866 14.0495 3.06866 17.0091 5.29093ZM18.6988 6.98068L16.6302 9.04934C17.7771 10.8415 17.7771 13.1559 16.6302 14.9481L18.6988 17.0168C20.9211 14.0571 20.9211 9.95054 18.6988 6.98068ZM17.0091 18.7167L14.9404 16.6481C13.1483 17.7951 10.8338 17.7951 9.04166 16.6481L6.973 18.7167C9.94286 20.939 14.0495 20.939 17.0091 18.7167ZM6.08204 17.9384L6.05132 17.9077L6.0718 17.9282L6.08204 17.9384ZM5.28325 17.0168L7.35191 14.9481C6.20493 13.1559 6.20493 10.8415 7.35191 9.04934L5.28325 6.98068C3.06098 9.95054 3.06098 14.0571 5.28325 17.0168ZM14.1826 14.1903C15.391 12.9818 15.391 11.0156 14.1826 9.80717C12.9742 8.59874 11.0079 8.59874 9.79949 9.80717C8.59106 11.0156 8.59106 12.9818 9.79949 14.1903C11.0079 15.3987 12.9742 15.3987 14.1826 14.1903Z" fill="#845EF7"/>
</svg>
