<svg width="24" height="24" viewBox="0 0 24 24" fill="none" xmlns="http://www.w3.org/2000/svg">
<g clip-path="url(#clip0)">
<path d="M4.39127 15.1244L3.24044 15.5449L3.1792 18.9681L7.16276 17.5129C5.79529 17.0549 4.79803 16.2478 4.39127 15.1244" fill="#FDBD39"/>
<path d="M4.9936 11.5036L1 12.9625L3.2404 15.5456L4.39122 15.1251C3.98537 14.0054 4.23583 12.7412 4.9936 11.5036Z" fill="#F69833"/>
<path d="M11.7127 6.56301C6.62765 8.42042 3.34884 12.2541 4.3909 15.1243L22.8051 8.39756C21.763 5.52736 16.7977 4.70561 11.7127 6.56301" fill="#FECF33"/>
<path d="M15.4829 16.9598C20.568 15.1024 23.8522 11.2861 22.8047 8.39856L4.39062 15.1243C5.43816 18.0128 10.3979 18.8172 15.4829 16.9598Z" fill="#EE6723"/>
<path d="M22.8043 8.39764L4.39111 15.1243C4.75126 16.1189 6.12695 16.6088 8.05565 16.6088C9.93682 16.6088 12.3445 16.1435 14.8545 15.2267C19.9396 13.3693 23.5163 10.3611 22.8043 8.39764" fill="#F69833"/>
<path d="M19.1402 6.91412C17.26 6.91412 14.8514 7.37939 12.3413 8.2962C7.25631 10.1536 3.67953 13.1609 4.3916 15.1243L22.8057 8.39766C22.4446 7.40315 21.0699 6.91412 19.1402 6.91412" fill="#FDBD39"/>
<path d="M18.1225 19.1499C17.5805 19.1499 16.7816 18.6609 15.7468 17.6956C14.5229 16.5539 13.1216 14.8811 11.799 12.9863C10.4772 11.0914 9.39131 9.19741 8.74049 7.65171C8.03209 5.96798 7.93062 4.93325 8.43976 4.57493C8.55768 4.49449 8.69753 4.45336 8.84012 4.45701C9.2542 4.45701 10.0622 4.76506 11.5549 6.23489L11.5878 6.26688L11.5832 6.31259C11.5732 6.41862 11.564 6.52465 11.5558 6.62977L11.5394 6.83727L11.3931 6.6901C9.78436 5.06944 9.07687 4.89485 8.84652 4.89485C8.78071 4.89485 8.72861 4.90765 8.69113 4.93416C8.46992 5.08955 8.4553 5.85006 9.14268 7.48169C9.78161 8.99906 10.852 10.8647 12.1564 12.7349C13.4617 14.606 14.8419 16.2532 16.0448 17.3747C17.341 18.5841 17.9251 18.7148 18.1161 18.7148C18.1819 18.7148 18.2349 18.7011 18.2751 18.6727C18.5082 18.5091 18.5082 17.6947 17.7422 15.9378L17.7066 15.8574L17.7834 15.8153C17.8602 15.7733 17.9351 15.7321 18.0046 15.6919L18.0969 15.6398L18.1399 15.7367C18.6828 16.9817 19.191 18.564 18.5247 19.032C18.4068 19.1124 18.266 19.1535 18.1225 19.1499ZM18.1225 18.9579V19.0539V18.9579Z" fill="#EE6723"/>
<path d="M15.6064 16.9068L15.5991 17.0018C15.4702 18.5923 15.132 20.5046 14.249 20.5823C14.2307 20.5841 14.2124 20.5841 14.195 20.5841C13.5954 20.5841 13.0278 19.7249 12.5095 18.0311C12.0177 16.4278 11.6366 14.276 11.4364 11.9717C11.2353 9.66727 11.238 7.48172 11.4446 5.81718C11.6695 4.00366 12.0973 3.05667 12.717 3.00183C12.7353 3 12.7545 2.99908 12.7728 2.99908C13.2079 2.99908 13.8632 3.49177 14.5342 5.7861L14.0963 5.8702C13.8724 5.1042 13.6283 4.4808 13.3861 4.05119C13.1621 3.65539 12.9437 3.43693 12.7728 3.43693C12.7673 3.43693 12.7618 3.43693 12.7554 3.43784C12.4867 3.46161 12.0954 4.11243 11.8779 5.87111C11.675 7.50548 11.6722 9.65905 11.8706 11.9333C12.0689 14.2084 12.4437 16.3282 12.9263 17.9022C13.142 18.6069 13.3788 19.1883 13.6119 19.5823C13.8258 19.9461 14.0333 20.1463 14.195 20.1463C14.2005 20.1463 14.206 20.1463 14.2115 20.1453C14.4684 20.1234 14.9528 19.4452 15.1566 17.0603L15.6064 16.9068Z" fill="#EE6723"/>
</g>
<defs>
<clipPath id="clip0">
<rect width="22" height="17.585" fill="white" transform="translate(1 3)"/>
</clipPath>
</defs>
</svg>
