<svg width="24" height="24" viewBox="0 0 24 24" fill="none" xmlns="http://www.w3.org/2000/svg">
<g clip-path="url(#clip0)">
<mask id="mask0" mask-type="alpha" maskUnits="userSpaceOnUse" x="3" y="0" width="18" height="24">
<path d="M13.8954 0.343262H4.88789C4.01364 0.343262 3.29834 1.05856 3.29834 1.93281V22.0671C3.29834 22.9414 4.01364 23.6567 4.88789 23.6567H18.664C19.5383 23.6567 20.2536 22.9414 20.2536 22.0671V6.70147L13.8954 0.343262Z" fill="white"/>
</mask>
<g mask="url(#mask0)">
<path d="M13.8954 0.343262H4.88789C4.01364 0.343262 3.29834 1.05856 3.29834 1.93281V22.0671C3.29834 22.9414 4.01364 23.6567 4.88789 23.6567H18.664C19.5383 23.6567 20.2536 22.9414 20.2536 22.0671V6.70147L16.5446 4.05222L13.8954 0.343262Z" fill="#0F9D58"/>
</g>
<mask id="mask1" mask-type="alpha" maskUnits="userSpaceOnUse" x="3" y="0" width="18" height="24">
<path d="M13.8954 0.343262H4.88789C4.01364 0.343262 3.29834 1.05856 3.29834 1.93281V22.0671C3.29834 22.9414 4.01364 23.6567 4.88789 23.6567H18.664C19.5383 23.6567 20.2536 22.9414 20.2536 22.0671V6.70147L13.8954 0.343262Z" fill="white"/>
</mask>
<g mask="url(#mask1)">
<path d="M7.53711 11.735V19.4179H16.0147V11.735H7.53711ZM11.2461 18.3582H8.59681V17.0336H11.2461V18.3582ZM11.2461 16.2388H8.59681V14.9142H11.2461V16.2388ZM11.2461 14.1194H8.59681V12.7947H11.2461V14.1194ZM14.955 18.3582H12.3058V17.0336H14.955V18.3582ZM14.955 16.2388H12.3058V14.9142H14.955V16.2388ZM14.955 14.1194H12.3058V12.7947H14.955V14.1194Z" fill="#F1F1F1"/>
</g>
<mask id="mask2" mask-type="alpha" maskUnits="userSpaceOnUse" x="3" y="0" width="18" height="24">
<path d="M13.8954 0.343262H4.88789C4.01364 0.343262 3.29834 1.05856 3.29834 1.93281V22.0671C3.29834 22.9414 4.01364 23.6567 4.88789 23.6567H18.664C19.5383 23.6567 20.2536 22.9414 20.2536 22.0671V6.70147L13.8954 0.343262Z" fill="white"/>
</mask>
<g mask="url(#mask2)">
<path d="M14.3604 6.23651L20.2536 12.1284V6.70145L14.3604 6.23651Z" fill="url(#paint0_linear)"/>
</g>
<mask id="mask3" mask-type="alpha" maskUnits="userSpaceOnUse" x="3" y="0" width="18" height="24">
<path d="M13.8954 0.343262H4.88789C4.01364 0.343262 3.29834 1.05856 3.29834 1.93281V22.0671C3.29834 22.9414 4.01364 23.6567 4.88789 23.6567H18.664C19.5383 23.6567 20.2536 22.9414 20.2536 22.0671V6.70147L13.8954 0.343262Z" fill="white"/>
</mask>
<g mask="url(#mask3)">
<path d="M13.895 0.343262V5.11192C13.895 5.99015 14.6063 6.70147 15.4846 6.70147H20.2532L13.895 0.343262Z" fill="#87CEAC"/>
</g>
<mask id="mask4" mask-type="alpha" maskUnits="userSpaceOnUse" x="3" y="0" width="18" height="24">
<path d="M13.8954 0.343262H4.88789C4.01364 0.343262 3.29834 1.05856 3.29834 1.93281V22.0671C3.29834 22.9414 4.01364 23.6567 4.88789 23.6567H18.664C19.5383 23.6567 20.2536 22.9414 20.2536 22.0671V6.70147L13.8954 0.343262Z" fill="white"/>
</mask>
<g mask="url(#mask4)">
<path d="M4.88789 0.343262C4.01364 0.343262 3.29834 1.05856 3.29834 1.93281V2.06528C3.29834 1.19102 4.01364 0.475724 4.88789 0.475724H13.8954V0.343262H4.88789Z" fill="white" fill-opacity="0.2"/>
</g>
<mask id="mask5" mask-type="alpha" maskUnits="userSpaceOnUse" x="3" y="0" width="18" height="24">
<path d="M13.8954 0.343262H4.88789C4.01364 0.343262 3.29834 1.05856 3.29834 1.93281V22.0671C3.29834 22.9414 4.01364 23.6567 4.88789 23.6567H18.664C19.5383 23.6567 20.2536 22.9414 20.2536 22.0671V6.70147L13.8954 0.343262Z" fill="white"/>
</mask>
<g mask="url(#mask5)">
<path d="M18.664 23.5242H4.88789C4.01364 23.5242 3.29834 22.8089 3.29834 21.9347V22.0672C3.29834 22.9414 4.01364 23.6567 4.88789 23.6567H18.664C19.5383 23.6567 20.2536 22.9414 20.2536 22.0672V21.9347C20.2536 22.8089 19.5383 23.5242 18.664 23.5242Z" fill="#263238" fill-opacity="0.2"/>
</g>
<mask id="mask6" mask-type="alpha" maskUnits="userSpaceOnUse" x="3" y="0" width="18" height="24">
<path d="M13.8954 0.343262H4.88789C4.01364 0.343262 3.29834 1.05856 3.29834 1.93281V22.0671C3.29834 22.9414 4.01364 23.6567 4.88789 23.6567H18.664C19.5383 23.6567 20.2536 22.9414 20.2536 22.0671V6.70147L13.8954 0.343262Z" fill="white"/>
</mask>
<g mask="url(#mask6)">
<path d="M15.4846 6.70149C14.6063 6.70149 13.895 5.99017 13.895 5.11194V5.2444C13.895 6.12263 14.6063 6.83395 15.4846 6.83395H20.2532V6.70149H15.4846Z" fill="#263238" fill-opacity="0.1"/>
</g>
<path d="M13.8954 0.343262H4.88789C4.01364 0.343262 3.29834 1.05856 3.29834 1.93281V22.0671C3.29834 22.9414 4.01364 23.6567 4.88789 23.6567H18.664C19.5383 23.6567 20.2536 22.9414 20.2536 22.0671V6.70147L13.8954 0.343262Z" fill="url(#paint1_radial)"/>
</g>
<defs>
<linearGradient id="paint0_linear" x1="17.3073" y1="6.7424" x2="17.3073" y2="12.1293" gradientUnits="userSpaceOnUse">
<stop stop-color="#263238" stop-opacity="0.2"/>
<stop offset="1" stop-color="#263238" stop-opacity="0.02"/>
</linearGradient>
<radialGradient id="paint1_radial" cx="0" cy="0" r="1" gradientUnits="userSpaceOnUse" gradientTransform="translate(3.83549 0.806665) scale(27.34)">
<stop stop-color="white" stop-opacity="0.1"/>
<stop offset="1" stop-color="white" stop-opacity="0"/>
</radialGradient>
<clipPath id="clip0">
<rect width="17.5522" height="24" fill="white" transform="translate(3)"/>
</clipPath>
</defs>
</svg>
