<svg width="24" height="24" viewBox="0 0 24 24" fill="none" xmlns="http://www.w3.org/2000/svg">
<g clip-path="url(#clip0)">
<path d="M12.3335 12C12.3335 11.0275 12.7198 10.0949 13.4074 9.40725C14.0951 8.71962 15.0277 8.33331 16.0002 8.33331C16.9726 8.33331 17.9053 8.71962 18.5929 9.40725C19.2805 10.0949 19.6668 11.0275 19.6668 12C19.6668 12.9724 19.2805 13.9051 18.5929 14.5927C17.9053 15.2803 16.9726 15.6666 16.0002 15.6666C15.0277 15.6666 14.0951 15.2803 13.4074 14.5927C12.7198 13.9051 12.3335 12.9724 12.3335 12V12Z" fill="#1ABCFE"/>
<path d="M5 19.3334C5 18.3609 5.38631 17.4283 6.07394 16.7406C6.76158 16.053 7.69421 15.6667 8.66667 15.6667H12.3333V19.3334C12.3333 20.3058 11.947 21.2384 11.2594 21.9261C10.5718 22.6137 9.63913 23 8.66667 23C7.69421 23 6.76158 22.6137 6.07394 21.9261C5.38631 21.2384 5 20.3058 5 19.3334V19.3334Z" fill="#0ACF83"/>
<path d="M12.3335 1V8.33333H16.0002C16.9726 8.33333 17.9053 7.94703 18.5929 7.25939C19.2805 6.57176 19.6668 5.63913 19.6668 4.66667C19.6668 3.69421 19.2805 2.76158 18.5929 2.07394C17.9053 1.38631 16.9726 1 16.0002 1L12.3335 1Z" fill="#FF7262"/>
<path d="M5 4.66667C5 5.63913 5.38631 6.57176 6.07394 7.25939C6.76158 7.94703 7.69421 8.33333 8.66667 8.33333H12.3333V1H8.66667C7.69421 1 6.76158 1.38631 6.07394 2.07394C5.38631 2.76158 5 3.69421 5 4.66667V4.66667Z" fill="#F24E1E"/>
<path d="M5 12C5 12.9724 5.38631 13.9051 6.07394 14.5927C6.76158 15.2803 7.69421 15.6666 8.66667 15.6666H12.3333V8.33331H8.66667C7.69421 8.33331 6.76158 8.71962 6.07394 9.40725C5.38631 10.0949 5 11.0275 5 12V12Z" fill="#A259FF"/>
</g>
<defs>
<clipPath id="clip0">
<rect width="14.6667" height="22" fill="white" transform="translate(5 1)"/>
</clipPath>
</defs>
</svg>
