<svg width="24" height="24" viewBox="0 0 24 24" fill="none" xmlns="http://www.w3.org/2000/svg">
<g clip-path="url(#clip0)">
<path fill-rule="evenodd" clip-rule="evenodd" d="M12 1C5.92265 1 1 5.92265 1 12C1 16.8619 4.15347 20.981 8.52241 22.4395C9.06937 22.5408 9.27195 22.2032 9.27195 21.9061C9.27195 21.6427 9.26519 20.954 9.25844 20.0356C6.19951 20.6974 5.55126 18.5635 5.55126 18.5635C5.05156 17.294 4.32904 16.9497 4.32904 16.9497C3.32965 16.2676 4.40331 16.2812 4.40331 16.2812C5.50399 16.3622 6.09147 17.4156 6.09147 17.4156C7.07059 19.097 8.66421 18.6108 9.2922 18.3272C9.39349 17.6182 9.6771 17.132 9.98772 16.8551C7.55003 16.585 4.98404 15.6397 4.98404 11.426C4.98404 10.2241 5.40945 9.24493 6.11848 8.47514C6.00368 8.19153 5.62554 7.07735 6.21977 5.56476C6.21977 5.56476 7.14487 5.26765 9.24493 6.69245C10.1228 6.44936 11.0614 6.32781 12 6.32106C12.9319 6.32781 13.8772 6.44936 14.7551 6.69245C16.8551 5.26765 17.7802 5.56476 17.7802 5.56476C18.3812 7.07735 18.0031 8.19828 17.8883 8.47514C18.5905 9.24493 19.016 10.2241 19.016 11.426C19.016 15.6532 16.4432 16.5783 13.992 16.8551C14.3837 17.1928 14.7416 17.868 14.7416 18.8944C14.7416 20.3665 14.7281 21.5482 14.7281 21.9128C14.7281 22.2099 14.9239 22.5476 15.4843 22.4395C19.8533 20.981 23 16.8619 23 12.0068C23 5.92265 18.0773 1 12 1Z" fill="#191717"/>
</g>
<defs>
<clipPath id="clip0">
<rect width="22" height="21.453" fill="white" transform="translate(1 1)"/>
</clipPath>
</defs>
</svg>
