<svg width="24" height="24" viewBox="0 0 24 24" fill="none" xmlns="http://www.w3.org/2000/svg">
<g clip-path="url(#clip0)">
<path d="M19.6206 9.30705C19.8008 9.48719 20.0133 9.63039 20.2479 9.73016C20.7376 9.93525 21.2891 9.93525 21.7796 9.73016C22.2526 9.52876 22.6295 9.15277 22.83 8.67977C23.0351 8.19014 23.0351 7.63862 22.83 7.14806C22.6286 6.67507 22.2526 6.29814 21.7796 6.09767C21.29 5.89258 20.7385 5.89258 20.2479 6.09767C19.7749 6.29907 19.398 6.67507 19.1975 7.14806C18.9924 7.63769 18.9924 8.18922 19.1975 8.67977C19.2973 8.9135 19.4414 9.1269 19.6206 9.30705ZM19.0442 11.1344V17.0663H20.0327C20.3726 17.0644 20.7108 17.033 21.0443 16.9702C21.3796 16.9111 21.7029 16.7984 22.0023 16.6358C22.285 16.4824 22.5289 16.2662 22.7164 16.0057C22.9132 15.7166 23.012 15.372 22.9982 15.0218V11.1344H19.0442ZM15.8403 8.64743C16.1027 8.64928 16.3632 8.59662 16.6053 8.49316C17.0783 8.29176 17.4543 7.91576 17.6547 7.44277C17.8598 6.95314 17.8598 6.40161 17.6538 5.91106C17.4524 5.43806 17.0764 5.06114 16.6034 4.86067C16.3614 4.7572 16.1009 4.70454 15.8376 4.70639C15.5761 4.70454 15.3175 4.7572 15.0773 4.86067C14.898 4.93735 14.8417 5.03712 14.595 5.15722V8.19661C14.8426 8.31763 14.898 8.41648 15.0773 8.49316C15.3184 8.59755 15.578 8.64928 15.8403 8.64743ZM14.595 18.6349C14.8426 18.6885 14.9313 18.7301 15.1068 18.7541C15.299 18.7818 15.493 18.7957 15.687 18.7966C15.9863 18.7947 16.2856 18.7633 16.5785 18.7005C16.8769 18.6405 17.1633 18.5287 17.4238 18.3707C17.6797 18.2137 17.8949 17.9993 18.0538 17.7453C18.2294 17.4487 18.3153 17.1069 18.3023 16.7623V9.8983H14.595V18.6349V18.6349ZM1 20.5269L13.8532 22.7515V1L1 3.22457V20.5269Z" fill="#5558AF"/>
<path d="M10.3923 7.67374L4.46045 8.03495V9.40314L6.68502 9.31353V15.6574L8.16776 15.7443V9.25533L10.3923 9.15648V7.67374Z" fill="white"/>
</g>
<defs>
<clipPath id="clip0">
<rect width="22" height="21.7515" fill="white" transform="translate(1 1)"/>
</clipPath>
</defs>
</svg>
