<svg width="24" height="24" viewBox="0 0 24 24" fill="none" xmlns="http://www.w3.org/2000/svg">
<path d="M21.0056 1H2.99435C1.89289 1 1 1.89289 1 2.99435V21.0056C1 22.1071 1.89289 23 2.99435 23H21.0056C22.1071 23 23 22.1071 23 21.0056V2.99435C23 1.89289 22.1071 1 21.0056 1Z" fill="#DC395F"/>
<path d="M8.00646 8.23167C8.73779 8.23167 9.35044 7.65846 9.35044 6.90719C9.35044 6.15644 8.73779 5.58331 8.00646 5.58331C7.27514 5.58331 6.66266 6.15644 6.66266 6.90719C6.66266 7.65838 7.27514 8.23167 8.00646 8.23167ZM5.21986 15.3233C5.14088 15.6593 5.10126 16.0221 5.10126 16.3181C5.10126 17.4844 5.73368 18.2586 7.07765 18.2586C8.19226 18.2586 9.09589 17.5967 9.74653 16.5279L9.34924 18.1223H11.5626L12.8276 13.0486C13.1438 11.764 13.7565 11.0972 14.6854 11.0972C15.4167 11.0972 15.8712 11.552 15.8712 12.3027C15.8712 12.5202 15.8514 12.7572 15.7724 13.0142L15.1201 15.3463C15.0213 15.6823 14.9819 16.0185 14.9819 16.3345C14.9819 17.4417 15.6339 18.2515 16.9977 18.2515C18.1638 18.2515 19.0926 17.5008 19.6065 15.7022L18.737 15.3665C18.3021 16.5715 17.9266 16.7893 17.6301 16.7893C17.3336 16.7893 17.1755 16.5918 17.1755 16.1968C17.1755 16.0189 17.2152 15.8215 17.2743 15.5838L17.9069 13.3117C18.0649 12.7782 18.1243 12.3051 18.1243 11.8705C18.1243 10.1708 17.0965 9.28373 15.8514 9.28373C14.6854 9.28373 13.4995 10.3355 12.9067 11.4425L13.3414 9.4556H9.96197L9.4876 11.2057H11.0688L10.0951 15.1038C9.3305 16.8035 7.92603 16.8311 7.74977 16.7916C7.46033 16.7263 7.27522 16.6164 7.27522 16.2403C7.27522 16.0233 7.31475 15.7117 7.41358 15.3358L8.896 9.4556H5.14088L4.6665 11.2057H6.22773L5.21994 15.3233" fill="white"/>
</svg>
