<svg width="24" height="24" viewBox="0 0 24 24" fill="none" xmlns="http://www.w3.org/2000/svg">
<path d="M2.37784 17.6864C4.03476 16.6231 5.98054 14.7908 5.24157 12.6359C4.83576 11.461 4.28109 10.4562 4.20666 9.18733C4.1432 8.11283 4.30372 7.03685 4.67804 6.02766C6.16307 2.04217 10.5774 0.154874 14.5682 1.35991C18.2631 2.46925 20.806 6.76131 19.2749 10.5005C18.3889 12.6589 17.9955 14.3247 19.9661 16.0029C20.4977 16.4583 21.7966 17.1406 21.7931 17.9522C21.7931 19.0155 19.7126 17.7271 19.4894 17.5428C19.7534 18.0036 22.3673 20.7326 20.7033 20.924C19.1721 21.1012 17.82 18.9641 16.8985 18.0444C15.3532 16.5026 15.6208 19.9139 15.6137 20.6192C15.6031 21.7321 14.8163 23.9862 13.4057 22.5189C12.2396 21.3068 12.6809 19.3717 11.871 18.0249C10.985 16.5487 9.50705 19.501 9.13845 20.0398C8.72554 20.6423 6.65749 23.5645 5.84409 22.0068C5.17777 20.7433 6.24281 18.7638 6.76559 17.6208C6.5742 18.0355 5.22208 18.6486 4.8269 18.8489C3.94084 19.299 3.0282 19.5666 2.02341 19.4957C-0.055275 19.3469 1.53963 18.2428 2.37784 17.697V17.6864Z" fill="#2F93E0"/>
</svg>
