<svg width="24" height="24" viewBox="0 0 24 24" fill="none" xmlns="http://www.w3.org/2000/svg">
<path d="M12 24C18.6273 24 24 18.6273 24 12C24 5.37274 18.6273 0 12 0C5.37274 0 0 5.37274 0 12C0 18.6273 5.37274 24 12 24ZM12 0.233677C18.4985 0.233677 23.7663 5.50149 23.7663 12C23.7663 18.4985 18.4985 23.7663 12 23.7663C5.50149 23.7663 0.233677 18.4985 0.233677 12C0.233677 5.50149 5.50149 0.233677 12 0.233677Z" fill="#E5E5E4"/>
<path d="M11.9997 23.7663C18.4982 23.7663 23.766 18.4985 23.766 11.9999C23.766 5.50145 18.4982 0.233643 11.9997 0.233643C5.50121 0.233643 0.233398 5.50145 0.233398 11.9999C0.233398 18.4985 5.50121 23.7663 11.9997 23.7663ZM11.9997 1.17751C17.9768 1.17751 22.8222 6.02287 22.8222 11.9999C22.8222 17.977 17.9768 22.8224 11.9997 22.8224C6.02263 22.8224 1.17727 17.977 1.17727 11.9999C1.17727 6.02287 6.02263 1.17751 11.9997 1.17751Z" fill="white"/>
<path d="M11.9997 22.8225C17.9768 22.8225 22.8221 17.9771 22.8221 12C22.8221 6.02291 17.9768 1.17755 11.9997 1.17755C6.02261 1.17755 1.17725 6.02291 1.17725 12C1.17725 17.9771 6.02261 22.8225 11.9997 22.8225ZM18.8267 8.59107V15.4089C18.8267 15.8625 18.5747 15.8076 18.3548 15.6426L15.2941 13.4112V10.5934L18.3548 8.35739C18.6205 8.13746 18.8267 8.19244 18.8267 8.59107ZM4.93899 8.6094C4.93899 8.40321 5.10852 8.23368 5.31929 8.23368H12.7328C13.8783 8.2291 14.8176 9.15464 14.8221 10.3047V15.3906C14.8221 15.5968 14.6526 15.7663 14.4419 15.7663H7.02833C5.88286 15.7709 4.94357 14.8454 4.93899 13.6953V8.6094V8.6094Z" fill="#4A8CFF"/>
<path d="M7.0288 15.7663H14.4423C14.6531 15.7663 14.8226 15.5968 14.8226 15.3906V10.3047C14.8181 9.15462 13.8788 8.22908 12.7333 8.23366H5.31975C5.10898 8.23366 4.93945 8.40319 4.93945 8.60938V13.6953C4.94404 14.8454 5.88333 15.7709 7.0288 15.7663Z" fill="white"/>
<path d="M18.3551 8.35741L15.2944 10.5934V13.4113L18.3551 15.6426C18.5751 15.8076 18.8271 15.8626 18.8271 15.409V8.59109C18.8271 8.19247 18.6209 8.13748 18.3551 8.35741Z" fill="white"/>
</svg>
