<svg width="24" height="24" viewBox="0 0 24 24" fill="none" xmlns="http://www.w3.org/2000/svg">
<path d="M5.62215 14.9023C5.62215 16.1742 4.58306 17.2133 3.31108 17.2133C2.03909 17.2133 1 16.1742 1 14.9023C1 13.6303 2.03909 12.5912 3.31108 12.5912H5.62215V14.9023Z" fill="#E01E5A"/>
<path d="M6.78662 14.9023C6.78662 13.6303 7.82571 12.5912 9.0977 12.5912C10.3697 12.5912 11.4088 13.6303 11.4088 14.9023V20.6889C11.4088 21.9609 10.3697 23 9.0977 23C7.82571 23 6.78662 21.9609 6.78662 20.6889V14.9023Z" fill="#E01E5A"/>
<path d="M9.0977 5.62215C7.82571 5.62215 6.78662 4.58306 6.78662 3.31108C6.78662 2.03909 7.82571 1 9.0977 1C10.3697 1 11.4088 2.03909 11.4088 3.31108V5.62215H9.0977Z" fill="#36C5F0"/>
<path d="M9.09772 6.78662C10.3697 6.78662 11.4088 7.82571 11.4088 9.0977C11.4088 10.3697 10.3697 11.4088 9.09772 11.4088H3.31108C2.03909 11.4088 1 10.3697 1 9.0977C1 7.82571 2.03909 6.78662 3.31108 6.78662H9.09772Z" fill="#36C5F0"/>
<path d="M18.3779 9.0977C18.3779 7.82571 19.417 6.78662 20.689 6.78662C21.961 6.78662 23.0001 7.82571 23.0001 9.0977C23.0001 10.3697 21.961 11.4088 20.689 11.4088H18.3779V9.0977Z" fill="#2EB67D"/>
<path d="M17.2135 9.09772C17.2135 10.3697 16.1744 11.4088 14.9024 11.4088C13.6304 11.4088 12.5913 10.3697 12.5913 9.09772V3.31108C12.5913 2.03909 13.6304 1 14.9024 1C16.1744 1 17.2135 2.03909 17.2135 3.31108V9.09772Z" fill="#2EB67D"/>
<path d="M14.9024 18.3778C16.1744 18.3778 17.2135 19.4169 17.2135 20.6889C17.2135 21.9609 16.1744 23 14.9024 23C13.6304 23 12.5913 21.9609 12.5913 20.6889V18.3778H14.9024Z" fill="#ECB22E"/>
<path d="M14.9024 17.2133C13.6304 17.2133 12.5913 16.1742 12.5913 14.9023C12.5913 13.6303 13.6304 12.5912 14.9024 12.5912H20.689C21.961 12.5912 23.0001 13.6303 23.0001 14.9023C23.0001 16.1742 21.961 17.2133 20.689 17.2133H14.9024Z" fill="#ECB22E"/>
</svg>
