<svg width="24" height="24" viewBox="0 0 24 24" fill="none" xmlns="http://www.w3.org/2000/svg">
<path d="M11.9992 22.2629L16.0521 9.79617H7.95215L11.9992 22.2629Z" fill="#E24329"/>
<path d="M2.27534 9.79623L1.04112 13.5838C0.929433 13.9277 1.05005 14.3073 1.34484 14.5217L11.9993 22.2629L2.27534 9.79623Z" fill="#FCA326"/>
<path d="M2.27539 9.79623H7.95224L5.50908 2.28809C5.38404 1.90397 4.83909 1.90397 4.70955 2.28809L2.27539 9.79623Z" fill="#E24329"/>
<path d="M21.7289 9.79623L22.9587 13.5838C23.0704 13.9277 22.9498 14.3073 22.655 14.5217L11.999 22.2629L21.7289 9.79623Z" fill="#FCA326"/>
<path d="M21.7291 9.79623H16.0522L18.4909 2.28809C18.6159 1.90397 19.1609 1.90397 19.2904 2.28809L21.7291 9.79623Z" fill="#E24329"/>
<path d="M11.999 22.2629L16.052 9.79623H21.7289L11.999 22.2629Z" fill="#FC6D26"/>
<path d="M11.9993 22.2629L2.27539 9.79623H7.95224L11.9993 22.2629Z" fill="#FC6D26"/>
</svg>
