<svg width="24" height="24" viewBox="0 0 24 24" fill="none" xmlns="http://www.w3.org/2000/svg">
<g clip-path="url(#clip0)">
<path d="M9.07224 12C9.07224 10.557 10.2433 9.38593 11.6863 9.38593C13.1293 9.38593 14.3004 10.557 14.3004 12C14.3004 13.443 13.1293 14.6141 11.6863 14.6141C10.2433 14.635 9.07224 13.443 9.07224 12ZM11.6863 1C6.54183 1 2.23384 4.51331 1.02091 9.28137C1.02091 9.32319 1 9.34411 1 9.38593C1 9.67871 1.23004 9.90874 1.52281 9.90874H5.95627C6.1654 9.90874 6.35361 9.78327 6.43726 9.59506C7.35741 7.60836 9.34411 6.22814 11.6863 6.22814C14.865 6.22814 17.4582 8.82129 17.4582 12C17.4582 15.1787 14.865 17.7719 11.6863 17.7719C9.36502 17.7719 7.35741 16.3916 6.43726 14.4049C6.35361 14.2167 6.1654 14.0913 5.95627 14.0913H1.52281C1.23004 14.0913 1 14.3213 1 14.6141C1 14.6559 1 14.6768 1.02091 14.7186C2.23384 19.4867 6.54183 23 11.6863 23C17.7719 23 22.7072 18.0646 22.7072 11.9791C22.7072 5.91445 17.7719 1 11.6863 1Z" fill="#343434"/>
</g>
<defs>
<clipPath id="clip0">
<rect width="21.7072" height="22" fill="white" transform="translate(1 1)"/>
</clipPath>
</defs>
</svg>
