<svg width="24" height="24" viewBox="0 0 24 24" fill="none" xmlns="http://www.w3.org/2000/svg">
<path d="M13.7503 2.99536C13.5674 2.69168 13.309 2.44045 13.0003 2.26605C12.6916 2.09165 12.3431 2 11.9885 2C11.634 2 11.2854 2.09165 10.9767 2.26605C10.668 2.44045 10.4097 2.69168 10.2267 2.99536L7.32846 7.95933C9.54258 9.06475 11.429 10.7301 12.8005 12.79C14.172 14.85 14.9808 17.2328 15.1466 19.702H13.1117C12.9462 17.5854 12.2309 15.5488 11.0365 13.7936C9.84221 12.0384 8.21026 10.6255 6.30219 9.69474L3.6198 14.3328C4.69246 14.8138 5.62696 15.5569 6.33736 16.4936C7.04775 17.4302 7.51125 18.5305 7.68523 19.6931H3.01196C2.95654 19.6892 2.90296 19.6716 2.85607 19.6418C2.80917 19.612 2.77043 19.571 2.74333 19.5225C2.71624 19.474 2.70165 19.4195 2.70087 19.3639C2.70009 19.3084 2.71315 19.2535 2.73888 19.2042L4.03383 17.0019C3.5951 16.6359 3.09369 16.3524 2.55389 16.1651L1.27215 18.3674C1.13872 18.5962 1.05209 18.8494 1.01731 19.112C0.982527 19.3746 1.00028 19.6416 1.06954 19.8973C1.13879 20.153 1.25817 20.3924 1.42074 20.6016C1.58331 20.8108 1.78583 20.9856 2.01653 21.1158C2.32049 21.2871 2.66308 21.378 3.01196 21.3801H9.41183C9.53069 19.9134 9.26877 18.4409 8.65143 17.1051C8.0341 15.7694 7.08228 14.6157 5.88816 13.7558L6.90562 11.9939C8.41262 13.029 9.62368 14.4391 10.4193 16.0851C11.2149 17.7311 11.5675 19.5562 11.4423 21.3801H16.8644C16.9907 18.6171 16.3896 15.8693 15.1212 13.4114C13.8528 10.9535 11.9616 8.87153 9.63646 7.37352L11.6934 3.84985C11.7392 3.77306 11.8136 3.71747 11.9002 3.6952C11.9868 3.67293 12.0787 3.68577 12.1559 3.73093C12.3893 3.85866 21.0928 19.0457 21.2558 19.2219C21.2845 19.2733 21.2991 19.3315 21.2981 19.3904C21.2971 19.4494 21.2806 19.507 21.2502 19.5575C21.2198 19.608 21.1766 19.6496 21.125 19.6781C21.0734 19.7065 21.0152 19.7208 20.9563 19.7196H18.8597C18.8861 20.2804 18.8861 20.8398 18.8597 21.3977H20.9651C21.2324 21.3995 21.4974 21.3482 21.7448 21.2468C21.9922 21.1454 22.2171 20.996 22.4063 20.8072C22.5956 20.6183 22.7455 20.3938 22.8474 20.1467C22.9493 19.8995 23.0011 19.6346 23 19.3672C23.0002 19.0141 22.9059 18.6673 22.7269 18.363L13.7503 2.99536Z" fill="#362D59"/>
</svg>
