<svg fill="none" height="144" viewBox="0 0 200 144" width="200" xmlns="http://www.w3.org/2000/svg"><rect fill="#f4f5f7" height="144" rx="4" width="200"/><circle cx="131" cy="72" fill="#8993a4" r="20"/><path d="m127.052 77v-8.7568h3.178v-1.1075h-7.587v1.1075h3.178v8.7568z" fill="#172b4d"/><path d="m131.575 74.4229c.13 1.7021 1.572 2.8095 3.664 2.8095 2.256 0 3.685-1.1553 3.685-2.9668 0-1.4492-.82-2.2422-2.864-2.7549l-1.033-.2734c-1.36-.3486-1.9-.793-1.9-1.5654 0-.9981.868-1.6543 2.181-1.6543 1.23 0 2.064.6015 2.235 1.6133h1.237c-.102-1.5928-1.524-2.7276-3.431-2.7276-2.085 0-3.487 1.1348-3.487 2.8096 0 1.4014.773 2.208 2.557 2.6592l1.265.3281c1.36.3418 1.975.875 1.975 1.7158 0 .9776-.977 1.6953-2.304 1.6953-1.401 0-2.385-.6562-2.536-1.6884z" fill="#172b4d"/><circle cx="101" cy="72" fill="#c1c7d0" r="20"/><path d="m94.0518 77v-8.7568h3.1787v-1.1075h-7.5879v1.1075h3.1787v8.7568z" fill="#172b4d"/><path d="m104.522 69.2139h.082l2.27 7.7861h1.162l2.687-9.8643h-1.286l-1.961 8.0186h-.082l-2.208-8.0186h-1.245l-2.208 8.0186h-.082l-1.9616-8.0186h-1.2851l2.6867 9.8643h1.162z" fill="#172b4d"/><circle cx="71" cy="72" fill="#dfe1e6" r="20"/><g fill="#172b4d"><path d="m62.5879 74.6963c0 1.5107 1.1621 2.5361 2.8164 2.5361 1.7842 0 2.8711-1.1006 2.8711-2.9804v-7.1163h-1.2305v7.1094c0 1.21-.5947 1.8526-1.6474 1.8526-.9297 0-1.5586-.5743-1.586-1.4014z"/><path d="m74.6582 77v-4.2451l3.5-5.6192h-1.4014l-2.6592 4.3819h-.1093l-2.6592-4.3819h-1.4014l3.5 5.6192v4.2451z"/></g></svg>