<svg fill="none" height="144" viewBox="0 0 200 144" width="200" xmlns="http://www.w3.org/2000/svg" xmlns:xlink="http://www.w3.org/1999/xlink"><clipPath id="a"><path d="m0 0h200v144h-200z"/></clipPath><g clip-path="url(#a)"><rect fill="#f4f5f7" height="144" rx="4" width="200"/><path d="m24 44h176v95c0 2.209-1.791 4-4 4h-172z" fill="#fff"/><path d="m24 28c0-2.2091 1.7909-4 4-4h172v20h-176z" fill="#ebecf0"/><g fill="#c1c7d0"><circle cx="36" cy="34" r="4"/><circle cx="48" cy="34" r="4"/><circle cx="60" cy="34" r="4"/></g><path d="m24 44h176v32h-176z" fill="#505f79"/><path d="m0 0h16v16h-16z" fill="#fff" fill-opacity=".01" transform="translate(32 52)"/><path clip-rule="evenodd" d="m40 66.6667c-3.682 0-6.6667-2.9847-6.6667-6.6667s2.9847-6.6666 6.6667-6.6666 6.6667 2.9846 6.6667 6.6666-2.9847 6.6667-6.6667 6.6667zm.6667-9.3333c0 .3682-.2985.6666-.6667.6666s-.6667-.2984-.6667-.6666.2985-.6667.6667-.6667.6667.2985.6667.6667zm-.6667 1.3333c.3682 0 .6667.2985.6667.6667v3.3333c0 .3682-.2985.6667-.6667.6667s-.6667-.2985-.6667-.6667v-3.3333c0-.3682.2985-.6667.6667-.6667z" fill="#f4f5f7" fill-rule="evenodd"/><rect fill="#dfe1e6" height="8" rx="4" width="151" x="56" y="56"/></g></svg>