<svg fill="none" height="144" viewBox="0 0 200 144" width="200" xmlns="http://www.w3.org/2000/svg"><rect fill="#f4f5f7" height="144" rx="4" width="200"/><path d="m34 36h24v24h-24z" fill="#fff" fill-opacity=".01"/><path clip-rule="evenodd" d="m42 42h8c1.1046 0 2 .8954 2 2v8c0 1.1046-.8954 2-2 2h-8c-1.1046 0-2-.8954-2-2v-8c0-1.1046.8954-2 2-2zm1.3824 5.0689c.122.0524.2324.1286.3246.2241l1.293 1.293 3.293-3.293c.0922-.0955.2026-.1717.3246-.2241s.2532-.08.386-.0811c.1328-.0012.2645.0241.3874.0744s.2345.1245.3284.2184.1681.2056.2184.3285.0756.2545.0745.3873c-.0012.1328-.0288.264-.0812.386s-.1286.2324-.2241.3246l-4 4c-.1875.1875-.4418.2928-.707.2928s-.5195-.1053-.707-.2928l-2-2c-.0955-.0922-.1717-.2026-.2241-.3246s-.08-.2532-.0811-.386c-.0012-.1328.0241-.2644.0744-.3873s.1245-.2346.2184-.3285.2056-.1681.3284-.2184c.1229-.0503.2546-.0756.3874-.0744.1328.0011.264.0287.386.0811z" fill="#505f79" fill-rule="evenodd"/><rect fill="#dfe1e6" height="8" rx="4" width="103" x="62" y="44"/><path d="m34 60h24v24h-24z" fill="#fff" fill-opacity=".01"/><path clip-rule="evenodd" d="m42 66h8c1.1046 0 2 .8954 2 2v8c0 1.1046-.8954 2-2 2h-8c-1.1046 0-2-.8954-2-2v-8c0-1.1046.8954-2 2-2zm1.3824 5.0689c.122.0524.2324.1286.3246.2241l1.293 1.293 3.293-3.293c.0922-.0955.2026-.1717.3246-.2241s.2532-.08.386-.0811c.1328-.0012.2645.0241.3874.0744s.2345.1245.3284.2184.1681.2056.2184.3285.0756.2545.0745.3873c-.0012.1328-.0288.264-.0812.386s-.1286.2324-.2241.3246l-4 4c-.1875.1875-.4418.2928-.707.2928s-.5195-.1053-.707-.2928l-2-2c-.0955-.0922-.1717-.2026-.2241-.3246s-.08-.2532-.0811-.386c-.0012-.1328.0241-.2644.0744-.3873s.1245-.2346.2184-.3285.2056-.1681.3284-.2184c.1229-.0503.2546-.0756.3874-.0744.1328.0011.264.0287.386.0811z" fill="#42526e" fill-rule="evenodd"/><rect fill="#505f79" height="12" rx="2" width="12" x="40" y="66"/><rect fill="#dfe1e6" height="8" rx="4" width="103" x="62" y="68"/><path d="m34 84h24v24h-24z" fill="#fff" fill-opacity=".01"/><path clip-rule="evenodd" d="m42 90h8c1.1046 0 2 .8954 2 2v8c0 1.105-.8954 2-2 2h-8c-1.1046 0-2-.895-2-2v-8c0-1.1046.8954-2 2-2zm1.3824 5.0689c.122.0524.2324.1286.3246.2241l1.293 1.293 3.293-3.293c.0922-.0955.2026-.1717.3246-.2241s.2532-.08.386-.0811c.1328-.0012.2645.0241.3874.0744s.2345.1245.3284.2184.1681.2056.2184.3285.0756.2545.0745.3873c-.0012.1328-.0288.264-.0812.386s-.1286.2324-.2241.3246l-4 4c-.1875.1875-.4418.2928-.707.2928s-.5195-.1053-.707-.2928l-2-2c-.0955-.0922-.1717-.2026-.2241-.3246s-.08-.2532-.0811-.386c-.0012-.1328.0241-.2644.0744-.3873s.1245-.2346.2184-.3285.2056-.1681.3284-.2184c.1229-.0503.2546-.0756.3874-.0744.1328.0011.264.0287.386.0811z" fill="#505f79" fill-rule="evenodd"/><rect fill="#dfe1e6" height="8" rx="4" width="103" x="62" y="92"/></svg>