<svg fill="none" height="144" viewBox="0 0 200 144" width="200" xmlns="http://www.w3.org/2000/svg"><rect fill="#f4f5f7" height="144" rx="4" width="200"/><path d="m24 28c0-2.2091 1.7909-4 4-4h172v120h-176z" fill="#fafbfc"/><g fill="#dfe1e6"><path d="m24 28c0-2.2091 1.7909-4 4-4h20v120h-24z"/><rect height="8" rx="4" width="64" x="56" y="36"/><rect height="8" rx="4" width="104" x="56" y="55"/><rect height="8" rx="4" width="73" x="56" y="74"/><rect height="8" rx="4" width="79" x="56" y="93"/><rect height="8" rx="4" width="113" x="56" y="112"/><rect height="8" rx="4" width="73" x="56" y="131"/></g><g fill="#8993a4"><path d="m38.9023 43v-.9082h-2.3789v-7.5469h-1.0136l-2.5196 1.6348v1.1015l2.42-1.5644h.0937v6.375h-2.4961v.9082z"/><path d="m33.0137 55.9238v.0352h.9961v-.0352c0-.9961.6445-1.6465 1.6172-1.6465.9843 0 1.623.5977 1.623 1.5059 0 .668-.2578 1.1191-1.3301 2.3203l-2.8594 3.1817v.7148h5.3497v-.9375h-3.8731v-.0996l1.9922-2.168c1.3477-1.4707 1.7461-2.1738 1.7461-3.0527 0-1.4121-1.0664-2.3731-2.6192-2.3731-1.541 0-2.6425 1.0664-2.6425 2.5547z"/><path d="m34.6777 77.0801h.9668c1.1719 0 1.916.6269 1.916 1.6113 0 .9551-.7207 1.5527-1.8808 1.5527-1.0547 0-1.8047-.5859-1.8985-1.4882h-.9785c.0762 1.4589 1.2364 2.4199 2.9063 2.4199 1.6875 0 2.8945-1.0254 2.8945-2.461 0-1.1543-.668-1.9453-1.793-2.0918v-.0937c.9083-.2227 1.4415-.9492 1.4415-1.9688 0-1.2832-1.0782-2.1914-2.5899-2.1914-1.5644 0-2.5957.9082-2.6953 2.3731h.9902c.0821-.9082.7149-1.4649 1.6641-1.4649.9551 0 1.5879.5684 1.5879 1.4297 0 .8848-.6621 1.5059-1.6113 1.5059h-.92z"/><path d="m36.6992 100h.9434v-1.7871h1.2949v-.9082h-1.2891v-2.4024h-.9375v2.4141h-2.7714v-.0762l2.83-5.6953h-1.0547l-2.871 5.8301v.8379h3.8554z"/><path d="m35.6387 119.17c1.7168 0 2.8828-1.16 2.8828-2.871 0-1.664-1.0899-2.83-2.6543-2.83-.7442 0-1.3477.263-1.7637.767h-.0937l.2343-2.759h3.8086v-.932h-4.623l-.4277 4.775h.9785c.334-.597.9609-.943 1.7168-.943 1.0839 0 1.8164.785 1.8164 1.945 0 1.149-.7266 1.916-1.8164 1.916-.9903 0-1.7461-.609-1.8399-1.494h-.9961c.0879 1.453 1.2012 2.426 2.7774 2.426z"/><path d="m38.6094 135.287c0-1.541-1.1133-2.683-2.6192-2.683-.539 0-1.1484.251-1.4004.591l-.0878-.047c.041-.093.0175-.07.2753-.433l2.3086-3.17h-1.1894c-.0586.088-1.8164 2.549-1.8926 2.678-.8086 1.177-1.1426 2.074-1.1426 3.064 0 1.682 1.2012 2.889 2.8653 2.889 1.6757 0 2.8828-1.213 2.8828-2.889zm-2.877 1.969c-1.0605 0-1.8691-.832-1.8691-1.916 0-1.09.8086-1.922 1.8691-1.922 1.0664 0 1.875.832 1.875 1.922 0 1.084-.8086 1.916-1.875 1.916z"/></g></svg>