<svg fill="none" height="144" viewBox="0 0 200 144" width="200" xmlns="http://www.w3.org/2000/svg"><rect fill="#f4f5f7" height="144" rx="4" width="200"/><rect fill="#fff" height="38" rx="3" stroke="#dfe1e6" stroke-width="2" width="175" x="12.5" y="59"/><path d="m156.5 66h24v24h-24z" fill="#fff" fill-opacity=".01"/><path clip-rule="evenodd" d="m161.495 71h14.01c1.102 0 1.995.895 1.995 1.994v12.012c0 .2619-.052.5213-.152.7633s-.247.4619-.432.647c-.186.1852-.406.3321-.648.4322-.242.1002-.501.1516-.763.1515h-14.01c-.529 0-1.036-.2101-1.41-.584s-.585-.8811-.585-1.41v-12.012c0-1.101.892-1.994 1.995-1.994zm.005 4v9c0 .2652.105.5196.293.7071.187.1875.442.2929.707.2929h12c.265 0 .52-.1054.707-.2929.188-.1875.293-.4419.293-.7071v-9zm1-5c0-.2652.105-.5196.293-.7071.187-.1875.442-.2929.707-.2929s.52.1054.707.2929c.188.1875.293.4419.293.7071v1h-2zm10 0c0-.2652.105-.5196.293-.7071.187-.1875.442-.2929.707-.2929s.52.1054.707.2929c.188.1875.293.4419.293.7071v1h-2zm-9 9v-2.001h2v2.001zm8 0v-2.001h2v2.001zm-4 0v-2.001h2.001v2.001zm-4 4v-2h2v2zm4 0v-2h2.001v2zm4 0v-2h2v2z" fill="#505f79" fill-rule="evenodd"/><rect fill="#dfe1e6" height="8" rx="4" width="60" x="11.5" y="46"/></svg>