<svg fill="none" height="144" viewBox="0 0 200 144" width="200" xmlns="http://www.w3.org/2000/svg" xmlns:xlink="http://www.w3.org/1999/xlink"><filter id="a" color-interpolation-filters="sRGB" filterUnits="userSpaceOnUse" height="108" width="176" x="12" y="58"><feFlood flood-opacity="0" result="BackgroundImageFix"/><feColorMatrix in="SourceAlpha" type="matrix" values="0 0 0 0 0 0 0 0 0 0 0 0 0 0 0 0 0 0 127 0"/><feOffset/><feGaussianBlur stdDeviation=".5"/><feColorMatrix type="matrix" values="0 0 0 0 0.0352941 0 0 0 0 0.117647 0 0 0 0 0.258824 0 0 0 0.31 0"/><feBlend in2="BackgroundImageFix" mode="normal" result="effect1_dropShadow"/><feColorMatrix in="SourceAlpha" type="matrix" values="0 0 0 0 0 0 0 0 0 0 0 0 0 0 0 0 0 0 127 0"/><feOffset dy="8"/><feGaussianBlur stdDeviation="6"/><feColorMatrix type="matrix" values="0 0 0 0 0.0352941 0 0 0 0 0.117647 0 0 0 0 0.258824 0 0 0 0.15 0"/><feBlend in2="effect1_dropShadow" mode="normal" result="effect2_dropShadow"/><feBlend in="SourceGraphic" in2="effect2_dropShadow" mode="normal" result="shape"/></filter><clipPath id="b"><path d="m0 0h200v144h-200z"/></clipPath><g clip-path="url(#b)"><rect fill="#f4f5f7" height="144" rx="4" width="200"/><rect fill="#dfe1e6" height="32" rx="3" width="32" x="24" y="24"/><path d="m0 0h24v24h-24z" fill="#fff" fill-opacity=".01" transform="translate(28 28)"/><g fill="#42526e"><path d="m33 42c1.1046 0 2-.8954 2-2s-.8954-2-2-2-2 .8954-2 2 .8954 2 2 2z"/><path d="m40 42c1.1046 0 2-.8954 2-2s-.8954-2-2-2-2 .8954-2 2 .8954 2 2 2z"/><path d="m47 42c1.1046 0 2-.8954 2-2s-.8954-2-2-2-2 .8954-2 2 .8954 2 2 2z"/></g><g filter="url(#a)"><path d="m24 66c0-2.2091 1.7909-4 4-4h144c2.209 0 4 1.7909 4 4v80h-152z" fill="#fafbfc"/></g><g fill="#dfe1e6"><rect height="8" rx="4" width="120" x="40" y="85"/><rect height="8" rx="4" width="120" x="40" y="105"/><rect height="8" rx="4" width="120" x="40" y="125"/></g></g></svg>