<svg width="200" height="144" viewBox="0 0 200 144" fill="none" xmlns="http://www.w3.org/2000/svg">
<g clip-path="url(#clip0)">
<rect width="200" height="144" rx="4" fill="#F4F5F7"/>
<rect width="24" height="24" transform="translate(24 101)" fill="white" fill-opacity="0.01"/>
<path fill-rule="evenodd" clip-rule="evenodd" d="M32 107H40C41.1046 107 42 107.895 42 109V117C42 118.105 41.1046 119 40 119H32C30.8954 119 30 118.105 30 117V109C30 107.895 30.8954 107 32 107ZM33.3824 112.069C33.5044 112.121 33.6148 112.198 33.707 112.293L35 113.586L38.293 110.293C38.3852 110.198 38.4956 110.121 38.6176 110.069C38.7396 110.017 38.8708 109.989 39.0036 109.988C39.1364 109.987 39.2681 110.012 39.391 110.062C39.5139 110.112 39.6255 110.187 39.7194 110.281C39.8133 110.375 39.8875 110.486 39.9378 110.609C39.9881 110.732 40.0134 110.864 40.0123 110.996C40.0111 111.129 39.9835 111.26 39.9311 111.382C39.8787 111.504 39.8025 111.615 39.707 111.707L35.707 115.707C35.5195 115.894 35.2652 116 35 116C34.7348 116 34.4805 115.894 34.293 115.707L32.293 113.707C32.1975 113.615 32.1213 113.504 32.0689 113.382C32.0165 113.26 31.9889 113.129 31.9878 112.996C31.9866 112.864 32.0119 112.732 32.0622 112.609C32.1125 112.486 32.1867 112.375 32.2806 112.281C32.3745 112.187 32.4862 112.112 32.609 112.062C32.7319 112.012 32.8636 111.987 32.9964 111.988C33.1292 111.989 33.2604 112.017 33.3824 112.069Z" fill="#505F79"/>
<rect x="52" y="109" width="124" height="8" rx="4" fill="#DFE1E6"/>
<rect width="24" height="24" transform="translate(24 125)" fill="white" fill-opacity="0.01"/>
<path fill-rule="evenodd" clip-rule="evenodd" d="M32 131H40C41.1046 131 42 131.895 42 133V141C42 142.105 41.1046 143 40 143H32C30.8954 143 30 142.105 30 141V133C30 131.895 30.8954 131 32 131ZM33.3824 136.069C33.5044 136.121 33.6148 136.198 33.707 136.293L35 137.586L38.293 134.293C38.3852 134.198 38.4956 134.121 38.6176 134.069C38.7396 134.017 38.8708 133.989 39.0036 133.988C39.1364 133.987 39.2681 134.012 39.391 134.062C39.5139 134.112 39.6255 134.187 39.7194 134.281C39.8133 134.375 39.8875 134.486 39.9378 134.609C39.9881 134.732 40.0134 134.864 40.0123 134.996C40.0111 135.129 39.9835 135.26 39.9311 135.382C39.8787 135.504 39.8025 135.615 39.707 135.707L35.707 139.707C35.5195 139.894 35.2652 140 35 140C34.7348 140 34.4805 139.894 34.293 139.707L32.293 137.707C32.1975 137.615 32.1213 137.504 32.0689 137.382C32.0165 137.26 31.9889 137.129 31.9878 136.996C31.9866 136.864 32.0119 136.732 32.0622 136.609C32.1125 136.486 32.1867 136.375 32.2806 136.281C32.3745 136.187 32.4862 136.112 32.609 136.062C32.7319 136.012 32.8636 135.987 32.9964 135.988C33.1292 135.989 33.2604 136.017 33.3824 136.069Z" fill="#42526E"/>
<rect x="30" y="131" width="12" height="12" rx="2" fill="#505F79"/>
<rect x="52" y="133" width="124" height="8" rx="4" fill="#DFE1E6"/>
<rect x="24" y="43" width="60" height="8" rx="4" fill="#DFE1E6"/>
<rect x="25" y="56" width="150" height="30" rx="3" fill="white" stroke="#DFE1E6" stroke-width="2"/>
</g>
<defs>
<clipPath id="clip0">
<rect width="200" height="144" fill="white"/>
</clipPath>
</defs>
</svg>
