<svg fill="none" height="144" viewBox="0 0 200 144" width="200" xmlns="http://www.w3.org/2000/svg" xmlns:xlink="http://www.w3.org/1999/xlink"><filter id="a" color-interpolation-filters="sRGB" filterUnits="userSpaceOnUse" height="62" width="176" x="11" y="63"><feFlood flood-opacity="0" result="BackgroundImageFix"/><feColorMatrix in="SourceAlpha" type="matrix" values="0 0 0 0 0 0 0 0 0 0 0 0 0 0 0 0 0 0 127 0"/><feOffset/><feGaussianBlur stdDeviation=".5"/><feColorMatrix type="matrix" values="0 0 0 0 0.0352941 0 0 0 0 0.117647 0 0 0 0 0.258824 0 0 0 0.31 0"/><feBlend in2="BackgroundImageFix" mode="normal" result="effect1_dropShadow"/><feColorMatrix in="SourceAlpha" type="matrix" values="0 0 0 0 0 0 0 0 0 0 0 0 0 0 0 0 0 0 127 0"/><feOffset dy="8"/><feGaussianBlur stdDeviation="6"/><feColorMatrix type="matrix" values="0 0 0 0 0.0352941 0 0 0 0 0.117647 0 0 0 0 0.258824 0 0 0 0.15 0"/><feBlend in2="effect1_dropShadow" mode="normal" result="effect2_dropShadow"/><feBlend in="SourceGraphic" in2="effect2_dropShadow" mode="normal" result="shape"/></filter><clipPath id="b"><path d="m32.4572 84h130v12h-130z"/></clipPath><rect fill="#f4f5f7" height="144" rx="4" width="200"/><path d="m26 40h24v24h-24z" fill="#fff" fill-opacity=".01"/><path clip-rule="evenodd" d="m37.062 44.967c.516-.974 1.358-.978 1.876 0l7.124 13.458c.516.974.045 1.771-1.057 1.771h-14.01c-1.102 0-1.575-.793-1.057-1.771zm.2309 9.7401c.1875.1875.4419.2929.7071.2929s.5196-.1054.7071-.2929c.1876-.1875.2929-.4419.2929-.7071v-5c0-.2652-.1053-.5196-.2929-.7071-.1875-.1876-.4419-.2929-.7071-.2929s-.5196.1053-.7071.2929c-.1875.1875-.2929.4419-.2929.7071v5c0 .2652.1054.5196.2929.7071zm0 3c.1875.1875.4419.2929.7071.2929s.5196-.1054.7071-.2929c.1876-.1875.2929-.4419.2929-.7071s-.1053-.5196-.2929-.7071c-.1875-.1876-.4419-.2929-.7071-.2929s-.5196.1053-.7071.2929c-.1875.1875-.2929.4419-.2929.7071s.1054.5196.2929.7071z" fill="#42526e" fill-rule="evenodd"/><rect fill="#c1c7d0" height="8" rx="4" width="116" x="58" y="48"/><g filter="url(#a)"><rect fill="#fff" height="38" rx="4" width="152" x="23" y="67"/></g><rect fill="#c1c7d0" height="4" rx="2" width="52.857" x="32.457" y="76"/><g clip-path="url(#b)" fill="#dfe1e6"><rect height="4" rx="2" width="130" x="32.457" y="84"/><rect height="4" rx="2" width="130" x="32.457" y="92"/></g></svg>