<svg fill="none" height="144" viewBox="0 0 200 144" width="200" xmlns="http://www.w3.org/2000/svg" xmlns:xlink="http://www.w3.org/1999/xlink"><filter id="a" color-interpolation-filters="sRGB" filterUnits="userSpaceOnUse" height="78" width="125" x="38" y="48"><feFlood flood-opacity="0" result="BackgroundImageFix"/><feColorMatrix in="SourceAlpha" type="matrix" values="0 0 0 0 0 0 0 0 0 0 0 0 0 0 0 0 0 0 127 0"/><feOffset/><feGaussianBlur stdDeviation=".5"/><feColorMatrix type="matrix" values="0 0 0 0 0.0352941 0 0 0 0 0.117647 0 0 0 0 0.258824 0 0 0 0.31 0"/><feBlend in2="BackgroundImageFix" mode="normal" result="effect1_dropShadow"/><feColorMatrix in="SourceAlpha" type="matrix" values="0 0 0 0 0 0 0 0 0 0 0 0 0 0 0 0 0 0 127 0"/><feOffset dy="8"/><feGaussianBlur stdDeviation="6"/><feColorMatrix type="matrix" values="0 0 0 0 0.0352941 0 0 0 0 0.117647 0 0 0 0 0.258824 0 0 0 0.15 0"/><feBlend in2="effect1_dropShadow" mode="normal" result="effect2_dropShadow"/><feBlend in="SourceGraphic" in2="effect2_dropShadow" mode="normal" result="shape"/></filter><clipPath id="b"><path d="m59.4572 68h80v28h-80z"/></clipPath><rect fill="#f4f5f7" height="144" rx="4" width="200"/><rect fill="#dfe1e6" height="16" rx="3" width="50" x="50" y="32"/><g filter="url(#a)"><rect fill="#fff" height="54" rx="4" width="101" x="50" y="52"/></g><path d="m59 81h12v12h-12z" fill="#fff" fill-opacity=".01"/><path clip-rule="evenodd" d="m63 84h4c.5523 0 1 .4477 1 1v4c0 .5523-.4477 1-1 1h-4c-.5523 0-1-.4477-1-1v-4c0-.5523.4477-1 1-1zm.6912 2.5345c.061.0262.1162.0643.1623.112l.6465.6465 1.6465-1.6465c.0461-.0477.1013-.0858.1623-.112s.1266-.04.193-.0406.1322.0121.1937.0372c.0614.0251.1173.0623.1642.1092.0469.047.0841.1028.1092.1642.0252.0615.0378.1273.0372.1937s-.0143.132-.0405.193c-.0263.061-.0643.1162-.1121.1623l-2 2c-.0938.0937-.2209.1464-.3535.1464s-.2597-.0527-.3535-.1464l-1-1c-.0478-.0461-.0858-.1013-.1121-.1623-.0262-.061-.0399-.1266-.0405-.193s.012-.1322.0372-.1937c.0251-.0614.0623-.1172.1092-.1642.0469-.0469.1028-.0841.1642-.1092.0615-.0251.1273-.0378.1937-.0372s.132.0144.193.0406z" fill="#505f79" fill-rule="evenodd"/><rect fill="#dfe1e6" height="4" rx="2" width="68" x="71" y="85"/><path d="m59 90h12v12h-12z" fill="#fff" fill-opacity=".01"/><path clip-rule="evenodd" d="m63 93h4c.5523 0 1 .4477 1 1v4c0 .5523-.4477 1-1 1h-4c-.5523 0-1-.4477-1-1v-4c0-.5523.4477-1 1-1zm.6912 2.5345c.061.0262.1162.0643.1623.112l.6465.6465 1.6465-1.6465c.0461-.0477.1013-.0858.1623-.112s.1266-.04.193-.0406.1322.0121.1937.0372c.0614.0251.1173.0623.1642.1092.0469.047.0841.1028.1092.1642.0252.0615.0378.1273.0372.1937s-.0143.132-.0405.193c-.0263.061-.0643.1162-.1121.1623l-2 2c-.0938.0937-.2209.1464-.3535.1464s-.2597-.0527-.3535-.1464l-1-1c-.0478-.0461-.0858-.1013-.1121-.1623-.0262-.061-.0399-.1266-.0405-.193s.012-.1322.0372-.1937c.0251-.0614.0623-.1172.1092-.1642.0469-.0469.1028-.0841.1642-.1092.0615-.0251.1273-.0378.1937-.0372s.132.0144.193.0406z" fill="#505f79" fill-rule="evenodd"/><rect fill="#dfe1e6" height="4" rx="2" width="68" x="71" y="94"/><rect fill="#c1c7d0" height="4" rx="2" width="52.8571" x="59.4572" y="60"/><g clip-path="url(#b)" fill="#dfe1e6"><rect height="4" rx="2" width="80" x="59.4572" y="68"/><rect height="4" rx="2" width="80" x="59.4572" y="76"/></g></svg>