<svg fill="none" height="144" viewBox="0 0 200 144" width="200" xmlns="http://www.w3.org/2000/svg"><rect fill="#f4f5f7" height="144" rx="4" width="200"/><rect fill="#dfe1e6" height="8" rx="4" width="60" x="24" y="39"/><rect fill="#fff" height="32" rx="4" width="152" x="24" y="51"/><rect fill="#ebecf0" height="32" rx="4" width="32" x="108" y="87"/><path d="m115 94h18v18h-18z" fill="#fff" fill-opacity=".01"/><path d="m120.051 103.241c-.135-.144-.322-.228-.52-.235-.197-.007-.389.064-.535.198-.145.134-.232.32-.24.517-.009.198.06.391.193.537l2.709 2.94c.402.394 1.002.394 1.375.022l.273-.269c.986-.97 1.971-1.94 2.954-2.912l.03-.03c.92-.906 1.834-1.817 2.744-2.733.136-.142.21-.332.208-.529-.003-.197-.084-.384-.224-.523-.14-.138-.329-.215-.526-.216-.197 0-.386.077-.526.215-.906.911-1.816 1.817-2.73 2.719l-.03.03c-.943.932-1.886 1.862-2.831 2.792z" fill="#42526e"/><rect fill="#ebecf0" height="32" rx="4" width="32" x="144" y="87"/><path d="m152 95h16v16h-16z" fill="#fff" fill-opacity=".01"/><path d="m160 102.057-3.529-3.5283c-.125-.1214-.294-.1886-.469-.1871-.174.0015-.342.0716-.465.1952-.124.1236-.194.2909-.195.4657-.002.1748.065.3432.187.4689l3.528 3.5286-3.528 3.529c-.122.125-.189.294-.187.469.001.174.071.342.195.465.123.124.291.194.465.196.175.001.344-.066.469-.188l3.529-3.528 3.529 3.528c.125.122.294.189.469.188.174-.002.342-.072.465-.196.124-.123.194-.291.195-.465.002-.175-.065-.344-.187-.469l-3.528-3.529 3.528-3.5286c.064-.0615.115-.1351.15-.2164s.053-.1688.054-.2573c.001-.0886-.016-.1764-.05-.2583-.033-.0819-.083-.1563-.145-.2189-.063-.0626-.137-.1121-.219-.1457-.082-.0335-.17-.0503-.259-.0496-.088.0008-.176.0192-.257.0541-.081.035-.155.0857-.216.1494z" fill="#42526e"/></svg>
