<svg fill="none" height="144" viewBox="0 0 200 144" width="200" xmlns="http://www.w3.org/2000/svg" xmlns:xlink="http://www.w3.org/1999/xlink"><linearGradient id="a" gradientUnits="userSpaceOnUse" x1="53.3402" x2="47.1599" y1="71.8324" y2="82.5369"><stop offset="0" stop-color="#344563"/><stop offset=".9228" stop-color="#7a869a"/></linearGradient><rect fill="#f4f5f7" height="144" rx="4" width="200"/><path d="m39 56h32v32h-32z" fill="#fff" fill-opacity=".01"/><path d="m50.1397 70.0398c-.3608-.3968-.9019-.3608-1.1545.1082l-5.8443 11.7248c-.2164.469.1082 1.0101.6133 1.0101h8.1532c.2525 0 .5051-.1443.6133-.3968 1.7678-3.6437.6854-9.1634-2.381-12.4463z" fill="url(#a)"/><path d="m54.4343 59.3612c-3.2829 5.195-3.0664 10.9311-.9019 15.2603 2.1646 4.3291 3.8241 7.6121 3.9323 7.8646.1083.2525.3608.3968.6133.3968h8.1533c.5051 0 .8658-.5411.6133-1.0101 0 0-10.9672-21.9343-11.2558-22.4755-.2165-.505-.8298-.5411-1.1545-.0361z" fill="#7a869a"/><rect fill="#dfe1e6" height="24" rx="4" width="90" x="71" y="60"/></svg>