<svg fill="none" height="144" viewBox="0 0 200 144" width="200" xmlns="http://www.w3.org/2000/svg"><rect fill="#f4f5f7" height="144" rx="4" width="200"/><path d="m34 60h24v24h-24z" fill="#fff" fill-opacity=".01"/><path clip-rule="evenodd" d="m43.005 70.9951 4.593-4.593c.0916-.0935.2008-.1679.3213-.2189s.2499-.0775.3808-.0782c.1308-.0007.2605.0246.3815.0744s.231.123.3235.2155c.0925.0926.1658.2025.2156.3235.0497.1211.075.2507.0744.3816-.0007.1308-.0273.2602-.0783.3808-.051.1205-.1253.2297-.2188.3213l-3.9 3.9 3.9 3.9c.1826.1862.2842.4371.2829.6979s-.1055.5106-.2899.695c-.1845.1845-.4342.2887-.6951.29-.2608.0013-.5116-.1004-.6979-.2829l-4.593-4.592c-.1875-.1876-.2928-.4419-.2928-.707 0-.2652.1053-.5195.2928-.707z" fill="#c1c7d0" fill-rule="evenodd"/><path clip-rule="evenodd" d="m65 62c-1.6569 0-3 1.3431-3 3v14c0 1.6569 1.3431 3 3 3h14c1.6569 0 3-1.3431 3-3v-14c0-1.6569-1.3431-3-3-3z" fill="#505f79" fill-rule="evenodd"/><path d="m73.132 76v-7.884h-1.044l-2.028.636v1.344l1.632-.6v6.504z" fill="#fff"/><path clip-rule="evenodd" d="m93 62c-1.6569 0-3 1.3431-3 3v14c0 1.6569 1.3431 3 3 3h14c1.657 0 3-1.3431 3-3v-14c0-1.6569-1.343-3-3-3z" fill="#dfe1e6" fill-rule="evenodd"/><path clip-rule="evenodd" d="m121 62c-1.657 0-3 1.3431-3 3v14c0 1.6569 1.343 3 3 3h14c1.657 0 3-1.3431 3-3v-14c0-1.6569-1.343-3-3-3z" fill="#dfe1e6" fill-rule="evenodd"/><path d="m142 60h24v24h-24z" fill="#fff" fill-opacity=".01"/><path clip-rule="evenodd" d="m156.995 70.9949c.187.1876.293.4419.293.707 0 .2652-.106.5195-.293.707l-4.593 4.593c-.186.1826-.437.2843-.698.283-.261-.0014-.511-.1056-.695-.29s-.289-.4342-.29-.695c-.001-.2609.1-.5117.283-.698l3.9-3.9-3.9-3.9c-.183-.1862-.284-.4371-.283-.6979s.106-.5106.29-.695c.184-.1845.434-.2887.695-.29s.512.1004.698.2829z" fill="#c1c7d0" fill-rule="evenodd"/></svg>