<svg fill="none" height="144" viewBox="0 0 200 144" width="200" xmlns="http://www.w3.org/2000/svg"><rect fill="#f4f5f7" height="144" rx="4" width="200"/><path clip-rule="evenodd" d="m46 54c3.3137 0 6-2.6863 6-6s-2.6863-6-6-6-6 2.6863-6 6 2.6863 6 6 6z" fill="#505f79" fill-rule="evenodd"/><circle cx="46" cy="48" fill="#fff" r="3"/><rect fill="#dfe1e6" height="8" rx="4" width="103" x="62" y="44"/><path clip-rule="evenodd" d="m46 78c3.3137 0 6-2.6863 6-6s-2.6863-6-6-6-6 2.6863-6 6 2.6863 6 6 6z" fill="#505f79" fill-rule="evenodd"/><rect fill="#dfe1e6" height="8" rx="4" width="103" x="62" y="68"/><path clip-rule="evenodd" d="m46 102c3.3137 0 6-2.6863 6-6s-2.6863-6-6-6-6 2.6863-6 6 2.6863 6 6 6z" fill="#505f79" fill-rule="evenodd"/><rect fill="#dfe1e6" height="8" rx="4" width="103" x="62" y="92"/></svg>