<svg fill="none" height="144" viewBox="0 0 200 144" width="200" xmlns="http://www.w3.org/2000/svg" xmlns:xlink="http://www.w3.org/1999/xlink"><clipPath id="a"><path d="m0 0h200v144h-200z"/></clipPath><g clip-path="url(#a)"><rect fill="#f4f5f7" height="144" rx="4" width="200"/><rect fill="#fff" height="80" rx="3" width="203" x="24" y="32"/><path clip-rule="evenodd" d="m46 72c-5.523 0-10-4.477-10-10s4.477-10 10-10 10 4.477 10 10-4.477 10-10 10zm1-14c0 .5523-.4477 1-1 1s-1-.4477-1-1 .4477-1 1-1 1 .4477 1 1zm-1 2c.5523 0 1 .4477 1 1v5c0 .5523-.4477 1-1 1s-1-.4477-1-1v-5c0-.5523.4477-1 1-1z" fill="#505f79" fill-rule="evenodd"/><g fill="#dfe1e6"><rect height="8" rx="4" width="151" x="64" y="52"/><rect height="8" rx="4" width="151" x="64" y="68"/><rect height="8" rx="4" width="151" x="64" y="84"/></g></g></svg>