<svg fill="none" height="144" viewBox="0 0 200 144" width="200" xmlns="http://www.w3.org/2000/svg" xmlns:xlink="http://www.w3.org/1999/xlink"><filter id="a" color-interpolation-filters="sRGB" filterUnits="userSpaceOnUse" height="108" width="176" x="12" y="58"><feFlood flood-opacity="0" result="BackgroundImageFix"/><feColorMatrix in="SourceAlpha" type="matrix" values="0 0 0 0 0 0 0 0 0 0 0 0 0 0 0 0 0 0 127 0"/><feOffset/><feGaussianBlur stdDeviation=".5"/><feColorMatrix type="matrix" values="0 0 0 0 0.0352941 0 0 0 0 0.117647 0 0 0 0 0.258824 0 0 0 0.31 0"/><feBlend in2="BackgroundImageFix" mode="normal" result="effect1_dropShadow"/><feColorMatrix in="SourceAlpha" type="matrix" values="0 0 0 0 0 0 0 0 0 0 0 0 0 0 0 0 0 0 127 0"/><feOffset dy="8"/><feGaussianBlur stdDeviation="6"/><feColorMatrix type="matrix" values="0 0 0 0 0.0352941 0 0 0 0 0.117647 0 0 0 0 0.258824 0 0 0 0.15 0"/><feBlend in2="effect1_dropShadow" mode="normal" result="effect2_dropShadow"/><feBlend in="SourceGraphic" in2="effect2_dropShadow" mode="normal" result="shape"/></filter><clipPath id="b"><path d="m0 0h200v144h-200z"/></clipPath><mask id="c" height="7" maskUnits="userSpaceOnUse" width="12" x="152" y="36"><path clip-rule="evenodd" d="m157.293 42.6971-4.593-4.5928c-.387-.3866-.387-1.0134 0-1.4s1.013-.3866 1.4 0l3.9 3.9 3.9-3.9c.387-.3866 1.013-.3866 1.4 0s.387 1.0134 0 1.4l-4.593 4.5928c-.39.3906-1.024.3906-1.414 0z" fill="#fff" fill-rule="evenodd"/></mask><g clip-path="url(#b)"><rect fill="#f4f5f7" height="144" rx="4" width="200"/><g filter="url(#a)"><path d="m24 66c0-2.2091 1.7909-4 4-4h144c2.209 0 4 1.7909 4 4v80h-152z" fill="#fafbfc"/></g><rect fill="#fff" height="32" rx="4" width="152" x="24" y="24"/><path clip-rule="evenodd" d="m157.293 42.6971-4.593-4.5928c-.387-.3866-.387-1.0134 0-1.4s1.013-.3866 1.4 0l3.9 3.9 3.9-3.9c.387-.3866 1.013-.3866 1.4 0s.387 1.0134 0 1.4l-4.593 4.5928c-.39.3906-1.024.3906-1.414 0z" fill="#fff" fill-rule="evenodd"/><g mask="url(#c)"><path clip-rule="evenodd" d="m146 52h24v-24h-24z" fill="#505f79" fill-rule="evenodd"/></g><path d="m0 0h152v24h-152z" fill="#ebecf0" transform="translate(24 71)"/><g fill="#dfe1e6"><rect height="8" rx="4" width="120" x="40" y="79"/><rect height="8" rx="4" width="120" x="40" y="103"/><rect height="8" rx="4" width="120" x="40" y="127"/></g></g></svg>