<svg fill="none" height="144" viewBox="0 0 200 144" width="200" xmlns="http://www.w3.org/2000/svg"><rect fill="#f4f5f7" height="144" rx="4" width="200"/><rect fill="#f4f5f7" height="144" rx="4" width="200"/><rect fill="#fff" height="16" rx="3" width="66" x="67" y="64"/><rect fill="#dfe1e6" height="8" rx="4" width="48" x="71" y="68"/><path clip-rule="evenodd" d="m128.77 73.6623c.307.3064.307.8017 0 1.1081-.153.1528-.353.2296-.554.2296-.2 0-.401-.0768-.554-.2296l-1.662-1.6622-1.663 1.6622c-.153.1528-.353.2296-.554.2296-.2 0-.4-.0768-.554-.2296-.305-.3064-.305-.8017 0-1.1081l1.662-1.6622-1.662-1.6622c-.305-.3064-.305-.8025 0-1.1081.307-.3064.803-.3064 1.108 0l1.663 1.6622 1.662-1.6622c.307-.3064.802-.3064 1.108 0 .307.3056.307.8017 0 1.1081l-1.662 1.6622z" fill="#8993a4" fill-rule="evenodd"/></svg>