<svg fill="none" height="144" viewBox="0 0 200 144" width="200" xmlns="http://www.w3.org/2000/svg"><rect fill="#f4f5f7" height="144" rx="4" width="200"/><path d="m84 61c0-4.4183 3.5817-8 8-8h16c4.418 0 8 3.5817 8 8s-3.582 8-8 8h-16c-4.4183 0-8-3.5817-8-8z" fill="#8993a4"/><g fill="#fff"><path d="m103 57h8v8h-8z" fill-opacity=".01"/><path d="m107 60.5287-1.764-1.7643c-.063-.0608-.147-.0944-.235-.0936-.087.0008-.171.0358-.233.0976-.061.0618-.096.1454-.097.2328s.033.1716.093.2345l1.765 1.7643-1.765 1.7644c-.06.0628-.094.147-.093.2344s.036.171.097.2328c.062.0618.146.0969.233.0977.088.0007.172-.0329.235-.0936l1.764-1.7643 1.764 1.7643c.063.0607.147.0943.235.0936.087-.0008.171-.0359.233-.0977.061-.0618.096-.1454.097-.2328s-.033-.1716-.093-.2344l-1.765-1.7644 1.765-1.7643c.032-.0308.057-.0675.074-.1082.018-.0407.027-.0844.027-.1287.001-.0442-.008-.0881-.024-.1291-.017-.041-.042-.0782-.073-.1095s-.069-.056-.11-.0728c-.041-.0167-.085-.0252-.129-.0248s-.088.0096-.128.0271c-.041.0174-.078.0428-.109.0747z" stroke="#fff" stroke-width="1.5"/><circle cx="92.4" cy="61" r="6"/></g><path d="m84 83c0-4.4183 3.5817-8 8-8h16c4.418 0 8 3.5817 8 8s-3.582 8-8 8h-16c-4.4183 0-8-3.5817-8-8z" fill="#8993a4"/><g fill="#fff"><path d="m87.2 76.6001h12v12h-12z" fill-opacity=".01"/><path d="m90.5675 82.7611c-.0903-.096-.2148-.1525-.3465-.1572s-.2599.0428-.3568.1321c-.0969.0894-.1545.2134-.1605.345-.0059.1317.0404.2603.1288.3581l1.806 1.9595c.2685.263.6685.263.917.015l.182-.1795c.6572-.6464 1.3137-1.2936 1.9695-1.9415l.02-.02c.6128-.604 1.2225-1.2112 1.829-1.8215.0906-.0949.1403-.2217.1384-.3529-.002-.1312-.0555-.2564-.1489-.3485-.0935-.0922-.2194-.1439-.3507-.144-.1312-.0001-.2572.0514-.3508.1434-.6037.6071-1.2104 1.2113-1.82 1.8125l-.02.02c-.6284.6211-1.2575 1.2414-1.8875 1.861z" stroke="#fff"/><circle cx="107.8" cy="83" r="6"/></g></svg>