<svg width="40" height="40" viewBox="0 0 40 40" fill="none" xmlns="http://www.w3.org/2000/svg">
<path d="M 40,20 C 40,31.0456 31.0456,40 20,40 8.9556,40 0,31.0456 0,20 0,8.95556 8.9556,0 20,0 31.0456,0 40,8.95556 40,20 Z" fill="#DA2F47"/>
<path d="M 28.3169,33.1989 C 28.2669,33 27.0191,28.3333 20.0002,28.3333 c -7.02,0 -8.2667,4.6667 -8.3167,4.8656 -0.0611,0.2411 0.0478,0.4911 0.2634,0.6155 0.2166,0.1211 0.4877,0.0878 0.6666,-0.0855 0.0211,-0.0211 2.1711,-2.0622 7.3867,-2.0622 5.2155,0 7.3667,2.0411 7.3867,2.0611 0.1066,0.1055 0.2488,0.1611 0.3911,0.1611 0.0933,0 0.1877,-0.0234 0.2733,-0.0711 0.2178,-0.1245 0.3267,-0.3767 0.2656,-0.6189 z M 17.4524,19.2144 C 13.8357,15.5978 8.0235,15.5555 7.778,15.5555 c -0.6134,0 -1.11,0.4967 -1.11,1.1089 -0.0011,0.6134 0.4955,1.1111 1.1089,1.1134 0.0322,0 2.1388,0.0244 4.4255,0.8189 -0.6589,0.7111 -1.0911,1.8155 -1.0911,3.07 0,2.1488 1.2433,3.8888 2.7778,3.8888 1.5344,0 2.7778,-1.74 2.7778,-3.8888 0,-0.1934 -0.0212,-0.3778 -0.0412,-0.5634 0.0145,0 0.0278,0.0078 0.0412,0.0078 0.2844,0 0.5688,-0.1089 0.7855,-0.3256 0.4345,-0.4344 0.4345,-1.1366 0,-1.5711 z m 14.77,-3.6589 c -0.2455,0 -6.0567,0.0423 -9.6744,3.6589 -0.4345,0.4345 -0.4345,1.1367 0,1.5711 0.2166,0.2167 0.5011,0.3256 0.7855,0.3256 0.0145,0 0.0267,-0.0078 0.04,-0.0078 -0.0178,0.1856 -0.04,0.37 -0.04,0.5634 0,2.1488 1.2434,3.8888 2.7778,3.8888 1.5344,0 2.7778,-1.74 2.7778,-3.8888 0,-1.2545 -0.4322,-2.3589 -1.0911,-3.07 2.2866,-0.7945 4.3933,-0.8189 4.4266,-0.8189 0.6123,-0.0023 1.1089,-0.5 1.1078,-1.1134 -0.0011,-0.6122 -0.4967,-1.1089 -1.11,-1.1089 z" fill="#292F33" />
</svg>
