<svg width="40" height="40" viewBox="0 0 40 40" fill="none" xmlns="http://www.w3.org/2000/svg">
<path d="M40 20C40 31.0456 31.0456 40 20 40C8.95556 40 0 31.0456 0 20C0 8.95556 8.95556 0 20 0C31.0456 0 40 8.95556 40 20Z" fill="#FFCC4D"/>
<path d="M17.7773 20C17.3118 20 16.8785 19.7056 16.7229 19.24C16.4973 18.5745 15.5929 16.6667 14.444 16.6667C13.264 16.6667 12.3462 18.6967 12.1651 19.24C11.9707 19.8211 11.3451 20.1378 10.7596 19.9422C10.1773 19.7489 9.8629 19.1189 10.0573 18.5367C10.1962 18.1189 11.5062 14.4445 14.444 14.4445C17.3818 14.4445 18.6918 18.1189 18.8318 18.5378C19.0262 19.12 18.7118 19.75 18.1296 19.9433C18.0118 19.9811 17.8929 20 17.7773 20ZM28.8885 20C28.4229 20 27.9896 19.7056 27.8351 19.24C27.6096 18.5745 26.7029 16.6667 25.5551 16.6667C24.3751 16.6667 23.4562 18.6967 23.2751 19.24C23.0807 19.8211 22.4573 20.1378 21.8696 19.9422C21.2885 19.7489 20.9729 19.1189 21.1673 18.5367C21.3073 18.1189 22.6162 14.4445 25.5551 14.4445C28.494 14.4445 29.8029 18.1189 29.9418 18.5378C30.1362 19.12 29.8218 19.75 29.2396 19.9433C29.1229 19.9811 29.004 20 28.8885 20ZM19.9996 24.4445C15.974 24.4445 13.3029 23.9756 9.99957 23.3333C9.24512 23.1878 7.77734 23.3333 7.77734 25.5556C7.77734 30 12.8829 35.5556 19.9996 35.5556C27.1151 35.5556 32.2218 30 32.2218 25.5556C32.2218 23.3333 30.754 23.1867 29.9996 23.3333C26.6962 23.9756 24.0251 24.4445 19.9996 24.4445Z" fill="#664500"/>
<path d="M10 25.5555C10 25.5555 13.3333 26.6667 20 26.6667C26.6667 26.6667 30 25.5555 30 25.5555C30 25.5555 28.5067 33.0555 20 33.0555C11.4933 33.0555 10 25.5555 10 25.5555Z" fill="white"/>
<path d="M20.0002 30.66C16.0046 30.66 13.0313 30.2467 11.1813 29.8322L10.2646 27.7533C11.1791 28.1 14.5858 28.75 20.0013 28.75C25.5058 28.75 28.9313 28.0655 29.8502 27.7078L29.0713 29.7544C27.2558 30.1767 24.1613 30.66 20.0002 30.66Z" fill="#664500"/>
</svg>
