<svg width="40" height="40" viewBox="0 0 40 40" fill="none" xmlns="http://www.w3.org/2000/svg">
<path d="M40 20C40 31.0456 31.0456 40 20 40C8.95444 40 0 31.0456 0 20C0 8.95444 8.95444 0 20 0C31.0456 0 40 8.95444 40 20Z" fill="#FFCC4D"/>
<path d="M32.2223 11.1112C26.0512 11.1112 23.5534 6.25893 23.45 6.05226C23.1756 5.50337 23.3978 4.8356 23.9467 4.56115C24.4945 4.28782 25.16 4.50782 25.4356 5.05337C25.5189 5.2156 27.4589 8.88893 32.2223 8.88893C32.8367 8.88893 33.3334 9.38671 33.3334 10C33.3334 10.6134 32.8367 11.1112 32.2223 11.1112ZM7.77782 11.1112C7.16449 11.1112 6.66671 10.6134 6.66671 10C6.66671 9.38671 7.16449 8.88893 7.77782 8.88893C13.4256 8.88893 14.44 5.42226 14.4812 5.27449C14.6423 4.68782 15.25 4.33226 15.8356 4.48671C16.4245 4.64115 16.7812 5.23449 16.6334 5.8256C16.5789 6.04115 15.2267 11.1112 7.77782 11.1112ZM6.66782 25.5556C6.33004 25.5556 5.99671 25.4023 5.77782 25.1112C5.40893 24.6212 5.50893 23.9245 6.00004 23.5567C6.15893 23.4378 9.27893 21.1312 13.6178 20.2978C10.8678 18.9189 7.8156 18.8889 7.77671 18.8889C7.16338 18.8878 6.66671 18.3889 6.66782 17.7756C6.66782 17.1634 7.16449 16.6667 7.77782 16.6667C8.02338 16.6667 13.8356 16.7089 17.4523 20.3256C17.77 20.6434 17.8656 21.1212 17.6934 21.5367C17.5212 21.9523 17.1156 22.2223 16.6667 22.2223C11.5412 22.2223 7.37449 25.3023 7.33338 25.3334C7.13338 25.4834 6.89893 25.5556 6.66782 25.5556ZM33.3323 25.5545C33.1012 25.5545 32.8678 25.4834 32.6678 25.3345C32.6256 25.3023 28.4334 22.2223 23.3334 22.2223C22.8845 22.2223 22.4778 21.9523 22.3067 21.5367C22.1345 21.1212 22.23 20.6434 22.5478 20.3256C26.1656 16.7089 31.9767 16.6667 32.2223 16.6667C32.8356 16.6667 33.3312 17.1634 33.3323 17.7756C33.3334 18.3889 32.8367 18.8867 32.2245 18.8889C32.1845 18.8889 29.1323 18.9189 26.3823 20.2978C30.7212 21.1312 33.8412 23.4367 33.9989 23.5567C34.4889 23.9245 34.5889 24.6189 34.2223 25.11C34.0045 25.4 33.6712 25.5545 33.3323 25.5545ZM28.2823 34.2123C28.1512 33.9267 25.0178 27.2223 20.2712 27.2223C15.55 27.2223 11.8867 33.8967 11.7334 34.18C11.6078 34.4123 11.6634 34.7012 11.8656 34.87C11.9689 34.9567 12.0956 35 12.2223 35C12.3445 35 12.4667 34.96 12.5678 34.8789C12.6023 34.8523 16.0823 32.1245 20.2712 32.1245C24.43 32.1245 27.3689 34.8245 27.3978 34.8512C27.5923 35.0312 27.8889 35.0512 28.1023 34.8956C28.3178 34.74 28.3934 34.4545 28.2823 34.2123Z" fill="#664500"/>
</svg>
