<svg width="40" height="40" viewBox="0 0 40 40" fill="none" xmlns="http://www.w3.org/2000/svg">
<path d="M40 20C40 31.0456 31.0456 40 20 40C8.95556 40 0 31.0456 0 20C0 8.95556 8.95556 0 20 0C31.0456 0 40 8.95556 40 20Z" fill="#FFCC4D"/>
<path d="M12.7778 22.2222C14.3119 22.2222 15.5556 20.4811 15.5556 18.3333C15.5556 16.1856 14.3119 14.4445 12.7778 14.4445C11.2437 14.4445 10 16.1856 10 18.3333C10 20.4811 11.2437 22.2222 12.7778 22.2222Z" fill="#664500"/>
<path d="M27.2221 22.2222C28.7562 22.2222 29.9999 20.4811 29.9999 18.3333C29.9999 16.1856 28.7562 14.4445 27.2221 14.4445C25.688 14.4445 24.4443 16.1856 24.4443 18.3333C24.4443 20.4811 25.688 22.2222 27.2221 22.2222Z" fill="#664500"/>
<path d="M27.778 28.8888H12.2224C11.6091 28.8888 11.1113 28.3922 11.1113 27.7777C11.1113 27.1633 11.6091 26.6666 12.2224 26.6666H27.778C28.3924 26.6666 28.8891 27.1633 28.8891 27.7777C28.8891 28.3922 28.3924 28.8888 27.778 28.8888Z" fill="#664500"/>
</svg>
