<svg width="224" height="150" viewBox="0 0 224 150" fill="none" xmlns="http://www.w3.org/2000/svg">
<g clip-path="url(#clip0)">
<path d="M0.5 0H223.9V149.2H0.5V0Z" fill="white" fill-opacity="0.01"/>
<path d="M171.6 15.8H74.9C55.8 15.8 61.1 0 42.3 0H7.2C5.42305 0 3.71888 0.705891 2.46238 1.96238C1.20589 3.21888 0.5 4.92305 0.5 6.7L0.5 149.2H178.3V22.5C178.3 20.723 177.594 19.0189 176.338 17.7624C175.081 16.5059 173.377 15.8 171.6 15.8Z" fill="url(#paint0_linear)"/>
<path style="mix-blend-mode:multiply" opacity="0.1" d="M0.5 149.2H126.6L51.4 40.9004C37.5959 41.7684 24.3339 46.5941 13.2 54.8004C8.41361 58.4036 4.14091 62.6426 0.5 67.4004L0.5 149.2Z" fill="url(#paint1_linear)"/>
<path d="M178.2 149.2H0.5L47.5 43.8004C47.8706 42.9405 48.4846 42.2079 49.2664 41.6926C50.0482 41.1773 50.9637 40.9019 51.9 40.9004H219.2C219.986 40.918 220.756 41.1284 221.441 41.5131C222.127 41.8977 222.708 42.445 223.132 43.1066C223.557 43.7682 223.812 44.5241 223.877 45.3076C223.941 46.0912 223.811 46.8785 223.5 47.6004L178.2 149.2Z" fill="url(#paint2_linear)"/>
<path d="M40.6999 59.0996L39.8999 60.8996H217.6L218.4 59.0996H40.6999Z" fill="#1DB9D4"/>
<path d="M212.3 72.8996L213.1 71.0996H35.3L34.5 72.8996H212.3Z" fill="#1DB9D4"/>
</g>
<defs>
<linearGradient id="paint0_linear" x1="89.38" y1="149.23" x2="89.38" y2="0" gradientUnits="userSpaceOnUse">
<stop offset="0.14" stop-color="#3DC7DC"/>
<stop offset="0.38" stop-color="#42C9DD"/>
<stop offset="0.66" stop-color="#50CDE0"/>
<stop offset="0.97" stop-color="#68D4E4"/>
<stop offset="1" stop-color="#6BD5E5"/>
</linearGradient>
<linearGradient id="paint1_linear" x1="0.5" y1="95.0804" x2="126.6" y2="95.0804" gradientUnits="userSpaceOnUse">
<stop stop-color="#091E42"/>
<stop offset="0.26" stop-color="#091E42" stop-opacity="0.94"/>
<stop offset="0.5" stop-color="#091E42" stop-opacity="0.78"/>
<stop offset="0.73" stop-color="#091E42" stop-opacity="0.49"/>
<stop offset="0.95" stop-color="#091E42" stop-opacity="0.1"/>
<stop offset="1" stop-color="#091E42" stop-opacity="0"/>
</linearGradient>
<linearGradient id="paint2_linear" x1="0.5" y1="95.0804" x2="223.95" y2="95.0804" gradientUnits="userSpaceOnUse">
<stop offset="0.14" stop-color="#3DC7DC"/>
<stop offset="0.3" stop-color="#42C8DD"/>
<stop offset="0.49" stop-color="#50CDE0"/>
<stop offset="0.69" stop-color="#68D4E4"/>
<stop offset="0.9" stop-color="#89DDEA"/>
<stop offset="1" stop-color="#9CE3EE"/>
</linearGradient>
<clipPath id="clip0">
<path d="M0.5 0H223.9V149.2H0.5V0Z" fill="white"/>
</clipPath>
</defs>
</svg>
