<svg width="522" height="431" viewBox="0 0 522 431" fill="none" xmlns="http://www.w3.org/2000/svg">
<g clip-path="url(#clip0)">
<path d="M0 0H521.32V430.2H0V0Z" fill="white" fill-opacity="0.01"/>
<path d="M43.7499 330.579C43.2299 330.169 42.2599 329.289 41.7999 327.849C41.0399 325.479 41.9399 322.409 44.3899 320.969C46.2799 319.859 48.6999 319.949 50.6199 321.179C51.6399 320.589 52.9199 320.969 53.4199 321.899C53.8599 322.709 53.6199 323.799 52.8199 324.419C52.7999 324.609 52.7699 324.799 52.7299 324.989C52.2499 327.399 50.4999 329.049 49.1999 329.989C47.3999 330.179 45.5799 330.379 43.7499 330.579Z" fill="#253858"/>
<path d="M223.15 127.871L228.1 127.371L235.49 124.131L235.72 124.681L228.14 127.921L222.83 128.421L223.15 127.871Z" fill="#97A0AF"/>
<path d="M231.98 122.611C232.4 122.611 232.74 122.271 232.74 121.851C232.74 121.431 232.4 121.091 231.98 121.091C231.56 121.091 231.22 121.431 231.22 121.851C231.22 122.271 231.56 122.611 231.98 122.611Z" fill="#97A0AF"/>
<path d="M222.83 128.42L223.1 127.96C223.81 126.74 225 125.87 226.38 125.58C227.1 125.43 227.82 125.28 228.54 125.13C228.73 125.01 229.21 124.65 229.5 123.98C229.78 123.31 229.7 122.71 229.65 122.49C229.42 121.89 229.19 121.28 228.96 120.68L232.95 118.73L235.72 124.7L228.14 127.93L222.83 128.42Z" fill="#344563"/>
<path d="M226.76 125.5C226.63 125.53 226.5 125.55 226.37 125.58C224.99 125.88 223.8 126.74 223.09 127.96L222.82 128.42L226.75 128.05V125.5H226.76Z" fill="#97A0AF"/>
<path d="M213.43 71.7096C213.22 74.6496 213.14 77.8796 213.29 81.3596C213.38 83.3896 213.53 85.3297 213.73 87.1597C214.36 93.3697 216.14 99.4196 218.96 104.99C222.33 110.23 225.71 115.47 229.08 120.71C231.48 120.26 233.89 119.8 236.29 119.35C234.34 114.18 232.08 108.74 229.45 103.12C227.81 99.6097 226.14 96.2596 224.46 93.0696C225.15 85.8396 225.84 78.6096 226.53 71.3896C222.17 71.4896 217.8 71.5996 213.43 71.7096Z" fill="url(#paint0_linear)"/>
<path d="M138.09 103.2C138.09 103.2 139.74 100.56 139.62 99.75C139.51 98.94 139.09 98.51 139.36 98.3C139.62 98.09 140.29 99.11 140.5 99.12C140.72 99.12 140.82 98.87 141.08 99.15C141.33 99.42 141.68 99.7 141.83 100.12C141.98 100.54 142.13 102.57 141.85 103.25C141.57 103.94 141.06 105.39 140.39 105.79C139.71 106.18 138.26 103.84 138.26 103.84L138.09 103.2Z" fill="#A27F68"/>
<path d="M140.69 105.2C140.38 105.61 139.5 105.38 139.02 105.11C138.85 105.01 138.13 104.59 137.93 103.73C137.74 102.96 138.18 102.71 138.16 101.6C138.14 100.52 137.71 99.9003 137.9 99.7603C138.07 99.6403 138.54 99.9903 138.84 100.39C139.41 101.14 139.07 101.64 139.56 102.53C139.96 103.25 140.32 103.19 140.62 103.98C140.71 104.26 140.94 104.87 140.69 105.2Z" fill="#A27F68"/>
<path d="M172.6 120.31C172.06 120.47 171.45 119.7 171.2 119.15C171.11 118.95 170.76 118.12 171.13 117.24C171.46 116.44 172 116.51 172.7 115.53C173.38 114.57 173.4 113.75 173.66 113.75C173.88 113.75 174.07 114.36 174.07 114.91C174.08 115.94 173.46 116.14 173.32 117.25C173.2 118.13 173.56 118.32 173.31 119.19C173.22 119.5 173.03 120.18 172.6 120.31Z" fill="#A27F68"/>
<path d="M143.84 105.58C143.67 104.7 143.08 104 142.32 103.8C141.73 103.64 141.23 103.82 141.02 103.91C139.07 108.34 137.12 112.77 135.17 117.19C133.08 119.42 130.86 122.15 128.75 125.44C127.8 126.92 126.98 128.36 126.25 129.74C126.39 129.85 128.31 131.35 128.46 131.44C129.16 131.88 129.86 132.32 130.67 133.14C134.61 128.79 137.3 124.71 139.09 121.63C140.29 117.93 141.44 114.11 142.55 110.19C143.01 108.64 143.43 107.1 143.84 105.58Z" fill="#36B37E"/>
<path opacity="0.25" d="M311.94 430.21C401.283 430.21 473.71 415.664 473.71 397.72C473.71 379.777 401.283 365.23 311.94 365.23C222.597 365.23 150.17 379.777 150.17 397.72C150.17 415.664 222.597 430.21 311.94 430.21Z" fill="url(#paint1_linear)"/>
<path d="M217.16 402.231C217.02 402.221 216.89 402.201 216.75 402.191C195.02 400.071 178.37 381.921 178.16 360.081C177.93 336.491 175.37 309.331 168.29 279.961C163.01 258.021 156.15 238.761 149.08 222.391C168.11 223.061 187.15 223.721 206.18 224.391L217.16 402.231Z" fill="url(#paint2_linear)"/>
<path d="M217.16 402.23C219.2 402.03 221.6 401.64 224.24 400.92C227.03 400.15 229.41 399.19 231.33 398.27C231.33 337.09 231.33 275.91 231.33 214.73L204.47 208.37C208.71 272.99 212.94 337.61 217.16 402.23Z" fill="#A5ADBA"/>
<path d="M281.89 246.26C281.89 272.64 260.51 294.02 234.13 294.02C232.85 294.02 231.6 293.97 230.35 293.87V294.02H210.48C214.46 293.96 218.31 293.43 221.98 292.47C224.86 291.71 227.64 290.68 230.28 289.43C246.43 281.77 257.58 265.31 257.58 246.25C257.58 226.81 245.97 210.08 229.3 202.63C229.28 201.32 229.28 200.02 229.28 198.73C230.87 198.56 232.48 198.49 234.11 198.49C260.51 198.5 281.89 219.88 281.89 246.26Z" fill="url(#paint3_linear)"/>
<path d="M257.6 246.26C257.6 265.32 246.44 281.77 230.3 289.44C227.66 290.68 224.88 291.72 222 292.48C218.33 293.44 214.47 293.97 210.5 294.03H210.24C210.1 291.81 209.95 289.58 209.81 287.37C208.44 265.97 207.09 244.56 205.8 224.38C205.45 219.02 205.12 213.74 204.78 208.58C204.57 205.29 204.36 202.04 204.16 198.84C206.03 198.61 207.92 198.51 209.85 198.51C214.04 198.51 218.11 199.04 221.98 200.07C224.51 200.72 226.97 201.59 229.33 202.65C245.99 210.1 257.6 226.82 257.6 246.26Z" fill="#FFAB00"/>
<path d="M227.46 236.4H172.7C142.45 236.4 117.94 211.88 117.94 181.64C117.94 151.39 142.46 126.88 172.7 126.88H227.46V236.4Z" fill="#0065FF"/>
<path opacity="0.5" d="M172.69 126.87C168.28 126.87 164 127.4 159.9 128.39H177.12L176.71 143.52H142.71L142.92 135.68C141.86 136.37 140.83 137.08 139.82 137.83L137.48 223.58C138.44 224.39 139.44 225.16 140.45 225.91L140.63 219.22H174.63L174.22 234.35H157.82C162.55 235.68 167.53 236.41 172.68 236.41H177.2L180.19 126.88H172.69V126.87ZM174.73 216.18H140.73L141.14 201.05H175.14L174.73 216.18ZM175.23 198.02H141.23L141.64 182.89H175.64L175.23 198.02ZM175.72 179.85H141.72L142.13 164.72H176.13L175.72 179.85ZM176.22 161.69H142.22L142.63 146.56H176.63L176.22 161.69Z" fill="#0747A6"/>
<path d="M379.19 40.4502C317.6 84.2002 269.93 107.21 235.46 120.39C222.77 125.24 199.11 133.64 189.27 155.43C180.6 174.62 184.29 200.55 197.76 217.62C216.9 241.89 245.37 235.03 285.91 248.51C310.05 256.54 343.97 273.61 379.2 314.72V40.4502H379.19Z" fill="url(#paint4_linear)"/>
<path d="M268.98 195.04C263.95 188.28 257.49 180.91 249.26 173.77C230.62 157.58 210.76 149.4 195.62 145.12C193.16 148.18 191 151.6 189.26 155.43C180.59 174.62 184.28 200.55 197.75 217.62C216.89 241.89 245.36 235.03 285.9 248.51C310.04 256.54 343.96 273.61 379.19 314.72V233.31C367.92 234.08 303.26 236.5 268.98 195.04Z" fill="url(#paint5_linear)"/>
<path d="M427.12 349.48C479.145 349.48 521.32 271.246 521.32 174.74C521.32 78.2338 479.145 0 427.12 0C375.095 0 332.92 78.2338 332.92 174.74C332.92 271.246 375.095 349.48 427.12 349.48Z" fill="url(#paint6_linear)"/>
<path d="M432.16 335.42C475.222 335.42 510.13 263.432 510.13 174.63C510.13 85.828 475.222 13.8398 432.16 13.8398C389.098 13.8398 354.19 85.828 354.19 174.63C354.19 263.432 389.098 335.42 432.16 335.42Z" fill="url(#paint7_linear)"/>
<path opacity="0.42" d="M354.18 174.63C354.18 85.8298 389.09 13.8398 432.15 13.8398C432.15 13.8398 350.07 210.24 432.15 335.41C389.09 335.41 354.18 263.43 354.18 174.63Z" fill="url(#paint8_linear)"/>
<path d="M348.89 171.7C348.89 158.8 349.82 146.26 351.57 134.24L408.63 135.71L405.64 219.84L353.58 221C350.55 205.45 348.89 188.89 348.89 171.7Z" fill="#0049B0"/>
<path d="M433.618 178.96C434.622 155.735 423.65 136.398 409.11 135.769C394.57 135.141 381.97 153.458 380.966 176.683C379.961 199.908 390.934 219.245 405.474 219.874C420.013 220.502 432.614 202.185 433.618 178.96Z" fill="#0052CC"/>
<path d="M425.432 178.451C426.104 161.57 419.388 147.596 410.432 147.239C401.476 146.883 393.67 160.278 392.998 177.159C392.325 194.04 399.041 208.014 407.997 208.371C416.953 208.727 424.759 195.332 425.432 178.451Z" fill="#0049B0"/>
<path d="M173.82 128.391H137.65C136.81 128.391 136.13 127.711 136.13 126.871C136.13 126.031 136.81 125.351 137.65 125.351H173.82C174.66 125.351 175.34 126.031 175.34 126.871C175.34 127.711 174.66 128.391 173.82 128.391Z" fill="#344563"/>
<path d="M168.56 155.641H132.39C131.55 155.641 130.87 154.961 130.87 154.121C130.87 153.281 131.55 152.601 132.39 152.601H168.56C169.4 152.601 170.08 153.281 170.08 154.121C170.08 154.961 169.39 155.641 168.56 155.641Z" fill="#344563"/>
<path d="M163.29 182.891H127.12C126.28 182.891 125.6 182.211 125.6 181.371C125.6 180.531 126.28 179.851 127.12 179.851H163.29C164.13 179.851 164.81 180.531 164.81 181.371C164.81 182.211 164.13 182.891 163.29 182.891Z" fill="#344563"/>
<path d="M158.02 210.131H121.85C121.01 210.131 120.33 209.451 120.33 208.611C120.33 207.771 121.01 207.091 121.85 207.091H158.02C158.86 207.091 159.54 207.771 159.54 208.611C159.54 209.451 158.86 210.131 158.02 210.131Z" fill="#344563"/>
<path d="M152.76 237.38H116.59C115.75 237.38 115.07 236.7 115.07 235.86C115.07 235.02 115.75 234.34 116.59 234.34H152.76C153.6 234.34 154.28 235.02 154.28 235.86C154.28 236.7 153.6 237.38 152.76 237.38Z" fill="#344563"/>
<path d="M147.49 264.63H111.31C110.47 264.63 109.79 263.95 109.79 263.11C109.79 262.27 110.47 261.59 111.31 261.59H147.49C148.33 261.59 149.01 262.27 149.01 263.11C149.01 263.95 148.33 264.63 147.49 264.63Z" fill="#344563"/>
<path d="M142.22 291.87H106.04C105.2 291.87 104.52 291.19 104.52 290.35C104.52 289.51 105.2 288.83 106.04 288.83H142.22C143.06 288.83 143.74 289.51 143.74 290.35C143.74 291.19 143.06 291.87 142.22 291.87Z" fill="#344563"/>
<path d="M136.96 319.12H100.78C99.9398 319.12 99.2598 318.44 99.2598 317.6C99.2598 316.76 99.9398 316.08 100.78 316.08H136.96C137.8 316.08 138.48 316.76 138.48 317.6C138.48 318.44 137.8 319.12 136.96 319.12Z" fill="#344563"/>
<path d="M131.69 346.37H95.5098C94.6698 346.37 93.9897 345.69 93.9897 344.85C93.9897 344.01 94.6698 343.33 95.5098 343.33H131.69C132.53 343.33 133.21 344.01 133.21 344.85C133.21 345.69 132.53 346.37 131.69 346.37Z" fill="#344563"/>
<path d="M126.42 373.61H90.25C89.41 373.61 88.73 372.93 88.73 372.09C88.73 371.25 89.41 370.57 90.25 370.57H126.43C127.27 370.57 127.95 371.25 127.95 372.09C127.95 372.93 127.26 373.61 126.42 373.61Z" fill="#344563"/>
<path d="M121.16 400.86H84.98C84.14 400.86 83.46 400.18 83.46 399.34C83.46 398.5 84.14 397.82 84.98 397.82H121.16C122 397.82 122.68 398.5 122.68 399.34C122.68 400.18 122 400.86 121.16 400.86Z" fill="#344563"/>
<path d="M117.43 421.46C117.33 421.46 117.24 421.45 117.14 421.43C116.32 421.27 115.78 420.47 115.94 419.65L177.85 102.56C178.01 101.74 178.81 101.2 179.63 101.36C180.45 101.52 180.99 102.32 180.83 103.14L118.92 420.23C118.78 420.96 118.15 421.46 117.43 421.46Z" fill="#344563"/>
<path d="M80.3999 421.46C80.2999 421.46 80.2099 421.45 80.1099 421.43C79.2899 421.27 78.7499 420.47 78.9099 419.65L140.82 102.56C140.98 101.74 141.78 101.2 142.6 101.36C143.42 101.52 143.96 102.32 143.8 103.14L81.8799 420.24C81.7399 420.96 81.1099 421.46 80.3999 421.46Z" fill="#344563"/>
<path d="M193.42 52.2503C194.24 54.0803 190.78 56.6803 190.28 57.0503C189.89 57.3403 188.71 58.2103 188.05 57.8303C187.94 57.7703 187.93 57.7203 187.56 57.2103C186.81 56.2103 186.74 56.2603 186.64 55.9803C186.44 55.4203 186.78 55.2903 186.71 54.3503C186.65 53.5603 186.39 53.4403 186.45 53.0003C186.57 52.0903 187.83 51.5503 188.16 51.4103C189.92 50.6603 192.78 50.8403 193.42 52.2503Z" fill="#8C715D"/>
<path d="M199.31 53.2196C200.27 52.3996 201.23 51.5896 202.19 50.7696C204.74 48.9396 207.29 47.1096 209.85 45.2796C212.34 43.1396 215.44 42.7396 217.35 44.0796C218.35 44.7796 218.83 45.8296 219.06 46.5996C219.61 48.9296 218.16 51.1796 215.96 51.4296L202.84 56.3596C201.33 56.5196 199.68 54.7996 199.31 53.2196Z" fill="#8C715D"/>
<path d="M190.33 51.3298C194.48 51.0298 198.63 50.7198 202.78 50.4198C204.51 49.8598 205.13 50.2998 205.32 50.4698C206.46 51.4998 205.56 55.1298 203.44 56.1198C203.03 56.3098 202.63 56.3798 202.29 56.3998C198.24 55.7298 194.18 55.0598 190.13 54.3898L190.33 51.3298Z" fill="#8C715D"/>
<path d="M217.34 44.0796C215.44 42.7396 212.33 43.1396 209.84 45.2796C208.57 46.1896 207.31 47.0996 206.04 48.0096C207.54 49.6896 208.66 51.7296 209.32 53.9096L215.94 51.4296C218.14 51.1796 219.59 48.9296 219.04 46.5996C218.82 45.8396 218.34 44.7896 217.34 44.0796Z" fill="url(#paint9_linear)"/>
<path d="M191.18 54.5303C191.8 54.5103 192.23 54.1603 192.25 53.8103C192.25 53.7603 192.26 53.5603 192.04 53.3403C192.09 53.3003 192.48 52.9903 192.5 52.4603C192.51 52.0303 192.27 51.6303 191.88 51.4103C192.01 51.2903 192.53 50.7903 192.4 50.4003C192.23 49.9203 191.06 49.7603 190.56 50.1603C189.55 50.9603 191.01 54.1803 191.18 54.5303Z" fill="#8C715D"/>
<path d="M181.17 44.5H141.77C127.22 44.5 115.43 56.29 115.43 70.84V82.75C115.43 97.3 127.22 109.09 141.77 109.09H163.31C167.12 109.09 170.63 111.18 172.45 114.53L175.75 120.61L179.47 113.76C180.93 111.07 183.5 109.16 186.5 108.55C198.49 106.08 207.51 95.48 207.51 82.75V70.84C207.52 56.29 195.72 44.5 181.17 44.5Z" fill="url(#paint10_linear)"/>
<path d="M185.09 64.1699H139.01V67.2799H185.09V64.1699Z" fill="white"/>
<path d="M185.09 71.79H139.01V74.9H185.09V71.79Z" fill="white"/>
<path d="M185.09 79.4102H139.01V82.5201H185.09V79.4102Z" fill="white"/>
<path d="M172.01 87.0303H139.01V90.1403H172.01V87.0303Z" fill="white"/>
<path d="M171.62 116.88C171.62 116.88 174.76 115.64 175.18 114.86C175.6 114.08 175.52 113.44 175.89 113.42C176.26 113.4 176.17 114.73 176.36 114.87C176.55 115.01 176.8 114.86 176.85 115.26C176.89 115.66 177.01 116.13 176.88 116.59C176.74 117.06 175.57 118.92 174.88 119.34C174.19 119.76 172.81 120.7 171.97 120.61C171.13 120.52 171.37 117.53 171.37 117.53L171.62 116.88Z" fill="#A27F68"/>
<path d="M138.5 123.919C138.67 124.529 138.08 124.959 138.04 126.339C138.02 127.279 138.27 128.069 138.5 128.599C134.85 129.999 131.76 130.119 130.96 128.859C130.62 128.329 130.66 127.489 130.7 126.429C130.74 125.239 130.78 124.279 131.27 123.589C132.75 121.509 138.03 122.309 138.5 123.919Z" fill="#72594B"/>
<path d="M127.79 148.73C127.93 148.35 128.11 147.93 128.35 147.47C128.64 146.93 128.95 146.46 129.24 146.05C129.55 146.11 130.05 146.2 130.68 146.27C131.23 146.33 131.65 146.34 131.88 146.35C133.18 146.43 135.7 146.53 142.67 146.58C142.97 146.9 143.39 147.38 143.83 148C145.41 150.24 145.82 152.32 145.98 153.22C148.73 168.22 148.86 173.9 148.86 173.9C148.92 176.11 148.98 178.33 149.04 180.55C149.18 185.84 149.29 191.11 149.39 196.35C149.32 196.57 149.18 196.91 148.88 197.2C148.16 197.87 147.05 197.71 146.21 197.59C145.7 197.52 144.88 197.33 143.95 196.82C142.59 194.38 141.84 192.19 141.41 190.6C140.58 187.53 140.51 185.06 140.51 184.12C140.49 181.59 140.85 179.47 141.22 177.94C140.67 176.22 139.99 174.38 139.13 172.44C137.57 168.93 135.81 165.99 134.15 163.6C133.75 169.28 133.42 175.11 133.16 181.07C132.93 186.51 132.76 191.85 132.67 197.08C131.12 197.7 129.58 198.32 128.03 198.93C126.86 194.69 125.92 189.19 126.33 182.84C126.44 181.11 126.64 179.49 126.9 177.96C126.77 175.91 126.59 173.78 126.36 171.59C126.17 169.82 125.96 168.11 125.73 166.44C125.73 166.44 124.99 157.84 126.38 152.74C126.7 151.65 127.48 149.58 127.79 148.73Z" fill="url(#paint11_linear)"/>
<path d="M129.34 196.549C128.34 196.559 127.43 196.499 126.62 196.399C126.88 198.569 127.19 200.319 127.43 201.509C128.16 205.229 128.16 206.899 128.26 208.469C128.31 209.219 128.34 209.829 128.35 210.249C129.24 210.239 130.13 210.219 131.02 210.209C131.2 209.909 131.39 209.619 131.57 209.319C131.81 209.669 132.04 210.019 132.28 210.369C133.61 210.389 134.98 210.389 136.39 210.359C137.8 210.329 139.16 210.279 140.48 210.199C140.55 209.829 140.61 209.459 140.68 209.089C139.44 208.749 138.2 208.409 136.96 208.079C136.46 207.669 135.71 206.989 135.01 205.989C133.55 203.919 133.23 201.819 132.95 200.149C132.71 198.719 132.66 197.409 132.72 196.279C131.73 196.429 130.6 196.539 129.34 196.549Z" fill="#172B4D"/>
<path d="M126.22 131.63C125.8 130 126.6 128.3 128.14 127.6C128.46 127.46 128.8 127.31 129.15 127.17C132.43 125.87 136.36 124.99 149.25 126.21C152.83 126.55 155.66 126.83 157.14 126.98C159.97 125.31 162.93 123.43 165.96 121.29C167.69 120.07 169.33 118.85 170.88 117.63C171.6 118.57 172.32 119.51 173.04 120.45C171.37 122.34 169.32 124.41 166.84 126.48C163.82 129.01 160.9 130.92 158.35 132.37C156.31 132.9 154.13 133.39 151.83 133.84C149.3 134.33 146.89 134.7 144.61 134.98C144.88 135.53 145.19 136.36 145.16 137.37C145.12 138.87 144.36 139.92 144.05 140.42C143.29 141.69 142.8 143.93 144.19 148.17C140.22 148.94 137.27 148.93 135.51 148.78C131.66 148.44 130.82 148.15 127.6 147.49C127.78 146.02 127.91 144.28 127.87 142.34C127.82 139.73 127.48 137.78 127.16 135.97C126.95 134.74 126.65 133.28 126.22 131.63Z" fill="url(#paint12_linear)"/>
<path d="M137.28 113.239C138.28 114.229 139.36 116.189 139.82 117.209C139.89 117.389 139.9 117.479 140.27 117.679C140.64 117.879 141.13 117.959 141.04 118.229C140.94 118.499 140.4 118.869 140.34 119.099L140.87 122.909L139.34 123.509L134.16 125.529C134.22 125.319 136.12 120.159 136.1 119.859C136.08 119.559 136.02 118.949 136.37 118.789C136.71 118.629 137.26 115.619 137.42 115.209C137.58 114.799 137.54 114.689 137.45 114.139C137.35 113.579 137.28 113.239 137.28 113.239Z" fill="#72594B"/>
<path d="M128.64 123.039C129.22 123.639 130.54 124.989 132.47 124.929C134.6 124.859 136.61 123.089 136.69 121.549C136.72 120.859 136.36 120.379 136.52 119.159C136.6 118.569 136.81 117.739 137.13 117.719C137.46 117.689 137.69 118.539 137.91 118.499C138.14 118.449 138.11 117.529 138.12 116.999C138.12 114.669 138.61 114.539 138.41 113.619C138.04 111.849 136.1 110.899 135.86 110.789C133.45 109.649 130.99 110.969 130.59 111.179C127.64 112.749 126.3 116.409 126.82 119.389C126.89 119.879 127.22 121.579 128.64 123.039Z" fill="#253858"/>
<path d="M124.01 117.84C124.45 118.29 125.43 119.31 126.89 119.26C128.49 119.21 130 117.88 130.06 116.72C130.08 116.2 129.81 115.84 129.93 114.93C129.99 114.49 130.15 113.87 130.39 113.85C130.64 113.83 130.81 114.47 130.97 114.43C131.14 114.4 131.12 113.7 131.12 113.3C131.12 111.55 131.49 111.45 131.34 110.76C131.06 109.43 129.6 108.72 129.42 108.63C127.61 107.78 125.76 108.76 125.46 108.92C123.25 110.1 122.23 112.85 122.63 115.09C122.7 115.46 122.94 116.74 124.01 117.84Z" fill="#253858"/>
<path d="M146.56 196.549C145.56 196.559 144.65 196.499 143.84 196.399C144.1 198.569 144.41 200.319 144.65 201.509C145.38 205.229 145.38 206.899 145.48 208.469C145.53 209.219 145.56 209.829 145.57 210.249C146.46 210.239 147.35 210.219 148.24 210.209C148.42 209.909 148.61 209.619 148.79 209.319C149.03 209.669 149.26 210.019 149.5 210.369C150.83 210.389 152.2 210.389 153.61 210.359C155.02 210.329 156.38 210.279 157.7 210.199C157.77 209.829 157.83 209.459 157.9 209.089C156.66 208.749 155.42 208.409 154.18 208.079C153.68 207.669 152.93 206.989 152.23 205.989C150.77 203.919 150.45 201.819 150.17 200.149C149.93 198.719 149.88 197.409 149.94 196.279C148.95 196.429 147.82 196.539 146.56 196.549Z" fill="#172B4D"/>
<path d="M245.17 298.329L244.78 296.759L243.74 294.959L242.88 290.969L243.44 290.699L244.27 292.749L243.5 288.449L244.19 288.199L245.17 292.199L244.87 287.939L245.56 287.859L246.13 292.059L246.57 287.859L247.28 287.929C247.39 288.959 247.37 289.789 247.33 290.379C247.28 291.049 247.18 291.729 247.58 292.359C247.71 292.559 247.86 292.699 247.96 292.789L248.33 291.769L249.36 290.669L249.75 291.119L248.84 293.539L248.51 295.649L248.81 297.259L245.17 298.329Z" fill="#F1DAD5"/>
<path d="M277.43 317.51C275.44 317.51 273.44 317.51 271.45 317.51C271.78 316.75 272.17 315.6 272.3 314.15C272.43 312.75 272.27 311.57 272.09 310.77C273.31 310.71 274.52 310.65 275.74 310.59C275.78 310.8 275.85 311.12 275.96 311.49C276.12 312.06 276.2 312.35 276.36 312.5C276.78 312.89 277.57 312.66 277.8 312.58C277.68 314.23 277.56 315.87 277.43 317.51Z" fill="url(#paint13_linear)"/>
<path d="M280.41 346.271C282.12 344.911 284.3 342.891 286.36 340.061C288.25 337.451 289.45 334.971 290.21 333.041C289.33 328.061 287.32 324.771 286.07 323.041C284.34 320.651 282.82 319.571 282.16 319.141C279.74 317.551 275.94 316.211 275.01 317.361C274.05 318.541 276.12 322.031 277.89 324.031C278.61 324.841 279.09 325.191 279.73 325.761C281.24 327.121 283.18 329.331 284.86 332.991C283.25 335.881 281.64 338.781 280.03 341.671C280.15 343.191 280.28 344.731 280.41 346.271Z" fill="url(#paint14_linear)"/>
<path d="M279.4 339.151C279.3 338.721 279.16 338.241 278.97 337.721C278.74 337.111 278.49 336.591 278.25 336.141C277.95 336.231 277.47 336.371 276.87 336.491C276.35 336.591 275.95 336.631 275.74 336.661C274.52 336.841 272.2 337.111 265.94 337.591C265.64 337.961 265.22 338.531 264.76 339.241C263.13 341.821 262.53 344.191 262.28 345.211C258.03 362.681 257.18 369.511 257.18 369.511C257.18 369.511 254.18 386.261 252.51 400.971C252.57 401.011 253.54 402.461 254.9 403.001C255.39 403.191 255.36 403.551 256.27 403.641C258.08 398.381 259.7 392.151 260.6 385.061C260.91 382.601 261.11 380.251 261.22 378.001C262.69 375.651 264.74 372.081 266.72 367.511C269.41 361.261 270.11 357.421 270.79 357.521C271.84 357.681 271.08 366.411 270.97 379.181C270.91 386.671 271.34 392.861 271.38 396.951C271.78 397.191 272.66 397.851 274.09 397.351C275.52 396.851 275.99 396.201 275.99 396.201C276.5 392.741 276.87 388.741 276.87 384.291C276.87 380.691 276.63 377.391 276.28 374.461C277.95 369.361 278.92 364.971 279.5 361.711C279.5 361.711 281.43 350.921 280.37 343.821C280.21 342.671 279.6 340.041 279.4 339.151Z" fill="url(#paint15_linear)"/>
<path d="M258.47 385.181C257.12 385.181 255.87 384.861 254.77 384.311C253.99 389.471 253.15 395.371 252.52 400.981C252.58 401.021 253.55 402.471 254.91 403.011C255.4 403.201 255.37 403.561 256.28 403.651C258.09 398.391 259.71 392.161 260.61 385.071C260.62 385.001 260.63 384.931 260.63 384.861C259.92 385.061 259.2 385.181 258.47 385.181Z" fill="url(#paint16_linear)"/>
<path d="M273.47 384.51C272.6 384.51 271.78 384.38 271.01 384.14C270.97 386.35 271.02 388.76 271.22 391.34C271.38 393.39 271.62 395.31 271.91 397.09C272.07 397.22 272.33 397.41 272.69 397.5C272.84 397.54 273.27 397.64 274.1 397.35C275.53 396.85 276 396.2 276 396.2C276.51 392.74 276.88 388.74 276.88 384.29C276.88 384.1 276.88 383.92 276.88 383.74C275.81 384.23 274.65 384.51 273.47 384.51Z" fill="url(#paint17_linear)"/>
<path d="M270.8 357.521C271.48 357.621 271.4 361.331 271.23 367.391C271.7 367.311 272.42 367.201 273.31 367.041C274.73 366.801 275.21 366.701 276.1 366.561C276.68 366.471 277.53 366.351 278.57 366.241C278.96 364.571 279.26 363.041 279.5 361.711C279.5 361.711 281.43 350.921 280.37 343.821C280.2 342.661 279.59 340.031 279.38 339.151C279.28 338.721 279.14 338.241 278.95 337.721C278.72 337.111 278.47 336.591 278.23 336.141C277.93 336.231 277.45 336.371 276.85 336.491C276.33 336.591 275.93 336.631 275.72 336.661C274.5 336.841 272.18 337.111 265.92 337.591C265.62 337.961 265.2 338.531 264.74 339.241C263.11 341.821 262.51 344.191 262.26 345.211C259.91 354.891 258.6 361.291 257.9 365.091C258.62 365.511 259.43 365.931 260.32 366.311C262.6 367.311 264.73 367.801 266.47 368.051C266.55 367.871 266.63 367.691 266.71 367.501C269.42 361.271 270.12 357.421 270.8 357.521Z" fill="#5E6C84"/>
<path d="M242.56 407.421L245.94 406.351C249.46 405.241 252.01 402.201 252.49 398.541C252.58 397.891 253.07 395.131 253.28 393.971C253.9 393.841 254.85 393.721 255.98 393.911C257.65 394.181 258.82 394.961 259.39 395.401C258.72 396.891 258.05 398.691 257.53 400.771C257.21 402.051 256.79 404.111 256.61 406.661C256.56 407.441 256.55 408.081 256.55 408.501L253.22 408.481C253.03 408.271 252.85 408.071 252.66 407.861C252.37 408.061 252.07 408.251 251.78 408.451H243.3L242.56 407.421Z" fill="#8993A4"/>
<path d="M276.5 392.991C276.11 392.741 275.04 392.121 273.55 392.171C272.26 392.211 271.33 392.741 270.93 392.991C271.07 393.581 271.23 394.421 271.32 395.431C271.49 397.251 271.57 398.291 270.93 398.861C270.76 399.021 270.23 399.401 269.03 399.191C268.9 399.241 268.77 399.291 268.64 399.351C270.25 401.311 271.46 402.801 272.19 403.801C272.32 403.981 272.68 404.481 273.33 404.731C273.52 404.801 274.33 405.111 274.99 404.651C275.48 404.301 275.59 403.741 275.62 403.591C275.91 400.061 276.2 396.531 276.5 392.991Z" fill="#8993A4"/>
<path d="M270.62 305.66C270.53 306.17 270.34 306.94 269.86 307.77C269.35 308.66 268.74 309.23 268.33 309.57C268.59 309.85 268.86 310.13 269.12 310.42C269.33 311.61 269.54 312.8 269.76 313.98C270.32 314.21 271.19 314.51 272.28 314.63C273.42 314.75 274.9 314.91 275.53 314.07C275.87 313.62 275.92 313.01 275.84 312.28C275.77 311.6 275.68 311.07 275.59 310.8C275.35 310.06 274.99 309.6 274.28 308.69C273.45 307.63 272.98 307.03 272.13 306.45C271.53 306.04 270.99 305.8 270.62 305.66Z" fill="url(#paint18_linear)"/>
<path d="M249.98 317.5C252.07 318.85 254.7 320.32 257.85 321.62C260.98 322.91 263.86 323.72 266.28 324.25C266.18 325.88 265.99 327.63 265.68 329.49C265.09 333.02 264.2 336.11 263.26 338.69C264.89 339.48 267.49 340.49 270.82 340.81C274.66 341.19 277.77 340.49 279.61 339.93C279.52 336.67 279.82 332.07 281.56 326.96C282.36 324.62 283.31 322.61 284.26 320.93C283.66 320.37 282.82 319.65 281.74 318.93C281.74 318.93 281.49 318.76 281.1 318.53C281.1 318.53 280.4 318.11 279.66 317.74C276.59 316.21 270.98 315.69 270.98 315.69C263.32 314.98 263.58 315.11 262.1 314.87C258.59 314.31 255.81 313.34 254.02 312.61C252.24 307.18 250.45 301.75 248.67 296.32C247.26 296.69 245.84 297.06 244.43 297.43C245.11 300.92 245.98 304.64 247.1 308.57C248.01 311.75 248.98 314.73 249.98 317.5Z" fill="url(#paint19_linear)"/>
<path d="M282.3 308.79C284.59 312.94 286.18 312.72 286.59 315.22C286.96 317.45 286.19 320.6 283.71 321.93C280.92 323.43 277.85 321.58 277.68 321.48C275.97 320.41 275.25 318.79 275 318.19C273.6 314.89 275.65 313.39 274.19 310.94C273.61 309.96 273.02 309.76 270.86 306.95C270.56 306.55 270.09 305.93 270.03 305.05C269.96 303.93 270.59 303.07 270.8 302.81C272.06 301.25 274.29 301.34 274.96 301.36C276.96 301.44 278.38 302.43 278.81 302.76C280.76 304.23 280.58 305.67 282.3 308.79Z" fill="#172B4D"/>
<path d="M189.45 54.1405C188.7 54.1905 187.99 53.6605 187.82 53.5405C187.6 53.3805 187.13 53.0305 187.19 52.6905C187.22 52.5005 187.4 52.4105 187.63 52.2405C188.28 51.7805 188.43 51.4205 188.71 51.1905C188.96 50.9805 189.66 50.6005 191.62 51.2705C191.51 52.9005 190.48 54.0705 189.45 54.1405Z" fill="#B19177"/>
<path d="M219.43 37.3105C221.56 37.3405 223.7 37.3705 225.83 37.4005C225.75 37.7705 225.67 38.2605 225.68 38.8205C225.68 39.3505 225.76 39.8205 225.84 40.1905C225.87 40.3405 226 40.4405 226.14 40.4705L227.95 40.7805C227.78 41.2705 227.43 42.0405 226.74 42.7605C225.98 43.5505 225.19 43.8905 224.53 44.1705C223.55 44.5805 222.19 45.1505 220.54 44.9205C218.02 44.5705 216.54 42.5705 216.21 42.1005C216.48 42.0205 216.89 41.8705 217.36 41.6305C218.15 41.2105 219.2 40.6505 219.46 39.6605C219.55 39.2905 219.53 38.8305 219.47 37.8905C219.47 37.6505 219.45 37.4505 219.43 37.3105Z" fill="#A27F68"/>
<path d="M218.98 39.9508C221.88 40.6708 224.59 39.2208 225.54 38.6608C225.58 38.3708 225.65 37.9308 225.76 37.4008C226.36 34.5408 227.26 33.6608 227.52 32.3108C227.93 30.2408 226.82 27.3008 224.29 26.0108C222.14 24.9108 219.28 25.1808 217.4 26.7508C216.07 27.8608 215.65 29.2808 215.5 29.8908V32.5308C215.37 32.7808 215.14 33.1708 214.79 33.5908C214.32 34.1508 214 34.3508 214.05 34.5508C214.09 34.7208 214.39 34.9108 215.68 34.9408C215.76 35.5708 215.84 36.0708 215.92 36.5708C216.11 37.7808 216.07 37.9508 216.16 38.2008C216.58 39.3608 218.28 39.7808 218.98 39.9508Z" fill="#A27F68"/>
<path d="M215.95 28.9103C216.41 29.5503 217.81 29.5203 218.8 29.2703C220.35 28.8703 220.73 27.9603 221.69 28.1703C222.1 28.2603 222.55 28.5303 222.76 28.9203C222.99 29.3203 222.97 29.8503 222.94 30.7703C222.93 31.1203 222.9 31.3503 223.05 31.6103C223.24 31.9603 223.47 31.9103 223.64 32.2103C223.94 32.7403 223.44 33.2703 223.74 33.6403C223.82 33.7403 223.99 33.8703 224.39 33.8803C224.59 33.2603 224.78 32.6403 224.98 32.0103C225.51 32.0603 225.71 32.2303 225.79 32.3703C226.02 32.7703 225.52 33.2603 224.98 34.7903C224.85 35.1603 224.78 35.3503 224.77 35.5203C224.71 36.5103 225.57 37.6803 226.23 37.6703C227.33 37.6603 228.58 34.4203 228.47 31.5003C228.42 30.3603 228.3 27.1703 225.71 25.3903C223.85 24.1103 221.71 24.2503 221.02 24.3003C220.31 24.3503 218.82 24.4603 217.39 25.4603C216.92 25.7903 215.59 26.7203 215.26 28.3403C215.17 28.7603 215.18 29.1203 215.2 29.3703C215.31 28.8503 215.46 28.2403 215.62 28.2503C215.76 28.2603 215.74 28.6203 215.95 28.9103Z" fill="url(#paint20_linear)"/>
<path d="M205.78 128.03L218.01 126.79V127.4L205.46 128.59L205.78 128.03Z" fill="#7A869A"/>
<path d="M205.46 128.59L205.73 128.12C206.45 126.88 207.66 125.99 209.07 125.69L211.37 125.2C212.17 125.03 212.77 124.38 212.88 123.57L213.22 120.98L217.74 120.7L218.02 127.39L205.46 128.59Z" fill="#344563"/>
<path d="M209.46 125.61L209.06 125.69C207.65 125.99 206.44 126.87 205.72 128.12L205.45 128.59L209.45 128.21V125.61H209.46Z" fill="#7A869A"/>
<path d="M215.6 125.18C216.031 125.18 216.38 124.831 216.38 124.4C216.38 123.969 216.031 123.62 215.6 123.62C215.169 123.62 214.82 123.969 214.82 124.4C214.82 124.831 215.169 125.18 215.6 125.18Z" fill="#7A869A"/>
<path d="M230.74 81.4806C228.22 83.9706 224.44 88.4706 218.49 96.4606C218.8 105.081 219.11 113.691 219.42 122.311L211.24 122.581C210.86 118.231 210.46 113.861 210.04 109.451C209.51 103.841 208.94 98.2806 208.36 92.7706C208.28 92.0206 208.41 91.2606 208.75 90.5906C210.39 87.3706 212.43 83.8306 214.99 80.1406C217.33 76.7706 219.69 73.8606 221.91 71.3806L234.38 71.3506C234.54 72.6606 234.61 74.7406 233.78 76.9806C232.88 79.4106 231.35 80.8806 230.74 81.4806Z" fill="url(#paint21_linear)"/>
<path d="M234.78 72.8004C227.27 72.7204 219.75 72.6404 212.24 72.5504C212.22 68.4104 212.19 65.0104 212.17 62.6604C212.13 58.3204 212.11 56.3904 212.08 52.7204C212.05 48.9304 212.03 45.8404 212.03 43.8204C213.24 43.3304 214.5 42.7804 215.8 42.1604C216.7 41.7304 217.56 41.2904 218.39 40.8604C218.56 41.2804 219.16 42.6404 220.52 43.1604C222.31 43.8404 224.78 42.8004 226.08 40.4004C227.52 40.4304 229.77 40.6704 232.19 41.8404C232.95 42.2104 233.61 42.5304 234.2 43.0304C236.95 45.3804 236.47 50.2804 235.83 56.0004C235.58 58.2404 235.13 61.3104 234.23 64.9204C234.4 67.5504 234.59 70.1704 234.78 72.8004Z" fill="url(#paint22_linear)"/>
<path d="M194.28 58.3799L193.65 54.3999L211.37 51.3899C213.71 51.0399 215.87 52.3999 216.2 54.4299C216.22 54.6399 216.38 56.1699 215.22 57.3799C214.18 58.4699 212.83 58.4899 212.6 58.4899C206.49 58.4499 200.39 58.4099 194.28 58.3799Z" fill="#B19177"/>
<path d="M209.05 57.03C208.74 56.35 208.96 55.5 209.56 54.43C211.19 51.52 213.38 50.98 218.72 47.64C218.72 47.64 224.53 44 228.02 42.83C228.37 42.71 228.93 42.56 229.63 42.5C230.36 42.44 231.25 42.5 232.2 42.84C232.75 43.04 233.98 43.5 234.59 44.53C235.68 46.38 234.25 49.22 232.72 50.76C231.96 51.53 231.33 51.83 229.17 52.84C221.36 56.46 220.22 56.86 219.03 57.22C217.9 57.56 216.28 58 214.27 58.37C211.63 58.75 209.58 58.23 209.05 57.03Z" fill="#B19177"/>
<path d="M195.45 54.54C196.09 56.24 195.74 57.78 194.91 58.22C194.17 58.61 193.17 58.08 192.84 57.9C191.62 57.25 191.15 56.1 191.02 55.73C190.44 55.35 188.94 54.29 189.14 53.56C189.16 53.48 189.2 53.51 189.46 52.89C189.66 52.39 189.69 52.19 189.92 52.05C190.18 51.88 190.39 51.99 190.71 51.77C190.96 51.6 190.95 51.44 191.1 51.33C191.6 50.95 192.97 51.84 193.83 52.59C194.24 52.97 194.86 53.6 195.45 54.54Z" fill="#B19177"/>
<path d="M234.59 44.5202C233.99 43.4902 232.76 43.0302 232.2 42.8302C231.26 42.4902 230.37 42.4302 229.63 42.4902C228.92 42.5502 228.37 42.7002 228.02 42.8202C225.91 43.5302 222.97 45.1302 220.96 46.2902C223.29 48.4902 224.65 51.5302 225.07 54.7102C226.18 54.2002 227.52 53.5902 229.16 52.8302C231.32 51.8302 231.95 51.5202 232.71 50.7502C234.24 49.2102 235.67 46.3702 234.59 44.5202Z" fill="#FFC400"/>
<path opacity="0.25" d="M36.15 427.339C56.1151 427.339 72.3 423.802 72.3 419.439C72.3 415.076 56.1151 411.539 36.15 411.539C16.1849 411.539 0 415.076 0 419.439C0 423.802 16.1849 427.339 36.15 427.339Z" fill="url(#paint23_linear)"/>
<path d="M22.6697 419.64L12.7197 417.51L14.0797 411.18C15.0997 411.68 16.1297 412.19 17.1497 412.69C17.2597 414.37 17.8297 415.24 18.3397 415.72C19.6097 416.94 21.3597 416.58 22.2497 417.94C22.6297 418.55 22.6797 419.21 22.6697 419.64Z" fill="#172B4D"/>
<path d="M22.7929 418.959L12.4478 416.742L12.3011 417.427L22.6462 419.643L22.7929 418.959Z" fill="#8993A4"/>
<path d="M15.2402 415.511C15.6655 415.511 16.0102 415.166 16.0102 414.741C16.0102 414.315 15.6655 413.971 15.2402 413.971C14.815 413.971 14.4702 414.315 14.4702 414.741C14.4702 415.166 14.815 415.511 15.2402 415.511Z" fill="#8993A4"/>
<path d="M65.6804 418.821H54.3604V411.631C55.5904 411.681 56.8204 411.741 58.0504 411.791C58.4304 414.161 59.3303 415.131 60.0504 415.571C61.6404 416.561 63.5004 415.761 64.8204 417.071C65.3804 417.641 65.5904 418.341 65.6804 418.821Z" fill="#172B4D"/>
<path d="M65.9001 418.051H54.1401V418.821H65.9001V418.051Z" fill="#8993A4"/>
<path d="M56.7104 416.261C57.1798 416.261 57.5604 415.88 57.5604 415.411C57.5604 414.941 57.1798 414.561 56.7104 414.561C56.2409 414.561 55.8604 414.941 55.8604 415.411C55.8604 415.88 56.2409 416.261 56.7104 416.261Z" fill="#8993A4"/>
<path d="M47.8102 336.77C47.2402 336.97 46.0902 337.28 44.6602 337.07C43.0202 336.83 41.9002 336.04 41.4302 335.65C41.9202 335.05 42.5402 334.16 43.0402 332.98C43.6202 331.6 43.8102 330.36 43.8702 329.52C45.6602 329.82 47.4402 330.13 49.2302 330.43C48.7502 332.55 48.2802 334.66 47.8102 336.77Z" fill="#D4B696"/>
<path d="M52.8299 324.421C52.8099 324.941 52.8199 325.661 52.9199 326.521C52.9799 326.991 53.0399 327.331 53.0599 327.421C53.1699 328.001 53.3799 328.831 53.7799 329.791C53.3899 329.851 52.9999 329.911 52.6099 329.971C52.2399 331.191 51.8699 332.411 51.5099 333.631C49.4199 334.061 47.7499 333.881 46.7299 333.691C45.3899 333.431 44.0299 333.171 43.4399 332.131C43.2499 331.801 43.2399 331.561 43.0699 330.981C42.9199 330.451 42.8599 330.341 42.8399 330.271C42.7399 329.981 42.5899 329.571 42.3799 329.071C42.6599 329.231 43.1799 329.491 43.8699 329.531C44.3699 329.561 44.9499 329.601 45.3299 329.241C45.9199 328.691 45.4999 327.711 46.0299 327.451C46.2599 327.331 46.5699 327.401 46.7499 327.541C47.3299 327.981 47.0599 329.431 47.0599 329.431L47.0799 329.441C47.0899 329.441 47.3499 329.451 48.1099 329.451C48.2199 328.561 48.5199 327.981 48.7699 327.621C49.3399 326.781 49.8499 326.791 50.2699 325.961C50.6799 325.141 50.4099 324.671 50.8099 324.331C51.0799 324.091 51.6199 323.951 52.8299 324.421Z" fill="#D4B696"/>
<path d="M68.9103 314.079C68.8403 314.879 69.1603 315.519 69.2403 315.669C69.6603 316.479 70.9503 319.019 71.8003 318.769C72.2003 318.649 72.3303 317.929 72.3403 317.569C72.3503 316.859 71.4603 316.509 71.3203 315.719C71.2903 315.549 71.2703 315.459 71.2303 315.279C71.1203 314.829 71.0703 314.609 70.9703 314.589C70.7603 314.539 70.6103 315.069 70.3103 315.079C69.7803 315.099 69.4103 313.449 69.1103 313.509C68.9603 313.529 68.9203 313.939 68.9103 314.079Z" fill="#D4B696"/>
<path d="M31.2301 353.77C30.2701 355.59 29.3401 357.52 28.4501 359.56C24.7101 368.15 22.8301 376.31 21.9101 383.29C20.7301 386.01 19.5801 388.92 18.4901 392C15.8801 399.43 14.1901 406.41 13.1001 412.67C14.8901 413.08 16.6801 413.49 18.4701 413.9C21.8901 404.61 25.3201 395.32 28.7401 386.03C29.2801 384.89 30.0701 383.19 31.0201 381.13C37.9501 366.14 38.6201 363.46 37.8201 360.75C37.3501 359.14 36.0001 356.34 31.2301 353.77Z" fill="#FFAB00"/>
<path d="M58.7403 248.84H99.1103C114.02 248.84 126.1 260.92 126.1 275.83V288.03C126.1 302.94 114.02 315.02 99.1103 315.02H77.0503C73.1403 315.02 69.5503 317.16 67.6803 320.59L64.3003 326.82L60.4903 319.8C58.9903 317.05 56.3603 315.09 53.2903 314.46C41.0003 311.93 31.7603 301.06 31.7603 288.03V275.83C31.7503 260.92 43.8403 248.84 58.7403 248.84Z" fill="url(#paint24_linear)"/>
<path d="M101.991 289.059C98.4405 289.059 95.5605 286.169 95.5605 282.629C95.5605 279.079 98.4505 276.199 101.991 276.199C105.531 276.199 108.421 279.089 108.421 282.629C108.421 286.179 105.541 289.059 101.991 289.059ZM101.991 278.669C99.8005 278.669 98.0305 280.449 98.0305 282.629C98.0305 284.809 99.8105 286.589 101.991 286.589C104.171 286.589 105.951 284.809 105.951 282.629C105.951 280.449 104.171 278.669 101.991 278.669Z" fill="#FAFBFC"/>
<path d="M78.9305 289.059C75.3805 289.059 72.5005 286.169 72.5005 282.629C72.5005 279.079 75.3905 276.199 78.9305 276.199C82.4705 276.199 85.3605 279.089 85.3605 282.629C85.3605 286.179 82.4805 289.059 78.9305 289.059ZM78.9305 278.669C76.7405 278.669 74.9705 280.449 74.9705 282.629C74.9705 284.809 76.7505 286.589 78.9305 286.589C81.1105 286.589 82.8905 284.809 82.8905 282.629C82.8905 280.449 81.1105 278.669 78.9305 278.669Z" fill="#FAFBFC"/>
<path d="M55.8704 289.059C52.3204 289.059 49.4404 286.169 49.4404 282.629C49.4404 279.079 52.3304 276.199 55.8704 276.199C59.4104 276.199 62.3004 279.089 62.3004 282.629C62.3004 286.179 59.4204 289.059 55.8704 289.059ZM55.8704 278.669C53.6804 278.669 51.9104 280.449 51.9104 282.629C51.9104 284.809 53.6904 286.589 55.8704 286.589C58.0504 286.589 59.8304 284.809 59.8304 282.629C59.8304 280.449 58.0604 278.669 55.8704 278.669Z" fill="#FAFBFC"/>
<path d="M74.71 319.001C74.02 319.751 72.13 319.511 71.14 318.481C70.28 317.571 70.35 316.321 70.37 316.061C70.43 315.141 70.81 315.061 71.05 314.071C71.55 312.061 70.47 310.401 70.93 310.141C71.04 310.081 71.26 310.091 71.71 310.471C71.78 310.391 71.89 310.281 72.03 310.281C72.33 310.281 72.55 310.801 72.65 311.041C73.67 313.501 74.18 314.741 74.36 315.541C74.83 317.591 75.06 318.631 74.71 319.001Z" fill="#D4B696"/>
<path d="M74.1202 312.659C74.3802 313.299 74.3402 313.719 74.3902 314.639C74.5202 317.069 74.9902 318.579 74.8102 318.629C74.7002 318.659 74.4902 318.169 74.3802 317.909C73.4702 315.769 71.9802 311.229 72.6402 310.949C72.9702 310.809 73.7502 311.759 74.1202 312.659Z" fill="#D4B696"/>
<path d="M44.8302 356.87C48.0802 364.68 51.3102 373.7 54.0802 383.86C56.9702 394.45 58.8102 404.24 59.9802 412.89C57.9202 412.9 55.8502 412.92 53.7902 412.93C52.9002 409 51.8802 404.93 50.7202 400.73C49.1302 394.99 47.4202 389.58 45.6602 384.5C36.9702 376.13 31.1602 369.03 29.4702 365.54C28.8202 364.19 27.6702 361.82 28.4402 359.54C28.5602 359.17 28.8902 358.5 29.5302 357.16C30.1902 355.79 30.7502 354.67 31.1302 353.93C32.7302 354.54 34.5402 355.12 36.5502 355.62C39.6302 356.39 42.4402 356.73 44.8302 356.87Z" fill="url(#paint25_linear)"/>
<path d="M35.59 287.31C35.72 288.16 35.43 288.86 35.36 289.03C34.98 289.93 33.79 292.73 32.87 292.53C32.43 292.43 32.24 291.67 32.2 291.29C32.13 290.54 33.06 290.09 33.15 289.24C33.17 289.05 33.19 288.96 33.22 288.76C33.3 288.28 33.34 288.03 33.45 288C33.67 287.93 33.87 288.48 34.2 288.47C34.77 288.45 35.04 286.67 35.36 286.7C35.5 286.72 35.57 287.16 35.59 287.31Z" fill="#D4B696"/>
<path d="M30.2602 292.9C31.0002 293.6 32.8702 293.23 33.7802 292.12C34.5802 291.16 34.4102 289.91 34.3802 289.66C34.2602 288.75 33.8702 288.69 33.5602 287.72C32.9202 285.75 33.8802 284.02 33.4002 283.79C33.2802 283.74 33.0702 283.77 32.6402 284.17C32.5702 284.09 32.4402 283.99 32.3002 284C32.0002 284.02 31.8202 284.55 31.7402 284.8C30.9002 287.33 30.4802 288.6 30.3502 289.41C30.0402 291.51 29.8902 292.56 30.2602 292.9Z" fill="#D4B696"/>
<path d="M30.4099 286.541C30.1999 287.201 30.2599 287.611 30.2799 288.531C30.3299 290.971 29.9599 292.501 30.1499 292.541C30.2599 292.561 30.4299 292.061 30.5299 291.791C31.2799 289.591 32.4499 284.951 31.7699 284.731C31.4199 284.611 30.7099 285.611 30.4099 286.541Z" fill="#D4B696"/>
<path d="M52.42 337.079C50.04 336.849 44.82 335.999 40.03 332.069C36.2 328.919 34.45 325.279 33.59 323.449C31.71 319.419 31.23 315.779 31.11 313.529C31.93 309.229 32.65 304.719 33.25 299.979C33.53 297.729 33.78 295.519 33.98 293.359C32.44 292.529 30.9 291.689 29.37 290.859C28.41 294.419 27.5 298.189 26.68 302.179C25.76 306.639 25.04 310.909 24.48 314.949C24.89 318.949 26.02 324.889 29.36 331.239C31.15 334.639 33.16 337.369 34.97 339.459C34.35 341.599 33.6 343.869 32.69 346.239C31.51 349.329 30.24 352.129 28.97 354.619C30.2 355.779 32.51 357.659 35.92 358.789C40.33 360.259 44.12 359.689 45.85 359.309C46.62 357.419 47.36 355.379 48.07 353.189C49.03 350.209 49.76 347.379 50.32 344.759C52.02 344.949 54.57 345.069 57.6 344.559C60.17 344.129 64.47 343.409 68.07 340.199C71.03 337.569 72.08 334.529 73.34 330.889C74.3 328.139 75.44 323.719 75.31 318.019C74.96 317.859 74.32 317.629 73.49 317.649C72.31 317.679 71.47 318.229 71.15 318.459C70.73 320.819 70.03 323.649 68.84 326.739C67.53 330.149 65.98 332.949 64.59 335.109C63.4 335.739 61.76 336.449 59.73 336.899C56.67 337.579 54.07 337.359 52.42 337.079Z" fill="url(#paint26_linear)"/>
</g>
<defs>
<linearGradient id="paint0_linear" x1="224.76" y1="120.705" x2="224.76" y2="71.3754" gradientUnits="userSpaceOnUse">
<stop stop-color="#FFC400"/>
<stop offset="1" stop-color="#FF991F"/>
</linearGradient>
<linearGradient id="paint1_linear" x1="198.984" y1="397.716" x2="359.935" y2="397.716" gradientUnits="userSpaceOnUse">
<stop stop-color="#091E42"/>
<stop offset="1" stop-color="#091E42" stop-opacity="0.2"/>
</linearGradient>
<linearGradient id="paint2_linear" x1="183.128" y1="402.226" x2="183.128" y2="222.391" gradientUnits="userSpaceOnUse">
<stop offset="0.2151" stop-color="white"/>
<stop offset="1" stop-color="#C1C7D0"/>
</linearGradient>
<linearGradient id="paint3_linear" x1="246.19" y1="294.026" x2="246.19" y2="198.5" gradientUnits="userSpaceOnUse">
<stop stop-color="#FFC400"/>
<stop offset="1" stop-color="#FF991F"/>
</linearGradient>
<linearGradient id="paint4_linear" x1="281.892" y1="314.721" x2="281.892" y2="40.4524" gradientUnits="userSpaceOnUse">
<stop stop-color="#C1C7D0"/>
<stop offset="0.7849" stop-color="white"/>
</linearGradient>
<linearGradient id="paint5_linear" x1="94.706" y1="66.7459" x2="418.271" y2="333.025" gradientUnits="userSpaceOnUse">
<stop offset="0.2151" stop-color="#C1C7D0" stop-opacity="0"/>
<stop offset="1" stop-color="#C1C7D0"/>
</linearGradient>
<linearGradient id="paint6_linear" x1="332.918" y1="174.742" x2="521.32" y2="174.742" gradientUnits="userSpaceOnUse">
<stop stop-color="#0052CC"/>
<stop offset="1" stop-color="#2684FF"/>
</linearGradient>
<linearGradient id="paint7_linear" x1="354.185" y1="174.626" x2="510.127" y2="174.626" gradientUnits="userSpaceOnUse">
<stop stop-color="#0065FF"/>
<stop offset="1" stop-color="#4C9AFF"/>
</linearGradient>
<linearGradient id="paint8_linear" x1="417.084" y1="174.626" x2="339.112" y2="174.626" gradientUnits="userSpaceOnUse">
<stop stop-color="#0052CC" stop-opacity="0"/>
<stop offset="0.1284" stop-color="#0052CC" stop-opacity="0.1284"/>
<stop offset="1" stop-color="#0052CC"/>
</linearGradient>
<linearGradient id="paint9_linear" x1="206.044" y1="48.6082" x2="219.164" y2="48.6082" gradientUnits="userSpaceOnUse">
<stop stop-color="#FFC400"/>
<stop offset="1" stop-color="#FF991F"/>
</linearGradient>
<linearGradient id="paint10_linear" x1="130.014" y1="108.252" x2="192.927" y2="45.3391" gradientUnits="userSpaceOnUse">
<stop stop-color="#0065FF"/>
<stop offset="1" stop-color="#4C9AFF"/>
</linearGradient>
<linearGradient id="paint11_linear" x1="125.556" y1="172.495" x2="149.408" y2="172.495" gradientUnits="userSpaceOnUse">
<stop stop-color="#36B37E"/>
<stop offset="1" stop-color="#79F2C0"/>
</linearGradient>
<linearGradient id="paint12_linear" x1="126.108" y1="133.25" x2="173.044" y2="133.25" gradientUnits="userSpaceOnUse">
<stop stop-color="#00875A"/>
<stop offset="1" stop-color="#57D9A3"/>
</linearGradient>
<linearGradient id="paint13_linear" x1="271.453" y1="314.052" x2="277.801" y2="314.052" gradientUnits="userSpaceOnUse">
<stop offset="0.3771" stop-color="#F1DBCB"/>
<stop offset="1" stop-color="#EFC7B0"/>
</linearGradient>
<linearGradient id="paint14_linear" x1="274.762" y1="331.59" x2="290.214" y2="331.59" gradientUnits="userSpaceOnUse">
<stop stop-color="#253858"/>
<stop offset="1" stop-color="#344563"/>
</linearGradient>
<linearGradient id="paint15_linear" x1="252.509" y1="369.898" x2="280.701" y2="369.898" gradientUnits="userSpaceOnUse">
<stop offset="0.3771" stop-color="#F1DBCB"/>
<stop offset="1" stop-color="#EFC7B0"/>
</linearGradient>
<linearGradient id="paint16_linear" x1="252.509" y1="393.978" x2="260.629" y2="393.978" gradientUnits="userSpaceOnUse">
<stop stop-color="#253858"/>
<stop offset="1" stop-color="#344563"/>
</linearGradient>
<linearGradient id="paint17_linear" x1="270.995" y1="390.651" x2="276.88" y2="390.651" gradientUnits="userSpaceOnUse">
<stop stop-color="#253858"/>
<stop offset="1" stop-color="#344563"/>
</linearGradient>
<linearGradient id="paint18_linear" x1="268.322" y1="310.19" x2="275.861" y2="310.19" gradientUnits="userSpaceOnUse">
<stop offset="0.3771" stop-color="#F1DBCB"/>
<stop offset="1" stop-color="#EFC7B0"/>
</linearGradient>
<linearGradient id="paint19_linear" x1="244.426" y1="318.621" x2="284.265" y2="318.621" gradientUnits="userSpaceOnUse">
<stop stop-color="#253858"/>
<stop offset="1" stop-color="#344563"/>
</linearGradient>
<linearGradient id="paint20_linear" x1="221.851" y1="37.6726" x2="221.851" y2="24.2763" gradientUnits="userSpaceOnUse">
<stop stop-color="#253858" stop-opacity="0.1"/>
<stop offset="0.7192" stop-color="#253858"/>
</linearGradient>
<linearGradient id="paint21_linear" x1="208.331" y1="96.9637" x2="234.48" y2="96.9637" gradientUnits="userSpaceOnUse">
<stop stop-color="#FFF0B2"/>
<stop offset="0.5692" stop-color="#FFC400"/>
</linearGradient>
<linearGradient id="paint22_linear" x1="212.022" y1="56.5977" x2="236.303" y2="56.5977" gradientUnits="userSpaceOnUse">
<stop stop-color="#FFC400"/>
<stop offset="0.0847" stop-color="#FFB809"/>
<stop offset="0.2475" stop-color="#FFA715"/>
<stop offset="0.4236" stop-color="#FF9C1D"/>
<stop offset="0.6358" stop-color="#FF991F"/>
</linearGradient>
<linearGradient id="paint23_linear" x1="0" y1="419.438" x2="72.3017" y2="419.438" gradientUnits="userSpaceOnUse">
<stop stop-color="#091E42" stop-opacity="0"/>
<stop offset="1" stop-color="#091E42"/>
</linearGradient>
<linearGradient id="paint24_linear" x1="31.7507" y1="287.829" x2="126.108" y2="287.829" gradientUnits="userSpaceOnUse">
<stop stop-color="#36B37E"/>
<stop offset="1" stop-color="#79F2C0"/>
</linearGradient>
<linearGradient id="paint25_linear" x1="44.0911" y1="412.934" x2="44.0911" y2="353.95" gradientUnits="userSpaceOnUse">
<stop stop-color="#FFC400"/>
<stop offset="0.0847" stop-color="#FFB809"/>
<stop offset="0.2475" stop-color="#FFA715"/>
<stop offset="0.4236" stop-color="#FF9C1D"/>
<stop offset="0.6358" stop-color="#FF991F"/>
</linearGradient>
<linearGradient id="paint26_linear" x1="49.8897" y1="359.752" x2="49.8897" y2="290.862" gradientUnits="userSpaceOnUse">
<stop offset="0.4308" stop-color="#FFC400"/>
<stop offset="1" stop-color="#FFF0B2"/>
</linearGradient>
<clipPath id="clip0">
<path d="M0 0H521.32V430.2H0V0Z" fill="white"/>
</clipPath>
</defs>
</svg>
