<svg width="144" height="143" viewBox="0 0 144 143" fill="none" xmlns="http://www.w3.org/2000/svg">
<g clip-path="url(#clip0)">
<g clip-path="url(#clip1)">
<path d="M62.1744 86.1789L12.2382 36.2493L37.3636 11.1436L87.2932 61.0731C73.3769 59.4082 66.0549 66.481 66.0549 66.481C66.0549 66.481 59.8014 74.1242 62.1744 86.1789Z" fill="url(#paint0_linear)"/>
<path d="M126.656 68.9922H76.3463C72.3966 68.9922 69.1948 72.194 69.1948 76.1437V126.453C69.1948 130.403 72.3966 133.605 76.3463 133.605H126.656C130.606 133.605 133.808 130.403 133.808 126.453V76.1437C133.808 72.194 130.606 68.9922 126.656 68.9922Z" fill="#EBECF0"/>
<path d="M6.38458 49.7529L43.368 49.7529C46.8941 49.7529 49.7526 46.8945 49.7526 43.3683L49.7526 6.38492C49.7526 2.85881 46.8941 0.000328064 43.368 0.000328064L6.38458 0.000328064C2.85847 0.000328064 -7.62939e-06 2.85881 -7.62939e-06 6.38492L-7.62939e-06 43.3683C-7.62939e-06 46.8945 2.85847 49.7529 6.38458 49.7529Z" fill="#F4F5F7"/>
<path d="M141.536 127.26V75.5081C141.536 67.9635 135.42 61.8474 127.875 61.8474L76.1235 61.8474C68.5789 61.8474 62.4628 67.9635 62.4628 75.5081V127.26C62.4628 134.805 68.5789 140.921 76.1235 140.921H127.875C135.42 140.921 141.536 134.805 141.536 127.26Z" stroke="#B2D4FF" stroke-width="5" stroke-miterlimit="10"/>
<path d="M49.4251 60.7589L46.7089 58.0427L43.9928 60.7589L46.7089 63.4751L49.4251 60.7589Z" fill="white"/>
<path d="M59.2081 69.3876L56.4919 66.6714L53.7758 69.3876L56.4919 72.1037L59.2081 69.3876Z" fill="white"/>
<path d="M65.791 54.1515L63.0748 51.4353L60.3587 54.1515L63.0748 56.8676L65.791 54.1515Z" fill="white"/>
<path d="M49.4269 55.1454L46.7108 52.4292L43.9946 55.1454L46.7108 57.8615L49.4269 55.1454Z" fill="white"/>
<path d="M65.7906 59.8299L63.0744 57.1138L60.3583 59.8299L63.0744 62.5461L65.7906 59.8299Z" fill="#4C9AFF"/>
<path d="M71.4676 59.8375L68.7515 57.1213L66.0353 59.8375L68.7515 62.5537L71.4676 59.8375Z" fill="#4C9AFF"/>
<path d="M59.2059 40.6405L56.4897 37.9243L53.7736 40.6405L56.4897 43.3566L59.2059 40.6405Z" fill="#4C9AFF"/>
<path d="M101.568 101.568V111.361H91.9202V101.568H101.568V91.7754H83.9574C83.5047 91.7875 83.0746 91.9758 82.7587 92.3003C82.4428 92.6249 82.2662 93.0599 82.2663 93.5127V119.434C82.2662 119.887 82.4428 120.322 82.7587 120.646C83.0746 120.971 83.5047 121.159 83.9574 121.171H109.525C109.751 121.17 109.974 121.124 110.182 121.035C110.389 120.947 110.577 120.818 110.734 120.656C110.892 120.495 111.015 120.303 111.098 120.094C111.181 119.884 111.221 119.66 111.216 119.434V101.568H101.568Z" fill="url(#paint1_linear)"/>
<path d="M101.568 81.9825V91.7753H111.216V101.568H120.87V83.7024C120.87 83.2496 120.694 82.8146 120.378 82.49C120.062 82.1655 119.632 81.9772 119.179 81.9651L101.568 81.9825Z" fill="#2684FF"/>
<path d="M21.3733 34.7953L12.8733 25.8953C12.69 25.7084 12.5874 25.4571 12.5874 25.1953C12.5874 24.9336 12.69 24.6823 12.8733 24.4953L15.1733 22.3953C15.3602 22.2121 15.6115 22.1095 15.8733 22.1095C16.135 22.1095 16.3863 22.2121 16.5733 22.3953L22.1733 28.2953L36.7733 14.2953C36.9769 14.1055 37.2449 14 37.5233 14C37.8016 14 38.0696 14.1055 38.2733 14.2953L40.3733 16.4953C40.5565 16.6823 40.6591 16.9336 40.6591 17.1953C40.6591 17.4571 40.5565 17.7084 40.3733 17.8953L22.7733 34.6953C22.5998 34.8925 22.3557 35.0135 22.0938 35.0322C21.8318 35.0509 21.573 34.9658 21.3733 34.7953Z" fill="#2684FF"/>
</g>
</g>
<defs>
<linearGradient id="paint0_linear" x1="24.7845" y1="23.703" x2="74.7141" y2="73.6326" gradientUnits="userSpaceOnUse">
<stop offset="0.07" stop-color="#DEEBFF"/>
<stop offset="0.17" stop-color="#D8E8FF"/>
<stop offset="0.69" stop-color="#BCD9FF"/>
<stop offset="1" stop-color="#B2D4FF"/>
</linearGradient>
<linearGradient id="paint1_linear" x1="109.67" y1="93.5359" x2="93.1016" y2="110.104" gradientUnits="userSpaceOnUse">
<stop offset="0.2" stop-color="#0052CC"/>
<stop offset="1" stop-color="#2684FF"/>
</linearGradient>
<clipPath id="clip0">
<rect width="143.175" height="142.552" fill="white"/>
</clipPath>
<clipPath id="clip1">
<rect width="143.175" height="142.552" fill="white"/>
</clipPath>
</defs>
</svg>
