<svg width="209" height="193" viewBox="0 0 209 193" fill="none" xmlns="http://www.w3.org/2000/svg">
<g clip-path="url(#clip0)">
<path d="M0.899902 0.400391H208.8V192.8H0.899902V0.400391Z" fill="white" fill-opacity="0.01"/>
<path d="M68.7 29.7011C67.9378 29.7028 67.2035 29.4144 66.6463 28.8943C66.0891 28.3743 65.7508 27.6616 65.7 26.9011C65.6728 26.507 65.7238 26.1114 65.8499 25.737C65.9761 25.3626 66.175 25.0168 66.4351 24.7194C66.6953 24.4221 67.0116 24.1791 67.366 24.0043C67.7203 23.8296 68.1057 23.7266 68.5 23.7011L157.5 19.5011C157.889 19.4741 158.28 19.5257 158.648 19.653C159.017 19.7803 159.356 19.9806 159.645 20.242C159.935 20.5034 160.168 20.8205 160.332 21.1743C160.496 21.5281 160.587 21.9114 160.6 22.3011C160.627 22.6953 160.576 23.0909 160.45 23.4653C160.324 23.8397 160.125 24.1855 159.865 24.4829C159.605 24.7802 159.288 25.0232 158.934 25.198C158.58 25.3727 158.194 25.4757 157.8 25.5011L68.8 29.7011H68.7Z" fill="#CFD4DB"/>
<path d="M84.5999 179.8C83.9508 179.8 83.3192 179.589 82.7999 179.2L23.7999 132.3C23.1721 131.79 22.7685 131.055 22.6751 130.252C22.5816 129.448 22.8059 128.64 23.2999 128C23.5425 127.688 23.8463 127.429 24.1926 127.239C24.5389 127.049 24.9204 126.931 25.3136 126.894C25.7069 126.856 26.1037 126.9 26.4797 127.021C26.8556 127.143 27.2028 127.339 27.4999 127.6L86.4999 174.5C87.1211 174.992 87.5223 175.71 87.616 176.497C87.7097 177.284 87.4882 178.076 86.9999 178.7C86.7012 179.043 86.3325 179.319 85.9187 179.509C85.5048 179.699 85.0552 179.798 84.5999 179.8Z" fill="#CFD4DB"/>
<path d="M184.7 121.3C183.994 121.273 183.317 121.013 182.774 120.56C182.232 120.108 181.854 119.489 181.7 118.8L165.7 33.0998C165.628 32.7124 165.632 32.3145 165.714 31.9289C165.795 31.5433 165.952 31.1776 166.175 30.8525C166.398 30.5275 166.682 30.2496 167.013 30.0346C167.343 29.8197 167.712 29.6719 168.1 29.5998C168.487 29.5275 168.885 29.5322 169.271 29.6136C169.656 29.6951 170.022 29.8518 170.347 30.0746C170.672 30.2975 170.95 30.5823 171.165 30.9126C171.38 31.2429 171.528 31.6123 171.6 31.9998L187.6 117.7C187.687 118.088 187.693 118.491 187.617 118.882C187.542 119.272 187.386 119.644 187.161 119.972C186.936 120.3 186.646 120.579 186.308 120.79C185.971 121.001 185.594 121.141 185.2 121.2L184.7 121.3Z" fill="#B3BAC5"/>
<path d="M167.1 37.0004C173.617 37.0004 178.9 31.7174 178.9 25.2004C178.9 18.6834 173.617 13.4004 167.1 13.4004C160.583 13.4004 155.3 18.6834 155.3 25.2004C155.3 31.7174 160.583 37.0004 167.1 37.0004Z" fill="#091E42"/>
<path d="M119.2 53.1004C118.638 53.0884 118.09 52.9239 117.614 52.6244C117.139 52.325 116.754 51.9019 116.5 51.4004C116.156 50.6842 116.11 49.8608 116.373 49.1109C116.635 48.361 117.184 47.7459 117.9 47.4004L158.6 27.4004C158.957 27.2073 159.349 27.0886 159.754 27.0516C160.158 27.0145 160.565 27.0599 160.951 27.1849C161.337 27.3099 161.694 27.512 162 27.7789C162.306 28.0458 162.554 28.3719 162.73 28.7376C162.906 29.1033 163.006 29.5009 163.024 29.9064C163.042 30.3119 162.978 30.7168 162.835 31.0966C162.692 31.4764 162.473 31.8233 162.192 32.1161C161.911 32.409 161.573 32.6418 161.2 32.8004L120.5 52.8004C120.093 52.9936 119.65 53.096 119.2 53.1004Z" fill="#ECEEF1"/>
<path d="M82.8 173.301C82.0838 173.311 81.3877 173.064 80.8375 172.606C80.2873 172.147 79.9193 171.507 79.8 170.801L60.1 46.5008C60.064 45.7594 60.3042 45.0309 60.7741 44.4563C61.244 43.8817 61.9102 43.5017 62.644 43.3898C63.3778 43.2778 64.1271 43.4419 64.7469 43.8503C65.3668 44.2587 65.8132 44.8824 66 45.6008L85.7 169.801C85.787 170.191 85.7895 170.595 85.7072 170.987C85.6249 171.378 85.4598 171.747 85.223 172.069C84.9861 172.391 84.683 172.659 84.3341 172.854C83.9851 173.049 83.5984 173.168 83.2 173.201L82.8 173.301Z" fill="#B3BAC5"/>
<path d="M57.6999 50.0004C71.3966 50.0004 82.4999 38.8971 82.4999 25.2004C82.4999 11.5037 71.3966 0.400391 57.6999 0.400391C44.0032 0.400391 32.8999 11.5037 32.8999 25.2004C32.8999 38.8971 44.0032 50.0004 57.6999 50.0004Z" fill="url(#paint0_linear)"/>
<path d="M19.9 115.6L18.8 115.4C18.4283 115.247 18.0909 115.021 17.8081 114.736C17.5252 114.451 17.3025 114.111 17.1533 113.738C17.0041 113.365 16.9313 112.966 16.9393 112.564C16.9473 112.162 17.036 111.766 17.2 111.4L47.7 38.2995C48.0091 37.5736 48.5917 36.9986 49.3216 36.6991C50.0516 36.3996 50.8702 36.3998 51.6 36.6995C51.9682 36.8414 52.3036 37.057 52.5857 37.333C52.8677 37.6091 53.0904 37.9397 53.2402 38.3048C53.39 38.6699 53.4637 39.0618 53.4568 39.4563C53.4498 39.8509 53.3625 40.2399 53.2 40.5995L22.7 113.8C22.4528 114.335 22.058 114.788 21.5621 115.107C21.0661 115.426 20.4896 115.597 19.9 115.6Z" fill="#CFD4DB"/>
<path d="M99.2998 114.1H98.3998C97.6479 113.868 97.017 113.351 96.6429 112.659C96.2688 111.967 96.1815 111.155 96.3998 110.4L109.6 64.3997C109.704 64.0183 109.882 63.6612 110.125 63.349C110.367 63.0367 110.669 62.7756 111.013 62.5804C111.357 62.3852 111.736 62.26 112.129 62.2118C112.521 62.1636 112.919 62.1935 113.3 62.2997C113.68 62.4024 114.035 62.5812 114.343 62.8255C114.652 63.0697 114.907 63.3741 115.094 63.7203C115.281 64.0664 115.396 64.447 115.431 64.8388C115.467 65.2307 115.422 65.6257 115.3 65.9997L102.2 112C102.006 112.615 101.62 113.152 101.097 113.53C100.575 113.908 99.9447 114.108 99.2998 114.1Z" fill="#ECEEF1"/>
<path d="M169.6 127.601C169.145 127.599 168.695 127.5 168.281 127.31C167.867 127.12 167.499 126.844 167.2 126.501L120.7 68.2009C120.281 67.5729 120.114 66.81 120.232 66.0643C120.351 65.3186 120.746 64.645 121.339 64.1779C121.933 63.7109 122.68 63.4847 123.433 63.5446C124.186 63.6045 124.888 63.9459 125.4 64.5009L171.9 122.801C172.388 123.425 172.61 124.217 172.516 125.004C172.422 125.791 172.021 126.509 171.4 127.001C170.881 127.39 170.249 127.601 169.6 127.601Z" fill="#CFD4DB"/>
<path d="M16.7999 137.601C25.5812 137.601 32.6999 130.482 32.6999 121.701C32.6999 112.919 25.5812 105.801 16.7999 105.801C8.01857 105.801 0.899902 112.919 0.899902 121.701C0.899902 130.482 8.01857 137.601 16.7999 137.601Z" fill="#0065FF"/>
<path d="M26.1999 123.201C25.4377 123.203 24.7035 122.914 24.1463 122.394C23.5891 121.874 23.2507 121.162 23.1999 120.401C23.1728 119.999 23.2271 119.595 23.3594 119.215C23.4918 118.834 23.6995 118.484 23.9702 118.185C24.2408 117.886 24.5689 117.645 24.9348 117.476C25.3008 117.307 25.697 117.214 26.0999 117.201L91.8999 113.701C92.6955 113.661 93.4744 113.939 94.0651 114.474C94.6559 115.008 95.0101 115.755 95.0499 116.551C95.0897 117.347 94.8118 118.126 94.2773 118.716C93.7428 119.307 92.9955 119.661 92.1999 119.701L26.3999 123.201H26.1999Z" fill="#ECEEF1"/>
<path d="M84.5999 192.7C93.3813 192.7 100.5 185.582 100.5 176.8C100.5 168.019 93.3813 160.9 84.5999 160.9C75.8186 160.9 68.7 168.019 68.7 176.8C68.7 185.582 75.8186 192.7 84.5999 192.7Z" fill="#6554C0"/>
<path d="M93.9 174.901C93.2708 174.901 92.6563 174.71 92.1383 174.353C91.6203 173.996 91.2233 173.489 91 172.901C90.8747 172.527 90.8244 172.132 90.8521 171.738C90.8798 171.344 90.9849 170.96 91.1614 170.607C91.3379 170.254 91.5824 169.939 91.8807 169.681C92.179 169.422 92.5254 169.225 92.9 169.101L186.9 136.201C187.656 135.949 188.481 136.008 189.193 136.364C189.906 136.72 190.448 137.345 190.7 138.101C190.952 138.857 190.893 139.682 190.537 140.395C190.181 141.107 189.556 141.649 188.8 141.901L94.8 174.701L93.9 174.901Z" fill="#CFD4DB"/>
<path d="M180.4 164.8C196.085 164.8 208.8 152.085 208.8 136.4C208.8 120.715 196.085 108 180.4 108C164.715 108 152 120.715 152 136.4C152 152.085 164.715 164.8 180.4 164.8Z" fill="url(#paint1_linear)"/>
<path d="M97.0998 128.5C103.617 128.5 108.9 123.217 108.9 116.7C108.9 110.183 103.617 104.9 97.0998 104.9C90.5828 104.9 85.2998 110.183 85.2998 116.7C85.2998 123.217 90.5828 128.5 97.0998 128.5Z" fill="#091E42"/>
<path d="M115.2 72.5012C123.981 72.5012 131.1 65.3825 131.1 56.6012C131.1 47.8198 123.981 40.7012 115.2 40.7012C106.418 40.7012 99.2998 47.8198 99.2998 56.6012C99.2998 65.3825 106.418 72.5012 115.2 72.5012Z" fill="#6554C0"/>
</g>
<defs>
<linearGradient id="paint0_linear" x1="68.7235" y1="47.1012" x2="46.8761" y2="2.50519" gradientUnits="userSpaceOnUse">
<stop stop-color="#0065FF"/>
<stop offset="0.16" stop-color="#0166FF"/>
<stop offset="0.3" stop-color="#0A6CFF"/>
<stop offset="0.52" stop-color="#247BFF"/>
<stop offset="0.81" stop-color="#4D94FF"/>
<stop offset="0.96" stop-color="#66A3FF"/>
</linearGradient>
<linearGradient id="paint1_linear" x1="162.007" y1="122.443" x2="206.327" y2="157.672" gradientUnits="userSpaceOnUse">
<stop stop-color="#0065FF"/>
<stop offset="0.16" stop-color="#096AFF"/>
<stop offset="0.41" stop-color="#2078FF"/>
<stop offset="0.73" stop-color="#468FFF"/>
<stop offset="0.96" stop-color="#66A3FF"/>
</linearGradient>
<clipPath id="clip0">
<path d="M0.899902 0.400391H208.8V192.8H0.899902V0.400391Z" fill="white"/>
</clipPath>
</defs>
</svg>
