<svg width="144" height="143" viewBox="0 0 144 143" fill="none" xmlns="http://www.w3.org/2000/svg">
<g clip-path="url(#clip0)">
<path d="M62.587 86.179L12.6509 36.2494L37.7763 11.1437L87.7059 61.0733C73.7895 59.4083 66.4676 66.4812 66.4676 66.4812C66.4676 66.4812 60.2141 74.1243 62.587 86.179Z" fill="url(#paint0_linear)"/>
<path d="M127.069 68.9922H76.759C72.8093 68.9922 69.6074 72.194 69.6074 76.1437V126.453C69.6074 130.403 72.8093 133.605 76.759 133.605H127.069C131.018 133.605 134.22 130.403 134.22 126.453V76.1437C134.22 72.194 131.018 68.9922 127.069 68.9922Z" fill="#EBECF0"/>
<path d="M6.79715 49.7529L43.7806 49.7529C47.3067 49.7529 50.1652 46.8945 50.1652 43.3683L50.1652 6.38492C50.1652 2.85881 47.3067 0.000328064 43.7806 0.000328064L6.79715 0.000328064C3.27104 0.000328064 0.41256 2.85881 0.41256 6.38492L0.41256 43.3683C0.41256 46.8945 3.27104 49.7529 6.79715 49.7529Z" fill="#EBECF0"/>
<path d="M141.949 127.26V75.5081C141.949 67.9635 135.833 61.8474 128.288 61.8474L76.5361 61.8474C68.9915 61.8474 62.8754 67.9635 62.8754 75.5081V127.26C62.8754 134.805 68.9915 140.921 76.5361 140.921H128.288C135.833 140.921 141.949 134.805 141.949 127.26Z" stroke="#B2D4FF" stroke-width="5" stroke-miterlimit="10"/>
<path d="M49.8376 60.7591L47.1215 58.043L44.4053 60.7591L47.1215 63.4753L49.8376 60.7591Z" fill="white"/>
<path d="M59.6207 69.3878L56.9045 66.6716L54.1884 69.3878L56.9045 72.104L59.6207 69.3878Z" fill="white"/>
<path d="M66.2036 54.1515L63.4874 51.4353L60.7713 54.1515L63.4874 56.8676L66.2036 54.1515Z" fill="white"/>
<path d="M49.8396 55.1456L47.1234 52.4294L44.4072 55.1456L47.1234 57.8618L49.8396 55.1456Z" fill="white"/>
<path d="M66.2032 59.8301L63.4871 57.1139L60.7709 59.8301L63.4871 62.5462L66.2032 59.8301Z" fill="#4C9AFF"/>
<path d="M71.8802 59.8375L69.1641 57.1213L66.4479 59.8375L69.1641 62.5537L71.8802 59.8375Z" fill="#4C9AFF"/>
<path d="M59.6185 40.6406L56.9023 37.9244L54.1862 40.6406L56.9023 43.3568L59.6185 40.6406Z" fill="#4C9AFF"/>
<rect width="42.7656" height="42.7656" transform="translate(3.97644 3.56384)" fill="white" fill-opacity="0.01"/>
<path fill-rule="evenodd" clip-rule="evenodd" d="M29.1993 10.7894C28.7525 10.6356 28.2628 10.6656 27.8381 10.8728C27.4134 11.08 27.0883 11.4474 26.9345 11.8942L18.3279 36.9228C18.1852 37.3668 18.2223 37.849 18.4312 38.266C18.64 38.683 19.0041 39.0015 19.4451 39.1531C19.8862 39.3047 20.3691 39.2773 20.7902 39.0769C21.2113 38.8765 21.537 38.5189 21.6975 38.081L30.3041 13.0542C30.4579 12.6074 30.4279 12.1177 30.2207 11.693C30.0135 11.2683 29.6461 10.9433 29.1993 10.7894ZM18.262 25.4188L13.6647 20.9623L18.6522 16.1262C18.9915 15.7973 19.1863 15.347 19.1936 14.8745C19.201 14.402 19.0203 13.9459 18.6914 13.6066C18.3625 13.2673 17.9123 13.0725 17.4397 13.0652C16.9672 13.0578 16.5111 13.2385 16.1718 13.5674L9.86389 19.6829C9.69253 19.849 9.55629 20.0478 9.46325 20.2676C9.37021 20.4874 9.32227 20.7236 9.32227 20.9623C9.32227 21.2009 9.37021 21.4372 9.46325 21.6569C9.55629 21.8767 9.69253 22.0756 9.86389 22.2417L15.7798 27.9776C15.9478 28.1406 16.1463 28.2689 16.3639 28.3552C16.5815 28.4415 16.8139 28.484 17.048 28.4805C17.282 28.4769 17.5131 28.4273 17.728 28.3344C17.9428 28.2416 18.1373 28.1073 18.3003 27.9393C18.4633 27.7713 18.5916 27.5728 18.6778 27.3552C18.7641 27.1376 18.8067 26.9052 18.8032 26.6711C18.7996 26.4371 18.75 26.206 18.6571 25.9911C18.5643 25.7763 18.43 25.5818 18.262 25.4188ZM40.035 28.2128L34.1191 22.4751C33.951 22.3121 33.7524 22.1839 33.5347 22.0976C33.317 22.0114 33.0844 21.9689 32.8503 21.9725C32.3774 21.9799 31.9269 22.1748 31.5977 22.5143C31.2686 22.8539 31.0878 23.3103 31.0951 23.7831C31.1025 24.256 31.2974 24.7065 31.6369 25.0357L36.2342 29.4904L31.2467 34.3283C30.9074 34.6572 30.7126 35.1075 30.7053 35.58C30.6979 36.0525 30.8786 36.5086 31.2075 36.8479C31.5364 37.1872 31.9867 37.382 32.4592 37.3893C32.9317 37.3967 33.3878 37.216 33.7271 36.8871L40.035 30.7716C40.2064 30.6055 40.3426 30.4067 40.4357 30.1869C40.5287 29.9671 40.5766 29.7309 40.5766 29.4922C40.5766 29.2536 40.5287 29.0173 40.4357 28.7976C40.3426 28.5778 40.2064 28.3789 40.035 28.2128Z" fill="#2684FF"/>
<path d="M101.981 101.568V111.361H92.3327V101.568H101.981V91.7754H84.3699C83.9172 91.7875 83.4871 91.9758 83.1712 92.3003C82.8553 92.6249 82.6787 93.0599 82.6788 93.5127V119.434C82.6787 119.887 82.8553 120.322 83.1712 120.646C83.4871 120.971 83.9172 121.159 84.3699 121.171H109.938C110.163 121.17 110.386 121.124 110.594 121.035C110.802 120.947 110.989 120.818 111.147 120.656C111.304 120.495 111.428 120.303 111.511 120.094C111.593 119.884 111.634 119.66 111.629 119.434V101.568H101.981Z" fill="url(#paint1_linear)"/>
<path d="M101.981 81.9825V91.7753H111.629V101.568H121.283V83.7024C121.283 83.2496 121.106 82.8146 120.79 82.49C120.475 82.1655 120.045 81.9772 119.592 81.9651L101.981 81.9825Z" fill="#2684FF"/>
</g>
<defs>
<linearGradient id="paint0_linear" x1="25.1972" y1="23.7031" x2="75.1268" y2="73.6327" gradientUnits="userSpaceOnUse">
<stop offset="0.07" stop-color="#DEEBFF"/>
<stop offset="0.17" stop-color="#D8E8FF"/>
<stop offset="0.69" stop-color="#BCD9FF"/>
<stop offset="1" stop-color="#B2D4FF"/>
</linearGradient>
<linearGradient id="paint1_linear" x1="110.083" y1="93.5359" x2="93.5141" y2="110.104" gradientUnits="userSpaceOnUse">
<stop offset="0.2" stop-color="#0052CC"/>
<stop offset="1" stop-color="#2684FF"/>
</linearGradient>
<clipPath id="clip0">
<rect width="143.175" height="142.552" fill="white" transform="translate(0.412598)"/>
</clipPath>
</defs>
</svg>
