<svg width="600" height="350" viewBox="0 0 600 350" fill="none" xmlns="http://www.w3.org/2000/svg">
<g clip-path="url(#clip0)">
<path d="M606 -5H-14V325H606V-5Z" fill="url(#paint0_linear)"/>
<g opacity="0.5">
<path opacity="0.5" d="M261.486 354.353C266.122 340.169 275.6 328.069 288.26 320.171C295.02 315.989 302.498 313.131 309.916 310.304C335.445 300.556 362.259 290.649 389.371 294.044C392.428 294.423 395.753 294.93 398.432 293.397C402.066 291.306 402.872 286.487 403.111 282.305C404.027 266.982 403.898 248.98 416.254 239.869C423.383 234.622 433.061 234.015 441.704 235.946C450.346 237.878 458.282 242.04 466.347 245.704C472.072 248.313 478.235 250.732 484.478 249.975C490.721 249.219 495.899 245.584 500.867 241.95C519.447 228.339 538.305 212.896 561.126 209.73C573.074 208.067 587.272 211.194 592.988 221.877C600.565 236.076 589.134 254.426 595.138 269.351C600.774 283.371 619.035 288.03 627 300.835" stroke="#79E2F2" stroke-miterlimit="10"/>
<path opacity="0.5" d="M295.02 358.067L292.083 357.519C294.194 345.999 296.803 335.116 305.316 328.515C309.557 325.229 314.834 323.536 319.494 322.063L357.26 309.995C363.752 307.924 371.11 305.574 378.548 305.873C382.392 306.155 386.202 306.792 389.929 307.775C392.975 308.543 396.068 309.112 399.188 309.477C404.527 309.976 409.907 309.217 414.899 307.262C419.892 305.308 424.357 302.211 427.938 298.221C431.519 294.231 434.116 289.458 435.521 284.284C436.925 279.11 437.099 273.679 436.029 268.425C435.72 266.952 435.332 265.438 434.923 263.885C433.719 259.295 432.484 254.575 433.539 250.115C433.594 249.899 433.661 249.686 433.738 249.478C434.089 248.475 434.757 247.614 435.641 247.025C436.525 246.435 437.577 246.15 438.637 246.212V246.212C445.746 246.749 451.581 251.519 457.276 256.169C460.771 259.016 464.386 261.953 468.229 263.845C477.509 268.425 490.134 267.35 501.863 260.978C509.958 256.587 517.097 250.354 524.007 244.32C526.088 242.498 528.248 240.616 530.399 238.804C536.672 233.537 543.612 228.379 551.886 226.318C559.543 224.406 569.878 225.681 575.723 232.82C581.567 239.959 580.811 249.249 580.133 258.279C579.546 266.175 578.929 274.35 582.812 280.652C584.25 282.818 585.92 284.821 587.79 286.626C590.319 289.225 592.938 291.923 594.382 295.438C596.652 300.954 595.497 307.118 594.571 312.066L586.685 354.024L583.698 353.476L591.584 311.518C592.44 306.948 593.505 301.273 591.584 296.583C590.349 293.596 588.049 291.217 585.61 288.707C583.574 286.754 581.758 284.584 580.193 282.235C575.812 275.116 576.459 266.454 577.087 258.07C577.744 249.239 578.371 240.895 573.343 234.732C568.315 228.568 559.274 227.553 552.543 229.235C544.856 231.147 538.245 236.076 532.251 241.114C530.12 242.906 527.98 244.778 525.899 246.59C518.869 252.733 511.601 259.076 503.217 263.616C490.582 270.457 476.981 271.582 466.835 266.544C462.693 264.502 458.949 261.456 455.325 258.508C450.565 254.635 446.035 250.921 440.907 249.667C440.339 249.519 439.744 249.503 439.168 249.618C438.592 249.733 438.05 249.976 437.582 250.331C437.113 250.685 436.731 251.141 436.464 251.664C436.197 252.187 436.051 252.764 436.039 253.351C435.939 256.417 436.805 259.743 437.711 263.188C438.119 264.731 438.538 266.334 438.856 267.888C440.019 273.599 439.829 279.503 438.301 285.128C436.772 290.752 433.949 295.941 430.055 300.278C426.162 304.616 421.308 307.982 415.88 310.106C410.453 312.231 404.603 313.056 398.8 312.514C395.549 312.135 392.326 311.543 389.152 310.742C385.592 309.799 381.952 309.189 378.279 308.92C371.359 308.621 364.588 310.802 358.027 312.902L320.261 324.96C315.621 326.444 310.832 327.947 307.008 330.934C299.471 336.829 297.032 347.134 295.02 358.067Z" stroke="#B3F5FF" stroke-width="0.5" stroke-miterlimit="10"/>
<path opacity="0.5" d="M532.829 283.371C531.765 283.107 530.796 282.552 530.031 281.768C526.924 279.099 523.559 275.913 523.509 271.811C523.591 269.885 524.108 268.002 525.022 266.305C528.353 259.299 533.155 253.094 539.1 248.111C545.044 243.128 551.993 239.485 559.473 237.43C560.068 237.209 560.715 237.164 561.335 237.3C562.45 237.649 562.898 238.953 563.187 240.088L564.909 246.789C565.567 248.729 565.768 250.793 565.497 252.823C564.929 255.432 562.898 257.413 561.156 259.434C557.063 264.164 554.186 269.869 549.934 274.439C545.683 279.009 533.904 283.53 532.829 283.371Z" stroke="#B3F5FF" stroke-miterlimit="10"/>
<path opacity="0.5" d="M539.968 269.172C545.275 264.721 551.02 259.405 551.209 252.475C548.779 251.071 545.932 253.411 544.1 255.541L533.306 268.087C532.39 269.142 531.504 270.855 532.57 271.761L534.671 271.89C536.536 271.195 538.314 270.282 539.968 269.172V269.172Z" stroke="#00B8D9" stroke-miterlimit="10"/>
<path opacity="0.5" d="M567.16 351.913C572.706 334.339 578.032 314.296 568.852 298.316C567.752 296.195 566.149 294.376 564.183 293.019C560.698 290.858 556.217 291.246 552.234 292.212C544.936 293.984 538.076 297.43 530.648 298.555C523.22 299.68 514.548 297.778 510.734 291.326C509.281 288.877 508.624 285.949 506.752 283.809C502.978 279.497 496.068 280.174 490.681 282.166C485.295 284.157 479.848 287.144 474.183 286.228C469.951 285.551 466.327 282.773 462.185 281.708C458.043 280.642 452.397 282.474 452.149 286.756C452.029 288.807 453.214 290.669 453.762 292.64C455.066 297.28 452.706 302.318 449.132 305.584C445.557 308.85 440.957 310.563 436.467 312.315L415.308 320.41C410.489 322.252 405.581 324.144 401.648 327.479C393.125 334.698 391.074 346.815 389.57 357.877" stroke="#79E2F2" stroke-miterlimit="10"/>
<path opacity="0.5" d="M461.617 -30C461.866 -17.2852 451.979 -6.57163 441.246 0.24878C430.512 7.06919 418.216 11.6095 408.697 20.0429C398.74 28.8248 392.587 41.1812 382.809 50.0926C370.413 61.3537 353.427 66.0234 336.849 68.433C317.194 71.2806 294.731 72.6348 282.226 88.0678C275.425 96.4813 273.026 107.553 268.396 117.311C256.368 142.671 227.015 158.612 199.196 154.878C197.746 154.745 196.325 154.389 194.984 153.823C192.664 152.747 191.001 150.646 189.458 148.625L171.536 125.276C166.667 118.954 161.579 112.432 154.5 108.758C135.761 99.0402 109.893 112.273 92.9866 99.6376C86.3952 94.6592 82.7112 86.6938 76.4284 81.4067C68.463 74.6361 57.4109 73.053 47.016 71.7486L0 65.7745" stroke="#B3F5FF" stroke-miterlimit="10"/>
<path opacity="0.5" d="M2.74811 13.0134C4.55029 15.0048 4.73947 17.9918 5.73515 20.481C8.83172 28.2872 18.7487 30.8859 27.1224 30.1989C35.496 29.5119 43.8697 26.8136 52.114 28.4067C62.5985 30.398 70.5739 39.1799 75.7016 48.5493C80.8294 57.9186 83.926 68.3135 89.2329 77.5933C92.7676 83.7665 97.4274 89.5415 103.66 92.9766C109.893 96.4117 117.879 97.1982 124.082 93.7134C134.347 87.9285 138.649 71.8781 150.427 71.659C155.356 71.5694 159.737 74.5565 163.74 77.424L187.168 94.1913C190.802 96.79 194.536 99.4983 196.836 103.322C202.81 113.179 197.673 127.537 205.12 136.309C212.389 144.871 226.249 142.103 236.275 137.055C239.958 135.335 243.37 133.084 246.401 130.374C255.631 121.553 256.866 107.543 258.608 94.8982C259.882 85.6861 261.725 76.5616 264.124 67.5767C265.508 62.3892 267.31 56.903 271.572 53.6372C276.301 50.0129 282.793 50.0627 288.737 50.4311C310.125 51.7952 332.179 55.071 352.6 48.6787C377.771 40.8029 397.406 17.484 400.831 -8.67249" stroke="#00C7E5" stroke-miterlimit="10"/>
<path opacity="0.5" d="M389.849 -18.1912C383.998 2.02056 372.071 19.9434 355.687 33.1461C355.214 33.5377 354.639 33.7846 354.03 33.857C353.42 33.9294 352.803 33.8243 352.252 33.5543C349.563 32.1604 352.64 29.0737 348.578 27.9685C347.336 27.655 346.036 27.655 344.794 27.9685L331.472 31.1049C330.599 31.3042 329.688 31.2511 328.844 30.9519C328 30.6526 327.259 30.1196 326.707 29.415C326.155 28.7104 325.814 27.8632 325.725 26.9724C325.636 26.0816 325.803 25.1839 326.205 24.3841C328.355 20.2022 331.621 16.4186 334.837 12.9537C341.694 5.48606 348.873 -1.71271 356.374 -8.64264" stroke="#B3F5FF" stroke-miterlimit="10"/>
<path opacity="0.5" d="M160.285 57.9286C159.614 57.9291 158.95 57.7941 158.332 57.5315C157.715 57.269 157.157 56.8844 156.692 56.4008C156.227 55.9172 155.865 55.3446 155.627 54.7174C155.388 54.0902 155.279 53.4214 155.306 52.7511C156.043 36.0336 142.362 19.9533 125.993 18.3204C119.123 17.6434 112.054 19.1667 105.244 20.6404C97.7759 22.2534 90.0096 23.9161 82.2632 22.8109C67.8856 20.7499 56.9729 10.0861 46.1299 -1.59319L48.3204 -3.58455C58.7751 7.64673 69.3193 17.9421 82.6515 19.8538C89.9001 20.8992 97.069 19.3559 104.656 17.7131C111.705 16.1996 118.994 14.6264 126.322 15.3533C144.175 17.1256 159.13 34.6595 158.333 52.8905C158.324 53.1625 158.37 53.4336 158.469 53.6871C158.569 53.9406 158.719 54.1709 158.911 54.3641C159.096 54.5576 159.321 54.7093 159.57 54.8089C159.819 54.9085 160.087 54.9537 160.354 54.9416C169.48 54.6104 178.116 50.735 184.43 44.1384C185.993 42.4856 187.477 40.6038 188.901 38.7817C192.236 34.5201 195.681 30.1192 200.789 27.8292C208.685 24.2746 217.576 26.943 226 29.9798C229.465 31.2244 233.388 32.6383 236.414 35.3963C237.283 36.2213 238.108 37.0921 238.884 38.005C240.052 39.5902 241.554 40.8989 243.285 41.8384C246.501 43.2224 250.324 41.6094 254.028 40.0561L254.884 39.6977C262.616 36.4945 270.91 34.8696 279.279 34.9184C280.274 34.9184 281.21 34.9184 282.176 34.9782C285.631 35.0777 288.877 35.1773 291.973 34.3111C297.051 32.8972 301.104 29.0738 305.146 24.9317C319.495 10.246 332.697 -5.51873 344.635 -22.2237L347.114 -20.4912C335.072 -3.66175 321.758 12.2195 307.287 27.0127C303.125 31.2742 298.575 35.5656 292.79 37.1786C289.255 38.1743 285.621 38.0648 282.096 37.9552C281.15 37.9552 280.204 37.8955 279.269 37.8955H278.88C271.042 37.904 263.282 39.45 256.039 42.4458L255.193 42.8042C251.121 44.5068 246.501 46.4584 242.12 44.5666C239.79 43.5709 238.187 41.7388 236.643 39.9665C235.948 39.1324 235.204 38.3411 234.413 37.5968C231.824 35.237 228.349 33.9825 224.994 32.7777C217.148 29.95 208.904 27.4508 202.024 30.5474C197.593 32.5387 194.516 36.4717 191.26 40.6237C189.787 42.5055 188.273 44.4371 186.611 46.1995C179.755 53.3581 170.379 57.5621 160.474 57.9186L160.285 57.9286Z" stroke="#B3F5FF" stroke-width="0.5" stroke-miterlimit="10"/>
<path opacity="0.5" d="M116.365 29.0538C117.266 28.7524 118.137 28.3656 118.964 27.8988C122.658 25.9075 128.154 27.8291 129.449 31.8815C130.375 34.8188 129.369 38.1444 130.524 41.002C132.655 46.2691 141.008 47.454 141.357 53.5276C141.408 55.2079 140.869 56.8529 139.834 58.1775C136.956 62.0706 132.127 63.3351 128.742 66.5014C124.132 70.8127 122.997 77.8621 117.909 81.9444C116.334 83.2368 114.37 83.9627 112.333 84.0054C107.982 84.0054 106.359 81.0184 104.995 78.101L90.4278 48.38C89.4322 46.299 88.3568 44.1085 88.4365 41.7985C88.5759 38.0647 91.6724 34.998 95.1275 33.5742C98.5825 32.1504 102.396 32.001 106.08 31.5828C109.571 31.0163 113.01 30.1705 116.365 29.0538V29.0538Z" stroke="#00B8D9" stroke-miterlimit="10"/>
<path opacity="0.5" d="M115.768 44.8254C117.43 46.8168 120.746 46.0899 123.096 46.767C123.628 46.9554 124.097 47.291 124.446 47.7348C124.795 48.1786 125.012 48.7123 125.07 49.2742C125.129 49.836 125.027 50.4029 124.776 50.909C124.525 51.4151 124.136 51.8398 123.653 52.1337V52.1337C118.217 55.3 118.675 63.0862 115.997 68.8711C115.8 69.3062 115.487 69.6791 115.094 69.9495C114.7 70.2199 114.24 70.3775 113.763 70.4052C113.286 70.4329 112.811 70.3296 112.389 70.1066C111.966 69.8836 111.613 69.5493 111.367 69.1399C111.037 68.5571 110.758 67.9476 110.53 67.3178C108.445 61.7393 107.079 55.9173 106.468 49.993C106.239 47.7527 106.139 45.4029 107.354 43.4115C107.763 42.7053 108.369 42.1333 109.097 41.7655C109.826 41.3978 110.645 41.2501 111.456 41.3405C114.384 41.7288 115.768 44.8254 115.768 44.8254Z" stroke="#B3F5FF" stroke-miterlimit="10"/>
<path opacity="0.5" d="M141.417 -4.48066C153.952 2.25014 159.847 16.9464 162.306 30.8859C162.424 32.2766 162.889 33.6154 163.66 34.779C166.787 38.6522 172.621 34.3011 175.977 30.6071C182.375 23.6724 190.49 18.548 199.502 15.751C208.513 12.9539 218.103 12.5832 227.304 14.6762C236.494 16.8966 244.928 21.5464 253.998 24.2049C263.069 26.8634 273.653 27.1919 281.2 21.5464C290.729 14.3477 291.914 0.5774 298.425 -9.43915" stroke="#00C7E5" stroke-miterlimit="10"/>
<path opacity="0.5" d="M243.454 64.2113C248.532 65.894 249.677 72.8837 247.795 77.8919C245.913 82.9002 242.09 86.9825 240.118 91.9609C238.376 96.3917 238.207 101.261 237.131 105.9C235.863 111.458 233.328 116.648 229.723 121.065C228.949 122.155 227.902 123.024 226.687 123.584C224.367 124.46 221.708 123.106 220.185 121.154C218.661 119.203 217.964 116.763 217.078 114.453C215.176 109.535 212.299 105.054 209.441 100.613L191.151 72.2166C190.457 71.3162 190.005 70.2539 189.836 69.1299C189.913 67.6664 190.465 66.2678 191.41 65.1472L199.803 52.7908C201.207 50.7198 202.711 48.5592 204.961 47.4838C209.262 45.4327 214.221 48.0713 218.243 50.6302C227.065 56.216 243.454 64.2113 243.454 64.2113Z" stroke="#00B8D9" stroke-miterlimit="10"/>
<path opacity="0.5" d="M224.277 105.562C221.29 106.617 218.761 103.182 217.427 100.305L208.147 80.2717C206.763 77.2846 205.359 74.2179 205.269 70.9421C205.18 67.6663 206.753 64.1118 209.79 62.897C213.145 61.5529 216.869 63.3949 219.906 65.3464C222.604 67.0889 225.362 69.1499 226.438 72.1768C227.354 74.7357 226.916 77.5435 226.438 80.2219C225.392 86.5345 227.065 104.566 224.277 105.562Z" stroke="#B3F5FF" stroke-miterlimit="10"/>
</g>
</g>
<path d="M480.28 100H152.22V327.09H480.28V100Z" fill="#C1C7D0"/>
<path d="M439.73 263.95C439.73 265.36 436.94 265.36 436.94 266.77C436.94 268.18 439.73 268.18 439.73 269.59C439.73 271 436.94 271 436.94 272.41C436.94 273.82 439.73 273.82 439.73 275.24C439.73 276.66 436.94 276.65 436.94 278.06C436.94 279.47 439.73 279.48 439.73 280.89" stroke="#172B4D" stroke-width="2.79" stroke-miterlimit="10"/>
<path d="M451.9 100.09H151.84V271.01H451.9V100.09Z" fill="#EBECF0"/>
<path d="M410.06 304.81H110L152.22 270.92H452.27L410.06 304.81Z" fill="#F4F5F7"/>
<path d="M410.46 304.81H110V327.09H410.46V304.81Z" fill="#EBECF0"/>
<path d="M258.74 286.46H271.94L282.69 277.91H269.5L258.74 286.46Z" fill="#FFC400"/>
<path d="M275.49 286.46H288.69L299.45 277.91H286.25L275.49 286.46Z" fill="white"/>
<path d="M241.98 286.46H255.18L265.94 277.91H252.74L241.98 286.46Z" fill="white"/>
<path d="M336.52 277.91L325.76 286.46H338.96L349.72 277.91H336.52Z" fill="#57D9A3"/>
<path d="M225.23 286.46H238.43L249.18 277.91H235.98L225.23 286.46Z" fill="#57D9A3"/>
<path d="M292.25 286.46H305.45L316.21 277.91H303.01L292.25 286.46Z" fill="white"/>
<path d="M309.01 286.46H322.2L332.96 277.91H319.76L309.01 286.46Z" fill="white"/>
<path d="M239.26 288.63L229.42 296.45H242.62L252.46 288.63H239.26Z" fill="white"/>
<path d="M289.53 288.63L279.69 296.45H292.89L302.73 288.63H289.53Z" fill="#57D9A3"/>
<path d="M323.04 288.63L313.2 296.45H326.4L336.24 288.63H323.04Z" fill="white"/>
<path d="M306.28 288.63L296.44 296.45H309.64L319.48 288.63H306.28Z" fill="#FFC400"/>
<path d="M208.47 286.46H221.67L232.43 277.91H219.23L208.47 286.46Z" fill="white"/>
<path d="M222.51 288.63L212.66 296.45H225.86L235.71 288.63H222.51Z" fill="#FFC400"/>
<path d="M205.75 288.63L195.91 296.45H209.11L218.95 288.63H205.75Z" fill="white"/>
<path d="M256.02 288.63L246.17 296.45H259.37L269.22 288.63H256.02Z" fill="#57D9A3"/>
<path d="M272.77 288.63L262.93 296.45H276.13L285.97 288.63H272.77Z" fill="#57D9A3"/>
<path d="M230.09 249.35C263.945 249.35 291.39 221.905 291.39 188.05C291.39 154.195 263.945 126.75 230.09 126.75C196.235 126.75 168.79 154.195 168.79 188.05C168.79 221.905 196.235 249.35 230.09 249.35Z" fill="#172B4D"/>
<path d="M230.09 234.03C255.484 234.03 276.07 213.444 276.07 188.05C276.07 162.656 255.484 142.07 230.09 142.07C204.696 142.07 184.11 162.656 184.11 188.05C184.11 213.444 204.696 234.03 230.09 234.03Z" stroke="#253858" stroke-width="1.94" stroke-miterlimit="10"/>
<path d="M230.09 218.7C247.018 218.7 260.74 204.978 260.74 188.05C260.74 171.123 247.018 157.4 230.09 157.4C213.163 157.4 199.44 171.123 199.44 188.05C199.44 204.978 213.163 218.7 230.09 218.7Z" stroke="#253858" stroke-width="1.94" stroke-miterlimit="10"/>
<path d="M230.09 203.38C238.557 203.38 245.42 196.517 245.42 188.05C245.42 179.584 238.557 172.72 230.09 172.72C221.623 172.72 214.76 179.584 214.76 188.05C214.76 196.517 221.623 203.38 230.09 203.38Z" stroke="#253858" stroke-width="1.94" stroke-miterlimit="10"/>
<path d="M230.09 188.05V126.75" stroke="#253858" stroke-width="1.94" stroke-miterlimit="10"/>
<path d="M230.09 188.05L177 157.4" stroke="#253858" stroke-width="1.94" stroke-miterlimit="10"/>
<path d="M230.09 188.05L177 218.7" stroke="#253858" stroke-width="1.94" stroke-miterlimit="10"/>
<path d="M230.09 188.05V249.36" stroke="#253858" stroke-width="1.94" stroke-miterlimit="10"/>
<path d="M230.09 188.05L283.18 218.7" stroke="#253858" stroke-width="1.94" stroke-miterlimit="10"/>
<path d="M230.09 188.05L283.18 157.4" stroke="#253858" stroke-width="1.94" stroke-miterlimit="10"/>
<path d="M230.09 188.05L170.03 175.76C172.86 161.933 180.376 149.506 191.307 140.579C202.239 131.652 215.916 126.77 230.03 126.76L230.09 188.05Z" fill="#79F2C0"/>
<path d="M230.09 186.93V126.75H229.15V141.13C221.242 141.298 213.505 143.459 206.654 147.413C199.803 151.367 194.061 156.986 189.96 163.75L177.52 156.57C177.19 157.12 176.87 157.68 176.52 158.25L188.96 165.43C186.678 169.558 185.036 174.009 184.09 178.63L185.99 179.02C186.896 174.594 188.464 170.329 190.64 166.37L202.23 173.06C200.776 175.767 199.722 178.671 199.1 181.68L201 182.07C201.583 179.277 202.567 176.582 203.92 174.07L215.53 180.78C214.887 182.046 214.413 183.391 214.12 184.78L216.02 185.17C216.27 183.981 216.67 182.828 217.21 181.74L227.08 187.44L228.65 187.76L229.12 187.85L230.12 188.05L230.09 186.93ZM191.61 164.72C195.537 158.247 201.033 152.87 207.589 149.086C214.146 145.301 221.552 143.232 229.12 143.07V156.45C223.899 156.619 218.801 158.077 214.28 160.694C209.759 163.311 205.956 167.006 203.21 171.45L191.61 164.72ZM204.89 172.37C207.468 168.225 211.027 164.779 215.253 162.337C219.479 159.896 224.242 158.533 229.12 158.37V171.78C226.595 171.932 224.14 172.669 221.948 173.932C219.756 175.196 217.888 176.951 216.49 179.06L204.89 172.37ZM218.17 180.03C219.398 178.206 221.029 176.689 222.936 175.595C224.843 174.501 226.976 173.859 229.17 173.72V186.37L218.17 180.03Z" fill="#57D9A3"/>
<path d="M251.42 231.66C253.204 231.66 254.65 230.214 254.65 228.43C254.65 226.646 253.204 225.2 251.42 225.2C249.636 225.2 248.19 226.646 248.19 228.43C248.19 230.214 249.636 231.66 251.42 231.66Z" fill="#0052CC"/>
<path d="M269.79 167.81C271.574 167.81 273.02 166.364 273.02 164.58C273.02 162.796 271.574 161.35 269.79 161.35C268.006 161.35 266.56 162.796 266.56 164.58C266.56 166.364 268.006 167.81 269.79 167.81Z" fill="#0052CC"/>
<path d="M323.78 218.82H321.2V230.49H323.78V218.82Z" fill="#C1C7D0"/>
<path d="M318.61 198.02C324.668 198.02 329.58 193.109 329.58 187.05C329.58 180.992 324.668 176.08 318.61 176.08C312.551 176.08 307.64 180.992 307.64 187.05C307.64 193.109 312.551 198.02 318.61 198.02Z" fill="white"/>
<path d="M317.562 188.339L317.577 185.759L305.967 185.69L305.952 188.27L317.562 188.339Z" fill="#0052CC"/>
<path d="M318.61 194.39C322.664 194.39 325.95 191.104 325.95 187.05C325.95 182.996 322.664 179.71 318.61 179.71C314.556 179.71 311.27 182.996 311.27 187.05C311.27 191.104 314.556 194.39 318.61 194.39Z" fill="#0052CC"/>
<path d="M318.61 159.56C324.668 159.56 329.58 154.649 329.58 148.59C329.58 142.532 324.668 137.62 318.61 137.62C312.551 137.62 307.64 142.532 307.64 148.59C307.64 154.649 312.551 159.56 318.61 159.56Z" fill="white"/>
<path d="M316.95 148.744L318.775 146.92L310.565 138.71L308.741 140.535L316.95 148.744Z" fill="#0052CC"/>
<path d="M318.61 155.93C322.664 155.93 325.95 152.644 325.95 148.59C325.95 144.536 322.664 141.25 318.61 141.25C314.556 141.25 311.27 144.536 311.27 148.59C311.27 152.644 314.556 155.93 318.61 155.93Z" fill="#0052CC"/>
<path d="M318.61 236.48C324.668 236.48 329.58 231.569 329.58 225.51C329.58 219.451 324.668 214.54 318.61 214.54C312.551 214.54 307.64 219.451 307.64 225.51C307.64 231.569 312.551 236.48 318.61 236.48Z" fill="white"/>
<path d="M320.284 225.354L318.459 227.178L326.669 235.387L328.493 233.563L320.284 225.354Z" fill="#0052CC"/>
<path d="M318.61 232.85C322.664 232.85 325.95 229.564 325.95 225.51C325.95 221.456 322.664 218.17 318.61 218.17C314.556 218.17 311.27 221.456 311.27 225.51C311.27 229.564 314.556 232.85 318.61 232.85Z" fill="#0052CC"/>
<path d="M318.61 170.17C319.908 170.17 320.96 169.118 320.96 167.82C320.96 166.522 319.908 165.47 318.61 165.47C317.312 165.47 316.26 166.522 316.26 167.82C316.26 169.118 317.312 170.17 318.61 170.17Z" fill="#C1C7D0"/>
<path d="M318.61 209.48C319.908 209.48 320.96 208.428 320.96 207.13C320.96 205.832 319.908 204.78 318.61 204.78C317.312 204.78 316.26 205.832 316.26 207.13C316.26 208.428 317.312 209.48 318.61 209.48Z" fill="#C1C7D0"/>
<path d="M427.65 240.6V137.51C427.65 132.12 423.28 127.75 417.89 127.75H354.83C349.44 127.75 345.07 132.12 345.07 137.51V240.6C345.07 245.991 349.44 250.36 354.83 250.36H417.89C423.28 250.36 427.65 245.991 427.65 240.6Z" fill="url(#paint1_linear)"/>
<path d="M386.35 179C396.529 179 404.78 170.749 404.78 160.57C404.78 150.392 396.529 142.14 386.35 142.14C376.172 142.14 367.92 150.392 367.92 160.57C367.92 170.749 376.172 179 386.35 179Z" stroke="#79F2C0" stroke-width="5.7" stroke-miterlimit="10"/>
<path d="M386.32 178.99C382.674 178.99 379.111 177.909 376.08 175.883C373.049 173.858 370.686 170.979 369.292 167.611C367.897 164.242 367.533 160.536 368.245 156.961C368.957 153.386 370.713 150.102 373.291 147.525C375.87 144.948 379.155 143.193 382.731 142.483C386.306 141.773 390.012 142.139 393.38 143.536C396.747 144.932 399.625 147.296 401.649 150.328C403.673 153.36 404.752 156.925 404.75 160.57" stroke="#FFC400" stroke-width="5.7" stroke-miterlimit="10"/>
<path d="M369.99 203.22C372.563 203.22 374.65 201.134 374.65 198.56C374.65 195.987 372.563 193.9 369.99 193.9C367.416 193.9 365.33 195.987 365.33 198.56C365.33 201.134 367.416 203.22 369.99 203.22Z" fill="#DFE1E5"/>
<path d="M369.99 219.39C372.563 219.39 374.65 217.304 374.65 214.73C374.65 212.156 372.563 210.07 369.99 210.07C367.416 210.07 365.33 212.156 365.33 214.73C365.33 217.304 367.416 219.39 369.99 219.39Z" fill="#79F2C0"/>
<path d="M369.99 235.55C372.563 235.55 374.65 233.464 374.65 230.89C374.65 228.317 372.563 226.23 369.99 226.23C367.416 226.23 365.33 228.317 365.33 230.89C365.33 233.464 367.416 235.55 369.99 235.55Z" fill="#79F2C0"/>
<path d="M382.84 198.56H407.37" stroke="#DFE1E5" stroke-width="2.79" stroke-miterlimit="10"/>
<path d="M382.84 214.73H407.37" stroke="#DFE1E5" stroke-width="2.79" stroke-miterlimit="10"/>
<path d="M382.84 230.89H407.37" stroke="#DFE1E5" stroke-width="2.79" stroke-miterlimit="10"/>
<path d="M190.2 169C191.984 169 193.43 167.554 193.43 165.77C193.43 163.986 191.984 162.54 190.2 162.54C188.416 162.54 186.97 163.986 186.97 165.77C186.97 167.554 188.416 169 190.2 169Z" fill="#FFC400"/>
<path d="M216.54 183.21C218.324 183.21 219.77 181.764 219.77 179.98C219.77 178.196 218.324 176.75 216.54 176.75C214.756 176.75 213.31 178.196 213.31 179.98C213.31 181.764 214.756 183.21 216.54 183.21Z" fill="#FFC400"/>
<path d="M199.11 208.18C203.782 208.18 207.57 204.392 207.57 199.72C207.57 195.048 203.782 191.26 199.11 191.26C194.438 191.26 190.65 195.048 190.65 199.72C190.65 204.392 194.438 208.18 199.11 208.18Z" fill="#0065FF"/>
<path d="M195.49 205.5C194.931 205.737 194.395 206.024 193.89 206.36C195.324 207.498 197.091 208.137 198.921 208.178C200.752 208.22 202.546 207.662 204.03 206.59C203.539 206.185 203.014 205.824 202.46 205.51C202.03 205.338 201.661 205.042 201.401 204.659C201.14 204.275 201.001 203.823 201 203.36C200.997 203.025 201.069 202.694 201.209 202.39C201.349 202.086 201.554 201.816 201.81 201.6C202.504 201.015 203.002 200.23 203.236 199.352C203.469 198.475 203.428 197.546 203.116 196.693C202.804 195.84 202.238 195.103 201.494 194.582C200.75 194.062 199.863 193.783 198.955 193.783C198.047 193.783 197.16 194.062 196.416 194.582C195.672 195.103 195.105 195.84 194.794 196.693C194.482 197.546 194.44 198.475 194.674 199.352C194.908 200.23 195.405 201.015 196.1 201.6C196.362 201.817 196.574 202.088 196.719 202.396C196.864 202.704 196.94 203.04 196.94 203.38V203.38C196.934 203.837 196.793 204.282 196.535 204.659C196.277 205.036 195.913 205.329 195.49 205.5V205.5Z" fill="#4C9AFF"/>
<path d="M216.54 181.67C217.473 181.67 218.23 180.913 218.23 179.98C218.23 179.047 217.473 178.29 216.54 178.29C215.606 178.29 214.85 179.047 214.85 179.98C214.85 180.913 215.606 181.67 216.54 181.67Z" fill="#2684FF"/>
<path d="M216.54 183.56C218.517 183.56 220.12 181.957 220.12 179.98C220.12 178.003 218.517 176.4 216.54 176.4C214.563 176.4 212.96 178.003 212.96 179.98C212.96 181.957 214.563 183.56 216.54 183.56Z" stroke="#0065FF" stroke-width="1.37" stroke-miterlimit="10"/>
<path d="M205.68 190.73L213.62 182.79" stroke="#0065FF" stroke-width="1.37" stroke-miterlimit="10" stroke-linecap="round"/>
<path d="M209.93 195.99H232.2" stroke="#0065FF" stroke-width="1.5" stroke-miterlimit="10"/>
<path d="M209.93 200.97H232.2" stroke="#0065FF" stroke-width="1.5" stroke-miterlimit="10"/>
<path d="M209.93 205.96H223.57" stroke="#0065FF" stroke-width="1.5" stroke-miterlimit="10"/>
<defs>
<linearGradient id="paint0_linear" x1="296" y1="325" x2="296" y2="-5" gradientUnits="userSpaceOnUse">
<stop stop-color="#00C7E5"/>
<stop offset="0.15" stop-color="#06C8E6"/>
<stop offset="0.35" stop-color="#18CCE8"/>
<stop offset="0.59" stop-color="#36D3EB"/>
<stop offset="0.85" stop-color="#5FDCEF"/>
<stop offset="1" stop-color="#79E2F2"/>
</linearGradient>
<linearGradient id="paint1_linear" x1="337.91" y1="140.61" x2="434.79" y2="237.49" gradientUnits="userSpaceOnUse">
<stop stop-color="#0049B0"/>
<stop offset="0.04" stop-color="#0052CA"/>
<stop offset="0.08" stop-color="#005AE1"/>
<stop offset="0.13" stop-color="#0060F2"/>
<stop offset="0.18" stop-color="#0064FC"/>
<stop offset="0.24" stop-color="#0065FF"/>
<stop offset="0.78" stop-color="#0065FF"/>
<stop offset="0.84" stop-color="#0E6FFF"/>
<stop offset="0.94" stop-color="#3489FF"/>
<stop offset="1" stop-color="#4C9AFF"/>
</linearGradient>
<clipPath id="clip0">
<rect width="600" height="280" fill="white"/>
</clipPath>
</defs>
</svg>
