<svg width="600" height="350" viewBox="0 0 600 350" fill="none" xmlns="http://www.w3.org/2000/svg">
<g clip-path="url(#clip0)">
<path d="M606 -5H-14V325H606V-5Z" fill="url(#paint0_linear)"/>
<g opacity="0.5">
<path opacity="0.5" d="M261.486 354.353C266.122 340.169 275.6 328.069 288.26 320.171C295.02 315.989 302.498 313.131 309.916 310.304C335.445 300.556 362.259 290.649 389.371 294.044C392.428 294.423 395.753 294.93 398.432 293.397C402.066 291.306 402.872 286.487 403.111 282.305C404.027 266.982 403.898 248.98 416.254 239.869C423.383 234.622 433.061 234.015 441.704 235.946C450.346 237.878 458.282 242.04 466.347 245.704C472.072 248.313 478.235 250.732 484.478 249.975C490.721 249.219 495.899 245.584 500.867 241.95C519.447 228.339 538.305 212.896 561.126 209.73C573.074 208.067 587.272 211.194 592.988 221.877C600.565 236.076 589.134 254.426 595.138 269.351C600.774 283.371 619.035 288.03 627 300.835" stroke="#79E2F2" stroke-miterlimit="10"/>
<path opacity="0.5" d="M295.02 358.067L292.083 357.519C294.194 345.999 296.803 335.116 305.316 328.515C309.557 325.229 314.834 323.536 319.494 322.063L357.26 309.995C363.752 307.924 371.11 305.574 378.548 305.873C382.392 306.155 386.202 306.792 389.929 307.775C392.975 308.543 396.068 309.112 399.188 309.477C404.527 309.976 409.907 309.217 414.899 307.262C419.892 305.308 424.357 302.211 427.938 298.221C431.519 294.231 434.116 289.458 435.521 284.284C436.925 279.11 437.099 273.679 436.029 268.425C435.72 266.952 435.332 265.438 434.923 263.885C433.719 259.295 432.484 254.575 433.539 250.115C433.594 249.899 433.661 249.686 433.738 249.478C434.089 248.475 434.757 247.614 435.641 247.025C436.525 246.435 437.577 246.15 438.637 246.212V246.212C445.746 246.749 451.581 251.519 457.276 256.169C460.771 259.016 464.386 261.953 468.229 263.845C477.509 268.425 490.134 267.35 501.863 260.978C509.958 256.587 517.097 250.354 524.007 244.32C526.088 242.498 528.248 240.616 530.399 238.804C536.672 233.537 543.612 228.379 551.886 226.318C559.543 224.406 569.878 225.681 575.723 232.82C581.567 239.959 580.811 249.249 580.133 258.279C579.546 266.175 578.929 274.35 582.812 280.652C584.25 282.818 585.92 284.821 587.79 286.626C590.319 289.225 592.938 291.923 594.382 295.438C596.652 300.954 595.497 307.118 594.571 312.066L586.685 354.024L583.698 353.476L591.584 311.518C592.44 306.948 593.505 301.273 591.584 296.583C590.349 293.596 588.049 291.217 585.61 288.707C583.574 286.754 581.758 284.584 580.193 282.235C575.812 275.116 576.459 266.454 577.087 258.07C577.744 249.239 578.371 240.895 573.343 234.732C568.315 228.568 559.274 227.553 552.543 229.235C544.856 231.147 538.245 236.076 532.251 241.114C530.12 242.906 527.98 244.778 525.899 246.59C518.869 252.733 511.601 259.076 503.217 263.616C490.582 270.457 476.981 271.582 466.835 266.544C462.693 264.502 458.949 261.456 455.325 258.508C450.565 254.635 446.035 250.921 440.907 249.667C440.339 249.519 439.744 249.503 439.168 249.618C438.592 249.733 438.05 249.976 437.582 250.331C437.113 250.685 436.731 251.141 436.464 251.664C436.197 252.187 436.051 252.764 436.039 253.351C435.939 256.417 436.805 259.743 437.711 263.188C438.119 264.731 438.538 266.334 438.856 267.888C440.019 273.599 439.829 279.503 438.301 285.128C436.772 290.752 433.949 295.941 430.055 300.278C426.162 304.616 421.308 307.982 415.88 310.106C410.453 312.231 404.603 313.056 398.8 312.514C395.549 312.135 392.326 311.543 389.152 310.742C385.592 309.799 381.952 309.189 378.279 308.92C371.359 308.621 364.588 310.802 358.027 312.902L320.261 324.96C315.621 326.444 310.832 327.947 307.008 330.934C299.471 336.829 297.032 347.134 295.02 358.067Z" stroke="#B3F5FF" stroke-width="0.5" stroke-miterlimit="10"/>
<path opacity="0.5" d="M532.829 283.371C531.765 283.107 530.796 282.552 530.031 281.768C526.924 279.099 523.559 275.913 523.509 271.811C523.591 269.885 524.108 268.002 525.022 266.305C528.353 259.299 533.155 253.094 539.1 248.111C545.044 243.128 551.993 239.485 559.473 237.43C560.068 237.209 560.715 237.164 561.335 237.3C562.45 237.649 562.898 238.953 563.187 240.088L564.909 246.789C565.567 248.729 565.768 250.793 565.497 252.823C564.929 255.432 562.898 257.413 561.156 259.434C557.063 264.164 554.186 269.869 549.934 274.439C545.683 279.009 533.904 283.53 532.829 283.371Z" stroke="#B3F5FF" stroke-miterlimit="10"/>
<path opacity="0.5" d="M539.968 269.172C545.275 264.721 551.02 259.405 551.209 252.475C548.779 251.071 545.932 253.411 544.1 255.541L533.306 268.087C532.39 269.142 531.504 270.855 532.57 271.761L534.671 271.89C536.536 271.195 538.314 270.282 539.968 269.172V269.172Z" stroke="#00B8D9" stroke-miterlimit="10"/>
<path opacity="0.5" d="M567.16 351.913C572.706 334.339 578.032 314.296 568.852 298.316C567.752 296.195 566.149 294.376 564.183 293.019C560.698 290.858 556.217 291.246 552.234 292.212C544.936 293.984 538.076 297.43 530.648 298.555C523.22 299.68 514.548 297.778 510.734 291.326C509.281 288.877 508.624 285.949 506.752 283.809C502.978 279.497 496.068 280.174 490.681 282.166C485.295 284.157 479.848 287.144 474.183 286.228C469.951 285.551 466.327 282.773 462.185 281.708C458.043 280.642 452.397 282.474 452.149 286.756C452.029 288.807 453.214 290.669 453.762 292.64C455.066 297.28 452.706 302.318 449.132 305.584C445.557 308.85 440.957 310.563 436.467 312.315L415.308 320.41C410.489 322.252 405.581 324.144 401.648 327.479C393.125 334.698 391.074 346.815 389.57 357.877" stroke="#79E2F2" stroke-miterlimit="10"/>
<path opacity="0.5" d="M461.617 -30C461.866 -17.2852 451.979 -6.57163 441.246 0.24878C430.512 7.06919 418.216 11.6095 408.697 20.0429C398.74 28.8248 392.587 41.1812 382.809 50.0926C370.413 61.3537 353.427 66.0234 336.849 68.433C317.194 71.2806 294.731 72.6348 282.226 88.0678C275.425 96.4813 273.026 107.553 268.396 117.311C256.368 142.671 227.015 158.612 199.196 154.878C197.746 154.745 196.325 154.389 194.984 153.823C192.664 152.747 191.001 150.646 189.458 148.625L171.536 125.276C166.667 118.954 161.579 112.432 154.5 108.758C135.761 99.0402 109.893 112.273 92.9866 99.6376C86.3952 94.6592 82.7112 86.6938 76.4284 81.4067C68.463 74.6361 57.4109 73.053 47.016 71.7486L0 65.7745" stroke="#B3F5FF" stroke-miterlimit="10"/>
<path opacity="0.5" d="M2.74808 13.0134C4.55026 15.0048 4.73944 17.9918 5.73512 20.481C8.83169 28.2872 18.7487 30.8859 27.1223 30.1989C35.496 29.5119 43.8697 26.8136 52.1139 28.4067C62.5984 30.398 70.5739 39.1799 75.7016 48.5493C80.8294 57.9186 83.9259 68.3135 89.2329 77.5933C92.7676 83.7665 97.4274 89.5415 103.66 92.9766C109.893 96.4117 117.879 97.1982 124.082 93.7134C134.347 87.9285 138.649 71.8781 150.427 71.659C155.356 71.5694 159.737 74.5565 163.74 77.424L187.168 94.1913C190.802 96.79 194.536 99.4983 196.836 103.322C202.81 113.179 197.672 127.537 205.12 136.309C212.389 144.871 226.249 142.103 236.275 137.055C239.958 135.335 243.37 133.084 246.401 130.374C255.631 121.553 256.866 107.543 258.608 94.8982C259.882 85.6861 261.725 76.5616 264.124 67.5767C265.508 62.3892 267.31 56.903 271.572 53.6372C276.301 50.0129 282.793 50.0627 288.737 50.4311C310.125 51.7952 332.179 55.071 352.6 48.6787C377.771 40.8029 397.406 17.484 400.831 -8.67249" stroke="#00C7E5" stroke-miterlimit="10"/>
<path opacity="0.5" d="M389.849 -18.1912C383.998 2.02056 372.071 19.9434 355.687 33.1461C355.214 33.5377 354.639 33.7846 354.03 33.857C353.42 33.9294 352.803 33.8243 352.252 33.5543C349.564 32.1604 352.64 29.0737 348.578 27.9685C347.336 27.655 346.036 27.655 344.794 27.9685L331.472 31.1049C330.599 31.3042 329.688 31.2511 328.844 30.9519C328 30.6526 327.259 30.1196 326.707 29.415C326.155 28.7104 325.814 27.8632 325.725 26.9724C325.636 26.0816 325.803 25.1839 326.205 24.3841C328.356 20.2022 331.621 16.4186 334.837 12.9537C341.694 5.48606 348.873 -1.71271 356.374 -8.64264" stroke="#B3F5FF" stroke-miterlimit="10"/>
<path opacity="0.5" d="M160.285 57.9286C159.614 57.9291 158.95 57.7941 158.332 57.5315C157.715 57.269 157.157 56.8844 156.692 56.4008C156.227 55.9172 155.865 55.3446 155.627 54.7174C155.388 54.0902 155.28 53.4214 155.306 52.7511C156.043 36.0336 142.362 19.9533 125.994 18.3204C119.123 17.6434 112.054 19.1667 105.244 20.6404C97.7759 22.2534 90.0096 23.9161 82.2632 22.8109C67.8856 20.7499 56.9729 10.0861 46.13 -1.59319L48.3205 -3.58455C58.7751 7.64673 69.3194 17.9421 82.6515 19.8538C89.9001 20.8992 97.069 19.3559 104.656 17.7131C111.705 16.1996 118.994 14.6264 126.322 15.3533C144.175 17.1256 159.13 34.6595 158.333 52.8905C158.324 53.1625 158.37 53.4336 158.469 53.6871C158.569 53.9406 158.719 54.1709 158.911 54.3641C159.096 54.5576 159.321 54.7093 159.57 54.8089C159.819 54.9085 160.087 54.9537 160.354 54.9416C169.48 54.6104 178.116 50.735 184.43 44.1384C185.993 42.4856 187.477 40.6038 188.901 38.7817C192.236 34.5201 195.681 30.1192 200.789 27.8292C208.685 24.2746 217.576 26.943 226 29.9798C229.465 31.2244 233.388 32.6383 236.415 35.3963C237.283 36.2213 238.108 37.0921 238.884 38.005C240.052 39.5902 241.554 40.8989 243.285 41.8384C246.501 43.2224 250.324 41.6094 254.028 40.0561L254.884 39.6977C262.616 36.4945 270.91 34.8696 279.279 34.9184C280.274 34.9184 281.21 34.9184 282.176 34.9782C285.631 35.0777 288.877 35.1773 291.973 34.3111C297.051 32.8972 301.104 29.0738 305.146 24.9317C319.495 10.246 332.697 -5.51873 344.635 -22.2237L347.114 -20.4912C335.072 -3.66175 321.758 12.2195 307.287 27.0127C303.125 31.2742 298.575 35.5656 292.79 37.1786C289.255 38.1743 285.621 38.0648 282.096 37.9552C281.15 37.9552 280.205 37.8955 279.269 37.8955H278.88C271.042 37.904 263.282 39.45 256.039 42.4458L255.193 42.8042C251.121 44.5068 246.501 46.4584 242.12 44.5666C239.79 43.5709 238.187 41.7388 236.643 39.9665C235.948 39.1324 235.204 38.3411 234.413 37.5968C231.824 35.237 228.349 33.9825 224.994 32.7777C217.148 29.95 208.904 27.4508 202.024 30.5474C197.593 32.5387 194.516 36.4717 191.26 40.6237C189.787 42.5055 188.273 44.4371 186.611 46.1995C179.755 53.3581 170.379 57.5621 160.474 57.9186L160.285 57.9286Z" stroke="#B3F5FF" stroke-width="0.5" stroke-miterlimit="10"/>
<path opacity="0.5" d="M116.365 29.0538C117.266 28.7524 118.136 28.3656 118.964 27.8988C122.658 25.9075 128.154 27.8291 129.449 31.8815C130.375 34.8188 129.369 38.1444 130.524 41.002C132.655 46.2691 141.008 47.454 141.357 53.5276C141.408 55.2079 140.869 56.8529 139.833 58.1775C136.956 62.0706 132.127 63.3351 128.742 66.5014C124.132 70.8127 122.997 77.8621 117.909 81.9444C116.334 83.2368 114.37 83.9627 112.333 84.0054C107.982 84.0054 106.359 81.0184 104.995 78.101L90.4278 48.38C89.4321 46.299 88.3568 44.1085 88.4365 41.7985C88.5758 38.0647 91.6724 34.998 95.1274 33.5742C98.5824 32.1504 102.396 32.001 106.08 31.5828C109.57 31.0163 113.01 30.1705 116.365 29.0538V29.0538Z" stroke="#00B8D9" stroke-miterlimit="10"/>
<path opacity="0.5" d="M115.768 44.8254C117.43 46.8168 120.746 46.0899 123.096 46.767C123.628 46.9554 124.097 47.291 124.446 47.7348C124.795 48.1786 125.012 48.7123 125.07 49.2742C125.129 49.836 125.027 50.4029 124.776 50.909C124.525 51.4151 124.136 51.8398 123.653 52.1337V52.1337C118.217 55.3 118.675 63.0862 115.997 68.8711C115.8 69.3062 115.487 69.6791 115.094 69.9495C114.7 70.2199 114.24 70.3775 113.763 70.4052C113.286 70.4329 112.811 70.3296 112.389 70.1066C111.966 69.8836 111.613 69.5493 111.367 69.1399C111.037 68.5571 110.758 67.9476 110.53 67.3178C108.445 61.7393 107.079 55.9173 106.468 49.993C106.239 47.7527 106.139 45.4029 107.354 43.4115C107.763 42.7053 108.369 42.1333 109.097 41.7655C109.826 41.3978 110.645 41.2501 111.456 41.3405C114.384 41.7288 115.768 44.8254 115.768 44.8254Z" stroke="#B3F5FF" stroke-miterlimit="10"/>
<path opacity="0.5" d="M141.417 -4.48066C153.952 2.25014 159.847 16.9464 162.306 30.8859C162.424 32.2766 162.889 33.6154 163.66 34.779C166.786 38.6522 172.621 34.3011 175.977 30.6071C182.375 23.6724 190.49 18.548 199.502 15.751C208.513 12.9539 218.103 12.5832 227.304 14.6762C236.494 16.8966 244.928 21.5464 253.998 24.2049C263.069 26.8634 273.653 27.1919 281.2 21.5464C290.729 14.3477 291.914 0.5774 298.425 -9.43915" stroke="#00C7E5" stroke-miterlimit="10"/>
<path opacity="0.5" d="M243.454 64.2113C248.532 65.894 249.677 72.8837 247.795 77.8919C245.913 82.9002 242.09 86.9825 240.118 91.9609C238.376 96.3917 238.207 101.261 237.131 105.9C235.863 111.458 233.328 116.648 229.723 121.065C228.949 122.155 227.902 123.024 226.687 123.584C224.367 124.46 221.708 123.106 220.185 121.154C218.661 119.203 217.964 116.763 217.078 114.453C215.176 109.535 212.299 105.054 209.441 100.613L191.151 72.2166C190.457 71.3162 190.005 70.2539 189.836 69.1299C189.913 67.6664 190.465 66.2678 191.41 65.1472L199.803 52.7908C201.207 50.7198 202.711 48.5592 204.961 47.4838C209.262 45.4327 214.221 48.0713 218.243 50.6302C227.065 56.216 243.454 64.2113 243.454 64.2113Z" stroke="#00B8D9" stroke-miterlimit="10"/>
<path opacity="0.5" d="M224.277 105.562C221.29 106.617 218.761 103.182 217.427 100.305L208.147 80.2717C206.763 77.2846 205.359 74.2179 205.269 70.9421C205.18 67.6663 206.753 64.1118 209.79 62.897C213.145 61.5529 216.869 63.3949 219.906 65.3464C222.604 67.0889 225.362 69.1499 226.438 72.1768C227.354 74.7357 226.916 77.5435 226.438 80.2219C225.392 86.5345 227.065 104.566 224.277 105.562Z" stroke="#B3F5FF" stroke-miterlimit="10"/>
</g>
</g>
<path d="M192.06 268.098V262.488" stroke="#00C7E5" stroke-width="3.37" stroke-miterlimit="10"/>
<path d="M192.06 252.728V247.108H197.68" stroke="#00C7E5" stroke-width="3.37" stroke-miterlimit="10"/>
<path d="M207.86 247.108H223.13" stroke="#00C7E5" stroke-width="3.37" stroke-miterlimit="10" stroke-dasharray="10.18 10.18"/>
<path d="M228.22 247.108H233.83" stroke="#00C7E5" stroke-width="3.37" stroke-miterlimit="10"/>
<path d="M449.11 165.038V170.648" stroke="#00C7E5" stroke-width="3.37" stroke-miterlimit="10"/>
<path d="M449.12 180.408V186.028H443.5" stroke="#00C7E5" stroke-width="3.37" stroke-miterlimit="10"/>
<path d="M433.32 186.028H418.05" stroke="#00C7E5" stroke-width="3.37" stroke-miterlimit="10" stroke-dasharray="10.18 10.18"/>
<path d="M412.96 186.028H407.35" stroke="#00C7E5" stroke-width="3.37" stroke-miterlimit="10"/>
<path d="M322.195 87.1076L204.256 118.753C195.802 121.022 190.787 129.715 193.056 138.169L234.743 293.534C237.012 301.988 245.705 307.003 254.16 304.734L372.098 273.089C380.552 270.82 385.567 262.127 383.299 253.673L341.611 98.3085C339.342 89.8539 330.649 84.8391 322.195 87.1076Z" fill="url(#paint1_linear)"/>
<path d="M411.093 147.444L292.651 117.738C284.161 115.608 275.551 120.765 273.422 129.255L234.288 285.283C232.159 293.773 237.315 302.383 245.806 304.512L364.248 334.219C372.738 336.349 381.348 331.192 383.477 322.701L422.611 166.674C424.74 158.183 419.584 149.574 411.093 147.444Z" fill="url(#paint2_linear)"/>
<path fill-rule="evenodd" clip-rule="evenodd" d="M194.61 275.048C194.61 274.602 194.433 274.175 194.118 273.86C193.803 273.545 193.376 273.368 192.93 273.368H191.19C190.746 273.37 190.321 273.549 190.009 273.863C189.696 274.178 189.52 274.604 189.52 275.048V277.048C188.596 277.284 187.71 277.651 186.89 278.138L185.45 276.698C185.294 276.541 185.108 276.417 184.904 276.332C184.7 276.247 184.481 276.204 184.26 276.204C184.039 276.204 183.82 276.247 183.616 276.332C183.412 276.417 183.226 276.541 183.07 276.698L181.84 277.928C181.527 278.243 181.351 278.669 181.351 279.113C181.351 279.557 181.527 279.983 181.84 280.298L183.29 281.738C182.805 282.559 182.438 283.444 182.2 284.368H180.2C179.754 284.368 179.327 284.545 179.012 284.86C178.697 285.175 178.52 285.602 178.52 286.048V287.788C178.52 288.233 178.697 288.661 179.012 288.976C179.327 289.291 179.754 289.468 180.2 289.468H182.2C182.44 290.391 182.807 291.276 183.29 292.098L181.84 293.538C181.527 293.853 181.351 294.279 181.351 294.723C181.351 295.167 181.527 295.593 181.84 295.908L183.07 297.138C183.226 297.294 183.412 297.419 183.616 297.503C183.82 297.588 184.039 297.632 184.26 297.632C184.481 297.632 184.7 297.588 184.904 297.503C185.108 297.419 185.294 297.294 185.45 297.138L186.89 295.698C187.71 296.185 188.596 296.552 189.52 296.788V298.788C189.52 299.231 189.696 299.655 190.009 299.969C190.322 300.282 190.747 300.458 191.19 300.458H192.93C193.374 300.458 193.8 300.282 194.114 299.969C194.429 299.656 194.607 299.232 194.61 298.788V296.788C195.534 296.552 196.42 296.185 197.24 295.698L198.68 297.138C198.836 297.294 199.022 297.419 199.226 297.503C199.43 297.588 199.649 297.632 199.87 297.632C200.091 297.632 200.31 297.588 200.514 297.503C200.718 297.419 200.904 297.294 201.06 297.138L202.28 295.908C202.436 295.753 202.56 295.568 202.645 295.365C202.73 295.161 202.773 294.943 202.773 294.723C202.773 294.502 202.73 294.284 202.645 294.081C202.56 293.878 202.436 293.693 202.28 293.538L200.84 292.098C201.323 291.276 201.69 290.391 201.93 289.468H203.93C204.376 289.468 204.803 289.291 205.118 288.976C205.433 288.661 205.61 288.233 205.61 287.788V286.048C205.61 285.602 205.433 285.175 205.118 284.86C204.803 284.545 204.376 284.368 203.93 284.368H201.93C201.692 283.444 201.325 282.559 200.84 281.738L202.32 280.328C202.476 280.173 202.6 279.988 202.685 279.785C202.77 279.581 202.813 279.363 202.813 279.143C202.813 278.922 202.77 278.704 202.685 278.501C202.6 278.298 202.476 278.113 202.32 277.958L201.1 276.728C200.944 276.571 200.758 276.447 200.554 276.362C200.35 276.277 200.131 276.234 199.91 276.234C199.689 276.234 199.47 276.277 199.266 276.362C199.062 276.447 198.876 276.571 198.72 276.728L197.28 278.168C196.46 277.681 195.574 277.314 194.65 277.078L194.61 275.048ZM192.06 282.478C192.947 282.476 193.814 282.737 194.552 283.228C195.29 283.719 195.866 284.418 196.206 285.236C196.547 286.055 196.637 286.956 196.465 287.826C196.293 288.695 195.868 289.495 195.241 290.122C194.615 290.75 193.817 291.177 192.948 291.351C192.078 291.525 191.177 291.436 190.358 291.098C189.539 290.759 188.838 290.185 188.346 289.448C187.853 288.711 187.59 287.844 187.59 286.958C187.59 285.771 188.061 284.633 188.899 283.793C189.737 282.954 190.874 282.48 192.06 282.478V282.478Z" fill="#00B8D9"/>
<path d="M379.93 265.568C384.326 265.568 387.89 262.004 387.89 257.608C387.89 253.212 384.326 249.648 379.93 249.648C375.534 249.648 371.97 253.212 371.97 257.608C371.97 262.004 375.534 265.568 379.93 265.568Z" stroke="#79F2C0" stroke-width="3.03" stroke-miterlimit="10"/>
<path d="M409.52 286.958L386.42 263.858" stroke="#79F2C0" stroke-width="3.03" stroke-miterlimit="10" stroke-linecap="round"/>
<path d="M364.78 118.978H242.67C233.916 118.978 226.82 126.074 226.82 134.828V295.688C226.82 304.441 233.916 311.538 242.67 311.538H364.78C373.534 311.538 380.63 304.441 380.63 295.688V134.828C380.63 126.074 373.534 118.978 364.78 118.978Z" fill="url(#paint3_linear)"/>
<path d="M303.72 211.468C322.371 211.468 337.49 196.348 337.49 177.698C337.49 159.047 322.371 143.928 303.72 143.928C285.069 143.928 269.95 159.047 269.95 177.698C269.95 196.348 285.069 211.468 303.72 211.468Z" stroke="#57D9A3" stroke-width="10.44" stroke-miterlimit="10"/>
<path d="M337.5 177.698C337.502 184.379 335.523 190.911 331.812 196.468C328.102 202.024 322.826 206.355 316.654 208.914C310.482 211.472 303.69 212.142 297.136 210.84C290.583 209.538 284.563 206.321 279.838 201.597C275.112 196.874 271.894 190.855 270.59 184.302C269.286 177.749 269.954 170.956 272.511 164.783C275.067 158.61 279.397 153.334 284.952 149.621C290.507 145.909 297.039 143.928 303.72 143.928" stroke="#FFAB00" stroke-width="10.44" stroke-miterlimit="10"/>
<path d="M251.63 245.248C255.297 245.248 258.27 242.275 258.27 238.608C258.27 234.941 255.297 231.968 251.63 231.968C247.963 231.968 244.99 234.941 244.99 238.608C244.99 242.275 247.963 245.248 251.63 245.248Z" fill="#B3BAC5"/>
<path d="M251.63 268.298C255.297 268.298 258.27 265.325 258.27 261.658C258.27 257.99 255.297 255.018 251.63 255.018C247.963 255.018 244.99 257.99 244.99 261.658C244.99 265.325 247.963 268.298 251.63 268.298Z" fill="#57D9A3"/>
<path d="M251.63 291.358C255.297 291.358 258.27 288.385 258.27 284.718C258.27 281.051 255.297 278.078 251.63 278.078C247.963 278.078 244.99 281.051 244.99 284.718C244.99 288.385 247.963 291.358 251.63 291.358Z" fill="#57D9A3"/>
<path d="M269.95 238.608H354.73" stroke="#C1C7D0" stroke-width="4.12" stroke-miterlimit="10"/>
<path d="M269.95 261.658H354.73" stroke="#C1C7D0" stroke-width="4.12" stroke-miterlimit="10"/>
<path d="M269.95 284.718H354.73" stroke="#C1C7D0" stroke-width="4.12" stroke-miterlimit="10"/>
<path d="M449.11 158.388C456.395 158.388 462.3 152.482 462.3 145.198C462.3 137.913 456.395 132.008 449.11 132.008C441.826 132.008 435.92 137.913 435.92 145.198C435.92 152.482 441.826 158.388 449.11 158.388Z" fill="#00C7E5"/>
<path d="M446.93 151.658L441.8 146.528C441.743 146.472 441.697 146.405 441.666 146.331C441.634 146.257 441.618 146.178 441.618 146.098C441.618 146.018 441.634 145.938 441.666 145.864C441.697 145.79 441.743 145.724 441.8 145.668L443.57 143.898C443.626 143.84 443.693 143.795 443.767 143.763C443.84 143.732 443.92 143.716 444 143.716C444.08 143.716 444.159 143.732 444.233 143.763C444.307 143.795 444.374 143.84 444.43 143.898L447.32 146.828L453.76 140.388C453.816 140.33 453.883 140.285 453.957 140.253C454.03 140.222 454.11 140.206 454.19 140.206C454.27 140.206 454.349 140.222 454.423 140.253C454.497 140.285 454.564 140.33 454.62 140.388L456.39 142.158C456.504 142.274 456.568 142.43 456.568 142.593C456.568 142.755 456.504 142.912 456.39 143.028L447.75 151.658C447.639 151.762 447.492 151.82 447.34 151.82C447.188 151.82 447.041 151.762 446.93 151.658V151.658Z" fill="#79E2F2"/>
<path d="M251.63 246.378C256.026 246.378 259.59 242.814 259.59 238.418C259.59 234.022 256.026 230.458 251.63 230.458C247.234 230.458 243.67 234.022 243.67 238.418C243.67 242.814 247.234 246.378 251.63 246.378Z" stroke="#FFC400" stroke-width="3.03" stroke-miterlimit="10"/>
<path d="M222.04 209.068L245.14 232.168" stroke="#FFC400" stroke-width="3.03" stroke-miterlimit="10" stroke-linecap="round"/>
<path d="M202.98 212.388C213.346 212.388 221.75 203.984 221.75 193.618C221.75 183.251 213.346 174.848 202.98 174.848C192.614 174.848 184.21 183.251 184.21 193.618C184.21 203.984 192.614 212.388 202.98 212.388Z" fill="#FFE380"/>
<path d="M210.55 207.098C209.721 206.729 209.006 206.145 208.478 205.406C207.951 204.668 207.63 203.802 207.55 202.898H211.85C211.986 202.905 212.121 202.884 212.248 202.837C212.375 202.789 212.492 202.717 212.59 202.623C212.688 202.53 212.766 202.417 212.82 202.292C212.873 202.168 212.9 202.033 212.9 201.898V190.328C212.916 188.336 212.336 186.385 211.236 184.725C210.136 183.065 208.565 181.771 206.725 181.009C204.885 180.248 202.859 180.053 200.907 180.45C198.955 180.847 197.167 181.818 195.77 183.238C193.909 185.131 192.855 187.673 192.83 190.328V201.888C192.83 202.153 192.936 202.407 193.123 202.595C193.311 202.782 193.565 202.888 193.83 202.888H198.1C198.018 203.791 197.697 204.656 197.169 205.394C196.642 206.133 195.928 206.717 195.1 207.088C193.99 207.577 192.929 208.169 191.93 208.858C195.095 211.134 198.891 212.364 202.789 212.377C206.687 212.389 210.491 211.183 213.67 208.928C212.693 208.216 211.648 207.603 210.55 207.098V207.098Z" fill="#FFC400"/>
<path d="M170.77 212.388C181.136 212.388 189.54 203.984 189.54 193.618C189.54 183.251 181.136 174.848 170.77 174.848C160.404 174.848 152 183.251 152 193.618C152 203.984 160.404 212.388 170.77 212.388Z" fill="#FFC400"/>
<path d="M162.73 206.458C161.48 206.965 160.287 207.602 159.17 208.358C162.358 210.879 166.281 212.292 170.345 212.384C174.408 212.476 178.391 211.242 181.69 208.868C180.601 207.964 179.433 207.161 178.2 206.468C177.247 206.083 176.429 205.422 175.852 204.571C175.275 203.72 174.965 202.716 174.96 201.688C174.955 200.946 175.113 200.213 175.422 199.539C175.731 198.865 176.185 198.267 176.75 197.788C178.301 196.495 179.417 194.757 179.946 192.809C180.475 190.861 180.392 188.797 179.709 186.897C179.025 184.998 177.774 183.354 176.124 182.19C174.475 181.026 172.508 180.397 170.489 180.389C168.47 180.381 166.498 180.994 164.839 182.146C163.181 183.297 161.916 184.93 161.218 186.824C160.519 188.718 160.42 190.781 160.934 192.734C161.448 194.686 162.55 196.433 164.09 197.738C164.673 198.228 165.14 198.841 165.46 199.532C165.78 200.223 165.943 200.976 165.94 201.738V201.738C165.929 202.753 165.618 203.742 165.047 204.582C164.476 205.422 163.67 206.074 162.73 206.458V206.458Z" fill="#FFE380"/>
<path d="M428.89 321.218C439.256 321.218 447.66 312.814 447.66 302.448C447.66 292.081 439.256 283.678 428.89 283.678C418.524 283.678 410.12 292.081 410.12 302.448C410.12 312.814 418.524 321.218 428.89 321.218Z" fill="#36B37E"/>
<path d="M436.46 315.928C435.634 315.554 434.922 314.969 434.395 314.232C433.868 313.494 433.545 312.63 433.46 311.728H437.77C438.035 311.728 438.29 311.622 438.477 311.435C438.665 311.247 438.77 310.993 438.77 310.728V299.128C438.788 297.135 438.21 295.183 437.11 293.521C436.011 291.859 434.44 290.564 432.599 289.801C430.759 289.038 428.732 288.842 426.779 289.239C424.827 289.636 423.037 290.607 421.64 292.028C419.78 293.925 418.73 296.471 418.71 299.128V310.688C418.71 310.953 418.815 311.207 419.003 311.395C419.19 311.582 419.445 311.688 419.71 311.688H423.98C423.899 312.591 423.578 313.457 423.051 314.195C422.523 314.933 421.809 315.518 420.98 315.888C419.87 316.371 418.812 316.964 417.82 317.658C420.984 319.934 424.781 321.164 428.679 321.176C432.577 321.189 436.381 319.983 439.56 317.728C438.588 317.028 437.55 316.425 436.46 315.928V315.928Z" fill="#79F2C0"/>
<path d="M462.45 321.218C472.816 321.218 481.22 312.814 481.22 302.448C481.22 292.081 472.816 283.678 462.45 283.678C452.084 283.678 443.68 292.081 443.68 302.448C443.68 312.814 452.084 321.218 462.45 321.218Z" fill="#79F2C0"/>
<path d="M454.41 315.328C453.162 315.845 451.966 316.481 450.84 317.228C454.027 319.752 457.949 321.168 462.013 321.262C466.077 321.355 470.06 320.122 473.36 317.748C472.276 316.843 471.111 316.039 469.88 315.348C468.927 314.963 468.109 314.302 467.532 313.451C466.955 312.6 466.645 311.596 466.64 310.568C466.635 309.826 466.793 309.093 467.102 308.419C467.411 307.745 467.865 307.147 468.43 306.668C469.976 305.375 471.088 303.638 471.614 301.692C472.14 299.747 472.055 297.687 471.371 295.791C470.688 293.895 469.437 292.255 467.79 291.093C466.143 289.932 464.179 289.304 462.164 289.296C460.148 289.288 458.179 289.9 456.523 291.049C454.867 292.197 453.604 293.827 452.905 295.718C452.206 297.608 452.105 299.668 452.616 301.617C453.126 303.567 454.224 305.313 455.76 306.618C456.339 307.101 456.804 307.705 457.124 308.387C457.444 309.07 457.61 309.814 457.61 310.568V310.568C457.609 311.589 457.304 312.587 456.734 313.434C456.164 314.282 455.355 314.941 454.41 315.328Z" fill="#36B37E"/>
<defs>
<linearGradient id="paint0_linear" x1="296" y1="325" x2="296" y2="-5" gradientUnits="userSpaceOnUse">
<stop stop-color="#00C7E5"/>
<stop offset="0.15" stop-color="#06C8E6"/>
<stop offset="0.35" stop-color="#18CCE8"/>
<stop offset="0.59" stop-color="#36D3EB"/>
<stop offset="0.85" stop-color="#5FDCEF"/>
<stop offset="1" stop-color="#79E2F2"/>
</linearGradient>
<linearGradient id="paint1_linear" x1="230.26" y1="296.31" x2="346.085" y2="95.5343" gradientUnits="userSpaceOnUse">
<stop offset="0.01" stop-color="#0065FF"/>
<stop offset="0.43" stop-color="#4C9AFF"/>
<stop offset="1" stop-color="#B2D4FF"/>
</linearGradient>
<linearGradient id="paint2_linear" x1="229.02" y1="285.528" x2="427.869" y2="166.426" gradientUnits="userSpaceOnUse">
<stop offset="0.01" stop-color="#0065FF"/>
<stop offset="0.6" stop-color="#4C9AFF"/>
<stop offset="1" stop-color="#B2D4FF"/>
</linearGradient>
<linearGradient id="paint3_linear" x1="221.78" y1="297.198" x2="385.67" y2="133.308" gradientUnits="userSpaceOnUse">
<stop stop-color="#DFE1E5"/>
<stop offset="1" stop-color="#F4F5F7"/>
</linearGradient>
<clipPath id="clip0">
<rect width="600" height="280" fill="white"/>
</clipPath>
</defs>
</svg>
