<svg width="600" height="350" viewBox="0 0 600 350" fill="none" xmlns="http://www.w3.org/2000/svg">
<g clip-path="url(#clip0)">
<path d="M606 -5H-14V325H606V-5Z" fill="url(#paint0_linear)"/>
<g opacity="0.5">
<path opacity="0.5" d="M261.486 354.353C266.122 340.169 275.6 328.069 288.26 320.171C295.02 315.989 302.498 313.131 309.916 310.304C335.445 300.556 362.259 290.649 389.371 294.044C392.428 294.423 395.753 294.93 398.432 293.397C402.066 291.306 402.872 286.487 403.111 282.305C404.027 266.982 403.898 248.98 416.254 239.869C423.383 234.622 433.061 234.015 441.704 235.946C450.346 237.878 458.282 242.04 466.347 245.704C472.072 248.313 478.235 250.732 484.478 249.975C490.721 249.219 495.899 245.584 500.867 241.95C519.447 228.339 538.305 212.896 561.126 209.73C573.074 208.067 587.272 211.194 592.988 221.877C600.565 236.076 589.134 254.426 595.138 269.351C600.774 283.371 619.035 288.03 627 300.835" stroke="#79E2F2" stroke-miterlimit="10"/>
<path opacity="0.5" d="M295.02 358.067L292.083 357.519C294.194 345.999 296.803 335.116 305.316 328.515C309.557 325.229 314.834 323.536 319.494 322.063L357.26 309.995C363.752 307.924 371.11 305.574 378.548 305.873C382.392 306.155 386.202 306.792 389.929 307.775C392.975 308.543 396.068 309.112 399.188 309.477C404.527 309.976 409.907 309.217 414.899 307.262C419.892 305.308 424.357 302.211 427.938 298.221C431.519 294.231 434.116 289.458 435.521 284.284C436.925 279.11 437.099 273.679 436.029 268.425C435.72 266.952 435.332 265.438 434.923 263.885C433.719 259.295 432.484 254.575 433.539 250.115C433.594 249.899 433.661 249.686 433.738 249.478C434.089 248.475 434.757 247.614 435.641 247.025C436.525 246.435 437.577 246.15 438.637 246.212V246.212C445.746 246.749 451.581 251.519 457.276 256.169C460.771 259.016 464.386 261.953 468.229 263.845C477.509 268.425 490.134 267.35 501.863 260.978C509.958 256.587 517.097 250.354 524.007 244.32C526.088 242.498 528.248 240.616 530.399 238.804C536.672 233.537 543.612 228.379 551.886 226.318C559.543 224.406 569.878 225.681 575.723 232.82C581.567 239.959 580.811 249.249 580.133 258.279C579.546 266.175 578.929 274.35 582.812 280.652C584.25 282.818 585.92 284.821 587.79 286.626C590.319 289.225 592.938 291.923 594.382 295.438C596.652 300.954 595.497 307.118 594.571 312.066L586.685 354.024L583.698 353.476L591.584 311.518C592.44 306.948 593.505 301.273 591.584 296.583C590.349 293.596 588.049 291.217 585.61 288.707C583.574 286.754 581.758 284.584 580.193 282.235C575.812 275.116 576.459 266.454 577.087 258.07C577.744 249.239 578.371 240.895 573.343 234.732C568.315 228.568 559.274 227.553 552.543 229.235C544.856 231.147 538.245 236.076 532.251 241.114C530.12 242.906 527.98 244.778 525.899 246.59C518.869 252.733 511.601 259.076 503.217 263.616C490.582 270.457 476.981 271.582 466.835 266.544C462.693 264.502 458.949 261.456 455.325 258.508C450.565 254.635 446.035 250.921 440.907 249.667C440.339 249.519 439.744 249.503 439.168 249.618C438.592 249.733 438.05 249.976 437.582 250.331C437.113 250.685 436.731 251.141 436.464 251.664C436.197 252.187 436.051 252.764 436.039 253.351C435.939 256.417 436.805 259.743 437.711 263.188C438.119 264.731 438.538 266.334 438.856 267.888C440.019 273.599 439.829 279.503 438.301 285.128C436.772 290.752 433.949 295.941 430.055 300.278C426.162 304.616 421.308 307.982 415.88 310.106C410.453 312.231 404.603 313.056 398.8 312.514C395.549 312.135 392.326 311.543 389.152 310.742C385.592 309.799 381.952 309.189 378.279 308.92C371.359 308.621 364.588 310.802 358.027 312.902L320.261 324.96C315.621 326.444 310.832 327.947 307.008 330.934C299.471 336.829 297.032 347.134 295.02 358.067Z" stroke="#B3F5FF" stroke-width="0.5" stroke-miterlimit="10"/>
<path opacity="0.5" d="M532.829 283.371C531.765 283.107 530.796 282.552 530.031 281.768C526.924 279.099 523.559 275.913 523.509 271.811C523.591 269.885 524.108 268.002 525.022 266.305C528.353 259.299 533.155 253.094 539.1 248.111C545.044 243.128 551.993 239.485 559.473 237.43C560.068 237.209 560.715 237.164 561.335 237.3C562.45 237.649 562.898 238.953 563.187 240.088L564.909 246.789C565.567 248.729 565.768 250.793 565.497 252.823C564.929 255.432 562.898 257.413 561.156 259.434C557.063 264.164 554.186 269.869 549.934 274.439C545.683 279.009 533.904 283.53 532.829 283.371Z" stroke="#B3F5FF" stroke-miterlimit="10"/>
<path opacity="0.5" d="M539.968 269.172C545.275 264.721 551.02 259.405 551.209 252.475C548.779 251.071 545.932 253.411 544.1 255.541L533.306 268.087C532.39 269.142 531.504 270.855 532.57 271.761L534.671 271.89C536.536 271.195 538.314 270.282 539.968 269.172V269.172Z" stroke="#00B8D9" stroke-miterlimit="10"/>
<path opacity="0.5" d="M567.16 351.913C572.706 334.339 578.032 314.296 568.852 298.316C567.752 296.195 566.149 294.376 564.183 293.019C560.698 290.858 556.217 291.246 552.234 292.212C544.936 293.984 538.076 297.43 530.648 298.555C523.22 299.68 514.548 297.778 510.734 291.326C509.281 288.877 508.624 285.949 506.752 283.809C502.978 279.497 496.068 280.174 490.681 282.166C485.295 284.157 479.848 287.144 474.183 286.228C469.951 285.551 466.327 282.773 462.185 281.708C458.043 280.642 452.397 282.474 452.149 286.756C452.029 288.807 453.214 290.669 453.762 292.64C455.066 297.28 452.706 302.318 449.132 305.584C445.557 308.85 440.957 310.563 436.467 312.315L415.308 320.41C410.489 322.252 405.581 324.144 401.648 327.479C393.125 334.698 391.074 346.815 389.57 357.877" stroke="#79E2F2" stroke-miterlimit="10"/>
<path opacity="0.5" d="M461.617 -30C461.866 -17.2852 451.979 -6.57163 441.246 0.24878C430.512 7.06919 418.216 11.6095 408.697 20.0429C398.74 28.8248 392.587 41.1812 382.809 50.0926C370.413 61.3537 353.427 66.0234 336.849 68.433C317.194 71.2806 294.731 72.6348 282.226 88.0678C275.425 96.4813 273.026 107.553 268.396 117.311C256.368 142.671 227.015 158.612 199.196 154.878C197.746 154.745 196.325 154.389 194.984 153.823C192.664 152.747 191.001 150.646 189.458 148.625L171.536 125.276C166.667 118.954 161.579 112.432 154.5 108.758C135.761 99.0402 109.893 112.273 92.9866 99.6376C86.3952 94.6592 82.7112 86.6938 76.4284 81.4067C68.463 74.6361 57.4109 73.053 47.016 71.7486L0 65.7745" stroke="#B3F5FF" stroke-miterlimit="10"/>
<path opacity="0.5" d="M2.74808 13.0134C4.55026 15.0048 4.73944 17.9918 5.73512 20.481C8.83169 28.2872 18.7487 30.8859 27.1223 30.1989C35.496 29.5119 43.8697 26.8136 52.1139 28.4067C62.5984 30.398 70.5739 39.1799 75.7016 48.5493C80.8294 57.9186 83.9259 68.3135 89.2329 77.5933C92.7676 83.7665 97.4274 89.5415 103.66 92.9766C109.893 96.4117 117.879 97.1982 124.082 93.7134C134.347 87.9285 138.649 71.8781 150.427 71.659C155.356 71.5694 159.737 74.5565 163.74 77.424L187.168 94.1913C190.802 96.79 194.536 99.4983 196.836 103.322C202.81 113.179 197.672 127.537 205.12 136.309C212.389 144.871 226.249 142.103 236.275 137.055C239.958 135.335 243.37 133.084 246.401 130.374C255.631 121.553 256.866 107.543 258.608 94.8982C259.882 85.6861 261.725 76.5616 264.124 67.5767C265.508 62.3892 267.31 56.903 271.572 53.6372C276.301 50.0129 282.793 50.0627 288.737 50.4311C310.125 51.7952 332.179 55.071 352.6 48.6787C377.771 40.8029 397.406 17.484 400.831 -8.67249" stroke="#00C7E5" stroke-miterlimit="10"/>
<path opacity="0.5" d="M389.849 -18.1912C383.998 2.02056 372.071 19.9434 355.687 33.1461C355.214 33.5377 354.639 33.7846 354.03 33.857C353.42 33.9294 352.803 33.8243 352.252 33.5543C349.563 32.1604 352.64 29.0737 348.578 27.9685C347.336 27.655 346.036 27.655 344.794 27.9685L331.472 31.1049C330.599 31.3042 329.688 31.2511 328.844 30.9519C328 30.6526 327.259 30.1196 326.707 29.415C326.155 28.7104 325.814 27.8632 325.725 26.9724C325.636 26.0816 325.803 25.1839 326.205 24.3841C328.355 20.2022 331.621 16.4186 334.837 12.9537C341.694 5.48606 348.873 -1.71271 356.374 -8.64264" stroke="#B3F5FF" stroke-miterlimit="10"/>
<path opacity="0.5" d="M160.285 57.9286C159.614 57.9291 158.95 57.7941 158.332 57.5315C157.715 57.269 157.157 56.8844 156.692 56.4008C156.227 55.9172 155.865 55.3446 155.627 54.7174C155.388 54.0902 155.28 53.4214 155.306 52.7511C156.043 36.0336 142.363 19.9533 125.994 18.3204C119.123 17.6434 112.054 19.1667 105.244 20.6404C97.7759 22.2534 90.0096 23.9161 82.2632 22.8109C67.8856 20.7499 56.9729 10.0861 46.13 -1.59319L48.3205 -3.58455C58.7751 7.64673 69.3194 17.9421 82.6515 19.8538C89.9001 20.8992 97.069 19.3559 104.656 17.7131C111.705 16.1996 118.994 14.6264 126.322 15.3533C144.175 17.1256 159.13 34.6595 158.333 52.8905C158.324 53.1625 158.37 53.4336 158.469 53.6871C158.569 53.9406 158.719 54.1709 158.911 54.3641C159.096 54.5576 159.321 54.7093 159.57 54.8089C159.819 54.9085 160.087 54.9537 160.354 54.9416C169.48 54.6104 178.116 50.735 184.43 44.1384C185.993 42.4856 187.477 40.6038 188.901 38.7817C192.236 34.5201 195.681 30.1192 200.789 27.8292C208.685 24.2746 217.576 26.943 226 29.9798C229.465 31.2244 233.388 32.6383 236.415 35.3963C237.283 36.2213 238.108 37.0921 238.884 38.005C240.052 39.5902 241.554 40.8989 243.285 41.8384C246.501 43.2224 250.324 41.6094 254.028 40.0561L254.884 39.6977C262.616 36.4945 270.91 34.8696 279.279 34.9184C280.274 34.9184 281.21 34.9184 282.176 34.9782C285.631 35.0777 288.877 35.1773 291.973 34.3111C297.051 32.8972 301.104 29.0738 305.146 24.9317C319.496 10.246 332.697 -5.51873 344.635 -22.2237L347.114 -20.4912C335.072 -3.66175 321.758 12.2195 307.287 27.0127C303.125 31.2742 298.575 35.5656 292.79 37.1786C289.255 38.1743 285.621 38.0648 282.096 37.9552C281.15 37.9552 280.205 37.8955 279.269 37.8955H278.88C271.042 37.904 263.282 39.45 256.039 42.4458L255.193 42.8042C251.121 44.5068 246.501 46.4584 242.12 44.5666C239.79 43.5709 238.187 41.7388 236.644 39.9665C235.948 39.1324 235.204 38.3411 234.413 37.5968C231.824 35.237 228.35 33.9825 224.994 32.7777C217.148 29.95 208.904 27.4508 202.024 30.5474C197.593 32.5387 194.516 36.4717 191.26 40.6237C189.787 42.5055 188.273 44.4371 186.611 46.1995C179.755 53.3581 170.379 57.5621 160.474 57.9186L160.285 57.9286Z" stroke="#B3F5FF" stroke-width="0.5" stroke-miterlimit="10"/>
<path opacity="0.5" d="M116.365 29.0538C117.266 28.7524 118.137 28.3656 118.964 27.8988C122.658 25.9075 128.154 27.8291 129.449 31.8815C130.375 34.8188 129.369 38.1444 130.524 41.002C132.655 46.2691 141.008 47.454 141.357 53.5276C141.408 55.2079 140.869 56.8529 139.834 58.1775C136.956 62.0706 132.127 63.3351 128.742 66.5014C124.132 70.8127 122.997 77.8621 117.909 81.9444C116.334 83.2368 114.37 83.9627 112.333 84.0054C107.982 84.0054 106.359 81.0184 104.995 78.101L90.4278 48.38C89.4322 46.299 88.3568 44.1085 88.4365 41.7985C88.5759 38.0647 91.6724 34.998 95.1275 33.5742C98.5825 32.1504 102.396 32.001 106.08 31.5828C109.571 31.0163 113.01 30.1705 116.365 29.0538V29.0538Z" stroke="#00B8D9" stroke-miterlimit="10"/>
<path opacity="0.5" d="M115.768 44.8254C117.43 46.8168 120.746 46.0899 123.096 46.767C123.628 46.9554 124.097 47.291 124.446 47.7348C124.795 48.1786 125.012 48.7123 125.07 49.2742C125.129 49.836 125.027 50.4029 124.776 50.909C124.525 51.4151 124.136 51.8398 123.653 52.1337V52.1337C118.217 55.3 118.675 63.0862 115.997 68.8711C115.8 69.3062 115.487 69.6791 115.094 69.9495C114.7 70.2199 114.24 70.3775 113.763 70.4052C113.286 70.4329 112.811 70.3296 112.389 70.1066C111.966 69.8836 111.613 69.5493 111.367 69.1399C111.037 68.5571 110.758 67.9476 110.53 67.3178C108.445 61.7393 107.079 55.9173 106.468 49.993C106.239 47.7527 106.139 45.4029 107.354 43.4115C107.763 42.7053 108.369 42.1333 109.097 41.7655C109.826 41.3978 110.645 41.2501 111.456 41.3405C114.384 41.7288 115.768 44.8254 115.768 44.8254Z" stroke="#B3F5FF" stroke-miterlimit="10"/>
<path opacity="0.5" d="M141.417 -4.48066C153.952 2.25014 159.847 16.9464 162.306 30.8859C162.424 32.2766 162.889 33.6154 163.66 34.779C166.787 38.6522 172.621 34.3011 175.977 30.6071C182.375 23.6724 190.49 18.548 199.502 15.751C208.513 12.9539 218.103 12.5832 227.304 14.6762C236.494 16.8966 244.928 21.5464 253.998 24.2049C263.069 26.8634 273.653 27.1919 281.2 21.5464C290.729 14.3477 291.914 0.5774 298.425 -9.43915" stroke="#00C7E5" stroke-miterlimit="10"/>
<path opacity="0.5" d="M243.454 64.2113C248.532 65.894 249.677 72.8837 247.795 77.8919C245.913 82.9002 242.09 86.9825 240.118 91.9609C238.376 96.3917 238.207 101.261 237.131 105.9C235.863 111.458 233.328 116.648 229.723 121.065C228.949 122.155 227.902 123.024 226.687 123.584C224.367 124.46 221.708 123.106 220.185 121.154C218.661 119.203 217.964 116.763 217.078 114.453C215.176 109.535 212.299 105.054 209.441 100.613L191.151 72.2166C190.457 71.3162 190.005 70.2539 189.836 69.1299C189.913 67.6664 190.465 66.2678 191.41 65.1472L199.803 52.7908C201.207 50.7198 202.711 48.5592 204.961 47.4838C209.262 45.4327 214.221 48.0713 218.243 50.6302C227.065 56.216 243.454 64.2113 243.454 64.2113Z" stroke="#00B8D9" stroke-miterlimit="10"/>
<path opacity="0.5" d="M224.277 105.562C221.29 106.617 218.761 103.182 217.427 100.305L208.147 80.2717C206.763 77.2846 205.359 74.2179 205.269 70.9421C205.18 67.6663 206.753 64.1118 209.79 62.897C213.145 61.5529 216.869 63.3949 219.906 65.3464C222.604 67.0889 225.362 69.1499 226.438 72.1768C227.354 74.7357 226.916 77.5435 226.438 80.2219C225.392 86.5345 227.065 104.566 224.277 105.562Z" stroke="#B3F5FF" stroke-miterlimit="10"/>
</g>
</g>
<path d="M373.065 205.211L286.933 262.34L200.757 205.211L286.933 148.115L373.065 205.211Z" fill="url(#paint1_linear)"/>
<path d="M315.6 243.229V210.791L286.911 229.827V262.254L315.6 243.229Z" fill="#0052CC"/>
<path d="M315.6 167.129V134.702L286.911 153.727V186.154L315.6 167.129Z" fill="#00B8D9"/>
<path d="M286.911 186.154V153.727L258.222 172.752V205.179L286.911 186.154Z" fill="#00B8D9"/>
<path d="M258.222 172.405L229.349 191.549L200.476 172.405L229.349 153.272L258.222 172.405Z" fill="#79E2F2"/>
<path d="M287.084 191.538L258.222 210.683L229.349 191.538L258.222 172.405L287.084 191.538Z" fill="#79E2F2"/>
<path d="M315.958 210.672L287.084 229.816L258.211 210.672L287.084 191.539L315.958 210.672Z" fill="#79E2F2"/>
<path d="M286.911 153.727L258.222 172.752L229.522 153.727L258.222 134.713L286.911 153.727Z" fill="#79E2F2"/>
<path d="M315.6 134.702L286.911 153.727L258.211 134.702L286.911 115.677L315.6 134.702Z" fill="#79E2F2"/>
<path d="M286.911 229.816V327.097L200.844 270.033L200.833 172.763L286.911 229.816Z" fill="#00A3BF"/>
<path d="M315.6 243.229L373.065 205.211L372.957 270.033L286.911 327.097V229.816L315.6 210.791V243.229Z" fill="#00B8D9"/>
<path d="M367.366 172.102L350.475 160.899L333.585 172.102L350.475 183.304L367.366 172.102Z" fill="#79F2C0"/>
<path d="M367.366 191.203V172.102L350.476 183.304V202.405L367.366 191.203Z" fill="#57D9A3"/>
<path d="M350.422 183.304V202.405L333.52 191.203V172.102L350.422 183.304Z" fill="#36B37E"/>
<path d="M350.41 132.99L341.981 127.4L333.552 132.99L341.981 138.581L350.41 132.99Z" fill="#0065FF"/>
<path d="M350.421 142.524V132.99L341.981 138.581V148.115L350.421 142.524Z" fill="#4C9AFF"/>
<path d="M341.96 138.581V148.115L333.52 142.524V132.99L341.96 138.581Z" fill="#0747A6"/>
<path d="M399.392 164.334L390.952 158.732L382.523 164.334L390.952 169.924L399.392 164.334Z" fill="#FFE380"/>
<path d="M399.392 173.857V164.323L390.952 169.924V179.447L399.392 173.857Z" fill="#FFC400"/>
<path d="M390.931 169.924V179.458L382.491 173.857V164.334L390.931 169.924Z" fill="#FF991F"/>
<path d="M200.833 246.891V233.716L212.501 241.441V254.626L200.833 246.891Z" fill="#00C7E5"/>
<path d="M298.58 294.16V280.975L286.911 288.722V301.896L298.58 294.16Z" fill="#2684FF"/>
<path d="M362.112 238.808V225.623L350.443 233.359V246.544L362.112 238.808Z" fill="#79E2F2"/>
<path d="M350.497 259.718V246.544L338.84 254.28V267.454L350.497 259.718Z" fill="#2684FF"/>
<path d="M310.237 299.892V286.706L298.58 294.442V307.627L310.237 299.892Z" fill="#79E2F2"/>
<path d="M230.725 269.274V256.089L242.393 263.835V277.01L230.725 269.274Z" fill="#79F2C0"/>
<path d="M275.243 258.819V245.634L286.911 253.369V266.555L275.243 258.819Z" fill="#00C7E5"/>
<path d="M200.833 203.066V189.881L212.501 197.617V210.802L200.833 203.066Z" fill="#0065FF"/>
<path d="M263.574 264.301V251.116L275.243 258.852V272.037L263.574 264.301Z" fill="#0065FF"/>
<path d="M212.501 241.268V228.082L224.17 235.818V249.003L212.501 241.268Z" fill="#00C7E5"/>
<path d="M512.534 140.672C523.765 140.672 532.87 131.567 532.87 120.336C532.87 109.105 523.765 100 512.534 100C501.303 100 492.198 109.105 492.198 120.336C492.198 131.567 501.303 140.672 512.534 140.672Z" fill="#FFC400"/>
<path d="M503.823 134.247C502.47 134.811 501.178 135.512 499.966 136.338C503.419 139.072 507.668 140.607 512.071 140.708C516.474 140.81 520.79 139.474 524.365 136.901C523.184 135.921 521.919 135.047 520.584 134.29C519.55 133.875 518.665 133.16 518.041 132.237C517.417 131.314 517.084 130.225 517.085 129.112C517.079 128.309 517.248 127.515 517.581 126.785C517.914 126.056 518.403 125.407 519.013 124.886C520.693 123.486 521.902 121.603 522.475 119.492C523.049 117.381 522.959 115.145 522.218 113.087C521.478 111.029 520.122 109.249 518.335 107.987C516.548 106.726 514.416 106.045 512.229 106.036C510.042 106.028 507.905 106.692 506.108 107.939C504.312 109.186 502.942 110.956 502.185 113.008C501.428 115.06 501.321 117.295 501.877 119.41C502.434 121.526 503.628 123.418 505.297 124.832C505.927 125.364 506.434 126.028 506.78 126.777C507.126 127.525 507.304 128.341 507.301 129.166V129.166C507.284 130.26 506.945 131.326 506.327 132.23C505.708 133.133 504.838 133.835 503.823 134.247Z" fill="#FFE380"/>
<path d="M476.185 140.672C487.416 140.672 496.521 131.567 496.521 120.336C496.521 109.105 487.416 100 476.185 100C464.954 100 455.849 109.105 455.849 120.336C455.849 131.567 464.954 140.672 476.185 140.672Z" fill="#FFE380"/>
<path d="M484.387 134.951C483.489 134.55 482.715 133.917 482.144 133.118C481.572 132.318 481.225 131.38 481.137 130.401H485.795C485.942 130.408 486.089 130.386 486.227 130.335C486.364 130.283 486.49 130.205 486.597 130.103C486.703 130.002 486.788 129.88 486.846 129.745C486.903 129.61 486.933 129.464 486.933 129.317V116.75C486.952 114.591 486.326 112.476 485.135 110.675C483.944 108.875 482.242 107.472 480.247 106.645C478.253 105.818 476.057 105.606 473.942 106.036C471.826 106.466 469.887 107.518 468.374 109.057C466.357 111.113 465.215 113.87 465.189 116.75V129.263C465.188 129.41 465.218 129.556 465.276 129.691C465.334 129.826 465.418 129.948 465.525 130.049C465.631 130.151 465.757 130.229 465.895 130.28C466.033 130.331 466.179 130.354 466.326 130.347H470.952C470.864 131.326 470.517 132.264 469.945 133.063C469.374 133.863 468.6 134.496 467.702 134.897C466.498 135.423 465.347 136.065 464.268 136.815C467.696 139.281 471.809 140.614 476.032 140.627C480.255 140.641 484.377 139.334 487.821 136.891C486.744 136.131 485.593 135.482 484.387 134.951V134.951Z" fill="#FFC400"/>
<path d="M391.212 184.951C399.96 184.951 407.052 177.86 407.052 169.112C407.052 160.364 399.96 153.272 391.212 153.272C382.464 153.272 375.373 160.364 375.373 169.112C375.373 177.86 382.464 184.951 391.212 184.951Z" stroke="#2684FF" stroke-width="3.03" stroke-miterlimit="10" stroke-linecap="round"/>
<path d="M421.949 138.375L402.859 157.465" stroke="#2684FF" stroke-width="3.03" stroke-miterlimit="10" stroke-linecap="round"/>
<path d="M433.812 148.819H472.426" stroke="#2684FF" stroke-width="3.03" stroke-miterlimit="10"/>
<path d="M433.812 157.465H472.426" stroke="#2684FF" stroke-width="3.03" stroke-miterlimit="10"/>
<path d="M433.812 166.1H457.464" stroke="#2684FF" stroke-width="3.03" stroke-miterlimit="10"/>
<path d="M441.288 140.672C452.519 140.672 461.624 131.567 461.624 120.336C461.624 109.105 452.519 100 441.288 100C430.057 100 420.952 109.105 420.952 120.336C420.952 131.567 430.057 140.672 441.288 140.672Z" fill="#FFC400"/>
<path d="M432.577 134.247C431.225 134.801 429.933 135.49 428.72 136.306C432.173 139.04 436.423 140.574 440.825 140.676C445.228 140.778 449.544 139.441 453.119 136.869C451.938 135.889 450.673 135.015 449.338 134.258C448.304 133.843 447.419 133.127 446.795 132.204C446.171 131.282 445.838 130.193 445.839 129.079C445.833 128.277 446.002 127.483 446.335 126.753C446.668 126.023 447.157 125.375 447.767 124.854C449.447 123.453 450.656 121.57 451.229 119.459C451.803 117.349 451.713 115.113 450.972 113.055C450.232 110.997 448.876 109.216 447.089 107.955C445.302 106.694 443.171 106.012 440.983 106.004C438.796 105.995 436.659 106.659 434.862 107.907C433.066 109.154 431.696 110.923 430.939 112.975C430.182 115.028 430.075 117.263 430.631 119.378C431.188 121.493 432.382 123.386 434.051 124.8C434.681 125.332 435.188 125.995 435.534 126.744C435.88 127.493 436.058 128.308 436.055 129.133V129.133C436.044 130.234 435.708 131.306 435.09 132.216C434.471 133.126 433.597 133.833 432.577 134.247Z" fill="#FFE380"/>
<path d="M183.032 332.98C194.263 332.98 203.368 323.875 203.368 312.644C203.368 301.412 194.263 292.308 183.032 292.308C171.801 292.308 162.696 301.412 162.696 312.644C162.696 323.875 171.801 332.98 183.032 332.98Z" fill="#36B37E"/>
<path d="M174.322 326.555C172.97 327.108 171.677 327.798 170.465 328.613C173.917 331.348 178.167 332.882 182.57 332.984C186.973 333.085 191.289 331.749 194.863 329.177C193.681 328.199 192.416 327.325 191.082 326.566C190.048 326.151 189.16 325.436 188.535 324.513C187.909 323.59 187.574 322.502 187.572 321.387C187.567 320.584 187.739 319.789 188.074 319.059C188.409 318.329 188.899 317.682 189.511 317.162C191.186 315.755 192.387 313.866 192.952 311.753C193.517 309.641 193.419 307.405 192.67 305.35C191.921 303.295 190.559 301.52 188.767 300.265C186.975 299.011 184.84 298.338 182.653 298.338C180.466 298.338 178.332 299.011 176.54 300.265C174.748 301.52 173.385 303.295 172.636 305.35C171.888 307.405 171.789 309.641 172.354 311.753C172.919 313.866 174.121 315.755 175.795 317.162C176.419 317.688 176.921 318.343 177.267 319.081C177.613 319.82 177.795 320.625 177.8 321.441V321.441C177.789 322.541 177.453 323.614 176.834 324.524C176.215 325.434 175.341 326.14 174.322 326.555Z" fill="#79F2C0"/>
<path d="M146.683 332.98C157.915 332.98 167.019 323.875 167.019 312.644C167.019 301.412 157.915 292.308 146.683 292.308C135.452 292.308 126.347 301.412 126.347 312.644C126.347 323.875 135.452 332.98 146.683 332.98Z" fill="#79F2C0"/>
<path d="M154.896 327.259C153.998 326.858 153.224 326.225 152.653 325.425C152.081 324.626 151.734 323.688 151.646 322.709H156.304C156.592 322.709 156.867 322.595 157.07 322.391C157.274 322.188 157.388 321.913 157.388 321.625V309.058C157.407 306.899 156.781 304.784 155.59 302.983C154.398 301.183 152.696 299.779 150.702 298.953C148.708 298.126 146.512 297.914 144.397 298.344C142.281 298.774 140.342 299.826 138.829 301.365C136.811 303.421 135.67 306.178 135.643 309.058V321.604C135.643 321.751 135.673 321.896 135.731 322.031C135.789 322.166 135.873 322.288 135.98 322.389C136.086 322.491 136.212 322.569 136.35 322.621C136.487 322.672 136.634 322.694 136.781 322.687H141.407C141.317 323.665 140.968 324.602 140.397 325.402C139.826 326.201 139.053 326.835 138.157 327.237C136.996 327.781 135.889 328.434 134.852 329.188C138.281 331.653 142.394 332.986 146.617 333C150.84 333.013 154.962 331.707 158.406 329.263C157.308 328.477 156.131 327.805 154.896 327.259V327.259Z" fill="#36B37E"/>
<path d="M236.976 282.384C245.724 282.384 252.816 275.292 252.816 266.544C252.816 257.796 245.724 250.704 236.976 250.704C228.228 250.704 221.136 257.796 221.136 266.544C221.136 275.292 228.228 282.384 236.976 282.384Z" stroke="#0065FF" stroke-width="3.03" stroke-miterlimit="10" stroke-linecap="round"/>
<path d="M206.239 297.281L225.329 278.191" stroke="#0065FF" stroke-width="3.03" stroke-miterlimit="10" stroke-linecap="round"/>
<path d="M110.995 332.98C122.227 332.98 131.331 323.875 131.331 312.644C131.331 301.412 122.227 292.308 110.995 292.308C99.7642 292.308 90.6595 301.412 90.6595 312.644C90.6595 323.875 99.7642 332.98 110.995 332.98Z" fill="#36B37E"/>
<path d="M121.537 314.485V310.845C121.54 310.593 121.444 310.35 121.27 310.168C121.096 309.985 120.857 309.879 120.605 309.87H113.802V303.088C113.802 302.96 113.776 302.833 113.727 302.715C113.678 302.596 113.606 302.489 113.516 302.398C113.425 302.308 113.318 302.236 113.2 302.187C113.081 302.138 112.954 302.113 112.826 302.113H109.186C109.058 302.111 108.931 302.135 108.812 302.183C108.693 302.231 108.585 302.301 108.493 302.391C108.402 302.48 108.329 302.587 108.279 302.705C108.228 302.822 108.202 302.949 108.2 303.077V303.077V309.859H101.44C101.182 309.859 100.934 309.96 100.75 310.14C100.566 310.321 100.459 310.566 100.454 310.824V310.824V314.464C100.462 314.716 100.567 314.955 100.746 315.133C100.925 315.31 101.166 315.412 101.418 315.417H108.2V322.199C108.203 322.456 108.305 322.702 108.484 322.886C108.664 323.07 108.908 323.177 109.164 323.185H112.805C113.062 323.174 113.304 323.064 113.482 322.879C113.659 322.693 113.758 322.446 113.758 322.189V315.417H120.551C120.676 315.422 120.801 315.401 120.919 315.357C121.036 315.313 121.144 315.247 121.235 315.161C121.327 315.076 121.4 314.973 121.452 314.859C121.504 314.745 121.533 314.622 121.537 314.496V314.496V314.485Z" fill="#57D9A3"/>
<defs>
<linearGradient id="paint0_linear" x1="296" y1="325" x2="296" y2="-5" gradientUnits="userSpaceOnUse">
<stop stop-color="#00C7E5"/>
<stop offset="0.15" stop-color="#06C8E6"/>
<stop offset="0.35" stop-color="#18CCE8"/>
<stop offset="0.59" stop-color="#36D3EB"/>
<stop offset="0.85" stop-color="#5FDCEF"/>
<stop offset="1" stop-color="#79E2F2"/>
</linearGradient>
<linearGradient id="paint1_linear" x1="200.757" y1="205.222" x2="373.065" y2="205.222" gradientUnits="userSpaceOnUse">
<stop offset="0.01" stop-color="#00C7E5"/>
<stop offset="0.15" stop-color="#04C8E6"/>
<stop offset="0.3" stop-color="#11CBE7"/>
<stop offset="0.45" stop-color="#27D1EB"/>
<stop offset="0.61" stop-color="#44D9EF"/>
<stop offset="0.76" stop-color="#6BE2F5"/>
<stop offset="0.92" stop-color="#99EEFB"/>
<stop offset="1" stop-color="#B3F5FF"/>
</linearGradient>
<clipPath id="clip0">
<rect width="600" height="280" fill="white"/>
</clipPath>
</defs>
</svg>
