<svg width="16" height="16" viewBox="0 0 16 16" fill="none" xmlns="http://www.w3.org/2000/svg">
<rect width="16" height="16" rx="3" fill="#6554C0"/>
<path d="M8.66732 11.3334H7.33398L5.33398 8.00004L7.33398 4.66671H8.66732" stroke="#FFFCFC" stroke-width="1.5" stroke-linecap="round" stroke-linejoin="round"/>
<path d="M10.6673 10C9.93094 10 9.33398 10.597 9.33398 11.3334C9.33398 12.0697 9.93094 12.6667 10.6673 12.6667C11.4037 12.6667 12.0007 12.0697 12.0007 11.3334C12.0007 10.597 11.4037 10 10.6673 10Z" stroke="#FFFCFC" stroke-width="1.5" stroke-linecap="round" stroke-linejoin="round"/>
<path d="M10.6673 3.33333C9.93094 3.33333 9.33398 3.93029 9.33398 4.66667C9.33398 5.40305 9.93094 6 10.6673 6C11.4037 6 12.0007 5.40305 12.0007 4.66667C12.0007 3.93029 11.4037 3.33333 10.6673 3.33333Z" stroke="#FFFCFC" stroke-width="1.5" stroke-linecap="round" stroke-linejoin="round"/>
<path d="M5.33366 8H2.66699" stroke="#FFFCFC" stroke-width="1.5" stroke-linecap="round" stroke-linejoin="round"/>
</svg>

