<svg id="Layer_1" data-name="Layer 1" xmlns="http://www.w3.org/2000/svg" xmlns:xlink="http://www.w3.org/1999/xlink" viewBox="0 0 600 600"><defs><style>.cls-1,.cls-10{fill:none;}.cls-2{fill:#172b4d;}.cls-3{fill:#fff;}.cls-4{opacity:0.46;}.cls-5{clip-path:url(#clip-path);}.cls-6{fill:#eae5f2;}.cls-7{fill:#ffc50f;}.cls-8{fill:#9b8dc3;}.cls-9{fill:#f37455;}.cls-10{stroke:#fff;stroke-miterlimit:10;stroke-width:5px;}.cls-11{fill:url(#linear-gradient);}</style><clipPath id="clip-path"><circle class="cls-1" cx="300.5" cy="303.5" r="152.5"/></clipPath><linearGradient id="linear-gradient" x1="290.38" y1="298.84" x2="254.17" y2="236.08" gradientTransform="matrix(1, 0, 0, -1, 0, 602)" gradientUnits="userSpaceOnUse"><stop offset="0" stop-color="#fff" stop-opacity="0.4"/><stop offset="0.92" stop-color="#fff"/></linearGradient></defs><title>Atlassian Design System Sticker</title><circle class="cls-2" cx="303" cy="302" r="221"/><path class="cls-3" d="M201.84,154.8l1.4,5.42-4.23,2.7-5.69-26,5.18-3.32,21.22,16.06-4.23,2.71-4.34-3.54a29.69,29.69,0,0,1-4.43,3.52A28.14,28.14,0,0,1,201.84,154.8Zm6.41-8.31-10.72-8.7,3.41,13.43a28.64,28.64,0,0,0,3.77-2A26.24,26.24,0,0,0,208.25,146.49Z"/><path class="cls-3" d="M229.44,117.77l1.7,3.73-6.44,2.93,8.64,19-4.15,1.89-8.64-19-6.44,2.93-1.7-3.74Z"/><path class="cls-3" d="M244.16,112.78l6,19.91,10.19-3.06,1.2,4L247,138l-7.18-23.92Z"/><path class="cls-3" d="M271.87,126.18l-1,5.52-5,.71,5.59-26,6.09-.87,12.65,23.4-5,.72-2.49-5a30,30,0,0,1-5.48,1.36A27.76,27.76,0,0,1,271.87,126.18Zm9.27-4.9L275,108.92l-2.45,13.63a28.25,28.25,0,0,0,4.26-.26A27.64,27.64,0,0,0,281.14,121.28Z"/><path class="cls-3" d="M304.89,129.29c-4.71,0-7.17-1-9.13-2.08l.05-4.37a22.83,22.83,0,0,0,9.25,2.24c3.26,0,4.46-1.2,4.48-3.06s-1.18-2.87-5.16-3.87c-6.1-1.4-8.47-3.63-8.42-7.66s3.2-7,9.24-6.92a16.56,16.56,0,0,1,8,1.92l-.05,4.26a18.45,18.45,0,0,0-8.11-2c-2.85,0-4.49.94-4.52,2.87,0,1.75,1.38,2.64,5.28,3.64,5.8,1.36,8.43,3.41,8.38,7.7C314.09,126.44,311.35,129.37,304.89,129.29Z"/><path class="cls-3" d="M330.09,131.45a18.15,18.15,0,0,1-8.74-3.39l.69-4.32a22.57,22.57,0,0,0,8.82,3.56c3.23.51,4.59-.54,4.88-2.38s-.75-3-4.54-4.57c-5.84-2.27-7.86-4.82-7.22-8.8s4.18-6.45,10.14-5.51a16.51,16.51,0,0,1,7.6,3.06l-.67,4.2a18.52,18.52,0,0,0-7.73-3.19c-2.81-.45-4.58.27-4.88,2.19-.28,1.72,1,2.81,4.69,4.36,5.54,2.19,7.85,4.59,7.17,8.83C339.6,130,336.47,132.46,330.09,131.45Z"/><path class="cls-3" d="M359,112.05l-6.78,24-4.38-1.23,6.77-24Z"/><path class="cls-3" d="M367.76,135.68l-3.69,4.21-4.61-2,18.25-19.37,5.67,2.4-1.29,26.58-4.62-2,.47-5.58a29.46,29.46,0,0,1-5.4-1.68A28.18,28.18,0,0,1,367.76,135.68Zm10.48.6,1.13-13.76-9.16,10.4a29,29,0,0,0,3.79,2A27.42,27.42,0,0,0,378.24,136.28Z"/><path class="cls-3" d="M419.54,141.45l-13.56,21-4-2.58.37-15.2.68-8.2-11,17-3.7-2.39,13.56-21,5.11,3.3-.31,13.29-.71,7.6,9.82-15.19Z"/><g class="cls-4"><g class="cls-5"><rect class="cls-2" x="-93.81" y="-80" width="791.98" height="775.95"/><g id="heart_block" data-name="heart block"><path id="top" class="cls-6" d="M329.24,565.67l45.31,26.63L298.84,637l-76.16-44.62,45.05-26.61,30.1,17.39.73.43.73-.43,29.93-17.46m0-1.74-30.72,17.9L267.66,564l-48,28.33,79.11,46.34,78.64-46.4-48.2-28.4Z"/><polygon id="fill" class="cls-7" points="219.73 592.35 298.85 638.69 298.72 689.64 219.57 643.31 219.73 592.35"/><g id="lines"><polygon class="cls-8" points="298.85 638.69 377.46 592.36 377.43 599.63 298.85 645.93 298.85 638.69"/></g><polygon class="cls-6" points="222.68 592.35 267.73 565.75 298.3 584.33 329.24 565.67 374.55 592.3 298.85 636.97 222.68 592.35"/></g><g id="heart_block-2" data-name="heart block"><path id="top-2" data-name="top" class="cls-6" d="M644.31,563.5l45.31,26.64-75.71,44.67-76.16-44.62,45-26.61L612.89,581l.74.43.73-.43,29.93-17.47m0-1.73-30.72,17.9-30.84-17.82-48,28.34,79.12,46.34,78.64-46.4-48.2-28.4Z"/><polygon id="fill-2" data-name="fill" class="cls-7" points="534.8 590.19 613.91 636.53 613.78 687.48 534.64 641.15 534.8 590.19"/><polygon class="cls-6" points="537.75 590.19 582.8 563.59 613.37 582.16 644.31 563.5 689.62 590.14 613.91 634.81 537.75 590.19"/></g><polygon class="cls-8" points="613.37 531.33 534.77 484.98 534.78 492.26 613.37 538.56 613.37 531.33"/><polygon class="cls-8" points="613.37 545.82 534.8 499.52 534.83 506.81 613.37 553.11 613.37 545.82"/><polygon class="cls-8" points="613.37 560.39 534.84 514.09 534.85 521.38 613.37 567.67 613.37 560.39"/><polygon class="cls-8" points="613.37 574.94 534.87 528.66 534.9 535.89 613.37 582.16 613.37 574.94"/><polygon class="cls-6" points="537.75 484.28 582.8 457.68 613.37 476.25 644.31 457.6 689.62 484.23 613.91 528.9 537.75 484.28"/><g id="heart_block-3" data-name="heart block"><path id="top-3" data-name="top" class="cls-6" d="M644.31,457.59l45.31,26.64L613.91,528.9l-76.16-44.62,45-26.61,30.09,17.39.74.43.73-.43,29.93-17.47m0-1.73-30.72,17.9-30.84-17.82-48,28.34,79.12,46.34,78.64-46.4-48.2-28.41Z"/></g><g id="heart_block-4" data-name="heart block"><path id="top-4" data-name="top" class="cls-6" d="M486.77,563.5l45.31,26.64-75.7,44.67-76.17-44.62,45.06-26.61L455.36,581l.73.43.73-.43,29.94-17.47m0-1.73L456,579.67,425.2,561.85l-48,28.34,79.12,46.34L535,590.13l-48.21-28.4Z"/><polygon id="fill-3" data-name="fill" class="cls-7" points="377.26 590.19 456.38 636.53 456.25 687.48 377.11 641.15 377.26 590.19"/><g id="lines-2" data-name="lines"><polygon class="cls-8" points="456.38 636.53 534.99 590.2 534.96 597.46 456.38 643.76 456.38 636.53"/></g></g><polygon id="fill-2-2" data-name="fill-2" class="cls-7" points="534.95 484.97 455.83 531.33 455.96 582.26 535.11 535.93 534.95 484.97"/><g id="lines-2-2" data-name="lines-2"><polygon class="cls-8" points="455.83 531.33 377.23 484.98 377.25 492.26 455.83 538.56 455.83 531.33"/><polygon class="cls-8" points="455.83 545.82 377.26 499.52 377.29 506.81 455.83 553.11 455.83 545.82"/><polygon class="cls-8" points="455.83 560.39 377.31 514.09 377.32 521.38 455.83 567.67 455.83 560.39"/><polygon class="cls-8" points="455.83 574.94 377.33 528.66 377.36 535.89 455.83 582.16 455.83 574.94"/></g><path id="top-2-2" data-name="top-2" class="cls-9" d="M425.45,458.28l29.94,17.47.73.43.73-.43,30.09-17.39L532,485l-76.16,44.62-75.73-44.67,45.31-26.64m0-1.73-48.18,28.36,78.64,46.4L535,485l-48-28.34-30.84,17.82-30.68-17.9Z"/><polygon class="cls-9" points="380.13 484.92 425.45 458.29 456.12 476.18 486.96 458.37 532 484.97 455.85 529.59 380.13 484.92"/><polygon class="cls-6" points="380.21 590.19 425.27 563.59 455.83 582.16 486.77 563.5 532.08 590.14 456.38 634.81 380.21 590.19"/><polygon class="cls-6" points="329.33 563.66 329.7 563.86 331.18 563 329.33 561.93 329.33 563.66"/><polygon class="cls-6" points="329.33 564.08 329.7 563.86 329.33 563.66 329.33 564.08"/><g id="heart_block-5" data-name="heart block"><path id="top-5" data-name="top" class="cls-6" d="M488.93,353.85l45.31,26.63-75.7,44.67-76.17-44.62,45.06-26.61,30.09,17.39.73.43.73-.43,29.94-17.46m0-1.74L458.19,370,427.35,352.2l-48,28.33,79.11,46.34,78.65-46.4-48.21-28.4Z"/><polygon id="fill-4" data-name="fill" class="cls-7" points="379.42 380.53 458.54 426.87 458.41 477.82 379.26 431.49 379.42 380.53"/><g id="lines-3" data-name="lines"><polygon class="cls-8" points="458.54 426.87 537.15 380.54 537.12 387.81 458.54 434.11 458.54 426.87"/><polygon class="cls-8" points="458.54 441.38 537.11 395.08 537.09 402.37 458.54 448.66 458.54 441.38"/><polygon class="cls-8" points="458.54 455.95 537.06 409.65 537.05 416.94 458.54 463.23 458.54 455.95"/><polygon class="cls-8" points="458.54 470.5 537.04 424.2 537.02 431.45 458.54 477.71 458.54 470.5"/></g></g><polygon class="cls-6" points="382.37 380.53 427.43 353.93 457.99 372.5 488.93 353.85 534.24 380.49 458.54 425.15 382.37 380.53"/><g id="heart_block-6" data-name="heart block"><path id="top-6" data-name="top" class="cls-6" d="M646.46,353.85l45.32,26.63-75.71,44.67-76.16-44.62L585,353.92l30.09,17.39.73.43.73-.43,29.94-17.46m0-1.74L615.73,370,584.89,352.2l-48,28.33L616,426.87l78.64-46.4-48.21-28.4Z"/><polygon id="fill-5" data-name="fill" class="cls-7" points="536.95 380.53 616.07 426.87 615.94 477.82 536.8 431.49 536.95 380.53"/></g><polygon class="cls-6" points="539.91 380.53 584.96 353.93 615.52 372.5 646.46 353.85 691.77 380.49 616.07 425.15 539.91 380.53"/><g id="heart_block-7" data-name="heart block"><path id="top-7" data-name="top" class="cls-6" d="M331.4,353.85l45.31,26.63L301,425.15l-76.16-44.62,45-26.61L300,371.31l.73.43.73-.43,29.93-17.46m0-1.74L300.66,370,269.82,352.2l-48,28.33L301,426.87l78.64-46.4-48.2-28.4Z"/><polygon id="fill-6" data-name="fill" class="cls-7" points="221.89 380.53 301 426.87 300.87 477.82 221.73 431.49 221.89 380.53"/><g id="lines-4" data-name="lines"><polygon class="cls-8" points="301 426.87 379.62 380.54 379.59 387.81 301 434.11 301 426.87"/><polygon class="cls-8" points="301 441.38 379.57 395.08 379.56 402.37 301 448.66 301 441.38"/><polygon class="cls-8" points="301 455.95 379.53 409.65 379.52 416.94 301 463.23 301 455.95"/><polygon class="cls-8" points="301 470.5 379.5 424.2 379.49 431.45 301 477.71 301 470.5"/></g></g><polygon class="cls-6" points="224.84 380.53 269.89 353.93 300.46 372.5 331.4 353.85 376.71 380.49 301 425.15 224.84 380.53"/><polygon id="fill-2-3" data-name="fill-2" class="cls-7" points="379.57 275.31 300.46 321.67 300.59 372.61 379.73 326.27 379.57 275.31"/><polygon class="cls-8" points="300.46 321.67 221.86 275.32 221.87 282.6 300.46 328.9 300.46 321.67"/><polygon class="cls-8" points="300.46 336.16 221.89 289.86 221.92 297.15 300.46 343.45 300.46 336.16"/><polygon class="cls-8" points="300.46 350.73 221.93 304.43 221.94 311.72 300.46 358.01 300.46 350.73"/><polygon class="cls-8" points="300.46 365.29 221.96 319 221.99 326.23 300.46 372.5 300.46 365.29"/><polygon class="cls-6" points="224.84 275.62 269.89 249.02 300.46 267.6 331.4 248.94 376.71 275.57 301 320.24 224.84 275.62"/><g id="heart_block-8" data-name="heart block"><path id="top-8" data-name="top" class="cls-6" d="M331.4,248.94l45.31,26.63L301,320.24l-76.16-44.62,45-26.61L300,266.4l.73.43.73-.43,29.93-17.46m0-1.74-30.72,17.9-30.84-17.81-48,28.33L301,322l78.64-46.4-48.2-28.4Z"/></g><polygon class="cls-8" points="615.52 319.51 536.93 273.16 536.94 280.44 615.52 326.74 615.52 319.51"/><polygon class="cls-8" points="615.52 334 536.95 287.7 536.98 294.99 615.52 341.29 615.52 334"/><polygon class="cls-8" points="615.52 348.57 537 302.27 537.01 309.56 615.52 355.85 615.52 348.57"/><polygon class="cls-8" points="615.52 363.12 537.03 316.84 537.05 324.07 615.52 370.34 615.52 363.12"/><polygon class="cls-6" points="539.91 272.46 584.96 245.86 615.52 264.43 646.46 245.78 691.77 272.41 616.07 317.08 539.91 272.46"/><g id="heart_block-9" data-name="heart block"><path id="top-9" data-name="top" class="cls-6" d="M646.46,245.77l45.32,26.64-75.71,44.67-76.16-44.62L585,245.85l30.09,17.39.73.43.73-.43,29.94-17.47m0-1.73-30.72,17.9-30.84-17.82-48,28.34L616,318.8l78.64-46.4L646.46,244Z"/></g><polygon id="fill-2-4" data-name="fill-2" class="cls-7" points="537.11 275.15 457.99 321.51 458.12 372.44 537.26 326.11 537.11 275.15"/><g id="lines-2-3" data-name="lines-2"><polygon class="cls-8" points="457.99 321.51 379.39 275.16 379.41 282.44 457.99 328.74 457.99 321.51"/><polygon class="cls-8" points="457.99 336 379.42 289.7 379.45 296.99 457.99 343.29 457.99 336"/><polygon class="cls-8" points="457.99 350.57 379.46 304.27 379.48 311.56 457.99 357.85 457.99 350.57"/><polygon class="cls-8" points="457.99 365.12 379.49 318.84 379.52 326.07 457.99 372.34 457.99 365.12"/></g><path id="top-2-3" data-name="top-2" class="cls-9" d="M427.61,248.46l29.94,17.47.73.43.73-.43,30.09-17.39,45,26.61L458,319.77,382.24,275.1l45.31-26.64m0-1.73-48.17,28.36L458,321.49l79.12-46.34-48-28.34-30.84,17.82-30.68-17.9Z"/><polygon class="cls-9" points="382.29 275.1 427.61 248.47 458.28 266.36 489.12 248.55 534.15 275.15 458.01 319.77 382.29 275.1"/><g id="heart_block-10" data-name="heart block"><path id="top-10" data-name="top" class="cls-6" d="M491.09,145l45.31,26.63-75.71,44.67-76.16-44.62,45.05-26.61,30.1,17.39.73.43.73-.43L491.07,145m0-1.74-30.72,17.9-30.84-17.81-48,28.33,79.11,46.34,78.64-46.4-48.2-28.4Z"/><polygon id="fill-7" data-name="fill" class="cls-7" points="381.58 171.71 460.69 218.05 460.56 269 381.42 222.67 381.58 171.71"/><g id="lines-5" data-name="lines"><polygon class="cls-8" points="460.69 218.05 539.31 171.72 539.28 178.99 460.69 225.29 460.69 218.05"/><polygon class="cls-8" points="460.69 232.56 539.26 186.26 539.25 193.55 460.69 239.84 460.69 232.56"/><polygon class="cls-8" points="460.69 247.13 539.22 200.83 539.21 208.12 460.69 254.41 460.69 247.13"/><polygon class="cls-8" points="460.69 261.69 539.19 215.38 539.18 222.63 460.69 268.89 460.69 261.69"/></g></g><polygon class="cls-6" points="384.53 171.71 429.58 145.11 460.15 163.69 491.09 145.03 536.4 171.66 460.69 216.33 384.53 171.71"/><g id="heart_block-11" data-name="heart block"><path id="top-11" data-name="top" class="cls-6" d="M648.62,142l45.31,26.63-75.7,44.67-76.17-44.62,45.06-26.61,30.09,17.39.73.43.73-.43L648.61,142m0-1.74-30.73,17.9-30.83-17.81-48,28.33,79.11,46.34,78.65-46.4-48.21-28.4Z"/><polygon id="fill-8" data-name="fill" class="cls-7" points="539.11 168.71 618.23 215.05 618.1 266 538.96 219.67 539.11 168.71"/></g><polygon class="cls-6" points="542.06 168.71 587.12 142.11 617.68 160.69 648.62 142.03 693.93 168.66 618.23 213.33 542.06 168.71"/><g id="heart_block-12" data-name="heart block"><path id="top-12" data-name="top" class="cls-6" d="M333.55,145l45.32,26.63-75.71,44.67L227,171.71l45.05-26.61,30.09,17.39.73.43.73-.43L333.54,145m0-1.74-30.72,17.9L272,143.38l-48,28.33,79.12,46.34,78.64-46.4-48.21-28.4Z"/><polygon id="fill-9" data-name="fill" class="cls-7" points="224.04 171.71 303.16 218.05 303.03 269 223.89 222.67 224.04 171.71"/><g id="lines-6" data-name="lines"><polygon class="cls-8" points="303.16 218.05 381.77 171.72 381.75 178.99 303.16 225.29 303.16 218.05"/><polygon class="cls-8" points="303.16 232.56 381.73 186.26 381.72 193.55 303.16 239.84 303.16 232.56"/><polygon class="cls-8" points="303.16 247.13 381.69 200.83 381.67 208.12 303.16 254.41 303.16 247.13"/><polygon class="cls-8" points="303.16 261.69 381.66 215.38 381.65 222.63 303.16 268.89 303.16 261.69"/></g><path id="top-13" data-name="top" class="cls-6" d="M333.55,147.67l45.32,24.92-75.71,41.8L227,172.63l45.05-24.9L302.14,164l.73.4.73-.4,29.94-16.34m0-2.63-30.72,16.75L272,145.12l-48,26.51L303.12,215l78.64-43.42L333.55,145Z"/></g><polygon class="cls-6" points="227 171.71 272.05 145.11 302.62 163.69 333.55 145.03 378.87 171.66 303.16 216.33 227 171.71"/><polygon class="cls-8" points="617.68 109.85 539.08 63.5 539.1 70.78 617.68 117.08 617.68 109.85"/><polygon class="cls-8" points="617.68 124.34 539.11 78.04 539.14 85.33 617.68 131.63 617.68 124.34"/><polygon class="cls-8" points="617.68 138.91 539.15 92.61 539.17 99.9 617.68 146.19 617.68 138.91"/><polygon class="cls-8" points="617.68 153.47 539.18 107.18 539.21 114.41 617.68 160.69 617.68 153.47"/><polygon class="cls-6" points="542.06 62.8 587.12 36.2 617.68 54.77 648.62 36.12 693.93 62.76 618.23 107.42 542.06 62.8"/><g id="heart_block-13" data-name="heart block"><path id="top-14" data-name="top" class="cls-6" d="M648.62,36.12l45.31,26.63-75.7,44.67L542.06,62.8l45.06-26.61,30.09,17.39.73.43.73-.43,29.94-17.46m0-1.74-30.73,17.9L587.05,34.47l-48,28.33,79.11,46.34,78.65-46.4-48.21-28.4Z"/></g><polygon id="fill-2-5" data-name="fill-2" class="cls-7" points="539.26 63.49 460.15 109.85 460.28 160.78 539.42 114.45 539.26 63.49"/><g id="lines-2-4" data-name="lines-2"><polygon class="cls-8" points="460.15 109.85 381.55 63.5 381.56 70.78 460.15 117.08 460.15 109.85"/><polygon class="cls-8" points="460.15 124.34 381.58 78.04 381.61 85.33 460.15 131.63 460.15 124.34"/><polygon class="cls-8" points="460.15 138.91 381.62 92.61 381.64 99.9 460.15 146.19 460.15 138.91"/><polygon class="cls-8" points="460.15 153.47 381.65 107.18 381.68 114.41 460.15 160.69 460.15 153.47"/></g><path id="top-2-4" data-name="top-2" class="cls-9" d="M429.77,36.81l29.94,17.46.73.43.73-.43,30.09-17.39,45,26.61-76.16,44.62L384.4,63.44l45.31-26.63m0-1.74L381.54,63.43l78.64,46.4,79.11-46.34-48-28.33L460.46,53l-30.68-17.9Z"/><polygon class="cls-9" points="384.44 63.45 429.77 36.81 460.44 54.7 491.27 36.89 536.31 63.49 460.16 108.11 384.44 63.45"/><g id="heart_block-14" data-name="heart block"><path id="top-15" data-name="top" class="cls-6" d="M493.25-67.63,538.56-41,462.85,3.67,386.69-40.95l45.05-26.61,30.09,17.39.74.44.73-.44,29.93-17.46m0-1.74-30.72,17.9L431.67-69.28l-48,28.33L462.81,5.39,541.45-41l-48.2-28.4Z"/><polygon id="fill-10" data-name="fill" class="cls-7" points="383.74 -40.95 462.85 5.39 462.72 56.35 383.58 10.02 383.74 -40.95"/><g id="lines-7" data-name="lines"><polygon class="cls-8" points="462.85 5.39 541.47 -40.94 541.44 -33.67 462.85 12.63 462.85 5.39"/><polygon class="cls-8" points="462.85 19.91 541.42 -26.4 541.41 -19.11 462.85 27.18 462.85 19.91"/><polygon class="cls-8" points="462.85 34.47 541.38 -11.83 541.37 -4.54 462.85 41.75 462.85 34.47"/><polygon class="cls-8" points="462.85 49.03 541.35 2.72 541.34 9.97 462.85 56.23 462.85 49.03"/></g></g><polygon class="cls-6" points="386.69 -40.95 431.74 -67.55 462.31 -48.97 493.25 -67.63 538.56 -40.99 462.85 3.67 386.69 -40.95"/><g id="heart_block-15" data-name="heart block"><path id="top-16" data-name="top" class="cls-6" d="M650.78-67.63,696.09-41,620.39,3.67,544.22-40.95l45.06-26.61,30.09,17.39.73.44.73-.44,29.94-17.46m0-1.74L620-51.47,589.2-69.28l-48,28.33L620.34,5.39,699-41l-48.21-28.4Z"/><polygon id="fill-11" data-name="fill" class="cls-7" points="541.27 -40.95 620.39 5.39 620.26 56.35 541.11 10.02 541.27 -40.95"/></g><polygon class="cls-6" points="544.22 -40.95 589.28 -67.55 619.84 -48.97 650.78 -67.63 696.09 -40.99 620.39 3.67 544.22 -40.95"/><g id="heart_block-16" data-name="heart block"><path id="top-17" data-name="top" class="cls-6" d="M335.71-67.63,381-41,305.32,3.67,229.15-40.95l45.06-26.61L304.3-50.17l.73.44.73-.44L335.7-67.63m0-1.74L305-51.47,274.14-69.28l-48,28.33L305.28,5.39,383.92-41l-48.21-28.4Z"/><polygon id="fill-12" data-name="fill" class="cls-7" points="226.2 -40.95 305.32 5.39 305.19 56.35 226.04 10.02 226.2 -40.95"/><g id="lines-8" data-name="lines"><polygon class="cls-8" points="305.32 5.39 383.93 -40.94 383.9 -33.67 305.32 12.63 305.32 5.39"/><polygon class="cls-8" points="305.32 19.91 383.89 -26.4 383.88 -19.11 305.32 27.18 305.32 19.91"/><polygon class="cls-8" points="305.32 34.47 383.85 -11.83 383.83 -4.54 305.32 41.75 305.32 34.47"/><polygon class="cls-8" points="305.32 49.03 383.82 2.72 383.8 9.97 305.32 56.23 305.32 49.03"/></g></g><polygon class="cls-6" points="229.16 -40.95 274.21 -67.55 304.77 -48.97 335.71 -67.63 381.02 -40.99 305.32 3.67 229.16 -40.95"/><g id="heart_block-17" data-name="heart block"><path id="top-18" data-name="top" class="cls-6" d="M14.17,567.83l45.31,26.64-75.7,44.66-76.17-44.62,45.06-26.61,30.09,17.39.73.44.73-.44,29.94-17.46m0-1.74L-16.57,584-47.4,566.18l-48,28.33,79.11,46.34,78.65-46.4-48.21-28.4Z"/><g id="lines-9" data-name="lines"><polygon class="cls-8" points="-16.22 640.85 62.39 594.52 62.36 601.79 -16.22 648.09 -16.22 640.85"/></g><polygon class="cls-6" points="-92.39 594.51 -47.33 567.91 -16.77 586.49 14.17 567.83 59.48 594.47 -16.22 639.13 -92.39 594.51"/></g><polygon id="fill-2-6" data-name="fill-2" class="cls-7" points="62.35 489.29 -16.77 535.65 -16.64 586.59 62.51 540.26 62.35 489.29"/><polygon class="cls-6" points="-92.39 488.6 -47.33 462 -16.77 480.58 14.17 461.92 59.48 488.56 -16.22 533.22 -92.39 488.6"/><g id="heart_block-18" data-name="heart block"><path id="top-19" data-name="top" class="cls-6" d="M14.17,461.92l45.31,26.64-75.7,44.66L-92.39,488.6-47.33,462l30.09,17.39.73.44.73-.44,29.94-17.46m0-1.74-30.73,17.9L-47.4,460.27l-48,28.33,79.11,46.34,78.65-46.4-48.21-28.4Z"/></g><g id="heart_block-19" data-name="heart block"><path id="top-20" data-name="top" class="cls-6" d="M171.7,565.67,217,592.3,141.31,637,65.15,592.35l45.05-26.61,30.09,17.39.73.43.74-.43,29.93-17.46m0-1.74L141,581.83,110.13,564l-48,28.33,79.12,46.34,78.64-46.4-48.21-28.4Z"/><polygon id="fill-13" data-name="fill" class="cls-7" points="62.2 592.35 141.31 638.69 141.18 689.64 62.04 643.31 62.2 592.35"/><g id="lines-10" data-name="lines"><polygon class="cls-8" points="141.31 638.69 219.93 592.36 219.9 599.63 141.31 645.93 141.31 638.69"/></g></g><polygon id="fill-2-7" data-name="fill-2" class="cls-7" points="219.88 487.13 140.77 533.49 140.9 584.42 220.04 538.1 219.88 487.13"/><g id="lines-2-5" data-name="lines-2"><polygon class="cls-8" points="140.77 533.49 62.17 487.14 62.18 494.42 140.77 540.72 140.77 533.49"/><polygon class="cls-8" points="140.77 547.98 62.2 501.68 62.22 508.97 140.77 555.27 140.77 547.98"/><polygon class="cls-8" points="140.77 562.55 62.24 516.25 62.25 523.54 140.77 569.83 140.77 562.55"/><polygon class="cls-8" points="140.77 577.11 62.27 530.82 62.3 538.05 140.77 584.33 140.77 577.11"/></g><path id="top-2-5" data-name="top-2" class="cls-9" d="M110.39,460.45l29.93,17.46.73.43.73-.43,30.1-17.39,45,26.61-76.17,44.62L65,487.08l45.31-26.63m0-1.74L62.15,487.07l78.64,46.4,79.12-46.34-48-28.33-30.84,17.81-30.68-17.9Z"/><polygon class="cls-9" points="65.06 487.08 110.39 460.45 141.05 478.34 171.89 460.53 216.93 487.13 140.78 531.75 65.06 487.08"/><polygon class="cls-6" points="65.15 592.35 110.2 565.75 140.77 584.33 171.71 565.67 217.02 592.3 141.31 636.97 65.15 592.35"/><polygon class="cls-6" points="14.26 565.82 14.63 566.02 16.11 565.16 14.26 564.09 14.26 565.82"/><polygon class="cls-6" points="14.26 566.24 14.63 566.02 14.26 565.82 14.26 566.24"/><g id="heart_block-20" data-name="heart block"><path id="top-21" data-name="top" class="cls-6" d="M173.86,354l45.31,26.64-75.7,44.66L67.31,380.69l45.05-26.61,30.09,17.39.73.44.73-.44L173.85,354m0-1.74-30.73,17.9-30.83-17.81-48,28.33L143.43,427l78.64-46.4-48.21-28.4Z"/><polygon id="fill-14" data-name="fill" class="cls-7" points="64.35 380.69 143.47 427.03 143.34 477.99 64.2 431.66 64.35 380.69"/><g id="lines-11" data-name="lines"><polygon class="cls-8" points="143.47 427.03 222.08 380.7 222.05 387.97 143.47 434.27 143.47 427.03"/><polygon class="cls-8" points="143.47 441.55 222.04 395.24 222.03 402.53 143.47 448.82 143.47 441.55"/><polygon class="cls-8" points="143.47 456.11 222 409.81 221.98 417.1 143.47 463.39 143.47 456.11"/><polygon class="cls-8" points="143.47 470.67 221.97 424.37 221.95 431.61 143.47 477.87 143.47 470.67"/></g></g><polygon class="cls-6" points="67.31 380.69 112.36 354.09 142.92 372.67 173.86 354.01 219.17 380.65 143.47 425.31 67.31 380.69"/><g id="heart_block-21" data-name="heart block"><path id="top-22" data-name="top" class="cls-6" d="M16.33,356l45.31,26.64-75.7,44.66-76.17-44.62,45.05-26.61,30.1,17.39.73.44.73-.44L16.31,356m0-1.74-30.72,17.9-30.84-17.81-48,28.33L-14.11,429l78.64-46.4-48.2-28.4Z"/><g id="lines-12" data-name="lines"><polygon class="cls-8" points="-14.06 429.03 64.55 382.7 64.52 389.97 -14.06 436.27 -14.06 429.03"/><polygon class="cls-8" points="-14.06 443.55 64.51 397.24 64.49 404.53 -14.06 450.82 -14.06 443.55"/><polygon class="cls-8" points="-14.06 458.11 64.46 411.81 64.45 419.1 -14.06 465.39 -14.06 458.11"/><polygon class="cls-8" points="-14.06 472.67 64.43 426.37 64.42 433.61 -14.06 479.87 -14.06 472.67"/></g></g><polygon class="cls-6" points="-90.23 382.69 -45.17 356.09 -14.61 374.67 16.33 356.01 61.64 382.65 -14.06 427.31 -90.23 382.69"/><polygon id="fill-2-8" data-name="fill-2" class="cls-7" points="64.51 277.47 -14.61 323.83 -14.48 374.77 64.66 328.44 64.51 277.47"/><polygon class="cls-6" points="-90.23 276.78 -45.17 250.18 -14.61 268.76 16.33 250.1 61.64 276.74 -14.06 321.4 -90.23 276.78"/><g id="heart_block-22" data-name="heart block"><path id="top-23" data-name="top" class="cls-6" d="M16.33,250.1l45.31,26.64-75.7,44.66-76.17-44.62,45.05-26.61,30.1,17.39.73.44.73-.44L16.31,250.1m0-1.74-30.72,17.9-30.84-17.81-48,28.33,79.11,46.34,78.64-46.4-48.2-28.4Z"/></g><polygon id="fill-2-9" data-name="fill-2" class="cls-7" points="222.04 275.31 142.92 321.67 143.05 372.61 222.2 326.27 222.04 275.31"/><g id="lines-2-6" data-name="lines-2"><polygon class="cls-8" points="142.92 321.67 64.33 275.32 64.34 282.6 142.92 328.9 142.92 321.67"/><polygon class="cls-8" points="142.92 336.16 64.35 289.86 64.38 297.15 142.92 343.45 142.92 336.16"/><polygon class="cls-8" points="142.92 350.73 64.4 304.43 64.41 311.72 142.92 358.01 142.92 350.73"/><polygon class="cls-8" points="142.92 365.29 64.42 319 64.45 326.23 142.92 372.5 142.92 365.29"/></g><path id="top-2-6" data-name="top-2" class="cls-9" d="M112.54,248.63l29.94,17.46.73.43.73-.43L174,248.7l45,26.61-76.16,44.62L67.18,275.26l45.31-26.63m0-1.74L64.31,275.25,143,321.65l79.12-46.34-48-28.33-30.84,17.81-30.68-17.9Z"/><polygon class="cls-9" points="67.22 275.26 112.55 248.63 143.21 266.52 174.05 248.71 219.09 275.31 142.94 319.93 67.22 275.26"/><g id="heart_block-23" data-name="heart block"><path id="top-24" data-name="top" class="cls-6" d="M176,145.19l45.31,26.64-75.7,44.66L69.46,171.87l45.06-26.61,30.09,17.39.73.44.73-.44L176,145.19m0-1.74-30.73,17.9-30.84-17.81-48,28.33,79.11,46.34,78.65-46.4L176,143.41Z"/><polygon id="fill-15" data-name="fill" class="cls-7" points="66.51 171.87 145.63 218.21 145.5 269.17 66.35 222.84 66.51 171.87"/><g id="lines-13" data-name="lines"><polygon class="cls-8" points="145.63 218.21 224.24 171.88 224.21 179.15 145.63 225.45 145.63 218.21"/><polygon class="cls-8" points="145.63 232.72 224.2 186.42 224.18 193.71 145.63 240 145.63 232.72"/><polygon class="cls-8" points="145.63 247.29 224.16 200.99 224.14 208.28 145.63 254.57 145.63 247.29"/><polygon class="cls-8" points="145.63 261.85 224.13 215.54 224.11 222.79 145.63 269.05 145.63 261.85"/></g></g><polygon class="cls-6" points="69.46 171.87 114.52 145.27 145.08 163.85 176.02 145.19 221.33 171.83 145.63 216.49 69.46 171.87"/><g id="heart_block-24" data-name="heart block"><path id="top-25" data-name="top" class="cls-6" d="M18.49,144.19,63.8,170.83l-75.71,44.66-76.16-44.62,45-26.61,30.1,17.39.73.44.73-.44,29.93-17.46m0-1.74-30.72,17.9-30.84-17.81-48,28.33,79.12,46.34,78.64-46.4-48.2-28.4Z"/><g id="lines-14" data-name="lines"><polygon class="cls-8" points="-11.91 217.21 66.71 170.88 66.68 178.15 -11.91 224.45 -11.91 217.21"/><polygon class="cls-8" points="-11.91 231.72 66.66 185.42 66.65 192.71 -11.91 239 -11.91 231.72"/><polygon class="cls-8" points="-11.91 246.29 66.62 199.99 66.61 207.28 -11.91 253.57 -11.91 246.29"/><polygon class="cls-8" points="-11.91 260.85 66.59 214.54 66.58 221.79 -11.91 268.05 -11.91 260.85"/></g></g><polygon class="cls-6" points="-88.07 170.87 -43.02 144.27 -12.45 162.85 18.49 144.19 63.8 170.83 -11.91 215.49 -88.07 170.87"/><polygon id="fill-2-10" data-name="fill-2" class="cls-7" points="66.66 67.81 -12.45 114.17 -12.32 165.11 66.82 118.78 66.66 67.81"/><polygon class="cls-6" points="-88.07 67.12 -43.02 40.52 -12.45 59.1 18.49 40.44 63.8 67.08 -11.91 111.74 -88.07 67.12"/><g id="heart_block-25" data-name="heart block"><path id="top-26" data-name="top" class="cls-6" d="M18.49,40.44,63.8,67.08l-75.71,44.66L-88.07,67.12l45-26.61,30.1,17.4.73.43.73-.43L18.47,40.44m0-1.74L-12.25,56.6-43.09,38.79l-48,28.33,79.12,46.35L66.69,67.06l-48.2-28.4Z"/></g><polygon id="fill-2-11" data-name="fill-2" class="cls-7" points="224.2 65.65 145.08 112.01 145.21 162.95 224.35 116.62 224.2 65.65"/><g id="lines-2-7" data-name="lines-2"><polygon class="cls-8" points="145.08 112.01 66.48 65.66 66.5 72.94 145.08 119.24 145.08 112.01"/><polygon class="cls-8" points="145.08 126.5 66.51 80.2 66.54 87.49 145.08 133.8 145.08 126.5"/><polygon class="cls-8" points="145.08 141.07 66.55 94.77 66.57 102.06 145.08 148.35 145.08 141.07"/><polygon class="cls-8" points="145.08 155.63 66.58 109.34 66.61 116.57 145.08 162.85 145.08 155.63"/></g><path id="top-2-7" data-name="top-2" class="cls-9" d="M114.7,39l29.94,17.46.73.44.73-.44L176.19,39l45,26.61-76.16,44.62L69.33,65.61,114.65,39m0-1.74L66.47,65.59,145.11,112l79.12-46.34-48-28.33L145.4,55.13l-30.68-17.9Z"/><polygon class="cls-9" points="69.38 65.61 114.7 38.97 145.37 56.87 176.21 39.05 221.25 65.65 145.1 110.27 69.38 65.61"/><g id="heart_block-26" data-name="heart block"><path id="top-27" data-name="top" class="cls-6" d="M178.18-65.47l45.31,26.64L147.78,5.83,71.62-38.79,116.67-65.4,146.77-48l.73.43.73-.43,29.93-17.47m0-1.74-30.72,17.9L116.6-67.12l-48,28.33L147.74,7.56l78.64-46.41-48.2-28.4Z"/><polygon id="fill-16" data-name="fill" class="cls-7" points="68.67 -38.79 147.78 7.55 147.66 58.51 68.51 12.18 68.67 -38.79"/><g id="lines-15" data-name="lines"><polygon class="cls-8" points="147.78 7.55 226.4 -38.77 226.37 -31.51 147.78 14.79 147.78 7.55"/><polygon class="cls-8" points="147.78 22.07 226.36 -24.24 226.34 -16.95 147.78 29.34 147.78 22.07"/><polygon class="cls-8" points="147.78 36.63 226.31 -9.67 226.3 -2.38 147.78 43.91 147.78 36.63"/><polygon class="cls-8" points="147.78 51.19 226.28 4.89 226.27 12.13 147.78 58.39 147.78 51.19"/></g></g><polygon class="cls-6" points="71.62 -38.79 116.67 -65.39 147.24 -46.81 178.18 -65.47 223.49 -38.83 147.78 5.83 71.62 -38.79"/><g id="heart_block-27" data-name="heart block"><path id="top-28" data-name="top" class="cls-6" d="M20.64-65.47,66-38.83-9.75,5.83-85.91-38.79-40.86-65.4-10.77-48l.73.43L-9.3-48,20.63-65.47m0-1.74-30.72,17.9L-40.93-67.12l-48,28.33L-9.79,7.56,68.85-38.85,20.64-67.25Z"/><g id="lines-16" data-name="lines"><polygon class="cls-8" points="-9.75 7.55 68.86 -38.77 68.84 -31.51 -9.75 14.79 -9.75 7.55"/><polygon class="cls-8" points="-9.75 22.07 68.82 -24.24 68.81 -16.95 -9.75 29.34 -9.75 22.07"/><polygon class="cls-8" points="-9.75 36.63 68.78 -9.67 68.77 -2.38 -9.75 43.91 -9.75 36.63"/><polygon class="cls-8" points="-9.75 51.19 68.75 4.89 68.74 12.13 -9.75 58.39 -9.75 51.19"/></g></g><polygon class="cls-6" points="-85.91 -38.79 -40.86 -65.39 -10.29 -46.81 20.64 -65.47 65.96 -38.83 -9.75 5.83 -85.91 -38.79"/></g></g><path class="cls-3" d="M160.55,407.77l5.68,6.9c4.85,5.89,3.58,11.67-1.74,16.05s-11.19,4.43-16-1.44l-5.68-6.89Zm-.29,5.71-11.81,9.72,3,3.66c3,3.64,6.41,3.88,10.3.68s4.57-6.68,1.4-10.54Z"/><path class="cls-3" d="M180.36,430.2,192,440.49l-2.51,2.83L181,435.83l-4.08,4.61,7.65,6.79-2.32,2.62-7.65-6.79-3.88,4.37,8.6,7.63-2.46,2.78-11.76-10.43Z"/><path class="cls-3" d="M193.63,470.32a16.82,16.82,0,0,1-6.09-6.16l2.21-3.37a21,21,0,0,0,6.1,6.34c2.53,1.66,4.07,1.29,5-.15s.5-2.81-2.11-5.56c-4.06-4.13-4.8-7-2.77-10.14s6-3.84,10.63-.78a15.28,15.28,0,0,1,5.26,5.45l-2.15,3.28a17,17,0,0,0-5.31-5.61c-2.21-1.45-4-1.51-4.95,0s-.23,2.73,2.32,5.45c3.84,3.94,4.89,6.84,2.72,10.15C202.22,472.68,198.63,473.6,193.63,470.32Z"/><path class="cls-3" d="M226.44,462.11l-10.22,20.6-3.77-1.87,10.21-20.6Z"/><path class="cls-3" d="M239.84,492.66c-7.62-2.59-10.16-8.56-7.92-15.15,2.41-7.1,8.5-9.72,16.39-7a18.41,18.41,0,0,1,5.72,3l-1.24,3.65a16,16,0,0,0-5.5-3.05c-6.09-2.07-9.79,0-11.38,4.63s.12,8.62,5.92,10.59a14.72,14.72,0,0,0,3.21.72l1.81-5.34L241.79,483l1.12-3.31,8.79,3-3.74,11C245.84,494.14,242.38,493.52,239.84,492.66Z"/><path class="cls-3" d="M285.32,478.89l-3.55,22.72-4.34-.67L272,488l-2.51-7.16-2.87,18.4-4-.62,3.54-22.73,5.56.87,4.75,11.29,2.27,6.67,2.57-16.47Z"/><path class="cls-3" d="M317.81,502.35a16.85,16.85,0,0,1-8.58-1.21l-.29-4a21,21,0,0,0,8.69,1.35c3-.22,4-1.45,3.9-3.16s-1.31-2.54-5.06-3.15c-5.73-.81-8.08-2.68-8.35-6.38s2.41-6.67,8-7.07a15.33,15.33,0,0,1,7.48,1.15l.28,3.91a17.12,17.12,0,0,0-7.63-1.24c-2.63.19-4.07,1.2-3.94,3,.11,1.6,1.47,2.31,5.14,2.92,5.45.81,8,2.48,8.32,6.43C326.06,499,323.77,501.92,317.81,502.35Z"/><path class="cls-3" d="M344.91,498.2l-1.64-7.42-12-13.11,4.67-1,8.73,10.47,3.49-13.18,4.63-1-5.37,17.17,1.6,7.21Z"/><path class="cls-3" d="M375.46,489.55a16.87,16.87,0,0,1-8.56,1.32l-1.44-3.76a21.11,21.11,0,0,0,8.72-1.23c2.82-1.08,3.43-2.55,2.82-4.15s-2-2.05-5.75-1.55c-5.73.88-8.52-.23-9.85-3.69s.39-7.08,5.61-9.08a15.41,15.41,0,0,1,7.5-1.07l1.4,3.67a17,17,0,0,0-7.67,1c-2.46.94-3.55,2.33-2.92,4s2.08,1.8,5.78,1.32c5.45-.81,8.41,0,9.82,3.74C382.41,484,381.05,487.41,375.46,489.55Z"/><path class="cls-3" d="M397,453.25l1.82,3.31L393,459.71l9.27,16.83-3.69,2-9.27-16.83-5.73,3.16-1.83-3.31Z"/><path class="cls-3" d="M404.42,448.32l12.4-9.31,2.27,3-9,6.78,3.7,4.92,8.18-6.14,2.1,2.8-8.18,6.14,3.51,4.68,9.2-6.91,2.22,3-12.56,9.45Z"/><path class="cls-3" d="M429.77,431l14.94,13.84L442,447.8l-16.87-15.63L430,427l11.56,4.63,6.29,3.09-3.57-6-5.46-11.2,4.5-4.85,16.86,15.63-2.82,3-14.73-13.65,4.49,7.66,5.41,11.2-2.75,3-11.53-4.6Z"/><path class="cls-10" d="M129.77,375.18a188.24,188.24,0,0,1,29.49-194.35"/><path class="cls-10" d="M447.72,182a188.24,188.24,0,0,1,28.71,192.7"/><path class="cls-2" d="M271.52,292.62a4,4,0,0,0-6.77.75L230.45,362a4.1,4.1,0,0,0,1.74,5.52,4.2,4.2,0,0,0,1.93.47H281.9a4,4,0,0,0,3.67-2.27C295.88,344.35,289.62,312,271.52,292.62Z"/><path class="cls-2" d="M296.71,230.21a90.48,90.48,0,0,0-5.18,89.36l22.94,46.08a4.09,4.09,0,0,0,3.67,2.34h47.77a4.09,4.09,0,0,0,4.1-4.09,4,4,0,0,0-.42-1.83l-65.9-131.89a3.89,3.89,0,0,0-5.2-1.77A3.84,3.84,0,0,0,296.71,230.21Z"/><path class="cls-11" d="M271.52,292.62a4,4,0,0,0-6.77.75L230.45,362a4.1,4.1,0,0,0,1.74,5.52,4.2,4.2,0,0,0,1.93.47H281.9a4,4,0,0,0,3.67-2.27C295.88,344.35,289.62,312,271.52,292.62Z"/><path class="cls-3" d="M296.71,230.21a90.48,90.48,0,0,0-5.18,89.36l22.94,46.08a4.09,4.09,0,0,0,3.67,2.34h47.77a4.09,4.09,0,0,0,4.1-4.09,4,4,0,0,0-.42-1.83l-65.9-131.89a3.89,3.89,0,0,0-5.2-1.77A3.84,3.84,0,0,0,296.71,230.21Z"/></svg>