<svg xmlns="http://www.w3.org/2000/svg" width="16" height="16">
  <path fill="#2784FF" fill-rule="evenodd" d="M14 16H2a2 2 0 01-2-2V2C0 .9.9 0 2 0h9l5 5v9a2 2 0 01-2 2zM11 5H5v6h6V5z" clip-rule="evenodd"></path>
  <path fill="url(#1)" fill-rule="evenodd" d="M14 16H2a2 2 0 01-2-2V2C0 .9.9 0 2 0h9l5 5v9a2 2 0 01-2 2zM11 5H5v6h6V5z" clip-rule="evenodd"></path>
  <path fill="#2684FF" d="M13 5h3l-5-5v3c0 1.1.9 2 2 2z"></path>
  <defs>
    <linearGradient id="1" x1="12.2" x2="3.7" y1="-.2" y2="7.6" gradientUnits="userSpaceOnUse">
      <stop stop-color="#091E42" stop-opacity=".4"></stop>
      <stop offset="1" stop-color="#091E42" stop-opacity="0"></stop>
    </linearGradient>
  </defs>
</svg>
