<svg xmlns="http://www.w3.org/2000/svg" width="85" height="24">
  <path fill="#253858" d="M33 15.7c-1 .5-2 .8-3.4.8-3.1 0-5-2-5-5s1.8-5.1 5-5.1a6 6 0 013.4 1V5.5a6 6 0 00-3.5-1c-4.3 0-6.7 2.9-6.7 6.9 0 4.1 2.4 6.7 6.8 6.7 1.3 0 2.6-.2 3.4-.8v-1.7zm3-2.7c0-2.3 1-3.6 3-3.6 1.4 0 2.7 1 2.7 3.2v.8c0 2.2-1.4 3.2-3 3.2-1.7 0-2.7-1.2-2.7-3.6zm5.7 5h1.7V8h-1.7v1.8c-.6-1.3-1.7-2-3.2-2-2.8 0-4.2 2.4-4.2 5.2 0 3 1.3 5.2 4 5.2 1.5 0 2.7-.7 3.4-2V18zm12.8-5.9c0-2.7-1.3-4.3-3.6-4.3-1.4 0-2.5.7-3.2 1.8V8H46v10h1.7v-5.6c0-2 1.1-3 2.7-3 1.7 0 2.4.8 2.4 2.6v6h1.7v-5.9zM62 18l3.8-10H64l-3.2 8.5L57.6 8h-1.8l3.9 10H62zm6-5c0-2.3 1-3.6 3-3.6 1.5 0 2.7 1 2.7 3.2v.8c0 2.2-1.4 3.2-3 3.2-1.7 0-2.6-1.2-2.6-3.6zm5.7 5h1.7V8h-1.7v1.8c-.6-1.3-1.7-2-3.2-2-2.8 0-4.2 2.4-4.2 5.2 0 3 1.4 5.2 4 5.2 1.6 0 2.8-.7 3.4-2V18zM85 15.3c0-1.8-1-2.6-3.3-3.1-1.9-.5-2.3-.9-2.3-1.6 0-.8.6-1.2 2-1.2 1 0 2 .3 3.1.9V8.5c-.7-.4-1.9-.7-3.2-.7-2.3 0-3.6 1-3.6 2.8 0 1.6 1 2.5 3.2 3 1.9.5 2.4 1 2.4 1.7 0 .8-.6 1.3-2 1.3-1.2 0-2.7-.5-3.5-1v1.9c.7.4 2 .7 3.5.7 2.6 0 3.7-1.3 3.7-3z"></path>
  <path fill="#2784FF" fill-rule="evenodd" d="M14 16H2a2 2 0 01-2-2V2C0 .9.9 0 2 0h9l5 5v9a2 2 0 01-2 2zM11 5H5v6h6V5z" clip-rule="evenodd" transform="translate(0 4)"></path>
  <path fill="url(#1)" fill-rule="evenodd" d="M14 16H2a2 2 0 01-2-2V2C0 .9.9 0 2 0h9l5 5v9a2 2 0 01-2 2zM11 5H5v6h6V5z" clip-rule="evenodd" transform="translate(0 4)"></path>
  <path fill="#2684FF" d="M13 5h3l-5-5v3c0 1.1.9 2 2 2z" transform="translate(0 4)"></path>
  <defs>
    <linearGradient id="1" x1="12.2" x2="3.7" y1="-.2" y2="7.6" gradientUnits="userSpaceOnUse">
      <stop stop-color="#091E42" stop-opacity=".4"></stop>
      <stop offset="1" stop-color="#091E42" stop-opacity="0"></stop>
    </linearGradient>
  </defs>
</svg>
