<svg height="16" viewBox="0 0 16 16" width="16" xmlns="http://www.w3.org/2000/svg"><g fill="none" transform="translate(1 1)"><rect fill="#2684ff" height="14" rx="2" width="14"/><path d="m6.10091726 5.3617952c.24011741 1.16301863-.4879878 2.71608521-2.18431562 4.6591998-.19276246.2208118-.5280309.2435459-.74884022.0507806-.03010267-.0262794-.05714113-.0558745-.08060131-.08822265-.22107609-.30483127-.2000819-.72246878.05044953-1.0035928.35040502-.39318455.64688128-.76210441.8894291-1.10675931-.02969763.00119561-.0595477.00179916-.08953874.00179916-1.20812289 0-2.1875-.97937711-2.1875-2.1875s.97937711-2.1875 2.1875-2.1875c1.09744235 0 2.00613152.80814848 2.16341726 1.8617952zm6.12500004 0c.2401174 1.16301863-.4879879 2.71608521-2.1843156 4.6591998-.19276252.2208118-.52803094.2435459-.74884025.0507806-.03010271-.0262794-.05714117-.0558745-.08060132-.08822265-.2210761-.30483127-.20008197-.72246878.05044952-1.0035928.35040504-.39318455.64688129-.76210441.88942915-1.10675931-.0296977.00119561-.0595477.00179916-.0895388.00179916-1.20812291 0-2.1875-.97937711-2.1875-2.1875s.97937709-2.1875 2.1875-2.1875c1.0974423 0 2.0061315.80814848 2.1634173 1.8617952z" fill="#fff"/></g></svg>