<svg width="20" height="20" viewBox="0 0 20 20" fill="none" xmlns="http://www.w3.org/2000/svg">
    <path d="M10 18C12.1217 18 14.1566 17.1571 15.6569 15.6569C17.1571 14.1566 18 12.1217 18 10C18 7.87827 17.1571 5.84344 15.6569 4.34315C14.1566 2.84285 12.1217 2 10 2C7.87827 2 5.84344 2.84285 4.34315 4.34315C2.84285 5.84344 2 7.87827 2 10C2 12.1217 2.84285 14.1566 4.34315 15.6569C5.84344 17.1571 7.87827 18 10 18ZM10 20C4.477 20 0 15.523 0 10C0 4.477 4.477 0 10 0C15.523 0 20 4.477 20 10C20 15.523 15.523 20 10 20Z" fill="#0052CC"/>
    <path fill-rule="evenodd" clip-rule="evenodd" d="M7.707 9.293C7.61475 9.19749 7.50441 9.12131 7.3824 9.0689C7.2604 9.01649 7.12918 8.9889 6.9964 8.98775C6.86362 8.9866 6.73194 9.0119 6.60905 9.06218C6.48615 9.11246 6.3745 9.18671 6.28061 9.28061C6.18671 9.3745 6.11246 9.48615 6.06218 9.60905C6.0119 9.73194 5.9866 9.86362 5.98775 9.9964C5.9889 10.1292 6.01649 10.2604 6.0689 10.3824C6.12131 10.5044 6.19749 10.6148 6.293 10.707L8.293 12.707C8.48053 12.8945 8.73484 12.9998 9 12.9998C9.26516 12.9998 9.51947 12.8945 9.707 12.707L13.707 8.707C13.8025 8.61475 13.8787 8.50441 13.9311 8.3824C13.9835 8.2604 14.0111 8.12918 14.0123 7.9964C14.0134 7.86362 13.9881 7.73194 13.9378 7.60905C13.8875 7.48615 13.8133 7.3745 13.7194 7.2806C13.6255 7.18671 13.5139 7.11246 13.391 7.06218C13.2681 7.0119 13.1364 6.98659 13.0036 6.98775C12.8708 6.9889 12.7396 7.01649 12.6176 7.0689C12.4956 7.12131 12.3852 7.19749 12.293 7.293L9 10.586L7.707 9.293Z" fill="#0052CC"/>
</svg>
