<svg xmlns="http://www.w3.org/2000/svg" width="569" height="242" viewBox="0 0 569 242">
<defs>
<linearGradient id="confluence-primer-a" x1="100.003%" x2="0%" y1="49.998%" y2="49.998%">
<stop offset="0%" stop-color="#C1C7D0"/>
<stop offset="100%" stop-color="#C1C7D0" stop-opacity="0"/>
</linearGradient>
<linearGradient id="confluence-primer-b" x1=".003%" x2="99.999%" y1="49.998%" y2="49.998%">
<stop offset="0%" stop-color="#0065FF"/>
<stop offset="17.24%" stop-color="#076AFF" stop-opacity=".801"/>
<stop offset="41.45%" stop-color="#1976FF" stop-opacity=".521"/>
<stop offset="69.66%" stop-color="#378BFF" stop-opacity=".195"/>
<stop offset="86.51%" stop-color="#4C9AFF" stop-opacity="0"/>
</linearGradient>
<radialGradient id="confluence-primer-c" cx="50%" cy="50.001%" r="49.999%" fx="50%" fy="50.001%" gradientTransform="matrix(1 0 0 .93717 0 .031)">
<stop offset="0%" stop-color="#FFF0B2"/>
<stop offset="15.84%" stop-color="#FFE587" stop-opacity=".842"/>
<stop offset="35.89%" stop-color="#FFDA57" stop-opacity=".641"/>
<stop offset="54.98%" stop-color="#FFD031" stop-opacity=".45"/>
<stop offset="72.56%" stop-color="#FFC916" stop-opacity=".274"/>
<stop offset="88.11%" stop-color="#FFC506" stop-opacity=".119"/>
<stop offset="100%" stop-color="#FFC400" stop-opacity="0"/>
</radialGradient>
<linearGradient id="confluence-primer-d" x1=".006%" x2="100.005%" y1="50.011%" y2="50.011%">
<stop offset="0%" stop-color="#0052CC"/>
<stop offset="100%" stop-color="#2684FF"/>
</linearGradient>
<linearGradient id="confluence-primer-e" x1="-.009%" x2="100.005%" y1="50.066%" y2="50.066%">
<stop offset="0%" stop-color="#7A869A"/>
<stop offset="100%" stop-color="#DFE1E5"/>
</linearGradient>
<linearGradient id="confluence-primer-f" x1="-.009%" x2="100.005%" y1="50.024%" y2="50.024%">
<stop offset="0%" stop-color="#7A869A"/>
<stop offset="100%" stop-color="#DFE1E5"/>
</linearGradient>
<linearGradient id="confluence-primer-g" x1="50.02%" x2="50.02%" y1="100.004%" y2=".002%">
<stop offset="0%" stop-color="#2684FF"/>
<stop offset="100%" stop-color="#B2D4FF"/>
</linearGradient>
<linearGradient id="confluence-primer-h" x1="100.005%" x2=".005%" y1="50.011%" y2="50.011%">
<stop offset="0%" stop-color="#FFF"/>
<stop offset="100%" stop-color="#EBECF0"/>
</linearGradient>
<linearGradient id="confluence-primer-i" x1="49.975%" x2="49.975%" y1="100.004%" y2=".002%">
<stop offset="0%" stop-color="#C1C7D0"/>
<stop offset="100%" stop-color="#F4F5F7"/>
</linearGradient>
<linearGradient id="confluence-primer-j" x1="42.787%" x2="55.683%" y1="44.292%" y2="53.173%">
<stop offset="0%" stop-color="#4C9AFF"/>
<stop offset="81.34%" stop-color="#0065FF"/>
<stop offset="87.13%" stop-color="#0065FF"/>
</linearGradient>
<linearGradient id="confluence-primer-k" x1="-.004%" x2="100.005%" y1="50.019%" y2="50.019%">
<stop offset="0%" stop-color="#B2D4FF"/>
<stop offset="100%" stop-color="#2684FF"/>
</linearGradient>
<linearGradient id="confluence-primer-l" x1="50.016%" x2="50.016%" y1="100.027%" y2=".001%">
<stop offset="0%" stop-color="#FFF0B2"/>
<stop offset="100%" stop-color="#FFC400"/>
</linearGradient>
<linearGradient id="confluence-primer-m" x1="-.049%" x2="99.944%" y1="50.004%" y2="50.004%">
<stop offset="0%" stop-color="#FFC400"/>
<stop offset="100%" stop-color="#FFF0B2"/>
</linearGradient>
<linearGradient id="confluence-primer-n" x1="40.637%" x2="59.666%" y1="25.813%" y2="73.902%">
<stop offset="0%" stop-color="#FFC400"/>
<stop offset="100%" stop-color="#FFF0B2"/>
</linearGradient>
<linearGradient id="confluence-primer-o" x1="50.043%" x2="50.043%" y1="99.989%" y2="-.023%">
<stop offset="0%" stop-color="#FFC400"/>
<stop offset="100%" stop-color="#FFF0B2"/>
</linearGradient>
<linearGradient id="confluence-primer-p" x1="50.013%" x2="50.013%" y1="99.991%" y2=".031%">
<stop offset="0%" stop-color="#FFC400"/>
<stop offset="100%" stop-color="#FFF0B2"/>
</linearGradient>
<linearGradient id="confluence-primer-q" x1=".041%" x2="100.016%" y1="50.001%" y2="50.001%">
<stop offset="34.35%" stop-color="#6554C0"/>
<stop offset="100%" stop-color="#998DD9"/>
</linearGradient>
<linearGradient id="confluence-primer-r" x1=".005%" x2="99.996%" y1="50.026%" y2="50.026%">
<stop offset="0%" stop-color="#5243AA"/>
<stop offset="100%" stop-color="#8777D9"/>
</linearGradient>
<linearGradient id="confluence-primer-s" x1="99.052%" x2="31.854%" y1="67.773%" y2="48.473%">
<stop offset="0%" stop-color="#FFF" stop-opacity=".48"/>
<stop offset="100%" stop-color="#FFF"/>
</linearGradient>
<linearGradient id="confluence-primer-t" x1=".867%" x2="68.105%" y1="32.223%" y2="51.529%">
<stop offset="0%" stop-color="#FFF" stop-opacity=".5"/>
<stop offset="100%" stop-color="#FFF"/>
</linearGradient>
</defs>
<g fill="none" fill-rule="evenodd" transform="translate(-27 -8)">
<rect width="570" height="242.697" x="27" y="8" fill="#0052CC" fill-rule="nonzero"/>
<rect width="624.12" height="313.93" y=".921" fill="#FFF" fill-opacity=".01" fill-rule="nonzero"/>
<path stroke="url(#confluence-primer-a)" stroke-width="4.468" d="M156.196,117.052 C121.4747,117.052 93.3169,147.086 93.3169,184.147 L93.3169,244.486 C93.3169,281.535 65.1702,311.58 30.43786,311.58 L0,311.58"/>
<path fill="#D4B696" fill-rule="nonzero" d="M464.083,147.24 L461.991,144.322 L461.172,137.449 L461.028,133.528 L463.264,133.528 L465.743,136.658 C466.319,137.39 466.806,138.205 467.16,139.09 C467.658,140.319 467.924,141.653 467.924,143 L467.924,145.811 L464.083,147.24 Z"/>
<path fill="#A27F68" fill-rule="nonzero" d="M176.827,132.441 L175.09,125.036 C175.09,124.575 175.433,124.186 175.864,124.162 C176.196,124.481 176.573,124.764 176.827,124.634 C177.038,124.528 176.971,124.221 177.204,124.068 C177.613,123.796 178.377,124.363 178.609,124.54 C178.941,124.788 179.163,125.048 179.296,125.225 L180.347,125.627 C180.712,125.768 180.989,126.099 181.089,126.512 L182.406,127.563 C183.003,127.658 183.247,130.233 183.269,130.315 L182.815,133.61 C182.848,133.74 182.848,133.882 182.826,134.024 C182.727,134.543 182.218,134.85 181.742,134.661 L177.336,132.973 C177.093,132.89 176.905,132.689 176.827,132.441 Z"/>
<path fill="#A27F68" fill-rule="nonzero" d="M182.472,138.406 C183.789,137.91 186.955,142.433 183.623,133.74 C183.424,133.209 183.015,130.847 180.989,129.512 C178.864,128.119 177.148,129.819 175.333,128.249 C174.348,127.398 174.326,126.442 173.064,125.887 C172.19,125.497 171.016,125.438 170.806,125.887 C170.563,126.394 171.736,127.162 173.374,129.371 C174.99,131.556 174.636,131.898 176.086,133.54 C176.683,134.213 177.115,134.567 178.41,136.032 C179.085,136.799 179.141,136.882 179.417,137.118 C180.026,137.638 181.41,138.807 182.472,138.406 Z"/>
<path fill="#403294" fill-rule="nonzero" d="M181.487,207.071 C178.454,205.17 178.698,200.351 179.163,193.572 C180.347,176.187 183.136,169.809 183.502,160.881 C183.745,154.917 182.959,146.283 177.945,135.548 C180.259,135.288 182.561,135.028 184.874,134.756 C189.213,146.023 191.161,155.708 192.135,162.629 C193.386,171.557 193.496,179.624 193.507,182.683 C193.541,195.272 191.936,200.587 193.142,205.122 C193.197,205.347 193.452,206.079 193.109,206.752 C191.958,209.008 184.885,209.197 181.487,207.071 Z"/>
<path stroke="url(#confluence-primer-b)" stroke-width="4.468" d="M467.913,117.052 C502.634,117.052 530.792,147.086 530.792,184.147 L530.792,244.486 C530.792,281.535 558.939,311.58 593.671,311.58 L624.12,311.58"/>
<path fill="#B3BAC5" fill-rule="nonzero" d="M147.009,127.635 C145.028,127.635 143.423,125.922 143.423,123.808 L143.423,110.332 C143.423,108.218 145.028,106.5059 147.009,106.5059 C148.99,106.5059 150.595,108.218 150.595,110.332 L150.595,123.82 C150.584,125.922 148.99,127.635 147.009,127.635 Z"/>
<path fill="#B3BAC5" fill-rule="nonzero" d="M154.171,127.635 C152.189,127.635 150.584,125.922 150.584,123.808 L150.584,110.332 C150.584,108.218 152.189,106.5059 154.171,106.5059 C156.152,106.5059 157.757,108.218 157.757,110.332 L157.757,123.82 C157.757,125.922 156.152,127.635 154.171,127.635 Z"/>
<path fill="#4C9AFF" fill-rule="nonzero" d="M469.451,127.635 C467.47,127.635 465.865,125.922 465.865,123.808 L465.865,110.332 C465.865,108.218 467.47,106.5059 469.451,106.5059 C471.433,106.5059 473.038,108.218 473.038,110.332 L473.038,123.82 C473.038,125.922 471.433,127.635 469.451,127.635 Z"/>
<path fill="#4C9AFF" fill-rule="nonzero" d="M476.612,127.635 C474.631,127.635 473.026,125.922 473.026,123.808 L473.026,110.332 C473.026,108.218 474.631,106.5059 476.612,106.5059 C478.594,106.5059 480.199,108.218 480.199,110.332 L480.199,123.82 C480.199,125.922 478.594,127.635 476.612,127.635 Z"/>
<path fill="url(#confluence-primer-c)" fill-rule="nonzero" d="M314.484,231.258 C373.485,231.258 421.315,180.222 421.315,117.265 C421.315,54.308 373.485,3.27148 314.484,3.27148 C255.483,3.27148 207.653,54.308 207.653,117.265 C207.653,180.222 255.483,231.258 314.484,231.258 Z" opacity=".38"/>
<path fill="url(#confluence-primer-d)" fill-rule="nonzero" d="M382.078,166.703 L421.371,166.703 C447.071,166.703 467.913,144.476 467.913,117.04 C467.913,89.6168 447.082,67.3779 421.371,67.3779 L382.078,67.3779 L382.078,166.703 Z"/>
<polygon fill="url(#confluence-primer-e)" fill-rule="nonzero" points="261.456 145.893 304.976 145.893 304.976 138.287 261.456 138.287"/>
<polygon fill="url(#confluence-primer-f)" fill-rule="nonzero" points="261.456 92.711 304.976 92.711 304.976 85.106 261.456 85.106"/>
<path fill="url(#confluence-primer-g)" fill-rule="nonzero" d="M359.709,173.446 L375.481,173.446 C379.123,173.446 382.078,170.293 382.078,166.408 L382.078,68.122 C382.078,64.2364 379.123,61.083 375.481,61.083 L359.709,61.083 L359.709,173.446 Z"/>
<path fill="url(#confluence-primer-h)" fill-rule="nonzero" d="M242.031,166.703 L202.738,166.703 C177.038,166.703 156.196,144.476 156.196,117.04 C156.196,89.6168 177.027,67.3779 202.738,67.3779 L242.031,67.3779 L242.031,166.703 Z"/>
<path fill="url(#confluence-primer-i)" fill-rule="nonzero" d="M264.411,173.446 L248.638,173.446 C244.997,173.446 242.042,170.293 242.042,166.408 L242.042,68.122 C242.042,64.2364 244.997,61.083 248.638,61.083 L264.411,61.083 L264.411,173.446 Z"/>
<path fill="#D4B696" fill-rule="nonzero" d="M418.759,173.435 C418.426,172.75 417.862,171.781 416.932,170.86 C415.515,169.466 413.999,168.923 413.191,168.711 C412.992,168.545 412.737,168.356 412.416,168.179 C412.14,168.025 411.852,167.907 411.553,167.825 L409.262,167.14 C408.886,167.033 408.642,166.644 408.686,166.23 C408.731,165.77 409.129,165.427 409.561,165.486 L418.991,166.608 C420.153,166.75 421.249,166.006 421.614,164.825 L421.858,164.069 C422.002,163.632 422.4,163.349 422.843,163.408 C423.297,163.467 423.64,163.856 423.662,164.329 L423.75,165.959 C423.905,168.817 423.341,171.675 422.134,174.226 L418.759,173.435 Z"/>
<path fill="#0065FF" fill-rule="nonzero" d="M473.082,219.979 C474.299,222.436 475.484,225.046 476.601,227.798 C481.339,239.407 483.729,250.438 484.881,259.875 C486.076,263.205 487.227,266.689 488.312,270.351 C491.422,280.815 493.392,290.664 494.621,299.593 C492.828,300.148 491.035,300.703 489.23,301.258 C487.371,295.873 484.416,287.405 480.608,276.953 C475.816,263.784 473.414,257.194 473.314,256.958 C466.596,240.329 462.943,235.723 464.703,229.416 C465.334,227.243 467.049,223.452 473.082,219.979 Z"/>
<path fill="url(#confluence-primer-j)" fill-rule="nonzero" d="M455.848,224.172 C452.472,235.533 449.097,246.907 445.721,258.268 C442.699,272.145 439.666,286.022 436.645,299.9 C439.888,300.833 438.692,300.49 441.935,301.411 C445.178,293.014 448.344,284.121 451.355,274.744 C452.882,269.972 454.31,265.272 455.627,260.666 C458.084,255.469 460.807,251.914 462.855,249.623 C467.979,243.895 472.307,242.23 475.284,235.911 C477.531,231.152 476.79,228.447 476.59,227.798 C476.435,227.302 476.026,226.392 475.207,224.585 C474.377,222.731 473.657,221.219 473.181,220.215 C471.156,221.042 468.865,221.833 466.319,222.495 C462.434,223.522 458.881,223.983 455.848,224.172 Z"/>
<path fill="url(#confluence-primer-k)" fill-rule="nonzero" d="M446.241,197.41 C455.195,193.961 461.538,190.973 461.936,190.631 C462.301,190.312 462.667,189.981 462.667,189.981 C462.777,189.887 462.888,189.78 463.01,189.662 C465.921,186.91 472.517,179.623 472.495,168.439 C472.462,155.802 464.116,148.173 462.921,147.11 C464.814,146.177 466.695,145.244 468.588,144.311 C470.946,146.732 478.029,154.609 479.169,166.856 C480.199,177.793 475.915,186.249 473.989,190.064 C472.052,193.902 469.927,196.784 468.356,198.697 C468.245,201.213 468.334,204.342 468.953,207.862 C469.983,213.708 472.064,218.208 473.713,221.125 C467.337,223.239 460.951,225.353 454.576,227.467 C456.203,223.688 455.915,221.302 455.328,219.826 C454.022,216.507 450.558,215.893 449.274,211.877 C448.754,210.259 448.809,208.783 448.92,207.815 C446.496,208.051 436.246,208.724 427.314,201.095 C414.464,190.111 416.312,172.159 416.445,171.061 C418.736,171.64 421.039,172.218 423.33,172.797 C422.998,174.805 423.285,180.615 424.448,184.147 C427.68,193.997 437.995,200.043 446.241,197.41 Z"/>
<path fill="#D4B696" fill-rule="nonzero" d="M448.986,179.848 C449.152,179.907 449.407,179.966 449.794,180.037 C450.857,180.226 451.554,180.509 451.997,180.852 C453.159,181.714 452.395,183.391 453.402,185.824 C453.502,186.072 453.812,186.769 453.978,187.772 C454.055,188.28 454.078,188.658 454.078,188.741 C454.111,189.532 454.587,191.15 456.28,194.658 C455.915,194.552 455.561,194.445 455.195,194.339 C454.133,193.902 453.059,193.465 451.997,193.028 C449.695,191.386 449.185,191.138 449.185,189.969 C449.174,188.576 449.163,186.131 449.097,186.036 C448.355,185.269 447.392,185.127 448.123,184.182 C448.543,183.651 448.864,183.261 448.975,183.155 C449.318,182.824 449.562,181.997 448.986,179.848 Z"/>
<path fill="#172B4D" fill-rule="nonzero" d="M451.919,180.793 C451.698,184.005 451.753,189.119 453.679,194.835 C453.723,194.977 453.779,195.13 453.834,195.272 C455.871,201.035 462.324,203.622 467.271,200.445 C467.437,200.339 467.614,200.22 467.78,200.102 C467.813,200.079 467.836,200.055 467.869,200.043 C470.89,197.835 471.3,193.264 468.854,190.359 C467.205,188.41 466.12,186.544 465.378,184.985 C463.087,180.167 463.408,176.777 460.364,174.887 C458.051,173.446 455.074,173.683 454.089,173.754 C452.185,173.907 451.299,174.427 450.879,174.757 C449.894,175.549 449.363,176.458 449.119,176.954 C448.532,178.123 448.389,179.21 448.344,179.836 C448.776,179.859 449.274,179.93 449.805,180.048 C450.646,180.237 451.366,180.521 451.919,180.793 Z"/>
<path fill="url(#confluence-primer-l)" fill-rule="nonzero" d="M328.873,29.0774 L324.246,1.4294 C324.135,0.77983 323.283,0.7444 323.117,1.37035 L316.476,26.2429 L311.086,24.6013 C310.676,24.4714 310.278,24.8493 310.355,25.2981 L314.982,52.9461 C315.093,53.5956 315.945,53.6311 316.111,53.0051 L322.752,28.1326 L328.142,29.7742 C328.552,29.9159 328.95,29.5262 328.873,29.0774 Z"/>
<path fill="url(#confluence-primer-m)" fill-rule="nonzero" d="M299.243,41.0059 L289.724,31.3569 C289.525,31.1561 289.215,31.3805 289.315,31.6521 L293.521,43.7105 L290.897,44.7498 C290.72,44.8206 290.676,45.0569 290.809,45.1986 L300.328,54.8476 C300.527,55.0484 300.837,54.824 300.737,54.5524 L296.531,42.494 L299.154,41.4547 C299.331,41.3956 299.376,41.1476 299.243,41.0059 Z"/>
<path fill="url(#confluence-primer-n)" fill-rule="nonzero" d="M351.079,47.7226 L355.274,33.8563 C355.361,33.5667 354.997,33.3847 354.795,33.6152 L345.704,43.6431 L343.426,41.6726 C343.272,41.5399 343.03,41.6161 342.965,41.8131 L338.77,55.6795 C338.683,55.9691 339.047,56.151 339.249,55.9205 L348.34,45.8927 L350.618,47.8632 C350.761,48.0018 351.014,47.9197 351.079,47.7226 Z"/>
<path fill="url(#confluence-primer-o)" fill-rule="nonzero" d="M278.169,185.434 L274.229,213.212 C274.14,213.862 274.926,214.192 275.28,213.661 L289.049,192.379 L293.653,195.78 C294.008,196.04 294.495,195.815 294.55,195.367 L298.49,167.589 C298.579,166.939 297.793,166.609 297.439,167.14 L283.67,188.422 L279.065,185.021 C278.722,184.761 278.235,184.985 278.169,185.434 Z"/>
<path fill="url(#confluence-primer-p)" fill-rule="nonzero" d="M309.824,190.453 L315.934,202.854 C316.056,203.114 316.421,203.008 316.41,202.724 L316.056,189.863 L318.856,189.768 C319.044,189.757 319.166,189.544 319.077,189.367 L312.968,176.966 C312.846,176.706 312.481,176.813 312.492,177.096 L312.846,189.957 L310.046,190.04 C309.858,190.064 309.736,190.276 309.824,190.453 Z"/>
<path fill="#A27F68" fill-rule="nonzero" d="M231.715,168.203 L231.759,168.085 C232.446,166.124 233.508,164.329 234.892,162.841 L235.423,162.262 C235.678,161.979 236.087,161.92 236.408,162.109 C236.818,162.357 236.961,162.924 236.707,163.349 L236.286,164.058 C235.855,164.79 236.386,165.723 237.194,165.652 L238.356,165.557 C238.566,165.534 238.777,165.534 238.987,165.534 L242.64,165.534 L242.64,165.676 C242.64,166.361 242.473,167.022 242.153,167.612 L242.374,168.593 L234.261,171.049 L231.715,168.203 Z"/>
<path fill="#6554C0" fill-rule="nonzero" d="M184.863,250.958 C187.674,238.061 187.232,234.459 186.036,231.577 C184.055,226.806 180.093,224.196 177.635,222.896 C176.772,224.526 175.566,227.03 174.459,230.219 C172.433,236.041 172.057,240.352 171.293,245.809 C170.718,249.895 169.755,255.776 168.106,262.957 C166.08,267.799 164.044,273.551 162.35,280.129 C160.358,287.853 159.317,294.892 158.786,300.857 C161.133,300.857 163.49,300.856 165.848,300.845 C168.084,297.491 170.386,293.617 172.566,289.223 C176.595,281.121 179.085,273.504 180.679,267.15 C181.498,264.386 182.627,260.335 183.845,255.363 C184.166,254.04 184.498,252.623 184.863,250.958 Z"/>
<path fill="url(#confluence-primer-q)" fill-rule="nonzero" d="M194.482,226.57 C197.736,234.341 200.204,240.966 201.964,245.915 C205.959,257.147 206.646,260.749 206.911,262.296 C207.985,268.473 207.885,273.138 207.675,280.614 C207.531,285.928 207.088,293.062 205.827,301.483 C203.646,301.613 201.455,301.742 199.274,301.872 C197.204,296.121 195.09,288.373 194.36,279.031 C193.961,273.976 194.05,269.394 194.36,265.426 C191.161,262.131 187.796,258.351 184.409,254.04 C181.72,250.615 179.34,247.285 177.237,244.096 C177.237,244.096 172.411,235.51 174.337,230.644 C174.337,230.632 174.348,230.609 174.359,230.597 C174.902,229.192 175.389,228.01 175.632,227.432 C176.407,225.601 177.06,224.125 177.514,223.133 C179.495,223.889 181.742,224.597 184.232,225.188 C188.062,226.097 191.537,226.463 194.482,226.57 Z"/>
<path fill="#A27F68" fill-rule="nonzero" d="M189.445,175.608 C188.925,175.325 188.361,175.053 187.752,174.781 C187.099,174.486 186.468,174.238 185.881,174.037 C185.638,173.577 183.956,170.471 180.502,169.821 C179.96,169.727 178.089,169.396 176.186,170.459 C173.042,172.219 172.112,176.482 172.411,179.447 C172.522,180.533 172.71,182.529 174.094,184.064 C176.053,186.237 178.665,185.564 179.429,187.454 C180.059,189.001 178.543,190.135 179.152,191.233 C180.259,193.229 187.187,192.863 188.394,189.379 C188.56,188.907 188.837,187.761 188.04,185.966 C189.058,184.478 190.087,182.99 191.106,181.513 C190.851,180.887 190.475,180.12 189.91,179.305 C189.379,178.549 188.848,177.958 188.383,177.533 C188.56,177.309 188.759,177.037 188.947,176.707 C189.18,176.293 189.335,175.915 189.445,175.608 Z"/>
<path fill="#42526E" fill-rule="nonzero" d="M180.491,179.777 C180.325,178.525 180.834,178.136 180.425,177.368 C179.96,176.482 179.097,176.624 178.51,175.561 C178.333,175.254 177.99,174.616 178.167,174.037 C178.621,172.537 182.151,173.022 182.561,171.569 C182.672,171.156 182.506,170.73 182.34,170.435 C181.753,169.975 180.779,169.349 179.473,169.124 C176.529,168.616 173.385,170.4 171.825,173.258 C170.009,176.588 170.718,180.698 172.522,182.836 C173.219,183.663 174.614,185.328 176.573,185.647 C177.193,185.753 178.167,185.765 178.72,186.533 C179.152,187.123 179.074,187.808 179.429,187.914 C179.517,187.938 179.849,187.997 180.569,187.017 C181.343,185.966 182.284,184.702 182.096,183.179 C181.908,181.608 180.735,181.584 180.491,179.777 Z"/>
<path fill="#5243AA" fill-rule="nonzero" d="M189.169,189.91 C196.596,193.146 200.005,202.335 200.005,209.173 C200.005,213.165 198.853,216.578 197.868,219.483 C196.518,223.475 195.511,225.648 193.84,227.904 C189.124,234.246 175.676,233.868 173.64,229.369 C173.208,228.424 173.374,227.491 173.419,227.207 C175.942,210.968 172.599,192.898 180.436,189.107 C183.723,187.513 187.276,189.084 189.169,189.91 Z"/>
<path fill="url(#confluence-primer-r)" fill-rule="nonzero" d="M235.158,170.896 C235.313,171.085 235.479,171.262 235.634,171.451 C231.417,176.73 224.443,184.17 214.161,190.406 C201.82,197.894 190.298,200.268 183.336,201.106 C181.432,199.087 179.097,195.993 179.772,193.123 C180.325,190.749 182.827,189.013 194.161,185.836 C198.676,184.572 204.742,183.025 212.047,181.643 C218.599,176.718 225.163,171.781 231.715,166.856 C231.726,166.868 231.726,166.868 231.737,166.88 L235.158,170.896 Z"/>
<path fill="#D4B696" fill-rule="nonzero" d="M460.043,138.819 L464.36,143.437 L465.865,140.661 L461.04,137.472 C460.696,137.248 460.265,137.319 459.999,137.638 C459.733,137.98 459.745,138.5 460.043,138.819 Z"/>
<path fill="#E01E5A" fill-rule="nonzero" d="M195.017 123.33C195.017 125.993 192.978 128.168 190.482 128.168 187.987 128.168 185.948 125.993 185.948 123.33 185.948 120.667 187.987 118.491 190.482 118.491L195.017 118.491 195.017 123.33zM197.302 123.33C197.302 120.667 199.341 118.491 201.836 118.491 204.332 118.491 206.371 120.667 206.371 123.33L206.371 135.445C206.371 138.108 204.332 140.284 201.836 140.284 199.341 140.284 197.302 138.108 197.302 135.445L197.302 123.33z"/>
<path fill="#36C5F0" fill-rule="nonzero" d="M201.836 103.9003C199.341 103.9003 197.302 101.7248 197.302 99.0617 197.302 96.3986 199.341 94.2231 201.836 94.2231 204.332 94.2231 206.371 96.3986 206.371 99.0617L206.371 103.9003 201.836 103.9003zM201.836 106.3384C204.332 106.3384 206.371 108.514 206.371 111.177 206.371 113.84 204.332 116.016 201.836 116.016L190.482 116.016C187.987 116.016 185.948 113.84 185.948 111.177 185.948 108.514 187.987 106.3384 190.482 106.3384L201.836 106.3384z"/>
<path fill="#2EB67D" fill-rule="nonzero" d="M220.045 111.177C220.045 108.514 222.084 106.3384 224.579 106.3384 227.075 106.3384 229.114 108.514 229.114 111.177 229.114 113.84 227.075 116.016 224.579 116.016L220.045 116.016 220.045 111.177zM217.76 111.177C217.76 113.84 215.721 116.016 213.225 116.016 210.73 116.016 208.691 113.84 208.691 111.177L208.691 99.0617C208.691 96.3986 210.73 94.2231 213.225 94.2231 215.721 94.2231 217.76 96.3986 217.76 99.0617L217.76 111.177z"/>
<path fill="#ECB22E" fill-rule="nonzero" d="M213.225 130.606C215.721 130.606 217.76 132.782 217.76 135.445 217.76 138.108 215.721 140.284 213.225 140.284 210.73 140.284 208.691 138.108 208.691 135.445L208.691 130.606 213.225 130.606zM213.225 128.168C210.73 128.168 208.691 125.993 208.691 123.33 208.691 120.667 210.73 118.491 213.225 118.491L224.58 118.491C227.075 118.491 229.114 120.667 229.114 123.33 229.114 125.993 227.075 128.168 224.58 128.168L213.225 128.168z"/>
<rect width="59.769" height="63.776" x="391.818" y="83.594" fill="#FFF" fill-opacity=".01" fill-rule="nonzero"/>
<path fill="url(#confluence-primer-s)" fill-rule="nonzero" d="M402.163,125.146 C401.761,125.93 401.226,126.786 400.824,127.499 C400.489,128.14 400.69,128.996 401.293,129.423 L409.997,135.126 C410.666,135.554 411.47,135.34 411.871,134.627 C412.206,133.986 412.675,133.202 413.144,132.346 C416.625,126.287 420.04,127 426.334,130.208 L434.971,134.556 C435.64,134.913 436.444,134.556 436.779,133.843 L440.93,123.863 C441.198,123.15 440.93,122.294 440.26,122.009 C438.452,121.083 434.837,119.3 431.556,117.589 C419.772,111.601 409.796,111.958 402.163,125.146 Z"/>
<path fill="url(#confluence-primer-t)" fill-rule="nonzero" d="M441.198,101.8347 C441.599,101.0505 442.135,100.195 442.537,99.4822 C442.938,98.8406 442.738,97.9851 442.068,97.5574 L433.364,91.8542 C432.694,91.4265 431.891,91.6404 431.489,92.3533 C431.154,92.9949 430.686,93.779 430.217,94.6345 C426.735,100.6941 423.321,99.9812 417.027,96.7732 L408.457,92.3533 C407.787,91.9968 406.984,92.3533 406.649,93.0661 L402.498,103.0466 C402.23,103.7595 402.498,104.615 403.167,104.9001 C404.975,105.8269 408.591,107.6091 411.872,109.32 C423.589,115.38 433.565,115.023 441.198,101.8347 Z"/>
</g>
</svg>
