<svg xmlns="http://www.w3.org/2000/svg" width="569" height="242" viewBox="0 0 569 242">
<defs>
<linearGradient id="jira-primer-a" x1="100.003%" x2="0%" y1="49.998%" y2="49.998%">
<stop offset="0%" stop-color="#C1C7D0"/>
<stop offset="100%" stop-color="#C1C7D0" stop-opacity="0"/>
</linearGradient>
<linearGradient id="jira-primer-b" x1=".004%" x2="99.999%" y1="49.998%" y2="49.998%">
<stop offset="0%" stop-color="#0065FF"/>
<stop offset="17.24%" stop-color="#076AFF" stop-opacity=".801"/>
<stop offset="41.45%" stop-color="#1976FF" stop-opacity=".521"/>
<stop offset="69.66%" stop-color="#378BFF" stop-opacity=".195"/>
<stop offset="86.51%" stop-color="#4C9AFF" stop-opacity="0"/>
</linearGradient>
<radialGradient id="jira-primer-c" cx="49.999%" cy="50.001%" r="49.999%" fx="49.999%" fy="50.001%" gradientTransform="matrix(1 0 0 .93874 0 .03)">
<stop offset="0%" stop-color="#FFF0B2"/>
<stop offset="15.84%" stop-color="#FFE587" stop-opacity=".842"/>
<stop offset="35.89%" stop-color="#FFDA57" stop-opacity=".641"/>
<stop offset="54.98%" stop-color="#FFD031" stop-opacity=".45"/>
<stop offset="72.56%" stop-color="#FFC916" stop-opacity=".274"/>
<stop offset="88.11%" stop-color="#FFC506" stop-opacity=".119"/>
<stop offset="100%" stop-color="#FFC400" stop-opacity="0"/>
</radialGradient>
<linearGradient id="jira-primer-d" x1=".005%" x2="100.006%" y1="50.011%" y2="50.011%">
<stop offset="0%" stop-color="#0052CC"/>
<stop offset="100%" stop-color="#2684FF"/>
</linearGradient>
<linearGradient id="jira-primer-e" x1="-.008%" x2="100.005%" y1="50.065%" y2="50.065%">
<stop offset="0%" stop-color="#7A869A"/>
<stop offset="100%" stop-color="#DFE1E5"/>
</linearGradient>
<linearGradient id="jira-primer-f" x1="-.008%" x2="100.005%" y1="50.023%" y2="50.023%">
<stop offset="0%" stop-color="#7A869A"/>
<stop offset="100%" stop-color="#DFE1E5"/>
</linearGradient>
<linearGradient id="jira-primer-g" x1="50.017%" x2="50.017%" y1="100.004%" y2=".002%">
<stop offset="0%" stop-color="#2684FF"/>
<stop offset="100%" stop-color="#B2D4FF"/>
</linearGradient>
<linearGradient id="jira-primer-h" x1="100.005%" x2=".005%" y1="50.011%" y2="50.011%">
<stop offset="0%" stop-color="#FFF"/>
<stop offset="100%" stop-color="#EBECF0"/>
</linearGradient>
<linearGradient id="jira-primer-i" x1="49.978%" x2="49.978%" y1="100.004%" y2=".002%">
<stop offset="0%" stop-color="#C1C7D0"/>
<stop offset="100%" stop-color="#F4F5F7"/>
</linearGradient>
<linearGradient id="jira-primer-j" x1="42.762%" x2="55.697%" y1="44.292%" y2="53.198%">
<stop offset="0%" stop-color="#4C9AFF"/>
<stop offset="81.34%" stop-color="#0065FF"/>
<stop offset="87.13%" stop-color="#0065FF"/>
</linearGradient>
<linearGradient id="jira-primer-k" x1="-.006%" x2="100.006%" y1="50.019%" y2="50.019%">
<stop offset="0%" stop-color="#B2D4FF"/>
<stop offset="100%" stop-color="#2684FF"/>
</linearGradient>
<linearGradient id="jira-primer-l" x1="50.015%" x2="50.015%" y1="100.027%" y2=".001%">
<stop offset="0%" stop-color="#FFF0B2"/>
<stop offset="100%" stop-color="#FFC400"/>
</linearGradient>
<linearGradient id="jira-primer-m" x1="-.051%" x2="99.947%" y1="50.004%" y2="50.004%">
<stop offset="0%" stop-color="#FFC400"/>
<stop offset="100%" stop-color="#FFF0B2"/>
</linearGradient>
<linearGradient id="jira-primer-n" x1="40.603%" x2="59.648%" y1="25.813%" y2="73.938%">
<stop offset="0%" stop-color="#FFC400"/>
<stop offset="100%" stop-color="#FFF0B2"/>
</linearGradient>
<linearGradient id="jira-primer-o" x1="50.043%" x2="50.043%" y1="99.986%" y2="-.021%">
<stop offset="0%" stop-color="#FFC400"/>
<stop offset="100%" stop-color="#FFF0B2"/>
</linearGradient>
<linearGradient id="jira-primer-p" x1="50.018%" x2="50.018%" y1="99.993%" y2=".03%">
<stop offset="0%" stop-color="#FFC400"/>
<stop offset="100%" stop-color="#FFF0B2"/>
</linearGradient>
<linearGradient id="jira-primer-q" x1=".039%" x2="100.016%" y1="50%" y2="50%">
<stop offset="34.35%" stop-color="#6554C0"/>
<stop offset="100%" stop-color="#998DD9"/>
</linearGradient>
<linearGradient id="jira-primer-r" x1=".004%" x2="99.996%" y1="50.024%" y2="50.024%">
<stop offset="0%" stop-color="#5243AA"/>
<stop offset="100%" stop-color="#8777D9"/>
</linearGradient>
<linearGradient id="jira-primer-s" x1="92.889%" x2="55.63%" y1=".233%" y2="38.351%">
<stop offset="17.6%" stop-color="#FFF" stop-opacity=".4"/>
<stop offset="100%" stop-color="#FFF"/>
</linearGradient>
<linearGradient id="jira-primer-t" x1="95.172%" x2="52.255%" y1=".31%" y2="41.736%">
<stop offset="17.6%" stop-color="#FFF" stop-opacity=".4"/>
<stop offset="100%" stop-color="#FFF"/>
</linearGradient>
</defs>
<g fill="none" fill-rule="evenodd" transform="translate(-28 -8)">
<rect width="570.175" height="242.364" x="27.412" y="7.675" fill="#0052CC" fill-rule="nonzero"/>
<rect width="624.313" height="313.5" x=".404" y=".606" fill="#FFF" fill-opacity=".01" fill-rule="nonzero"/>
<path stroke="url(#jira-primer-a)" stroke-width="4.899" d="M156.648026,116.578399 C121.916118,116.578399 93.7496711,146.571272 93.7496711,183.58114 L93.7496711,243.837719 C93.7496711,280.835526 65.5941886,310.839912 30.8512061,310.839912 L0.403947368,310.839912"/>
<path fill="#D4B696" fill-rule="nonzero" d="M464.630482,146.723684 L462.537281,143.811404 L461.718202,136.947368 L461.574561,133.030702 L463.810307,133.030702 L466.29057,136.156798 C466.866228,136.888158 467.354167,137.701754 467.708333,138.586623 C468.20614,139.8125 468.471491,141.145833 468.471491,142.490132 L468.471491,145.297149 L464.630482,146.723684 Z"/>
<path fill="#A27F68" fill-rule="nonzero" d="M177.286184,131.946272 L175.547149,124.551535 C175.547149,124.091009 175.890351,123.701754 176.322368,123.678728 C176.654605,123.996711 177.030702,124.279605 177.286184,124.150219 C177.495614,124.04386 177.429825,123.737939 177.662281,123.58443 C178.071272,123.3125 178.835526,123.879386 179.067982,124.055921 C179.400219,124.303728 179.621711,124.5625 179.754386,124.740132 L180.807018,125.141447 C181.172149,125.282895 181.448465,125.612939 181.548246,126.025219 L182.866228,127.075658 C183.463816,127.169956 183.707237,129.740132 183.729167,129.823465 L183.275219,133.114035 C183.309211,133.243421 183.309211,133.384868 183.286184,133.526316 C183.186404,134.044956 182.677632,134.351974 182.201754,134.163377 L177.794956,132.476974 C177.551535,132.394737 177.362939,132.194079 177.286184,131.946272 Z"/>
<path fill="#A27F68" fill-rule="nonzero" d="M182.932018,137.902412 C184.25,137.406798 187.416667,141.924342 184.083333,133.243421 C183.884868,132.712719 183.474781,130.354167 181.448465,129.020833 C179.322368,127.629386 177.60636,129.327851 175.79057,127.758772 C174.805921,126.910088 174.783991,125.955044 173.520833,125.400219 C172.64693,125.010965 171.472588,124.951754 171.263158,125.400219 C171.01864,125.907895 172.192982,126.674342 173.83114,128.879386 C175.447368,131.061404 175.093202,131.403509 176.54386,133.042763 C177.141447,133.714912 177.573465,134.069079 178.868421,135.531798 C179.54386,136.298246 179.599781,136.380482 179.876096,136.616228 C180.485746,137.135965 181.869518,138.302632 182.932018,137.902412 Z"/>
<path fill="#403294" fill-rule="nonzero" d="M181.947368,206.473684 C178.913377,204.574561 179.156798,199.762061 179.621711,192.992325 C180.805921,175.631579 183.596491,169.263158 183.961623,160.346491 C184.205044,154.390351 183.41886,145.76864 178.403509,135.048246 C180.718202,134.788377 183.020833,134.529605 185.33443,134.257675 C189.675439,145.509868 191.623904,155.180921 192.597588,162.092105 C193.848684,171.008772 193.95943,179.063596 193.970395,182.118421 C194.004386,194.690789 192.398026,199.998904 193.605263,204.527412 C193.661184,204.751096 193.91557,205.482456 193.572368,206.154605 C192.421053,208.407895 185.345395,208.596491 181.947368,206.473684 Z"/>
<path stroke="url(#jira-primer-b)" stroke-width="4.899" d="M468.460526,116.578399 C503.192982,116.578399 531.359649,146.571272 531.359649,183.58114 L531.359649,243.837719 C531.359649,280.835526 559.514254,310.839912 594.257675,310.839912 L624.716009,310.839912"/>
<path fill="#B3BAC5" fill-rule="nonzero" d="M147.458443,127.145833 C145.476645,127.145833 143.871272,125.435307 143.871272,123.324561 L143.871272,109.867434 C143.871272,107.75636 145.476645,106.046162 147.458443,106.046162 C149.440351,106.046162 151.045724,107.75636 151.045724,109.867434 L151.045724,123.336623 C151.034649,125.435307 149.440351,127.145833 147.458443,127.145833 Z"/>
<path fill="#B3BAC5" fill-rule="nonzero" d="M154.62193,127.145833 C152.640132,127.145833 151.034759,125.435307 151.034759,123.324561 L151.034759,109.867434 C151.034759,107.75636 152.640132,106.046162 154.62193,106.046162 C156.603728,106.046162 158.209211,107.75636 158.209211,109.867434 L158.209211,123.336623 C158.209211,125.435307 156.603728,127.145833 154.62193,127.145833 Z"/>
<path fill="#4C9AFF" fill-rule="nonzero" d="M470,127.145833 C468.017544,127.145833 466.412281,125.435307 466.412281,123.324561 L466.412281,109.867434 C466.412281,107.75636 468.017544,106.046162 470,106.046162 C471.98136,106.046162 473.586623,107.75636 473.586623,109.867434 L473.586623,123.336623 C473.586623,125.435307 471.98136,127.145833 470,127.145833 Z"/>
<path fill="#4C9AFF" fill-rule="nonzero" d="M477.163377,127.145833 C475.180921,127.145833 473.575658,125.435307 473.575658,123.324561 L473.575658,109.867434 C473.575658,107.75636 475.180921,106.046162 477.163377,106.046162 C479.144737,106.046162 480.751096,107.75636 480.751096,109.867434 L480.751096,123.336623 C480.751096,125.435307 479.144737,127.145833 477.163377,127.145833 Z"/>
<path fill="url(#jira-primer-c)" fill-rule="nonzero" d="M314.984649,230.628289 C374.004386,230.628289 421.848684,179.661184 421.848684,116.79068 C421.848684,53.9201754 374.004386,2.95350877 314.984649,2.95350877 C255.964912,2.95350877 208.120614,53.9201754 208.120614,116.79068 C208.120614,179.661184 255.964912,230.628289 314.984649,230.628289 Z" opacity=".38"/>
<path fill="url(#jira-primer-d)" fill-rule="nonzero" d="M382.599781,166.161184 L421.904605,166.161184 C447.612939,166.161184 468.460526,143.964912 468.460526,116.566557 C468.460526,89.1805921 447.623904,66.9721491 421.904605,66.9721491 L382.599781,66.9721491 L382.599781,166.161184 Z"/>
<polygon fill="url(#jira-primer-e)" fill-rule="nonzero" points="261.94 145.379 305.474 145.379 305.474 137.784 261.94 137.784"/>
<polygon fill="url(#jira-primer-f)" fill-rule="nonzero" points="261.94 92.271 305.474 92.271 305.474 84.675 261.94 84.675"/>
<path fill="url(#jira-primer-g)" fill-rule="nonzero" d="M360.223684,172.895833 L376.001096,172.895833 C379.64364,172.895833 382.599781,169.746711 382.599781,165.866228 L382.599781,67.7152412 C382.599781,63.8348684 379.64364,60.6858553 376.001096,60.6858553 L360.223684,60.6858553 L360.223684,172.895833 Z"/>
<path fill="url(#jira-primer-h)" fill-rule="nonzero" d="M242.508772,166.161184 L203.205044,166.161184 C177.495614,166.161184 156.648026,143.964912 156.648026,116.566557 C156.648026,89.1805921 177.484649,66.9721491 203.205044,66.9721491 L242.508772,66.9721491 L242.508772,166.161184 Z"/>
<path fill="url(#jira-primer-i)" fill-rule="nonzero" d="M264.895833,172.895833 L249.119518,172.895833 C245.475877,172.895833 242.519737,169.746711 242.519737,165.866228 L242.519737,67.7152412 C242.519737,63.8348684 245.475877,60.6858553 249.119518,60.6858553 L264.895833,60.6858553 L264.895833,172.895833 Z"/>
<path fill="#D4B696" fill-rule="nonzero" d="M419.291667,172.883772 C418.95943,172.199561 418.394737,171.232456 417.464912,170.3125 C416.047149,168.921053 414.530702,168.378289 413.722588,168.16557 C413.523026,168.001096 413.26864,167.8125 412.947368,167.634868 C412.669956,167.48136 412.382675,167.364035 412.083333,167.281798 L409.791667,166.597588 C409.41557,166.491228 409.172149,166.101974 409.216009,165.689693 C409.259868,165.229167 409.658991,164.887061 410.091009,164.946272 L419.524123,166.066886 C420.686404,166.208333 421.782895,165.464912 422.148026,164.286184 L422.391447,163.530702 C422.535088,163.094298 422.934211,162.811404 423.377193,162.870614 C423.83114,162.929825 424.174342,163.319079 424.196272,163.79057 L424.285088,165.417763 C424.439693,168.27193 423.875,171.126096 422.667763,173.674342 L419.291667,172.883772 Z"/>
<path fill="#0065FF" fill-rule="nonzero" d="M473.631579,219.364035 C474.848684,221.817982 476.033991,224.424342 477.152412,227.172149 C481.890351,238.765351 484.281798,249.781798 485.434211,259.205044 C486.629386,262.530702 487.780702,266.009868 488.866228,269.666667 C491.976974,280.116228 493.947368,289.952851 495.176535,298.868421 C493.383772,299.423246 491.589912,299.976974 489.785088,300.531798 C487.924342,295.153509 484.968202,286.697368 481.160088,276.259868 C476.366228,263.108553 473.963816,256.527412 473.864035,256.291667 C467.14364,239.685307 463.489035,235.085526 465.25,228.788377 C465.881579,226.617325 467.597588,222.832237 473.631579,219.364035 Z"/>
<path fill="url(#jira-primer-j)" fill-rule="nonzero" d="M456.392544,223.551535 C453.015351,234.89693 449.639254,246.255482 446.262061,257.600877 C443.239035,271.45943 440.20614,285.316886 437.183114,299.175439 C440.427632,300.107456 439.23136,299.765351 442.475877,300.685307 C445.719298,292.299342 448.885965,283.41886 451.898026,274.053728 C453.425439,269.289474 454.854167,264.595395 456.171053,259.995614 C458.629386,254.805921 461.35307,251.255482 463.401316,248.968202 C468.527412,243.247807 472.85636,241.58443 475.83443,235.274123 C478.082237,230.52193 477.339912,227.821272 477.141447,227.172149 C476.985746,226.676535 476.576754,225.76864 475.756579,223.963816 C474.926535,222.112939 474.207237,220.60307 473.73136,219.599781 C471.705044,220.425439 469.413377,221.216009 466.866228,221.876096 C462.980263,222.902412 459.426535,223.362939 456.392544,223.551535 Z"/>
<path fill="url(#jira-primer-k)" fill-rule="nonzero" d="M446.782895,196.825658 C455.739035,193.381579 462.083333,190.398026 462.482456,190.055921 C462.847588,189.737939 463.212719,189.406798 463.212719,189.406798 C463.323465,189.3125 463.434211,189.207237 463.555921,189.088816 C466.468202,186.341009 473.066886,179.063596 473.044956,167.894737 C473.010965,155.275219 464.663377,147.655702 463.467105,146.594298 C465.360746,145.662281 467.242325,144.73136 469.135965,143.799342 C471.494518,146.217105 478.580044,154.083333 479.720395,166.314693 C480.75,177.235746 476.466009,185.679825 474.539474,189.490132 C472.601974,193.322368 470.475877,196.200658 468.903509,198.111842 C468.792763,200.623904 468.881579,203.748904 469.501096,207.263158 C470.530702,213.101974 472.612939,217.595395 474.262061,220.508772 C467.884868,222.619518 461.496711,224.730263 455.119518,226.842105 C456.746711,223.067982 456.45943,220.685307 455.871711,219.210526 C454.565789,215.89693 451.099781,215.283991 449.815789,211.274123 C449.296053,209.657895 449.350877,208.183114 449.461623,207.216009 C447.037281,207.451754 436.785088,208.125 427.849781,200.505482 C414.995614,189.537281 416.844298,171.609649 416.976974,170.513158 C419.26864,171.091009 421.572368,171.66886 423.864035,172.246711 C423.531798,174.252193 423.819079,180.054825 424.982456,183.58114 C428.214912,193.417763 438.533991,199.45614 446.782895,196.825658 Z"/>
<path fill="#D4B696" fill-rule="nonzero" d="M449.528509,179.288377 C449.694079,179.346491 449.948465,179.405702 450.336623,179.476974 C451.399123,179.66557 452.096491,179.948465 452.539474,180.29057 C453.701754,181.151316 452.938596,182.825658 453.946272,185.255482 C454.044956,185.503289 454.355263,186.199561 454.52193,187.201754 C454.598684,187.70943 454.621711,188.086623 454.621711,188.16886 C454.654605,188.95943 455.130482,190.574561 456.824561,194.077851 C456.45943,193.971491 456.105263,193.865132 455.739035,193.758772 C454.676535,193.322368 453.60307,192.887061 452.539474,192.450658 C450.236842,190.810307 449.726974,190.563596 449.726974,189.395833 C449.716009,188.003289 449.705044,185.5625 449.639254,185.468202 C448.89693,184.701754 447.934211,184.560307 448.664474,183.616228 C449.085526,183.085526 449.406798,182.696272 449.517544,182.589912 C449.860746,182.259868 450.104167,181.434211 449.528509,179.288377 Z"/>
<path fill="#172B4D" fill-rule="nonzero" d="M452.461623,180.23136 C452.241228,183.439693 452.296053,188.546053 454.222588,194.254386 C454.266447,194.395833 454.322368,194.549342 454.377193,194.690789 C456.414474,200.446272 462.869518,203.029605 467.819079,199.85636 C467.984649,199.751096 468.162281,199.632675 468.327851,199.515351 C468.360746,199.491228 468.383772,199.468202 468.416667,199.45614 C471.438596,197.25 471.848684,192.686404 469.402412,189.785088 C467.752193,187.838816 466.666667,185.974781 465.925439,184.41886 C463.633772,179.60636 463.955044,176.221491 460.910088,174.33443 C458.595395,172.895833 455.617325,173.131579 454.632675,173.201754 C452.72807,173.355263 451.842105,173.873904 451.421053,174.205044 C450.436404,174.994518 449.904605,175.902412 449.661184,176.398026 C449.074561,177.565789 448.929825,178.651316 448.885965,179.276316 C449.317982,179.299342 449.815789,179.370614 450.347588,179.487939 C451.188596,179.676535 451.908991,179.960526 452.461623,180.23136 Z"/>
<path fill="url(#jira-primer-l)" fill-rule="nonzero" d="M329.378289,28.7237939 L324.75,1.11364035 C324.639254,0.46495614 323.786184,0.429572368 323.620614,1.05467105 L316.97807,25.8930921 L311.585526,24.2537281 C311.176535,24.1240132 310.777412,24.5014254 310.855263,24.9495614 L315.482456,52.5597588 C315.593202,53.208443 316.446272,53.24375 316.611842,52.6186404 L323.255482,27.7802632 L328.64693,29.4196272 C329.057018,29.5610746 329.455044,29.1719298 329.378289,28.7237939 Z"/>
<path fill="url(#jira-primer-m)" fill-rule="nonzero" d="M299.739035,40.6358553 L290.217105,31 C290.017544,30.7995614 289.708333,31.0235746 289.808114,31.2948465 L294.015351,43.3367325 L291.390351,44.3745614 C291.213816,44.4453947 291.16886,44.68125 291.302632,44.822807 L300.823465,54.4585526 C301.023026,54.6591009 301.333333,54.4349781 301.233553,54.1637061 L297.026316,42.1219298 L299.650219,41.0839912 C299.827851,41.025 299.871711,40.7774123 299.739035,40.6358553 Z"/>
<path fill="url(#jira-primer-n)" fill-rule="nonzero" d="M351.591009,47.3435307 L355.787281,33.4961623 C355.873904,33.2069079 355.510965,33.0252193 355.308114,33.2553728 L346.214912,43.2695175 L343.936404,41.3017544 C343.781798,41.1692982 343.539474,41.2452851 343.474781,41.4421053 L339.278509,55.2894737 C339.191886,55.5786184 339.554825,55.760307 339.757675,55.5301535 L348.850877,45.5160088 L351.129386,47.4838816 C351.273026,47.6222588 351.525219,47.5402412 351.591009,47.3435307 Z"/>
<path fill="url(#jira-primer-o)" fill-rule="nonzero" d="M278.658991,184.866228 L274.717105,212.60636 C274.628289,213.255482 275.414474,213.585526 275.76864,213.054825 L289.541667,191.801535 L294.148026,195.198465 C294.502193,195.457237 294.989035,195.233553 295.044956,194.785088 L298.985746,167.046053 C299.074561,166.39693 298.288377,166.066886 297.934211,166.597588 L284.161184,187.850877 L279.554825,184.453947 C279.211623,184.194079 278.724781,184.417763 278.658991,184.866228 Z"/>
<path fill="url(#jira-primer-p)" fill-rule="nonzero" d="M310.323465,189.879386 L316.435307,202.263158 C316.557018,202.52193 316.922149,202.416667 316.911184,202.132675 L316.557018,189.289474 L319.358553,189.195175 C319.546053,189.183114 319.667763,188.970395 319.578947,188.79386 L313.468202,176.410088 C313.346491,176.150219 312.980263,176.256579 312.992325,176.539474 L313.346491,189.383772 L310.544956,189.466009 C310.35636,189.490132 310.234649,189.701754 310.323465,189.879386 Z"/>
<path fill="#A27F68" fill-rule="nonzero" d="M232.190789,167.658991 L232.234649,167.54057 C232.921053,165.583333 233.983553,163.79057 235.368421,162.303728 L235.899123,161.725877 C236.153509,161.442982 236.563596,161.383772 236.884868,161.573465 C237.29386,161.820175 237.438596,162.387061 237.184211,162.811404 L236.763158,163.51864 C236.33114,164.25 236.862939,165.182018 237.671053,165.110746 L238.833333,165.016447 C239.04386,164.993421 239.254386,164.993421 239.464912,164.993421 L243.118421,164.993421 L243.118421,165.134868 C243.118421,165.819079 242.951754,166.479167 242.630482,167.069079 L242.851974,168.048246 L234.736842,170.501096 L232.190789,167.658991 Z"/>
<path fill="#6554C0" fill-rule="nonzero" d="M185.323465,250.300439 C188.135965,237.421053 187.692982,233.823465 186.497807,230.946272 C184.515351,226.180921 180.551535,223.574561 178.094298,222.277412 C177.230263,223.904605 176.023026,226.405702 174.916667,229.589912 C172.890351,235.404605 172.514254,239.70943 171.75,245.157895 C171.174342,249.239035 170.210526,255.112939 168.561404,262.282895 C166.535088,267.118421 164.497807,272.862939 162.803947,279.432018 C160.810965,287.145833 159.770285,294.174342 159.238816,300.130482 C161.586075,300.130482 163.944079,300.130482 166.302632,300.118421 C168.539474,296.769737 170.842105,292.901316 173.023026,288.513158 C177.053728,280.423246 179.54386,272.815789 181.139254,266.470395 C181.958333,263.710526 183.087719,259.664474 184.304825,254.699561 C184.626096,253.378289 184.958333,251.963816 185.323465,250.300439 Z"/>
<path fill="url(#jira-primer-q)" fill-rule="nonzero" d="M194.945175,225.945175 C198.200658,233.70614 200.66886,240.322368 202.429825,245.264254 C206.426535,256.480263 207.112939,260.077851 207.378289,261.622807 C208.452851,267.791667 208.35307,272.449561 208.142544,279.91557 C207.998904,285.222588 207.555921,292.346491 206.29386,300.755482 C204.112939,300.885965 201.919956,301.015351 199.739035,301.144737 C197.66886,295.401316 195.553728,287.664474 194.823465,278.335526 C194.424342,273.287281 194.513158,268.711623 194.823465,264.747807 C191.623904,261.457237 188.257675,257.683114 184.869518,253.378289 C182.179825,249.958333 179.799342,246.632675 177.695175,243.448465 C177.695175,243.448465 172.868421,234.873904 174.794956,230.014254 C174.794956,230.002193 174.805921,229.979167 174.816886,229.967105 C175.359649,228.563596 175.846491,227.384868 176.089912,226.807018 C176.865132,224.97807 177.51864,223.504386 177.972588,222.513158 C179.953947,223.26864 182.201754,223.975877 184.692982,224.565789 C188.523026,225.473684 192,225.838816 194.945175,225.945175 Z"/>
<path fill="#A27F68" fill-rule="nonzero" d="M189.907895,175.053728 C189.387061,174.770833 188.822368,174.498904 188.213816,174.22807 C187.560307,173.933114 186.928728,173.685307 186.342105,173.484649 C186.098684,173.025219 184.41557,169.923246 180.961623,169.274123 C180.41886,169.179825 178.548246,168.849781 176.64364,169.911184 C173.498904,171.66886 172.569079,175.926535 172.868421,178.887061 C172.979167,179.971491 173.166667,181.964912 174.551535,183.498904 C176.510965,185.66886 179.123904,184.996711 179.888158,186.883772 C180.51864,188.428728 179.002193,189.560307 179.610746,190.657895 C180.718202,192.650219 187.649123,192.285088 188.855263,188.805921 C189.02193,188.33443 189.298246,187.189693 188.501096,185.39693 C189.519737,183.911184 190.549342,182.425439 191.567982,180.950658 C191.313596,180.325658 190.9375,179.559211 190.372807,178.745614 C189.841009,177.990132 189.309211,177.401316 188.844298,176.975877 C189.02193,176.752193 189.221491,176.48136 189.408991,176.150219 C189.641447,175.737939 189.797149,175.360746 189.907895,175.053728 Z"/>
<path fill="#42526E" fill-rule="nonzero" d="M180.950658,179.217105 C180.783991,177.967105 181.29386,177.577851 180.883772,176.811404 C180.41886,175.926535 179.555921,176.067982 178.968202,175.006579 C178.791667,174.699561 178.448465,174.063596 178.625,173.484649 C179.078947,171.986842 182.610746,172.470395 183.020833,171.019737 C183.131579,170.607456 182.966009,170.183114 182.799342,169.888158 C182.212719,169.427632 181.237939,168.802632 179.932018,168.578947 C176.986842,168.071272 173.842105,169.85307 172.281798,172.707237 C170.466009,176.032895 171.174342,180.137061 172.979167,182.27193 C173.676535,183.097588 175.071272,184.759868 177.030702,185.078947 C177.651316,185.185307 178.625,185.196272 179.178728,185.963816 C179.610746,186.552632 179.532895,187.236842 179.888158,187.343202 C179.975877,187.367325 180.308114,187.425439 181.028509,186.447368 C181.802632,185.39693 182.744518,184.134868 182.555921,182.614035 C182.367325,181.044956 181.194079,181.02193 180.950658,179.217105 Z"/>
<path fill="#5243AA" fill-rule="nonzero" d="M189.630482,189.336623 C197.060307,192.567982 200.470395,201.743421 200.470395,208.572368 C200.470395,212.559211 199.317982,215.967105 198.333333,218.869518 C196.982456,222.855263 195.974781,225.025219 194.302632,227.278509 C189.586623,233.611842 176.133772,233.234649 174.097588,228.741228 C173.66557,227.797149 173.83114,226.865132 173.876096,226.582237 C176.400219,210.365132 173.055921,192.320175 180.894737,188.533991 C184.183114,186.941886 187.737939,188.510965 189.630482,189.336623 Z"/>
<path fill="url(#jira-primer-r)" fill-rule="nonzero" d="M235.633772,170.347588 C235.788377,170.536184 235.955044,170.713816 236.109649,170.902412 C231.891447,176.174342 224.916667,183.604167 214.630482,189.832237 C202.286184,197.309211 190.759868,199.679825 183.796053,200.517544 C181.891447,198.501096 179.555921,195.410088 180.230263,192.544956 C180.783991,190.174342 183.286184,188.439693 194.623904,185.267544 C199.141447,184.005482 205.208333,182.460526 212.516447,181.080044 C219.070175,176.162281 225.635965,171.232456 232.190789,166.314693 C232.201754,166.325658 232.201754,166.325658 232.212719,166.337719 L235.633772,170.347588 Z"/>
<path fill="#D4B696" fill-rule="nonzero" d="M460.588816,138.314693 L464.906798,142.926535 L466.412281,140.154605 L461.585526,136.970395 C461.242325,136.746711 460.810307,136.816886 460.544956,137.135965 C460.278509,137.47807 460.29057,137.996711 460.588816,138.314693 Z"/>
<path fill="#E01E5A" fill-rule="nonzero" d="M195.480263 122.846491C195.480263 125.506579 193.441886 127.678728 190.945175 127.678728 188.448465 127.678728 186.408991 125.506579 186.408991 122.846491 186.408991 120.1875 188.448465 118.015351 190.945175 118.015351L195.480263 118.015351 195.480263 122.846491zM197.766447 122.846491C197.766447 120.1875 199.805921 118.015351 202.302632 118.015351 204.799342 118.015351 206.838816 120.1875 206.838816 122.846491L206.838816 134.945175C206.838816 137.605263 204.799342 139.777412 202.302632 139.777412 199.805921 139.777412 197.766447 137.605263 197.766447 134.945175L197.766447 122.846491z"/>
<path fill="#36C5F0" fill-rule="nonzero" d="M202.302632 103.444079C199.805921 103.444079 197.766447 101.271601 197.766447 98.6121711 197.766447 95.9527412 199.805921 93.7802632 202.302632 93.7802632 204.799342 93.7802632 206.838816 95.9527412 206.838816 98.6121711L206.838816 103.444079 202.302632 103.444079zM202.302632 105.878838C204.799342 105.878838 206.838816 108.051316 206.838816 110.710746 206.838816 113.370285 204.799342 115.542763 202.302632 115.542763L190.945175 115.542763C188.448465 115.542763 186.408991 113.370285 186.408991 110.710746 186.408991 108.051316 188.448465 105.878838 190.945175 105.878838L202.302632 105.878838z"/>
<path fill="#2EB67D" fill-rule="nonzero" d="M220.516447 110.710746C220.516447 108.051316 222.555921 105.878838 225.052632 105.878838 227.549342 105.878838 229.588816 108.051316 229.588816 110.710746 229.588816 113.370285 227.549342 115.542763 225.052632 115.542763L220.516447 115.542763 220.516447 110.710746zM218.23136 110.710746C218.23136 113.370285 216.191886 115.542763 213.695175 115.542763 211.198465 115.542763 209.158991 113.370285 209.158991 110.710746L209.158991 98.6121711C209.158991 95.9527412 211.198465 93.7802632 213.695175 93.7802632 216.191886 93.7802632 218.23136 95.9527412 218.23136 98.6121711L218.23136 110.710746z"/>
<path fill="#ECB22E" fill-rule="nonzero" d="M213.695175 130.114035C216.191886 130.114035 218.23136 132.286184 218.23136 134.945175 218.23136 137.605263 216.191886 139.777412 213.695175 139.777412 211.198465 139.777412 209.158991 137.605263 209.158991 134.945175L209.158991 130.114035 213.695175 130.114035zM213.695175 127.678728C211.198465 127.678728 209.158991 125.506579 209.158991 122.846491 209.158991 120.1875 211.198465 118.015351 213.695175 118.015351L225.052632 118.015351C227.549342 118.015351 229.588816 120.1875 229.588816 122.846491 229.588816 125.506579 227.549342 127.678728 225.052632 127.678728L213.695175 127.678728z"/>
<rect width="57.018" height="60.916" x="393.525" y="84.57" fill="#FFF" fill-opacity=".01" fill-rule="nonzero"/>
<path fill="#FFF" fill-rule="nonzero" d="M443.317982,88.377193 L421.26864,88.377193 C421.26864,94.2241228 425.730263,98.9832237 431.210526,98.9832237 L435.288377,98.9832237 L435.288377,103.130373 C435.288377,108.977303 439.75,113.736404 445.230263,113.736404 L445.230263,90.4167763 C445.230263,89.2610746 444.401316,88.377193 443.317982,88.377193 Z"/>
<path fill="url(#jira-primer-s)" fill-rule="nonzero" d="M432.101974,100.410855 L410.053728,100.410855 C410.053728,106.257785 414.514254,111.016886 419.994518,111.016886 L424.072368,111.016886 L424.072368,115.164035 C424.072368,121.010965 428.533991,125.769737 434.014254,125.769737 L434.014254,102.450439 C434.014254,101.362719 433.185307,100.410855 432.101974,100.410855 Z"/>
<path fill="url(#jira-primer-t)" fill-rule="nonzero" d="M420.887061,112.51261 L398.837719,112.51261 C398.837719,118.359649 403.298246,123.118421 408.778509,123.118421 L412.857456,123.118421 L412.857456,127.265351 C412.857456,133.112939 417.317982,137.871711 422.798246,137.871711 L422.798246,114.552303 C422.798246,113.396491 421.905702,112.51261 420.887061,112.51261 Z"/>
</g>
</svg>
