<svg width="158" height="170" viewBox="0 0 158 170" fill="none" xmlns="http://www.w3.org/2000/svg">
<rect width="158" height="170" fill="white" fill-opacity="0.01"/>
<path d="M121.005 136.491C121.339 136.94 121.771 137.307 122.269 137.562C122.768 137.818 123.318 137.955 123.878 137.963V137.963L117.361 142.66C117.308 142.68 117.26 142.712 117.223 142.755C117.185 142.797 117.158 142.848 117.144 142.903C117.13 142.959 117.13 143.016 117.143 143.072C117.157 143.127 117.184 143.178 117.221 143.221L121.215 148.829C121.266 148.883 121.329 148.926 121.399 148.952C121.468 148.979 121.543 148.989 121.618 148.982C121.692 148.975 121.764 148.952 121.828 148.913C121.891 148.874 121.945 148.822 121.986 148.759C122.183 148.18 122.521 147.66 122.972 147.247C123.422 146.834 123.968 146.54 124.561 146.394C125.154 146.247 125.775 146.252 126.365 146.408C126.956 146.564 127.498 146.866 127.941 147.287C128.499 147.779 128.893 148.43 129.07 149.153C129.248 149.875 129.199 150.635 128.932 151.329C128.665 152.024 128.192 152.62 127.577 153.038C126.961 153.455 126.233 153.675 125.489 153.666C125.421 153.688 125.358 153.725 125.305 153.774C125.252 153.824 125.211 153.884 125.185 153.951C125.158 154.018 125.146 154.09 125.15 154.162C125.155 154.234 125.175 154.304 125.209 154.367L129.203 159.975C129.229 160.023 129.267 160.064 129.313 160.095C129.358 160.126 129.411 160.146 129.465 160.152C129.52 160.159 129.575 160.153 129.627 160.134C129.679 160.116 129.725 160.085 129.763 160.045L136.279 155.419C136.134 155.961 136.103 156.527 136.187 157.082C136.272 157.637 136.47 158.169 136.77 158.643C137.055 159.039 137.415 159.375 137.83 159.631C138.245 159.888 138.707 160.06 139.188 160.138C139.67 160.216 140.162 160.199 140.636 160.087C141.111 159.975 141.559 159.77 141.955 159.485C142.35 159.199 142.686 158.839 142.942 158.423C143.199 158.008 143.371 157.547 143.449 157.065C143.527 156.583 143.51 156.091 143.397 155.616C143.285 155.141 143.081 154.693 142.796 154.297C142.469 153.851 142.049 153.481 141.565 153.215C141.081 152.948 140.544 152.791 139.993 152.755L146.509 148.128C146.557 148.101 146.598 148.063 146.629 148.018C146.66 147.972 146.679 147.92 146.686 147.865C146.693 147.811 146.687 147.755 146.668 147.703C146.65 147.652 146.619 147.605 146.579 147.567L142.585 141.889C142.576 141.843 142.558 141.799 142.532 141.76C142.506 141.721 142.472 141.687 142.433 141.661C142.394 141.635 142.35 141.617 142.304 141.608C142.258 141.599 142.211 141.599 142.165 141.608C142.119 141.617 142.075 141.636 142.036 141.662C141.997 141.688 141.964 141.721 141.938 141.76C141.912 141.8 141.894 141.843 141.885 141.889C141.875 141.935 141.876 141.983 141.885 142.029C141.702 142.516 141.422 142.961 141.06 143.335C140.698 143.709 140.264 144.004 139.783 144.202C139.13 144.47 138.414 144.547 137.719 144.423C137.024 144.299 136.379 143.979 135.859 143.501C135.465 143.121 135.158 142.66 134.96 142.15C134.761 141.64 134.676 141.092 134.709 140.546C134.742 140 134.894 139.467 135.153 138.985C135.412 138.502 135.772 138.082 136.209 137.753C136.834 137.343 137.564 137.124 138.311 137.122C138.396 137.129 138.48 137.112 138.554 137.07C138.628 137.029 138.688 136.967 138.726 136.891C138.764 136.815 138.778 136.73 138.766 136.646C138.755 136.562 138.718 136.483 138.662 136.421L134.668 130.812C134.61 130.722 134.52 130.657 134.415 130.631C134.311 130.605 134.201 130.619 134.107 130.672L127.521 135.369C127.701 134.831 127.75 134.258 127.665 133.697C127.58 133.137 127.362 132.604 127.031 132.144C126.745 131.748 126.385 131.413 125.97 131.156C125.555 130.899 125.094 130.727 124.612 130.649C124.131 130.571 123.639 130.588 123.164 130.701C122.689 130.813 122.241 131.018 121.846 131.303C121.062 131.891 120.536 132.76 120.379 133.727C120.222 134.695 120.447 135.685 121.005 136.491V136.491Z" fill="#2684FF"/>
<path d="M60.9579 143.501L60.6776 141.538C60.6087 141.135 60.3895 140.774 60.0643 140.527C59.7392 140.279 59.3323 140.165 58.926 140.206V140.206C58.5925 140.276 58.245 140.222 57.9484 140.055C57.6518 139.887 57.4264 139.617 57.3144 139.295C56.8171 138.228 56.2063 137.217 55.4927 136.28C55.2881 136.021 55.1769 135.7 55.1769 135.369C55.1769 135.038 55.2881 134.717 55.4927 134.458V134.458C55.6142 134.293 55.7016 134.105 55.7497 133.906C55.7979 133.707 55.8059 133.5 55.7733 133.298C55.7407 133.095 55.6681 132.901 55.5598 132.728C55.4514 132.554 55.3095 132.403 55.1424 132.285L53.6009 131.093C53.436 130.971 53.2485 130.884 53.0494 130.836C52.8503 130.787 52.6436 130.779 52.4414 130.812C52.2392 130.845 52.0454 130.917 51.8716 131.026C51.6978 131.134 51.5472 131.276 51.4289 131.443V131.443C51.2224 131.715 50.9315 131.911 50.6018 132C50.2721 132.089 49.9222 132.066 49.6071 131.934C48.5013 131.515 47.3483 131.232 46.1739 131.093C45.8314 131.061 45.5106 130.911 45.2674 130.668C45.0242 130.424 44.8739 130.104 44.8426 129.761V129.761C44.7739 129.363 44.5519 129.008 44.2244 128.772C43.8968 128.536 43.4899 128.438 43.0909 128.499L41.1291 128.779C40.7314 128.848 40.3765 129.07 40.1407 129.398C39.9049 129.726 39.8069 130.133 39.8679 130.532C39.911 130.863 39.8455 131.199 39.6813 131.49C39.517 131.781 39.2629 132.011 38.957 132.144C37.8818 132.626 36.8699 133.238 35.9442 133.967C35.6875 134.2 35.357 134.334 35.011 134.347C34.665 134.36 34.3255 134.25 34.0524 134.037V134.037C33.8958 133.902 33.7126 133.802 33.5148 133.742C33.3169 133.683 33.1087 133.666 32.9038 133.692C32.6989 133.719 32.5019 133.788 32.3255 133.896C32.1492 134.004 31.9975 134.147 31.8803 134.318L30.6892 135.93C30.4615 136.269 30.371 136.682 30.436 137.086C30.501 137.489 30.7167 137.853 31.0395 138.103C31.3163 138.289 31.5177 138.568 31.6076 138.889C31.6975 139.21 31.67 139.553 31.53 139.856C31.1108 140.962 30.8284 142.116 30.6892 143.291C30.6607 143.623 30.5204 143.935 30.2913 144.177C30.0622 144.419 29.7578 144.576 29.428 144.623V144.623C29.2248 144.648 29.0287 144.715 28.8513 144.817C28.6739 144.919 28.5187 145.056 28.3948 145.219C28.2708 145.383 28.1806 145.569 28.1295 145.767C28.0783 145.966 28.0671 146.172 28.0967 146.375L28.377 148.338C28.4459 148.741 28.6651 149.102 28.9903 149.35C29.3154 149.597 29.7223 149.712 30.1286 149.67V149.67C30.4715 149.597 30.8293 149.648 31.1376 149.815C31.4459 149.982 31.6844 150.254 31.8102 150.581C32.2539 151.677 32.8689 152.694 33.632 153.596C33.8365 153.856 33.9478 154.177 33.9478 154.507C33.9478 154.838 33.8365 155.159 33.632 155.419V155.419C33.3964 155.749 33.2945 156.157 33.3464 156.56C33.3984 156.963 33.6005 157.331 33.9122 157.592L35.5238 158.784C35.6887 158.905 35.8762 158.992 36.0753 159.041C36.2744 159.089 36.4811 159.097 36.6833 159.064C36.8855 159.032 37.0792 158.959 37.2531 158.851C37.4269 158.742 37.5774 158.6 37.6958 158.433V158.433C37.8817 158.156 38.1602 157.955 38.4813 157.865C38.8023 157.775 39.1449 157.802 39.4475 157.942C40.5533 158.362 41.7063 158.644 42.8807 158.784C43.2232 158.815 43.544 158.965 43.7872 159.209C44.0304 159.452 44.1807 159.773 44.212 160.115V160.115C44.2456 160.32 44.3199 160.515 44.4305 160.69C44.541 160.864 44.6856 161.015 44.8555 161.133C45.0255 161.25 45.2174 161.333 45.4198 161.375C45.6222 161.417 45.831 161.418 46.0337 161.377L47.9255 161.097C48.1287 161.071 48.3248 161.005 48.5022 160.903C48.6796 160.8 48.8348 160.663 48.9587 160.5C49.0827 160.337 49.1729 160.151 49.224 159.952C49.2752 159.754 49.2864 159.547 49.2568 159.344C49.2012 159.012 49.2613 158.67 49.4271 158.377C49.5928 158.083 49.8543 157.856 50.1677 157.732C51.2344 157.234 52.2445 156.623 53.1805 155.909C53.4259 155.682 53.7444 155.55 54.0784 155.537C54.4125 155.524 54.7402 155.632 55.0022 155.839H55.0723C55.2228 155.973 55.4003 156.072 55.5928 156.131C55.7852 156.19 55.988 156.207 56.1874 156.18C56.3869 156.153 56.5782 156.084 56.7485 155.977C56.9188 155.87 57.064 155.727 57.1743 155.559L58.3654 153.946C58.5932 153.607 58.6836 153.194 58.6186 152.791C58.5536 152.387 58.3379 152.024 58.0151 151.773C57.7383 151.587 57.5369 151.309 57.447 150.987C57.3571 150.666 57.3847 150.323 57.5246 150.021C57.9438 148.914 58.2262 147.761 58.3654 146.586C58.3968 146.243 58.5471 145.922 58.7903 145.679C59.0335 145.435 59.3542 145.285 59.6967 145.254C60.0944 145.185 60.4492 144.963 60.6851 144.635C60.9209 144.307 61.0188 143.9 60.9579 143.501V143.501ZM49.467 143.711C49.7264 144.736 49.6625 145.815 49.2842 146.802C48.9058 147.788 48.2316 148.633 47.354 149.221C46.4764 149.809 45.4385 150.11 44.3828 150.084C43.327 150.058 42.3052 149.706 41.4577 149.075C40.6101 148.445 39.9783 147.568 39.649 146.564C39.3197 145.56 39.309 144.479 39.6185 143.469C39.928 142.458 40.5424 141.569 41.3774 140.922C42.2124 140.275 43.2271 139.903 44.2821 139.856C45.4577 139.803 46.6154 140.159 47.5599 140.861C48.5044 141.563 49.178 142.57 49.467 143.711Z" fill="#2684FF"/>
<path d="M60.6774 141.538C60.6085 141.135 60.3893 140.774 60.0641 140.527C59.739 140.279 59.3321 140.165 58.9258 140.206V140.206C58.5923 140.276 58.2448 140.222 57.9482 140.055C57.6516 139.887 57.4262 139.617 57.3143 139.295C56.8169 138.228 56.2062 137.217 55.4925 136.28C55.2879 136.021 55.1767 135.7 55.1767 135.369C55.1767 135.038 55.2879 134.717 55.4925 134.458V134.458C55.614 134.293 55.7014 134.105 55.7496 133.906C55.7977 133.707 55.8058 133.5 55.7731 133.298C55.7405 133.095 55.6679 132.901 55.5596 132.728C55.4513 132.554 55.3094 132.403 55.1422 132.285L53.6007 131.093C53.4358 130.971 53.2483 130.884 53.0492 130.836C52.8501 130.787 52.6434 130.779 52.4412 130.812C52.239 130.845 52.0453 130.917 51.8714 131.026C51.6976 131.134 51.5471 131.276 51.4287 131.443V131.443C51.2222 131.715 50.9313 131.911 50.6016 132C50.2719 132.089 49.922 132.066 49.6069 131.934C48.5011 131.515 47.3481 131.232 46.1737 131.093C45.8312 131.061 45.5105 130.911 45.2673 130.668C45.0241 130.424 44.8737 130.104 44.8424 129.761V129.761C44.7737 129.363 44.5517 129.008 44.2242 128.772C43.8966 128.536 43.4897 128.438 43.0908 128.499L41.1289 128.779C40.9237 128.784 40.7262 128.858 40.5684 128.99C40.9768 132.78 41.9449 136.489 43.4411 139.996L44.2819 139.856C45.4604 139.79 46.6247 140.14 47.5721 140.844C48.5195 141.549 49.1899 142.563 49.4668 143.711C49.6686 144.516 49.6721 145.357 49.4768 146.163C49.2815 146.969 48.8933 147.716 48.3457 148.338C50.6135 151.309 53.3047 153.931 56.3333 156.12C56.6736 156.044 56.9733 155.844 57.1741 155.559L58.3653 153.946C58.593 153.607 58.6835 153.194 58.6184 152.791C58.5534 152.387 58.3377 152.024 58.0149 151.773V151.773C57.7382 151.587 57.5367 151.309 57.4468 150.987C57.357 150.666 57.3845 150.323 57.5245 150.021C57.9436 148.914 58.226 147.761 58.3653 146.586C58.3966 146.243 58.5469 145.922 58.7901 145.679C59.0333 145.435 59.354 145.285 59.6965 145.254C60.0942 145.185 60.4491 144.963 60.6849 144.635C60.9207 144.307 61.0186 143.9 60.9577 143.501L60.6774 141.538Z" fill="#0065FF"/>
<path d="M85.7614 160.186C107.006 160.186 124.228 142.955 124.228 121.699C124.228 100.443 107.006 83.2124 85.7614 83.2124C64.517 83.2124 47.2949 100.443 47.2949 121.699C47.2949 142.955 64.517 160.186 85.7614 160.186Z" fill="url(#paint0_linear)"/>
<path opacity="0.3" d="M113.297 148.548V146.866H110.845V143.431H104.259V146.866H100.405V143.431H93.819V146.866H89.9653V143.431H83.3791V146.866H80.9268V159.835C82.529 160.056 84.1439 160.173 85.7613 160.186C90.8951 160.182 95.9762 159.151 100.705 157.153C105.435 155.154 109.716 152.228 113.297 148.548Z" fill="#00875A"/>
<path d="M81.2073 137.753L66.2831 122.821C66.1136 122.657 65.9787 122.461 65.8866 122.244C65.7945 122.027 65.7471 121.794 65.7471 121.559C65.7471 121.323 65.7945 121.09 65.8866 120.873C65.9787 120.656 66.1136 120.46 66.2831 120.297L71.468 115.109C71.6314 114.94 71.8273 114.805 72.044 114.713C72.2607 114.62 72.4938 114.573 72.7292 114.573C72.9647 114.573 73.1977 114.62 73.4144 114.713C73.6311 114.805 73.827 114.94 73.9904 115.109L82.4685 123.662L101.246 104.944C101.41 104.775 101.606 104.64 101.822 104.548C102.039 104.455 102.272 104.408 102.508 104.408C102.743 104.408 102.976 104.455 103.193 104.548C103.409 104.64 103.605 104.775 103.769 104.944L108.954 110.062C109.123 110.225 109.258 110.421 109.35 110.638C109.442 110.855 109.49 111.088 109.49 111.324C109.49 111.559 109.442 111.792 109.35 112.009C109.258 112.226 109.123 112.422 108.954 112.586L83.7297 137.753C83.5663 137.922 83.3704 138.057 83.1537 138.149C82.937 138.241 82.7039 138.289 82.4685 138.289C82.233 138.289 82 138.241 81.7833 138.149C81.5666 138.057 81.3707 137.922 81.2073 137.753V137.753Z" fill="#E3FCEF"/>
<path d="M16.2555 19.9794C15.4338 19.1715 14.4085 18.6014 13.2888 18.3299C12.1692 18.0583 10.9969 18.0953 9.89653 18.4371C8.79621 18.7788 7.80899 19.4124 7.0398 20.2706C6.2706 21.1288 5.74819 22.1794 5.52809 23.3109C5.30798 24.4424 5.3984 25.6124 5.78975 26.6966C6.18109 27.7808 6.85873 28.7386 7.75064 29.4683C8.64255 30.1979 9.71539 30.6722 10.8551 30.8406C11.9949 31.009 13.159 30.8653 14.2236 30.4247C14.4171 30.3216 14.6395 30.2862 14.8554 30.3244C15.0713 30.3625 15.2682 30.4719 15.4147 30.6351C15.6118 30.8434 15.7217 31.1193 15.7217 31.4062C15.7217 31.6931 15.6118 31.969 15.4147 32.1773V32.1773C15.1535 32.4512 15.0077 32.8152 15.0077 33.1938C15.0077 33.5724 15.1535 33.9365 15.4147 34.2103L16.8861 35.6825L22.9119 29.6536L21.4405 28.1814C21.3157 28.0455 21.1642 27.9369 20.9953 27.8626C20.8264 27.7883 20.644 27.75 20.4595 27.75C20.2751 27.75 20.0926 27.7883 19.9238 27.8626C19.7549 27.9369 19.6033 28.0455 19.4786 28.1814V28.1814C19.2588 28.3834 18.9713 28.4955 18.6728 28.4955C18.3744 28.4955 18.0868 28.3834 17.8671 28.1814V28.1814C17.7158 28.0129 17.6156 27.8046 17.5784 27.5811C17.5412 27.3576 17.5684 27.1282 17.6569 26.9196C18.1253 25.7521 18.2422 24.473 17.9932 23.2399C17.7442 22.0068 17.1402 20.8734 16.2555 19.9794Z" fill="url(#paint1_linear)"/>
<path d="M19.3382 124.854C7.6115 112.35 1.20529 95.7732 1.47446 78.6289C1.74363 61.4846 8.66707 45.1172 20.7805 32.9883C32.894 20.8595 49.2476 13.9201 66.3828 13.6379C83.5179 13.3557 100.091 19.7528 112.597 31.4763L19.3382 124.854Z" fill="url(#paint2_linear)"/>
<g opacity="0.4">
<g opacity="0.4">
<g opacity="0.4">
<path opacity="0.4" d="M100.966 43.1835L89.2648 54.8206C76.5127 42.0619 32.8612 18.9278 19.6187 31.1959C39.0971 12.268 81.6976 23.9052 100.966 43.1835Z" fill="url(#paint3_linear)"/>
<path opacity="0.4" d="M19.6186 31.1959L19.3384 31.4763Z" fill="url(#paint4_linear)"/>
</g>
<path opacity="0.4" d="M19.6186 31.1959L19.3384 31.4763Z" fill="url(#paint5_linear)"/>
</g>
</g>
<path d="M13.5229 160.186V161.447C13.5229 162.414 13.9068 163.341 14.5901 164.025C15.2734 164.709 16.2001 165.093 17.1664 165.093V165.093C21.7114 165.091 26.0806 166.85 29.358 170H143.286C146.564 166.85 150.933 165.091 155.478 165.093V165.093C156.147 165.093 156.788 164.827 157.261 164.354C157.734 163.88 158 163.238 158 162.569V160.186H13.5229Z" fill="url(#paint6_linear)"/>
<path d="M13.5229 160.186H155.548C155.87 160.186 156.189 160.249 156.486 160.372C156.784 160.496 157.054 160.676 157.282 160.904C157.51 161.132 157.69 161.403 157.813 161.7C157.937 161.998 158 162.317 158 162.639V162.639C158 162.961 157.937 163.28 157.813 163.578C157.69 163.876 157.51 164.146 157.282 164.374C157.054 164.602 156.784 164.783 156.486 164.906C156.189 165.029 155.87 165.093 155.548 165.093H15.9753C15.3249 165.093 14.7011 164.834 14.2412 164.374C13.7813 163.914 13.5229 163.29 13.5229 162.639V160.186Z" fill="url(#paint7_linear)"/>
<path d="M110.418 27.0839L14.8957 122.656C13.9927 123.559 13.9927 125.024 14.8957 125.927L14.9254 125.957C15.8284 126.86 17.2924 126.86 18.1954 125.957L113.717 30.3853C114.62 29.4819 114.62 28.0171 113.717 27.1137L113.687 27.0839C112.784 26.1805 111.32 26.1805 110.418 27.0839Z" fill="url(#paint8_linear)"/>
<path d="M100.896 146.866H84.7104V160.179H100.896V146.866Z" fill="#0052CC"/>
<path d="M117.081 146.866H100.896V160.179H117.081V146.866Z" fill="url(#paint9_linear)"/>
<path d="M93.8189 143.431H87.1626V146.88H93.8189V143.431Z" fill="#2684FF"/>
<path d="M114.699 143.431H108.042V146.88H114.699V143.431Z" fill="#2684FF"/>
<path d="M104.259 143.431H97.6025V146.88H104.259V143.431Z" fill="#2684FF"/>
<path d="M120.865 87.4186C120.353 85.16 119.213 83.0924 117.576 81.4549C115.94 79.8173 113.873 78.6767 111.616 78.1649V78.1649C113.879 77.6401 115.947 76.4865 117.583 74.837C119.22 73.1875 120.357 71.1091 120.865 68.8412C121.385 71.1145 122.535 73.195 124.184 74.8441C125.832 76.4931 127.911 77.6441 130.183 78.1649V78.1649C127.917 78.6727 125.839 79.8107 124.191 81.4478C122.542 83.0849 121.389 85.1546 120.865 87.4186V87.4186Z" fill="#79F2C0"/>
<path d="M103.208 75.2907C102.964 74.156 102.398 73.1158 101.578 72.295C100.757 71.4743 99.7177 70.9079 98.5835 70.6639V70.6639C99.7158 70.3912 100.749 69.8066 101.566 68.9765C102.384 68.1464 102.952 67.1039 103.208 65.967C103.484 67.1058 104.068 68.1465 104.896 68.975C105.724 69.8035 106.764 70.3879 107.902 70.6639C106.766 70.9196 105.724 71.4885 104.894 72.3062C104.065 73.124 103.48 74.1578 103.208 75.2907V75.2907Z" fill="#79F2C0"/>
<path d="M100.125 9.32371C102.401 8.81059 104.484 7.66218 106.134 6.01183C107.783 4.36147 108.931 2.27685 109.444 0V0C109.964 2.27326 111.115 4.35373 112.763 6.00282C114.411 7.65191 116.491 8.80287 118.763 9.32371V9.32371C116.496 9.83147 114.419 10.9694 112.77 12.6065C111.121 14.2436 109.968 16.3133 109.444 18.5773C108.935 16.3061 107.787 14.2279 106.136 12.5882C104.485 10.9485 102.399 9.8158 100.125 9.32371V9.32371Z" fill="#79F2C0"/>
<path d="M16.606 104.033C17.7347 103.753 18.764 103.166 19.5801 102.337C20.3962 101.508 20.9674 100.469 21.2303 99.3361V99.3361C21.4859 100.473 22.0545 101.515 22.8718 102.346C23.6891 103.176 24.7225 103.76 25.8547 104.033V104.033C24.7206 104.277 23.6809 104.843 22.8606 105.664C22.0403 106.485 21.4742 107.525 21.2303 108.66C20.9785 107.529 20.4098 106.493 19.5908 105.673C18.7718 104.854 17.7365 104.285 16.606 104.033V104.033Z" fill="url(#paint10_linear)"/>
<path d="M23.8926 87.4185C25.8738 86.9881 27.691 86.0009 29.1308 84.5728C30.5705 83.1447 31.573 81.3351 32.0203 79.3567V79.3567C32.4464 81.3334 33.4332 83.1452 34.8623 84.575C36.2914 86.0049 38.1023 86.9922 40.0779 87.4185V87.4185C38.1006 87.8661 36.2919 88.8691 34.8646 90.3096C33.4372 91.7501 32.4505 93.5683 32.0203 95.5505V95.5505C31.5769 93.5629 30.5771 91.7426 29.1378 90.3025C27.6985 88.8625 25.8792 87.8621 23.8926 87.4185V87.4185Z" fill="url(#paint11_linear)"/>
<defs>
<linearGradient id="paint0_linear" x1="58.5826" y1="148.913" x2="112.969" y2="94.5624" gradientUnits="userSpaceOnUse">
<stop offset="0.24" stop-color="#36B37E"/>
<stop offset="0.51" stop-color="#54CF9B"/>
<stop offset="0.82" stop-color="#6FE9B6"/>
<stop offset="1" stop-color="#79F2C0"/>
</linearGradient>
<linearGradient id="paint1_linear" x1="14.1747" y1="35.683" x2="14.1747" y2="18.1847" gradientUnits="userSpaceOnUse">
<stop stop-color="#A5ADBA"/>
<stop offset="0.26" stop-color="#AFB6C1"/>
<stop offset="0.7" stop-color="#CACED5"/>
<stop offset="1" stop-color="#DFE1E5"/>
</linearGradient>
<linearGradient id="paint2_linear" x1="56.3171" y1="124.86" x2="56.3171" y2="12.1867" gradientUnits="userSpaceOnUse">
<stop stop-color="#A5ADBA"/>
<stop offset="0.41" stop-color="#C5C9D2"/>
<stop offset="0.76" stop-color="#D8DBE0"/>
<stop offset="1" stop-color="#DFE1E5"/>
</linearGradient>
<linearGradient id="paint3_linear" x1="83.5995" y1="60.5175" x2="36.9339" y2="13.8763" gradientUnits="userSpaceOnUse">
<stop stop-color="white"/>
<stop offset="0.02" stop-color="#FEFEFE" stop-opacity="0.97"/>
<stop offset="0.19" stop-color="#FAFAFB" stop-opacity="0.81"/>
<stop offset="0.33" stop-color="#F7F7F9" stop-opacity="0.7"/>
<stop offset="0.46" stop-color="#F5F6F8" stop-opacity="0.63"/>
<stop offset="0.54" stop-color="#F4F5F7" stop-opacity="0.6"/>
<stop offset="0.62" stop-color="#F4F5F7" stop-opacity="0.62"/>
<stop offset="0.71" stop-color="#F6F7F8" stop-opacity="0.67"/>
<stop offset="0.81" stop-color="#F8F9FA" stop-opacity="0.75"/>
<stop offset="0.91" stop-color="#FBFCFC" stop-opacity="0.87"/>
<stop offset="1" stop-color="white"/>
</linearGradient>
<linearGradient id="paint4_linear" x1="19.4641" y1="31.3552" x2="19.4591" y2="31.3503" gradientUnits="userSpaceOnUse">
<stop stop-color="white"/>
<stop offset="0.04" stop-color="white" stop-opacity="0.89"/>
<stop offset="0.15" stop-color="white" stop-opacity="0.62"/>
<stop offset="0.25" stop-color="white" stop-opacity="0.4"/>
<stop offset="0.34" stop-color="white" stop-opacity="0.23"/>
<stop offset="0.42" stop-color="white" stop-opacity="0.1"/>
<stop offset="0.49" stop-color="white" stop-opacity="0.03"/>
<stop offset="0.54" stop-color="white" stop-opacity="0"/>
<stop offset="0.59" stop-color="white" stop-opacity="0.02"/>
<stop offset="0.65" stop-color="white" stop-opacity="0.07"/>
<stop offset="0.71" stop-color="white" stop-opacity="0.16"/>
<stop offset="0.77" stop-color="white" stop-opacity="0.29"/>
<stop offset="0.84" stop-color="white" stop-opacity="0.46"/>
<stop offset="0.9" stop-color="white" stop-opacity="0.66"/>
<stop offset="0.97" stop-color="white" stop-opacity="0.89"/>
<stop offset="1" stop-color="white"/>
</linearGradient>
<linearGradient id="paint5_linear" x1="19.4641" y1="31.3552" x2="19.4591" y2="31.3503" gradientUnits="userSpaceOnUse">
<stop stop-color="white"/>
<stop offset="0.04" stop-color="white" stop-opacity="0.89"/>
<stop offset="0.15" stop-color="white" stop-opacity="0.62"/>
<stop offset="0.25" stop-color="white" stop-opacity="0.4"/>
<stop offset="0.34" stop-color="white" stop-opacity="0.23"/>
<stop offset="0.42" stop-color="white" stop-opacity="0.1"/>
<stop offset="0.49" stop-color="white" stop-opacity="0.03"/>
<stop offset="0.54" stop-color="white" stop-opacity="0"/>
<stop offset="0.59" stop-color="white" stop-opacity="0.02"/>
<stop offset="0.65" stop-color="white" stop-opacity="0.07"/>
<stop offset="0.71" stop-color="white" stop-opacity="0.16"/>
<stop offset="0.77" stop-color="white" stop-opacity="0.29"/>
<stop offset="0.84" stop-color="white" stop-opacity="0.46"/>
<stop offset="0.9" stop-color="white" stop-opacity="0.66"/>
<stop offset="0.97" stop-color="white" stop-opacity="0.89"/>
<stop offset="1" stop-color="white"/>
</linearGradient>
<linearGradient id="paint6_linear" x1="13.544" y1="165.1" x2="157.979" y2="165.1" gradientUnits="userSpaceOnUse">
<stop offset="0.56" stop-color="#97A0AF"/>
<stop offset="0.66" stop-color="#A1A9B6"/>
<stop offset="0.82" stop-color="#BCC1CB"/>
<stop offset="1" stop-color="#DFE1E5"/>
</linearGradient>
<linearGradient id="paint7_linear" x1="13.544" y1="162.639" x2="157.979" y2="162.639" gradientUnits="userSpaceOnUse">
<stop stop-color="#A5ADBA"/>
<stop offset="0.5" stop-color="#A7AFBB"/>
<stop offset="0.68" stop-color="#AEB5C0"/>
<stop offset="0.81" stop-color="#B9BFC9"/>
<stop offset="0.91" stop-color="#CACED6"/>
<stop offset="1" stop-color="#DFE1E5"/>
</linearGradient>
<linearGradient id="paint8_linear" x1="-180362" y1="165313" x2="-160650" y2="145611" gradientUnits="userSpaceOnUse">
<stop stop-color="#A5ADBA"/>
<stop offset="0.5" stop-color="#A7AFBB"/>
<stop offset="0.68" stop-color="#AEB5C0"/>
<stop offset="0.81" stop-color="#B9BFC9"/>
<stop offset="0.91" stop-color="#CACED6"/>
<stop offset="1" stop-color="#DFE1E5"/>
</linearGradient>
<linearGradient id="paint9_linear" x1="101.632" y1="160.894" x2="116.388" y2="146.145" gradientUnits="userSpaceOnUse">
<stop stop-color="#0065FF"/>
<stop offset="0.17" stop-color="#1272FF"/>
<stop offset="0.51" stop-color="#3288FF"/>
<stop offset="0.8" stop-color="#4595FF"/>
<stop offset="1" stop-color="#4C9AFF"/>
</linearGradient>
<linearGradient id="paint10_linear" x1="235.34" y1="1482.51" x2="358.071" y2="1482.51" gradientUnits="userSpaceOnUse">
<stop stop-color="white"/>
<stop offset="0.02" stop-color="#FEFEFE" stop-opacity="0.97"/>
<stop offset="0.19" stop-color="#FAFAFB" stop-opacity="0.81"/>
<stop offset="0.33" stop-color="#F7F7F9" stop-opacity="0.7"/>
<stop offset="0.46" stop-color="#F5F6F8" stop-opacity="0.63"/>
<stop offset="0.54" stop-color="#F4F5F7" stop-opacity="0.6"/>
<stop offset="0.62" stop-color="#F4F5F7" stop-opacity="0.62"/>
<stop offset="0.71" stop-color="#F6F7F8" stop-opacity="0.67"/>
<stop offset="0.81" stop-color="#F8F9FA" stop-opacity="0.75"/>
<stop offset="0.91" stop-color="#FBFCFC" stop-opacity="0.87"/>
<stop offset="1" stop-color="white"/>
</linearGradient>
<linearGradient id="paint11_linear" x1="576.623" y1="2099.37" x2="949.534" y2="2099.37" gradientUnits="userSpaceOnUse">
<stop stop-color="white"/>
<stop offset="0.02" stop-color="#FEFEFE" stop-opacity="0.97"/>
<stop offset="0.19" stop-color="#FAFAFB" stop-opacity="0.81"/>
<stop offset="0.33" stop-color="#F7F7F9" stop-opacity="0.7"/>
<stop offset="0.46" stop-color="#F5F6F8" stop-opacity="0.63"/>
<stop offset="0.54" stop-color="#F4F5F7" stop-opacity="0.6"/>
<stop offset="0.62" stop-color="#F4F5F7" stop-opacity="0.62"/>
<stop offset="0.71" stop-color="#F6F7F8" stop-opacity="0.67"/>
<stop offset="0.81" stop-color="#F8F9FA" stop-opacity="0.75"/>
<stop offset="0.91" stop-color="#FBFCFC" stop-opacity="0.87"/>
<stop offset="1" stop-color="white"/>
</linearGradient>
</defs>
</svg>
